<svg xmlns="http://www.w3.org/2000/svg" width="139.882" height="470.662" viewBox="0 0 139.882 470.662">
  <g id="Group_1156" data-name="Group 1156" transform="translate(0.003 0.001)">
    <path id="Path_2752" data-name="Path 2752" d="M-753.96,403.094a142.615,142.615,0,0,0-7.28,12.324c-1.166,2.294-.394,5.732,3.551,5.968,3.978.236,7.94-3.671,9.972-5.742,3.076-3.138,7.794-10.783,8.618-10.541s1.137,13.529,3.335,13.226,3.887-28.122,1.544-29.069C-737.777,387.819-745,389.17-753.96,403.094Z" transform="translate(815.435 47.077)" fill="#a36361"/>
    <path id="Path_2753" data-name="Path 2753" d="M-727.948,356.416s-35.228-15.149-35.1-4.631,21.533,124.642,11.342,143.261c2.362,4.356,17.956-6.02,20.409-14.883C-730.035,460.293-711.313,395.247-727.948,356.416Z" transform="translate(812.511 -43.825)" fill="#f7a577"/>
    <path id="Path_2754" data-name="Path 2754" d="M-749.824,403.773a142.109,142.109,0,0,0-7.284,12.321c-1.163,2.294-.394,5.732,3.551,5.968,3.981.236,7.943-3.667,9.975-5.742,3.073-3.138,7.794-10.783,8.614-10.537s1.138,13.526,3.335,13.226,3.887-28.122,1.544-29.072C-733.645,388.5-740.864,389.849-749.824,403.773Z" transform="translate(824.658 48.589)" fill="#a36361"/>
    <path id="Path_2755" data-name="Path 2755" d="M-723.812,357.1s-35.228-15.152-35.1-4.63,21.532,124.635,11.34,143.257c2.362,4.356,17.959-6.017,20.409-14.883C-725.9,460.972-707.18,395.922-723.812,357.1Z" transform="translate(821.733 -42.314)" fill="#fdb688"/>
    <path id="Path_2756" data-name="Path 2756" d="M-695.3,306.24c19.708,53.075,19.356,82.014,38.181,145.549-32.158,18.04-86.949,16.179-112.831,3.238-.533-38.2,3.021-100.5,7.729-149.911Z" transform="translate(796.998 -139.67)" fill="#0b4875"/>
    <g id="Group_1152" data-name="Group 1152" transform="translate(0 110.65)">
      <path id="Path_2757" data-name="Path 2757" d="M-754.6,294.786c-4.834,8.043-9.167,16.383-13.733,24.565q-3.524,6.311-7.041,12.622c-1.664,2.973-4.288,6.537-2.229,10.159a13.017,13.017,0,0,0,4.575,4.149c2.016,1.27,4.081,2.478,6.143,3.687q6.941,4.086,14.069,7.884,14.226,7.581,29.086,14.011c7.732,3.344,17.184,8.46,24.613,3.461,3.687-2.482,5.609-6.379,7.364-10.13q3.014-6.437,5.638-13.038c3.322-8.343,10.508-25.46,10.182-26.416-1.473-4.372-6.33-6.721-10.373-9.09q-8.08-4.74-16.318-9.225c-10.631-5.787-21.453-11.3-32.458-16.425-3.429-1.6-7.277-3.238-11.067-2.756C-750.275,288.767-752.783,291.768-754.6,294.786Z" transform="translate(778.355 -288.158)" fill="#35999e"/>
      <path id="Path_2758" data-name="Path 2758" d="M-700.247,374.933c5.248-7.781,25.259-46.366,23.556-47.568-1.945-1.377-65.115-42.954-72.8-38.353-3.813,2.281-27.961,49.882-27.686,50.858,1.241,4.443,5.965,7.044,9.878,9.626,5.212,3.435,11.785,6.056,17.113,9.332C-739.872,365.172-702.218,377.851-700.247,374.933Z" transform="translate(780.99 -287.043)" fill="#fff"/>
      <path id="Path_2759" data-name="Path 2759" d="M-750.861,295.649q-7.832,12.311-15.659,24.623-3.916,6.156-7.829,12.311c-1.648,2.592-4.8,6.085-3.086,9.465.834,1.648,2.589,2.666,4.272,3.548,2.446,1.283,4.912,2.537,7.367,3.807q7.363,3.8,14.732,7.61,14.4,7.435,28.795,14.874c4.45,2.3,8.86,4.866,13.468,6.87,3.425,1.486,7.332,2.074,10.143-.187a13.152,13.152,0,0,0,3.238-4.517c1.034-2.032,2.042-4.078,3.06-6.117q3.238-6.471,6.472-12.938c4.317-8.628,9.885-16.732,12.948-25.88,1.163-3.483-6-6.427-8.889-7.975l-16.328-8.747q-16.329-8.749-32.662-17.494c-2.485-1.331-4.957-2.7-7.464-4a13.667,13.667,0,0,0-4.54-1.658C-747.345,288.7-749.093,292.867-750.861,295.649Z" transform="translate(779.299 -285.841)" fill="#6fb6bd"/>
      <path id="Path_2760" data-name="Path 2760" d="M-772.059,317.139c1.4.258,3.68,2.5,4.989,3.06a5.884,5.884,0,0,0,3.445.585c2.766-.572,4.02-3.26,4.95-5.632,1.4-3.571.743-7.106-.223-7.474.468-1.225.627-2.559-.73-3.3a1.907,1.907,0,0,0-2.029.113,1.391,1.391,0,0,0-.756-.889,1.907,1.907,0,0,0-2.084.494c-.9.7-1.8,1.422-2.7,2.133l-4.653,3.671-.381-.217a29.359,29.359,0,0,0,2.382-2.4c.717-.847.75-2.12-.453-2.566-1.254-.465-2.685.708-3.684,1.328a17.859,17.859,0,0,0-3.548,3.163c-1.816,2.152.275,3.516,2.039,4.323C-776.162,316.409-773.988,316.784-772.059,317.139Z" transform="translate(778.62 -254.053)" fill="#f7a577"/>
      <g id="Group_1151" data-name="Group 1151" transform="translate(3.211 51.02)">
        <path id="Path_2761" data-name="Path 2761" d="M-774.45,314.356a16.646,16.646,0,0,0,6.711-9.4c.084-.31.546-.126.462.181a17.041,17.041,0,0,1-6.86,9.61C-774.4,314.924-774.715,314.537-774.45,314.356Z" transform="translate(783.633 -302.059)" fill="#d36e3c"/>
        <path id="Path_2762" data-name="Path 2762" d="M-776.1,314.63a21.255,21.255,0,0,0,9.578-10.534c.126-.294.588-.113.465.181a21.815,21.815,0,0,1-9.842,10.809C-776.181,315.238-776.378,314.779-776.1,314.63Z" transform="translate(779.874 -303.947)" fill="#d36e3c"/>
        <path id="Path_2763" data-name="Path 2763" d="M-777.28,308.2q1.474-1.386,2.944-2.773c.233-.22.546.171.313.388l-2.941,2.773C-777.2,308.8-777.51,308.413-777.28,308.2Z" transform="translate(777.361 -300.795)" fill="#d36e3c"/>
      </g>
    </g>
    <path id="Path_2764" data-name="Path 2764" d="M-734.571,276.492l13.149,5.791-37.995,74.532-10.967-36.465,27.518-39.217Z" transform="translate(796.143 -203.536)" fill="#dddddb"/>
    <path id="Path_2765" data-name="Path 2765" d="M-724.428,276.668s-3.477-6.24-5.274-6.4-23.424,10.4-23.424,10.4c-5.257,3.674-9.969,19.058-8.634,19.766s8.172-9.416,8.172-9.416.41,10.605,2.026,11.516S-730.7,287.725-724.428,276.668Z" transform="translate(814.872 -217.433)" fill="#0b4875"/>
    <path id="Path_2766" data-name="Path 2766" d="M-746.772,276.574l-18.609,39.671c-.73,12.124,4.65,26.52,8.027,38.721l-3.965,42.256s-5.167,2.64-8.821-4.45,8.9-31.137,8.9-31.137l.759-8.4c-4.424-10.983-10.414-23.7-8.608-37.729C-764.609,300.292-757.865,284.659-746.772,276.574Z" transform="translate(795.193 -203.354)" fill="#a36361"/>
    <path id="Path_2767" data-name="Path 2767" d="M-706.919,272.246s13.51,8.883,19.714,24.041c9.584,23.417-7.07,54.745-7.975,72.217s15.171,43.626,12.079,47.6-71.076,15.291-85.685-7.044c-3.726-5.694,3.377-18.347,7.151-39.593,4.589-25.825-4.272-23.931,2.23-39.991C-755.57,320-721.344,283.74-706.919,272.246Z" transform="translate(797.363 -213.011)" fill="#d3a29d"/>
    <g id="Group_1153" data-name="Group 1153" transform="translate(30.181 92.098)">
      <path id="Path_2768" data-name="Path 2768" d="M-765.918,282.667c-.187.452-.378.9-.566,1.357s.556.7.747.236.378-.9.565-1.357S-765.727,282.2-765.918,282.667Z" transform="translate(774.592 -282.416)" fill="#011328"/>
      <path id="Path_2769" data-name="Path 2769" d="M-764.309,283.4c-.233.7-.462,1.412-.691,2.117a.392.392,0,0,0,.262.468.392.392,0,0,0,.484-.232c.233-.7.462-1.412.691-2.116a.392.392,0,0,0-.261-.471A.392.392,0,0,0-764.309,283.4Z" transform="translate(777.921 -280.819)" fill="#011328"/>
      <path id="Path_2770" data-name="Path 2770" d="M-765.755,284.659q-.3,1.546-.591,3.086c-.094.491.656.734.75.236q.3-1.541.588-3.086C-764.912,284.4-765.662,284.165-765.755,284.659Z" transform="translate(774.95 -278.02)" fill="#011328"/>
      <path id="Path_2771" data-name="Path 2771" d="M-767.843,285.556l-.679,3.183c-.1.491.646.73.75.236.226-1.06.449-2.123.676-3.186C-766.993,285.3-767.739,285.062-767.843,285.556Z" transform="translate(770.093 -276.018)" fill="#011328"/>
      <path id="Path_2772" data-name="Path 2772" d="M-767.464,287.294l-.2,2.511c-.084,1.008,1.483,1.073,1.567.071l.2-2.511C-765.813,286.357-767.38,286.289-767.464,287.294Z" transform="translate(772.012 -273.139)" fill="#011328"/>
      <path id="Path_2773" data-name="Path 2773" d="M-763.735,287.343c-.171-1-1.7-.643-1.528.349l.388,2.22c.171,1,1.7.646,1.528-.349C-763.477,288.826-763.606,288.083-763.735,287.343Z" transform="translate(777.353 -272.748)" fill="#011328"/>
      <path id="Path_2774" data-name="Path 2774" d="M-766.489,293.876l-.963-3.38c-.278-.966-1.806-.624-1.528.349q.48,1.687.96,3.38C-767.743,295.191-766.212,294.849-766.489,293.876Z" transform="translate(769.014 -265.671)" fill="#011328"/>
      <path id="Path_2775" data-name="Path 2775" d="M-764.889,292.153q-.291-.625-.581-1.257c-.21-.456-.9-.084-.692.372.194.42.388.837.579,1.257C-765.37,292.984-764.679,292.612-764.889,292.153Z" transform="translate(775.292 -263.958)" fill="#011328"/>
    </g>
    <g id="Group_1154" data-name="Group 1154" transform="translate(41.588)">
      <path id="Path_2776" data-name="Path 2776" d="M-748.387,280.8a25.833,25.833,0,0,0,.174-5.351c.113.478.233.956.369,1.425.371,1.283,1.367,4.75,3.131,4.579a.449.449,0,0,0,.375-.511,23.8,23.8,0,0,0-1.493-4.847c1.467,1.929,4.172,3.813,6.608,2.34a4.358,4.358,0,0,0,1.086-1.008c.536-.659,1.131-1.2,1.706-1.813a2.844,2.844,0,0,0,.385-2.957c2.385-1.173,2.892-5.606.953-7.416a1.527,1.527,0,0,0,.336-1.432c-.258-.986-1.309-1.367-2.194-1.587-3.567-.885-7.361-.439-10.971,0a1.924,1.924,0,0,0-1.625.831,9.522,9.522,0,0,0-.772,2.407,12.967,12.967,0,0,0-.6,2.029c-.643,2.449-.084,5.4.178,7.836a30.954,30.954,0,0,0,.633,4.537c.187.711.443,1.27,1.225,1.331A.458.458,0,0,0-748.387,280.8Z" transform="translate(797.317 -236.525)" fill="#dd7440"/>
      <path id="Path_2777" data-name="Path 2777" d="M-747.545,269.941c.724-.7.937-2.217,1.251-3.154a18.309,18.309,0,0,0,1.15-3.622.457.457,0,0,0-.155-.4,8.113,8.113,0,0,0-3.157-1.069,2.768,2.768,0,0,0-1.725-.271c-.649.245-1.115,1.57-1.425,2.181-.385.766-1.3,2.255-1.192,3.154.081.643.75,1.066,1.166,1.457C-750.8,268.991-748.753,271.117-747.545,269.941Z" transform="translate(793.77 -237.313)" fill="#0b4875"/>
      <path id="Path_2778" data-name="Path 2778" d="M-725.184,285.024a48,48,0,0,0,3.713-10.938c.578-3.17-1.2-6.253-2.753-8.906a25.2,25.2,0,0,0-6.721-7.713c-5.438-3.987-13.038-5.06-18.625-.918-4.456-1.532-9.1,1.338-11.6,5.089-1.438,2.159-2.976,4.954-3.267,7.574a6.7,6.7,0,0,0,.737,3.535,8.422,8.422,0,0,0,3.315,6.3,104.3,104.3,0,0,0,9.749,6.5q5.264,3.2,10.793,5.949c1.409.7,3.183,1.913,4.76,2.126,1.3.178,2.808-.772,3.916-1.341C-728.03,290.669-726.6,288.155-725.184,285.024Z" transform="translate(767.757 -253.915)" fill="#dd7440"/>
      <path id="Path_2779" data-name="Path 2779" d="M-721.9,301.175c-1.312-3.933-5.48-17.885-10.02-23.563,2.349-2.033,3.005-4.227,2.792-7.338-.116-1.722-1.984-2.963-3.584-3.273-1.936-.381-3.525,1.183-4.7,2.517-.846.966-1.557,2.036-2.307,3.076-3.28,4.97-1.958-3.335-4.262-7.348a13.5,13.5,0,0,0-3.887-5.125c-2.1-1.619-7.4-3.357-7.639-3.1a73.957,73.957,0,0,0-5.68,7.991c-1.115,6.013-2.272,8.715-3.49,14.589-.307,1.483-1.648,6.656-.013,6.446s2.795-2.64,2.889-2.8c.087,3.1-.223,12.47,8.634,14.1,10.027,1.845,8.314,15.4,8.531,20.209S-720.59,305.111-721.9,301.175Z" transform="translate(765.484 -247.032)" fill="#f7a577"/>
      <path id="Path_2780" data-name="Path 2780" d="M-752.372,263.046c-.071-1.5-2.029-2.879-2.84-2.214s-.394,1.99.1,2.511c.3.32.937.381.33.772a4.659,4.659,0,0,0-.882.491c-.9.882-.362,2.7,1.057,2.417S-752.314,264.306-752.372,263.046Z" transform="translate(786.415 -238.861)" fill="#dd7440"/>
      <path id="Path_2781" data-name="Path 2781" d="M-749.688,268.6c-.275-6.5-6.566-9.723-11.791-12a.594.594,0,0,0-.537.036.594.594,0,0,0-.287.455.658.658,0,0,0-.2.543.658.658,0,0,0,.308.488,18.1,18.1,0,0,1,6.763,7.06c.33.607,1.273.061,1.044-.556a14.573,14.573,0,0,0-1.483-2.937,17.412,17.412,0,0,1,5.028,7.19.6.6,0,0,0,.693.347A.6.6,0,0,0-749.688,268.6Z" transform="translate(772.141 -248.046)" fill="#dd7440"/>
    </g>
    <g id="Group_1155" data-name="Group 1155" transform="translate(22.09 18.288)">
      <path id="Path_2782" data-name="Path 2782" d="M-738.594,259.583c.724.288,4.23,9.991,3.871,11.006s-20.6,8.085-21.618,7.6-4.582-9.516-3.868-11.006S-739.318,259.3-738.594,259.583Z" transform="translate(796.546 -259.574)"/>
      <path id="Path_2783" data-name="Path 2783" d="M-748.464,264.876l2.375,5.758s1.913,5.968,2.262,6.013,1.28-5.248,1.367-6.543-2.44-9.329.226-9.351c0,0,3.416,7.8,3.571,9.28s-.863,7.788-.52,7.917,2.356-6.181,2.3-7.067-4.188-10.676-.83-10.618c0,0,4.54,8.573,4.724,10.211s-2.133,8.624-1.822,8.725,4.236-4.634,4.353-5.464-.821-11.151,2.171-10.515c0,0,2.21,9.975,1.774,11.84s-10.247,16.018-14.047,23.2l-13.174,24.884-12.179-8.437s13.045-19.239,13.539-20.739,1.447-10.609,4.049-16.076c0,0-.417-4.857-.472-5.694S-750.61,264.078-748.464,264.876Z" transform="translate(784.032 -258.033)" fill="#ffc49f"/>
      <path id="Path_2784" data-name="Path 2784" d="M-737.446,284.55c-.061-1.793-11.061-9.125-12.98-9.326s-36.4,49.462-12.961,65.748c21.1,14.667,57.931-4.3,74.033-25.237,7.558-9.836-16.2-31.124-28.154-20.855-11.72,10.069-22.519,22.183-27.3,19.585C-747.25,313.141-737.385,286.343-737.446,284.55Z" transform="translate(771.518 -224.655)" fill="#d3a29d"/>
    </g>
  </g>
</svg>
