<svg id="Group_1181" data-name="Group 1181" xmlns="http://www.w3.org/2000/svg" width="191.706" height="401.801" viewBox="0 0 191.706 401.801">
  <path id="Path_3014" data-name="Path 3014" d="M-1171.17,550.222l.976,3.9a59.4,59.4,0,0,0,5.845,2.11c11.235,3.406,20.109,2.44,20.134,3.086.023.481-4.921,1.441-10.88,1.622-3.015.094-7.206-.071-21.434-2.11-3.464-.494-6.327-.966-8.282-1.3a27.882,27.882,0,0,0,.649-3.086,28.1,28.1,0,0,0,.323-4.059Q-1177.5,550.3-1171.17,550.222Z" transform="translate(1261.855 -161.387)" fill="#382c29"/>
  <path id="Path_3015" data-name="Path 3015" d="M-1192.71,551.66l.4,4c1.625.747,3.949,1.745,6.8,2.734,11.18,3.871,19.352,3.745,19.326,4.382s-8.039,1.6-17.213.326a114.721,114.721,0,0,1-15.866-3.7c-3.328-.953-6.075-1.842-8.007-2.491a28.118,28.118,0,0,0,1.092-2.957,28.464,28.464,0,0,0,.911-3.971Q-1198.99,550.824-1192.71,551.66Z" transform="translate(1211.731 -161.927)" fill="#382c29"/>
  <path id="Path_3016" data-name="Path 3016" d="M-1166.11,454.588a161.367,161.367,0,0,0,7.187,28.316,161.2,161.2,0,0,0,9.426,21.556c3.751-.058,7.7-.278,11.827-.721a132.81,132.81,0,0,0,39.445-10.6,15.494,15.494,0,0,1,3.829,6.042,15.541,15.541,0,0,1,.617,7.655,98.86,98.86,0,0,1-20.515,11.733,102.32,102.32,0,0,1-49.591,7.29A128.714,128.714,0,0,1-1183,486.74a127.826,127.826,0,0,1-4.872-28.255Z" transform="translate(1255.015 -374.777)" fill="#91746b"/>
  <path id="Path_3017" data-name="Path 3017" d="M-1157.24,486.89a13.74,13.74,0,0,1,3.416-1.506,15.016,15.016,0,0,1,4.013-.562c2.275-.049,5.7-.291,11.209-.944,6.744.934,8.221.753,8.243.391.032-.5-2.617-1.545-3.848-1.965a17.415,17.415,0,0,0-4.475-.9,12.357,12.357,0,0,1,4.508-1.1c2.659-.123,4.737.653,6.453-.675a4.1,4.1,0,0,0,.927-1.028c.989.184,1.755.091,1.858-.3.146-.553-1.1-1.532-1.392-1.758a9.578,9.578,0,0,0-5.442-1.835c-3.17-.284-5.855-.453-7.974-.559a13.14,13.14,0,0,1,2.219-1.186c4.143-1.722,7.914-.759,7.962-1.525.026-.446-1.241-1.254-2.556-1.684-2.992-.976-5.012.411-8.541,1.341a26.122,26.122,0,0,1-6.715.847,5.488,5.488,0,0,1,.563-2.34c.659-1.273,1.422-1.238,2.339-2.472s1.576-3.2.959-3.91a1.568,1.568,0,0,0-1.674-.149c-.914.385-1.179,1.4-1.425,2-.818,1.994-2.6,2.4-4.03,3.325-1.5.969-3.332,2.976-4.559,7.623l-4.992,1.512a11.886,11.886,0,0,0,.614,5.222A13.308,13.308,0,0,0-1157.24,486.89Z" transform="translate(1316.63 -356.221)" fill="#fcb6a1"/>
  <path id="Path_3018" data-name="Path 3018" d="M-1112.12,491.065q-.31,14.74-.649,29.5-1.9,83.373-4.546,166.013a21.142,21.142,0,0,1-6.172,1.948,22.123,22.123,0,0,1-12.663-1.948q-3.9-76.951-7.8-153.9-22.083,77.271-44.169,154.545a20.759,20.759,0,0,1-12.014,1.3,20.245,20.245,0,0,1-7.148-2.924c4.1-27.57,9.216-56.552,15.591-86.742,5.619-26.616,11.752-51.96,18.186-75.969q.654-5.2,1.625-10.718a218.629,218.629,0,0,1,5.2-22.409Z" transform="translate(1211.731 -296.284)" fill="#52413c"/>
  <path id="Path_3019" data-name="Path 3019" d="M-1163.67,452.973q4.192,3.151,8.77,6.333,5.85,4.062,11.445,7.552.877,10.164,1.706,20.38,4.5,55.319,7.552,109.448l-15.346,4.873q-1.343-3.655-2.679-7.309-1.827,4.023-3.655,8.04c-3.231-.233-6.653-.62-10.23-1.218a110.858,110.858,0,0,1-27.77-8.524q3.292-10.717,6.579-21.437a342.479,342.479,0,0,1-8.363-51.394,342.845,342.845,0,0,1,.323-61.87,36.247,36.247,0,0,1,10.231-6.333,36.316,36.316,0,0,1,13.155-2.679Z" transform="translate(1234.872 -387.617)" fill="#a18076"/>
  <path id="Path_3020" data-name="Path 3020" d="M-1186.39,448.985a27.964,27.964,0,0,1,8.77,5.115,27.769,27.769,0,0,1,3.9,4.139q-.369,2.559-.73,5.115-5.119-3.044-10.23-6.088Q-1185.54,453.123-1186.39,448.985Z" transform="translate(1258.323 -387.28)" fill="#a18076"/>
  <path id="Path_3021" data-name="Path 3021" d="M-1161.3,456.322a28.929,28.929,0,0,0-3.622,3.765,29.81,29.81,0,0,0-5.358,10.427,20.754,20.754,0,0,1-7.387-1.015c-7.917-2.621-11.727-9.339-12.744-11.3q1.594-2.714,3.186-5.648c1.474-2.721,2.821-5.383,4.056-7.965,1.444.346,2.947.772,4.488,1.306A50.041,50.041,0,0,1-1161.3,456.322Z" transform="translate(1249.358 -397.088)" fill="#fcb6a1"/>
  <path id="Path_3022" data-name="Path 3022" d="M-1148.86,436.913a32.948,32.948,0,0,0-15.688-4.811c-2.931-.12-16.661-.291-23.12,8.841-7.594,10.731.953,24.629,2.753,27.557a39.7,39.7,0,0,0,28.866,16.867c1.4.129,5.958.556,7.325-1.561,1.234-1.906-.339-5.532,1.344-7.409a3.461,3.461,0,0,0,.824-1.364,3.473,3.473,0,0,0-.1-2.146,2,2,0,0,0,.931-1.267c.071-.559-.268-.918-.621-1.755a7.529,7.529,0,0,1-.517-1.952c3.218-.827,4.017-1.79,4.13-2.533.174-1.15-1.254-1.962-2.682-3.9a14.126,14.126,0,0,1-2.479-5.849,13.966,13.966,0,0,0,.689-1.952,16,16,0,0,0,.139-7.018C-1147.54,443.527-1148.13,440.273-1148.86,436.913Z" transform="translate(1248.58 -425.018)" fill="#fcb6a1"/>
  <path id="Path_3023" data-name="Path 3023" d="M-1149.36,429.889a17.542,17.542,0,0,1,4.747,6.824,16.579,16.579,0,0,1,1.031,7.216c-2.071.5-4.275.966-6.6,1.364a99.468,99.468,0,0,1-13.417,1.364q.126,4.357.207,8.776.038,2.215.068,4.417l-1.79.653c-.585-.346-2.766-1.538-4.679-.782-2.763,1.1-3.5,5.7-1.651,8.579a7.488,7.488,0,0,0,4.679,2.992,14.486,14.486,0,0,1-4.4,6.757c-2.356,2.007-6.566,4.227-8.12,2.992a2.356,2.356,0,0,1-.618-2.016,30.82,30.82,0,0,1-5.16-4.679c-6.476-7.38-10.3-19.136-6.194-29.638a20.077,20.077,0,0,1,3.716-6.434c7.134-7.988,22.141-9.213,37.984-4.485Q-1149.47,431.841-1149.36,429.889Z" transform="translate(1243.649 -429.889)" fill="#8c655a"/>
  <path id="Path_3024" data-name="Path 3024" d="M-1172.93,467.207l4.507-6.821q-4.372-2.777-8.892-5.845-5.206-3.543-9.985-7.064-2.07,2.438-4.142,4.873a40.933,40.933,0,0,0,4.385,5.358,41.993,41.993,0,0,0,14.127,9.5Z" transform="translate(1247.053 -390.644)" fill="#a18076"/>
  <path id="Path_3025" data-name="Path 3025" d="M-1158.51,449.734a30.263,30.263,0,0,0-10.719,2.42,30.573,30.573,0,0,0-11.759,8.993,195.929,195.929,0,0,0-17.982,33.2,196.331,196.331,0,0,0-9.684,29.046,143.859,143.859,0,0,0,8.647,13.142,146.475,146.475,0,0,0,33.322,32.488,11.29,11.29,0,0,0,5.2-3.086,11.658,11.658,0,0,0,3.086-7.794q-13.368-18.758-26.733-37.516a132.34,132.34,0,0,1,7.607-18.328,132.652,132.652,0,0,1,16.945-25.589q.3-5.3.692-10.721Q-1159.29,457.7-1158.51,449.734Z" transform="translate(1208.654 -385.608)" fill="#a18076"/>
  <path id="Path_3026" data-name="Path 3026" d="M-1188.71,483.545l3.865,2.265c1.758-.5,3.364-.94,4.8-1.335,2.928-.8,3.635-.963,4.531-.666,1.04.349,1.092.908,3.2,3.331,2.391,2.75,3.519,3.4,3.332,4.53a2.585,2.585,0,0,1-1.467,1.735l-4.531-3.732q1.668,2.729,3.332,5.464a2.059,2.059,0,0,1-.533,2,2.059,2.059,0,0,1-2,.533l-1.066-.931a4.19,4.19,0,0,1-1.467,1.2,4.136,4.136,0,0,1-1.467.4l-4.4-1.868q.868,1.265,1.735,2.533a3.542,3.542,0,0,1-1.066,1.066,3.526,3.526,0,0,1-1.868.533l-3.464-3.467a29.754,29.754,0,0,1-3.2-.133,7.6,7.6,0,0,1-2.8-.533c-1.628-.885-2.019-3.118-2.133-4.13a15.167,15.167,0,0,1,2.534-5.067A15.17,15.17,0,0,1-1188.71,483.545Z" transform="translate(1238.286 -310.165)" fill="#fcb6a1"/>
</svg>
