<svg xmlns="http://www.w3.org/2000/svg" width="163.321" height="268.226" viewBox="0 0 163.321 268.226">
  <g id="Group_1175" data-name="Group 1175" transform="translate(-0.002 -0.001)">
    <path id="Path_2922" data-name="Path 2922" d="M-1120.9,513a6.71,6.71,0,0,0-2.938-.666,12.624,12.624,0,0,0-3.832.821,16.034,16.034,0,0,1-2.769.9c-1.141.149-1.89-.026-2.191.446a1.264,1.264,0,0,0,.158,1.283c.566.821,2.078.986,3.784.394q-1.609,1.338-3.215,2.682c-.33-.7-.663-.753-.756-.759-.449-.036-.811.591-1.354,1.532-.407.7-.614,1.057-.568,1.4.129,1.037,1.816,1.5,1.887,1.522.607.262,1.486.627,2.556,1.04a13.723,13.723,0,0,0,3.293,1.079c.533.013,1.874-.032,4.666-2.032a24.84,24.84,0,0,0,5.092-4.912Q-1118.99,515.363-1120.9,513Z" transform="translate(1148.869 -379.737)" fill="#fcb6a1"/>
    <path id="Path_2923" data-name="Path 2923" d="M-1124.86,564.764a11.494,11.494,0,0,1-5.593-4.294,11.245,11.245,0,0,1-1.829-4.779q5.676-5.69,11.375-12.133a272.105,272.105,0,0,0,35.147-50.47,54.111,54.111,0,0,1,13.507-.281,54.041,54.041,0,0,1,10.766,2.265,17.268,17.268,0,0,1,.068,6.411,17.967,17.967,0,0,1-3.141,7.2c-16.2,23.1-30.662,35.16-30.662,35.16A227.44,227.44,0,0,1-1124.86,564.764Z" transform="translate(1154.001 -423.964)" fill="#f08454"/>
    <path id="Path_2924" data-name="Path 2924" d="M-1010.76,522.027a23.36,23.36,0,0,0-3.923-12.259c-7.145-10.195-28.213-2.495-60.074-2.7-32.336-.2-53.789-8.408-60.564,1.719a23.864,23.864,0,0,0-3.679,13.24,25.2,25.2,0,0,0,3.19,11.035c6.23,10.059,27.961,3.305,59.828,3.432,32.514.129,54.551,7.338,61.544-2.94a23.163,23.163,0,0,0,3.678-11.527Z" transform="translate(1139.007 -398.909)" fill="#334b66"/>
    <path id="Path_2925" data-name="Path 2925" d="M-1111.86,510.52l-6.162-.184a6.956,6.956,0,0,0-4.6-2.666,7.158,7.158,0,0,0-5.884,2.3q-2.85.044-5.7.091a3.582,3.582,0,0,0-1.011,1.932,3.851,3.851,0,0,0,1.011,3.125q2.665.141,5.331.278a6.909,6.909,0,0,0,2.76,1.839c3.807,1.322,7.335-1.5,7.633-1.748l6.436.184a4.265,4.265,0,0,0,.918-2.023,4.443,4.443,0,0,0-.732-3.128Z" transform="translate(1147.365 -390.236)" fill="#6e8296"/>
    <path id="Path_2926" data-name="Path 2926" d="M-1128.24,525.064l.216-4.414a5.245,5.245,0,0,0,2.016-2.931,5.449,5.449,0,0,0-1.748-5.261q-.019-3.063-.039-6.13-1.319-.1-2.637-.2l-.126,6.2a5.141,5.141,0,0,0-2.129,3.5,5.072,5.072,0,0,0,2.285,4.74q-.058,2.244-.12,4.488a1.314,1.314,0,0,0,1.24.692,1.385,1.385,0,0,0,1.042-.684Z" transform="translate(1153.04 -393.57)" fill="#8aa3bd"/>
    <path id="Path_2927" data-name="Path 2927" d="M-1122.26,515.623c-.133,1.826-2.724,3.121-5.791,2.9s-5.438-1.884-5.306-3.706,2.727-3.118,5.79-2.9S-1122.12,513.8-1122.26,515.623Z" transform="translate(1151.614 -380.717)" fill="#182338"/>
    <path id="Path_2928" data-name="Path 2928" d="M-1122.15,508.194c-.132,1.822-2.724,3.118-5.791,2.9s-5.438-1.884-5.306-3.706,2.727-3.121,5.791-2.9S-1122.02,506.371-1122.15,508.194Z" transform="translate(1151.842 -397.296)" fill="#182338"/>
    <path id="Path_2929" data-name="Path 2929" d="M-1048.82,573.947a124.419,124.419,0,0,0-3.761-16.79c-9.29-31.134-28.943-52.118-42.789-64.071a13.78,13.78,0,0,0-8,3.842c-5.419,5.471-3.458,13.471-3.338,13.927a225.326,225.326,0,0,1,22.945,22.952,226.468,226.468,0,0,1,29.14,42.728Z" transform="translate(1210.067 -422.68)" fill="#fcb6a1"/>
    <path id="Path_2930" data-name="Path 2930" d="M-1114.28,551.182q-1.1,1.837-2.2,3.671a17.474,17.474,0,0,1-4.527-.734c-4.992-1.506-7.526-4.773-8.569-4.039-.7.494-.246,2.462.246,3.671,2.372,5.823,10.932,7.119,12.6,7.345a10.111,10.111,0,0,0,2.449,1.47c1.179.494,1.936.808,2.692.611.643-.168,1.364-.73,2.695-4.408a48.229,48.229,0,0,0,1.59-5.383Z" transform="translate(1159.239 -295.744)" fill="#18393b"/>
    <path id="Path_2931" data-name="Path 2931" d="M-1089,553.607q1.309,1.7,2.614,3.39a17.648,17.648,0,0,1-2.336,3.948c-3.225,4.1-7.19,5.264-6.886,6.5.2.837,2.2,1.131,3.506,1.115,6.285-.084,10.615-7.581,11.439-9.057a9.973,9.973,0,0,0,2.259-1.742c.892-.921,1.464-1.509,1.554-2.284.078-.659-.181-1.535-3.118-4.117a48.77,48.77,0,0,0-4.433-3.444Z" transform="translate(1235.812 -300.334)" fill="#18393b"/>
    <path id="Path_2932" data-name="Path 2932" d="M-1111.62,547.411q11.158,11.933,22.364,24.154,17.1,18.646,33.548,37.125a7.924,7.924,0,0,0,7.158.446,7.735,7.735,0,0,0,4.026-4.918q-3.291-8.153-7.157-16.551a377.553,377.553,0,0,0-37.574-63.964,45.833,45.833,0,0,0-11.626,8.052,46.108,46.108,0,0,0-10.739,15.656Z" transform="translate(1200.122 -354.364)" fill="#356c82"/>
    <path id="Path_2933" data-name="Path 2933" d="M-1098.01,520.882q2.909,6.931,5.817,13.866-3.374,8.681-6.712,17.446-14.1,37.012-26.836,73.355a31,31,0,0,0,4.472,2.685,31.46,31.46,0,0,0,4.582,1.819,330.534,330.534,0,0,0,28.966-35.813,331.073,331.073,0,0,0,29.075-50.544,21.044,21.044,0,0,0,5.813-8.5c3.053-8.424-.579-15.94-1.341-17.443Z" transform="translate(1168.618 -367.645)" fill="#40819c"/>
    <path id="Path_2934" data-name="Path 2934" d="M-1071.66,493.39c1.69,6.615,3.2,13.649,4.414,21.085a250.682,250.682,0,0,1,1.473,70.129,69.239,69.239,0,0,1-16.187,5.4,71.079,71.079,0,0,1-33.347-1.47q.073-7.775,0-15.7c-.223-23.447-1.435-45.995-3.4-67.57a8.986,8.986,0,0,1,4.617-8.731,51.184,51.184,0,0,1,15.947-5.593,51.568,51.568,0,0,1,26.483,2.449Z" transform="translate(1184.215 -429.118)" fill="#f08454"/>
    <path id="Path_2935" data-name="Path 2935" d="M-1090.5,518.106a6.725,6.725,0,0,0-1.348,2.692,12.726,12.726,0,0,0-.123,3.916,16.238,16.238,0,0,1,.216,2.908c-.129,1.137-.478,1.826-.094,2.233a1.27,1.27,0,0,0,1.286.152c.927-.352,1.451-1.784,1.286-3.58q.916,1.885,1.835,3.764c-.759.152-.889.462-.918.549-.142.43.381.934,1.16,1.683.588.565.882.847,1.224.889,1.037.123,1.894-1.406,1.929-1.47.4-.527.966-1.292,1.622-2.233a13.725,13.725,0,0,0,1.835-2.937c.142-.514.417-1.829-.856-5.018a24.833,24.833,0,0,0-3.551-6.12Q-1087.74,516.823-1090.5,518.106Z" transform="translate(1243.786 -372.591)" fill="#fcb6a1"/>
    <path id="Path_2936" data-name="Path 2936" d="M-1047.66,569.047a11.493,11.493,0,0,1-5.506,4.408,11.3,11.3,0,0,1-5.076.63q-4.168-6.873-9.061-13.946a272.291,272.291,0,0,0-40.6-46.2,54.069,54.069,0,0,1,2.96-13.18,54.2,54.2,0,0,1,4.773-9.914,17.329,17.329,0,0,1,6.243,1.47,17.963,17.963,0,0,1,6.243,4.773c18.557,21.259,26.8,38.185,26.8,38.185A227.558,227.558,0,0,1-1047.66,569.047Z" transform="translate(1208.416 -427.694)" fill="#f08454"/>
    <path id="Path_2937" data-name="Path 2937" d="M-1115.24,495.392a12.751,12.751,0,0,1-4.291-7.232c-.917-5.1,1.742-10.567,6.744-13.856Q-1114.01,484.851-1115.24,495.392Z" transform="translate(1182.065 -464.589)" fill="#7a5842"/>
    <path id="Path_2938" data-name="Path 2938" d="M-1101.89,514.728c5.106-.433,6.753-6.395,14.221-10.3,6.259-3.27,12.871-3.141,17.656-2.449a15.473,15.473,0,0,0-3.435-8.337c-3.538-4.152-8.528-4.9-13.484-5.639-4.281-.643-9.707-1.454-15.937.979a27.323,27.323,0,0,0-13.979,13C-1110.17,512.922-1105.25,515.016-1101.89,514.728Z" transform="translate(1188.452 -435.501)" fill="#c26100"/>
    <path id="Path_2939" data-name="Path 2939" d="M-1113.8,486.511a44.923,44.923,0,0,0-.782,7.739,44.466,44.466,0,0,0,.494,7.316,21.653,21.653,0,0,0,3.206,3.836,21.589,21.589,0,0,0,3.79,2.869l10.537-8.657q-.688-5.962-1.38-11.924Z" transform="translate(1193.487 -437.351)" fill="#fcab92"/>
    <path id="Path_2940" data-name="Path 2940" d="M-1112.44,477.563a49.23,49.23,0,0,0-6.2,16.263c-1.176,6.327-2.333,12.547,1.021,18.8.581,1.079,3.726,6.934,10.256,9.061,8.757,2.853,18.493-2.653,23.246-9.455,6.641-9.507,5.891-24.9-4.136-32.549C-1094.83,474.658-1104.14,473.934-1112.44,477.563Z" transform="translate(1181.803 -462.39)" fill="#fcb6a1"/>
    <path id="Path_2941" data-name="Path 2941" d="M-1082.47,510.437c.85-.882,2.075-2.213,3.435-3.923.676-.85,8.637-10.954,6.618-13.242-.281-.32-.882-.624-2.327-.365a19.666,19.666,0,0,0-.736-3.68c-2.123-7-8.256-12.78-15.446-14.958a24.019,24.019,0,0,0-13.856.123q2.05-1.459,1.839-1.961-.281-.659-4.534.368c.291-.478.582-1.076.365-1.347-.569-.714-4.34,1.234-5.884,2.33-5.707,4.049-5.507,13.885-5.271,17.53,1.667.281,3.387.527,5.147.737a110.719,110.719,0,0,0,23.663.246,15.972,15.972,0,0,0-.245,8.214,16.7,16.7,0,0,0,7.232,9.928Z" transform="translate(1185.09 -471.298)" fill="#7a5842"/>
    <path id="Path_2942" data-name="Path 2942" d="M-1108.69,491.98a5.508,5.508,0,0,0,3.6,1.125c3.034-.239,5.71-3.516,5.2-6.495a4.822,4.822,0,0,0-3.015-3.642,4.857,4.857,0,0,0-4.414,1.079Q-1108.01,488.012-1108.69,491.98Z" transform="translate(1206.646 -445.667)" fill="#fcb6a1"/>
  </g>
</svg>
