<svg xmlns="http://www.w3.org/2000/svg" width="227.433" height="400.516" viewBox="0 0 227.433 400.516">
  <g id="Group_1172" data-name="Group 1172" transform="translate(0 -0.04)">
    <path id="Path_2862" data-name="Path 2862" d="M-702.252,448.45q1.547,8.875,3.1,17.746c-2.527,4.866-5.335,9.849-8.46,14.9a233.4,233.4,0,0,1-40.253,48.7,13.419,13.419,0,0,1-10.573-3.286,13.085,13.085,0,0,1-4-8.227,216.41,216.41,0,0,0,15.882-19.8A217.475,217.475,0,0,0-724.938,460.4a38.437,38.437,0,0,1,8.815-7.1,38.562,38.562,0,0,1,13.871-4.852Z" transform="translate(821.816 -388.897)" fill="#bf4958"/>
    <path id="Path_2863" data-name="Path 2863" d="M-712.466,545.4q1.532,1.852,3.063,3.706a8.022,8.022,0,0,1,3.777,1.971,8.027,8.027,0,0,1,1.871,2.669,39.531,39.531,0,0,1-4.007,6.724A40.146,40.146,0,0,1-719.615,571.1a44.9,44.9,0,0,1-5.293.375,45.3,45.3,0,0,1-6.469-.385,7.371,7.371,0,0,1,2.255-3.8c2.572-2.175,5.587-1.008,8.259-1.981,2.385-.869,5.018-3.629,6.459-11.659q-1.832-2.108-3.658-4.22Q-715.263,547.422-712.466,545.4Z" transform="translate(891.134 -172.565)" fill="#35454f"/>
    <path id="Path_2864" data-name="Path 2864" d="M-709.028,469.7c2.443,5.471,4.818,11.235,7.083,17.294a302.123,302.123,0,0,1,13.9,49.979,6.928,6.928,0,0,1-3.047,3.044,7.307,7.307,0,0,1-6.091,0q-5.419-12.869-11.045-25.893-7.217-16.7-14.5-32.979Z" transform="translate(910.437 -341.479)" fill="#fcb6a1"/>
    <path id="Path_2865" data-name="Path 2865" d="M-751.007,494.977c.213,4,.637,9.768,1.561,16.648,2.02,14.977,6.8,38.023,27.573,80.114a571.235,571.235,0,0,0,43.7,73.871,11.223,11.223,0,0,0,8.324-1.04,11.232,11.232,0,0,0,5.2-6.763c-3.813-9.859-8.124-20.121-13-30.691-7.752-16.787-15.872-32.048-23.931-45.781-1.58-6.007-3-12.431-4.162-19.249a225.989,225.989,0,0,1-2.6-54.1Z" transform="translate(847.331 -285.08)" fill="#a8604f"/>
    <path id="Path_2866" data-name="Path 2866" d="M-706.408,489.051c.792,1.286,1.89,3.154,3.079,5.471,2.12,4.143,3.18,6.214,3.794,9.319a30.854,30.854,0,0,1,.346,7.542,9.432,9.432,0,0,1-.481,2.957,9,9,0,0,1-1.309,2.469,2.9,2.9,0,0,1-.436,2.191,2.921,2.921,0,0,1-1.8,1.176c-.6,1.516-1.376,2.517-1.926,2.407-.633-.126-.859-1.713-.879-1.845a5.018,5.018,0,0,1,.165-2,11.4,11.4,0,0,0-.081-4.7,14.023,14.023,0,0,0-1.8-5.054q-1.163-2.259-2.333-4.517c.055,1.318.116,2.4.161,3.167.175,2.921.307,3.91-.346,4.912-.384.588-1.134,1.322-1.651,1.15-.721-.236-.594-2.058-.7-3.693-.278-4.556-2.184-5.655-2.76-9.219a14.3,14.3,0,0,1,1.69-8.844Q-710.04,490.5-706.408,489.051Z" transform="translate(926.531 -298.303)" fill="#fcb6a1"/>
    <path id="Path_2867" data-name="Path 2867" d="M-658.131,500.514a224.976,224.976,0,0,1-9.885,34.856,226.573,226.573,0,0,1-32.255,58.264A217.481,217.481,0,0,1-713.8,629.011a219.127,219.127,0,0,1-35.373,52.021,18.056,18.056,0,0,1-10.4-2.081,17.878,17.878,0,0,1-6.243-5.723,379.512,379.512,0,0,0,23.931-41.1c12.369-24.684,18.936-44.512,24.448-61.389a578.164,578.164,0,0,0,18.729-73.351,38.588,38.588,0,0,1,22.37-4.162,38.349,38.349,0,0,1,18.207,7.288Z" transform="translate(814.283 -289.576)" fill="#b86956"/>
    <path id="Path_2868" data-name="Path 2868" d="M-722.517,526.385l-12.486-.52a123.405,123.405,0,0,1-8.062-11.187,124.025,124.025,0,0,1-8.586-15.866l1.822-4.941c7.8-.74,16.237-1.221,25.23-1.3a296.378,296.378,0,0,1,33.034,1.561q-.131,4.033-.258,8.065Z" transform="translate(845.894 -290.476)" fill="#b86956"/>
    <path id="Path_2869" data-name="Path 2869" d="M-679.337,456.783a64.879,64.879,0,0,0-26.012-8.324,66.273,66.273,0,0,0-38.5,8.324q-1.687,21.9-3.122,44.217-3.02,47.127-4.682,92.6a99.032,99.032,0,0,0,18.729,4.162,102.809,102.809,0,0,0,46.3-5.2q-.3-16.543,0-33.813a954.343,954.343,0,0,1,7.287-101.966Z" transform="translate(845.894 -389.523)" fill="#bf4958"/>
    <path id="Path_2870" data-name="Path 2870" d="M-735.444,448.45l19.42,5.71c3.451,4.262,6.9,8.825,10.282,13.71a233.257,233.257,0,0,1,28.558,56.354,13.407,13.407,0,0,1-7.235,8.379,13.079,13.079,0,0,1-9.138.381,216.648,216.648,0,0,0-11.8-22.467,217.386,217.386,0,0,0-26.274-35.031Z" transform="translate(882.057 -388.897)" fill="#bf4958"/>
    <path id="Path_2871" data-name="Path 2871" d="M-703.246,471.169a5.773,5.773,0,0,1,1.041,2.863,32.31,32.31,0,0,0,1.212,4.162,14.176,14.176,0,0,1-3.813,6.934c-5.7,5.574-14.089,3.632-14.741,3.467a9.774,9.774,0,0,0-1.041-3.467c-1.047-2-2.611-2.336-2.947-4.162-.149-.8-.087-1.971.433-2.168.417-.155,1.083.323,1.648,1.128a21.443,21.443,0,0,0,9.019-2.252,21.415,21.415,0,0,0,7.022-5.639c-.12-.268-.7-1.616-.262-1.994C-705.253,469.68-704,470.3-703.246,471.169Z" transform="translate(908.472 -340.953)" fill="#e36272"/>
    <path id="Path_2872" data-name="Path 2872" d="M-740.906,562.839l-2.081,2.6a14.792,14.792,0,0,1-1.17,3.512,14.648,14.648,0,0,1-2.734,3.9,11.344,11.344,0,0,1-4.291-1.17,11.374,11.374,0,0,1-3.513-2.731,30.577,30.577,0,0,1-11.054-6.763c-2.226-2.146-7.309-7.041-6.763-12.874.026-.255.355-3.493,1.693-3.774,1.512-.317,3.218,3.4,4.812,5.723,2.323,3.393,6.883,7.422,16.777,9.626.52-.737,1.04-1.477,1.561-2.213l-1.561-3.122a25.483,25.483,0,0,1,6.5,2.213,25.425,25.425,0,0,1,7.154,5.332Z" transform="translate(799.255 -172.295)" fill="#35454f"/>
    <path id="Path_2873" data-name="Path 2873" d="M-740.908,489.182c-1.664,1.968-3.357,3.974-6.033,4.821a10.758,10.758,0,0,1-7.39-.675c-6.925-2.873-8.825-11.016-9.067-12.127a30.063,30.063,0,0,1,4.146-8c2.575-3.538,5.034-6.922,8.324-7.284,6.973-.772,15.552,12.269,12.832,19.075a17.842,17.842,0,0,1-2.812,4.19Z" transform="translate(819.682 -350.003)" fill="#e36272"/>
    <path id="Path_2874" data-name="Path 2874" d="M-728.9,511.076q-5.288-4.149-10.667-8.9a233.275,233.275,0,0,1-34.717-38.543,6.932,6.932,0,0,1,1.367-4.084,7.3,7.3,0,0,1,5.454-2.714c14.861,12.8,23.385,19.2,28.507,22.684,1.573,1.07,7.186,4.837,14.218,10.576,2.485,2.029,4.466,3.748,5.723,4.857a11.652,11.652,0,0,1,0,10.231A11.191,11.191,0,0,1-728.9,511.076Z" transform="translate(795.397 -370.194)" fill="#fcb6a1"/>
    <path id="Path_2875" data-name="Path 2875" d="M-760.676,480.287c-1.283-.8-3.1-1.977-5.2-3.525-3.745-2.763-5.616-4.143-7.548-6.65a30.655,30.655,0,0,1-3.671-6.6,9.43,9.43,0,0,1-.892-2.86,9.017,9.017,0,0,1,.071-2.8,2.911,2.911,0,0,1-.582-2.155,2.891,2.891,0,0,1,1.089-1.855c-.139-1.625.11-2.869.649-3.015.624-.168,1.535,1.15,1.609,1.26a4.952,4.952,0,0,1,.743,1.861,11.367,11.367,0,0,0,2.165,4.168,14.023,14.023,0,0,0,3.868,3.719l4.1,3.005c-.636-1.154-1.173-2.1-1.554-2.763-1.457-2.537-2.02-3.361-1.881-4.546.081-.7.427-1.693.966-1.771.75-.11,1.451,1.58,2.268,3,2.278,3.955,4.475,4.088,6.579,7.021a14.286,14.286,0,0,1,2.43,8.67Q-758.068,477.37-760.676,480.287Z" transform="translate(785.937 -383.612)" fill="#fcb6a1"/>
    <path id="Path_2876" data-name="Path 2876" d="M-750.476,470.989q-3.786,4.323-7.568,8.65a1.158,1.158,0,0,1-.849.4,1.157,1.157,0,0,1-.864-.363L-780.5,457.724a1.161,1.161,0,0,1,0-1.593l7.771-8.2a1.161,1.161,0,0,1,.84-.36,1.161,1.161,0,0,1,.84.36q10.266,10.751,20.535,21.5A1.157,1.157,0,0,1-750.476,470.989Z" transform="translate(780.816 -390.871)" fill="#2f393f"/>
    <path id="Path_2877" data-name="Path 2877" d="M-753.05,467.854q-4.052,4.682-8.1,9.364l-19.016-20.309,8.388-8.821Z" transform="translate(782.266 -389.704)" fill="#44535c"/>
    <path id="Path_2878" data-name="Path 2878" d="M-719.514,459.948q-.019-8.909-.042-17.817l-24.277,2.427q.063,8.541.129,17.081l5.852,2.6Z" transform="translate(863.338 -402.997)" fill="#fcab92"/>
    <path id="Path_2879" data-name="Path 2879" d="M-714.376,446.676l3.9,7.283q-8.39,4.551-16.777,9.106L-735.968,455q-2.729,3.645-5.461,7.283-1.953-3.378-3.9-6.763,1.672-3.121,3.338-6.243l1.39-.433,4.769,4.857q9.927-3.688,19.853-7.371Z" transform="translate(859.994 -393.627)" fill="#e36272"/>
    <path id="Path_2880" data-name="Path 2880" d="M-744.137,435.022a132.7,132.7,0,0,0-2.5,20c-.2,4.013-.2,7.813-.065,11.371a22.344,22.344,0,0,0,4.249,8.2,23.8,23.8,0,0,0,10.389,7.238A33.953,33.953,0,0,0-720,477.44a32.714,32.714,0,0,0,10.932-10.77,82.728,82.728,0,0,0,1.593-10.77,83.164,83.164,0,0,0-.911-20.658,33.3,33.3,0,0,0-12.751-4.834,35.332,35.332,0,0,0-23,4.614Z" transform="translate(856.721 -430.02)" fill="#fcb6a1"/>
    <path id="Path_2881" data-name="Path 2881" d="M-736.292,433.082a28.144,28.144,0,0,0,.346,5.377,28.784,28.784,0,0,0,3.988,10.576q1.474-1.037,2.947-2.081a30.077,30.077,0,0,0,.869-7.975,30.172,30.172,0,0,0-1.04-7.112Q-732.741,432.478-736.292,433.082Z" transform="translate(880.133 -425.899)" fill="#91685d"/>
    <path id="Path_2882" data-name="Path 2882" d="M-734.363,437.333a5.5,5.5,0,0,1,5.548-.175,5.639,5.639,0,0,1,2.43,5.548c-.433,3.2-4.007,6.014-8.844,6.243Z" transform="translate(882.537 -415.583)" fill="#fcb6a1"/>
    <path id="Path_2883" data-name="Path 2883" d="M-708.422,436.241c-.249,1.212-.6,2.911-1.041,4.941-2.495,11.691-2.947,12.67-3.642,13.7-1.651,2.453-4.078,3.949-8.928,6.938a61.74,61.74,0,0,1-7.025,3.726,7.849,7.849,0,0,0-6.156-1.732,6.343,6.343,0,0,0-1.994.779,27.575,27.575,0,0,1-4.595-5.115,27.71,27.71,0,0,1-4.075-8.931v-6.068a15.4,15.4,0,0,0-1.04,8.5,15.668,15.668,0,0,0,.779,2.772,25.34,25.34,0,0,0,5.81,9.193,25.412,25.412,0,0,0,6.763,4.853,35.077,35.077,0,0,0,16.473-6.156,34.845,34.845,0,0,0,9.539-10.143,41.4,41.4,0,0,0,.52-5.29A41.066,41.066,0,0,0-708.422,436.241Z" transform="translate(855.989 -416.139)" fill="#91685d"/>
  </g>
</svg>
