<svg xmlns="http://www.w3.org/2000/svg" width="312.944" height="399.316" viewBox="0 0 312.944 399.316">
  <g id="Group_1182" data-name="Group 1182" transform="translate(-0.006)">
    <path id="Path_3027" data-name="Path 3027" d="M-1221.04,513.918q-3.751,3.49-7.5,6.983a116.847,116.847,0,0,0-15.039-3.267c-32.859-4.9-60.885,5.319-77.7,13.584a9.1,9.1,0,0,0-1.99,5.891,8.936,8.936,0,0,0,1.554,4.724,134.146,134.146,0,0,1,15.979-1.932c30.507-1.822,70.02,6.353,84.186,4.282a26.491,26.491,0,0,0,8.017-2.588,24.241,24.241,0,0,0,7.762-6.724Z" transform="translate(1341.381 -242.393)" fill="#fcb6a1"/>
    <path id="Path_3028" data-name="Path 3028" d="M-1308.36,518.291a5.668,5.668,0,0,1,2.213,4.01,5.736,5.736,0,0,1-1.99,4.608q.305,1.784.614,3.567a7.454,7.454,0,0,1,2.546-.763,4.342,4.342,0,0,1,3.06.449c.614.41,1.445,1.292,1.234,1.942-.262.808-1.942.7-3.7,1a14.5,14.5,0,0,0-8.04,4.249c-2.491,2.8-2.294,5.9-4.508,6.372a2.976,2.976,0,0,1-1.658-.165,12.273,12.273,0,0,0-1.826,2.953c-1.583,3.626-.449,5.968-1.881,7.781-.691.879-2.162,1.855-5.71,1.693a41.713,41.713,0,0,1-.85-7,43.7,43.7,0,0,1,3.706-19.016,21.277,21.277,0,0,1-.149-4.989,21.437,21.437,0,0,1,.97-4.76l3.315.326a8.218,8.218,0,0,1,3.955-1.932c1.933-.326,3.089.3,5.926.1a17.332,17.332,0,0,0,2.773-.425Z" transform="translate(1328.883 -232.635)" fill="#70bdff"/>
    <path id="Path_3029" data-name="Path 3029" d="M-1262.86,532.9q3.786,5.094,7.574,10.182a119,119,0,0,0,4.556,16.987c11.106,31.793,33.383,51.9,47.975,62.62a9.116,9.116,0,0,0,6.143-.963,8.949,8.949,0,0,0,3.471-3.561q-4.62-6.3-9.1-13.274a262.413,262.413,0,0,1-32.077-72.637q-4.978-8.119-9.956-16.241Z" transform="translate(1476.208 -237.723)" fill="#fcb6a1"/>
    <path id="Path_3030" data-name="Path 3030" d="M-1216.41,523.987a211.987,211.987,0,0,1-24.833,27.592,211.79,211.79,0,0,1-32.423,24.833,22.676,22.676,0,0,1-12.415-4.827,23.254,23.254,0,0,1-8.279-15.178q7.571-9.354,15.178-19.314,15.263-20.013,28.28-39.319a35.753,35.753,0,0,1,19.314,5.516,36.526,36.526,0,0,1,15.178,20.7Z" transform="translate(1405.907 -278.416)" fill="#8f5d3d"/>
    <path id="Path_3031" data-name="Path 3031" d="M-1274.22,488.835a27.43,27.43,0,0,0-8.2,13.908c-2.514,11.856,5.07,22.522,9.849,29.046,22.461,30.672,47.714,61.056,54.765,69.5a22.252,22.252,0,0,0,13.933-.407c9.07-3.377,12.428-11.668,12.951-13.025q-7.372-15.036-14.738-30.113-13.445-27.511-26.771-54.958Q-1253.33,495.807-1274.22,488.835Z" transform="translate(1431.436 -298.361)" fill="#a66c47"/>
    <path id="Path_3032" data-name="Path 3032" d="M-1245.19,558.478a5.655,5.655,0,0,1,2.53-3.816,5.751,5.751,0,0,1,5.009-.368q1.439-1.1,2.879-2.194a7.364,7.364,0,0,1-1.855-1.9,4.346,4.346,0,0,1-1.018-2.921c.081-.734.479-1.881,1.154-1.994.834-.142,1.519,1.4,2.592,2.824a14.535,14.535,0,0,0,7.487,5.164c3.631.918,6.3-.7,7.732,1.05a3,3,0,0,1,.624,1.545,12.323,12.323,0,0,0,3.461.255c3.945-.275,5.5-2.362,7.768-1.932,1.1.21,2.647,1.06,4.142,4.282a42,42,0,0,1-5.81,3.987,43.752,43.752,0,0,1-18.577,5.509,21.447,21.447,0,0,1-4.353,2.437,21.245,21.245,0,0,1-4.67,1.341q-.62-1.546-1.244-3.092a8.217,8.217,0,0,1-3.541-2.608c-1.182-1.564-1.16-2.882-2.653-5.306A17.1,17.1,0,0,0-1245.19,558.478Z" transform="translate(1515.635 -172.431)" fill="#70bdff"/>
    <path id="Path_3033" data-name="Path 3033" d="M-1263.26,490.105a67.594,67.594,0,0,0,10.5,9.578,67.531,67.531,0,0,0,8.569,5.354,128.744,128.744,0,0,0,15.2-8.1,132.589,132.589,0,0,0,35.444-32.449,9.167,9.167,0,0,0-1.218-2.924,9.812,9.812,0,0,0-5.1-3.9,80.966,80.966,0,0,1-6.744,5.626c-5.48,4.1-10.075,6.45-23.4,12.864-5.577,2.685-10.344,4.954-13.985,6.679q-3.587-3.461-7.17-6.925Q-1257.21,483.008-1263.26,490.105Z" transform="translate(1475.311 -367.916)" fill="#fcb6a1"/>
    <path id="Path_3034" data-name="Path 3034" d="M-1275.7,459.038A45.152,45.152,0,0,0-1272.14,473c1.765,4.042,4.447,8.521,10.453,14.819a110.778,110.778,0,0,0,27.043,20.525,18.433,18.433,0,0,0,10.744-5.674,18.438,18.438,0,0,0,4.763-10.9q-10.659-11.71-21.317-23.424a46.244,46.244,0,0,0-5.458-7.623c-2.882-3.267-6.085-6.9-10.075-8.295C-1264.81,449.34-1274.66,458.094-1275.7,459.038Z" transform="translate(1447.557 -381.056)" fill="#61b0f2"/>
    <path id="Path_3035" data-name="Path 3035" d="M-1244.39,472.939a17.782,17.782,0,0,0,1.412-3.134c.666-1.968.459-2.5,1.06-4.563a10.663,10.663,0,0,1,2.3-4.763c.927-.973,1.008-.5,3.377-2.12,2.565-1.755,3.848-2.63,4.847-4.288.5-.824.8-1.629,1.231-1.593.5.042.827,1.15.911,1.845a4.477,4.477,0,0,1-.572,2.624,10.2,10.2,0,0,1-1.432,1.829c.074.087,1.428-.947,3.289-2.13,1.794-1.138,2.282-1.286,2.744-1.15.588.171.944.753,1.48,2.172.976,2.6,1.7,4.517,1.554,7.39a8.442,8.442,0,0,1-.808,3.9,8.429,8.429,0,0,1-3.965,3.438c-3.357,1.716-6.922,3.493-10.789,5.322Z" transform="translate(1517.409 -379.486)" fill="#fcb6a1"/>
    <path id="Path_3036" data-name="Path 3036" d="M-1229.26,460.7A620.092,620.092,0,0,1-1218.4,576.165q0,10.348-.346,20.383a100.6,100.6,0,0,1-25.524,1.619,100.006,100.006,0,0,1-36.9-9.707,506.584,506.584,0,0,0,2.243-64.122,506.427,506.427,0,0,0-6.208-65.964,43.8,43.8,0,0,1,13.711-6.207,45.333,45.333,0,0,1,18.108-.776,56.12,56.12,0,0,1,24.052,9.309Z" transform="translate(1426.509 -383.168)" fill="#70bdff"/>
    <path id="Path_3037" data-name="Path 3037" d="M-1245.63,455.714a95.3,95.3,0,0,0-5.949,9.054,96.032,96.032,0,0,0-6.385,13.316,21.16,21.16,0,0,1-8.195-1.125,22.675,22.675,0,0,1-11.979-10.318c1.59-2.821,3.2-5.955,4.744-9.4a115.118,115.118,0,0,0,4.4-11.384,14.309,14.309,0,0,1,6.983-2.068C-1255.49,443.648-1249.16,448.375-1245.63,455.714Z" transform="translate(1442.109 -398.871)" fill="#fcb6a1"/>
    <path id="Path_3038" data-name="Path 3038" d="M-1283.17,462.4a67.419,67.419,0,0,0-10.83,9.2,67.5,67.5,0,0,0-6.4,7.82,129.056,129.056,0,0,0,6.1,16.105,132.562,132.562,0,0,0,27.679,39.28,9.179,9.179,0,0,0,3.054-.837,9.827,9.827,0,0,0,4.517-4.556,82.135,82.135,0,0,1-4.724-7.4c-3.367-5.962-5.115-10.818-9.781-24.849-1.955-5.875-3.6-10.889-4.85-14.725q3.892-3.112,7.781-6.23Z" transform="translate(1392.435 -357.344)" fill="#fcb6a1"/>
    <path id="Path_3039" data-name="Path 3039" d="M-1241.77,451.427a31.978,31.978,0,0,0-14.305,1.751,33.9,33.9,0,0,0-12.97,9.2,231.86,231.86,0,0,1-26.855,23.5,18.468,18.468,0,0,0,4.262,11.377,18.453,18.453,0,0,0,10.2,6.107l32.045-21.492a60.673,60.673,0,0,0,5.774-14.554,60.617,60.617,0,0,0,1.849-15.889Z" transform="translate(1402.489 -382.202)" fill="#70bdff"/>
    <path id="Path_3040" data-name="Path 3040" d="M-1284.79,482.245a17.827,17.827,0,0,0,2.928,1.8c1.868.911,2.427.772,4.391,1.632a10.694,10.694,0,0,1,4.433,2.889c.847,1.044.369,1.063,1.674,3.619,1.412,2.766,2.12,4.152,3.635,5.354.756.6,1.515.992,1.422,1.422-.1.491-1.244.675-1.945.669a4.477,4.477,0,0,1-2.531-.9,10.02,10.02,0,0,1-1.628-1.651c-.1.065.756,1.538,1.693,3.535.9,1.923.986,2.427.792,2.866-.245.562-.869.84-2.343,1.189-2.695.643-4.7,1.118-7.529.6a8.467,8.467,0,0,1-3.761-1.3,8.443,8.443,0,0,1-2.908-4.372c-1.276-3.548-2.585-7.309-3.907-11.377Z" transform="translate(1414.811 -313.066)" fill="#fcb6a1"/>
    <path id="Path_3041" data-name="Path 3041" d="M-1233.52,437.457a35.554,35.554,0,0,0-16.91-5.183c-3.157-.129-17.956-.317-24.92,9.529-8.185,11.568,1.027,26.549,2.966,29.7a42.8,42.8,0,0,0,31.115,18.179c1.512.142,6.424.6,7.9-1.68,1.328-2.055-.368-5.965,1.448-7.988a3.693,3.693,0,0,0,.889-1.47,3.764,3.764,0,0,0-.11-2.314,2.147,2.147,0,0,0,1-1.364c.077-.6-.288-.989-.669-1.894a7.9,7.9,0,0,1-.556-2.1c3.467-.892,4.327-1.932,4.449-2.734.187-1.238-1.351-2.113-2.892-4.2a15.245,15.245,0,0,1-2.669-6.308,15.1,15.1,0,0,0,.74-2.1,17.2,17.2,0,0,0,.149-7.565C-1232.09,444.588-1232.72,441.082-1233.52,437.457Z" transform="translate(1440.903 -424.638)" fill="#fcb6a1"/>
    <path id="Path_3042" data-name="Path 3042" d="M-1234.06,429.889a18.88,18.88,0,0,1,5.118,7.354,17.857,17.857,0,0,1,1.111,7.778c-2.236.543-4.611,1.041-7.119,1.47a106.619,106.619,0,0,1-14.463,1.47q.135,4.7.223,9.458.044,2.395.074,4.766l-1.929.7c-.634-.372-2.982-1.658-5.044-.84-2.979,1.183-3.771,6.139-1.781,9.248a8.064,8.064,0,0,0,5.044,3.222,15.611,15.611,0,0,1-4.747,7.287c-2.54,2.162-7.077,4.553-8.75,3.222a2.528,2.528,0,0,1-.669-2.172,33.306,33.306,0,0,1-5.561-5.044c-6.98-7.956-11.106-20.626-6.676-31.945a21.571,21.571,0,0,1,4-6.934c7.69-8.608,23.867-9.93,40.941-4.834Q-1234.17,431.989-1234.06,429.889Z" transform="translate(1435.589 -429.889)" fill="#293940"/>
    <path id="Path_3043" data-name="Path 3043" d="M-1234.73,466.535a12.707,12.707,0,0,0-1.422-3.364,13.291,13.291,0,0,0-5.693-5.044l-3.619,3.105a23.95,23.95,0,0,0,2.714,3.493,24.289,24.289,0,0,0,5.561,4.4Z" transform="translate(1515.02 -366.881)" fill="#1b5966"/>
  </g>
</svg>
