<svg xmlns="http://www.w3.org/2000/svg" width="199.06" height="404.123" viewBox="0 0 199.06 404.123">
  <g id="Group_1178" data-name="Group 1178" transform="translate(0.004 0)">
    <path id="Path_2958" data-name="Path 2958" d="M-956.03,556.026h-81.2a4.172,4.172,0,0,1-4.172-4.175h0a4.172,4.172,0,0,1,4.172-4.172h81.2a4.174,4.174,0,0,1,4.175,4.173h0A4.175,4.175,0,0,1-956.03,556.026Z" transform="translate(1095.662 -167.061)" fill="#c8e9f7"/>
    <path id="Path_2959" data-name="Path 2959" d="M-979.984,558.433a12.027,12.027,0,0,1-12.027,12.027,12.03,12.03,0,0,1-12.027-12.027,12.028,12.028,0,0,1,12.026-12.027,12.026,12.026,0,0,1,12.028,12.03Z" transform="translate(1179.04 -169.901)" fill="#382824"/>
    <path id="Path_2960" data-name="Path 2960" d="M-974.716,558.719c-4.382.514-17.675,1.974-27.521,1.3a9.8,9.8,0,0,1-6.065-2.165,9.456,9.456,0,0,1-2.6-9.536l36.407,1.3a6.13,6.13,0,0,1,2.165,5.2A5.843,5.843,0,0,1-974.716,558.719Z" transform="translate(1162.944 -165.637)" fill="#c8e9f7"/>
    <path id="Path_2961" data-name="Path 2961" d="M-1058.2,558.433a12.027,12.027,0,0,0,12.027,12.027,12.03,12.03,0,0,0,12.027-12.027,12.027,12.027,0,0,0-12.027-12.027,12.025,12.025,0,0,0-12.027,12.029Z" transform="translate(1058.196 -169.901)" fill="#382824"/>
    <path id="Path_2962" data-name="Path 2962" d="M-1053.17,558.719c4.381.514,17.678,1.974,27.521,1.3a9.8,9.8,0,0,0,6.068-2.165,9.456,9.456,0,0,0,2.6-9.536l-36.407,1.3a6.12,6.12,0,0,0-2.165,5.2,5.84,5.84,0,0,0,2.383,3.9Z" transform="translate(1063.997 -165.637)" fill="#c8e9f7"/>
    <path id="Path_2963" data-name="Path 2963" d="M-908.9,499.336V652.947h-141.387v6.036H-905.23a3.256,3.256,0,0,0,3.257-3.257V499.336Z" transform="translate(1075.839 -274.93)" fill="#7d3a4c"/>
    <path id="Path_2964" data-name="Path 2964" d="M-1017.91,455.262a17.939,17.939,0,0,0,1.848-5.215,18.212,18.212,0,0,0-1.008-10.091c-2.546-6.046-10.24-10.2-19.178-9.927Q-1027.07,442.645-1017.91,455.262Z" transform="translate(1107.174 -429.605)" fill="#45282e"/>
    <path id="Path_2965" data-name="Path 2965" d="M-1024.86,451.127a41.7,41.7,0,0,1,5.649,6.889,41.675,41.675,0,0,1,4.6,9.435l20.735,46.37c2.333,5.2,4.6,10.683,6.757,16.46a273.876,273.876,0,0,1,13.21,48.858,5.243,5.243,0,0,1-2.944,2.5,5.445,5.445,0,0,1-4.676-.8c-4.485-8.873-8.98-18.512-13.319-28.9-4.207-10.075-7.807-19.753-10.9-28.917-7.112-14.47-12.948-25.515-17.035-33.053-3.412-6.294-6.3-11.423-6.77-18.887a37.437,37.437,0,0,1,4.7-19.955Z" transform="translate(1121.954 -382.5)" fill="#fcb6a1"/>
    <path id="Path_2966" data-name="Path 2966" d="M-1004.96,510.487A24.989,24.989,0,0,0-999.086,509a26.166,26.166,0,0,0,11.074-8.353c-3.135-5.917-5.5-10.831-7.054-14.179-3.332-7.161-7.167-14.085-10.259-21.353a25.877,25.877,0,0,0-6.143-9.206,23.51,23.51,0,0,0-4.66-3.331c-7.2-3.862-15.148-2.23-17.753-1.587a78.187,78.187,0,0,1,7.988,12.382,78.438,78.438,0,0,1,7.859,24.216Q-1011.5,499.041-1004.96,510.487Z" transform="translate(1112.451 -384.794)" fill="#27445c"/>
    <path id="Path_2967" data-name="Path 2967" d="M-1051.71,493.843c-.365,1.293-.85,3.16-1.3,5.438-.8,4.062-1.2,6.094-.976,8.9a27.278,27.278,0,0,0,1.547,6.547,8.234,8.234,0,0,0,1.131,2.414,7.972,7.972,0,0,0,1.723,1.8,2.583,2.583,0,0,0,.911,1.768,2.569,2.569,0,0,0,1.829.569c.885,1.154,1.793,1.819,2.239,1.593.51-.265.316-1.68.3-1.8a4.452,4.452,0,0,0-.627-1.671,10.156,10.156,0,0,1-1.079-4.042,12.509,12.509,0,0,1,.311-4.766l.895-4.44c.274,1.144.491,2.087.636,2.75.565,2.546.692,3.425,1.493,4.123.475.41,1.3.856,1.7.582.559-.378.035-1.949-.31-3.331-.8-3.218-.249-3.832-.724-7.464a35.611,35.611,0,0,0-2.391-8.863Z" transform="translate(1067.448 -287.187)" fill="#fcb6a1"/>
    <path id="Path_2968" data-name="Path 2968" d="M-1034.78,452.56a41.483,41.483,0,0,0-3.787,8.065,41.724,41.724,0,0,0-2.146,10.276q-4.367,25.02-8.734,50.037c-.989,5.61-1.845,11.484-2.517,17.614a273.751,273.751,0,0,0-.828,50.606,5.255,5.255,0,0,0,3.464,1.7,5.441,5.441,0,0,0,4.336-1.929c2.172-9.7,4.169-20.147,5.829-31.286,1.606-10.8,2.724-21.062,3.474-30.707,3.348-15.772,6.3-27.909,8.414-36.22,1.764-6.938,3.3-12.618,1.932-19.97a37.466,37.466,0,0,0-9.437-18.186Z" transform="translate(1068.492 -379.302)" fill="#fcb6a1"/>
    <path id="Path_2969" data-name="Path 2969" d="M-1018.92,544.778q.9,5.943,1.794,11.888a24.9,24.9,0,0,0,5.16,1.348,33.3,33.3,0,0,0,5.157.223c4.6.084,5.309.708,11.216,1.121,1.347.094,3.357.207,5.833.226.3-.824.6-1.645.9-2.469a43.612,43.612,0,0,1-8.075-2.242,31.768,31.768,0,0,1-12.111-7.4,26.97,26.97,0,0,1-3.813-4.934Q-1015.89,543.655-1018.92,544.778Z" transform="translate(1145.838 -178.539)" fill="#852d40"/>
    <path id="Path_2970" data-name="Path 2970" d="M-1040.51,551.166q-.451,5.492-.9,10.99a15.312,15.312,0,0,0,4.039,1.121,16.144,16.144,0,0,0,8.748-1.344,25.959,25.959,0,0,1-2.692-4.262,25.954,25.954,0,0,1-2.242-6.5Z" transform="translate(1095.662 -159.28)" fill="#852d40"/>
    <path id="Path_2971" data-name="Path 2971" d="M-958.425,588.048A553.006,553.006,0,0,0-986.6,492.7c-7.3-.556-15.064-.9-23.252-.934a324.708,324.708,0,0,0-33.38,1.577c.026.821.055,1.641.081,2.459-.485-.31-.97-.624-1.454-.934q-.378,7.542-.546,15.317a523.477,523.477,0,0,0,4.226,78.03,369.682,369.682,0,0,0,.459,55.207,369.645,369.645,0,0,0,5.868,41.639,14.133,14.133,0,0,0,6.152.853,14.148,14.148,0,0,0,6.085-1.971c.245-22.16,1.1-45.358,2.717-69.5,2.013-29.954,5.012-58.381,8.667-85.142q8.323,14.953,16.577,31.447,6.728,13.5,12.567,26.435c1.57,9.061,3.557,18.625,6.068,28.607a390.111,390.111,0,0,0,14.3,45.074,9.74,9.74,0,0,0,7.367,2.168,9.4,9.4,0,0,0,5.2-2.6A552.3,552.3,0,0,0-958.425,588.048Z" transform="translate(1087.061 -291.832)" fill="#2a3642"/>
    <path id="Path_2972" data-name="Path 2972" d="M-1046.32,458.4a55.384,55.384,0,0,1,21.485-8.34c19.242-3.06,34.242,5.267,38.9,8.107q1.7,21.332,3.154,43.067,3.049,45.9,4.731,90.183c-2.708.85-5.645,1.651-8.8,2.346,0,0-5.015,1.1-10.121,1.706-6.828.8-24.649-.084-47.659-5.652q.407-7.314.7-14.719a969.05,969.05,0,0,0-2.385-116.7Z" transform="translate(1084.7 -386.376)" fill="#27445c"/>
    <path id="Path_2973" data-name="Path 2973" d="M-1041.4,451.963a47.886,47.886,0,0,0,10.906,15.113c3.968,3.674,8.608,7.965,12.221,6.831,4.368-1.367,6.423-10.415,5.131-22.118a35.588,35.588,0,0,0-13.672-2.85A35.526,35.526,0,0,0-1041.4,451.963Z" transform="translate(1095.665 -387.385)" fill="#2a3642"/>
    <path id="Path_2974" data-name="Path 2974" d="M-1038.55,464.566q-1.067-10.576-2.133-21.159,11.58,1.774,23.159,3.551a116.214,116.214,0,0,1-.262,19.184c-.792,8.221-1.27,12.686-3.681,13.669C-1026.35,481.8-1036.05,468.175-1038.55,464.566Z" transform="translate(1097.276 -399.726)" fill="#f7a88f"/>
    <path id="Path_2975" data-name="Path 2975" d="M-1005.16,437.526a133.97,133.97,0,0,1,2.53,20.209c.2,4.052.2,7.894.064,11.487a22.587,22.587,0,0,1-4.294,8.292,24.1,24.1,0,0,1-10.495,7.313,34.282,34.282,0,0,1-12.2-4.44A33.016,33.016,0,0,1-1040.59,469.5a83.665,83.665,0,0,1-1.613-10.88,84.079,84.079,0,0,1,.921-20.874,33.645,33.645,0,0,1,12.886-4.886,35.7,35.7,0,0,1,23.236,4.666Z" transform="translate(1093.273 -424.126)" fill="#fcb6a1"/>
    <path id="Path_2976" data-name="Path 2976" d="M-1033.54,515.193a24.845,24.845,0,0,1-6.056,0,26.151,26.151,0,0,1-12.786-5.383c1.59-6.5,2.675-11.846,3.364-15.475,1.474-7.758,3.5-15.413,4.712-23.217a25.931,25.931,0,0,1,3.7-10.431,23.534,23.534,0,0,1,3.7-4.372c6.033-5.506,14.137-5.875,16.822-5.887a77.882,77.882,0,0,0-4.711,13.963,78.456,78.456,0,0,0-1.68,25.4Q-1030.01,502.491-1033.54,515.193Z" transform="translate(1071.162 -384.06)" fill="#27445c"/>
    <path id="Path_2977" data-name="Path 2977" d="M-1000.64,446.631a12.655,12.655,0,0,0-.171-4.375,14.59,14.59,0,0,0-5.383-8.075c-7.729-6.424-19.2-3.81-20.354-3.532-3.186.772-11.788,2.86-15.814,11.1-4.921,10.085,1.457,20.254,1.852,20.861l3.364,1.008c.937-2.055,1.848-4.3,2.692-6.728a78.121,78.121,0,0,0,3.367-13.458c4,.624,8.153,1.193,12.447,1.68C-1012.38,445.829-1006.37,446.32-1000.64,446.631Z" transform="translate(1089.396 -429.889)" fill="#45282e"/>
    <path id="Path_2978" data-name="Path 2978" d="M-1035.21,440.222a6.1,6.1,0,0,0-6.7-.1,5.948,5.948,0,0,0-2.452,5.606c.436,3.228,4.049,6.075,8.938,6.308Q-1035.32,446.129-1035.21,440.222Z" transform="translate(1088.977 -409.182)" fill="#fcb6a1"/>
    <g id="Group_1177" data-name="Group 1177" transform="translate(143.806 200.689)">
      <path id="Path_2979" data-name="Path 2979" d="M-986.638,521.026c-5.448,0-9.862-1.945-11.946-5.409-2.585-4.3-1.131-10.111-.511-12.589a23.694,23.694,0,0,1,1.409-4.036c.094-.21.2-.449.271-.637-.533-.343-3.183-1.6-13.52-.986a2.636,2.636,0,0,1-2.753-2.443,2.6,2.6,0,0,1,2.443-2.75c11.879-.711,17.514.659,18.865,4.563a5.551,5.551,0,0,1-.539,4.33,19.113,19.113,0,0,0-1.131,3.222c-.423,1.693-1.551,6.194-.077,8.647,1.39,2.307,5.571,3.377,10.4,2.666a2.585,2.585,0,0,1,1.933.481,2.585,2.585,0,0,1,1.017,1.713,2.6,2.6,0,0,1-2.194,2.95,24.906,24.906,0,0,1-3.667.278Z" transform="translate(1013.692 -491.996)" fill="#7d3a4c"/>
    </g>
    <path id="Path_2980" data-name="Path 2980" d="M-1007.63,488.865c3.632,4.133,6.585,5.891,8.669,6.718a6.487,6.487,0,0,1,3.467,2.6,6.012,6.012,0,0,1,.649,3.577,7.061,7.061,0,0,1-1.518,3.684,5.577,5.577,0,0,1-2.059,1.842c-.691.33-1,.087-4.007.433a5.369,5.369,0,0,1-2.495,0c-.924-.31-2.281-1.2-2.275-2.492a2.416,2.416,0,0,1,.759-1.625c0-1.923-1.063-3.157-1.952-3.144-.74.013-1.292.9-1.405,1.086a7.835,7.835,0,0,1,.756,2.275c.159.944.53,3.17-.756,4.223a2.113,2.113,0,0,1-2.385.326c-.656-.536-.071-1.59-.216-3.141-.255-2.7-2.382-3.3-2.928-5.525-.3-1.212-.168-3.083,1.952-5.852Z" transform="translate(1153.599 -298.294)" fill="#fcb6a1"/>
  </g>
</svg>
