<svg xmlns="http://www.w3.org/2000/svg" width="233.907" height="471.685" viewBox="0 0 233.907 471.685">
  <g id="Group_1130" data-name="Group 1130" transform="translate(0.001 0.001)">
    <g id="Group_1127" data-name="Group 1127" transform="translate(204.246 428.613)">
      <path id="Path_2621" data-name="Path 2621" d="M-428.423,418.281c2.294-5.991,8.1-20.716,8.547-21.708a51.038,51.038,0,0,0,3.157-9.116c1.606.872,2.6,1.79,2.41,2.643a50.846,50.846,0,0,1-3.3,9.713c-.452.992-6.253,15.717-8.547,21.708-1.4,3.658-16.544,6.026-17.42,2.882a9.514,9.514,0,0,1-.356-2.007C-439.619,423.341-429.554,421.234-428.423,418.281Z" transform="translate(443.946 -383.523)" fill="#ddd9d9"/>
      <path id="Path_2622" data-name="Path 2622" d="M-440.433,416.612a2.85,2.85,0,0,0,.423-1.3c.262-3.645.559-5.173-.536-8.715-.456-1.48-1.4-2.643-1.952-4.055-.685-1.745,6.088-14.871,7.458-16.092,1-.892,10.624,1.225,15.226,3.726a51.035,51.035,0,0,1-3.157,9.116c-.452.992-6.253,15.717-8.547,21.708a2.383,2.383,0,0,1-.507.769,14.442,14.442,0,0,0-8.408-5.157Z" transform="translate(447.041 -386.24)" fill="#dd1f3b"/>
      <path id="Path_2623" data-name="Path 2623" d="M-437.329,395.639a14.442,14.442,0,0,1,8.408,5.154c-2.375,2.533-11.074,4.207-15,3.348C-444.231,398.974-438.9,398.224-437.329,395.639Z" transform="translate(443.937 -365.267)" fill="#efefef"/>
    </g>
    <g id="Group_1128" data-name="Group 1128" transform="translate(32.738 450.571)">
      <path id="Path_2624" data-name="Path 2624" d="M-484.965,399.613c6.686-.252,23.182-.73,24.319-.708a56.833,56.833,0,0,0,9.855-.669c-.116,2.094-.552,3.613-1.49,3.787a49.812,49.812,0,0,1-10.043.8c-1.07-.019-16.609.485-22.907.75-3.842.161-11.558.553-11.762-3.289a12.032,12.032,0,0,1,.11-2.556C-494.918,400.036-488.449,399.745-484.965,399.613Z" transform="translate(497.014 -382.554)" fill="#ddd9d9"/>
      <path id="Path_2625" data-name="Path 2625" d="M-481.222,397c1.157-.989,1.839-2.291,2.9-3.341,1.3-1.3,15.782-.3,17.414.459,1.154.536,2.9,9.367,2.617,14.6a56.839,56.839,0,0,1-9.855.669c-1-.019-13.8.343-21.44.6a17.276,17.276,0,0,0-4.059-8.531C-488.855,400.176-483.022,398.541-481.222,397Z" transform="translate(504.519 -393.035)" fill="#dd1f3b"/>
      <path id="Path_2626" data-name="Path 2626" d="M-492.3,397.338c1.186-.417,3.474-1,6.062-1.7a17.276,17.276,0,0,1,4.059,8.531c-1.079.039-2.055.071-2.879.1-3.483.132-9.952.423-11.917-1.881C-496.572,399.995-495.218,398.356-492.3,397.338Z" transform="translate(497.104 -387.218)" fill="#efefef"/>
    </g>
    <path id="Path_2627" data-name="Path 2627" d="M-381.975,322.8c5.813,40.97-8.67,69.91-6.918,90.564s45.022,91.7,86.063,121.556c4.886,3.551-10.2,24.212-17.914,25.34s-103.538-77.933-120.771-126.245c-9.784,16.1,2.524,123.576-3.412,132.055s-24.6.391-30.807-5.81c-3.276-3.273-25.708-102.679-21.207-135.9S-471.9,320.111-471.9,320.111-386.5,317.884-381.975,322.8Z" transform="translate(528.584 -106.305)" fill="#eecc8c"/>
    <g id="Group_1129" data-name="Group 1129" transform="translate(30.895)">
      <path id="Path_2628" data-name="Path 2628" d="M-461.3,262.644c2.734,3.228-17.775,7.038-17.775,7.038l-4.763-10.715S-464.034,259.416-461.3,262.644Z" transform="translate(528.254 -241.614)" fill="#fdb688"/>
      <path id="Path_2629" data-name="Path 2629" d="M-493.027,289.856c2.194.7,2.857-3.273,2.944-3.89,0,0,.171,11.009,2.992,14.331s10.25,1.661,12.1.543c4.847,7.939,8.6,22.916,8.9,25.075.1.7,31.618-25.088,31.425-25.421-12.062-20.787-29.715-39.871-32.481-41.762a1.006,1.006,0,0,0-.746-.585c-5.826-1.312-12.2-2.1-17.882.249-4.449,1.835-8.786,4.8-9.3,10.221S-495.221,289.158-493.027,289.856Z" transform="translate(502.721 -246.242)" fill="#fdb688"/>
      <path id="Path_2630" data-name="Path 2630" d="M-487.238,263.964c1.722,4.081,3.933,8.847,7.148,11.995.963.947,2.495,1.209,3.319-.107a2.969,2.969,0,0,0,.362-1.658c1.616,1.238,3.389,2.262,5.057,2.071.86-.1,1.806-.879,1.428-1.874l-.7-1.845c1.787.565,3.635.7,3.91-1.4.158-1.225-.714-2.265-1.347-3.212q-1.488-2.23-3.044-4.411a24.177,24.177,0,0,0-2.789-3.745c-1.053-.973-2.194-.866-3.516-.7-3.005.372-6.947.255-9.348,2.365a1.506,1.506,0,0,0-.4,1.367,1.159,1.159,0,0,0-.08,1.154Z" transform="translate(520.404 -241.615)" fill="#dd7440"/>
      <path id="Path_2631" data-name="Path 2631" d="M-495.79,267.32l.126-.058c.239.614,1.687.75,2.54.708,1.655-.084,2.76.333,3.71-1.448a8.224,8.224,0,0,0,.391-2.869q.179-1.939.352-3.881a.987.987,0,0,0-.32-.885,1.255,1.255,0,0,0-.9-1.146,1.255,1.255,0,0,0-1.377.48c-1.725,2.475-3.115,5.361-5.732,7.028a1.2,1.2,0,0,0-.4,1.624A1.2,1.2,0,0,0-495.79,267.32Z" transform="translate(497.584 -244.473)" fill="#dd7440"/>
      <path id="Path_2632" data-name="Path 2632" d="M-493.558,275.225c.162-2.33-.4-5.274-2.339-6.77a20.162,20.162,0,0,1,3.768-6.13,25.684,25.684,0,0,1,12.954-7.707c5.141-1.328,11.584-1.7,16.35.976,4.915,2.753,8.615,8.33,11.3,13.248a32.556,32.556,0,0,1,17.3,5.232c3.079,2.246-8.337-2.084-21.64.249-12.2,3.58-39.758,6.644-39.933,5.425-.12-.837-.272-1.735-.414-2.656C-494.889,277.018-493.674,276.925-493.558,275.225Z" transform="translate(500.663 -253.597)" fill="#a36361"/>
      <path id="Path_2633" data-name="Path 2633" d="M-489.571,266.225a5.555,5.555,0,0,1,1.5-4.766,4.529,4.529,0,0,1,5.406-.7c3.222,1.945,2.766,8.395.255,10.76C-485.506,274.436-489.888,269.624-489.571,266.225Z" transform="translate(515.354 -238.955)" fill="#fdb688"/>
      <path id="Path_2634" data-name="Path 2634" d="M-485.113,262.055c-.627-1.28-2.853-1.738-3.306-.85s.41,1.881,1.037,2.142c.388.162.96-.023.582.549-.181.275-.446.43-.578.759-.453,1.112.708,2.491,1.832,1.7S-484.583,263.128-485.113,262.055Z" transform="translate(517.753 -237.648)" fill="#fdb688"/>
    </g>
    <path id="Path_2635" data-name="Path 2635" d="M-487.9,438.981a16.6,16.6,0,0,0,4.818.042,10.085,10.085,0,0,1,4.84,1.073c3.4,1.651,6.03,4.375,8.628,6.931,3.115,3.073,6.214,6.159,9.348,9.213,2.543,2.478,5.235,4.071,9.025,4.075,3.554,0,7.128-1.367,10.641-.436a2.39,2.39,0,0,0,2.021-.349,2.39,2.39,0,0,0,1.007-1.787q.727-13.867,1.454-27.731c2.071,9.639,3.516,19.391,4.921,29.134a2.282,2.282,0,0,0,.927,1.538,2.24,2.24,0,0,0,2.023,1.137,105.984,105.984,0,0,0,28.449-3.3q3.383-.877,6.7-1.984a22.789,22.789,0,0,0,5.833-2.388c3.6-2.546,2.074-7.691,1.784-11.251l-4.065-49.675c-1.351-16.5-2.675-33.018-5.441-49.375-4.64-27.453-15.346-58.532-45.048-70.821a2.655,2.655,0,0,0-3.118.788c-8.582,2.1-16.134,6.492-22.9,11.717-3.351,2.582-6.24,4.98-7.684,8.886-1.593,4.3-2.87,8.731-4.11,13.129a251.683,251.683,0,0,0-8.7,49.042,245.884,245.884,0,0,0-.653,24.784c.1,4.223.43,8.45.317,12.677-.113,4.346-1.221,8.279-2.339,12.463-2.123,7.965-1.642,16.661-2.02,24.81C-491.389,434.308-491.793,437.982-487.9,438.981Z" transform="translate(542.428 -210.729)" fill="#d3a29d"/>
    <path id="Path_2636" data-name="Path 2636" d="M-487.069,303.81a54.426,54.426,0,0,0,1.111,8.111,1.693,1.693,0,0,0,1.4,1.188,1.693,1.693,0,0,0,1.659-.788,63.2,63.2,0,0,1,36.207-29.159,1.7,1.7,0,0,0,1.091-.989,1.7,1.7,0,0,0-.091-1.47,46.971,46.971,0,0,0-6.6-10.486,1.623,1.623,0,0,0-.523-.426,1.479,1.479,0,0,0-1.587-.414c-9.158,2.708-16.525,8.873-22.92,15.756-1.645,1.764-3.231,3.58-4.8,5.416-1.538,1.8-3.4,3.6-4.32,5.81C-487.4,298.652-487.2,301.376-487.069,303.81Z" transform="translate(551.683 -218.563)" fill="#a36361"/>
    <path id="Path_2637" data-name="Path 2637" d="M-507.116,359.059c.255,2.569,2.194,5.086,3.619,7.138,1.525,2.188,2.724,3.4,5.445,3.765a36.263,36.263,0,0,0,8.285.084,2.6,2.6,0,0,0,2-.456,2.292,2.292,0,0,0,.627-2.294,5.481,5.481,0,0,0-1.587-2.556,2.213,2.213,0,0,1-.436-.711c2.8-.743,6.078-1.451,7.972-3.506a12.2,12.2,0,0,0,2.989-5.781c5.264-3.861,38.156-26.872,38.152-29.366s-16.018-15.607-18.073-15.649-25.166,30.3-27.793,31.822c-2.433,1.406-5.484,1.086-8.117,1.955a20.252,20.252,0,0,0-10.844,8.553C-506.1,354.063-507.355,356.651-507.116,359.059Z" transform="translate(507.145 -128.354)" fill="#fdb688"/>
    <path id="Path_2638" data-name="Path 2638" d="M-489.893,380.2c3.926,2.191,17.785,17.362,19.579,18.157,3.361,1.48,7.781-2.617,10.386-4.8a52.457,52.457,0,0,0,9.006-9.959c5-7.047,8.56-15.284,11.462-23.614a269.953,269.953,0,0,0,8.085-27.967c2.107-9.1,3.871-18.564,4.059-27.945.155-8.017-1.1-16.389-6.156-22.238-4.592-5.316-12.538-8.977-19.029-5.345-6.97,3.9-10.331,14.186-13.016,21.779-6.482,18.335-12.609,58.435-12.4,58.949C-482.626,362.838-491.612,379.243-489.893,380.2Z" transform="translate(545.159 -205.762)" fill="#d3a29d"/>
    <path id="Path_2639" data-name="Path 2639" d="M-492.418,316.559c1.415-3.648,3.341-8.508,6.921-10.3,4.9-2.449,16.024,6.55,19.96,10.854,3.18,3.474,8.408,11.119,3.412,15.087a34.244,34.244,0,0,1-4.036,2.44,19.953,19.953,0,0,1-4.275,2.369c-3.034.847-5.286-2.062-7.219-3.971-4.495-4.443-8.582-9.287-13.8-12.929a3.07,3.07,0,0,1-.963-3.55Z" transform="translate(539.541 -137.006)" fill="#a36361"/>
  </g>
</svg>
