<svg xmlns="http://www.w3.org/2000/svg" width="146.976" height="471.672" viewBox="0 0 146.976 471.672">
  <g id="Group_1126" data-name="Group 1126" transform="translate(0 -0.019)">
    <path id="Path_2604" data-name="Path 2604" d="M-556.578,302.083c-.821.061-1.635.158-2.449.271q3.024,15.568,4.941,31.337c.821-.006,1.642-.023,2.462-.071Q-553.519,317.757-556.578,302.083Z" transform="translate(692.915 -145.406)" fill="#0b4875"/>
    <g id="Group_1121" data-name="Group 1121" transform="translate(61.087 70.413)">
      <path id="Path_2605" data-name="Path 2605" d="M-580.271,275.605a1.246,1.246,0,0,0-1.282,1.163,1.246,1.246,0,0,0,1.117,1.322,1.246,1.246,0,0,0,1.282-1.163A1.246,1.246,0,0,0-580.271,275.605Z" transform="translate(581.557 -274.907)" fill="#ddd"/>
      <path id="Path_2606" data-name="Path 2606" d="M-570.488,275.39a1.244,1.244,0,0,0-1.324,1.158,1.244,1.244,0,0,0,1.159,1.324,1.244,1.244,0,0,0,1.324-1.159,1.244,1.244,0,0,0-1.159-1.324Z" transform="translate(603.386 -275.387)" fill="#ddd"/>
    </g>
    <path id="Path_2607" data-name="Path 2607" d="M-581.453,401.833A115.19,115.19,0,0,0-587,412.5a3.883,3.883,0,0,0,.113,3.566,3.883,3.883,0,0,0,2.976,1.969c3.254.423,6.363-2.866,7.959-4.618,2.407-2.65,6.017-9.251,6.7-8.99s.843,8.259,2.627,8.1,2.789-21.078.85-22.05C-568.734,389-574.583,389.828-581.453,401.833Z" transform="translate(629.733 50.611)" fill="#0b4875"/>
    <path id="Path_2608" data-name="Path 2608" d="M-590.837,342.259s24.39,150.7,16.667,166.85c2.068,4.033,14.467-4.443,16.186-12.26,14.279-79.694,12.344-154.59,12.344-154.59Z" transform="translate(621.936 -55.76)" fill="#f99b67"/>
    <path id="Path_2609" data-name="Path 2609" d="M-565.283,403.8a115.049,115.049,0,0,0-4.207,11.255,3.885,3.885,0,0,0,.545,3.528,3.885,3.885,0,0,0,3.194,1.594c3.283.026,5.968-3.619,7.335-5.552,2.068-2.924,4.847-9.917,5.552-9.739s1.845,8.094,3.6,7.726.2-21.259-1.842-21.989C-554.219,389.516-559.926,391.051-565.283,403.8Z" transform="translate(669.191 51.508)" fill="#0b4875"/>
    <path id="Path_2610" data-name="Path 2610" d="M-579.833,347.973s42.55,146.612,36.85,163.583c2.543,3.748,13.82-6.172,14.573-14.137,4.475-80.841-6.563-154.945-6.563-154.945Z" transform="translate(646.49 -55.282)" fill="#fdb688"/>
    <path id="Path_2611" data-name="Path 2611" d="M-455.018,358.756c-.543-5.005-1.108-10-1.664-15.006-1.028-9.284-1.764-18.638-3.361-27.864-1.461-8.447-2.268-17.989-7.707-25.227-5.073-6.76-9.655-12.053-23.256-13.555-8.159-.9-39.2-.779-58.335.313,0,0-15.866-.656-24.671,11.342-14.441,19.672-24.351,48.444-26.335,65.551-1.486,12.822,11.927,17.65,20.564,11.109,3.92-2.963,7.064-4.786,9.148-7.125,1.583,4.672-7.6,39.241-8.446,75.81s.737,79.416,3.315,81.976c5.157,5.115,99.651,1.952,104.343-1.6s2.708-68.523-3.225-111.562c-1.377-9.994-3.949-19.837-3.984-29.9,7.393,1.742,16.25,2.718,21.453-3.031C-454.275,366.776-454.6,362.575-455.018,358.756Z" transform="translate(600.461 -202.482)" fill="#a36361"/>
    <g id="Group_1123" data-name="Group 1123" transform="translate(39.599)">
      <path id="Path_2612" data-name="Path 2612" d="M-531.33,298.4q-.121-1.919-.349-3.832a72.8,72.8,0,0,0-3.383-14.935,73.684,73.684,0,0,0-6.527-14.079c-2.488-4.156-5.406-8.728-10.085-10.857a10.528,10.528,0,0,0-7.8-.6,8,8,0,0,0-4.217,3.331c-6.983-1.829-14.3,1.625-18.49,7.132-5.186,6.8-5.981,15.442-6.02,23.608-.019,4.227.116,9.274,4.33,11.756a.727.727,0,0,0,.568.042.727.727,0,0,0,.424-.381,17.478,17.478,0,0,0,9.717,8,.716.716,0,0,0,.853-.491,13.293,13.293,0,0,0,7.8,4.143c4.776.763,9.555-.653,13.743-2.792a73.832,73.832,0,0,0,7.141-4.337l.055-.042a3.356,3.356,0,0,0,2.213.963,9.554,9.554,0,0,0,1.092,2.385,2.265,2.265,0,0,0,1.777,1.034c.381,1.089,1.079,2.31,2.314,2.478,1.561.21,1.658-1.509,1.68-2.7a1.26,1.26,0,0,0,1.068.382,1.26,1.26,0,0,0,.942-.631,3.176,3.176,0,0,0,.216-1.684c-.022-.837-.064-1.674-.132-2.508-.032-.42-.074-.837-.12-1.254a1.453,1.453,0,0,0,1.011-.637C-530.91,300.961-531.266,299.429-531.33,298.4Z" transform="translate(588.206 -253.596)" fill="#dd7440"/>
      <g id="Group_1122" data-name="Group 1122" transform="translate(8.878 12.857)">
        <path id="Path_2613" data-name="Path 2613" d="M-524.481,319.339s-13.885-1.344-15.785-3.338-8.514-30.636-12-37.4c4.281-7.49-5.209-13.892-6.938-4.262-4.889-3.1-8.288-10.3-12.418-16.767-4.857,7.093-13.429,9.539-13.836,17.986,0,0,.184,22.257,13.836,24.2,2.634.375.963,12.828.53,17.847-3.057,1-6.443,1.373-11.723,2.042C-588.241,345.884-536.818,346.708-524.481,319.339Z" transform="translate(585.459 -257.575)" fill="#fdb688"/>
      </g>
    </g>
    <path id="Path_2614" data-name="Path 2614" d="M-526.347,398.667c-.594-3.6-1.422-7.962-5.083-9.655-4.136-1.916-10.288-.326-14.586.262A120.883,120.883,0,0,0-560.6,392.22a438.207,438.207,0,0,1-2.171-114.829c.178-1.561-2.23-2.1-2.411-.527a440.742,440.742,0,0,0,2.2,116.024c-1.38.42-1.26,1.991-1.238,2.265.465,5.4.385,11.18,1.512,16.486.85,4,3.968,5.694,7.82,5.9,5.228.278,10.86-.7,15.95-1.848,3.929-.889,8.185-2.155,10.793-5.451C-525.507,406.91-525.684,402.638-526.347,398.667Z" transform="translate(672.905 -203.785)" fill="#0b4875"/>
    <g id="Group_1125" data-name="Group 1125" transform="translate(9.809 113.784)">
      <g id="Group_1124" data-name="Group 1124" transform="translate(29.019)">
        <path id="Path_2615" data-name="Path 2615" d="M-588.2,294l14.3-.339s.449,14.732-6.912,15.3S-588.2,294-588.2,294Z" transform="translate(588.998 -277.977)" fill="#a90013"/>
        <path id="Path_2616" data-name="Path 2616" d="M-584.2,296.583c3.228.058,8.786-.64,8.754-1.99s-4.763-1.4-6.5-1.309c-1.648.077-5.955.368-5.981,1.557S-585.24,296.567-584.2,296.583Z" transform="translate(589.603 -278.884)" fill="#dd1f3b"/>
        <path id="Path_2617" data-name="Path 2617" d="M-587.841,343.749a22.682,22.682,0,0,0,10.418,1.17c6.094-.51,6.421-1.939,5.913-2.553s-1.583-.414-3.419-1.787a20.162,20.162,0,0,1-3.619-3.247q-.112-8.584-.22-17.171c3.813-1.047,5.235-5.613,5.519-9.183.52-6.489,1.189-13.084.688-19.572-.174-2.243-5.47-2.734-7.216-2.566-2.666.259-8.628.669-8.576,3.037a90.279,90.279,0,0,0,1.312,20.929c.562,2.776,2.023,6.065,4.7,7.18q1.091,8.8,1.374,17.653l.006.032a19.335,19.335,0,0,1-6.976,4.831.656.656,0,0,0-.409.659A.656.656,0,0,0-587.841,343.749Zm13.446-52.341c-.246.869-5.238.992-6.133.989a19.61,19.61,0,0,1-5.955-.957c2.817-1.183,12.64-2,12.083-.032Zm-5.538,27.663c-6.308.523-6.45-9.933-6.818-14.108a106.824,106.824,0,0,1-.326-12.373,21.015,21.015,0,0,0,10.088.8,12.2,12.2,0,0,0,3.1-.75l-.417,12.441c-.144,4.235.541,13.473-5.628,13.99Z" transform="translate(588.445 -288.809)" fill="#fff"/>
      </g>
      <path id="Path_2618" data-name="Path 2618" d="M-511.794,313.3c-13.242-3.6-25.55-5.542-40.233-11.145a45.522,45.522,0,0,0-28.109-10.227c-1.3-.013-3.642-.3-4.23,1.289-.488,1.312.743,2.194,1.865,2.459,2.556.6,7.316,1.738,7.316,1.738s-8.524-1.406-10.754-1.428c-.94-.01-1.945.142-2.239,1.179-.291,1.015.388,1.648,1.231,2.091a50.252,50.252,0,0,0,6.1,2.226c2.21.8,4.417,1.638,6.644,2.411l-7.691-.9c-1.273-.152-5.057-1.2-4.8,1.331.2,1.949,4.039,2.718,5.5,3.189a1.021,1.021,0,0,0,.226.892c5.28,7.1,24.778,8.414,27.479,9.2s25.75,15.136,38.185,18.318C-501.351,339.492-505.264,315.07-511.794,313.3Z" transform="translate(617.903 -281.922)" fill="#fdb688"/>
      <path id="Path_2619" data-name="Path 2619" d="M-574.872,296.886a42.213,42.213,0,0,1-10.259,1.461c-18.752,0-13.042,24.377-2.747,21.944,3.348-.591,7.716-3.971,10.259-5.028C-572.4,313.094-574.872,296.886-574.872,296.886Z" transform="translate(597.426 -270.785)" fill="#fdb688"/>
      <path id="Path_2620" data-name="Path 2620" d="M-569.5,309.6a2.127,2.127,0,0,0,.814-.191c2.142-1.021.336-3.315-.743-4.317-3.138-2.915-14.286-10.056-16.971-8.311a6.13,6.13,0,0,0-2.388,3.025c-.85,1.729-1.774,2.139-2.185,4.866-.3,1.984-1.435,2.95-1.024,5.606.236,1.525-.75,4.792,2.456,5.826a64.772,64.772,0,0,0,9.083,1.538,26.887,26.887,0,0,0,5.073.1,5.533,5.533,0,0,0,2.368-.6,11.561,11.561,0,0,0,2.259.346c.821.032,1.832-.323,1.732-1.422-.074-.808-1.629-2.165-1.629-2.165s2.375,1.089,3.254.372C-565.75,312.924-567.631,310.962-569.5,309.6Z" transform="translate(609.346 -271.626)" fill="#fdb688"/>
    </g>
  </g>
</svg>
