<svg xmlns="http://www.w3.org/2000/svg" width="409.412" height="301.357" viewBox="0 0 409.412 301.357">
  <g id="Group_1161" data-name="Group 1161" transform="translate(0.001 0.002)">
    <path id="Path_2785" data-name="Path 2785" d="M-894.925,335.135c12.651-26.358,63.809-9.487,38.97,36.6-10.848,20.118-25.343,61.3-57.608,64.384s-63.214-38.8-63.214-38.8l10.292-21.727s30.791,29.7,39.917,28.245S-912.614,371.988-894.925,335.135Z" transform="translate(1159.62 -269.843)" fill="#eecc8c"/>
    <path id="Path_2786" data-name="Path 2786" d="M-970.334,480.292s-.113-.469-.262-1.354-.384-2.188-.678-3.842c-.62-3.309-1.331-8.059-2.068-13.775a285.024,285.024,0,0,1-2.049-42.234q.1-2.889.2-5.771c.09-1.919.233-3.826.346-5.723.187-3.8.633-7.513.944-11.122.194-1.8.429-3.567.64-5.3s.4-3.428.672-5.07c.523-3.283.927-6.408,1.5-9.261.992-5.729,2.081-10.463,2.792-13.788l1.27-5.2c.521-1.871,4.608-2.44,9.132-1.27s7.8,3.542,7.309,5.3l-1.493,4.854c-.853,3.112-2.152,7.542-3.409,12.935-.7,2.682-1.254,5.626-1.942,8.725-.355,1.548-.614,3.157-.921,4.792s-.621,3.312-.908,5.018c-.494,3.422-1.131,6.951-1.522,10.563-.213,1.806-.459,3.622-.653,5.454q-.252,2.748-.51,5.509a274.517,274.517,0,0,0-.41,40.673c.391,5.548.808,10.176,1.221,13.4.187,1.612.333,2.882.436,3.748s.174,1.325.174,1.325c.717,4.023-.889,7.661-3.58,8.13S-969.594,484.47-970.334,480.292Z" transform="translate(1162.469 -195.48)" fill="#56251d"/>
    <path id="Path_2787" data-name="Path 2787" d="M-1014.22,472.835s-.1-.414-.23-1.192-.339-1.922-.6-3.377c-.543-2.9-1.17-7.08-1.819-12.108a250.46,250.46,0,0,1-1.8-37.118q.087-2.54.171-5.073c.081-1.684.207-3.361.307-5.028.165-3.335.556-6.6.827-9.775.172-1.583.381-3.134.563-4.656.2-1.522.349-3.015.591-4.459.462-2.886.818-5.632,1.318-8.137.869-5.038,1.826-9.2,2.449-12.121.714-2.9,1.118-4.566,1.118-4.566.459-1.645,4.052-2.146,8.027-1.118s6.85,3.112,6.424,4.656c0,0-.478,1.551-1.312,4.265-.75,2.734-1.89,6.631-3,11.368-.617,2.359-1.1,4.944-1.706,7.671-.31,1.36-.536,2.772-.808,4.21s-.546,2.911-.8,4.411c-.433,3.008-.992,6.107-1.338,9.284-.188,1.587-.4,3.186-.572,4.792q-.223,2.419-.449,4.844a241.188,241.188,0,0,0-.362,35.748c.343,4.876.708,8.944,1.073,11.775.165,1.422.294,2.537.385,3.3s.152,1.163.152,1.163c.63,3.538-.779,6.737-3.147,7.148S-1013.57,476.506-1014.22,472.835Z" transform="translate(1065.942 -178.533)" fill="#6a3428"/>
    <path id="Path_2788" data-name="Path 2788" d="M-1004.09,470.344s-.1-.411-.229-1.189-.339-1.923-.595-3.38c-.546-2.9-1.173-7.08-1.819-12.1a250.045,250.045,0,0,1-1.8-37.118q.087-2.54.172-5.073c.081-1.687.207-3.364.3-5.028.168-3.338.556-6.6.83-9.775.172-1.583.378-3.138.562-4.66s.349-3.015.591-4.456c.462-2.886.814-5.632,1.316-8.14.872-5.034,1.829-9.2,2.452-12.117.711-2.908,1.118-4.566,1.118-4.566.456-1.648,4.049-2.146,8.027-1.118s6.85,3.112,6.424,4.653l-1.315,4.265c-.75,2.737-1.887,6.631-3,11.371-.617,2.356-1.1,4.944-1.706,7.668-.31,1.36-.539,2.776-.811,4.214s-.546,2.908-.8,4.411c-.436,3.005-1,6.107-1.338,9.284-.187,1.587-.4,3.183-.575,4.792-.149,1.609-.3,3.228-.446,4.844a240.689,240.689,0,0,0-.362,35.748c.343,4.876.708,8.941,1.069,11.775.168,1.418.3,2.533.385,3.3s.155,1.163.155,1.163c.63,3.535-.782,6.734-3.147,7.144S-1003.44,474.017-1004.09,470.344Z" transform="translate(1088.545 -184.087)" fill="#56251d"/>
    <path id="Path_2789" data-name="Path 2789" d="M-1014.13,422.71c4.756-4.95,10.931-8.311,17.048-11.181,7.354-3.451,69.745-15.313,79.552-16.67,8.136-1.124,16.092-4.4,23.311-8.324,3.654-1.987,7.946-6.556,11.229-11.549,1.774-4.7,2.365-10.3,2.6-15.174.252-5.212.223-10.421.966-15.6.827-5.745,2.957-10.1,5.958-14.993,2.2-3.59,4.453-6.013,8.569-7.254.679-.2,1.367-.362,2.059-.5,3.1-.937,8.191-1.128,14.237.456,7.051,2.4,12.951,7.855,13.833,15.3,1.2,10.13-.779,20.438-1.68,30.5-.947,10.589-3.939,27.676-7.093,37.894-4.644,19.385-6.136,45.19-16.06,57.6-9.112,11.39-23.353,12.308-36.627,14.121-18.234,2.495-36.918,2.352-55.3,2.889-14.111.414-28.116-.591-41.794-4.259-9.862-2.646-15.284-1.877-20.755-11.416C-1020.37,453.56-1022.39,431.3-1014.13,422.71Z" transform="translate(1064.104 -274.102)" fill="#6a3428"/>
    <path id="Path_2790" data-name="Path 2790" d="M-880.912,334.684c.042-.892.077-1.787.107-2.679a64.81,64.81,0,0,1,9.264,15.811c2.863,7.319,5.49,17.346,2.624,24.988-1.309,3.493-3.652,6.411-5.742,9.455-2.159,3.144-3.981,6.5-6.007,9.736-4.175,6.673-8.867,12.819-15.866,16.6-.284-.284-.572-.569-.856-.856a1.687,1.687,0,0,0-2.02-.045c-5.083,3.571-36.226,26.452-39.277,15.055a1.681,1.681,0,0,0-2.146-.976c-7.548,2.459-14.783,6.2-22.622,7.7-7.61,1.457-14.308-.708-21.815-.895-10.925-.275-21.466,3.2-32.174,4.275-3.842-11.691-4.052-28.158,2.785-35.267,4.76-4.95,10.935-8.311,17.048-11.18,7.358-3.451,69.748-15.313,79.555-16.67,8.136-1.124,16.092-4.4,23.311-8.324,3.655-1.987,7.946-6.556,11.229-11.549C-881.74,345.156-881.148,339.56-880.912,334.684Z" transform="translate(1062.924 -248.973)" fill="#56251d"/>
    <path id="Path_2791" data-name="Path 2791" d="M-958.109,337.714c.074,5.021-.792,9.975-1.528,14.909s-1.357,9.988-.792,14.955,2.485,9.907,5.833,12.541l.669-2.049,1.176,1.4,5.2-6.3c.068.439.139.876.21,1.315,3.894-2.776,4.1-8.948,6.727-14.583,3-6.443-3.855-17.026-9.186-24.671-4.443-6.372-7.636-12.838-14.5-12.764C-960.061,325.939-958.19,333.8-958.109,337.714Z" transform="translate(1187.453 -270.26)" fill="#84402d"/>
    <path id="Path_2792" data-name="Path 2792" d="M-958.612,329.25c11.067,0,14.163,13.284,13.879,19.168-.42,8.624-7.2,8.078-13.391,8.078s-13,1.322-13.368-6.366S-969.683,329.253-958.612,329.25Z" transform="translate(1171.331 -255.12)" fill="#ae6342"/>
    <path id="Path_2793" data-name="Path 2793" d="M-991.619,371.237c-1.07,5.089-.979,10.347-1.677,15.5s-2.343,10.45-6.149,13.992a29.851,29.851,0,0,1-8.411,14.46l.21-2.139a19.427,19.427,0,0,1-9.936,12.738c-.081-.4-.162-.808-.239-1.212a31.215,31.215,0,0,1-11.465,11.95c.145-5.442-3.186-10.379-3.92-15.772-.8-5.833,1.548-11.727,5.018-16.48s8.013-8.6,12.34-12.589,8.544-8.292,11.1-13.6,3.335-11.442,6.547-16.386a19.573,19.573,0,0,1,14.67-8.718c-.039,1.606.446,4.63-.588,5.768-1.115,1.225-2.552,2.036-3.593,3.409C-989.545,364.574-991.384,368.161-991.619,371.237Z" transform="translate(1033.362 -202.171)" fill="#56251d"/>
    <path id="Path_2794" data-name="Path 2794" d="M-981.859,483.127s-.113-.472-.262-1.357-.388-2.188-.679-3.842c-.62-3.309-1.331-8.056-2.071-13.775a285.459,285.459,0,0,1-2.046-42.23q.1-2.894.194-5.774c.09-1.916.236-3.826.349-5.723.187-3.794.63-7.51.94-11.119.2-1.8.433-3.567.64-5.3.223-1.732.4-3.432.676-5.073.523-3.283.927-6.408,1.5-9.258.992-5.732,2.081-10.466,2.792-13.791.808-3.306,1.27-5.193,1.27-5.193.521-1.874,4.608-2.443,9.132-1.273s7.794,3.542,7.31,5.3c0,0-.543,1.764-1.493,4.854-.853,3.112-2.152,7.545-3.412,12.935-.7,2.682-1.254,5.629-1.939,8.728-.356,1.548-.614,3.154-.924,4.792-.294,1.638-.621,3.309-.905,5.015-.494,3.425-1.131,6.954-1.522,10.566-.213,1.8-.459,3.622-.653,5.451q-.252,2.748-.511,5.509a274.607,274.607,0,0,0-.41,40.676c.388,5.548.808,10.172,1.218,13.4.187,1.616.336,2.882.439,3.748s.174,1.325.174,1.325c.717,4.023-.889,7.665-3.583,8.13S-981.119,487.3-981.859,483.127Z" transform="translate(1136.753 -189.16)" fill="#6a3428"/>
    <path id="Path_2795" data-name="Path 2795" d="M-964.769,348.636a35.486,35.486,0,0,1-5.5-5.577c-.714-.882-1.564-1.7-.818-2.944a7.706,7.706,0,0,0,1.205-3.768c.071-1.37-.074-2.718-.123-4.072a15.6,15.6,0,0,1,.333-3.939,31.094,31.094,0,0,1,1.4-4.378,24.441,24.441,0,0,1,1.609-3.677,7.8,7.8,0,0,1,1.089-1.464c.491-.514,1.079-.927,1.522-1.486a11.813,11.813,0,0,0,1.428-3.128,4.837,4.837,0,0,1,1.748-2.375,5.355,5.355,0,0,1,2.911-.659,9.459,9.459,0,0,0,3.331-.307c1.167-.446,1.845-1.58,2.643-2.5,1.641-1.89,3.936-2.11,6.149-2.045a51.059,51.059,0,0,1,8.182.717c4.427.859,8.977,3.231,10.56,7.771a11.563,11.563,0,0,0,.6,1.755,3.755,3.755,0,0,0,1.48,1.334,9.811,9.811,0,0,1,2.449,2.126,10.436,10.436,0,0,1,2.265,6.2,10.777,10.777,0,0,0,.171,2.023c.152.656.543,1.176.75,1.8a2.655,2.655,0,0,1-.7,2.634,7.777,7.777,0,0,1-2.63,1.748c-1.454.656-2.918,1.286-4.375,1.929l-8.534,3.761a55.96,55.96,0,0,1-8.02,3.131c-2.449.65-5,.7-7.406,1.6a9.617,9.617,0,0,0-3.089,1.974,28.84,28.84,0,0,1-2.514,2.236,4.837,4.837,0,0,1-2.479.982C-961.146,350.895-963.234,349.835-964.769,348.636Z" transform="translate(1171.674 -306.309)" fill="#bc6337"/>
    <path id="Path_2796" data-name="Path 2796" d="M-969.432,327.783a15.731,15.731,0,0,0,4.44,7.9c2,2,9.765,6.143,10.96,7.054,4.133,3.157,3.587,10.36,7.138,10.689,2.058.191,2.31-5.335,2.31-5.335s14.583,9.238,20.819,3.719c8.33-7.361,9.226,10.815,10.078,15.675s28.43-29.657,15.359-38.081c-21.792-14.037-39.871-13.756-39.871-13.756-2.032-2.824-8.518-3.173-10.256-1.1-3.357,4-1.629,6.272-.278,8.44s-5.454,1.564-7.593,1.225a14.684,14.684,0,0,0-6.2.187C-964.573,324.956-969.555,327.175-969.432,327.783Z" transform="translate(1176.005 -290.875)" fill="#ffa776"/>
    <path id="Path_2797" data-name="Path 2797" d="M-962.161,318.858a2.763,2.763,0,0,1-.534-2.115,2.763,2.763,0,0,1,1.167-1.843,3.308,3.308,0,0,1,3.836-.132,3.188,3.188,0,0,1,1.845,2.255,2.677,2.677,0,0,1-.468,2.032,2.677,2.677,0,0,1-1.784,1.08,4.441,4.441,0,0,1-4.062-1.277Z" transform="translate(1190.91 -288.661)" fill="#dd6f3e"/>
    <path id="Path_2798" data-name="Path 2798" d="M-938.965,416.364c3.823,1.325,10.182.9,15.165,1.121,4.265.194,12.777-1.4,19.95-6.922,2.559-1.974,19.236-9.872,21.45-13.688.97-1.671-2.294-6.689-3.367-7.245-1.745-.9-42.721,14.828-45.8,16.793-2.831,1.8-11.2,4.818-11.2,4.818a5.605,5.605,0,0,0,3.8,5.123Z" transform="translate(1235.507 -120.474)" fill="#f7f0ed"/>
    <path id="Path_2799" data-name="Path 2799" d="M-942.757,421.767c.2,1.865,2.265,2.372,3.981,2.491,4.976.343,9.972,1.066,14.955.8,15.708-.821,21.831-10.473,30.213-16.609,1.69-1.235,8.683-6.269,7.852-8.3a29.582,29.582,0,0,0-2.747-4.925,31.7,31.7,0,0,0-3.551-4.5,20.887,20.887,0,0,0-9.032-5.69.9.9,0,0,0-.53-.149.69.69,0,0,0-.6.138.69.69,0,0,0-.251.562,27.017,27.017,0,0,1-4.343,4.036c-5.636,4.65-11.736,9.368-19.323,10.883a.6.6,0,0,0-.527.578.613.613,0,0,0-.217.653,9.51,9.51,0,0,1,.3,2.488,10.855,10.855,0,0,1-4.979,8.847c-2.831,1.8-6.411,2.414-9.022,4.54C-941.8,418.613-942.925,420.2-942.757,421.767Z" transform="translate(1235.496 -131)" fill="#a36361"/>
    <path id="Path_2800" data-name="Path 2800" d="M-952.74,408.887c-37.222-23.233-19.207-52.919,11.846-52.59,28.694.3,56.38,4.265,89.433,12.079S-899.393,442.182-952.74,408.887Z" transform="translate(1166.725 -194.776)" fill="#0b4875"/>
    <path id="Path_2801" data-name="Path 2801" d="M-941.619,417.707c3.823,1.325,10.185.9,15.168,1.118,4.262.194,12.773-1.393,19.947-6.918,2.562-1.974,19.236-9.872,21.45-13.688.97-1.674-2.294-6.692-3.364-7.248-1.745-.9-42.725,14.832-45.8,16.793-2.828,1.806-11.2,4.821-11.2,4.821a5.605,5.605,0,0,0,3.8,5.122Z" transform="translate(1229.585 -117.485)" fill="#eadcd6"/>
    <path id="Path_2802" data-name="Path 2802" d="M-945.411,423.11c.2,1.864,2.268,2.372,3.981,2.488,4.976.346,9.975,1.07,14.954.808,15.708-.821,21.831-10.473,30.216-16.609,1.69-1.238,8.679-6.269,7.852-8.3a29.728,29.728,0,0,0-2.75-4.925,31.873,31.873,0,0,0-3.551-4.495,20.809,20.809,0,0,0-9.032-5.69.908.908,0,0,0-.53-.152.689.689,0,0,0-.6.139.689.689,0,0,0-.249.561,26.886,26.886,0,0,1-4.346,4.033c-5.635,4.653-11.736,9.368-19.323,10.886a.585.585,0,0,0-.524.578.607.607,0,0,0-.22.653,9.511,9.511,0,0,1,.3,2.488,10.864,10.864,0,0,1-4.983,8.847c-2.827,1.8-6.411,2.414-9.022,4.54C-944.448,419.956-945.579,421.546-945.411,423.11Z" transform="translate(1229.574 -128.009)" fill="#a36361"/>
    <g id="Group_1157" data-name="Group 1157" transform="translate(295.091 276.903)">
      <path id="Path_2803" data-name="Path 2803" d="M-941.5,394.6a21.776,21.776,0,0,1,9.477,3.028,1.215,1.215,0,0,1,.756-.239,1.267,1.267,0,0,1,1.232,1.266,1.267,1.267,0,0,1-1.232,1.267,1.2,1.2,0,0,1-.887-.363,1.2,1.2,0,0,1-.338-.9,20.458,20.458,0,0,0-9.009-2.934C-942.217,395.664-942.224,394.536-941.5,394.6Z" transform="translate(942.04 -386.224)"/>
      <path id="Path_2804" data-name="Path 2804" d="M-940.567,393.545a22.609,22.609,0,0,1,10.993,1.693,1.157,1.157,0,0,1,.966-.459,1.267,1.267,0,0,1,1.231,1.266,1.267,1.267,0,0,1-1.231,1.267,1.164,1.164,0,0,1-1.186-.947,21.621,21.621,0,0,0-10.773-1.693C-941.291,394.741-941.284,393.617-940.567,393.545Z" transform="translate(944.122 -388.794)"/>
      <path id="Path_2805" data-name="Path 2805" d="M-940.208,392.57a26.268,26.268,0,0,1,12.04.278,1.153,1.153,0,0,1,1.04-.572,1.269,1.269,0,0,1,1.233,1.268,1.269,1.269,0,0,1-1.233,1.268,1.159,1.159,0,0,1-1.154-.827,25.028,25.028,0,0,0-11.626-.33C-940.615,393.8-940.916,392.718-940.208,392.57Z" transform="translate(945.227 -392.003)"/>
    </g>
    <path id="Path_2806" data-name="Path 2806" d="M-755.578,394.348c-8.162,34.956-25.831,59.091-70.533,52.451-6.2,15.436-27.909,26.209-34.2,20.894-22.119-18.693-42.808-23.085-96.155-56.38-37.222-23.23-19.207-52.919,11.843-52.59,28.7.3,56.383,4.265,89.433,12.079Z" transform="translate(1158.415 -189.363)" fill="#0b4875"/>
    <path id="Path_2807" data-name="Path 2807" d="M-935.21,318.234c38.307,2.507,83.95,31.027,105.467,67.813,26.994,46.143,27.75,107.293,25.421,110.99-10.382,16.47-100.966-35.331-131.04-41.655-16.111-37.47-17.543-91.175-17.543-91.175C-943.46,344.059-934.173,331.822-935.21,318.234Z" transform="translate(1212.888 -279.701)" fill="#eecc8c"/>
    <g id="Group_1159" data-name="Group 1159" transform="translate(157.925 58.887)">
      <path id="Path_2808" data-name="Path 2808" d="M-983.319,401.8q.6,2.026,1.2,4.059a9.688,9.688,0,0,0,1.176,3.218,2.716,2.716,0,0,0,2.193.88,2.716,2.716,0,0,0,2.053-1.171,3.855,3.855,0,0,0,.756-2.233,4.9,4.9,0,0,0,1.949-2.333c.588-1.538.346-3.231.31-4.834a23.827,23.827,0,0,1,2.617-11.358,37.929,37.929,0,0,1,2.808-4.453,11.47,11.47,0,0,1,3.1-3.474,3.474,3.474,0,0,1,1.054-.426c.682-.142.969.278,1.166.85a8.262,8.262,0,0,1,.381,2.514,42.678,42.678,0,0,0,.071,4.6,11.649,11.649,0,0,0,1.39,4.172c.53.947,1.412,2.54,2.6,2.73,1.244.2,1.961-1.221,2.21-2.217a14.111,14.111,0,0,0-.016-4.453c-.246-3.322,2.259-8.3,4.074-11.1.333-.514-9.132-22.367-9.387-22.322a18.907,18.907,0,0,0-13.232,9,44.266,44.266,0,0,0-2.95,7.057c-.908,2.582-1.725,5.193-2.485,7.823s-1.457,5.28-2.133,7.936-1.467,5.322-1.939,8.014C-984.809,396.943-984.072,399.253-983.319,401.8Z" transform="translate(984.489 -257.798)" fill="#fdb688"/>
      <g id="Group_1158" data-name="Group 1158" transform="translate(2.343 120.985)">
        <path id="Path_2809" data-name="Path 2809" d="M-977.266,363.908a15.365,15.365,0,0,1,4.5-.087c.562.074.572.969,0,.9a14.537,14.537,0,0,0-4.269.055C-977.592,364.865-977.835,364-977.266,363.908Z" transform="translate(997.539 -358.134)" fill="#ea8c59"/>
        <path id="Path_2810" data-name="Path 2810" d="M-977.523,362a10.188,10.188,0,0,0,6.786.113c.546-.181.782.682.236.863a10.993,10.993,0,0,1-7.261-.113C-978.3,362.672-978.066,361.806-977.523,362Z" transform="translate(996.478 -361.974)" fill="#ea8c59"/>
        <path id="Path_2811" data-name="Path 2811" d="M-983.331,386.1c1.354.019,1.939-1.415,1.919-2.575-.023-1.128-.381-2.23-.514-3.344a16.528,16.528,0,0,1,.536-6.337c1.125-4.1,3.568-7.649,6.259-10.877.371-.44,1,.2.633.633-3.086,3.7-5.858,7.917-6.5,12.793a14.544,14.544,0,0,0-.032,3.726,33.626,33.626,0,0,1,.517,3.406c.029,1.661-.96,3.5-2.814,3.474a.449.449,0,0,1-.451-.447.449.449,0,0,1,.448-.452Z" transform="translate(983.764 -360.09)" fill="#ea8c59"/>
      </g>
      <path id="Path_2812" data-name="Path 2812" d="M-883.038,337.016c12.651-26.358,63.806-9.487,38.967,36.6C-854.915,393.737-884.4,431.5-901.671,438s-56.93,8.2-67.771,5.761-11.009-23.191-4.744-24.057,43.71-11.184,52.861-14.57S-900.726,373.869-883.038,337.016Z" transform="translate(998.147 -324.533)" fill="#eecc8c"/>
    </g>
    <path id="Path_2813" data-name="Path 2813" d="M-976.482,342.11c-.407,1.813-3.451,4.679-4.243,6.359a7.672,7.672,0,0,0-.934,4.459c.607,3.635,4.049,5.4,7.1,6.737,4.588,2.007,9.232,1.328,9.759.084,1.573.672,3.309.947,4.339-.789a2.49,2.49,0,0,0-.045-2.653,1.8,1.8,0,0,0,1.2-.937c.572-.947.023-1.955-.54-2.747-.872-1.215-1.764-2.417-2.646-3.629l-4.556-6.253.3-.485a39.75,39.75,0,0,0,3.018,3.225c1.073.976,2.727,1.086,3.367-.459.669-1.612-.788-3.538-1.544-4.873a23.387,23.387,0,0,0-3.949-4.786c-2.714-2.478-4.6.184-5.739,2.443C-975.325,336.8-975.923,339.615-976.482,342.11Z" transform="translate(1148.583 -243.693)" fill="#f7a577"/>
    <g id="Group_1160" data-name="Group 1160" transform="translate(170.933 94.274)">
      <path id="Path_2814" data-name="Path 2814" d="M-979.89,339.213a21.721,21.721,0,0,0,11.93,9.225c.4.123.136.717-.259.6A22.264,22.264,0,0,1-980.41,339.6C-980.63,339.252-980.11,338.858-979.89,339.213Z" transform="translate(980.463 -327.474)" fill="#d36e3c"/>
      <path id="Path_2815" data-name="Path 2815" d="M-979.111,337.091a27.758,27.758,0,0,0,13.258,13.016c.378.178.12.772-.259.6a28.468,28.468,0,0,1-13.6-13.378C-979.9,336.952-979.291,336.716-979.111,337.091Z" transform="translate(982.059 -332.322)" fill="#d36e3c"/>
      <path id="Path_2816" data-name="Path 2816" d="M-977.753,335.6l3.464,3.978c.275.313-.246.7-.521.388q-1.73-1.987-3.467-3.975C-978.551,335.674-978.028,335.287-977.753,335.6Z" transform="translate(985.17 -335.484)" fill="#d36e3c"/>
    </g>
    <path id="Path_2817" data-name="Path 2817" d="M-957.909,336.347c-.091,5.021,1.011,9.975,1.955,14.909s1.732,9.988,1.008,14.954-3.173,9.907-7.448,12.544l-.853-2.052-1.5,1.4q-3.315-3.151-6.634-6.3l-.271,1.315c-4.973-2.776-5.238-8.944-8.592-14.58-3.829-6.447,4.924-17.029,11.73-24.674,5.671-6.372,9.749-12.838,18.512-12.764C-955.418,324.572-957.806,332.431-957.909,336.347Z" transform="translate(1149.802 -273.31)" fill="#84402d"/>
  </g>
</svg>
