<svg xmlns="http://www.w3.org/2000/svg" width="322.304" height="401.72" viewBox="0 0 322.304 401.72">
  <g id="Group_1176" data-name="Group 1176" transform="translate(0 -0.006)">
    <path id="Path_2943" data-name="Path 2943" d="M-844.508,549.049q.678,5.438,1.357,10.873a15.362,15.362,0,0,1-3.4,1.528,15.844,15.844,0,0,1-3.907.679c-3.451.242-4.146.956-9.684,2.039-1.932.378-4.711.853-8.156,1.189q-.6-1.187-1.189-2.378a45.249,45.249,0,0,0,4.246-1.7c4.01-1.842,8.143-3.742,11.045-7.816a17.358,17.358,0,0,0,2.611-5.613Z" transform="translate(1041.386 -166.671)" fill="#6b4331"/>
    <path id="Path_2944" data-name="Path 2944" d="M-845.658,491.594q1.909,7.217,3.658,14.7a518.014,518.014,0,0,1,11.865,76.314A365.518,365.518,0,0,1-819.3,636.086a364.627,364.627,0,0,1,2.837,41.464,13.9,13.9,0,0,1-5.774,2.081,13.949,13.949,0,0,1-6.285-.662q-7.435-32.412-16.835-66.649c-11.113-40.23-23.266-77.953-35.907-113.08Q-863.463,495.415-845.658,491.594Z" transform="translate(1015.105 -292.204)" fill="#25394d"/>
    <path id="Path_2945" data-name="Path 2945" d="M-862.241,551.214l-1.774,11.749a24.492,24.492,0,0,1-5.1,1.328,32.931,32.931,0,0,1-5.1.223c-4.55.081-5.248.7-11.087,1.108-1.331.094-3.318.2-5.761.223-.3-.814-.591-1.629-.888-2.44a43.2,43.2,0,0,0,7.981-2.217A31.432,31.432,0,0,0-872,553.872,26.957,26.957,0,0,0-868.225,549Q-865.234,550.1-862.241,551.214Z" transform="translate(991.263 -164.119)" fill="#6b4331"/>
    <path id="Path_2946" data-name="Path 2946" d="M-782.383,462.9c-3.729.233-7.619.569-11.655,1.04-4.889.569-9.536,1.276-13.921,2.078q-9.786-.572-20.073-1.732a371.048,371.048,0,0,1-83.853-19.743,11.368,11.368,0,0,0-1.942,4.155,12.049,12.049,0,0,0,.323,6.582,203.19,203.19,0,0,0,26.872,15.239,203.462,203.462,0,0,0,89.032,19.05Q-789.989,476.235-782.383,462.9Z" transform="translate(941.738 -397.188)" fill="#f5678b"/>
    <path id="Path_2947" data-name="Path 2947" d="M-894.328,463.926a10.827,10.827,0,0,0-1.593-.969,11.729,11.729,0,0,0-3.774-1.076c-2.175-.349-5.422-1.034-10.625-2.4-6.592-.006-7.985-.375-7.956-.724.036-.481,2.714-1.134,3.952-1.37a16.772,16.772,0,0,1,4.414-.271,11.953,11.953,0,0,0-4.181-1.655c-2.53-.472-4.627-.006-6.094-1.509a3.834,3.834,0,0,1-.753-1.108c-.976.045-1.7-.149-1.742-.533-.068-.549,1.26-1.322,1.571-1.5a9.287,9.287,0,0,1,5.461-1.034c3.08.152,5.674.349,7.723.53a12.38,12.38,0,0,0-1.971-1.435c-3.742-2.2-7.487-1.784-7.432-2.524.036-.433,1.357-1.037,2.676-1.273,3-.536,4.753,1.06,8.01,2.427a25.6,25.6,0,0,0,6.327,1.706,5.333,5.333,0,0,0-.226-2.32c-.462-1.309-1.2-1.376-1.913-2.682s-1.086-3.277-.4-3.878a1.516,1.516,0,0,1,1.625.081,3.037,3.037,0,0,1,1.1,2.11c.514,2.02,2.171,2.646,3.419,3.726,1.3,1.128,2.8,3.3,3.357,7.917l1.793,1.231a19.3,19.3,0,0,1-.885,4.433,19.423,19.423,0,0,1-1.883,4.1Z" transform="translate(922.682 -407.057)" fill="#fcb6a1"/>
    <path id="Path_2948" data-name="Path 2948" d="M-865.832,450.959a32.534,32.534,0,0,1,14.886,5.826,31.97,31.97,0,0,1,7.39,7.477c5.393,4.782,11.148,9.568,17.294,14.3a328.427,328.427,0,0,0,75.4,43.387,11.351,11.351,0,0,1-1.367,4.378,12,12,0,0,1-4.679,4.64,202.96,202.96,0,0,1-30.116-6.873A203.488,203.488,0,0,1-865.6,478.108Q-865.719,464.537-865.832,450.959Z" transform="translate(1049.532 -382.874)" fill="#f5678b"/>
    <path id="Path_2949" data-name="Path 2949" d="M-831.893,484.215a10.81,10.81,0,0,1,1.829.359,11.7,11.7,0,0,1,3.513,1.751c1.842,1.208,4.7,2.892,9.461,5.4,4.87,4.44,6.146,5.105,6.362,4.828.3-.375-1.241-2.666-1.994-3.674A16.6,16.6,0,0,0-815.8,489.7a11.831,11.831,0,0,1,4.2,1.6c2.188,1.357,3.422,3.118,5.519,3a3.949,3.949,0,0,0,1.305-.31c.688.691,1.351,1.034,1.645.782.42-.362-.042-1.826-.149-2.168a9.255,9.255,0,0,0-3.335-4.446c-2.375-1.965-4.424-3.571-6.059-4.818a12.5,12.5,0,0,1,2.427.268c4.246.9,6.731,3.736,7.186,3.151.265-.343-.3-1.68-1.115-2.743-1.854-2.42-4.226-2.423-7.551-3.613a25.413,25.413,0,0,1-5.823-3.008,5.321,5.321,0,0,1,1.732-1.558c1.225-.656,1.813-.21,3.221-.691s3.012-1.687,2.911-2.591c-.062-.556-.75-.934-1.254-1.037a3.023,3.023,0,0,0-2.239.818c-1.742,1.141-3.386.485-5.038.443-1.722-.049-4.291.549-7.816,3.58l-2.156-.3a19.556,19.556,0,0,0-2.336,3.874,19.551,19.551,0,0,0-1.368,4.282Z" transform="translate(1125.261 -337.104)" fill="#fcb6a1"/>
    <path id="Path_2950" data-name="Path 2950" d="M-848.266,528.06l-12.3-.517a68.5,68.5,0,0,1-12.211-12.9,68.458,68.458,0,0,1-8.569-15.846q-.209-3.693-.411-7.393,13.664.548,27.424,1.16,16.572.737,32.989,1.557-.126,4.028-.258,8.053Q-834.931,515.117-848.266,528.06Z" transform="translate(1014.01 -292.634)" fill="#2c445c"/>
    <path id="Path_2951" data-name="Path 2951" d="M-813.241,493.014a50.991,50.991,0,0,1,.339,15.969,51.166,51.166,0,0,1-3.057,11.555c-6.078,16.14-3.988,15.733-11.9,37.037-3.4,9.174-7.878,20.267-13.688,32.672a365.09,365.09,0,0,1-15.75,52.244,365.21,365.21,0,0,1-17.119,37.871,13.939,13.939,0,0,1-6.072-.9,13.949,13.949,0,0,1-5.222-3.561c5.878-21.291,11.491-43.529,16.7-66.682,8.867-39.419,15.578-77.07,20.619-112.579Q-830.815,494.828-813.241,493.014Z" transform="translate(1005.192 -289.035)" fill="#2c445c"/>
    <path id="Path_2952" data-name="Path 2952" d="M-814.8,458.783a54.7,54.7,0,0,0-21.233-8.243c-19.023-3.025-33.845,5.206-38.446,8.01q-1.687,21.084-3.115,42.566-3.02,45.358-4.676,89.13c2.672.84,5.577,1.635,8.7,2.323,0,0,4.957,1.089,10,1.683,6.75.795,24.365-.084,47.1-5.587q-.4-7.227-.691-14.548A957.236,957.236,0,0,1-814.8,458.783Z" transform="translate(1012.858 -385.276)" fill="#f5678b"/>
    <path id="Path_2953" data-name="Path 2953" d="M-846.7,452.422a47.342,47.342,0,0,1-10.779,14.938c-3.923,3.629-8.508,7.872-12.082,6.753-4.317-1.354-6.347-10.3-5.07-21.86a35.05,35.05,0,0,1,13.513-2.818A35.161,35.161,0,0,1-846.7,452.422Z" transform="translate(1029.065 -386.273)" fill="#d64d70"/>
    <path id="Path_2954" data-name="Path 2954" d="M-853.073,464.882q1.052-10.455,2.107-20.913l-22.887,3.509a114.826,114.826,0,0,0,.258,18.962c.782,8.123,1.257,12.537,3.638,13.507C-865.129,481.911-855.544,468.45-853.073,464.882Z" transform="translate(1031.025 -398.471)" fill="#f7a88f"/>
    <path id="Path_2955" data-name="Path 2955" d="M-874.766,438.157a132.808,132.808,0,0,0-2.5,19.973c-.194,4.007-.2,7.8-.064,11.355a22.348,22.348,0,0,0,4.246,8.195,23.777,23.777,0,0,0,10.372,7.225,33.819,33.819,0,0,0,12.053-4.388,32.667,32.667,0,0,0,10.919-10.754,82.558,82.558,0,0,0,1.59-10.754,83.131,83.131,0,0,0-.908-20.632,33.262,33.262,0,0,0-12.735-4.828A35.284,35.284,0,0,0-874.766,438.157Z" transform="translate(1023.669 -422.587)" fill="#fcb6a1"/>
    <path id="Path_2956" data-name="Path 2956" d="M-838.745,463.05a14.772,14.772,0,0,1-3.506-4.8,16.046,16.046,0,0,1-.259-11.82c-3.412.388-8.333.866-14.289,1.17-17.685.9-19.637-1.021-20.26-2.207-1.3-2.475.785-6.32,2.6-8.443,8.046-9.413,32.559-10.35,39.871,2.986,5.218,9.516-1.047,21.327-1.816,22.729Q-837.574,462.854-838.745,463.05Z" transform="translate(1023.579 -429.889)" fill="#45282e"/>
    <path id="Path_2957" data-name="Path 2957" d="M-865.164,440.7a5.492,5.492,0,0,1,5.542-.171,5.625,5.625,0,0,1,2.424,5.538c-.43,3.193-4,6.007-8.831,6.236Q-865.6,446.507-865.164,440.7Z" transform="translate(1049.091 -407.631)" fill="#fcb6a1"/>
  </g>
</svg>
