<svg xmlns="http://www.w3.org/2000/svg" width="466.715" height="470.529" viewBox="0 0 466.715 470.529">
  <g id="Group_1171" data-name="Group 1171" transform="translate(-0.004 0.003)">
    <g id="Group_1166" data-name="Group 1166" transform="translate(158.366 133.784)">
      <path id="Path_2818" data-name="Path 2818" d="M-1243.26,322.249a4.137,4.137,0,0,1,5.658.776q16.267,18.671,33.015,36.915t33.962,36.045c3.687,3.813,7.312,7.529,10.931,11.209a42.849,42.849,0,0,1-6.194,5.125q-3.373-3.437-6.731-6.879-17.275-17.74-34.084-35.929-16.876-18.263-33.273-36.96-2.031-2.317-4.055-4.643a4.061,4.061,0,0,1,.771-5.659Z" transform="translate(1285.853 -236.786)" fill="#9a9b9a"/>
      <path id="Path_2819" data-name="Path 2819" d="M-1233.86,476.567l18.632-.4a9.751,9.751,0,0,1,.866-2.74l-19.43-14.825a2.233,2.233,0,0,1-.1-3.134,2.264,2.264,0,0,1,3.134-.1l19.159,14.618a9.327,9.327,0,0,1,2.023-1.215,217.832,217.832,0,0,1,2.608-24.222c.462-2.818,4.786-1.826,4.324.982a209.191,209.191,0,0,0-2.466,22.548,10.419,10.419,0,0,1,2.087.41q22.912-21.773,45.814-43.545,25.888-24.6,51.769-49.207,14.547-13.824,29.092-27.651a3.635,3.635,0,0,1,5.018-.165,3.581,3.581,0,0,1,.162,5.015l-51.766,49.207q-25.883,24.6-51.769,49.207l-22.6,21.475c.055.091.11.181.162.275a3.871,3.871,0,0,1,.426,2.663l24.242-.53c2.853-.061,3.057,4.372.2,4.433q-12.558.271-25.117.546c-.042.171-.094.339-.142.5l22.018,16.8a2.236,2.236,0,0,1,.1,3.131,2.268,2.268,0,0,1-3.137.1l-21.366-16.3a8.974,8.974,0,0,1-5.4,2.327q.315,9.3,1.438,18.561c.345,2.837-4.091,3.018-4.43.2q-1.183-9.713-1.464-19.5a9.408,9.408,0,0,1-1.784-.979l-17.2,15.158a2.286,2.286,0,0,1-3.135.1,2.232,2.232,0,0,1-.1-3.134q8.783-7.746,17.572-15.488a8.526,8.526,0,0,1-.452-1.108q-9.4.2-18.794.41C-1236.51,481.062-1236.72,476.631-1233.86,476.567Z" transform="translate(1305.833 -179.827)" fill="#9a9b9a"/>
      <path id="Path_2820" data-name="Path 2820" d="M-1237.6,385.611c3.859,10.079,10.328,18.945,19.495,23.553,9.791,4.925,20.764,5.18,31.334,5.3q18.506.2,37.018-.058,37.162-.519,74.282-2.918c11.872-.766,23.828-1.37,35.648-2.847,10.667-1.331,21.249-4.217,29.689-11.9,17.407-15.846,20.467-41.881,22.6-65.092.145-1.583-.459-3.125-2-3.516a2.092,2.092,0,0,0-.288-.045,2.6,2.6,0,0,0-.627-.058l-54.872,1.4-96.762,2.459q-48.673,1.241-97.35,2.478c-1.913.048-2.682,1.9-2.391,3.506a3.868,3.868,0,0,0-.313,1.4c-.113,3.235-.23,6.472-.288,9.707C-1242.65,361.328-1242.01,374.1-1237.6,385.611Z" transform="translate(1291.188 -222.138)" fill="#5f8fb7"/>
      <path id="Path_2821" data-name="Path 2821" d="M-1203.53,298.522c25.557-8.973,97.47,2.6,109.358,10.127s43.684,84.5,43.684,89.711,1.961,16.37-4.159,21.068-130.255,4.7-133.228.352S-1229.08,307.492-1203.53,298.522Z" transform="translate(1358.542 -295.258)" fill="#a36361"/>
      <g id="Group_1162" data-name="Group 1162" transform="translate(77.993 278.408)">
        <path id="Path_2822" data-name="Path 2822" d="M-1218.14,381.491l.006.01-.081-.084Z" transform="translate(1267.317 -381.417)" fill="#2100a7"/>
        <path id="Path_2823" data-name="Path 2823" d="M-1230.08,393.793l-.013-.01q-.31-.286-.63-.562C-1230.8,393.134-1230.67,393.237-1230.08,393.793Z" transform="translate(1239.345 -355.14)" fill="#2100a7"/>
        <path id="Path_2824" data-name="Path 2824" d="M-1233.06,390.547a3.661,3.661,0,0,0-.346-.672l-.006-.016a1.286,1.286,0,0,1,.352.688Z" transform="translate(1233.408 -362.58)" fill="#2100a7"/>
      </g>
      <path id="Path_2825" data-name="Path 2825" d="M-1238.21,416.143c.892,10.159,3.913,20.018,10.557,26.894,8.285,8.569,21.465,12.919,34.594,12.269,22.28-1.1,35.674-22.487,34.721-43.949-1.018-22.887-18.483-37.994-40.88-36.882C-1221.5,375.58-1240.2,393.575-1238.21,416.143Zm41.561-28.016c13.449,0,23.731,11.242,23.469,26.119-.259,14.635-9.3,28.035-24.5,28.035-15.123,0-29.437-12.686-27.385-29.211,1.8-14.525,13.215-24.943,28.415-24.943Z" transform="translate(1300.36 -118.628)" fill="#0b4875"/>
      <path id="Path_2826" data-name="Path 2826" d="M-1066.08,476.567l-18.632-.4a9.86,9.86,0,0,0-.866-2.74l19.426-14.825a2.233,2.233,0,0,0,.1-3.134,2.265,2.265,0,0,0-3.135-.1l-19.158,14.618a9.3,9.3,0,0,0-2.026-1.215,217.093,217.093,0,0,0-2.6-24.222c-.462-2.818-4.786-1.826-4.323.982a209.191,209.191,0,0,1,2.465,22.548,10.5,10.5,0,0,0-2.091.41l-45.811-43.545q-25.887-24.6-51.769-49.207l-29.1-27.651a3.631,3.631,0,0,0-5.015-.165,3.585,3.585,0,0,0-.164,5.015q25.887,24.6,51.769,49.207t51.769,49.207q11.3,10.736,22.593,21.475c-.052.091-.11.181-.161.275a3.892,3.892,0,0,0-.424,2.663l-24.241-.53c-2.853-.061-3.057,4.372-.2,4.433l25.117.546c.042.171.091.339.142.5l-22.018,16.8a2.232,2.232,0,0,0-.1,3.131,2.265,2.265,0,0,0,3.134.1l21.368-16.3a8.976,8.976,0,0,0,5.4,2.327q-.315,9.3-1.438,18.561c-.346,2.837,4.088,3.018,4.43.2q1.183-9.713,1.464-19.5a9.435,9.435,0,0,0,1.784-.979l17.2,15.158a2.285,2.285,0,0,0,3.134.1,2.232,2.232,0,0,0,.1-3.134q-8.783-7.746-17.572-15.488a9.035,9.035,0,0,0,.453-1.108q9.4.2,18.793.41C-1063.42,481.062-1063.22,476.631-1066.08,476.567Z" transform="translate(1319.637 -179.827)" fill="#b7b7b7"/>
      <g id="Group_1163" data-name="Group 1163" transform="translate(198.353 278.408)">
        <path id="Path_2827" data-name="Path 2827" d="M-1196.15,381.491l-.007.01.081-.084Z" transform="translate(1196.16 -381.417)" fill="#2100a7"/>
        <path id="Path_2828" data-name="Path 2828" d="M-1183.8,393.793l.013-.01c.2-.191.417-.378.63-.562C-1183.08,393.134-1183.22,393.237-1183.8,393.793Z" transform="translate(1223.73 -355.14)" fill="#2100a7"/>
        <path id="Path_2829" data-name="Path 2829" d="M-1181.05,390.547a3.449,3.449,0,0,1,.346-.672l.006-.016a1.265,1.265,0,0,0-.352.688Z" transform="translate(1229.882 -362.58)" fill="#2100a7"/>
      </g>
      <path id="Path_2830" data-name="Path 2830" d="M-1159.84,374.475c-22.4-1.112-39.862,13.995-40.88,36.882-.953,21.463,12.441,42.847,34.721,43.949,13.129.649,26.31-3.7,34.592-12.269,6.647-6.876,9.668-16.735,10.56-26.894C-1118.86,393.575-1137.56,375.58-1159.84,374.475Zm25.844,38.6c2.052,16.525-12.263,29.211-27.385,29.211-15.2,0-24.238-13.4-24.5-28.035-.262-14.877,10.02-26.119,23.469-26.119,15.2-.005,26.612,10.413,28.412,24.938Z" transform="translate(1384.231 -118.628)" fill="#0b4875"/>
      <path id="Path_2831" data-name="Path 2831" d="M-1245.76,325.657a4.137,4.137,0,0,1,5.658.772q16.267,18.676,33.011,36.918,15.118,16.465,30.623,32.568-2.584,3.088-5.325,6.036-13.857-14.376-27.411-29.033-16.877-18.263-33.273-36.96-2.036-2.317-4.059-4.643a4.064,4.064,0,0,1,.776-5.658Z" transform="translate(1280.285 -229.185)" fill="#b7b7b7"/>
      <g id="Group_1165" data-name="Group 1165" transform="translate(0 55.532)">
        <g id="Group_1164" data-name="Group 1164">
          <path id="Path_2832" data-name="Path 2832" d="M-1223.02,360.7c2.653,2.265,7.9-4.146,6.447-5.687-2.006-2.126-28.516-30.5-29.841-32.022s2.834-2.3,5.991.659c0,0,24.435,25.288,26.52,27.282s7.994-4.2,6.5-6.333-26.907-27.179-26.907-27.179c-3.8-3.732-7.539-5.212-12.276-4.944-5.719.326-15.313,5.975-8.753,13.9C-1250.99,331.626-1224.54,359.4-1223.02,360.7Z" transform="translate(1257.544 -312.444)" fill="#0b4875"/>
        </g>
      </g>
      <path id="Path_2833" data-name="Path 2833" d="M-1208.43,378.374c2.194.165,10.541-7.238,10.647-9.813s-21.669-25.1-23.55-25.553-10.421,8-10.647,9.814S-1210.62,378.206-1208.43,378.374Z" transform="translate(1314.595 -188.753)" fill="#0b4875"/>
    </g>
    <path id="Path_2834" data-name="Path 2834" d="M-1226.64,323.2c-1.322-3.3-21.953-12.476-26.729-16.845-1.011-.927-10.043,11.743-8.282,13.53,2.317,2.352,9.655,7.144,11.251,9.4,1.325,1.874,3.125,3.351,5.419,3.435.042.055.084.113.132.168a11.722,11.722,0,0,0,9.642,4.1,10.265,10.265,0,0,0,7.952-4.9,10.264,10.264,0,0,0,.615-8.883Z" transform="translate(1406.249 -136.818)" fill="#f4884d"/>
    <path id="Path_2835" data-name="Path 2835" d="M-1261.45,297.948c10.77,15.194,27.308,25.615,28.326,27.457s-8.066,13.216-9.642,13.543-21.01-8.786-26.206-17.944S-1262.92,295.886-1261.45,297.948Z" transform="translate(1387.37 -155.878)" fill="#a36361"/>
    <path id="Path_2836" data-name="Path 2836" d="M-1227.06,317.624c-2.13-2.843-23.033-6.427-28.775-9.413-1.215-.633-10.033,13.694-7.872,14.968,2.847,1.674,8.344,2.22,13.876,6.689a10.213,10.213,0,0,0,7.512,1.693,1.534,1.534,0,0,0,.171.129,11.715,11.715,0,0,0,10.373,1.467,10.28,10.28,0,0,0,6.417-6.792,10.281,10.281,0,0,0-1.7-8.741Z" transform="translate(1401.392 -132.617)" fill="#fdb688"/>
    <g id="Group_1167" data-name="Group 1167" transform="translate(0 392.323)">
      <path id="Path_2837" data-name="Path 2837" d="M-1291.4,375.268s-3.881,6.175-7.493,7.956,3.448,17.475,5.325,15.73c2.928-2.718,11.1-7.429,11.1-7.429Z" transform="translate(1321.381 -375.268)" fill="#ffb78a"/>
      <path id="Path_2838" data-name="Path 2838" d="M-1306.35,378.734c-.427.817-.278,4.033,1.509,9.083.692,1.952,1.667,3.638,2.449,5.509a18.868,18.868,0,0,1,.989,6.466,25.75,25.75,0,0,0,3.193,10.886,29.2,29.2,0,0,0,6.44,8.2c1.825,1.545,8.023,6.366,11.471,1.625.979-1.344-15.42-40.023-18.848-42.259C-1302.11,376.314-1305.94,377.93-1306.35,378.734Z" transform="translate(1306.554 -370.659)" fill="#efece6"/>
      <path id="Path_2839" data-name="Path 2839" d="M-1302.29,392.383a17.9,17.9,0,0,1,.743,6.411,25.712,25.712,0,0,0,2.824,10.993,32.472,32.472,0,0,0,6.288,8.809c1.816,1.742,5.212,3.907,7.29,1.842,1.118-1.115.52-2.633.094-4.049a27.769,27.769,0,0,1-1.066-5.674,27.112,27.112,0,0,1,1.26-10.9c.517-1.515,1.5-3.054,1.393-4.786-.123-1.91-1.512-3.248-2.475-4.692a18.788,18.788,0,0,1-3.051-11.319.813.813,0,0,0,.048-.71.813.813,0,0,0-.529-.476,41.057,41.057,0,0,0-14.512.372C-1305.32,378.53-1303.01,390.464-1302.29,392.383Z" transform="translate(1311.38 -370.617)" fill="#84421e"/>
    </g>
    <g id="Group_1168" data-name="Group 1168" transform="translate(123.384 433.373)">
      <path id="Path_2840" data-name="Path 2840" d="M-1267.68,393.026s1.49,5.829,2.637,9.691,16.745-.317,15.986-2.763-1.784-11.982-1.784-11.982Z" transform="translate(1269.908 -387.972)" fill="#ffb78a"/>
      <path id="Path_2841" data-name="Path 2841" d="M-1267.56,412.234c.734.556,3.929.953,9.209.042,2.039-.352,3.868-1.031,5.842-1.486a18.874,18.874,0,0,1,6.54.113,25.742,25.742,0,0,0,11.267-1.312,29.09,29.09,0,0,0,9.164-4.97c1.832-1.538,7.626-6.834,3.538-11.032-1.163-1.192-42.053,8.46-44.834,11.465C-1269.23,407.642-1268.29,411.688-1267.56,412.234Z" transform="translate(1268.37 -375.665)" fill="#efece6"/>
      <path id="Path_2842" data-name="Path 2842" d="M-1253.59,409.812a17.889,17.889,0,0,1,6.446.346,25.6,25.6,0,0,0,11.31-.934,32.328,32.328,0,0,0,9.742-4.714c2.023-1.493,4.731-4.479,3.044-6.873-.908-1.293-2.507-.956-3.975-.776a28,28,0,0,1-5.771.1,27.05,27.05,0,0,1-10.538-3.079c-1.405-.766-2.756-2-4.482-2.178-1.9-.2-3.457.944-5.044,1.651a18.8,18.8,0,0,1-11.671,1.1.811.811,0,0,0-.691-.166.811.811,0,0,0-.557.441,41.151,41.151,0,0,0-2.081,14.37C-1267.76,410.477-1255.61,410.2-1253.59,409.812Z" transform="translate(1269.395 -379.705)" fill="#84421e"/>
    </g>
    <path id="Path_2843" data-name="Path 2843" d="M-1264.63,305.027c23.007,8.246,46.789,19.5,75.468,19.743-2.562,15.016-5.587,21.582-9.768,33,0,0,18.27,66.291,15.617,98.216-4.566,54.913,3.655,120.2,2.019,122.978s-16.939,5.732-18.79,4.76S-1221.4,509.7-1221.4,509.7s-62.588,41.464-65.822,41.59c-5.681.223-11.41-14.292-11.045-17.155s27.883-29.812,35.131-37.209c22.6-23.062,38.727-27.246,38.482-35.089-.22-7.064-31.438-48.076-46.748-87.5C-1279.35,353.865-1271.39,329.123-1264.63,305.027Z" transform="translate(1325.009 -139.676)" fill="#5f8fb7"/>
    <path id="Path_2844" data-name="Path 2844" d="M-1247.97,273.342s-11.306,2.6-20.386,15.591c-17.811,25.5-8.585,49.607-21.669,94.733-1.958,6.753,80.589,22.9,82.926,13.985,3.958-15.1,4.327-47.2,5.648-51.8s8.647-9.707,7.833-19.417c-.75-8.909-15.8-32.132-26.558-41.671C-1229.6,276.421-1247.97,273.342-1247.97,273.342Z" transform="translate(1343.344 -210.376)" fill="#a36361"/>
    <path id="Path_2845" data-name="Path 2845" d="M-1279.26,288.719c-1.364,1.422-2.459,3.251-1.292,5.151,1.448,2.359,4.307,2.285,6.747,1.855a3.953,3.953,0,0,0,.824,5.138,3.909,3.909,0,0,0,4.822-.284c-.149,1.583.288,3.063,2.155,3.571,1.984.54,3.706-.556,5.167-1.793a3.128,3.128,0,0,0,2.559,2.779c2.168.423,3.974-.927,5.464-2.356a4.624,4.624,0,0,0,3.89,3.984,7.943,7.943,0,0,0,4.967-.9A5.059,5.059,0,0,0-1241,308a5.271,5.271,0,0,0,5.19-1.684,2.751,2.751,0,0,0,2.484,2.055c1.945.142,3.354-1.25,4.346-2.763a3.527,3.527,0,0,0,3.121,2.327,3.508,3.508,0,0,0,3.154-1.864,2.222,2.222,0,0,0,2.943.446c1.674-1.06,1.755-3.267,1.913-5.034a83.5,83.5,0,0,0-1.5-25.557,71.466,71.466,0,0,0-3.874-12.25c-1.076-2.559-2.921-6.007-6.017-5.79a8.456,8.456,0,0,0-5.031-3.606c-2.96-.821-6.091-.307-9.044.275-10.738,2.1-21.492,5.965-29.67,13.478a36.835,36.835,0,0,0-8.7,11.74c-.947,2.078-1.99,4.831-.714,7.006a3.856,3.856,0,0,0,3.143,1.94Z" transform="translate(1359.117 -253.856)" fill="#e58d5c"/>
    <path id="Path_2846" data-name="Path 2846" d="M-1276.99,312.508c-.511,1.625,29.864,27.883,28.083,17.478s2.766-29.544,4.052-31.987c1.305-2.478,7.128-6.246,8.117-8.747s-.061-10.854-.061-10.854,3.745,2.549,4.421.41c.326-1.031-2.818-4.569-3.526-5.719-1.657-2.692-1.958-5.629-2.579-8.657-.452-2.22-3.884-8.224-4.252-8.243-2.116-.107-9.836,12.667-19.478,15.714-1.587-1.011-3.519-1.958-5.322-.892-1.919,1.134-1.341,3.629-.84,5.393.54,1.9,1.641,3.858,3.661,4.469C-1264.5,280.938-1275.47,307.69-1276.99,312.508Z" transform="translate(1372.516 -248.65)" fill="#ffb78a"/>
    <path id="Path_2847" data-name="Path 2847" d="M-1273.31,266.39c.32.7.866,1.535,1.741,1.509.966-.029,1.529-1.06,1.761-1.874a3.908,3.908,0,0,0-.152-2.588c-.372-1.348-1.208-2.617-2.608-2.262C-1274.73,261.727-1273.94,265-1273.31,266.39Z" transform="translate(1379.221 -237.66)" fill="#f4884d"/>
    <g id="Group_1169" data-name="Group 1169" transform="translate(78.623 3.686)">
      <path id="Path_2848" data-name="Path 2848" d="M-1272.58,269.961c3.693-.859,6.618-3.4,9.351-5.887,2.966-2.7,5.829-5.509,8.7-8.317.333-.326.782.246.452.569-3.027,2.966-6.052,5.936-9.2,8.773-2.689,2.427-5.587,4.744-9.187,5.581C-1272.92,270.785-1273.03,270.065-1272.58,269.961Z" transform="translate(1303.092 -253.519)" fill="#bc6337"/>
      <path id="Path_2849" data-name="Path 2849" d="M-1280.62,280.648a110.154,110.154,0,0,1,13.155-10.864c4.443-2.96,9.387-4.928,14.063-7.458a31.806,31.806,0,0,0,7.313-5.228c.333-.33.782.242.453.569-3.687,3.648-8.408,5.868-13.023,8.1a72.625,72.625,0,0,0-7.254,3.878,66.724,66.724,0,0,0-6.993,5.144c-2.492,2.065-4.879,4.249-7.264,6.434C-1280.51,281.534-1280.96,280.965-1280.62,280.648Z" transform="translate(1285.527 -250.528)" fill="#bc6337"/>
      <path id="Path_2850" data-name="Path 2850" d="M-1279.37,275.918A80.068,80.068,0,0,1-1250.89,258a80.285,80.285,0,0,1,9.006-2.685c.455-.107.565.611.113.717a79.437,79.437,0,0,0-30.009,14.253,79.838,79.838,0,0,0-7.138,6.2C-1279.25,276.813-1279.7,276.242-1279.37,275.918Z" transform="translate(1288.328 -254.309)" fill="#bc6337"/>
      <path id="Path_2851" data-name="Path 2851" d="M-1282.15,279.653a60.086,60.086,0,0,1,29.91-22.209A58.169,58.169,0,0,1-1241.91,255a.363.363,0,0,1,.415.3.363.363,0,0,1-.3.415,59.374,59.374,0,0,0-32.927,16.3,57.681,57.681,0,0,0-6.847,8.065C-1281.84,280.471-1282.42,280.037-1282.15,279.653Z" transform="translate(1282.222 -254.997)" fill="#bc6337"/>
      <path id="Path_2852" data-name="Path 2852" d="M-1280.91,275.766l18.451-14.056c.372-.284.827.284.456.569l-18.454,14.053C-1280.83,276.616-1281.29,276.047-1280.91,275.766Z" transform="translate(1284.829 -240.191)" fill="#bc6337"/>
      <path id="Path_2853" data-name="Path 2853" d="M-1279.48,275.4a103.6,103.6,0,0,1,14.9-12.344c.385-.262.84.307.452.569a103.593,103.593,0,0,0-14.9,12.344C-1279.36,276.293-1279.81,275.721-1279.48,275.4Z" transform="translate(1288.078 -237.174)" fill="#bc6337"/>
      <path id="Path_2854" data-name="Path 2854" d="M-1278.6,276.946a36.392,36.392,0,0,0,13.4-13.022c.24-.4.821.036.582.436a37.1,37.1,0,0,1-13.685,13.248C-1278.71,277.838-1279,277.172-1278.6,276.946Z" transform="translate(1289.875 -235.432)" fill="#bc6337"/>
      <path id="Path_2855" data-name="Path 2855" d="M-1277.41,276.556a31.559,31.559,0,0,0,9.636-11.226c.21-.414.889-.145.675.272a32.339,32.339,0,0,1-9.859,11.523C-1277.34,277.4-1277.8,276.831-1277.41,276.556Z" transform="translate(1292.631 -232.399)" fill="#bc6337"/>
      <path id="Path_2856" data-name="Path 2856" d="M-1265.78,255.588a26.971,26.971,0,0,1,7.807,17.3c.029.465-.688.582-.717.113a26.359,26.359,0,0,0-7.658-16.965C-1266.68,255.707-1266.11,255.258-1265.78,255.588Z" transform="translate(1317.417 -253.935)" fill="#bc6337"/>
      <path id="Path_2857" data-name="Path 2857" d="M-1263.92,281.372a39.05,39.05,0,0,0,.394-16.835c-.09-.462.627-.572.718-.113a39.53,39.53,0,0,1-.388,17.029C-1263.3,281.9-1264.03,281.824-1263.92,281.372Z" transform="translate(1323.047 -234.617)" fill="#bc6337"/>
      <path id="Path_2858" data-name="Path 2858" d="M-1264.93,276.129A33.54,33.54,0,0,0-1263.2,267c.026-.469.746-.385.724.081a34.325,34.325,0,0,1-1.787,9.316C-1264.41,276.84-1265.08,276.572-1264.93,276.129Z" transform="translate(1320.759 -228.902)" fill="#bc6337"/>
      <path id="Path_2859" data-name="Path 2859" d="M-1265.85,273.638l.8-5.484c.068-.462.788-.381.724.081l-.8,5.484C-1265.19,274.181-1265.92,274.1-1265.85,273.638Z" transform="translate(1318.745 -226.327)" fill="#bc6337"/>
    </g>
    <path id="Path_2860" data-name="Path 2860" d="M-1248.78,298.9c-3.069,27.017-6.967,44.179-3.486,53.223s45.878,27.389,46.764,29.3-5.342,17.049-7.458,17.924-57.153-15.523-66.326-34.246-7.72-54.716-1-75.7C-1273.25,267.479-1245.7,271.883-1248.78,298.9Z" transform="translate(1352.995 -205.718)" fill="#a36361"/>
    <g id="Group_1170" data-name="Group 1170" transform="translate(158.847 190.19)">
      <path id="Path_2861" data-name="Path 2861" d="M-1224.04,360.489c2.585,2.343,8.02-3.913,6.611-5.5-1.942-2.184-27.609-31.328-28.888-32.885-.3-.372-.3-.691-.074-.921,4-3.315-.553-11.694-7.17-7.154-3.522,2.349-5.619,6.266-1.774,11.2C-1251.15,330.606-1225.53,359.145-1224.04,360.489Z" transform="translate(1257.396 -312.714)"/>
    </g>
  </g>
</svg>
