<svg xmlns="http://www.w3.org/2000/svg" width="207.936" height="401.682" viewBox="0 0 207.936 401.682">
  <g id="Group_1179" data-name="Group 1179" transform="translate(0.005 -0.001)">
    <path id="Path_2981" data-name="Path 2981" d="M-542.155,453.777a16.535,16.535,0,0,0-8.8,2.314c-5.574,3.467-7.258,9.907-7.868,12.037-2.585,8.973-10.327,25.314-25,51.85q-7.6,10.877-16.205,22.222-8.865,11.657-17.591,22.148a10.08,10.08,0,0,0,3.474,5.555,10.2,10.2,0,0,0,7.406,2.081c6.314-6.091,12.757-12.767,19.214-20.06A354.061,354.061,0,0,0-550.023,501Q-546.092,477.387-542.155,453.777Z" transform="translate(632.393 -376.588)" fill="#fae3bb"/>
    <path id="Path_2982" data-name="Path 2982" d="M-551.031,490.3a13.576,13.576,0,0,0,.346,3.655,14.855,14.855,0,0,0,1.444,3.713c1.05,1.974,2.485,5.025,4.569,10.069,4.036,5.338,4.589,6.692,4.288,6.886-.411.265-2.582-1.506-3.529-2.359a17.059,17.059,0,0,1-2.924-3.409,12.09,12.09,0,0,0,1.221,4.4c1.17,2.336,2.831,3.752,2.514,5.859a3.959,3.959,0,0,1-.436,1.289c.633.763.918,1.464.637,1.738-.4.388-1.842-.213-2.178-.352A9.419,9.419,0,0,1-549.263,518c-1.764-2.585-3.2-4.808-4.3-6.579a12.616,12.616,0,0,0,.045,2.479c.51,4.378,3.144,7.154,2.511,7.561-.368.236-1.671-.465-2.669-1.386-2.272-2.1-2.055-4.5-2.947-7.968a25.74,25.74,0,0,0-2.495-6.169,5.339,5.339,0,0,0-1.738,1.606c-.776,1.173-.381,1.813-1,3.189-.624,1.393-1.987,2.889-2.9,2.7-.553-.113-.873-.843-.931-1.364a3.083,3.083,0,0,1,1.037-2.188c1.315-1.654.808-3.377.918-5.05.113-1.748.956-4.288,4.353-7.568q-.548-2.506-1.1-5.008a11.713,11.713,0,0,1,4.779-1.981A13.111,13.111,0,0,1-551.031,490.3Z" transform="translate(748.246 -295.582)" fill="#fcb6a1"/>
    <path id="Path_2983" data-name="Path 2983" d="M-580.606,453.338a44.357,44.357,0,0,1,11.148,7.6,44.441,44.441,0,0,1,10.13,14.189,212.132,212.132,0,0,1,19.256,26.849c.7,1.147,5.235,8.686,9.119,16.722,9.591,19.837,14.114,40.534,16.338,55.941a6.992,6.992,0,0,1-3.167,3.842,7.379,7.379,0,0,1-6.585,0c-2.369-7.322-5.206-14.955-8.612-22.8a259.071,259.071,0,0,0-45.093-69.916,61.1,61.1,0,0,1-3.041-12.159,61.544,61.544,0,0,1,.507-20.268Z" transform="translate(712.487 -377.567)" fill="#fae3bb"/>
    <path id="Path_2984" data-name="Path 2984" d="M-591.662,434.189a11.526,11.526,0,0,0-3.428,4.876c-1.874,5.28.559,11.875,6.065,16.748,3.7-4.488,4.866-10.3,2.9-15.165a13.925,13.925,0,0,0-5.537-6.459Z" transform="translate(681.261 -420.295)" fill="#ebe4cf"/>
    <path id="Path_2985" data-name="Path 2985" d="M-567.272,521.417q2.065,4.963,4.026,10.137a338.845,338.845,0,0,1,17.09,63.124,7.38,7.38,0,0,1-4.6,3.535,7.146,7.146,0,0,1-4.388-.394q-5.719-10.911-11.426-21.873-12.093-23.217-23.98-46.324Q-578.909,525.516-567.272,521.417Z" transform="translate(692.793 -225.661)" fill="#fcb6a1"/>
    <path id="Path_2986" data-name="Path 2986" d="M-567.263,525.724a21.311,21.311,0,0,1-4.268,4.731c-6.388,5.209-14,5.067-16.564,4.9q13.649,27.424,27.3,54.849-1.416,7.421.042,8.036,2.142.9,10.492-12.9-1.847-8.923-4.217-18.3a421.11,421.11,0,0,0-12.785-41.316Z" transform="translate(698.262 -216.05)" fill="#fae3bb"/>
    <path id="Path_2987" data-name="Path 2987" d="M-562.245,543.18a21.526,21.526,0,0,1,3.231,4.346,21.35,21.35,0,0,1,1.755,4.033,55.626,55.626,0,0,1-5.784,6.54,56.449,56.449,0,0,1-17.3,11.358c-.9-.226-2.084-.675-2.43-1.629-.517-1.418,1.112-3.189,1.619-3.771,1.858-2.123,4.4-6.211,7.564-14.793a5.766,5.766,0,0,1,3.364-1.079c2.117.071,2.976,1.548,4.256,1.409C-564.869,549.478-563.505,548.163-562.245,543.18Z" transform="translate(709.907 -177.1)" fill="#78442b"/>
    <path id="Path_2988" data-name="Path 2988" d="M-567.5,527.5q-.087,5.375-.352,10.9a338.891,338.891,0,0,1-9.5,64.7,7.384,7.384,0,0,1-5.625,1.409,7.2,7.2,0,0,1-3.868-2.11q-.892-12.287-1.758-24.616-1.832-26.111-3.515-52.044Q-579.815,526.615-567.5,527.5Z" transform="translate(689.281 -216.019)" fill="#fcb6a1"/>
    <path id="Path_2989" data-name="Path 2989" d="M-598.137,495.484c-.107,3-.191,7.484,0,12.925.737,21.126,4.941,37.257,8.437,50.373,1.936,7.248,4.8,16.935,8.967,28.219a176.051,176.051,0,0,0,13.717-37.713c4.582-19.152,7.283-30.517,1.053-40.088C-574.37,496.276-593.38,495.542-598.137,495.484Z" transform="translate(675.605 -283.526)" fill="#574c3b"/>
    <path id="Path_2990" data-name="Path 2990" d="M-597.322,492.333q-.528,7.12-1.057,14.244A77.6,77.6,0,0,0-587.3,516.6a77.276,77.276,0,0,0,11.077,6.857c-2.323,15.908-4.178,33-5.274,51.165q-.911,15.137-1.053,29.276a32.138,32.138,0,0,0,13.187,5.012,32.662,32.662,0,0,0,18.987-3.167q4.75-37.976,9.494-75.956a108.569,108.569,0,0,0,3.167-20.571,108.772,108.772,0,0,0-.527-18.464Z" transform="translate(675.317 -294.089)" fill="#635743"/>
    <path id="Path_2991" data-name="Path 2991" d="M-536.207,460.939a51.4,51.4,0,0,0-26.115-8.7,51.406,51.406,0,0,0-26.09,5.72,595.163,595.163,0,0,0-10.037,96.688q-.276,12.951,0,25.321a75.775,75.775,0,0,0,18.638,5.1,79.522,79.522,0,0,0,42.9-6.33Q-536.559,519.839-536.207,460.939Z" transform="translate(674.861 -380.143)" fill="#fae3bb"/>
    <path id="Path_2992" data-name="Path 2992" d="M-570.3,468.741q1.231-11.415,2.469-22.829-9.81,1.052-19.624,2.1-1.861,10.542-3.726,21.084c-.588,6.482.575,12.544,3.752,13.94C-583.495,484.759-575.655,479.715-570.3,468.741Z" transform="translate(691.056 -394.137)" fill="#f7a88f"/>
    <path id="Path_2993" data-name="Path 2993" d="M-592.11,439.916a137.1,137.1,0,0,0-2.582,20.609c-.2,4.133-.2,8.049-.065,11.717a23.013,23.013,0,0,0,4.382,8.453,24.546,24.546,0,0,0,10.7,7.458,34.976,34.976,0,0,0,12.437-4.53,33.67,33.67,0,0,0,11.264-11.1,85.622,85.622,0,0,0,1.642-11.1,85.735,85.735,0,0,0-.94-21.288,34.329,34.329,0,0,0-13.139-4.983,36.4,36.4,0,0,0-23.7,4.764Z" transform="translate(683.189 -419.022)" fill="#fcb6a1"/>
    <path id="Path_2994" data-name="Path 2994" d="M-533.746,459.2a100.626,100.626,0,0,0-5.8,19.385c-4.905,25.592,1.38,47.236,5.978,59.078l-.7,41.846a67.962,67.962,0,0,1-33.409,8.792,67.889,67.889,0,0,1-31.3-7.736l.352-37.277a101.18,101.18,0,0,1,1.758-16.176c1.994-14.751,4.743-36.32,8.789-70.152a48.319,48.319,0,0,1,5.277-2.375,48.067,48.067,0,0,1,7.251-2.11,224.044,224.044,0,0,0-4.789,30.329,225.443,225.443,0,0,0,2.811,60.132c.171-.569,5.1-17.007,5.277-17.582,2.779-9.264,18.974-63.218,21.756-72.482a51.753,51.753,0,0,1,8.835,2.5A52.06,52.06,0,0,1-533.746,459.2Z" transform="translate(673.983 -379.502)" fill="#9c8969"/>
    <path id="Path_2995" data-name="Path 2995" d="M-557.65,524.7c-2.185.259-4.472.443-6.857.527a86.062,86.062,0,0,1-28.749-3.955,46.387,46.387,0,0,0-.792,7.649,46.388,46.388,0,0,0,.526,7.91A31.606,31.606,0,0,0-579.8,542.9a32.452,32.452,0,0,0,21.1-3.693,26.56,26.56,0,0,0,1.583-7.914A26.616,26.616,0,0,0-557.65,524.7Z" transform="translate(684.964 -225.975)" fill="#9c8969"/>
    <path id="Path_2996" data-name="Path 2996" d="M-568.67,530.907a21.109,21.109,0,0,1-5.8,2.637c-7.936,2.229-14.861-.937-17.142-2.11q1.58,30.594,3.163,61.188-4.256,6.238-3.163,7.384,1.6,1.682,14.767-7.648,1.866-8.919,3.429-18.461A421.264,421.264,0,0,0-568.67,530.907Z" transform="translate(689.916 -204.486)" fill="#fae3bb"/>
    <path id="Path_2997" data-name="Path 2997" d="M-567.1,548.972a21.449,21.449,0,0,1,1.228,5.274,21.374,21.374,0,0,1,0,4.4,55.349,55.349,0,0,1-7.91,3.69,56.555,56.555,0,0,1-20.4,3.519,3.3,3.3,0,0,1-1.584-2.462c.094-1.509,2.291-2.485,2.989-2.815,2.553-1.205,6.517-3.939,12.835-10.55a5.78,5.78,0,0,1,3.519.352c1.913.908,2.11,2.6,3.338,2.989C-572.021,553.7-570.247,553.037-567.1,548.972Z" transform="translate(681.143 -164.177)" fill="#78442b"/>
    <path id="Path_2998" data-name="Path 2998" d="M-559.928,454.857a80.347,80.347,0,0,1-10.285,0c-10.463-.666-21.753-1.383-24.264-7.645-1.742-4.34,1.331-9.836,4.22-12.66,4.407-4.314,11.694-5.639,12.789-3.955a1.907,1.907,0,0,1-.132,1.713,25.414,25.414,0,0,1,14.376,1.716,24.5,24.5,0,0,1,12,11.077c3.958,7.991,2.575,18.089-3.3,26.109Q-557.227,463.034-559.928,454.857Z" transform="translate(682.891 -429.889)" fill="#f5eed8"/>
    <path id="Path_2999" data-name="Path 2999" d="M-583.034,442.677a5.53,5.53,0,0,1,4.482-1.451c2.553.533,3.735,3.38,3.958,5.012.488,3.609-2.841,7.8-8.44,10.02Z" transform="translate(709.557 -404.783)" fill="#fcb6a1"/>
    <path id="Path_3000" data-name="Path 3000" d="M-597.922,493.645a13.827,13.827,0,0,0-1.6-1.942,14.481,14.481,0,0,0-6.043-3.613q-.765.834-1.528,1.667a7.372,7.372,0,0,0-2.22-.139,8.2,8.2,0,0,0-3.758,1.39,12.3,12.3,0,0,0-3.315,3.238c-1.105,1.525-.924,1.861-2.081,3.933-2.1,3.745-4.217,5.367-3.626,6.32a1.314,1.314,0,0,0,1.005.462c1.267.158,2.634-.84,3.545-2.543-.187.433-2.876,6.841.307,10.447a5.941,5.941,0,0,0,1.622,1.27,2.037,2.037,0,0,0,1.848,1.041c.84-.184,1.6-1.58,1.041-3.238a3.17,3.17,0,0,0,1.968.811,3.177,3.177,0,0,0,1.929-.559,1.962,1.962,0,0,0,1.179.346c.714-.045.972-.543,2.5-2.013.989-.95,1.315-1.16,1.251-1.461-.139-.643-1.907-.746-2.223-.763.3-.368.737-.918,1.251-1.6.976-1.3,1.309-1.858,2.291-3.264,1.848-2.64,1.958-2.485,2.291-3.267a7.6,7.6,0,0,0,.488-3.958Q-598.86,494.929-597.922,493.645Z" transform="translate(622.189 -300.024)" fill="#fcb6a1"/>
  </g>
</svg>
