<svg xmlns="http://www.w3.org/2000/svg" width="205.414" height="401.678" viewBox="0 0 205.414 401.678">
  <g id="Group_1180" data-name="Group 1180" transform="translate(0 -0.002)">
    <path id="Path_3001" data-name="Path 3001" d="M-936.564,551.38l1.454,1.62a11.127,11.127,0,0,0,2.908-.969c4.223-2.091,7.012-6.873,7.6-7.917.776-1.383,1.176-2.42,2.262-2.746a3.25,3.25,0,0,1,3.393,1.292c1.018,1.538.013,3.732-1.131,6.14a25.456,25.456,0,0,1-5.17,7.274c-2.54,2.427-2.482,1.373-7.92,5.493-2.227,1.687-3.2,2.595-5.009,2.908a8.6,8.6,0,0,1-5.335-.969c-.31-1.6-.682-3.27-1.131-5.009-.407-1.586-.843-3.1-1.292-4.524Z" transform="translate(1085.599 -181.38)" fill="#3a434a"/>
    <path id="Path_3002" data-name="Path 3002" d="M-926.346,485.958c.915.788,2.162,1.864,3.622,3.157,0,0,3.7,3.27,8.453,8.24a8.961,8.961,0,0,1,2.618,3.858c.288,1.044.013,1.138.4,3.331.307,1.732.568,2.185.2,2.8-.346.578-.782.536-2.417,1.577-1.522.969-1.373,1.154-2.013,1.4-2.146.84-5.338-.64-5.231-1.228.035-.194.462-.43,2.414-.523a13.615,13.615,0,0,0-3.218-4.559c-2.081-1.932-3.306-1.881-4.63-3.684-1.412-1.923-.727-2.953-2.013-5.083a10.6,10.6,0,0,0-4.026-3.684Q-929.267,488.761-926.346,485.958Z" transform="translate(1116.286 -304.781)" fill="#fcb6a1"/>
    <path id="Path_3003" data-name="Path 3003" d="M-967.117,493.524c.43,3.344,1.134,8.156,2.262,13.9A223.784,223.784,0,0,0-952.9,547.5c9.791,25.014,19.886,46.328,26.823,60.762,6.6,13.733,15.429,31.8,26.18,53.007a9.931,9.931,0,0,0,7.759.323,9.825,9.825,0,0,0,5.17-4.85q-5.564-17.284-10.99-34.9Q-917.1,559.6-932.535,499.667Z" transform="translate(1038.341 -287.898)" fill="#30373d"/>
    <path id="Path_3004" data-name="Path 3004" d="M-952.236,487.873a33.706,33.706,0,0,0-2.427,14.544c.255,4.291.485,8.191,3.235,11.416,2.465,2.9,6.417,3.984,14.221,6.036,3.557.937,6.576,1.519,8.724,1.884a157.669,157.669,0,0,1-1.454,30.6,158.279,158.279,0,0,1-12.121,41.694,252.807,252.807,0,0,0-15.029,29.088A253.716,253.716,0,0,0-973.57,675.98a13.1,13.1,0,0,0,6.3,4.847,13.162,13.162,0,0,0,8.724,0c3.416-5.82,8.282-14.163,14.059-24.238,14.761-25.744,22.257-38.87,28.119-51.391,4.773-10.2,11.61-24.807,16.483-43.148,4.133-15.556,8.576-40.285,5.335-72.237Z" transform="translate(1023.945 -300.508)" fill="#3a434a"/>
    <path id="Path_3005" data-name="Path 3005" d="M-982.012,489.855a33.869,33.869,0,0,1-1.292,3.635c-.287.685-.588,1.331-.889,1.939-.8,1.593-1.483,2.873-1.939,3.719-2.249,4.162-3.241,5.513-2.989,7.19.077.54.291,1.144.484,2.585a4.385,4.385,0,0,0,.323,1.535,3.182,3.182,0,0,0,1.858,1.457,2.515,2.515,0,0,0,.485,1.7c.349.436.611.381,1.616,1.05.917.611.976.843,1.454.969a2.4,2.4,0,0,0,1.777-.323,1.955,1.955,0,0,0,1.212.323c.469-.049.763-.3,2.02-1.7,1.276-1.422,1.428-1.677,1.373-2.02a1.665,1.665,0,0,0-1.05-1.131,1.968,1.968,0,0,0-1.212-.084,12.363,12.363,0,0,0,1.05-1.616c.75-1.363.814-2.075,1.535-3.151a7.737,7.737,0,0,1,1.377-1.535,16.2,16.2,0,0,0-.081,2.1c.039,1.774.087,3.086.969,3.877.4.365,1.086.717,1.454.488.484-.3.21-1.49.081-2.265-.624-3.706.879-4.844.4-7.674a9.237,9.237,0,0,0-2.908-5.093q.562-1.939,1.131-3.877a8.5,8.5,0,0,0-3.315-2.02A8.547,8.547,0,0,0-982.012,489.855Z" transform="translate(989.159 -296.809)" fill="#fcb6a1"/>
    <path id="Path_3006" data-name="Path 3006" d="M-925.525,436a65.943,65.943,0,0,1,1.573,8,66.925,66.925,0,0,1,.123,16.725,47.227,47.227,0,0,1,.727,8.485,47.3,47.3,0,0,1-2.049,13.458,4.523,4.523,0,0,1-4.136,3.183,42.261,42.261,0,0,1-4.967-.039,38.9,38.9,0,0,1-18.018-5.374,37.47,37.47,0,0,1-10.9-10.024,86.361,86.361,0,0,1-1.664-11.235,86.832,86.832,0,0,1,.95-21.55,40.173,40.173,0,0,1,13.3-5.044A41.78,41.78,0,0,1-925.525,436Z" transform="translate(1042.805 -425.321)" fill="#fcb6a1"/>
    <path id="Path_3007" data-name="Path 3007" d="M-961.412,469.54q-.926-13.116-1.852-26.238l23.989.384q.567,12.927,1.131,25.854c-1.312.931-7.694,5.241-15.675,3.558a18.759,18.759,0,0,1-7.593-3.558Z" transform="translate(1046.939 -399.96)" fill="#fcb6a1"/>
    <path id="Path_3008" data-name="Path 3008" d="M-916.3,451.473a29.736,29.736,0,0,0-11.474,3.878,30.358,30.358,0,0,0-11.8,12.929,340.888,340.888,0,0,0-21.908,33c-1.231,2.11-5.784,9.791-9.232,16.926-9.7,20.094-14.286,41.038-16.536,56.639a7.747,7.747,0,0,0,3.806,3.241,7.946,7.946,0,0,0,6.224-.323c2.4-7.128,5.225-14.525,8.563-22.112a270.236,270.236,0,0,1,45.649-70.779c1.092-3.9,2.126-8.01,3.076-12.308C-918.29,465.122-917.117,458.062-916.3,451.473Z" transform="translate(993.418 -381.728)" fill="#9cdcff"/>
    <path id="Path_3009" data-name="Path 3009" d="M-954.84,450.923c.42,3.3,1,6.815,1.806,10.518a123.345,123.345,0,0,0,4.553,15.821,340.111,340.111,0,0,0,17.3,35.638c1.192,2.133,5.493,9.959,9.888,16.554,12.366,18.564,28.083,33.157,40.375,43.019a7.757,7.757,0,0,0,4.727-1.629,7.968,7.968,0,0,0,2.882-5.525c-4.921-5.687-9.855-11.882-14.693-18.609a270.2,270.2,0,0,1-37.771-75.28,29.968,29.968,0,0,0-8.218-12.748,31.093,31.093,0,0,0-20.849-7.759Z" transform="translate(1065.735 -382.958)" fill="#9cdcff"/>
    <path id="Path_3010" data-name="Path 3010" d="M-968.1,456.639a75.647,75.647,0,0,1,25.87-6.046,75.857,75.857,0,0,1,31.673,5.173c3.1,30.265,5.06,62.226,5.464,95.744q.16,12.985,0,25.631a76.7,76.7,0,0,1-18.868,5.164A80.543,80.543,0,0,1-967.39,575.9Q-967.745,516.27-968.1,456.639Z" transform="translate(1036.155 -383.921)" fill="#9cdcff"/>
    <path id="Path_3011" data-name="Path 3011" d="M-919.872,435.476c3.583,4.944,3.923,8.96,3.878,10.99-.042,1.91-.514,3.752-1.454,7.432-.824,3.218-1.657,5.826-2.262,7.6l-2.262.323c-1.17-2.327-2.249-2.659-2.789-2.708-2.5-.217-5.771,4.682-5.335,9.212a9.632,9.632,0,0,0,2.669,5.574,21.013,21.013,0,0,1-1.7,3.758,21.935,21.935,0,0,1-8.043,7.92,2.171,2.171,0,0,1-.323,1.777c-1.192,1.467-5.286.54-10.34-2.1-2.753,2.482-5.678,2.882-6.789,1.78-.808-.8-.562-2.307-.485-2.75a18.227,18.227,0,0,1-4.524-2.747c-6.208-5.154-7.2-13.21-8.082-21.33a72.493,72.493,0,0,1,.646-20.041,38.412,38.412,0,0,1,13.575-8.24C-937.4,426.351-922.919,433.818-919.872,435.476Z" transform="translate(1036.102 -429.889)" fill="#3a434a"/>
    <path id="Path_3012" data-name="Path 3012" d="M-934.792,456.018v-4.039a41.4,41.4,0,0,0-8.886-2.1,42.907,42.907,0,0,0-20.364,2.585q.165,2.264.323,4.527Q-949.256,456.506-934.792,456.018Z" transform="translate(1045.203 -385.953)" fill="#9cdcff"/>
    <path id="Path_3013" data-name="Path 3013" d="M-957.542,550.708c.113-.63-1.822-1.46-3.716-2.262-.776-.326-8.227-3.474-8.889-2.262-.155.284.013.9,1.616,2.423l-1.293,2.585a13.312,13.312,0,0,0-2.585,2.1,7.2,7.2,0,0,0-2.261,3.558c-.284,1.945,1.315,3.639,2.261,4.685a91.3,91.3,0,0,1,8.082,10.505,66.532,66.532,0,0,0,8.4.646,66.52,66.52,0,0,0,8.889-.485c.288-1.267.446-2.947-.484-4.042-.892-1.047-2.272-.956-4.366-1.292A20.632,20.632,0,0,1-959,564.445c-1.241-.795-3.564-2.84-4.362-8.566q1.047-2.181,2.1-4.362C-959.888,551.487-957.658,551.358-957.542,550.708Z" transform="translate(1021.411 -171.011)" fill="#30373d"/>
  </g>
</svg>
