<svg xmlns="http://www.w3.org/2000/svg" width="128.134" height="401.628" viewBox="0 0 128.134 401.628">
  <g id="Group_1173" data-name="Group 1173" transform="translate(0.001 0.001)">
    <path id="Path_2884" data-name="Path 2884" d="M-790.8,547.847q-.208,3.02-.342,6.2c-.09,2.171-.146,4.3-.171,6.366a64.678,64.678,0,0,1-7.745,2.411,65.838,65.838,0,0,1-19.621,1.722,3.361,3.361,0,0,1-1.031-2.756c.433-1.739,3.422-2.343,4.472-2.582,3.351-.753,8.466-2.592,16.522-7.225q.431-2.928.862-5.852Q-794.33,546.986-790.8,547.847Z" transform="translate(819.941 -170.522)" fill="#283945"/>
    <path id="Path_2885" data-name="Path 2885" d="M-801.718,491.377c-1.021,5.312-2.382,12.757-3.787,21.682a684.015,684.015,0,0,0-7.571,78.822c-1.044,22.251-1.464,49.688,0,81.232a10.641,10.641,0,0,0,5.852,2.41,10.565,10.565,0,0,0,5.506-1.034c1.519-5.69,2.915-11.658,4.13-17.9a272.614,272.614,0,0,0,4.821-62.3q4.309-18.346,8.259-37.862,4.27-21.191,7.571-41.306Q-789.326,503.249-801.718,491.377Z" transform="translate(832.753 -292.689)" fill="#2c445c"/>
    <path id="Path_2886" data-name="Path 2886" d="M-778.089,526.665l-12.217-.517a68.043,68.043,0,0,1-12.134-12.822,68.059,68.059,0,0,1-8.521-15.746q.906-2.453,1.81-4.9c7.745-.73,16.115-1.212,25.04-1.289a292.93,292.93,0,0,1,32.785,1.548q-.131,4-.259,8Z" transform="translate(839.586 -292.697)" fill="#2c445c"/>
    <path id="Path_2887" data-name="Path 2887" d="M-779.781,548.95a45.412,45.412,0,0,1,1.722,5.338,45.972,45.972,0,0,1,1.377,9.119,14.231,14.231,0,0,1-4.13,1.894c-4.585,1.254-10.3.258-10.841-1.894-.258-1.015.785-1.7,1.89-3.441a15.516,15.516,0,0,0,2.065-9.636Z" transform="translate(882.58 -164.225)" fill="#283945"/>
    <path id="Path_2888" data-name="Path 2888" d="M-771.46,491.7q1.464,7.275,2.753,14.8a514.439,514.439,0,0,1,7.228,76.414,363.383,363.383,0,0,1,7.571,53.7,362.828,362.828,0,0,1,.346,41.3,13.854,13.854,0,0,1-5.852,1.722,13.851,13.851,0,0,1-6.194-1.034c-3.461-21.488-7.655-43.9-12.738-67.118-7.232-33.05-15.433-63.955-24.093-92.59Z" transform="translate(858.601 -291.977)" fill="#2c445c"/>
    <path id="Path_2889" data-name="Path 2889" d="M-811.715,484.56c-.375.9-.892,2.475-.776,6.023a38.693,38.693,0,0,0,2.323,11.442,54.713,54.713,0,0,0,3.874,8.692c.233-1.111.439-2.288.6-3.529a45.324,45.324,0,0,0,.172-10.066q.475-2.453.947-4.9c.31.394.808,1.05,1.377,1.894,1.855,2.747,2.265,4.233,3.1,4.214.624-.013,1.212-.863,1.377-1.635.32-1.512-1-2.74-1.981-4.129-3.377-4.776-.94-8.847-4.3-11.529a6.6,6.6,0,0,0-2.924-1.293,11.83,11.83,0,0,0-3.789,4.821Z" transform="translate(836.135 -318.657)" fill="#fcb6a1"/>
    <path id="Path_2890" data-name="Path 2890" d="M-803.784,460.486c-2.879,3.939-5.839,8.3-8.776,13.08-2.375,3.868-4.495,7.626-6.388,11.226a7.736,7.736,0,0,0-.595,5.622,94.455,94.455,0,0,0,4.918,13.785,98.331,98.331,0,0,0,27.1,35.367,11.383,11.383,0,0,0,2.84-2.323,11.485,11.485,0,0,0,2.323-4.13,99.5,99.5,0,0,1-6.453-9.81A101.832,101.832,0,0,1-801.2,487.161q3.228-4,6.453-8Z" transform="translate(819.819 -361.617)" fill="#fcb6a1"/>
    <path id="Path_2891" data-name="Path 2891" d="M-770.336,460.912c2.882,3.939,5.842,8.3,8.779,13.08,2.375,3.868,4.5,7.626,6.389,11.226a7.727,7.727,0,0,1,.591,5.626,94.525,94.525,0,0,1-4.915,13.782A98.332,98.332,0,0,1-786.6,539.992a11.445,11.445,0,0,1-2.837-2.323,11.388,11.388,0,0,1-2.323-4.13,99.07,99.07,0,0,0,6.453-9.81,101.9,101.9,0,0,0,12.392-36.142l-6.457-8Z" transform="translate(882.429 -360.667)" fill="#fcb6a1"/>
    <path id="Path_2892" data-name="Path 2892" d="M-744.825,457.864a56.187,56.187,0,0,0-20.823-7.506c-18.719-2.737-33.292,5.038-38.207,7.962q-1.677,20.949-3.1,42.3-3,45.082-4.647,88.58c2.659.837,5.545,1.625,8.647,2.307,0,0,4.928,1.083,9.94,1.674,6.708.792,24.213-.084,46.812-5.551q-.392-7.183-.688-14.457a993.683,993.683,0,0,1,2.066-115.309Z" transform="translate(838.16 -385.499)" fill="#86a845"/>
    <path id="Path_2893" data-name="Path 2893" d="M-782.585,464.663l2.094-20.781-22.745,3.487a113.827,113.827,0,0,0,.259,18.845c.776,8.072,1.247,12.46,3.612,13.423C-794.567,481.588-785.044,468.211-782.585,464.663Z" transform="translate(856.215 -398.666)" fill="#f7a88f"/>
    <path id="Path_2894" data-name="Path 2894" d="M-804.143,438.108a131.642,131.642,0,0,0-2.485,19.847c-.194,3.981-.2,7.752-.064,11.284a22.173,22.173,0,0,0,4.22,8.143,23.648,23.648,0,0,0,10.308,7.183,33.74,33.74,0,0,0,11.978-4.362,32.435,32.435,0,0,0,10.848-10.686,82.308,82.308,0,0,0,1.583-10.689,82.6,82.6,0,0,0-.9-20.5,33.068,33.068,0,0,0-12.657-4.8,35.043,35.043,0,0,0-22.831,4.58Z" transform="translate(848.905 -422.633)" fill="#fcb6a1"/>
    <path id="Path_2895" data-name="Path 2895" d="M-792.958,451.325a16.736,16.736,0,0,1,8.26,2.411,16.757,16.757,0,0,1,5.506,5.852c3.406,5.6,9.881,15.8,18.244,29.257a24.452,24.452,0,0,1-5.852,9.982,24.458,24.458,0,0,1-8.948,5.852l-16.179-12.392c-.666-5.855-1.16-12.182-1.377-18.932C-793.556,465.443-793.385,458.072-792.958,451.325Z" transform="translate(878.722 -382.058)" fill="#86a845"/>
    <path id="Path_2896" data-name="Path 2896" d="M-784.145,452.382A10.763,10.763,0,0,0-790,452.04c-3.593.863-5.742,3.642-6.883,5.164-3.726,4.963-10.847,15.326-19.621,29.256a17.157,17.157,0,0,0,2.756,6.883,18.29,18.29,0,0,0,11.012,7.229l15.491-13.423Q-785.694,469.766-784.145,452.382Z" transform="translate(827.226 -381.05)" fill="#86a845"/>
    <path id="Path_2897" data-name="Path 2897" d="M-768.345,462.842a14.581,14.581,0,0,1-3.483-4.776,15.939,15.939,0,0,1-.258-11.746c-3.39.384-8.282.863-14.2,1.163-17.578.9-19.517-1.015-20.138-2.194-1.289-2.459.779-6.282,2.582-8.392,8-9.352,32.359-10.282,39.626,2.969,5.186,9.458-1.04,21.194-1.806,22.59C-766.8,462.584-767.569,462.713-768.345,462.842Z" transform="translate(848.816 -429.889)" fill="#45282e"/>
    <path id="Path_2898" data-name="Path 2898" d="M-794.6,440.64a5.463,5.463,0,0,1,5.509-.175,5.6,5.6,0,0,1,2.407,5.51c-.427,3.173-3.975,5.965-8.776,6.194Q-795.031,446.406-794.6,440.64Z" transform="translate(874.169 -407.77)" fill="#fcb6a1"/>
    <path id="Path_2899" data-name="Path 2899" d="M-780.7,487.327c.375.9.892,2.479.776,6.023a38.752,38.752,0,0,1-2.324,11.445,54.859,54.859,0,0,1-3.874,8.692c-.233-1.112-.44-2.288-.6-3.529a45.339,45.339,0,0,1-.171-10.069q-.475-2.453-.947-4.9c-.31.394-.808,1.05-1.377,1.894-1.855,2.75-2.265,4.236-3.1,4.217-.624-.013-1.215-.863-1.377-1.635-.32-1.512,1-2.74,1.981-4.13,3.374-4.779.937-8.851,4.3-11.533a6.6,6.6,0,0,1,2.924-1.289,11.81,11.81,0,0,1,3.789,4.819Z" transform="translate(877.997 -312.477)" fill="#fcb6a1"/>
  </g>
</svg>
