<svg xmlns="http://www.w3.org/2000/svg" width="245.317" height="471.689" viewBox="0 0 245.317 471.689">
  <g id="Group_1150" data-name="Group 1150" transform="translate(0.001 -0.003)">
    <path id="Path_2719" data-name="Path 2719" d="M-1084,390.951c-1.37,4.02-2.117,15.094-1.176,16.893s6.715,1.942,9.894,1.57l.349-.95a54.562,54.562,0,0,0,27.68,7.781c1.548.007,3.429-.268,4.01-1.7a2.821,2.821,0,0,0-.927-3.005,9.522,9.522,0,0,0-2.944-1.558,39.494,39.494,0,0,1-20.541-19.275Z" transform="translate(1193.21 52.349)" fill="#421b1e"/>
    <path id="Path_2720" data-name="Path 2720" d="M-1101.74,391.907c-1.367,4.02-2.116,15.1-1.176,16.893s6.715,1.942,9.9,1.574l.349-.95a54.553,54.553,0,0,0,27.68,7.778c1.548.01,3.428-.265,4.01-1.7a2.816,2.816,0,0,0-.927-3,9.574,9.574,0,0,0-2.944-1.561,39.5,39.5,0,0,1-20.542-19.272Z" transform="translate(1153.625 54.489)" fill="#421b1e"/>
    <path id="Path_2721" data-name="Path 2721" d="M-1049.98,355.351c-6.54-6.786,4.53-63.237-15.74-76.486-8.951-5.852-10.832,26.183-11.659,43.455-2.275,47.543,10.476,68.969,22.9,71.829,15.833,3.642,23.944-17.365,23.944-17.365S-1043.44,362.137-1049.98,355.351Z" transform="translate(1210.949 -198.783)" fill="#5f8fb7"/>
    <path id="Path_2722" data-name="Path 2722" d="M-1093.27,272.99l-4.7,1.918,25.338,51.568,15.473-51.568-3.6-1.646Z" transform="translate(1165.594 -210.321)" fill="#d3a29d"/>
    <path id="Path_2723" data-name="Path 2723" d="M-1017.22,574.234c.937-3.849,18.651-220.716,11.151-247.232-.588-2.081-33.108-8.67-50.725-11.7l.2-5.273c-6.285-.391-13.006-.662-16.176-.9-20.5-1.528-31.784,9.209-32.3,12.072-4.934,27.234,6.343,251.042,5.791,254.978-.4,2.824,27.288,3.529,27.818,1.49,1.845-7.122,16.835-207.845,16.835-207.845h3.48S-1043.14,566.2-1040.29,574C-1039.57,575.973-1018.04,577.595-1017.22,574.234Z" transform="translate(1146.949 -130.02)" fill="#eecc8c"/>
    <path id="Path_2724" data-name="Path 2724" d="M-1086.85,275.562c1.567-.058,4.336,3.974,4.236,4.44l-.022.084a.718.718,0,0,1,.01.12,11.817,11.817,0,0,1-2.252,5.5c.594,1.81,1.971,10.424,3.6,21.553l-4.045,13.481-5.632-11.458c-.09-10.9,1.781-19.094,2.1-23.6-.026-.035-.058-.061-.084-.1-.985-1.535-2.185-2.928-3.264-4.408C-1092.92,280.193-1088.18,275.614-1086.85,275.562Z" transform="translate(1178.291 -204.582)" fill="#eecc8c"/>
    <path id="Path_2725" data-name="Path 2725" d="M-1101.23,357.812c-.921-33.538-9.516-64.475-6.615-67.586,6.007-6.44,33.251-16.641,33.251-16.641l25.337,51.565,15.471-51.565s26.445,7.952,36.8,15.494c3.655,2.663,2.162,32.73-1.2,72.7-.737,8.783,1.719,24.529,2.74,38.879,1.16,16.257.928,30.723.252,31.234-2.9,2.181-42.3,9.1-51.413-26.293-18.238,38.624-55.091,31.977-58.429,28.558-.979-1-.785-13.924.669-31.463C-1103.27,389.346-1100.81,373.338-1101.23,357.812Z" transform="translate(1142.224 -208.995)" fill="#5f8fb7"/>
    <path id="Path_2726" data-name="Path 2726" d="M-1064,278.155a23.28,23.28,0,0,0-14.551-7.322c-6.708-.527-17.827,4.986-17.959,7.051-.207,3.241,6.711,14.619,8.922,17.41.75.947,10.192-8.566,10.192-8.566s7.171,8.45,8.195,8.285S-1062.03,280.588-1064,278.155Z" transform="translate(1168.839 -215.214)" fill="#a36361"/>
    <path id="Path_2727" data-name="Path 2727" d="M-1043.17,316.673c0,2.566-2.524,3.975-5.254,5.564-2.371,1.38-8.589,4.608-12.027,4.608-7.4,0-9.523-5.38-9.523-10.172s6-8.673,13.4-8.673S-1043.17,311.884-1043.17,316.673Z" transform="translate(1228.066 -132.202)" fill="#ea8b57"/>
    <g id="Group_1145" data-name="Group 1145" transform="translate(112.86 119.52)">
      <path id="Path_2728" data-name="Path 2728" d="M-1082.45,319.2c4.524,3.58,31.34,12.127,36.766,12.622s62.891-8.666,72.113-11.138c1.548-.417,1.988-4.624.2-5.354-7.952-3.241-15.891-6.611-23.86-9.71a22.588,22.588,0,0,0-10.353-1.551c-3.551.3-7.089.869-10.631,1.322l-21.5,2.76q-21.5,2.758-43,5.513C-1084.7,313.917-1084.13,317.869-1082.45,319.2Z" transform="translate(1083.972 -260.683)" fill="#fff"/>
      <path id="Path_2729" data-name="Path 2729" d="M-1070.31,362.773c.669.039,21.714-3.664,31.806-5.115l26.778-3.849q3.4-.485,6.792-.973c2.191-.317,4.43-.523,6.6-.966,3.839-.785,5.209-4.217,6.181-7.6q3.737-12.99,7.474-25.986c1.234-4.3,2.488-8.6,3.706-12.9a74.931,74.931,0,0,0,2.714-12.932,1.778,1.778,0,0,0-1.661-1.864q-8.216.363-16.435.733-28.961,1.289-57.915,2.585c-.959.042-2.621.255-3.367,4.492-3.131,17.8-11.261,44.7-14.331,62.51A1.78,1.78,0,0,0-1070.31,362.773Z" transform="translate(1110.713 -290.584)" fill="#0b4875"/>
    </g>
    <g id="Group_1148" data-name="Group 1148" transform="translate(0 79.582)">
      <g id="Group_1146" data-name="Group 1146" transform="translate(90.717 79.301)">
        <path id="Path_2730" data-name="Path 2730" d="M-1090.32,334.567a328.785,328.785,0,0,1,20.264-31.144c1.189-1.619,3.852.058,2.652,1.69a329.387,329.387,0,0,0-20.267,31.144C-1088.68,338.012-1091.33,336.319-1090.32,334.567Z" transform="translate(1091.448 -302.765)" fill="#0c53bc"/>
        <path id="Path_2731" data-name="Path 2731" d="M-1087.67,314.268s-2.73,2.95-3.093,2.75.96-3.981.96-3.981C-1089.4,312.209-1087.27,313.437-1087.67,314.268Z" transform="translate(1090.824 -280.459)"/>
      </g>
      <path id="Path_2732" data-name="Path 2732" d="M-1103.89,309.833s29.234,1.677,31.686,1.658,9.187-4.789,11.387-5.316,11.584.446,13.148,1.057,7.248,5.981,8.437,7.694c2.055,2.963-.258,4.543-2.272,2.944-1.958-1.557-4.184-3.584-6.052-4.443a.717.717,0,0,0,.1.136,42.653,42.653,0,0,1,6.631,7.923,2.049,2.049,0,0,1-.352,2.8,1.975,1.975,0,0,1-.889.375c.184,1.651-1.3,2.2-5.3.562.675.992.113,2.394-1.709,2.524-3.519.246-7.216-.482-10.725-.811-2.844.627-8.893,1.454-9.025,1.441-3.073.459-38.6.753-38.6.753Z" transform="translate(1144.503 -216.189)" fill="#fdb688"/>
      <g id="Group_1147" data-name="Group 1147" transform="translate(85.127 94.901)">
        <path id="Path_2733" data-name="Path 2733" d="M-1080.55,314.467a32.2,32.2,0,0,0-6.278-2.9c-.911-.1-6.1-1.054-5.71-.611s4.617,1.473,5.972,2S-1080.34,314.784-1080.55,314.467Z" transform="translate(1092.555 -300.337)" fill="#bc6235"/>
        <path id="Path_2734" data-name="Path 2734" d="M-1077.41,317.3c-.21-.275-6.728-6.414-7.6-7.018s-7.054-1.241-6.656-.859,4.627,1.3,5.988,1.761S-1077.2,317.567-1077.41,317.3Z" transform="translate(1094.486 -303.779)" fill="#bc6235"/>
        <path id="Path_2735" data-name="Path 2735" d="M-1083.35,309.929a13.353,13.353,0,0,0-3.383-1.961c-1.192-.385-4.63-.494-4.647-.229s3.067.6,4.411.937C-1085.57,309.021-1083.44,309.984-1083.35,309.929Z" transform="translate(1095.171 -307.593)" fill="#bc6235"/>
      </g>
      <path id="Path_2736" data-name="Path 2736" d="M-1092.73,326.507c-1.289.666-8.634.09-8.634.09l1.276-19.349s8.721.12,9.145.8C-1089.82,309.862-1090.89,325.55-1092.73,326.507Z" transform="translate(1158.016 -213.462)" fill="#d3a29d"/>
      <path id="Path_2737" data-name="Path 2737" d="M-1112.07,385.637c10.024,10.712,51.96,8.075,52.748,6.934s2.779-20.348.937-21.459-28.077-1.535-27.447-6.989c1.635-14.124,8.208-20.71,11.332-29.441,6.233-17.4,7.167-65.974-10.027-54.81S-1132.67,363.622-1112.07,385.637Z" transform="translate(1118.899 -278.224)" fill="#5f8fb7"/>
    </g>
    <path id="Path_2738" data-name="Path 2738" d="M-1092.18,288.482a.87.87,0,0,0,.65.371.87.87,0,0,0,.7-.271,84.135,84.135,0,0,1,23.8-15.746q3.253-1.42,6.618-2.559c1.858-.63,4.013-1.069,5.406-2.566a4.06,4.06,0,0,0,.9-4.375,5.654,5.654,0,0,0-2.608-2.692,3.391,3.391,0,0,0-.569-3.932c-1.906-1.987-5.7-2.466-8.285-2.814a31.132,31.132,0,0,0-9.72.175,9.258,9.258,0,0,0-4.282,1.79,7.215,7.215,0,0,0-4.068-1.183c-4.088.078-7.329,3.235-8.951,6.763-1.813,3.949-2.339,8.569-2.453,12.87A45.33,45.33,0,0,0-1093.3,287.8a.905.905,0,0,0,.416.579A.906.906,0,0,0-1092.18,288.482Z" transform="translate(1172.112 -253.596)" fill="#e58d5c"/>
    <path id="Path_2739" data-name="Path 2739" d="M-1088.06,274.976c-1.321-2.217-1.8-5.2-.32-6.931a4.167,4.167,0,0,1,4.931-.95,5.108,5.108,0,0,1,2.7,3.732,3.353,3.353,0,0,1,.164.482,9.824,9.824,0,0,0,1.215-.876c3.557-3.015,8-14.053,8-14.053s8.288-.152,9.487,4.724c4.016,16.344,7.645,16.057,5.926,17.3s-4.2-1.4-4.456-1.916c0,0,2.575,9.555,1.07,13.274s-8.117,5.07-9.054,6.1-.889,8.34-1.422,11.516c-.466,2.769-7.552,10.854-10.124,10.987s-15.72-10.046-15.427-11.433C-1094.86,304.52-1090.81,281.467-1088.06,274.976Z" transform="translate(1171.385 -247.386)" fill="#fdb688"/>
    <path id="Path_2740" data-name="Path 2740" d="M-1091.32,265.637c1.212.365,1.825-1.179,1.108-2.02-.213-.249-.485-.307-.727-.494-.494-.391.058-.394.349-.65.475-.41.941-1.528.288-2.175s-2.465.4-2.646,1.7C-1093.1,263.091-1092.53,265.272-1091.32,265.637Z" transform="translate(1176.752 -239.078)" fill="#ea8b57"/>
    <g id="Group_1149" data-name="Group 1149" transform="translate(78.829 0.84)">
      <path id="Path_2741" data-name="Path 2741" d="M-1089.38,254.6a16.087,16.087,0,0,1,6.3,4.876c.378.481-.433.986-.808.507a15.119,15.119,0,0,0-5.946-4.543C-1090.39,255.2-1089.94,254.359-1089.38,254.6Z" transform="translate(1104.356 -252.294)" fill="#bc6337"/>
      <path id="Path_2742" data-name="Path 2742" d="M-1090.39,265.853a22.241,22.241,0,0,0,3.364-8.847c.094-.608,1.024-.391.93.21a22.969,22.969,0,0,1-3.454,9.086C-1089.88,266.813-1090.73,266.37-1090.39,265.853Z" transform="translate(1103.502 -247.634)" fill="#bc6337"/>
      <path id="Path_2743" data-name="Path 2743" d="M-1091.31,264.014a32.957,32.957,0,0,1,4.689-8.246c.375-.485,1.069.168.7.653a32.1,32.1,0,0,0-4.543,8.046C-1090.69,265.035-1091.53,264.583-1091.31,264.014Z" transform="translate(1101.555 -249.97)" fill="#bc6337"/>
      <path id="Path_2744" data-name="Path 2744" d="M-1088.88,256.414c.433-.43,1.134.22.695.653a11.361,11.361,0,0,0-3.386,7.177c-.055.6-1,.653-.953.042a12.4,12.4,0,0,1,3.644-7.872Z" transform="translate(1098.919 -248.461)" fill="#bc6337"/>
      <path id="Path_2745" data-name="Path 2745" d="M-1093.81,264.516a14.28,14.28,0,0,1,8.643-9.781c.572-.226.856.685.288.908a13.289,13.289,0,0,0-8,9.083C-1093.04,265.32-1093.97,265.11-1093.81,264.516Z" transform="translate(1096.007 -251.974)" fill="#bc6337"/>
      <path id="Path_2746" data-name="Path 2746" d="M-1091.65,257.492c.339-.5,1.186-.058.844.452a11.1,11.1,0,0,0-1.943,5.652c-.035.607-.989.656-.95.042a12.023,12.023,0,0,1,2.049-6.146Z" transform="translate(1096.309 -246.233)" fill="#bc6337"/>
      <path id="Path_2747" data-name="Path 2747" d="M-1094.33,258.824c.064-.608,1-.391.927.213a25.549,25.549,0,0,0,.785,9.678c.162.591-.749.882-.911.288a26.836,26.836,0,0,1-.8-10.179Z" transform="translate(1094.503 -243.578)" fill="#bc6337"/>
      <path id="Path_2748" data-name="Path 2748" d="M-1087.14,256.144a17.835,17.835,0,0,1,10.137.246c2.071.7,4.207,1.826,4.065,4.311-.032.607-.986.656-.95.045.288-5.122-10.1-4.421-12.967-3.69C-1087.45,257.2-1087.73,256.3-1087.14,256.144Z" transform="translate(1110.203 -250.123)" fill="#bc6337"/>
      <path id="Path_2749" data-name="Path 2749" d="M-1084.9,256.458a4.143,4.143,0,0,1,3.694,1.913,4.143,4.143,0,0,1,.171,4.156c-.275.549-1.115.1-.84-.449a3.181,3.181,0,0,0-.13-3.2,3.181,3.181,0,0,0-2.849-1.465.478.478,0,0,1-.5-.454.478.478,0,0,1,.454-.5Z" transform="translate(1114.964 -248.056)" fill="#bc6337"/>
      <path id="Path_2750" data-name="Path 2750" d="M-1087.76,257.234a11.475,11.475,0,0,1,13.187-1.325.477.477,0,0,1,.173.632.477.477,0,0,1-.622.208,10.478,10.478,0,0,0-12.043,1.137C-1087.53,258.271-1088.23,257.625-1087.76,257.234Z" transform="translate(1109.212 -252.603)" fill="#bc6337"/>
      <path id="Path_2751" data-name="Path 2751" d="M-1088.61,255.95a8.726,8.726,0,0,1,5.29-2.094.477.477,0,0,1,.5.456.477.477,0,0,1-.456.5,7.67,7.67,0,0,0-4.637,1.79C-1088.38,256.991-1089.08,256.345-1088.61,255.95Z" transform="translate(1107.303 -253.856)" fill="#bc6337"/>
    </g>
  </g>
</svg>
