<svg xmlns="http://www.w3.org/2000/svg" width="168.389" height="474.453" viewBox="0 0 168.389 474.453">
  <g id="Group_1138" data-name="Group 1138" transform="translate(0 -0.011)">
    <g id="Group_1131" data-name="Group 1131" transform="translate(0 125.611)">
      <path id="Path_2640" data-name="Path 2640" d="M-815.923,291.615c-4.618,16.926-20.609,46.567-30.194,61.693q-3.548,5.6-7.506,10.919c-2.563,3.441-5.577,6.631-7.9,10.237-1.845,2.86-3.06,6.485-1.835,9.83,1.183,3.238,4.333,5.241,7.006,7.151,6.582,4.714,20.018,6.973,23.579,6.046,12.732-3.312,16.208-19.918,18.115-32.562C-813.47,357.066-815.923,291.615-815.923,291.615Z" transform="translate(868.019 -291.615)" fill="#5f8fb7"/>
      <path id="Path_2641" data-name="Path 2641" d="M-838.589,308.548c1.641-2.869-15.772,9.048-23.324,22.674-2.333,4.21-3.9,8.4-2.789,13.232a15.808,15.808,0,0,0,2.559,5.694c1.005,1.4,2.495,3.257,4.33,3.483a3.237,3.237,0,0,0,1.926.6c2.081-.116,1.79-2.449.666-3.538a12.976,12.976,0,0,1-2.931-3.128,7.653,7.653,0,0,1-.892-4.469,10.8,10.8,0,0,1,2.061-4.792c.433-.63.9-1.238,1.37-1.835a8.776,8.776,0,0,1,.947-1.124c.44-.4,2.853-2.02,2.763.271a.479.479,0,0,0,.107.333c.1,1.015.2,2.033.307,3.047.191,1.9.058,4.492,1.5,5.978a2.668,2.668,0,0,0,3.264.585c1.435-.934,1.289-2.96,1.3-4.44.042-5.422-.071-10.87.155-16.286.11-2.65.1-5.448,1.5-7.713C-842.176,314.546-840.228,311.418-838.589,308.548Z" transform="translate(865.307 -254.792)" fill="#fdb688"/>
      <path id="Path_2642" data-name="Path 2642" d="M-845.16,315.622c-4.2,1.37-19.159,11.726-19.85,13.559s1.477,7.907,4.087,8.75,16.861-7.723,19.618-10.864C-839.085,324.534-842.556,314.772-845.16,315.622Z" transform="translate(865.14 -238.164)"/>
      <path id="Path_2643" data-name="Path 2643" d="M-854.5,315.564a12.489,12.489,0,0,0-6.5,3.121,2.03,2.03,0,0,1,.009.32.48.48,0,0,0,.107.333c.1,1.015.2,2.033.307,3.047.191,1.9.058,4.492,1.5,5.978a2.668,2.668,0,0,0,3.264.585c1.435-.934,1.289-2.96,1.3-4.44C-854.487,321.532-854.51,318.547-854.5,315.564Z" transform="translate(874.39 -238.177)" fill="#fdb688"/>
    </g>
    <g id="Group_1132" data-name="Group 1132" transform="translate(44.391 449.146)">
      <path id="Path_2644" data-name="Path 2644" d="M-839.031,398.416c6.867-.255,23.8-.74,24.962-.717a59.233,59.233,0,0,0,10.146-.679c-.3,2.126-.889,3.668-1.865,3.845a52.529,52.529,0,0,1-10.353.817c-1.092-.019-17.045.491-23.514.763-3.948.161-11.885.559-11.746-3.344a12.13,12.13,0,0,1,.342-2.592C-849.255,398.845-842.6,398.551-839.031,398.416Z" transform="translate(851.403 -381.097)" fill="#ddd9d9"/>
      <path id="Path_2645" data-name="Path 2645" d="M-851.057,396.725c.026-.394.64-.394.614,0a26.574,26.574,0,0,0-.233,3.309c.087,1.57.86,1.91,2.21,2.23h.02l.44-4.663c.039-.394.653-.394.614,0q-.223,2.365-.446,4.734a.138.138,0,0,1-.016.052,19.661,19.661,0,0,0,2.469.3h0q.286-2.37.569-4.734c.045-.394.662-.394.614,0q-.281,2.365-.569,4.731l-.01.036c.944.042,1.894.045,2.84.048h.666q.32-2.3.5-4.6c.032-.391.646-.391.614,0q-.179,2.3-.5,4.6h2.233a29.4,29.4,0,0,1,.611-4.808c.081-.384.7-.391.617,0a29.41,29.41,0,0,0-.614,4.808h2.6q.136-2.448.452-4.9c.052-.391.669-.391.617,0q-.32,2.448-.456,4.9c1.015,0,2.033,0,3.047-.006q.194-2.6.575-5.2c.058-.388.672-.391.614,0q-.383,2.6-.575,5.193c.924,0,1.845-.006,2.769-.013h.009q.1-2.5.271-5.005c.026-.391.643-.391.614,0q-.175,2.5-.268,5l2.559-.032q.155-2.569.508-5.138c.052-.391.669-.391.614,0q-.354,2.57-.5,5.131c.9-.013,1.81-.019,2.714-.035q.111-2.637.465-5.27c.055-.391.669-.391.617,0-.242,1.755-.394,3.506-.469,5.261.9-.019,1.806-.029,2.711-.055q.063-2.734.385-5.471c.048-.391.662-.391.614,0q-.325,2.729-.381,5.448,1.386-.039,2.772-.1h.039c.019-1.8.077-3.59.174-5.39.023-.394.637-.394.614,0q-.145,2.681-.174,5.357c.7-.039,1.386-.081,2.078-.145q.1-2.564.456-5.125c.052-.391.669-.394.614,0q-.349,2.53-.449,5.06c.714-.074,1.432-.162,2.145-.278a15.576,15.576,0,0,0-.045-4.8c-.065-.378.543-.543.607-.162a16.032,16.032,0,0,1,.065,4.85c.155-.029.313-.049.469-.081.32-.065.679-.12,1.037-.191a11.554,11.554,0,0,0,.362-4.495c-.049-.384.559-.546.6-.165a12.235,12.235,0,0,1-.314,4.495,2.249,2.249,0,0,0,1.629-1.328,16.875,16.875,0,0,0,.449-3.393c.052-.391.666-.391.614,0-.178,1.338.081,4-1.335,4.883a10.423,10.423,0,0,1-3.212.837c-1.131.216-2.272.365-3.412.472-5.425.52-10.9.426-16.3.472-5.509.052-11.083.233-16.564-.01-1.813-.084-4.718-.087-6.088-1.289a1.745,1.745,0,0,1-.459-1.464C-851.361,399.323-851.148,397.992-851.057,396.725Z" transform="translate(851.553 -381.362)" fill="#a0a0a0"/>
      <path id="Path_2646" data-name="Path 2646" d="M-834.586,395.771c1.273-1,2.088-2.33,3.264-3.393,1.454-1.318,16.182-.307,17.789.465,1.131.543,2.129,9.51,1.367,14.819a59.23,59.23,0,0,1-10.146.679c-1.021-.019-14.153.349-22.005.614a15.915,15.915,0,0,0-3.39-8.663C-842.683,398.989-836.563,397.328-834.586,395.771Z" transform="translate(859.646 -391.74)" fill="#a36361"/>
      <path id="Path_2647" data-name="Path 2647" d="M-846.061,396.108c1.254-.42,3.648-1.018,6.359-1.722a15.916,15.916,0,0,1,3.39,8.663l-2.957.1c-3.574.136-10.224.43-12.027-1.907C-850.672,398.806-849.141,397.142-846.061,396.108Z" transform="translate(851.64 -385.834)" fill="#efefef"/>
      <path id="Path_2648" data-name="Path 2648" d="M-845.268,393.9a8.553,8.553,0,0,1,2.349,4.395c.216.733-1,1.05-1.215.323a7.439,7.439,0,0,0-2.081-3.855C-846.793,394.277-845.843,393.421-845.268,393.9Z" transform="translate(862.577 -387.234)" fill="#ddd9d9"/>
      <path id="Path_2649" data-name="Path 2649" d="M-844.368,393.464a8.093,8.093,0,0,1,3.2,4.892c.165.753-1.05,1.076-1.215.326a6.9,6.9,0,0,0-2.692-4.165C-845.69,394.075-844.982,393.018-844.368,393.464Z" transform="translate(864.989 -388.131)" fill="#ddd9d9"/>
      <path id="Path_2650" data-name="Path 2650" d="M-843.323,393.086a8.8,8.8,0,0,1,4.175,4.294c.326.685-.788,1.3-1.115.617a10.334,10.334,0,0,0-1.584-2.395,6.935,6.935,0,0,0-2.187-1.464C-844.719,393.8-844,392.75-843.323,393.086Z" transform="translate(867.226 -388.881)" fill="#ddd9d9"/>
    </g>
    <g id="Group_1133" data-name="Group 1133" transform="translate(72.898 452.351)">
      <path id="Path_2651" data-name="Path 2651" d="M-830.206,399.411c6.866-.259,23.8-.743,24.959-.721a59.287,59.287,0,0,0,10.15-.679c-.307,2.126-.892,3.668-1.865,3.845a52.569,52.569,0,0,1-10.353.818c-1.1-.019-17.045.494-23.518.763-3.949.161-11.882.559-11.746-3.344a12.113,12.113,0,0,1,.343-2.591C-840.433,399.841-833.783,399.543-830.206,399.411Z" transform="translate(842.58 -382.089)" fill="#ddd9d9"/>
      <path id="Path_2652" data-name="Path 2652" d="M-842.237,397.718c.026-.394.643-.394.614,0a27.311,27.311,0,0,0-.233,3.309c.09,1.57.863,1.91,2.21,2.23h.023l.436-4.663c.039-.394.653-.394.617,0q-.223,2.365-.446,4.734l-.016.052a19.542,19.542,0,0,0,2.465.3h0q.286-2.37.569-4.734c.048-.391.662-.394.614,0q-.281,2.365-.565,4.734l-.013.032c.943.042,1.9.045,2.84.048h.669q.315-2.3.5-4.6c.032-.391.646-.391.614,0-.119,1.535-.288,3.063-.5,4.6h2.233a29.336,29.336,0,0,1,.614-4.808c.081-.385.7-.391.614,0a29.32,29.32,0,0,0-.611,4.808h2.6q.136-2.448.456-4.9c.052-.391.666-.391.614,0q-.32,2.448-.452,4.9h3.044q.194-2.6.575-5.2c.058-.388.672-.391.614,0-.255,1.732-.443,3.461-.575,5.2.924-.006,1.845-.006,2.769-.016h.01c.068-1.667.155-3.335.271-5.005.029-.391.643-.391.614,0q-.17,2.5-.268,5l2.563-.029q.15-2.574.5-5.141c.055-.388.669-.391.614,0q-.349,2.569-.5,5.131c.905-.013,1.81-.019,2.715-.032.074-1.758.226-3.516.468-5.273.052-.391.669-.391.614,0q-.363,2.633-.465,5.26c.9-.016,1.806-.029,2.708-.055q.063-2.734.385-5.467c.048-.394.662-.394.617,0q-.329,2.724-.385,5.445,1.386-.039,2.772-.1h.039q.029-2.69.178-5.39c.02-.391.634-.391.614,0q-.146,2.68-.174,5.358c.691-.039,1.383-.081,2.078-.145q.1-2.564.452-5.125c.052-.391.669-.394.614,0-.233,1.687-.378,3.374-.449,5.06.717-.074,1.431-.161,2.145-.278a15.461,15.461,0,0,0-.045-4.792c-.065-.381.543-.543.607-.165a16.038,16.038,0,0,1,.064,4.85c.159-.029.314-.048.469-.081.323-.065.679-.12,1.037-.191a11.549,11.549,0,0,0,.362-4.495c-.045-.384.559-.546.607-.161a12.312,12.312,0,0,1-.314,4.495,2.261,2.261,0,0,0,1.625-1.331,16.866,16.866,0,0,0,.449-3.393c.052-.391.669-.391.617,0-.178,1.338.077,4-1.338,4.883a10.424,10.424,0,0,1-3.212.837c-1.131.216-2.272.365-3.412.472-5.425.52-10.9.426-16.3.475-5.51.048-11.083.229-16.564-.013-1.81-.081-4.714-.087-6.085-1.286a1.731,1.731,0,0,1-.459-1.467C-842.541,400.319-842.328,398.984-842.237,397.718Z" transform="translate(842.733 -382.354)" fill="#a0a0a0"/>
      <path id="Path_2653" data-name="Path 2653" d="M-825.764,396.763c1.273-1.005,2.091-2.33,3.267-3.393,1.451-1.318,16.179-.307,17.785.465,1.131.543,2.13,9.51,1.37,14.819a59.3,59.3,0,0,1-10.15.679c-1.018-.019-14.15.349-22,.614a15.9,15.9,0,0,0-3.393-8.66C-833.858,399.981-827.741,398.32-825.764,396.763Z" transform="translate(850.824 -392.731)" fill="#a36361"/>
      <path id="Path_2654" data-name="Path 2654" d="M-837.236,397.1c1.251-.42,3.645-1.018,6.356-1.719a15.9,15.9,0,0,1,3.393,8.66c-1.109.039-2.11.074-2.957.107-3.577.132-10.227.43-12.03-1.91C-841.85,399.8-840.316,398.135-837.236,397.1Z" transform="translate(842.818 -386.824)" fill="#efefef"/>
      <path id="Path_2655" data-name="Path 2655" d="M-836.446,394.891a8.551,8.551,0,0,1,2.349,4.4c.22.734-1,1.05-1.215.323a7.417,7.417,0,0,0-2.081-3.855C-837.971,395.269-837.018,394.413-836.446,394.891Z" transform="translate(853.755 -388.226)" fill="#ddd9d9"/>
      <path id="Path_2656" data-name="Path 2656" d="M-835.544,394.456a8.1,8.1,0,0,1,3.192,4.892c.168.753-1.05,1.076-1.212.326a6.9,6.9,0,0,0-2.7-4.165C-836.866,395.067-836.161,394.01-835.544,394.456Z" transform="translate(856.168 -389.123)" fill="#ddd9d9"/>
      <path id="Path_2657" data-name="Path 2657" d="M-834.5,394.08a8.8,8.8,0,0,1,4.172,4.291c.326.685-.789,1.3-1.115.617a10.409,10.409,0,0,0-1.584-2.394,6.83,6.83,0,0,0-2.187-1.461C-835.9,394.791-835.179,393.741-834.5,394.08Z" transform="translate(858.404 -389.871)" fill="#ddd9d9"/>
    </g>
    <g id="Group_1135" data-name="Group 1135" transform="translate(13.862 188.899)">
      <g id="Group_1134" data-name="Group 1134">
        <path id="Path_2658" data-name="Path 2658" d="M-851.485,312.64l-.013-.007Z" transform="translate(881.719 -308.005)" fill="#eecc8c"/>
        <path id="Path_2659" data-name="Path 2659" d="M-860.545,453.118c-3.845-21.459,29.932-137.7,29.857-138.911,22.58-5.267,79.572-1.913,89.679-2.362,6.663,55.346-10.243,271.328-11.963,273.787s-26.985-2.873-27.45-10.182c-1.015-15.966-6.062-124.542-18.574-181.6-1.445,2.194-15.623,53.107-16.037,62.526s32.9,103.855,33.089,123.1c.007.808-16.463-1.066-20.874-4.02S-852.971,495.416-860.545,453.118Z" transform="translate(860.85 -311.201)" fill="#eecc8c"/>
      </g>
    </g>
    <path id="Path_2660" data-name="Path 2660" d="M-755.2,281.76c-7.4-3.58-21.876-8.117-29.893-9.784-.117-.129-24.093,1.554-34.934,3.487-8.8,1.567-13.892,1.687-19.252,22.58-3.021,3.332-13.113,16.415-14.809,27.722-1.58,10.489,4.411,17.588,6.456,21.139s1.991,44.786,1.991,44.786l89.708-1.7.892-32,6.133,6.5c10.486-3.916,18.225-2.2,27.5,5.432C-716.161,348.038-748.2,285.147-755.2,281.76Z" transform="translate(889.219 -209.841)" fill="#a36361"/>
    <path id="Path_2661" data-name="Path 2661" d="M-761.945,308.494l.417,9.39-89.68,2.363-.446-10.055Z" transform="translate(895.232 -128.342)" fill="#d3a29d"/>
    <path id="Path_2662" data-name="Path 2662" d="M-845.266,324.68c.4-1.325,1.722-4.369,8.98-10.133,3.732-2.966,12.024-8.553,17.443-9.284s18.351-1.577,29.111.1c5.193.808,17.591,2.679,22.7-.756,5.881-7.92,18.758-8.372,26.3,2.666,5.7,7.545-8.8,21.236-12.8,22.548-11.429,3.745-22.27,1.661-37.513-3.554-6.9-2.362-18.415-4.537-26.034-6.3L-826.86,330c-3.7,5.225-7.206,9.629-9.167,7.613-1.241,1.435-3.025,1.37-3.632-.6-1.467,1.444-3.341,1.124-4.117-1.2C-847.893,337.983-845.667,326.008-845.266,324.68Z" transform="translate(907.344 -149.959)" fill="#fdb688"/>
    <g id="Group_1136" data-name="Group 1136" transform="translate(62.9 172.258)">
      <path id="Path_2663" data-name="Path 2663" d="M-836.007,307.426a18.108,18.108,0,0,0-6.867,10.23.508.508,0,0,0,.388.581.508.508,0,0,0,.6-.355,16.993,16.993,0,0,1,6.43-9.607C-834.935,307.892-835.481,307.038-836.007,307.426Z" transform="translate(851.885 -303.202)" fill="#ef7e3f"/>
      <path id="Path_2664" data-name="Path 2664" d="M-839.7,306.63a29.3,29.3,0,0,0-4.527,12.324c-.081.643.908.872.989.226A28.545,28.545,0,0,1-838.8,307.1C-838.441,306.556-839.339,306.088-839.7,306.63Z" transform="translate(848.905 -305.295)" fill="#ef7e3f"/>
      <path id="Path_2665" data-name="Path 2665" d="M-841.983,306.307a28.857,28.857,0,0,0-3.69,12.4c-.045.646.966.6,1.011-.045a27.781,27.781,0,0,1,3.574-11.888C-840.765,306.21-841.663,305.741-841.983,306.307Z" transform="translate(845.674 -306.051)" fill="#ef7e3f"/>
    </g>
    <path id="Path_2666" data-name="Path 2666" d="M-815.177,267.249c-1.46-3.131-2.924-6.282-5.432-8.728a.4.4,0,0,0-.34-.1.4.4,0,0,0-.287.209L-828.92,275.9c-1.212,2.73-2.533,5.435-3.616,8.217a10.372,10.372,0,0,0-.588,6.935c1.234,3.971,5.923,7.2,10.107,5.681a4.06,4.06,0,0,0,1.945-1.49,14.805,14.805,0,0,1,1.024-1.6,3.531,3.531,0,0,1,2.411-.982c2.327-.168,4.576,1.118,6.889.326,2.239-.766,2.717-2.847,2.02-4.934a11.184,11.184,0,0,1,.352-7.506C-806.54,275.46-813.41,271.043-815.177,267.249Z" transform="translate(935.765 -240.081)" fill="#e58d5c"/>
    <path id="Path_2667" data-name="Path 2667" d="M-834.976,311.159c2.081-1.994,4.892-45.927,9.949-51.656a15.26,15.26,0,0,1,10.524-5.122c3.755-.349,8.156-.362,11.494,1.648a10.735,10.735,0,0,1,4.86,8.76c.165,2.7-1.984,19.966-5.173,25.214-2.113,3.48-4.288,6.5-5.219,10.628-.585,2.6-1.784,8.2-.061,9.49s10.822,4.689,10.822,4.689-19.9,11.833-32.7,10.389-13.247-10.1-13.247-10.1S-837.058,313.149-834.976,311.159Z" transform="translate(912.92 -249.483)" fill="#fdb688"/>
    <path id="Path_2668" data-name="Path 2668" d="M-785.422,286.486c-.9-1.451-2.242-2.495-2.792-4.168a13.939,13.939,0,0,1-.317-5.1c.155-2.779.359-5.755-1.441-8.091-1.574-2.045-4.02-3.092-6.02-4.637a7.926,7.926,0,0,1-2.882-4.194,8.168,8.168,0,0,0-2.246-4.062,6.28,6.28,0,0,0-8.036-.1,8.749,8.749,0,0,0-8.863-3.16,9.446,9.446,0,0,0-5.38,3.713,9.567,9.567,0,0,1-2.811,2.837,21.9,21.9,0,0,1-4.03,1.36c-1.713.553-3.538,1.519-4.162,3.325-.388,1.118-.117,2.314-.4,3.441-.343,1.367-1.515,2.029-2.388,3.025-1.338,1.532-1.1,3.361-.772,5.235a6.375,6.375,0,0,1-.075,3.839,7.79,7.79,0,0,1-2.669,2.621c-1.6,1.186-2.85,2.495-3.106,4.553-.278,2.275.566,4.43,1.141,6.589a10.478,10.478,0,0,1,.31,4.627c-.213,1.247-.578,2.469-.669,3.735-.126,1.726.317,3.765,1.9,4.734,1.852,1.134,4.091.271,5.842-.627,2.091-1.073,4.343-2.3,5.781-4.214a6.054,6.054,0,0,0,1.157-5.328c-.375-1.186-1.5-2.152-1.545-3.422-.052-1.5,1.438-2.016,2.433-2.85,3.06-2.569,1.687-6.013.666-9.413a6.7,6.7,0,0,0,2.963,2.446c.388.162.86-.368.459-.653a4.11,4.11,0,0,1-1.834-3.871,4.11,4.11,0,0,1,2.606-3.4c1.987-.83,3.6-1.357,4.136-3.69.614-2.676-.869-5.28-.478-7.956a3.772,3.772,0,0,1,1.819-2.744,3.772,3.772,0,0,1,3.281-.271,5.612,5.612,0,0,0-1.357,7.206,8.525,8.525,0,0,0,1.909,2.049,2.954,2.954,0,0,1,.821,4.062c-.688,1.467-1.48,3.176-.155,4.534.317.326.873-.142.608-.514-1.232-1.732,1.056-3.509,1.476-5.125a2.951,2.951,0,0,0-1.011-3.008c-1.412-1.341-2.931-2.249-2.879-4.469a4.056,4.056,0,0,1,2.8-3.71,2.46,2.46,0,0,1,1.926.6.413.413,0,0,0,.569-.026c1.225-1.244,3.06-.5,3.932.763A9.4,9.4,0,0,1-804,266.85a9.5,9.5,0,0,0,1.929,4.9,7.176,7.176,0,0,0,3.351,2.2c2.113,5.506-1.2,12.3,1.141,17.911a7.242,7.242,0,0,0,5.645,4.7,6.684,6.684,0,0,0,6.453-2.9,6.866,6.866,0,0,0,.059-7.175Z" transform="translate(912.608 -252.742)" fill="#e58d5c"/>
    <g id="Group_1137" data-name="Group 1137" transform="translate(72.264 1.73)">
      <path id="Path_2669" data-name="Path 2669" d="M-833.148,254.369v3.092c0,.5.785.469.785-.036q.005-1.546,0-3.092C-832.359,253.829-833.144,253.865-833.148,254.369Z" transform="translate(864.255 -251.727)" fill="#bc6337"/>
      <path id="Path_2670" data-name="Path 2670" d="M-819.079,266.8a4.809,4.809,0,0,1-5.968-.343c-1.729-1.557-1.561-3.813-1.8-5.929A5.972,5.972,0,0,0-832.383,255c-.252-.019-.233.375.016.391a5.506,5.506,0,0,1,4.743,3.425c.75,1.971.217,4.191,1.044,6.143a5.194,5.194,0,0,0,3.346,2.9,5.194,5.194,0,0,0,4.367-.733C-818.656,266.987-818.869,266.655-819.079,266.8Z" transform="translate(865.568 -249.43)" fill="#bc6337"/>
      <path id="Path_2671" data-name="Path 2671" d="M-822.739,258.5a5.988,5.988,0,0,1-6.918,2.653c-.242-.071-.33.31-.087.381a6.37,6.37,0,0,0,7.352-2.853C-822.261,258.469-822.61,258.288-822.739,258.5Z" transform="translate(871.535 -241.832)" fill="#bc6337"/>
      <path id="Path_2672" data-name="Path 2672" d="M-825.838,257.637a4.864,4.864,0,0,0-2.588-3.232,4.864,4.864,0,0,0-4.14-.068c-.229.1-.113.475.12.372a4.48,4.48,0,0,1,3.838.045,4.48,4.48,0,0,1,2.395,3C-826.148,258-825.776,257.879-825.838,257.637Z" transform="translate(865.285 -251.854)" fill="#bc6337"/>
      <path id="Path_2673" data-name="Path 2673" d="M-819.822,264.376c-1.351,1.357-3.438.859-4.692-.359a11.335,11.335,0,0,1-2.3-4.039c-.9-2.194-2.061-4.582-4.591-5.141a.2.2,0,0,0-.208.155.2.2,0,0,0,.12.23c3.755.824,4.02,5.429,5.888,8.1,1.338,1.916,4.129,3.267,6.071,1.318C-819.354,264.463-819.644,264.2-819.822,264.376Z" transform="translate(867.629 -249.81)" fill="#bc6337"/>
      <path id="Path_2674" data-name="Path 2674" d="M-825.154,259.571c-2.126.478-3.49-1.47-4.107-3.215-.087-.236-.459-.116-.375.12.7,1.981,2.249,4,4.6,3.47C-824.788,259.89-824.911,259.516-825.154,259.571Z" transform="translate(872.072 -246.695)" fill="#bc6337"/>
      <path id="Path_2675" data-name="Path 2675" d="M-819.714,275.127c-7.193-1-8.786-9.261-9.564-15.161-.033-.249-.427-.233-.391.016.472,3.577.96,7.332,2.85,10.482a10.059,10.059,0,0,0,7.018,5.047C-819.552,275.547-819.465,275.162-819.714,275.127Z" transform="translate(872.019 -238.753)" fill="#bc6337"/>
      <path id="Path_2676" data-name="Path 2676" d="M-825.609,269.978c-3.205-2.495-.41-7.241-1.645-10.537-.087-.236-.462-.116-.375.123,1.257,3.354-1.587,8.1,1.755,10.7C-825.677,270.424-825.409,270.133-825.609,269.978Z" transform="translate(876.547 -239.812)" fill="#bc6337"/>
      <path id="Path_2677" data-name="Path 2677" d="M-824.591,269.989a12.964,12.964,0,0,1-3.435-9.242c.01-.252-.381-.233-.391.019a13.339,13.339,0,0,0,3.561,9.51C-824.685,270.464-824.42,270.173-824.591,269.989Z" transform="translate(874.802 -237.011)" fill="#bc6337"/>
      <path id="Path_2678" data-name="Path 2678" d="M-822.707,270.854c-1.958-2.356-5.471-3.794-5.91-7.151-.033-.249-.427-.233-.394.019.362,2.756,2.679,4.3,4.614,5.991a10.387,10.387,0,0,1,3.7,8.091c0,.252.388.233.391-.019A10.57,10.57,0,0,0-822.707,270.854Z" transform="translate(873.487 -230.412)" fill="#bc6337"/>
      <path id="Path_2679" data-name="Path 2679" d="M-826.782,266.125c-.123-.22-.453-.006-.33.213a8.65,8.65,0,0,1,1.4,4.43,3.58,3.58,0,0,1-2.905,3.658c-.249.035-.233.43.02.394a3.806,3.806,0,0,0,3.167-3.092C-825.008,269.741-825.829,267.821-826.782,266.125Z" transform="translate(873.972 -224.817)" fill="#bc6337"/>
      <path id="Path_2680" data-name="Path 2680" d="M-827.2,273.215c-.63-3.193-2.982-6.136-2.055-9.516.068-.242-.317-.33-.381-.087-.7,2.572.436,4.98,1.338,7.342.924,2.43,1.6,5.881-1.047,7.529-.213.132,0,.462.213.33C-827.238,277.635-826.792,275.27-827.2,273.215Z" transform="translate(871.616 -230.54)" fill="#bc6337"/>
      <path id="Path_2681" data-name="Path 2681" d="M-826.494,266.8c-.071-.242-.443-.123-.375.12a10.526,10.526,0,0,1,.016,6.039c-.733,2.307-2.779,2.469-4.869,2.272-.249-.026-.339.359-.088.381,1.868.178,4,.194,5-1.7A10.061,10.061,0,0,0-826.494,266.8Z" transform="translate(866.914 -223.403)" fill="#bc6337"/>
      <path id="Path_2682" data-name="Path 2682" d="M-831.693,254.813a3.641,3.641,0,0,0-2.743.688c-.2.149.013.481.213.33a3.248,3.248,0,0,1,2.443-.633C-831.532,255.233-831.444,254.852-831.693,254.813Z" transform="translate(861.207 -249.942)" fill="#bc6337"/>
      <path id="Path_2683" data-name="Path 2683" d="M-822.8,254.8a7.874,7.874,0,0,0-7.428.454,7.874,7.874,0,0,0-3.733,6.439c-.039,1.693.834,3.386.452,5.07-.385,1.706-2.275,2.294-3.351,3.5a7.265,7.265,0,0,0-1.5,6.925.2.2,0,0,0,.238.1.2.2,0,0,0,.137-.217A6.829,6.829,0,0,1-835.8,269.8c.885-.7,1.965-1.218,2.466-2.3a5.316,5.316,0,0,0,.1-3.251,9.071,9.071,0,0,1-.058-4.375,7.627,7.627,0,0,1,2.071-3.467,7.537,7.537,0,0,1,8.24-1.26C-822.759,255.254-822.575,254.9-822.8,254.8Z" transform="translate(851.924 -251.481)" fill="#bc6337"/>
      <path id="Path_2684" data-name="Path 2684" d="M-826.132,254.795a9.8,9.8,0,0,0-10.744.174c-.207.145.007.475.214.333a9.41,9.41,0,0,1,10.347-.162C-826.1,255.279-825.922,254.93-826.132,254.795Z" transform="translate(855.756 -253.277)" fill="#bc6337"/>
      <path id="Path_2685" data-name="Path 2685" d="M-820.232,254.128a3.769,3.769,0,0,0-4.139,1.221c-1.28,1.457-1.6,3.464-2.136,5.257a7.982,7.982,0,0,1-4.178,5.047,17.617,17.617,0,0,0-4.692,3.015c-3.319,3.551.381,7.439,1.38,11.064.7,2.54-.333,4.395-2.42,5.781a17.346,17.346,0,0,0-4.227,3.244,9.588,9.588,0,0,0-.2,11.8c.149.2.481-.01.33-.213a9.2,9.2,0,0,1,.356-11.555c1.984-2.275,6.02-3.118,6.708-6.4.86-4.088-3.69-7.222-2.834-11.264.824-3.9,5.9-4.44,8.33-6.951,1.364-1.409,1.777-3.322,2.291-5.144.634-2.262,2.281-5.668,5.248-4.556C-820.181,254.564-820,254.218-820.232,254.128Z" transform="translate(842.777 -251.858)" fill="#bc6337"/>
      <path id="Path_2686" data-name="Path 2686" d="M-828.152,255.312c-.339,1.829-2.036,2.621-3.538,3.374a11.554,11.554,0,0,0-3.2,2.307,34.193,34.193,0,0,0-2.75,3.315,10.09,10.09,0,0,0-1.868,3.522,5.1,5.1,0,0,0,.278,3.519c.546,1.131,1.474,2.02,2.036,3.141a4.008,4.008,0,0,1-.782,4.54,8.49,8.49,0,0,1-4.524,2.236c-.246.058-.123.433.123.375,2.533-.6,5.383-1.887,5.929-4.731.569-2.973-2.688-4.569-2.853-7.364-.116-1.981,1-3.739,2.158-5.244a27.972,27.972,0,0,1,3.005-3.5,22.076,22.076,0,0,1,4.113-2.543,4.313,4.313,0,0,0,2.249-2.86C-827.725,255.154-828.107,255.063-828.152,255.312Z" transform="translate(843.106 -249.067)" fill="#bc6337"/>
      <path id="Path_2687" data-name="Path 2687" d="M-831.2,258.372a5.871,5.871,0,0,0-3.826,4.488c-.459,2.789,1.134,5.335,1.667,7.985a5.614,5.614,0,0,1-.717,4.55,8.865,8.865,0,0,1-2.84,2.233c-1.865,1.07-3.829,2.113-4.643,4.236a5.653,5.653,0,0,0,1.981,6.566c.2.149.468-.139.265-.291a5.3,5.3,0,0,1-2.179-4.3,5.3,5.3,0,0,1,2.2-4.286c1.819-1.4,4.268-2.1,5.622-4.052,1.671-2.411.582-5.39-.255-7.888-.572-1.713-1.112-3.567-.559-5.358a5.474,5.474,0,0,1,3.4-3.509C-830.84,258.66-830.96,258.285-831.2,258.372Z" transform="translate(844.676 -241.939)" fill="#bc6337"/>
      <path id="Path_2688" data-name="Path 2688" d="M-836.653,264.357a6.685,6.685,0,0,0-3.38,4.44,6.439,6.439,0,0,0,0,2.743c.3,1.415,1.079,3.464-.62,4.32-.226.113-.013.439.213.33,2.158-1.086.84-3.722.672-5.458a6.276,6.276,0,0,1,3.331-6.046C-836.217,264.567-836.43,264.237-836.653,264.357Z" transform="translate(847.293 -228.613)" fill="#bc6337"/>
    </g>
  </g>
</svg>
