<svg xmlns="http://www.w3.org/2000/svg" width="200.499" height="471.68" viewBox="0 0 200.499 471.68">
  <g id="Group_1144" data-name="Group 1144" transform="translate(0.001 -0.008)">
    <g id="Group_1139" data-name="Group 1139" transform="translate(99.049 93.636)">
      <path id="Path_2689" data-name="Path 2689" d="M-346.409,342.175l13.762-52.216-12.09-.748,3.737,3.732-11.6,25.043L-367.91,367.7l18.413-2.629Z" transform="translate(408.636 -267.766)" fill="#00396f"/>
      <path id="Path_2690" data-name="Path 2690" d="M-312.514,323.136l-3.92,4.409h-11.759l-42.872-11.269,4.115.482.439-1.175Z" transform="translate(401.588 -208.919)" fill="#f2e2df"/>
      <path id="Path_2691" data-name="Path 2691" d="M-342.119,317.921l12.376,93.995-24.878,10.65L-357.8,322.33l3.718-2.977Z" transform="translate(431.192 -203.704)" fill="#fc0"/>
      <path id="Path_2692" data-name="Path 2692" d="M-328.193,327.067l3.176,100.236-46.048-13.369V315.8Z" transform="translate(401.588 -208.441)" fill="#ffa300"/>
      <path id="Path_2693" data-name="Path 2693" d="M-368.149,326.615A30.732,30.732,0,0,1-357.215,313.9a.9.9,0,0,1,.63-.155.993.993,0,0,1,1.159-.171.993.993,0,0,1,.515,1.053,33.815,33.815,0,0,0-.743,8.8.974.974,0,0,1-.93.985.974.974,0,0,1-1.015-.9,36.11,36.11,0,0,1,.407-7.258,28.872,28.872,0,0,0-9.245,11.281C-366.96,328.674-368.676,327.75-368.149,326.615Z" transform="translate(407.871 -213.649)"/>
      <path id="Path_2694" data-name="Path 2694" d="M-352.842,333.5c3.8-2.478,4.517-8.986,4.353-13.248a36.455,36.455,0,0,0-3.739-14.609c-.388-.788-2.608,6.818-4.408,8.993a15.36,15.36,0,0,1-3.018,2.808c-1.1.766-2.314,1.212-3.448,1.884a2.121,2.121,0,0,0-1.167,2.7c.546,1.2,1.936,1.39,3.1,1.28a13.49,13.49,0,0,0,5.5-1.81s.236,4.149-1.674,6.537c-1.389,1.738-2.427,2.239-5.855,1.2-3.173-.966-1.919,2.149-1.545,2.372C-366.724,333.828-357.715,336.678-352.842,333.5Z" transform="translate(414.456 -231.231)" fill="#fdb688"/>
      <path id="Path_2695" data-name="Path 2695" d="M-363.127,313.023a1,1,0,0,1,.658-.562,1,1,0,0,1,.851.162A26.212,26.212,0,0,1-351.9,326.83l-2.078-.207a21.369,21.369,0,0,0-6.537-10.541,32.243,32.243,0,0,1,3.9,18.218c-.1,1.247-2.023.934-1.919-.307a30.069,30.069,0,0,0-5.222-19.453.986.986,0,0,1-.092-.927.986.986,0,0,1,.721-.59Z" transform="translate(417.49 -215.984)"/>
      <path id="Path_2696" data-name="Path 2696" d="M-312.874,307.4l-54.27-24.671-13.367,81.591,40.731,17.836,15.31-49.714Z" transform="translate(380.511 -282.225)" fill="#024d8c"/>
      <path id="Path_2697" data-name="Path 2697" d="M-376.374,283.079l54.27,24.671-3.737-3.732,12.09.748L-368.8,282.574l.45,1.914Z" transform="translate(389.741 -282.574)" fill="#edece8"/>
    </g>
    <path id="Path_2698" data-name="Path 2698" d="M-338.1,283.752l-22.736-12.8c-35.59,23.941-34.365,60.726-28.8,103.742,21.052,7.057,54.6,11.209,72.963,5.988,0,0,.4-31.864,1.858-35.247s10.431-6.773,8.776-15.824C-307.279,322.819-338.1,283.752-338.1,283.752Z" transform="translate(452.59 -214.876)" fill="#eecc8c"/>
    <path id="Path_2699" data-name="Path 2699" d="M-362.136,389.506c-3.277,8.87,2.772,31.887,5.273,31.958s1.263-9.594,3.5-9.982c1.257-.216,4.908,6.624,11.823,9.187,4.776,1.771,14.606,3.251,7.645-5.367-4.43-5.487-8.87-12.1-8.87-12.1Z" transform="translate(518.44 49.661)" fill="#a36361"/>
    <path id="Path_2700" data-name="Path 2700" d="M-345.013,384.018l-19.091,2.857s3.5,12.547,4.24,14.877c3.558,11.213,21.517,19.191,19.369,13.694C-341.627,412.557-345.013,384.018-345.013,384.018Z" transform="translate(516.168 37.416)" fill="#fdb688"/>
    <path id="Path_2701" data-name="Path 2701" d="M-394.169,382.072c-8.259,4.6-18.632,26.022-16.777,27.7s7.2-6.469,9.148-5.309c1.092.653,1,9.2,3.079,15.407,1.622,4.828,8.059,10.292,8.379-.785a73.967,73.967,0,0,1,1.974-14.021Z" transform="translate(411.163 33.074)" fill="#a36361"/>
    <path id="Path_2702" data-name="Path 2702" d="M-381.01,388.66l-15.743-11.041s-7.267,12.137-8.221,14.389c-4.592,10.828,3.865,28.568,5.8,23C-398.149,412.075-381.01,388.66-381.01,388.66Z" transform="translate(421.968 23.137)" fill="#fdb688"/>
    <g id="Group_1140" data-name="Group 1140" transform="translate(74.609)">
      <path id="Path_2703" data-name="Path 2703" d="M-351.412,257.155c9.419.469,6.831,35.532-8.569,41.7-8.773,3.516-20.128-1.464-20.128-1.464S-357.17,256.871-351.412,257.155Z" transform="translate(405.847 -245.66)" fill="#dd7440"/>
      <path id="Path_2704" data-name="Path 2704" d="M-382.768,304.743c.162,2.2,22.464,15.064,22.736,12.8,1.108-9.219,3.842-21.9,5.671-22.493,4.162-1.341,5.674-10.385,5.674-10.385s2.879,2.139,4.492,1.761c.847-.2-1.141-2.4-1.4-7.186-.229-4.327,1.348-11.084.711-14.644-1.344-7.5-12.059-9.772-15.943-8.427-4.246,1.473-7.548,4.854-10.172,8.389C-376.723,272.269-382.856,303.571-382.768,304.743Z" transform="translate(399.911 -248.669)" fill="#fdb688"/>
      <path id="Path_2705" data-name="Path 2705" d="M-387.537,305.163c.979,2.1,3.176,3.344,5.319,3.962,2.879.834,5.981.679,8.941.569,5.118-.191,10.663-.666,14.906-3.829,4.621-3.445,6.214-9.4,7.978-14.6q1.653-4.861,3.3-9.723c.956-2.814,1.751-5.984,3.836-8.214,3.07-3.283,7.548-3.965,9.616-8.24-1-4.55-9.542-9.717-14.438-10.928a20.747,20.747,0,0,0-14.993,2.142,20.394,20.394,0,0,0-6,5.1,39.669,39.669,0,0,0-4.592,8q-4.294,9.2-8.544,18.412-2.118,4.595-4.227,9.193C-387.589,299.521-388.8,302.449-387.537,305.163Z" transform="translate(388.074 -253.597)" fill="#dd7440"/>
    </g>
    <path id="Path_2706" data-name="Path 2706" d="M-286.493,310.485a103.088,103.088,0,0,1-5.726,38.314s33.674,72.521,36.708,90.232,10.114,124.658,7.526,128.377-19.533,7.581-23.3,2.155S-294.78,467.718-297.01,460.771s-17.249-27.02-17.249-27.02.394,17.239-5.118,29.8-60.655,99.328-66.362,101.813-20.009-10.017-20.16-16.066,41.784-92.739,43.694-100.417-4.181-60.138-6.388-70.908c-1.121-5.474-5.477-18.99-4.87-33.46.588-14.011,7.493-26.494,13.475-39.325Z" transform="translate(422.914 -138.484)" fill="#5f8fb7"/>
    <path id="Path_2707" data-name="Path 2707" d="M-391.663,303.055l-.026,6.886c12.786,6.062,56.771,8.948,73.493,5.3l-.5-6.2C-342.24,312.116-372.976,308.9-391.663,303.055Z" transform="translate(454.617 -143.239)" fill="#0b4875"/>
    <g id="Group_1143" data-name="Group 1143" transform="translate(34.925 67.416)">
      <g id="Group_1141" data-name="Group 1141" transform="translate(0 169.71)">
        <path id="Path_2708" data-name="Path 2708" d="M-389.94,341.985a15.459,15.459,0,0,1,10.835-14.176c6.081-1.923,14.564-.679,18.884,5.6,2.21,3.215,3.167,6.876,4,10.437.43,1.839-2.469,1.961-2.9.129-1.218-5.225-2.941-11.261-8.99-13.345-5.829-2.01-12.234-.255-15.7,3.784a13.573,13.573,0,0,0-3.189,8.2C-387.09,344.425-390.034,343.789-389.94,341.985Z" transform="translate(423.589 -326.98)"/>
        <path id="Path_2709" data-name="Path 2709" d="M-316.29,338.7V449.676l-84.065-8.1,4.287-109.07Z" transform="translate(400.355 -314.644)" fill="#00adb0"/>
        <path id="Path_2710" data-name="Path 2710" d="M-374.339,340.51l8.454-3.89-4.881-4.921,7.977,4.949,5.359,96.977-16.909,17.861Z" transform="translate(458.405 -316.454)" fill="#18d1d1"/>
        <path id="Path_2711" data-name="Path 2711" d="M-396.846,336.126l-1.82-3.187,9.607-1.948,72.574,2.282,4.881,4.921-8.454,3.89Z" transform="translate(404.123 -318.03)" fill="#edece8"/>
        <path id="Path_2712" data-name="Path 2712" d="M-391.093,350.575c2.74-7.836,6.11-16.338,13.523-20.839a16.694,16.694,0,0,1,13.316-2.12,13.437,13.437,0,0,1,9.064,8.857c1.683,5.18.759,10.663,1.641,15.947a2.18,2.18,0,0,1,1.115,1.729,2.264,2.264,0,0,1-2.045,2.414,2.287,2.287,0,0,1-2.417-2.049,2.329,2.329,0,0,1,.678-1.787c-.608-4.165-.249-8.392-.892-12.563-.624-4.023-2.524-7.6-6.34-9.355a13.4,13.4,0,0,0-12.011.843,22.157,22.157,0,0,0-8.078,8.292,62.466,62.466,0,0,0-4.84,11.071,2.159,2.159,0,0,1,.611,1.338,2.264,2.264,0,0,1-2.049,2.414,2.286,2.286,0,0,1-2.414-2.049,2.337,2.337,0,0,1,1.138-2.143Z" transform="translate(418.469 -326.884)"/>
        <path id="Path_2713" data-name="Path 2713" d="M-399.028,335.894l2.99.232-1.82-3.187,9.607-1.948-10.777.845Z" transform="translate(403.315 -318.03)" fill="#00adb0"/>
      </g>
      <path id="Path_2714" data-name="Path 2714" d="M-367.818,371.7c-.343-2.763,3.063-50.383,2.395-64.646s-24.752-9.387-24.18,2.808c.614,13.164,5.978,45.539,6.447,64.433-.611,2.734-3.5,9-3.254,13.025.149,2.427.721,10.308,2.233,12.2.43.536,2.52,1.587,3.926.271a3.12,3.12,0,0,0,4.317.275c1.257.711,3.693.931,4.8-.3.924.763,3.8.882,4.449-1.124,1.05-3.26,1.923-13.455.578-18.545a71.188,71.188,0,0,1-1.711-8.4Z" transform="translate(424.322 -221.198)" fill="#fdb688"/>
      <path id="Path_2715" data-name="Path 2715" d="M-389.232,362.93c.982,4.947,23.556,5.581,25.117-2.676,2.65-14,7.716-72.249,5.6-76.647-1.968-4.091-5.312-7.833-9.9-8.886-4.385-1-8.518.982-11.323,4.324-3.4,4.042-4.821,9.565-6.4,14.5C-387.907,299.05-391.632,350.865-389.232,362.93Z" transform="translate(423.429 -274.46)" fill="#eecc8c"/>
      <g id="Group_1142" data-name="Group 1142" transform="translate(42.452 167.881)">
        <path id="Path_2716" data-name="Path 2716" d="M-384.175,326.708c.029-.372.611-.4.585-.029a33.993,33.993,0,0,0,.756,10.033c.084.365-.472.543-.556.178a34.575,34.575,0,0,1-.785-10.182Z" transform="translate(393.809 -326.414)"/>
        <path id="Path_2717" data-name="Path 2717" d="M-385.712,326.718c.026-.368.611-.4.585-.026a34.555,34.555,0,0,0,.821,10.34c.084.365-.472.543-.559.174a35.218,35.218,0,0,1-.847-10.488Z" transform="translate(390.387 -326.385)"/>
        <path id="Path_2718" data-name="Path 2718" d="M-387.009,326.791c.052-.372.62-.239.569.129a19.14,19.14,0,0,0,1.044,9.516c.132.352-.423.523-.556.175a19.7,19.7,0,0,1-1.057-9.82Z" transform="translate(387.217 -326.067)"/>
      </g>
    </g>
  </g>
</svg>
