<svg xmlns="http://www.w3.org/2000/svg" width="209.981" height="305.979" viewBox="0 0 209.981 305.979">
  <g id="Group_1183" data-name="Group 1183" transform="translate(-0.028 -0.008)">
    <path id="Path_3044" data-name="Path 3044" d="M-672.641,555.511A5.486,5.486,0,0,1-678.128,561a5.486,5.486,0,0,1-5.487-5.488,5.486,5.486,0,0,1,5.487-5.486,5.486,5.486,0,0,1,5.487,5.486Z" transform="translate(727.118 -255.013)" fill="#735a42"/>
    <path id="Path_3045" data-name="Path 3045" d="M-672.214,555.511A5.486,5.486,0,0,1-677.7,561a5.489,5.489,0,0,1-5.49-5.488,5.489,5.489,0,0,1,5.49-5.486,5.486,5.486,0,0,1,5.486,5.485Z" transform="translate(728.065 -255.013)" fill="#9e7c5a"/>
    <path id="Path_3046" data-name="Path 3046" d="M-677.127,553.509a2.583,2.583,0,0,1-2.582,2.582,2.581,2.581,0,0,1-2.582-2.582,2.578,2.578,0,0,1,.755-1.827,2.579,2.579,0,0,1,1.827-.755,2.581,2.581,0,0,1,2.582,2.582Z" transform="translate(730.073 -252.998)" fill="#5cafd6"/>
    <path id="Path_3047" data-name="Path 3047" d="M-658.937,547.871q-1.212,2.234-2.42,4.466l-5.955.187q-.31,3.815-.627,7.629l-6.072.139q-.276-3.791-.556-7.584l-5.771-.184q-1.115-2.327-2.233-4.653Z" transform="translate(729.448 -259.817)" fill="#a1e1ff"/>
    <path id="Path_3048" data-name="Path 3048" d="M-664.835,552.629h-16.237a.537.537,0,0,1-.533-.536h0a.536.536,0,0,1,.533-.536h16.237a.536.536,0,0,1,.533.536h0a.537.537,0,0,1-.533.536Z" transform="translate(731.601 -251.594)" fill="#a1e1ff"/>
    <path id="Path_3049" data-name="Path 3049" d="M-671.095,552.811c0,.866-2.078,1.567-4.64,1.567s-4.64-.7-4.64-1.567,2.078-1.571,4.64-1.571S-671.095,551.941-671.095,552.811Z" transform="translate(734.348 -252.299)" fill="#a1e1ff"/>
    <path id="Path_3050" data-name="Path 3050" d="M-667.212,555.511A5.486,5.486,0,0,1-672.7,561a5.489,5.489,0,0,1-5.49-5.488,5.489,5.489,0,0,1,5.49-5.486,5.486,5.486,0,0,1,5.488,5.485Z" transform="translate(739.225 -255.013)" fill="#735a42"/>
    <path id="Path_3051" data-name="Path 3051" d="M-666.787,555.511a5.489,5.489,0,0,1-5.49,5.487,5.486,5.486,0,0,1-5.487-5.488,5.486,5.486,0,0,1,5.487-5.486,5.489,5.489,0,0,1,5.49,5.488Z" transform="translate(740.174 -255.013)" fill="#9e7c5a"/>
    <circle id="Ellipse_116" data-name="Ellipse 116" cx="2.512" cy="2.512" r="2.512" transform="translate(65.486 297.928)" fill="#82cdf0"/>
    <path id="Rectangle_551" data-name="Rectangle 551" d="M0,0H3.27V8.125H.366A.366.366,0,0,1,0,7.759Z" transform="translate(53.423 290.948)" fill="#82cdf0"/>
    <path id="Path_3052" data-name="Path 3052" d="M-641.246,555.511a5.489,5.489,0,0,1-5.49,5.487,5.486,5.486,0,0,1-5.487-5.488,5.486,5.486,0,0,1,5.487-5.486,5.489,5.489,0,0,1,5.49,5.488Z" transform="translate(797.164 -255.013)" fill="#735a42"/>
    <path id="Path_3053" data-name="Path 3053" d="M-640.824,555.511A5.486,5.486,0,0,1-646.311,561a5.486,5.486,0,0,1-5.487-5.488,5.486,5.486,0,0,1,5.487-5.486,5.486,5.486,0,0,1,5.487,5.486Z" transform="translate(798.113 -255.013)" fill="#9e7c5a"/>
    <path id="Path_3054" data-name="Path 3054" d="M-645.735,553.509a2.583,2.583,0,0,1-2.582,2.582,2.583,2.583,0,0,1-2.582-2.582,2.581,2.581,0,0,1,2.582-2.582A2.581,2.581,0,0,1-645.735,553.509Z" transform="translate(800.118 -252.998)" fill="#5cafd6"/>
    <path id="Path_3055" data-name="Path 3055" d="M-627.547,547.871q-1.207,2.234-2.42,4.466l-5.952.187-.63,7.629-6.068.139q-.281-3.791-.559-7.584l-5.768-.184q-1.12-2.327-2.233-4.653Z" transform="translate(799.496 -259.817)" fill="#a1e1ff"/>
    <path id="Path_3056" data-name="Path 3056" d="M-639.213,496.733a7.152,7.152,0,0,0,.317,3.206,13.489,13.489,0,0,0,2.12,3.616c1.2,1.658,1.383,1.538,1.851,2.511.533,1.105.611,1.926,1.193,2.074a1.36,1.36,0,0,0,1.25-.6c.64-.85.3-2.44-.879-3.974q1.9,1.182,3.81,2.362c-.6.572-.543.927-.52,1.024.116.465.879.624,2.013.859.853.178,1.28.265,1.616.107,1.008-.482.911-2.352.908-2.43.061-.708.139-1.722.194-2.947a14.537,14.537,0,0,0-.01-3.706c-.165-.549-.666-1.893-3.639-4.055a26.6,26.6,0,0,0-6.7-3.519Q-637.45,494-639.213,496.733Z" transform="translate(826.077 -386.121)" fill="#fcb6a1"/>
    <path id="Path_3057" data-name="Path 3057" d="M-599.348,515.469c-4.236-3.829-8.789-7.723-13.678-11.63-7.978-6.379-15.769-11.924-23.165-16.748q-7.261-2.835-14.515-5.674-1.677,7.813-3.351,15.63l11.445,1.49a97.6,97.6,0,0,0,8.282,5.955c6.11,3.929,10.007,5.471,16.561,8.931,3.428,1.813,8.266,4.511,13.956,8.188Q-601.585,518.539-599.348,515.469Z" transform="translate(793.07 -408.097)" fill="#fcb6a1"/>
    <path id="Path_3058" data-name="Path 3058" d="M-683.413,495a7.245,7.245,0,0,0-.029-3.218,13.608,13.608,0,0,0-1.794-3.794c-1.04-1.755-1.238-1.655-1.619-2.663-.433-1.15-.436-1.974-1-2.175a1.367,1.367,0,0,0-1.3.481c-.711.788-.514,2.4.52,4.036q-1.788-1.347-3.58-2.692c.646-.514.62-.872.6-.973-.074-.475-.817-.7-1.926-1.037-.834-.252-1.251-.375-1.6-.249-1.047.391-1.118,2.262-1.121,2.339-.123.7-.291,1.7-.456,2.918a14.571,14.571,0,0,0-.32,3.693c.116.559.494,1.945,3.26,4.362a26.554,26.554,0,0,0,6.362,4.1Z" transform="translate(697.078 -405.302)" fill="#fcb6a1"/>
    <path id="Path_3059" data-name="Path 3059" d="M-695.052,491.243c3.784,4.588,8.088,9.4,12.974,14.273a199.938,199.938,0,0,0,21.433,18.57,14.2,14.2,0,0,0,7.516,1.141,14.519,14.519,0,0,0,8.851-4.7l6.417-9.49q-6.383-3.688-12.764-7.383l-4.262,5.558c-1.606-.979-3.764-2.314-6.3-3.916-3.464-2.194-8.873-5.949-15.7-10.373-3.254-2.11-7.833-5.228-13.171-9.4Q-692.552,488.382-695.052,491.243Z" transform="translate(701.599 -398.927)" fill="#fcb6a1"/>
    <path id="Path_3060" data-name="Path 3060" d="M-659.008,543.89q-.722,2.171-1.444,4.349a18.944,18.944,0,0,1-4.9.288c-5.564-.407-8.97-3.228-9.888-2.217-.617.679.317,2.627,1.112,3.777,3.833,5.526,13.077,4.879,14.877,4.724a10.723,10.723,0,0,0,2.9.963c1.348.242,2.21.4,2.957.013.63-.326,1.254-1.079,1.784-5.232a51.376,51.376,0,0,0,.4-5.994Q-655.107,544.228-659.008,543.89Z" transform="translate(745.355 -268.7)" fill="#18393b"/>
    <path id="Path_3061" data-name="Path 3061" d="M-634.707,537.07l4.582-.01a18.628,18.628,0,0,1,1.829,4.553c1.38,5.409-.213,9.532,1.034,10.082.844.372,2.394-1.134,3.231-2.252,4.023-5.39.478-13.95-.239-15.607a10.754,10.754,0,0,0-.007-3.057c-.2-1.354-.329-2.22-.927-2.8-.511-.494-1.422-.847-5.526-.032a50.706,50.706,0,0,0-5.813,1.519Q-635.627,533.265-634.707,537.07Z" transform="translate(832.151 -305.367)" fill="#18393b"/>
    <path id="Path_3062" data-name="Path 3062" d="M-663.617,531.7q15.816,22.887,31.635,45.775,29.586,2.235,59.172,4.466a9.263,9.263,0,0,0,2.976-6.327,9.371,9.371,0,0,0-2.976-7.07l-42.424-12.282q-10.61-24-21.214-48.008A67.172,67.172,0,0,0-656.172,522.4,65.828,65.828,0,0,0-663.617,531.7Z" transform="translate(771.74 -348.22)" fill="#49465c"/>
    <path id="Path_3063" data-name="Path 3063" d="M-666.31,518.329q4.653,6.563,9.309,13.122-1.5,9.854-2.937,19.782-6.092,41.941-10.912,82.867a32.93,32.93,0,0,0,5.3,1.758,33.258,33.258,0,0,0,5.209.83,353.67,353.67,0,0,0,21.892-44.156,353.917,353.917,0,0,0,18.57-59.566,22.515,22.515,0,0,0,4.091-10.23c1.221-9.513-4.323-16.515-5.474-17.9Q-643.784,511.579-666.31,518.329Z" transform="translate(755.601 -355.851)" fill="#55526b"/>
    <path id="Path_3064" data-name="Path 3064" d="M-629.978,477.567c3.309,6.514,6.521,13.507,9.529,20.991a268.225,268.225,0,0,1,17.9,72.886,73.88,73.88,0,0,1-15.64,9.41,76.013,76.013,0,0,1-35.166,6.243q-1.74-8.129-3.661-16.386c-5.7-24.435-12.227-47.7-19.32-69.768a9.62,9.62,0,0,1,2.785-10.2,54.782,54.782,0,0,1,15.349-9.565,55.179,55.179,0,0,1,28.224-3.616Z" transform="translate(742.309 -417.777)" fill="#a67354"/>
    <path id="Path_3065" data-name="Path 3065" d="M-621.768,509.33l-38.472-4.53a57.9,57.9,0,0,1-4.834-13.623,57.806,57.806,0,0,1-1.328-11.7,18.481,18.481,0,0,1,6.489-2.229,19.477,19.477,0,0,1,8.375.766c5.671,1.638,19.075,6.718,36.469,14.289a11.556,11.556,0,0,1,1.4,9.771C-615.6,507.808-621.435,509.256-621.768,509.33Z" transform="translate(765.526 -417.776)" fill="#a67354"/>
    <path id="Path_3066" data-name="Path 3066" d="M-666.9,530.406l27.89-26.881a57.591,57.591,0,0,0-4.391-13.772,57.6,57.6,0,0,0-6.017-10.117,18.487,18.487,0,0,0-6.514,2.152,19.46,19.46,0,0,0-6.207,5.671c-3.522,4.737-11.125,16.89-20.4,33.441a11.565,11.565,0,0,0,4.8,8.625C-672.735,532.926-667.213,530.548-666.9,530.406Z" transform="translate(729.526 -412.074)" fill="#a67354"/>
    <path id="Path_3067" data-name="Path 3067" d="M-674.583,485.316a13.651,13.651,0,0,1-6.169-6.553c-2.146-5.112-.646-11.439,3.81-16.04Q-675.759,474.021-674.583,485.316Z" transform="translate(731.352 -449.81)" fill="#7a5842"/>
    <path id="Path_3068" data-name="Path 3068" d="M-674.029,476.424a48.444,48.444,0,0,0,.989,8.266,48.46,48.46,0,0,0,2.223,7.522,17.27,17.27,0,0,0,3.916,3.716,17.438,17.438,0,0,0,3.535,1.861q5.206-5.855,10.4-11.707-2.113-6.064-4.223-12.127Z" transform="translate(748.508 -424.748)" fill="#fcab92"/>
    <path id="Path_3069" data-name="Path 3069" d="M-677.946,468.267a52.724,52.724,0,0,0-2.679,18.431c.249,6.879.491,13.649,5.454,19.391.856.992,5.506,6.372,12.825,7.07,9.807.934,18.69-7.089,22.067-15.3,4.718-11.474.343-27.373-11.914-33.024C-660.232,461.129-670.123,462.541-677.946,468.267Z" transform="translate(733.719 -449.677)" fill="#fcb6a1"/>
    <path id="Path_3070" data-name="Path 3070" d="M-637.335,494.586c.679-1.118,1.645-2.792,2.669-4.9.507-1.047,6.463-13.455,3.823-15.371-.372-.271-1.07-.449-2.517.158a21.067,21.067,0,0,0-1.626-3.671c-3.849-6.812-11.6-11.42-19.624-12.014a25.687,25.687,0,0,0-14.437,3.361q1.8-2.007,1.464-2.478-.451-.625-4.653,1.444c.194-.569.359-1.263.071-1.5-.763-.611-4.246,2.3-5.6,3.806-5.015,5.561-2.507,15.785-1.415,19.537q2.714-.145,5.552-.433a118.461,118.461,0,0,0,24.765-5.264,17.107,17.107,0,0,0,1.661,8.634,17.857,17.857,0,0,0,9.867,8.691Z" transform="translate(733.435 -458.727)" fill="#7a5842"/>
    <path id="Path_3071" data-name="Path 3071" d="M-668.036,479.917a5.892,5.892,0,0,0,4.02.339c3.112-.96,5.141-5,3.91-8a5.155,5.155,0,0,0-4-3.1,5.216,5.216,0,0,0-4.359,2.155Q-668.249,475.62-668.036,479.917Z" transform="translate(760.93 -435.479)" fill="#fcb6a1"/>
    <path id="Path_3072" data-name="Path 3072" d="M-527.806,551.514h-158.8a2.288,2.288,0,0,1-2.288-2.288h0a2.29,2.29,0,0,1,2.288-2.291h158.8a2.291,2.291,0,0,1,2.288,2.291h0A2.288,2.288,0,0,1-527.806,551.514Z" transform="translate(715.333 -261.905)" fill="#ffc898"/>
    <path id="Path_3073" data-name="Path 3073" d="M-633.443,552.629h-16.234a.537.537,0,0,1-.536-.536h0a.537.537,0,0,1,.536-.536h16.234a.537.537,0,0,1,.536.536h0a.537.537,0,0,1-.536.536Z" transform="translate(801.647 -251.594)" fill="#a1e1ff"/>
    <path id="Path_3074" data-name="Path 3074" d="M-639.7,552.811c0,.866-2.078,1.567-4.64,1.567s-4.64-.7-4.64-1.567,2.078-1.571,4.64-1.571S-639.7,551.941-639.7,552.811Z" transform="translate(804.394 -252.299)" fill="#a1e1ff"/>
    <path id="Path_3075" data-name="Path 3075" d="M-635.822,555.511A5.486,5.486,0,0,1-641.309,561a5.486,5.486,0,0,1-5.487-5.488,5.486,5.486,0,0,1,5.487-5.486,5.486,5.486,0,0,1,5.487,5.486Z" transform="translate(809.273 -255.013)" fill="#735a42"/>
    <path id="Path_3076" data-name="Path 3076" d="M-635.4,555.511A5.486,5.486,0,0,1-640.882,561a5.489,5.489,0,0,1-5.49-5.488,5.489,5.489,0,0,1,5.49-5.486,5.486,5.486,0,0,1,5.487,5.486Z" transform="translate(810.22 -255.013)" fill="#9e7c5a"/>
    <path id="Path_3077" data-name="Path 3077" d="M-640.4,553.438a2.511,2.511,0,0,1-2.511,2.511,2.512,2.512,0,0,1-2.514-2.511,2.512,2.512,0,0,1,2.514-2.511,2.511,2.511,0,0,1,2.511,2.511Z" transform="translate(812.344 -252.998)" fill="#82cdf0"/>
    <path id="Rectangle_552" data-name="Rectangle 552" d="M0,0H3.271V8.125H.366A.366.366,0,0,1,0,7.759Z" transform="translate(154.862 290.948)" fill="#82cdf0"/>
    <path id="Path_3078" data-name="Path 3078" d="M-662.48,476.566q2.792,1.042,5.581,2.091a30.177,30.177,0,0,1-1.254,6.421,30.633,30.633,0,0,1-5.723,10.466q-3.209-2.928-6.421-5.862Q-666.39,483.124-662.48,476.566Z" transform="translate(756.835 -418.922)" fill="#91644a"/>
    <path id="Path_3079" data-name="Path 3079" d="M-666.106,485.1q-.839,3.907-1.674,7.816a32.437,32.437,0,0,1-3.118-4.094,32.318,32.318,0,0,1-3.07-6.143l2.094-3.906Z" transform="translate(748.644 -414.008)" fill="#91644a"/>
  </g>
</svg>
