<svg xmlns="http://www.w3.org/2000/svg" width="138.785" height="401.299" viewBox="0 0 138.785 401.299">
  <g id="Group_1174" data-name="Group 1174" transform="translate(0 0)">
    <path id="Path_2900" data-name="Path 2900" d="M-527.493,463.034a18.345,18.345,0,0,1,6.01.911,19.757,19.757,0,0,1,8.2,5.464c3.664,3.865,12.764,10.964,30.778,23.308a121.615,121.615,0,0,0,7.1-15.294,122.874,122.874,0,0,0,7.468-31.5,12.483,12.483,0,0,1,7.83-.546,12.358,12.358,0,0,1,5.645,3.277,120.5,120.5,0,0,1,.365,21.126s-2.071,24.739-16.108,46.276a5.548,5.548,0,0,1-6.553,2.194c-4.478-1.622-9.141-3.5-13.943-5.677a192.118,192.118,0,0,1-35.69-21.123,99.227,99.227,0,0,1-1.641-17.119A99.835,99.835,0,0,1-527.493,463.034Z" transform="translate(585.632 -396.643)" fill="#f77990"/>
    <path id="Path_2901" data-name="Path 2901" d="M-498.044,468.814a16.476,16.476,0,0,1,.481-3.758,16.823,16.823,0,0,1,1.438-3.758c1.011-1.981,2.414-5.054,4.479-10.153,3.781-5.293,4.33-6.66,4.078-6.876-.346-.3-2.33,1.409-3.2,2.239a16.657,16.657,0,0,0-2.718,3.357,14.087,14.087,0,0,1,1.276-4.479c1.134-2.349,2.656-3.716,2.478-5.917a4.63,4.63,0,0,0-.317-1.357c.588-.753.872-1.461.637-1.761-.333-.423-1.619.116-1.916.239a8.734,8.734,0,0,0-3.839,3.68c-1.667,2.572-3.025,4.789-4.078,6.556a15.6,15.6,0,0,1,.158-2.559c.659-4.5,3.092-7.219,2.559-7.678-.31-.265-1.483.385-2.4,1.28-2.087,2.042-2.013,4.537-2.96,8.075a28.945,28.945,0,0,1-2.479,6.24,5.26,5.26,0,0,1-1.438-1.761c-.62-1.26-.246-1.9-.721-3.357-.475-1.477-1.6-3.1-2.4-2.96-.491.087-.8.827-.879,1.36a3.488,3.488,0,0,0,.8,2.32c1.073,1.784.546,3.538.559,5.277.016,1.813.63,4.488,3.438,8.075q-.6,2.559-1.2,5.115a9.722,9.722,0,0,0,4.078,2.32,9.64,9.64,0,0,0,4.086.241Z" transform="translate(626.3 -416.246)" fill="#fcb6a1"/>
    <path id="Path_2902" data-name="Path 2902" d="M-489.735,433.252a34.13,34.13,0,0,1,2.459,4.5c3.383,7.5,3.063,14.118,3.141,17.62.12,5.335,1.373,13.064,6.692,22.946a44.006,44.006,0,0,1-3.687,2.73c-20.193,13.381-46.706,6.828-60.1,2.323-.346-2.323-2.944-21.983,11.746-37.286C-513.517,429.458-491.509,432.939-489.735,433.252Z" transform="translate(555.341 -423.948)" fill="#e3dabf"/>
    <path id="Path_2903" data-name="Path 2903" d="M-498.322,490.484c.184,5.723.372,13.73.359,23.291-.013,9.82-.236,19-.6,27.534-.126,2.982-.336,7.878-.721,14.214,0,0-1.3,21.463-3.845,41.881-4.714,37.878-16.037,82.47-17.329,87.514a3.9,3.9,0,0,1-2.595,1.092,3.927,3.927,0,0,1-2.869-1.228,168.1,168.1,0,0,1-4.13-22.325,173.052,173.052,0,0,1,5.3-65.906q-1.464-19.887-2.349-40.938-.945-22.854-1.06-44.421Q-513.241,500.836-498.322,490.484Z" transform="translate(578.68 -295.104)" fill="#fcb6a1"/>
    <path id="Path_2904" data-name="Path 2904" d="M-517.792,489.719q-1.847,7.634-3.519,15.54a544.785,544.785,0,0,0-10.77,80.5,246.315,246.315,0,0,0-10.2,56.464,245.9,245.9,0,0,0,1.134,43.216,3.523,3.523,0,0,0,2.928,2.5,3.518,3.518,0,0,0,3.267-1.445q9.34-34.53,19.54-69.839,14.318-49.541,29.266-96.914Z" transform="translate(552.807 -296.811)" fill="#fcb6a1"/>
    <path id="Path_2905" data-name="Path 2905" d="M-469.643,630.873c-10.056,9.536-18.516,11.371-23.127,11.743-.769.061.11-.042-13.84-.9-8.043-.494-11.184-.637-15.3-2.708-3.338-1.68-3.687-2.8-7.284-4.97a32.032,32.032,0,0,0-13.843-4.514q.349-20.881,1.276-42.679c1.464-33.977,3.932-66.313,7.1-96.878l63.919-.679q1.662,15.045,2.73,31.163a697.469,697.469,0,0,1-1.631,110.422Z" transform="translate(552.185 -297.784)" fill="#78442b"/>
    <path id="Path_2906" data-name="Path 2906" d="M-538.816,457.682a53.841,53.841,0,0,1,25.492-7.649,53.923,53.923,0,0,1,26.591,5.826c.969,15.152,4.3,25.76,7.283,32.779,1.635,3.858,4.437,9.633,3.642,17.119a28.419,28.419,0,0,1-5.1,13.113,190,190,0,0,0,2.184,38.243,189.477,189.477,0,0,0,5.464,24.038,64.153,64.153,0,0,1-23.673,9.106c-21.485,3.587-38.427-5.138-44.072-8.379Q-539.909,519.779-538.816,457.682Z" transform="translate(556.712 -385.461)" fill="#f77990"/>
    <path id="Path_2907" data-name="Path 2907" d="M-533.292,466.857l-2.517-23.265q10,1.071,20,2.139a115.781,115.781,0,0,1,3.8,21.488c.536,6.64,1.894,23.5-2.294,24.859C-516.046,492.643-520.57,491.118-533.292,466.857Z" transform="translate(568.304 -399.736)" fill="#f7a88f"/>
    <path id="Path_2908" data-name="Path 2908" d="M-498.887,437.478a139.388,139.388,0,0,1,2.63,21c.207,4.214.207,8.2.068,11.94a23.508,23.508,0,0,1-4.463,8.618,25.03,25.03,0,0,1-10.909,7.6,35.635,35.635,0,0,1-12.677-4.618,34.317,34.317,0,0,1-11.478-11.306,86.979,86.979,0,0,1-1.674-11.31,87.337,87.337,0,0,1,.957-21.7,34.922,34.922,0,0,1,13.39-5.077A37.1,37.1,0,0,1-498.887,437.478Z" transform="translate(564.145 -425.095)" fill="#fcb6a1"/>
    <path id="Path_2909" data-name="Path 2909" d="M-483.767,440.005a48.444,48.444,0,0,1-6.556,6.417c-11.662,9.435-24.93,11.158-31.958,11.474a41.483,41.483,0,0,1,1.363,8.059,45.465,45.465,0,0,1-6.282,25.676,19.6,19.6,0,0,1-4.915.271,20.974,20.974,0,0,1-11.2-4.369q1.91-4.736,3.687-9.833a215.42,215.42,0,0,0,9.151-36.33A31.634,31.634,0,0,1-511.9,430.444C-496.156,427.726-484.836,438.913-483.767,440.005Z" transform="translate(551.558 -430.02)" fill="#f5eed8"/>
    <path id="Path_2910" data-name="Path 2910" d="M-503.269,482.56a51.23,51.23,0,0,1-8.469,4.1,54.524,54.524,0,0,1-28.135,2.459q-.412-5.327-.821-10.654Z" transform="translate(557.404 -321.927)" fill="#ed6b82"/>
    <path id="Path_2911" data-name="Path 2911" d="M-524.373,451.877a11.425,11.425,0,0,0-5.464,2.866c-2.217,2.172-2.643,4.637-3.961,10.017-.595,2.427-1.551,6.2-2.915,10.925a211.331,211.331,0,0,0-7.649,31.686c-2.818,17.633-1.225,22.358,1.1,25.5,1.845,2.5,5.008,5.157,17.116,8.014a130.5,130.5,0,0,0,35.693,3.277,12.814,12.814,0,0,0,2.184-5.461,12.849,12.849,0,0,0-.362-5.464,125.876,125.876,0,0,1-29.14-10.563c-3.687-1.881-7.086-3.849-10.2-5.826a123.441,123.441,0,0,0,6.191-32.779,123.462,123.462,0,0,0-2.6-32.192Z" transform="translate(545.865 -381.249)" fill="#f77990"/>
    <path id="Path_2912" data-name="Path 2912" d="M-526.1,485.9a13.938,13.938,0,0,0,5.1-3.642c2.042-2.359,2.036-4.139,4.372-5.464,1.234-.7,1.6-.407,3.461-1.454,1.638-.927,2.394-1.738,3.1-1.457.372.149.766.617.911,2a8.748,8.748,0,0,1,.546,3.277,10.27,10.27,0,0,1-2,5.464c-1.874,2.847-4.017,4.081-3.826,4.369.3.443,5.18-2.785,5.645-2.184.313.4-1.27,2.646-3.642,4.007-1.858,1.066-2.517.624-5.645,1.819-2.688,1.031-2.782,1.583-4.369,2-1.5.4-3.807.549-7.1-.908a12.325,12.325,0,0,1,1.092-4.372A12.377,12.377,0,0,1-526.1,485.9Z" transform="translate(582.241 -332.277)" fill="#fcb6a1"/>
    <path id="Path_2913" data-name="Path 2913" d="M-513.964,451.294a13.09,13.09,0,0,1-3.005,2.049c-7.61,3.755-16.435-1.318-17.892-2.185a48.986,48.986,0,0,0,11.746,20.622c2.924,3.008,6.114,6.291,8.33,5.464C-511.23,475.923-511.864,464.71-513.964,451.294Z" transform="translate(570.419 -382.853)" fill="#cdfaf9"/>
    <path id="Path_2914" data-name="Path 2914" d="M-519.82,566.337q.935-4.26,1.91-8.556,1.793-7.906,3.645-15.662a33.422,33.422,0,0,1-6.055,1.228,33.815,33.815,0,0,1-10.654-.546c.032,2.233.158,4.589.41,7.057a81.973,81.973,0,0,0,4.278,19.029Z" transform="translate(579.09 -179.892)" fill="#fae3bb"/>
    <path id="Path_2915" data-name="Path 2915" d="M-527.239,543.8a27.453,27.453,0,0,1-3.642.271,28.7,28.7,0,0,1-11.927-2.55c-.084,3.926-.039,8.095.181,12.476a174.28,174.28,0,0,0,1.913,18.393l5.1.272,1.729-3.186q1.066-3.684,2.094-7.467Q-529.267,552.716-527.239,543.8Z" transform="translate(552.6 -181.213)" fill="#fae3bb"/>
    <path id="Path_2916" data-name="Path 2916" d="M-522.085,549.62a12.869,12.869,0,0,0,3.141,3.073A26.145,26.145,0,0,0-510,556.519c.5.094,1.638.284,1.845.956.2.656-.6,1.422-.682,1.5-1.053.982-2.7.879-4.85.546a49.013,49.013,0,0,1-7.649-1.845,47.016,47.016,0,0,1-5.054-.956c-1.267-.31-2.453-.659-3.551-1.024q.242-2.7.478-5.393a19.992,19.992,0,0,0,2.8.068A19.973,19.973,0,0,0-522.085,549.62Z" transform="translate(581.4 -163.152)" fill="#78442b"/>
    <path id="Path_2917" data-name="Path 2917" d="M-528.848,552.355a8.721,8.721,0,0,1,2.094-2,8.626,8.626,0,0,1,3.005-1.273,10.492,10.492,0,0,1,1.548,1.729,10.7,10.7,0,0,1,1.277,2.369l-3.642,2.275Q-526.709,553.9-528.848,552.355Z" transform="translate(583.836 -164.362)" fill="#78442b"/>
    <path id="Path_2918" data-name="Path 2918" d="M-524.765,550.6q-.96,1.091-1.913,2.185l3.37,1.092c.362-.517.727-1.031,1.092-1.548a7.5,7.5,0,0,0-1.183-1,7.359,7.359,0,0,0-1.366-.729Z" transform="translate(588.678 -160.966)" fill="#78442b"/>
    <path id="Path_2919" data-name="Path 2919" d="M-534.584,550.744c.63.879-.048,1.574.41,3.687.511,2.346,1.622,2.743,2.049,4.918a7.987,7.987,0,0,1-.136,3.551,10.182,10.182,0,0,1-3.28,1.228,11.027,11.027,0,0,1-7.374-1.364,30.765,30.765,0,0,1,.136-4.508,30.512,30.512,0,0,1,2.049-8.2C-536.69,549.261-535.175,549.914-534.584,550.744Z" transform="translate(552.386 -162.978)" fill="#78442b"/>
    <path id="Path_2920" data-name="Path 2920" d="M-533.661,551.873a4.57,4.57,0,0,0-1.774-1.913c-1.894-1.07-4.6-.566-6.763,1.3l-.546,2.866a10.481,10.481,0,0,1,2.391-.478,11.071,11.071,0,0,1,6.01,1.3,3.806,3.806,0,0,0,.614-1.228,3.84,3.84,0,0,0,.068-1.847Z" transform="translate(552.83 -163.628)" fill="#78442b"/>
    <path id="Path_2921" data-name="Path 2921" d="M-533.232,551.763a11.868,11.868,0,0,0-2.391-.478,12.833,12.833,0,0,0-7.035,1.431q-.169,1.3-.339,2.6a20.094,20.094,0,0,1,4.233-.956,20.233,20.233,0,0,1,6.624.339,4.4,4.4,0,0,0-.2-1.364A4.4,4.4,0,0,0-533.232,551.763Z" transform="translate(552.265 -159.556)" fill="#78442b"/>
  </g>
</svg>
