<svg xmlns="http://www.w3.org/2000/svg" width="224.591" height="471.776" viewBox="0 0 224.591 471.776">
  <g id="Group_1120" data-name="Group 1120" transform="translate(0 0.005)">
    <path id="Path_2583" data-name="Path 2583" d="M-629.045,265.7c2.572-2.236-2.624-5.7-5.319-7.031a1.75,1.75,0,0,0-.21-2.4,3.6,3.6,0,0,0-2.592-.921c-2.1-.168-4.285-.065-6.411-.039.21-2.711-7.439-1.541-8.889-1.186a20.174,20.174,0,0,0-11.8,8.23c-6.915.672-7.019,10.987-7.242,16.215q-.145,3.417.007,6.837c.074,1.687-.168,4.359.637,5.962a1.763,1.763,0,0,0,1.722,1.112c-.11,1.554.21,3.17,2,3.564,2.824.624,5.151-3.319,6.553-5.093A72.311,72.311,0,0,0-653.15,279.4c5.135,2.527,11,3.409,16.493,1.124C-631.226,278.269-625.361,271.6-629.045,265.7Z" transform="translate(736.33 -253.571)" fill="#dd7440"/>
    <path id="Path_2584" data-name="Path 2584" d="M-566.8,288.731c-13.339-11.442-17.708-10.376-31.214-14.486-.633-.194-3.516,16.706-12.677,28.546-13.167-9.171-10.246-18.813-21.521-29.512-.045-.262-31.732,3.522-43.791,19.928s-18.15,66.158-14.615,75.994c5.2,14.476,17.456,10.78,24.309,7.2-.866,9.235,3.021,19.585,3.021,19.585,3.454,7,80.835,12.87,99.78-1.192C-558.631,391.758-553.461,300.176-566.8,288.731Z" transform="translate(691.616 -209.623)" fill="#d3a29d"/>
    <g id="Group_1118" data-name="Group 1118" transform="translate(4.141 115.33)">
      <g id="Group_1116" data-name="Group 1116" transform="translate(28.731)">
        <path id="Path_2585" data-name="Path 2585" d="M-667.011,293.88l-13.892.743s.669,14.321,7.852,14.321S-667.011,293.88-667.011,293.88Z" transform="translate(682.648 -278.957)" fill="#e2cf49"/>
        <path id="Path_2586" data-name="Path 2586" d="M-668.5,294.626c-.116-1.15-4.314-1.108-5.917-1.063-1.69.048-6.275.446-6.2,1.758s5.51,1.574,8.641,1.273C-670.974,296.5-668.382,295.776-668.5,294.626Z" transform="translate(683.279 -279.703)" fill="#fce665"/>
        <path id="Path_2587" data-name="Path 2587" d="M-662.7,340.7a18.816,18.816,0,0,1-7.128-4.162v-.032q-.393-8.613.006-17.223c2.511-1.283,3.68-4.585,4.016-7.319a87.87,87.87,0,0,0-.3-20.393c-.129-2.3-5.939-2.255-8.544-2.3-1.706-.032-6.8.843-6.8,3.031,0,6.327,1.144,12.676,2.133,18.929.546,3.441,2.265,7.765,6.046,8.492q.538,8.337,1.073,16.674a19.556,19.556,0,0,1-3.264,3.419c-1.677,1.47-2.73,1.348-3.183,1.991s-.022,1.994,5.926,2.032a22.1,22.1,0,0,0,10.017-1.916.639.639,0,0,0,.457-.609.639.639,0,0,0-.45-.614Zm-5.244-49.413a19.129,19.129,0,0,1-5.7,1.377c-.869.068-5.719.323-6.023-.5-.689-1.874,8.9-1.819,11.723-.882Zm-10.783,14.15q-.669-6.02-1.338-12.037a11.747,11.747,0,0,0,3.063.494,20.434,20.434,0,0,0,9.72-1.535,103.709,103.709,0,0,1,.614,12.021c-.045,4.078.6,14.231-5.555,14.2-6.019-.045-6.049-9.057-6.5-13.148Z" transform="translate(681.443 -289.262)" fill="#fff"/>
      </g>
      <path id="Path_2588" data-name="Path 2588" d="M-667.969,296.791a41.833,41.833,0,0,1-10.172,1.451c-18.6,0-12.935,24.17-2.727,21.757,3.322-.585,7.652-3.939,10.176-4.986C-665.517,312.864-667.969,296.791-667.969,296.791Z" transform="translate(690.334 -272.461)" fill="#fdb688"/>
      <path id="Path_2589" data-name="Path 2589" d="M-662.641,309.4a2.058,2.058,0,0,0,.808-.194c2.123-1.008.33-3.286-.737-4.278-3.112-2.892-14.166-9.972-16.832-8.24a6.086,6.086,0,0,0-2.368,3c-.84,1.713-1.758,2.12-2.165,4.824-.294,1.968-1.419,2.924-1.015,5.558.236,1.512-.743,4.753,2.437,5.778a64.76,64.76,0,0,0,9.006,1.529,26.988,26.988,0,0,0,5.031.094,5.463,5.463,0,0,0,2.346-.588,11.686,11.686,0,0,0,2.242.342c.814.032,1.816-.32,1.716-1.409-.071-.8-1.612-2.149-1.612-2.149s2.352,1.079,3.225.368C-658.925,312.7-660.793,310.75-662.641,309.4Z" transform="translate(702.155 -273.294)" fill="#fdb688"/>
      <g id="Group_1117" data-name="Group 1117" transform="translate(21.167 28.019)">
        <path id="Path_2590" data-name="Path 2590" d="M-668.769,305.562q-6.563-4.144-13.471-7.6c-.3-.152-.566.33-.262.482q6.9,3.456,13.471,7.6C-668.743,306.228-668.478,305.743-668.769,305.562Z" transform="translate(686.343 -297.933)" fill="#ea8b57"/>
        <path id="Path_2591" data-name="Path 2591" d="M-669.831,305.784l-12.744-6.146c-.3-.145-.569.336-.262.482l12.741,6.146C-669.792,306.411-669.524,305.929-669.831,305.784Z" transform="translate(685.592 -294.189)" fill="#ea8b57"/>
        <path id="Path_2592" data-name="Path 2592" d="M-669.641,306.4a30.345,30.345,0,0,1-13.759-5.477c-.281-.2-.543.284-.265.485a30.879,30.879,0,0,0,14.024,5.548C-669.308,307-669.312,306.438-669.641,306.4Z" transform="translate(683.784 -291.376)" fill="#ea8b57"/>
      </g>
    </g>
    <path id="Path_2593" data-name="Path 2593" d="M-648.236,270.366c-17.682-1.767-25,7.826-25.518,10.7a31.5,31.5,0,0,0,.882,14.58c.136.456.782.856.985.356.475-1.154.979-2.294,1.554-3.4.391-.756,1.331-3.406,2.152-3.593,2.666-.607,5.289,5.584,6.366,7.313q4.2,6.781,8.408,13.559c-.029,10.806-.174,71.251.094,102.85-.178.259-.107.614.381.721l4.294.921a.827.827,0,0,0,.565-.061c.359.035.724-.107.721-.459-.452-34.711-.042-69.422-.452-104.133,1.493-3.755,8.583-19.766,9.836-19.672,1.163.09,4.876,4.8,6.01,3.942S-630.551,272.133-648.236,270.366Z" transform="translate(730.408 -216.576)" fill="#fff"/>
    <path id="Path_2594" data-name="Path 2594" d="M-635,260.282c-1.448-3.9-5-1.525-8.977-1.78-4.181-.268-8.835-3-12.008-.168-3.923,3.5-6.22,19.724-8.6,13.688a4.919,4.919,0,0,0-.863-.078c-5.312,0-4.892,8.107.262,8.34-.01,1.648-7.4,27.208-6.97,31.347.236,2.317,14.2,24,17.077,24s12.366-23.182,11.862-25.211c-1.141-4.608.943-8.809,1.826-10.98s4.2-4.091,5.3-6.812C-632.632,284.13-632.933,265.837-635,260.282Z" transform="translate(734.993 -245.785)" fill="#fdb688"/>
    <path id="Path_2595" data-name="Path 2595" d="M-668.718,262.17c-2.452-.417-2.743,4.168-.678,4.524S-666.262,262.587-668.718,262.17Z" transform="translate(738.129 -234.441)" fill="#ea8b57"/>
    <path id="Path_2596" data-name="Path 2596" d="M-661.323,391.918c-1.37,4.016-2.117,15.077-1.176,16.874s6.705,1.939,9.881,1.57l.352-.95a54.466,54.466,0,0,0,27.651,7.771c1.545.01,3.422-.265,4-1.7a2.811,2.811,0,0,0-.927-3,9.677,9.677,0,0,0-2.937-1.557A39.439,39.439,0,0,1-645,391.676Z" transform="translate(755.648 54.588)" fill="#a36361"/>
    <path id="Path_2597" data-name="Path 2597" d="M-679.267,391.848c-1.37,4.016-2.116,15.081-1.176,16.877s6.708,1.939,9.885,1.57l.349-.95a54.5,54.5,0,0,0,27.651,7.771c1.544.01,3.425-.268,4.007-1.7a2.816,2.816,0,0,0-.928-3,9.512,9.512,0,0,0-2.94-1.558,39.445,39.445,0,0,1-20.519-19.252Z" transform="translate(715.609 54.438)" fill="#a36361"/>
    <path id="Path_2598" data-name="Path 2598" d="M-587.233,288.538c-6.615-.591-15.035,1.674-14.845.43s13.413-1.929,14.867-4.294a1.049,1.049,0,0,0-.046-.935,1.049,1.049,0,0,0-.775-.526c-3.664-.275-12.512.8-15.82,1.558-1.651.381-10.945,2.627-11.823,1.777-1.422-1.377,1.932-3.567,5.351-4.43,4.682-1.18,2.424-3.755.562-3.509-10.938,1.444-15.995,7.377-17.6,10.037-3.681,6.085-10.786,23.986-10.786,23.986l12.641,6.825s2.32-7.781,6.6-10.825,6.285-4.886,14.5-7.022c6.708-1.173,11.513-2.149,12.014-2.588a.86.86,0,0,0,.251-1,.86.86,0,0,0-.881-.527c-1.971.016-7.736.924-7.438.139s6.653-.019,11.4-3.4a.854.854,0,0,0,.265-1,.854.854,0,0,0-.9-.521c-4.563.556-11.238,2.023-10.757.721s12.518-.953,14.04-3.435a1.052,1.052,0,0,0-.047-.938A1.052,1.052,0,0,0-587.233,288.538Z" transform="translate(810.911 -197.74)" fill="#fdb480"/>
    <g id="Group_1119" data-name="Group 1119" transform="translate(188.076 89.655)">
      <path id="Path_2599" data-name="Path 2599" d="M-617.188,292.392a18.272,18.272,0,0,0-11.174-3.887c.171-.21.336-.426.5-.646,1.318-1.8,2.669-4.081,2.075-6.382-.078-.291-.524-.152-.449.139.6,2.336-1.037,4.8-2.443,6.55a16.907,16.907,0,0,1-4.621,3.955c-.259.152-.01.546.252.394a17.436,17.436,0,0,0,4.291-3.545,17.763,17.763,0,0,1,11.255,3.764C-617.272,292.919-616.949,292.577-617.188,292.392Z" transform="translate(633.412 -281.316)" fill="#ea8b57"/>
      <path id="Path_2600" data-name="Path 2600" d="M-622.2,291.4a32.515,32.515,0,0,1-7.745-9.953c-.136-.265-.53-.016-.394.249a32.763,32.763,0,0,0,7.82,10.043C-622.3,291.936-621.977,291.6-622.2,291.4Z" transform="translate(640.197 -281.277)" fill="#ea8b57"/>
    </g>
    <path id="Path_2601" data-name="Path 2601" d="M-625.4,376.782c17.882-.3,49.6-55.747,49.976-57.32s-14.182-12.286-16.654-12.719-25.295,36.5-29.667,35.47-5.577-56.532-28.281-65.741c-10.812-4.388-5.668,39.012-7.542,52.474C-659.161,340.365-643.282,377.086-625.4,376.782Z" transform="translate(767.335 -203.162)" fill="#d3a29d"/>
    <path id="Path_2602" data-name="Path 2602" d="M-591.751,570.919c.973-3.991,21.479-229.3,13.7-256.8-.611-2.159-100.759-.184-101.793,2.653-13.064,35.9,3.968,249.1,3.4,253.184-.41,2.931,28.316,3.664,28.862,1.544,1.916-7.387,19.834-198.084,19.834-198.084s9.106,189.175,12.066,197.269C-614.943,572.726-592.6,574.409-591.751,570.919Z" transform="translate(706.847 -120.516)" fill="#5f8fb7"/>
    <path id="Path_2603" data-name="Path 2603" d="M-682.071,322.369c-3.289-.633.294-10.353.569-10.3,18.557,3.645,38.013,3.519,53.873,2.857,24.639-1.028,45.281-4.172,45.908-4.049,1.118.22,1.477,5.3.685,8.427-16.118,4.146-33.147,5.561-49.611,6.783C-648.184,327.39-665.769,325.5-682.071,322.369Z" transform="translate(709.831 -125.706)" fill="#0b4875"/>
  </g>
</svg>
