<svg id="Group_668" data-name="Group 668" xmlns="http://www.w3.org/2000/svg" width="112.04" height="297.263" viewBox="0 0 112.04 297.263">
  <ellipse id="Ellipse_72" data-name="Ellipse 72" cx="56.02" cy="15.592" rx="56.02" ry="15.592" transform="translate(0 266.079)" fill="#d0d2d3"/>
  <g id="Group_660" data-name="Group 660" transform="translate(30.428)">
    <path id="Path_1235" data-name="Path 1235" d="M617.529,101.009s14.315-.536,11.631,15.491-4.7,15.352.335,20.387,14.426,6.218,9.058,15.467-7.6,10.145-7.6,10.145l-45.627-8.947c-7.252-7.286-8.194-12-7.344-15.085,1.841-6.684,13.061-9.369,12.264-13.084-.354-1.649-2.615-1.375-3.578-3.143C583.3,116.062,600.9,94.4,612.74,97.864A10.537,10.537,0,0,1,617.529,101.009Z" transform="translate(-577.719 -97.492)" fill="#1b1541"/>
    <path id="Path_1236" data-name="Path 1236" d="M610.242,132.692a12.967,12.967,0,0,0-14.315.3q-.13-7.393-.262-14.787l11.844,2.789q.334,1.055.647,2.149A77.622,77.622,0,0,1,610.242,132.692Z" transform="translate(-570.073 -88.668)" fill="#dc7680"/>
    <path id="Path_1237" data-name="Path 1237" d="M592.291,117.61c0,9.4,6.213,17.024,13.879,17.024a11.562,11.562,0,0,0,4.23-.8c5.6-2.195,9.649-8.626,9.649-16.22,0-9.4-6.213-17.025-13.879-17.025S592.291,108.207,592.291,117.61Z" transform="translate(-571.51 -96.174)" fill="#f7b1ac"/>
  </g>
  <g id="Group_661" data-name="Group 661" transform="translate(32.728 41.822)">
    <path id="Path_1238" data-name="Path 1238" d="M616.317,126.819H602.624l-23.292,7.8a49.871,49.871,0,0,1,6.637,16.176c1.341,6.356.419,9.827,1.708,17.893a142.5,142.5,0,0,0,3.472,15.858l41.279,2.071a300.97,300.97,0,0,0-.019-31.348c-.513-9.722-1.464-18.767-2.66-27.053Z" transform="translate(-579.332 -126.819)" fill="#1899aa"/>
  </g>
  <g id="Group_663" data-name="Group 663" transform="translate(78.966 43.184)">
    <path id="Path_1239" data-name="Path 1239" d="M632.482,151.08c.305,9.1.178,16.605,0,21.836-.923,27.105-4.619,34.438-7.4,38.607a39.52,39.52,0,0,1-8.512,9.137v-5.922l3.7-3.214-8.512,4.325V197.342a32.469,32.469,0,0,0,2.069-2.7c5.476-7.979,5.918-16.4,6.164-22.379a61.253,61.253,0,0,0-3.082-21.675Z" transform="translate(-611.755 -118.054)" fill="#f7b1ac"/>
    <path id="Path_1240" data-name="Path 1240" d="M622.21,190.262l-1.943,4.356-8.512,4.325V194.6Z" transform="translate(-611.755 -101.15)" fill="#dc7680"/>
    <path id="Path_1241" data-name="Path 1241" d="M630.572,151.988v9.749l-12.758,1.89s-.5-10.713-1.472-10.139" transform="translate(-609.8 -117.457)" fill="#dc7680"/>
    <g id="Group_662" data-name="Group 662" transform="translate(1.81)">
      <path id="Path_1242" data-name="Path 1242" d="M613.024,128.053c2.758-.425,7.781-.747,12.189,2.052,4.979,3.162,6.534,8.633,8.946,17.595a84.249,84.249,0,0,1,2.77,17.641l-19.768,2.638Z" transform="translate(-613.024 -127.774)" fill="#1899aa"/>
    </g>
  </g>
  <g id="Group_664" data-name="Group 664" transform="translate(24.019 49.193)">
    <path id="Path_1243" data-name="Path 1243" d="M587.752,154.826s-2.22,15.019,1.111,22.5,7.842,8.959,7.842,8.959L591.866,202.2l-6.705-5.141,5.773,7.361s2.584,8.374-.669,5.3-10.694-12.659-10.694-12.659-4.772-3-4.4-22.247l.371-19.245Z" transform="translate(-572.406 -122.257)" fill="#f7b1ac"/>
    <path id="Path_1244" data-name="Path 1244" d="M587.188,158.976a35.512,35.512,0,0,0,0,9.087l-11.893-1.408s-.145-1.912-.147-5.79S587.188,158.976,587.188,158.976Z" transform="translate(-572.406 -120.706)" fill="#dc7680"/>
    <path id="Path_1245" data-name="Path 1245" d="M588.571,132.48l2.513,36.088,2.178,6.561-20.036-2.822q.158-15.282.317-30.567c.123-.622,1.309-6.162,6.6-8.659A12.091,12.091,0,0,1,588.571,132.48Z" transform="translate(-573.225 -131.988)" fill="#1899aa"/>
    <path id="Path_1246" data-name="Path 1246" d="M580.25,182.386l2.737,3.673,6.7,5.14,1.34-4.407-10.781-6.15" transform="translate(-570.232 -111.257)" fill="#dc7680"/>
  </g>
  <g id="Group_666" data-name="Group 666" transform="translate(13.829 253.432)">
    <g id="Group_665" data-name="Group 665">
      <path id="Path_1247" data-name="Path 1247" d="M587.446,276.436l-2.189,5.808h0a36.706,36.706,0,0,0-8.93.358c-4.739.774-8.582,1.4-9.841,4.174-1.372,3.016,1.122,6.8,1.788,7.754h0l31.612-2.386q.315-8.469.63-16.939Z" transform="translate(-566.08 -275.205)" fill="#5352a2"/>
    </g>
    <path id="Path_1248" data-name="Path 1248" d="M618.182,277.476q-.15,3.429-.3,6.859l13.121.6c4.2,3.166,5.291,7.878,3.578,10.438-1.194,1.785-3.522,2.188-4.414,2.293l-29.342-4.934,1.84-15.991Z" transform="translate(-551.274 -274.552)" fill="#5352a2"/>
  </g>
  <g id="Group_667" data-name="Group 667" transform="translate(27.654 98.729)">
    <path id="Path_1249" data-name="Path 1249" d="M634.748,169.661l3.441,69.661,2.6,83.239a40.71,40.71,0,0,1-12.257,3.8,41.418,41.418,0,0,1-14.583-.519c-1.918-.442-7.029-1.8-7.029-1.8q.16-3.5.318-7l.252-5.55.5-11.115.217-4.767,2.778-61.1-.667-29.183s-2.108,27.7-2.108,28.812-1.927,36.271-1.519,37.751-1.443,51.073-2.553,51.444c-4.649,1.55-11.277,1.517-16.655.74a46.638,46.638,0,0,1-11.711-3.3q1.788-25.8,3.578-51.591l2.42-74.068s10.154-26.072,10.894-27.572-.11-.476-.11-.476Z" transform="translate(-575.774 -166.723)" fill="#f4ef8c"/>
    <path id="Path_1250" data-name="Path 1250" d="M601.226,192.353l1.443,2.054L596.49,312.414l-2.761.7Z" transform="translate(-568.124 -155.803)" fill="#fccb98" stroke="#fccb98" stroke-miterlimit="10" stroke-width="1"/>
  </g>
</svg>
