<svg id="Group_711" data-name="Group 711" xmlns="http://www.w3.org/2000/svg" width="113.652" height="295.32" viewBox="0 0 113.652 295.32">
  <ellipse id="Ellipse_79" data-name="Ellipse 79" cx="56.826" cy="15.816" rx="56.826" ry="15.816" transform="translate(0 263.688)" fill="#d0d2d3"/>
  <g id="Group_706" data-name="Group 706" transform="translate(31.581)">
    <path id="Path_1328" data-name="Path 1328" d="M516.185,333.467s14.883-.557,12.092,16.108-4.884,15.962.349,21.2,15,6.465,9.419,16.082-7.907,10.549-7.907,10.549L482.7,388.1c-7.54-7.576-8.519-12.472-7.635-15.684,1.914-6.949,13.581-9.741,12.752-13.605-.369-1.713-2.72-1.428-3.721-3.266-3.5-6.423,14.8-28.942,27.112-25.344A10.964,10.964,0,0,1,516.185,333.467Z" transform="translate(-474.793 -329.813)" fill="#1b1541"/>
    <path id="Path_1329" data-name="Path 1329" d="M503.425,358.324v8.266H490.868V349.858Z" transform="translate(-467.615 -320.86)" fill="#f7b1ac"/>
    <g id="Group_705" data-name="Group 705" transform="translate(17.977 3.655)">
      <ellipse id="Ellipse_80" data-name="Ellipse 80" cx="15.162" cy="17.701" rx="15.162" ry="17.701" fill="#f7b1ac"/>
    </g>
    <path id="Path_1330" data-name="Path 1330" d="M503.426,358.135s-4.966-.058-6.28-.508-4.43-1.571-6.278-3.779l.075,7.4,12.483,1.531Z" transform="translate(-467.615 -319.078)" fill="#dc7680"/>
  </g>
  <g id="Group_707" data-name="Group 707" transform="translate(25.068 46.592)">
    <path id="Path_1331" data-name="Path 1331" d="M516.95,369.244c-.09,2.176,2.7,48.221,2.7,48.221s3.721,25.354,5.581,35,4.187,22.36,4.187,22.36H511.292l-.545-10.386-3.188,10.386h-5.117l3.721-15.969-.7-59.167-.7-27.8Z" transform="translate(-455.933 -358.795)" fill="#f7b1ac"/>
    <path id="Path_1332" data-name="Path 1332" d="M486.569,367.855c-3.5,1.536-9.766,6.251-9.766,6.251l-6.513,83.977,3.256,11.628h17.936l-1.72-9.582,5.018,9.582h5.073L489.36,450.642c-1.277-11.824-2.257-24.411-2.79-37.692C485.926,396.946,486.005,381.87,486.569,367.855Z" transform="translate(-470.291 -359.416)" fill="#f7b1ac"/>
    <path id="Path_1333" data-name="Path 1333" d="M482.644,430.766v10.849h3.323l-1.661-9.011Z" transform="translate(-464.774 -331.32)" fill="#dc7680"/>
    <path id="Path_1334" data-name="Path 1334" d="M485.166,398.916l-12.037-4.078.3-3.907L485,393.217Z" transform="translate(-469.024 -349.11)" fill="#dc7680"/>
    <path id="Path_1335" data-name="Path 1335" d="M517.593,394.021l-12.386,2.288.22-3.619,12.166-1.758Z" transform="translate(-454.698 -349.11)" fill="#dc7680"/>
    <path id="Path_1336" data-name="Path 1336" d="M509.532,436.593l-2.925,9.53h-2.034l4.959-12.609Z" transform="translate(-454.981 -330.093)" fill="#dc7680"/>
    <path id="Path_1337" data-name="Path 1337" d="M489.627,362.021q.6,22.79,1.2,45.579l-19.069-3.82s.435-34.8,3.009-34.558-1.361-.166,3.861-5.776Z" transform="translate(-469.635 -362.021)" fill="#1899aa"/>
    <path id="Path_1338" data-name="Path 1338" d="M521.238,375.59c1.713,10.949,3.132,26.772,3.132,26.772l-20,2.892V363.261h4.078a50.294,50.294,0,0,1,4.934,1.9c2.464,1.111,4.37,2.2,5.872,4.276A10.972,10.972,0,0,1,521.238,375.59Z" transform="translate(-455.071 -361.467)" fill="#1899aa"/>
  </g>
  <g id="Group_708" data-name="Group 708" transform="translate(46.26 159.407)">
    <path id="Path_1339" data-name="Path 1339" d="M502.722,503.12a22.615,22.615,0,0,0-2.929,6.432l6.28,15.007-2.672,5.922s-9.886,3.721-12.212,0-2.644-10.084-2.95-13.181-3.3-10.538-3.3-10.538l5.093-5.251Z" transform="translate(-484.941 -412.542)" fill="#5352a2"/>
    <path id="Path_1340" data-name="Path 1340" d="M510.147,440.079s8.167.732,9.562,0,6.595,4.385,4.926,6.245.655,9.767,3.912,13.488,5.581,9.3,4.651,13.488a3.4,3.4,0,0,1-4.651,2.79s-10.861-15.923-16.853-12.59S510.147,440.079,510.147,440.079Z" transform="translate(-474.393 -440.008)" fill="#5352a2"/>
    <path id="Path_1341" data-name="Path 1341" d="M513.741,440.241l-.369,14.216-3.745-14.216Z" transform="translate(-473.917 -439.904)" fill="#5352a2"/>
  </g>
  <g id="Group_709" data-name="Group 709" transform="translate(6.435 95.442)">
    <path id="Path_1342" data-name="Path 1342" d="M525.343,403.477s7.772,14.69,5.514,32.363-7.839,37.208-7.839,37.208l7.839,70.695s-8.769,7.441-20.164,6.511-18.372-6.047-18.372-6.047,11.162-69.763,11.162-71.159,5.117-31.852,2.326-32.437-7.907,2.05-21.859,22.36v2.636l47.318-8.371s6.633,8.836,5.7,15.347a83.656,83.656,0,0,1-3.256,13.268s-67.074,10.809-76.274-8.944c-.93-2,20.463-64.359,34.882-76.432S525.343,403.477,525.343,403.477Z" transform="translate(-457.411 -395.79)" fill="#f4ef8c"/>
    <path id="Path_1343" data-name="Path 1343" d="M511.21,458.886s-21.587,1.646-23.454,1.682l-.425,3.991,24.343-1.489Z" transform="translate(-444.049 -367.612)" fill="#fccb98" stroke="#fccb98" stroke-miterlimit="10" stroke-width="1"/>
    <path id="Path_1344" data-name="Path 1344" d="M498.382,427.918S501.021,411,475.128,449.45l-1.086,4.134,2.481-.671v-2.636l14.612-18.538S496.263,426.228,498.382,427.918Z" transform="translate(-449.983 -383.097)" fill="#fccb98" stroke="#fccb98" stroke-miterlimit="10" stroke-width="1"/>
  </g>
  <g id="Group_710" data-name="Group 710" transform="translate(24.855 45.588)">
    <path id="Path_1345" data-name="Path 1345" d="M512.681,361.469s18.34,2.958,21.859,8.836,5.115,32.921,5.115,32.921l-20,2.892.466-18.336a96.329,96.329,0,0,1,.516,24.226c-.253,2.39-.587,4.678-.982,6.86l-33.021-3c-.829-3.52-1.594-7.2-2.267-11.037a196.372,196.372,0,0,1-2.85-27.546q1.215,5.251,2.429,10.5,1.81,9.866,3.618,19.73l-17.209-4.286a109.275,109.275,0,0,1,.466-18.968c1.345-12.04,2.018-18.061,6.4-21.366,0,0,2.819-2.124,22.9-1.423Z" transform="translate(-470.144 -361.327)" fill="#1899aa"/>
  </g>
</svg>
