<svg xmlns="http://www.w3.org/2000/svg" width="698.682" height="512.22" viewBox="0 0 698.682 512.22">
  <g id="Group_811" data-name="Group 811" transform="translate(963.329 -1277.009)">
    <path id="Path_1457" data-name="Path 1457" d="M-398.766,1453.126a149.825,149.825,0,0,0,2.476-27.15,148.967,148.967,0,0,0-148.967-148.967,149.013,149.013,0,0,0-138.418,93.815,214.144,214.144,0,0,0-65.367-10.168c-118.347,0-214.287,95.939-214.287,214.286,0,114.082,89.153,207.328,201.586,213.9l-.3.385H-434.6a169.95,169.95,0,0,0,169.95-169.95A170,170,0,0,0-398.766,1453.126Z" fill="#e4e3f1"/>
    <path id="Path_1458" data-name="Path 1458" d="M-854.285,1457.671c12.179,17.711,30.632,11.157,33.835,23.608s-27.992-4.822-32.659-1.925-15.052,28.524-5.814,35.074,45.84-11.214,53.222-6.96,11.443,21.56-19.1,24.785-34.473.71-36.356,7.051-9.445,35.819,7.759,39.579,71.653-30.039,74.958-25.41-3.754,21.727-32.277,37.924-48.393,14.738-47.792,21.262,3.9,33.356,19.025,36.9,80.467-37.019,88.959-34.1,14.56,24.151,6.3,28.2-35.448,21.358-57.652,21.348-31.619.447-21.71,9.813,39.71,38.28,69.58,32.238,57.34-33.654,57.9-32.061-8.615,18.063-6.351,20.321,13.423,2.875,25.921-22.124,43.071-32.34,44.781-58.4-3.764-76.541-14.1-72.711-7.075,34.779-31.451,46.893-44.166,15.994-32.026.485,41.186-57.247,33.187-81.592-24.834-28.549-27.9-21.687-12.991,46.425-35.667,54.682-1.567-8.079,9.977-25.589,11.666-38.491,7.691-45.937-6.153.156-11.647-5.917-9.024-13.148-13.986-8.99-.149,29.618-13.7,38.679-20.224,12.554-20.976,4.4,17.848-16.036,16.082-35.2-2.093-13.787-8.992-17.263-12.462-5.841-13.347-2.059,1.814,28.615-6,33.035-13.749,2.5-7.87-9.554,6.984-17.912.976-20.648-10.977-3.1-10.231.532,1.058,15.938-1.839,11.271-5.623-20.863-19.861-23.663S-860.932,1448-854.285,1457.671Z" fill="#4f4f98"/>
    <path id="Path_1459" data-name="Path 1459" d="M-437.352,1443.675c-12.647,18.969-8.6,60.187-19.653,56.5s4.913-50.975,2.456-52.817-25.794-3.685-32.55,6.141,3.071,63.872-3.07,67.557-19.653-42.377-22.11-48.518-34.392,7.37-40.533,14.74-4.3,41.762,12.282,76.768,14.74,49.132-9.212,25.794-17.81-84.138-23.337-87.209-39.306,4.3-49.746,28.251-.615,45.447,7.983,57.73,28.251,25.18,25.181,28.251-29.48,7.37-42.991-3.685-18.424,7.37-3.071,23.338,50.361,25.18,86.6,24.566,20.267,20.881,42.991,31.935,82.3,9.52,71.855-7.369c-.685-1.108-2.763-1.229-35.006-9.827-33.279-8.874-28.251-24.566-22.11-25.18s71.242,20.267,88.438,6.756,36.849-58.344,24.566-62.643-57.116,11.668-78,2.456-19.039-13.511,0-15.968,75.54-6.141,80.453-22.723-1.842-26.409-11.668-25.18-50.975,9.212-47.9-3.685,33.778.614,40.534-23.338-7.37-10.44-19.039-9.826-21.495-1.843-9.212-12.283,21.495-16.582,12.283-35.621S-436.124,1441.833-437.352,1443.675Z" fill="#4f4f98"/>
    <path id="Path_1460" data-name="Path 1460" d="M-643.128,1387.935c-.061.956-.073,1.862-.046,2.716.78,21.788,30.6,11.24,30.6,11.24s4.032,14.009,28.2,14.942,26.812-9.948,26.812-9.948,4.175,8.373,12.2,8.9a13.715,13.715,0,0,0,11.894-4.97s7.173,10.46,21.073-.168a18.4,18.4,0,0,0,6.82-10.143s-.011,0,0-.011c2.554-9.729-2.488-20.057-2.488-20.057-15.117-20.615-26.773-7.792-26.773-7.792s.39-6.532-7.241-9.559-16.272,3.309-16.272,3.309-.2-25.692-33.735-26.984c-27.2-1.045-29.5,20.09-29.4,28.107a29.839,29.839,0,0,0,.175,3.02s-.218-.085-.6-.206C-625.264,1369.252-641.972,1369.873-643.128,1387.935Z" fill="#fccb98"/>
    <g id="Group_783" data-name="Group 783">
      <g id="Group_779" data-name="Group 779">
        <rect id="Rectangle_393" data-name="Rectangle 393" width="136.255" height="242.23" rx="8.504" transform="translate(-778.218 1464.787)" fill="#dbdcdc"/>
        <path id="Path_1461" data-name="Path 1461" d="M-656.268,1708.7H-763.913a16.006,16.006,0,0,1-15.987-15.988v-213.62a16.005,16.005,0,0,1,15.987-15.987h107.645a16.006,16.006,0,0,1,15.987,15.987v213.62A16.007,16.007,0,0,1-656.268,1708.7Zm-107.645-242.231a12.637,12.637,0,0,0-12.623,12.623v213.62a12.636,12.636,0,0,0,12.623,12.623h107.645a12.636,12.636,0,0,0,12.622-12.623v-213.62a12.637,12.637,0,0,0-12.622-12.623Z" fill="#2191a1"/>
      </g>
      <rect id="Rectangle_394" data-name="Rectangle 394" width="45.418" height="3.364" rx="1" transform="translate(-717.661 1616.181)" fill="#4f4f98"/>
      <rect id="Rectangle_395" data-name="Rectangle 395" width="45.418" height="3.364" rx="1" transform="translate(-732.8 1691.878)" fill="#2191a1"/>
      <rect id="Rectangle_396" data-name="Rectangle 396" width="45.418" height="3.364" rx="1" transform="translate(-717.661 1631.32)" fill="#4f4f98"/>
      <rect id="Rectangle_397" data-name="Rectangle 397" width="45.418" height="3.364" rx="1" transform="translate(-717.661 1646.46)" fill="#4f4f98"/>
      <g id="Group_781" data-name="Group 781">
        <rect id="Rectangle_398" data-name="Rectangle 398" width="75.697" height="3.364" rx="1" transform="translate(-747.939 1552.259)" fill="#4f4f98"/>
        <rect id="Rectangle_399" data-name="Rectangle 399" width="75.697" height="3.364" rx="1" transform="translate(-747.939 1567.398)" fill="#4f4f98"/>
        <g id="Group_780" data-name="Group 780">
          <path id="Path_1462" data-name="Path 1462" d="M-667.977,1585.9h-84.228a10.886,10.886,0,0,1-10.874-10.874V1490.8a10.886,10.886,0,0,1,10.874-10.874h84.228A10.886,10.886,0,0,1-657.1,1490.8v84.228A10.886,10.886,0,0,1-667.977,1585.9Zm-84.228-102.715a7.621,7.621,0,0,0-7.613,7.613v84.228a7.621,7.621,0,0,0,7.613,7.613h84.228a7.621,7.621,0,0,0,7.613-7.613V1490.8a7.621,7.621,0,0,0-7.613-7.613Z" fill="#2191a1"/>
        </g>
        <path id="pic_big_1" d="M-715.768,1525.345a1.894,1.894,0,0,1-1.893-1.894V1512.1a1.893,1.893,0,0,1,1.893-1.894h11.354a1.893,1.893,0,0,1,1.893,1.894v11.354a1.893,1.893,0,0,1-1.893,1.894Zm0-1.894h11.354V1512.1h-11.354Zm.946-2.838,2.839-4.731,2.839,3.784,1.892-1.892,1.893,2.839Zm5.677-4.732a.947.947,0,0,1,.947-.946.946.946,0,0,1,.946.946.947.947,0,0,1-.946.947A.947.947,0,0,1-709.145,1515.882Z" fill="#2191a1"/>
      </g>
      <path id="pic_big_1-2" data-name="pic_big_1" d="M-746.047,1631.32a1.892,1.892,0,0,1-1.892-1.893v-11.354a1.892,1.892,0,0,1,1.892-1.892h11.355a1.892,1.892,0,0,1,1.892,1.892v11.354a1.892,1.892,0,0,1-1.892,1.893Zm0-1.893h11.355v-11.354h-11.355Zm.946-2.839,2.839-4.73,2.839,3.785,1.893-1.893,1.893,2.839Zm5.678-4.731a.946.946,0,0,1,.946-.946.946.946,0,0,1,.946.946.947.947,0,0,1-.946.948A.947.947,0,0,1-739.423,1621.858Z" fill="#2191a1"/>
      <g id="Group_782" data-name="Group 782">
        <path id="Path_1469" data-name="Path 1469" d="M-667.977,1661.6h-84.228a10.765,10.765,0,0,1-10.874-10.628v-39.3a10.765,10.765,0,0,1,10.874-10.628h84.228A10.765,10.765,0,0,1-657.1,1611.67v39.3A10.765,10.765,0,0,1-667.977,1661.6Zm-84.228-57.37a7.537,7.537,0,0,0-7.613,7.441v39.3a7.537,7.537,0,0,0,7.613,7.441h84.228a7.537,7.537,0,0,0,7.613-7.441v-39.3a7.537,7.537,0,0,0-7.613-7.441Z" fill="#2191a1"/>
      </g>
    </g>
    <g id="Group_791" data-name="Group 791">
      <g id="Group_784" data-name="Group 784">
        <rect id="Rectangle_400" data-name="Rectangle 400" width="136.255" height="242.23" rx="8.504" transform="translate(-600.591 1464.787)" fill="#dbdcdc"/>
        <path id="Path_1470" data-name="Path 1470" d="M-478.642,1708.7H-586.286a16.006,16.006,0,0,1-15.987-15.988v-213.62a16.005,16.005,0,0,1,15.987-15.987h107.644a16.006,16.006,0,0,1,15.988,15.987v213.62A16.007,16.007,0,0,1-478.642,1708.7Zm-107.644-242.231a12.637,12.637,0,0,0-12.623,12.623v213.62a12.636,12.636,0,0,0,12.623,12.623h107.644a12.636,12.636,0,0,0,12.623-12.623v-213.62a12.637,12.637,0,0,0-12.623-12.623Z" fill="#2191a1"/>
      </g>
      <rect id="Rectangle_401" data-name="Rectangle 401" width="45.418" height="3.364" rx="1" transform="translate(-585.452 1479.926)" fill="#4f4f98"/>
      <g id="Group_786" data-name="Group 786">
        <rect id="Rectangle_402" data-name="Rectangle 402" width="45.418" height="3.364" rx="1" transform="translate(-540.034 1510.205)" fill="#4f4f98"/>
        <rect id="Rectangle_403" data-name="Rectangle 403" width="45.418" height="3.364" rx="1" transform="translate(-540.034 1521.98)" fill="#4f4f98"/>
        <path id="pic_big_1-3" data-name="pic_big_1" d="M-568.42,1525.345a1.893,1.893,0,0,1-1.892-1.894V1512.1a1.893,1.893,0,0,1,1.892-1.894h11.355a1.893,1.893,0,0,1,1.892,1.894v11.354a1.893,1.893,0,0,1-1.892,1.894Zm0-1.894h11.355V1512.1H-568.42Zm.947-2.838,2.839-4.731,2.839,3.784,1.892-1.892,1.893,2.839Zm5.677-4.732a.946.946,0,0,1,.946-.946.946.946,0,0,1,.946.946.947.947,0,0,1-.946.947A.946.946,0,0,1-561.8,1515.882Z" fill="#2191a1"/>
        <g id="Group_785" data-name="Group 785">
          <path id="Path_1474" data-name="Path 1474" d="M-490.349,1540.484h-84.23a10.677,10.677,0,0,1-10.873-10.445v-24.528a10.677,10.677,0,0,1,10.873-10.445h84.23a10.677,10.677,0,0,1,10.873,10.445v24.528A10.677,10.677,0,0,1-490.349,1540.484Zm-84.23-42.286a7.476,7.476,0,0,0-7.612,7.313v24.528a7.476,7.476,0,0,0,7.612,7.313h84.23a7.476,7.476,0,0,0,7.612-7.313v-24.528a7.476,7.476,0,0,0-7.612-7.313Z" fill="#2191a1"/>
        </g>
      </g>
      <g id="Group_788" data-name="Group 788">
        <rect id="Rectangle_404" data-name="Rectangle 404" width="45.418" height="3.364" rx="1" transform="translate(-540.034 1570.763)" fill="#4f4f98"/>
        <rect id="Rectangle_405" data-name="Rectangle 405" width="45.418" height="3.364" rx="1" transform="translate(-540.034 1582.538)" fill="#4f4f98"/>
        <path id="pic_big_1-4" data-name="pic_big_1" d="M-568.42,1585.9a1.892,1.892,0,0,1-1.892-1.892v-11.355a1.892,1.892,0,0,1,1.892-1.892h11.355a1.892,1.892,0,0,1,1.892,1.892v11.355a1.892,1.892,0,0,1-1.892,1.892Zm0-1.892h11.355v-11.355H-568.42Zm.947-2.839,2.839-4.731,2.839,3.784,1.892-1.892,1.893,2.839Zm5.677-4.731a.945.945,0,0,1,.946-.946.946.946,0,0,1,.946.946.946.946,0,0,1-.946.946A.945.945,0,0,1-561.8,1576.44Z" fill="#2191a1"/>
        <g id="Group_787" data-name="Group 787">
          <path id="Path_1478" data-name="Path 1478" d="M-490.349,1601.042h-84.23a10.678,10.678,0,0,1-10.873-10.446v-24.527a10.678,10.678,0,0,1,10.873-10.446h84.23a10.677,10.677,0,0,1,10.873,10.446V1590.6A10.678,10.678,0,0,1-490.349,1601.042Zm-84.23-42.286a7.475,7.475,0,0,0-7.612,7.313V1590.6a7.475,7.475,0,0,0,7.612,7.313h84.23a7.475,7.475,0,0,0,7.612-7.313v-24.527a7.475,7.475,0,0,0-7.612-7.313Z" fill="#2191a1"/>
        </g>
      </g>
      <g id="Group_790" data-name="Group 790">
        <rect id="Rectangle_406" data-name="Rectangle 406" width="45.418" height="3.364" rx="1" transform="translate(-540.034 1631.32)" fill="#4f4f98"/>
        <rect id="Rectangle_407" data-name="Rectangle 407" width="45.418" height="3.364" rx="1" transform="translate(-540.034 1643.095)" fill="#4f4f98"/>
        <path id="pic_big_1-5" data-name="pic_big_1" d="M-568.42,1646.46a1.892,1.892,0,0,1-1.892-1.893v-11.354a1.893,1.893,0,0,1,1.892-1.893h11.355a1.893,1.893,0,0,1,1.892,1.893v11.354a1.892,1.892,0,0,1-1.892,1.893Zm0-1.893h11.355v-11.354H-568.42Zm.947-2.839,2.839-4.731,2.839,3.785,1.892-1.893,1.893,2.839Zm5.677-4.73a.945.945,0,0,1,.946-.946.945.945,0,0,1,.946.946.946.946,0,0,1-.946.946A.946.946,0,0,1-561.8,1637Z" fill="#2191a1"/>
        <g id="Group_789" data-name="Group 789">
          <path id="Path_1482" data-name="Path 1482" d="M-490.349,1661.6h-84.23a10.677,10.677,0,0,1-10.873-10.445v-24.528a10.677,10.677,0,0,1,10.873-10.445h84.23a10.677,10.677,0,0,1,10.873,10.445v24.528A10.677,10.677,0,0,1-490.349,1661.6Zm-84.23-42.286a7.476,7.476,0,0,0-7.612,7.313v24.528a7.476,7.476,0,0,0,7.612,7.313h84.23a7.476,7.476,0,0,0,7.612-7.313v-24.528a7.476,7.476,0,0,0-7.612-7.313Z" fill="#2191a1"/>
        </g>
      </g>
      <rect id="Rectangle_408" data-name="Rectangle 408" width="45.418" height="3.364" rx="1" transform="translate(-555.173 1691.878)" fill="#2191a1"/>
    </g>
    <g id="Group_794" data-name="Group 794">
      <g id="Group_792" data-name="Group 792">
        <path id="Path_1483" data-name="Path 1483" d="M-522.129,1635.309a15.9,15.9,0,0,0,15.878-15.877,15.9,15.9,0,0,0-15.878-15.877,15.9,15.9,0,0,0-15.877,15.877A15.9,15.9,0,0,0-522.129,1635.309Zm0-27.375a11.511,11.511,0,0,1,11.5,11.5,11.511,11.511,0,0,1-11.5,11.5,11.511,11.511,0,0,1-11.5-11.5A11.511,11.511,0,0,1-522.129,1607.934Z" fill="#fccb98"/>
      </g>
      <g id="Group_793" data-name="Group 793">
        <path id="Path_1484" data-name="Path 1484" d="M-522.129,1607.934a2.189,2.189,0,0,0,2.19-2.189V1503.876a14.621,14.621,0,0,0-14.6-14.606h-168.9a2.189,2.189,0,0,0-2.19,2.19,2.19,2.19,0,0,0,2.19,2.19h168.9a10.236,10.236,0,0,1,10.225,10.226v101.869A2.19,2.19,0,0,0-522.129,1607.934Z" fill="#fccb98"/>
      </g>
      <path id="Path_1485" data-name="Path 1485" d="M-727.474,1491.46l24.029-9.257v18.515Z" fill="#fccb98"/>
    </g>
    <g id="Group_801" data-name="Group 801">
      <ellipse id="Ellipse_90" data-name="Ellipse 90" cx="39.283" cy="10.933" rx="39.283" ry="10.933" transform="translate(-483.441 1761.42)" fill="#d0d2d3"/>
      <g id="Group_795" data-name="Group 795">
        <path id="Path_1486" data-name="Path 1486" d="M-457.691,1749.82c2.594,5.1,2.222,7.848,1.286,9.431-3.132,5.3-16.769,4.661-16.769,4.661h0c-.3.229-2.85,2.228-2.522,4.556a4.289,4.289,0,0,0,.429,1.286,7.293,7.293,0,0,0,2.572,2.6h29.571s.254-6.544-1.141-10.033-3.041-11.941-3.041-11.941Z" fill="#5352a2"/>
        <path id="Path_1487" data-name="Path 1487" d="M-422.111,1750.38c2.85,1.376,4.588,4.144,4.341,6.761-.337,3.57-4.354,6.735-9.051,5.891a6.459,6.459,0,0,0,1.067,7.579,6.6,6.6,0,0,0,5.576,1.506,40.793,40.793,0,0,0,8.209-5.292,40.84,40.84,0,0,0,8.054-9.017l-4.478-6.916-5.977-6.1Z" fill="#5352a2"/>
      </g>
      <g id="Group_796" data-name="Group 796">
        <path id="Path_1488" data-name="Path 1488" d="M-449.655,1578.021s-10.288-.385-8.359,11.135,3.376,11.033-.241,14.652-10.369,4.47-6.511,11.118,5.466,7.291,5.466,7.291l32.794-6.43c5.212-5.237,5.889-8.622,5.278-10.843-1.323-4.8-9.388-6.733-8.815-9.4.255-1.184,1.88-.988,2.572-2.259,2.42-4.44-10.232-20.006-18.742-17.52A7.589,7.589,0,0,0-449.655,1578.021Z" fill="#1b1541"/>
        <path id="Path_1489" data-name="Path 1489" d="M-449.913,1607.136a6.619,6.619,0,0,0,4.654,2.72,6.789,6.789,0,0,0,5.635-2.506l.189-10.628-8.513,2.005q-.24.758-.465,1.544A55.7,55.7,0,0,0-449.913,1607.136Z" fill="#dc7680"/>
        <path id="Path_1490" data-name="Path 1490" d="M-435.977,1590.9c0,6.758-4.466,12.237-9.975,12.237a8.291,8.291,0,0,1-3.04-.579c-4.023-1.577-6.936-6.2-6.936-11.658,0-6.758,4.466-12.236,9.976-12.236S-435.977,1584.142-435.977,1590.9Z" fill="#f7b1ac"/>
      </g>
      <g id="Group_797" data-name="Group 797">
        <path id="Path_1491" data-name="Path 1491" d="M-414.638,1642.233c-.1.041-.063.027.025.093,1.034.771-.025,4.561-.025,4.561a69.372,69.372,0,0,1-5.637,14.086c-4.07,6.892-6.977,11.735-8.734,14.649l-3.662-14.931a61.612,61.612,0,0,0,5.945-7.888,32.288,32.288,0,0,0,3.8-7.322Z" fill="#f7b1ac"/>
        <path id="Path_1492" data-name="Path 1492" d="M-422.926,1645.481s-.74,1.917-1.215,2.834l9.5-1.428s1.265-3.691.025-4.561S-422.926,1645.481-422.926,1645.481Z" fill="#dc7680"/>
        <path id="Path_1493" data-name="Path 1493" d="M-412.639,1641.6c.094-1.984.826-19.3-3.261-25.535a16.669,16.669,0,0,0-1.667-2.114,16.691,16.691,0,0,0-9.567-4.717v38.145l14.336-3.809Z" fill="#1899aa"/>
      </g>
      <g id="Group_798" data-name="Group 798">
        <path id="Path_1494" data-name="Path 1494" d="M-470.117,1639.051s-6.184,18.875-5.9,33.524-.563,17.747,0,20,2.852-1.409,2.852-1.409v-6.761l3.051,7.325,2.6.563c.486-.11,1.192-.274,2.041-.487a28.07,28.07,0,0,0,3.1-.845c2.245-1.314-2.368-12.082-3.783-20.029-.841-4.724-1.141-11.758,1.9-20.991l1.882-7.094Z" fill="#f7b1ac"/>
        <path id="Path_1495" data-name="Path 1495" d="M-472.766,1681.946v3.424l2.649,6.361,2.6.563Z" fill="#dc7680"/>
        <path id="Path_1496" data-name="Path 1496" d="M-455.21,1609.363a18.638,18.638,0,0,0-4.839,1.85,18.67,18.67,0,0,0-4.717,3.713l-9.845,24.125,14.367,5.352Z" fill="#1899aa"/>
        <path id="Path_1497" data-name="Path 1497" d="M-470.584,1640.551l-.883,3.05,8.328,2.131.741-2.131Z" fill="#dc7680"/>
      </g>
      <g id="Group_799" data-name="Group 799">
        <path id="Path_1498" data-name="Path 1498" d="M-461.318,1648.278c.014,0,.3.059.3.059l-.3-.059a98.391,98.391,0,0,1,12.512-.515,98.3,98.3,0,0,1,11.544.945c2.938.839,7.135.839,7.975,3.778.839,2.1,0,4.617.42,6.716,2.938,14.271,5.037,26.864,7.555,41.135,3.358,15.111,6.3,28.963,13.432,41.975-5.248,7.64-10.408,12.343-12.614,12.2a8.078,8.078,0,0,1-2.077-.445,7.326,7.326,0,0,1-2.938-2.1c-5.528-23.484-10.4-40.991-12.946-48.24-.464-1.322-.9-2.448-2.585-7.167-2.243-6.285-3.656-8.868-5.037-13.012-.42-1.259-1.259-2.1-1.679-3.358-.42-.839-.624-.743.106.327a3.406,3.406,0,0,0,2.272,1.408,3.733,3.733,0,0,1-2.129-1.445,3.727,3.727,0,0,1-.669-2.389c1.259,10.914-.42,21.827,0,32.741.84,14.271,2.938,28.123,4.66,42.085a2.7,2.7,0,0,1-.265-1.48,9.389,9.389,0,0,1,.265,1.48c-6.759-.11-13.475-.11-20.191-.53a3.19,3.19,0,0,1-1.679-.839,5.977,5.977,0,0,1-.839-2.519c-.42-8.395-1.259-17.21-.84-25.6.56-11.185,1.753-16.708,1.679-21.827-.166-11.523-2.221-11.4-2.518-21.827C-468.45,1660.6-461.844,1648.225-461.318,1648.278Z" fill="#f4ef8c"/>
        <path id="Path_1499" data-name="Path 1499" d="M-445.237,1675.864a2.653,2.653,0,0,0-2.228.107c-1.031.688-1.364,2.557-.291,4.218l7.559,18.725c4.563,13.882,7.682,25.025,9.729,32.846,0,0,.4,1.522,5.208,20.334a4.6,4.6,0,0,0,2.689,1.971,2.983,2.983,0,0,0,1.529,0c2.3-1.1-4.108-19.194-5.277-22.464-2.7-7.544-9.462-25.828-11.867-33.437Q-441.711,1687.014-445.237,1675.864Z" fill="#fccb98" stroke="#fccb98" stroke-miterlimit="10" stroke-width="1"/>
      </g>
      <g id="Group_800" data-name="Group 800">
        <path id="Path_1500" data-name="Path 1500" d="M-449.04,1606.707l-7.609,3.1a17.671,17.671,0,0,0-2.814,3.1c-7.729,10.889-1.849,29.715-1.849,29.715l.291,5.717,30.976,2.822,3.726-3.4.408-34.013,1.047-4.045-14.627-4.066" fill="#1899aa"/>
      </g>
    </g>
    <g id="Group_810" data-name="Group 810">
      <ellipse id="Ellipse_91" data-name="Ellipse 91" cx="39.283" cy="10.933" rx="39.283" ry="10.933" transform="translate(-823.826 1761.42)" fill="#d0d2d3"/>
      <g id="Group_802" data-name="Group 802">
        <path id="Path_1501" data-name="Path 1501" d="M-774.572,1577.305s10.037-.376,8.155,10.863-3.294,10.765.235,14.3,10.116,4.36,6.352,10.846-5.332,7.114-5.332,7.114l-31.995-6.274c-5.085-5.109-5.746-8.412-5.149-10.578,1.29-4.686,9.159-6.57,8.6-9.175-.248-1.156-1.833-.964-2.509-2.2-2.36-4.331,9.983-19.519,18.286-17.093A7.407,7.407,0,0,1-774.572,1577.305Z" fill="#1b1541"/>
        <path id="Path_1502" data-name="Path 1502" d="M-774.321,1605.71a9.174,9.174,0,0,0-4.545-1.4,9.263,9.263,0,0,0-5.493,1.612q-.091-5.184-.184-10.369l8.305,1.956q.234.74.454,1.507A54.435,54.435,0,0,1-774.321,1605.71Z" fill="#dc7680"/>
        <path id="Path_1503" data-name="Path 1503" d="M-787.917,1589.87c0,6.594,4.357,11.938,9.732,11.938a8.084,8.084,0,0,0,2.966-.564c3.925-1.539,6.767-6.049,6.767-11.374,0-6.593-4.358-11.938-9.733-11.938S-787.917,1583.277-787.917,1589.87Z" fill="#f7b1ac"/>
      </g>
      <g id="Group_803" data-name="Group 803">
        <path id="Path_1504" data-name="Path 1504" d="M-774.941,1604.166h-9.6l-16.332,5.467a34.988,34.988,0,0,1,4.653,11.343c.941,4.457.295,6.891,1.2,12.547a99.647,99.647,0,0,0,2.436,11.12l28.945,1.453a210.517,210.517,0,0,0-.013-21.983c-.36-6.817-1.027-13.159-1.864-18.969Z" fill="#1899aa"/>
      </g>
      <g id="Group_805" data-name="Group 805">
        <path id="Path_1505" data-name="Path 1505" d="M-753.919,1628.28c.214,6.383.125,11.644,0,15.312-.647,19.007-3.239,24.149-5.19,27.072a27.735,27.735,0,0,1-5.97,6.407v-4.153l2.6-2.254-5.969,3.033v-12.976a23.159,23.159,0,0,0,1.45-1.895c3.84-5.6,4.151-11.5,4.322-15.693a42.945,42.945,0,0,0-2.161-15.2Z" fill="#f7b1ac"/>
        <path id="Path_1506" data-name="Path 1506" d="M-761.121,1667.609l-1.362,3.055-5.969,3.033v-3.044Z" fill="#dc7680"/>
        <path id="Path_1507" data-name="Path 1507" d="M-753.886,1629.335v6.836l-8.946,1.325s-.353-7.512-1.033-7.11" fill="#dc7680"/>
        <g id="Group_804" data-name="Group 804">
          <path id="Path_1508" data-name="Path 1508" d="M-767.184,1605.317a12.473,12.473,0,0,1,8.547,1.439c3.491,2.217,4.582,6.054,6.273,12.338a59.124,59.124,0,0,1,1.943,12.37l-13.862,1.85Z" fill="#1899aa"/>
        </g>
      </g>
      <g id="Group_806" data-name="Group 806">
        <path id="Path_1509" data-name="Path 1509" d="M-796.222,1632.173s-1.557,10.532.779,15.777,5.5,6.282,5.5,6.282l-3.393,11.16-4.7-3.6,4.047,5.161s1.812,5.873-.469,3.715-7.5-8.876-7.5-8.876-3.346-2.1-3.086-15.6l.259-13.495Z" fill="#f7b1ac"/>
        <path id="Path_1510" data-name="Path 1510" d="M-796.617,1636.171a24.908,24.908,0,0,0,0,6.373l-8.339-.987s-.1-1.342-.1-4.061S-796.617,1636.171-796.617,1636.171Z" fill="#dc7680"/>
        <path id="Path_1511" data-name="Path 1511" d="M-796.222,1609.681l1.762,25.3q.764,2.3,1.528,4.6l-14.051-1.978q.111-10.718.223-21.434a8.844,8.844,0,0,1,4.627-6.073A8.467,8.467,0,0,1-796.222,1609.681Z" fill="#1899aa"/>
        <path id="Path_1512" data-name="Path 1512" d="M-799.958,1659.212l1.919,2.576,4.7,3.6.939-3.09-7.56-4.312" fill="#dc7680"/>
      </g>
      <g id="Group_808" data-name="Group 808">
        <g id="Group_807" data-name="Group 807">
          <path id="Path_1513" data-name="Path 1513" d="M-799.146,1753.415l-1.535,4.073h0a25.781,25.781,0,0,0-6.262.251c-3.323.544-6.018.985-6.9,2.927-.962,2.115.788,4.768,1.255,5.437h0l22.166-1.673q.22-5.939.442-11.878Z" fill="#5352a2"/>
        </g>
        <path id="Path_1514" data-name="Path 1514" d="M-767.211,1754.6q-.105,2.4-.209,4.81l9.2.418c2.948,2.221,3.71,5.524,2.51,7.319a4.363,4.363,0,0,1-3.1,1.608l-20.575-3.46,1.29-11.213Z" fill="#5352a2"/>
      </g>
      <g id="Group_809" data-name="Group 809">
        <path id="Path_1515" data-name="Path 1515" d="M-763.08,1646.13l2.413,48.848,1.821,58.369a28.545,28.545,0,0,1-8.594,2.664,29.059,29.059,0,0,1-10.227-.363c-1.344-.311-4.928-1.261-4.929-1.261q.113-2.454.224-4.909l.177-3.892.354-7.793.152-3.344,1.947-42.845-.468-20.464s-1.478,19.426-1.478,20.2-1.351,25.433-1.065,26.471-1.011,35.815-1.79,36.074c-3.26,1.087-7.908,1.064-11.679.519a32.768,32.768,0,0,1-8.212-2.316q1.256-18.09,2.51-36.178l1.7-51.938s7.12-18.282,7.639-19.334-.078-.334-.078-.334Z" fill="#f4ef8c"/>
        <path id="Path_1516" data-name="Path 1516" d="M-781.222,1669.7l1.012,1.44-4.333,82.75-1.935.492Z" fill="#fccb98" stroke="#fccb98" stroke-miterlimit="10" stroke-width="1"/>
      </g>
    </g>
  </g>
</svg>
