<svg id="Group_675" data-name="Group 675" xmlns="http://www.w3.org/2000/svg" width="113.411" height="296.329" viewBox="0 0 113.411 296.329">
  <ellipse id="Ellipse_73" data-name="Ellipse 73" cx="56.02" cy="15.592" rx="56.02" ry="15.592" transform="translate(0 265.145)" fill="#d0d2d3"/>
  <g id="Group_669" data-name="Group 669" transform="translate(11.004 241.432)">
    <path id="Path_1251" data-name="Path 1251" d="M689.11,272.146c3.7,7.273,3.169,11.192,1.834,13.449-4.466,7.554-23.914,6.647-23.914,6.647h0c-.428.327-4.064,3.177-3.6,6.5a6.1,6.1,0,0,0,.612,1.834,10.386,10.386,0,0,0,3.668,3.708h42.171s.362-9.331-1.627-14.308-4.337-17.027-4.337-17.027Z" transform="translate(-663.392 -264.976)" fill="#5352a2"/>
    <path id="Path_1252" data-name="Path 1252" d="M719.336,275.087c4.064,1.961,6.543,5.91,6.191,9.642-.48,5.091-6.209,9.6-12.907,8.4a9.213,9.213,0,0,0,1.522,10.81c3.16,3.026,7.524,2.232,7.952,2.146a58.059,58.059,0,0,0,23.192-20.406l-6.386-9.863-8.524-8.7Z" transform="translate(-642.879 -267.118)" fill="#5352a2"/>
  </g>
  <g id="Group_670" data-name="Group 670" transform="translate(24.986)">
    <path id="Path_1253" data-name="Path 1253" d="M696.392,101.424s-14.671-.55-11.92,15.878,4.814,15.735-.344,20.9-14.787,6.373-9.285,15.854,7.795,10.4,7.795,10.4L729.4,155.28c7.433-7.467,8.4-12.3,7.527-15.462-1.887-6.851-13.388-9.6-12.571-13.412.364-1.688,2.681-1.408,3.668-3.22,3.451-6.332-14.592-28.532-26.728-24.985A10.8,10.8,0,0,0,696.392,101.424Z" transform="translate(-673.197 -97.82)" fill="#1b1541"/>
    <path id="Path_1254" data-name="Path 1254" d="M689.2,133.9a9.44,9.44,0,0,0,6.637,3.877,9.681,9.681,0,0,0,8.036-3.572q.135-7.579.27-15.156l-12.14,2.859q-.342,1.078-.663,2.2A79.4,79.4,0,0,0,689.2,133.9Z" transform="translate(-666.377 -88.775)" fill="#dc7680"/>
    <path id="Path_1255" data-name="Path 1255" d="M711.641,118.439c0,9.637-6.369,17.449-14.225,17.449a11.851,11.851,0,0,1-4.335-.824c-5.737-2.249-9.891-8.842-9.891-16.625,0-9.637,6.369-17.449,14.226-17.449S711.641,108.8,711.641,118.439Z" transform="translate(-668.939 -96.469)" fill="#f7b1ac"/>
  </g>
  <g id="Group_671" data-name="Group 671" transform="translate(72.402 48.112)">
    <path id="Path_1256" data-name="Path 1256" d="M732.162,164.559c-.147.057-.09.038.036.133,1.475,1.1-.036,6.5-.036,6.5-3.93,13.127-8.039,20.086-8.039,20.086-5.8,9.83-9.95,16.735-12.455,20.891l-5.222-21.291a87.88,87.88,0,0,0,8.478-11.249c4.378-6.829,5.419-10.443,5.419-10.443Z" transform="translate(-706.446 -117.496)" fill="#f7b1ac"/>
    <path id="Path_1257" data-name="Path 1257" d="M716.709,169.2s-1.055,2.735-1.733,4.043l13.552-2.036s1.8-5.265.036-6.5S716.709,169.2,716.709,169.2Z" transform="translate(-702.812 -117.509)" fill="#dc7680"/>
    <path id="Path_1258" data-name="Path 1258" d="M732.654,177.715c.134-2.831,1.178-27.52-4.65-36.416a21.794,21.794,0,0,0-16.021-9.742v54.4q10.223-2.715,20.444-5.432Z" transform="translate(-704.087 -131.557)" fill="#1899aa"/>
  </g>
  <g id="Group_672" data-name="Group 672" transform="translate(10.301 48.299)">
    <path id="Path_1259" data-name="Path 1259" d="M671.6,161.376s-8.819,26.917-8.418,47.808-.8,25.31,0,28.524,4.067-2.009,4.067-2.009v-9.642L671.6,236.5l3.709.8c.693-.157,1.7-.391,2.911-.695a39.444,39.444,0,0,0,4.419-1.206c3.2-1.872-3.377-17.228-5.395-28.561-1.2-6.738-1.627-16.768,2.714-29.936l2.684-10.115Z" transform="translate(-662.899 -119.039)" fill="#f7b1ac"/>
    <path id="Path_1260" data-name="Path 1260" d="M666.351,204.271v4.883l3.778,9.072,3.71.8Z" transform="translate(-661.428 -100.762)" fill="#dc7680"/>
    <path id="Path_1261" data-name="Path 1261" d="M692.173,131.688a26.561,26.561,0,0,0-13.628,7.933q-7.021,17.2-14.04,34.4l20.488,7.634Q688.584,156.674,692.173,131.688Z" transform="translate(-662.214 -131.688)" fill="#1899aa"/>
    <path id="Path_1262" data-name="Path 1262" d="M668.909,162.877l-1.259,4.349,11.876,3.039,1.057-3.039Z" transform="translate(-660.874 -118.399)" fill="#dc7680"/>
  </g>
  <g id="Group_673" data-name="Group 673" transform="translate(22.112 103.025)">
    <path id="Path_1263" data-name="Path 1263" d="M680.619,170.834c.02,0,.424.084.424.084l-.424-.084a140.134,140.134,0,0,1,34.306.612c4.19,1.2,10.175,1.2,11.373,5.388,1.2,2.993,0,6.584.6,9.577,4.19,20.353,7.183,38.31,10.774,58.663,4.789,21.549,8.979,41.3,19.155,59.86-7.484,10.9-14.843,17.6-17.989,17.394a11.554,11.554,0,0,1-2.962-.633,10.449,10.449,0,0,1-4.19-2.993c-7.883-33.491-14.837-58.458-18.462-68.794-.662-1.885-1.285-3.492-3.686-10.221-3.2-8.963-5.214-12.648-7.183-18.556-.6-1.8-1.8-2.993-2.394-4.789-.6-1.2-.89-1.06.151.466a4.864,4.864,0,0,0,3.24,2.008,5.244,5.244,0,0,1-3.99-5.468c1.8,15.563-.6,31.127,0,46.69,1.2,20.353,4.19,40.107,6.646,60.016a3.838,3.838,0,0,1-.378-2.109,13.41,13.41,0,0,1,.378,2.109c-9.639-.157-19.216-.157-28.794-.754a4.542,4.542,0,0,1-2.394-1.2,8.518,8.518,0,0,1-1.2-3.591c-.6-11.972-1.8-24.543-1.2-36.515.8-15.952,2.5-23.827,2.394-31.127-.237-16.433-3.167-16.26-3.591-31.127C670.448,188.409,679.869,170.759,680.619,170.834Z" transform="translate(-671.181 -170.064)" fill="#f4ef8c"/>
    <path id="Path_1264" data-name="Path 1264" d="M695.235,198.277a3.782,3.782,0,0,0-3.177.151c-1.47.981-1.945,3.646-.415,6.017l10.78,26.7c6.507,19.8,10.955,35.689,13.874,46.841,0,0,.569,2.172,7.427,29a6.563,6.563,0,0,0,3.835,2.811,4.27,4.27,0,0,0,2.18,0c3.287-1.576-5.858-27.372-7.525-32.035C718.367,267,708.72,240.929,705.29,230.078Q700.263,214.176,695.235,198.277Z" transform="translate(-662.864 -158.166)" fill="#fccb98" stroke="#fccb98" stroke-miterlimit="10" stroke-width="1"/>
  </g>
  <g id="Group_674" data-name="Group 674" transform="translate(28.505 42.99)">
    <path id="Path_1265" data-name="Path 1265" d="M696.218,129.488l-10.851,4.419a25.1,25.1,0,0,0-4.013,4.419c-11.022,15.527-2.637,42.376-2.637,42.376l.415,8.153,44.174,4.024,5.313-4.843.582-48.505,1.493-5.768-20.859-5.8" transform="translate(-675.664 -127.965)" fill="#1899aa"/>
  </g>
</svg>
