<svg id="Group_659" data-name="Group 659" xmlns="http://www.w3.org/2000/svg" width="112.04" height="291.061" viewBox="0 0 112.04 291.061">
  <ellipse id="Ellipse_71" data-name="Ellipse 71" cx="56.02" cy="15.592" rx="56.02" ry="15.592" transform="translate(0 259.877)" fill="#d0d2d3"/>
  <g id="Group_651" data-name="Group 651" transform="translate(16.829)">
    <path id="Path_1219" data-name="Path 1219" d="M495.784,105.356s-14.314-.536-11.63,15.493,4.7,15.35-.335,20.386-14.426,6.219-9.058,15.469,7.6,10.145,7.6,10.145l45.627-8.947c7.252-7.286,8.194-12,7.343-15.086-1.84-6.683-13.061-9.368-12.263-13.084.354-1.647,2.614-1.373,3.578-3.142,3.365-6.178-14.237-27.836-26.077-24.376A10.562,10.562,0,0,0,495.784,105.356Z" transform="translate(-473.155 -101.841)" fill="#1b1541"/>
    <path id="Path_1220" data-name="Path 1220" d="M488.772,137.041a12.958,12.958,0,0,1,14.313.3q.133-7.393.264-14.787l-11.844,2.789q-.334,1.052-.647,2.148A77.63,77.63,0,0,0,488.772,137.041Z" transform="translate(-466.501 -93.017)" fill="#dc7680"/>
    <path id="Path_1221" data-name="Path 1221" d="M510.662,121.958c0,9.4-6.215,17.024-13.879,17.024a11.556,11.556,0,0,1-4.23-.8c-5.6-2.195-9.65-8.626-9.65-16.22,0-9.4,6.215-17.024,13.88-17.024S510.662,112.556,510.662,121.958Z" transform="translate(-469.002 -100.523)" fill="#f7b1ac"/>
  </g>
  <g id="Group_652" data-name="Group 652" transform="translate(27.659 238.73)">
    <path id="Path_1222" data-name="Path 1222" d="M515.235,274.206c-1.6.349,0,9.831,0,9.831s5.224,7.965,11.671,11,9.861,9,8.723,10.948a15.923,15.923,0,0,1-3.624,3.792s-4.72,5.258-13.444,0-13.274-11.705-19.721-14.74-2.722-10.947-2.722-10.947l4.586-8.169v-6.675Z" transform="translate(-474.657 -269.245)" fill="#5352a2"/>
    <path id="Path_1223" data-name="Path 1223" d="M490.559,273.3l17.786-1.927s0,8.723,1.383,11.758a23.376,23.376,0,0,0,3.169,5.094c5.664,13.291,0,13.489,0,13.489l-28.83,3.363c-5.314-.81-2.651-10.948-2.651-10.948s5.69-3.033,8.344-10.947c1.731-5.158,1.366-8.126.8-9.883-.3-.938-.666-1.53-.8-1.927" transform="translate(-480.749 -268.338)" fill="#5352a2"/>
  </g>
  <g id="Group_653" data-name="Group 653" transform="translate(19.574 96.16)">
    <path id="Path_1224" data-name="Path 1224" d="M487.664,169.271l-9.294,26.621s-4.739,16.688-2.842,30.722,12.136,97.472,12.136,97.472.434,2.654,14.818,0l14.386-2.655-11.53-100.507s23.348,33.538,15.59,47.031A319.626,319.626,0,0,1,502.167,296.4s5.6,29.289,15.081,28.867l9.481-.421s20.861-40.582,21.24-59.925-21.912-85.336-21.912-85.336Z" transform="translate(-475.08 -169.271)" fill="#f4ef8c"/>
    <path id="Path_1225" data-name="Path 1225" d="M496.829,198.809l-.531,9.529a148.079,148.079,0,0,1,8.2,13.559,81.223,81.223,0,0,1,5.238,11.059,53.363,53.363,0,0,1,2.969,20.583,65.717,65.717,0,0,0,.588-7.811C513.612,224.952,503.969,208.434,496.829,198.809Z" transform="translate(-466.039 -156.686)" fill="#fccb98" stroke="#fccb98" stroke-miterlimit="10" stroke-width="1"/>
  </g>
  <g id="Group_654" data-name="Group 654" transform="translate(24.534 41.936)">
    <path id="Path_1226" data-name="Path 1226" d="M495.625,131.326l12.578-.078,15.866,7.026,1.517,25.545L519.9,189.629l-37.169-1.915-4.171-29.557L485,132.718Z" transform="translate(-478.558 -131.248)" fill="#1899aa"/>
  </g>
  <g id="Group_655" data-name="Group 655" transform="translate(10.122 43.385)">
    <path id="Path_1227" data-name="Path 1227" d="M471.439,151.745s-.17,1.353-.382,3.473c-.633,6.335-1.641,19.5.382,23.763,2.7,5.689,23.559,11.757,23.559,11.757,2.707.612,6.822,1.579,11.829,2.9,6.293,1.664,8.19,2.357,11.631,3.13a75.211,75.211,0,0,0,16.1,1.79,9.1,9.1,0,0,0-.371-9.719,9.375,9.375,0,0,0-7.135-3.7c4.17,1.346,7.62.911,8.549-.8a2.617,2.617,0,0,0,.2-1.79l-.994-1.192-11.366-.468h0s-37.336-3.1-38.035-8.056,1.51-12.378,1.51-12.378Z" transform="translate(-467.691 -123.963)" fill="#f7b1ac"/>
    <path id="Path_1228" data-name="Path 1228" d="M507.71,174.884l3.38.4s3.562.454,4.919,1.566a21.15,21.15,0,0,1,2.963,3.418l-11.262-3.592Z" transform="translate(-451.725 -114.104)" fill="#dc7680"/>
    <path id="Path_1229" data-name="Path 1229" d="M470.619,157.533l-.339,6.085,15.067,4.117.369-4.466Q478.169,160.4,470.619,157.533Z" transform="translate(-467.673 -121.497)" fill="#dc7680"/>
    <path id="Path_1230" data-name="Path 1230" d="M489.307,132.286a16,16,0,0,0-5.874.766c-10.972,3.637-13.66,18.446-13.867,19.683l-1.114,14.445,18.963,7.206Q488.362,153.336,489.307,132.286Z" transform="translate(-468.452 -132.264)" fill="#1899aa"/>
  </g>
  <g id="Group_658" data-name="Group 658" transform="translate(64.179 48.963)">
    <g id="Group_657" data-name="Group 657">
      <path id="Path_1231" data-name="Path 1231" d="M520.133,154.459c.424.858,9.488,63.145,3.475,73.918l-9.237,7.744-5.261-.479c3.818-5.622,4.466-6.991,4.287-7.129-.208-.158-1.734,1.181-2.924,2.59-1.5,1.775-1.949,3.05-2.784,2.982-.585-.047-1.02-.726-1.192-1.192-.5-1.345.472-2.848.794-3.38.957-1.577,2.052-4.241,2.645-9.027.379-3.919,2.052-21.591,1.984-33.949-.064-11.732-.1-17.6-.453-19.848a8.1,8.1,0,0,1-.081-2.257C511.883,159.832,516.306,156.557,520.133,154.459Z" transform="translate(-506.358 -128.385)" fill="#f7b1ac"/>
      <g id="Group_656" data-name="Group 656" transform="translate(4.057)">
        <path id="Path_1232" data-name="Path 1232" d="M510.227,164.979l.068,5.2,10.761-1.158-.694-5.6Z" transform="translate(-508.767 -124.566)" fill="#dc7680"/>
        <path id="Path_1233" data-name="Path 1233" d="M511.013,136.175a13.127,13.127,0,0,1,6.946,1.921c5.905,3.678,6.307,10.9,6.338,11.655l1.677,24.484L509.2,176.812Z" transform="translate(-509.203 -136.175)" fill="#1899aa"/>
      </g>
    </g>
    <path id="Path_1234" data-name="Path 1234" d="M513.809,204.439l-1.235,2.778-4.286,7.129,2.76.479,4.138-6.609Z" transform="translate(-505.535 -107.089)" fill="#dc7680"/>
  </g>
</svg>
