<svg id="Group_704" data-name="Group 704" xmlns="http://www.w3.org/2000/svg" width="144.094" height="286.995" viewBox="0 0 144.094 286.995">
  <ellipse id="Ellipse_77" data-name="Ellipse 77" cx="56.826" cy="15.816" rx="56.826" ry="15.816" transform="translate(29.492 255.363)" fill="#d0d2d3"/>
  <path id="Path_1314" data-name="Path 1314" d="M412.684,405.871c-1.285,2.757-.176,4.532-1.209,11.777-1.353,9.482-4.521,15.327-7.531,22.147A170.245,170.245,0,0,0,394.2,469.03q-17.5,26.8-34.993,53.6s5.179,11.959,12.112,12.4,21-3.985,21-3.985a195.347,195.347,0,0,1,8.528-28.074c2.523-6.508,5.062-12.024,12.846-27.3,4.59-9.008,10.761-20.929,18.311-34.994l2.508,3.485L428.763,480.1l-20.618,54.957s7.833,11.639,14.441,10.676,18.448-5.391,18.448-5.391c.979-4.936,2.438-12.718,3.848-22.36,2.691-18.383,2.229-23.129,5.13-33.452,3.663-13.04,5.976-11.081,9.744-23.919a97.236,97.236,0,0,0,3.544-36.765,100.569,100.569,0,0,0-5.516-24.388C425.445,395.679,415.3,400.266,412.684,405.871Z" transform="translate(-333.462 -307.651)" fill="#f4ef8c"/>
  <path id="Path_1315" data-name="Path 1315" d="M416.893,428.446l5.025-2.972-5.178,42.838L398.95,529.641l-5.913-6.815,18.6-49.582,2.017-5.376Z" transform="translate(-318.354 -295.416)" fill="#fccb98" stroke="#fccb98" stroke-miterlimit="10" stroke-width="1"/>
  <g id="Group_699" data-name="Group 699" transform="translate(0 214.977)">
    <path id="Path_1316" data-name="Path 1316" d="M401.237,494.666s.761,15.61-1.51,20.3-7.263,7.654-6.288,12.674,7.122,7.994,7.122,7.994,10.748,3.246,13.734-.555,1.369-19.376,2.221-23.089-3.964-20.082-3.964-20.082Z" transform="translate(-318.23 -480.724)" fill="#5352a2"/>
    <path id="Path_1317" data-name="Path 1317" d="M376.456,484.177c-.443,1.328-6.644,13.288-13.288,15.06s-19.49.185-21.262,6.515,1.772,14.583,1.772,14.583,35.845-.723,42.284-4.71l8.212-27.463Z" transform="translate(-341.41 -484.177)" fill="#5352a2"/>
  </g>
  <g id="Group_701" data-name="Group 701" transform="translate(58.854)">
    <path id="Path_1318" data-name="Path 1318" d="M404.5,339.049s-14.174-.531-11.516,15.341,4.651,15.2-.333,20.187-14.285,6.157-8.97,15.317,7.531,10.045,7.531,10.045L436.4,391.08c7.181-7.214,8.114-11.879,7.272-14.937-1.823-6.618-12.934-9.277-12.144-12.957.35-1.632,2.589-1.36,3.543-3.112,3.333-6.116-14.1-27.563-25.822-24.138A10.446,10.446,0,0,0,404.5,339.049Z" transform="translate(-382.095 -335.567)" fill="#1b1541"/>
    <path id="Path_1319" data-name="Path 1319" d="M401.261,362.722v7.872h11.96V354.659Z" transform="translate(-373.536 -327.041)" fill="#f7b1ac"/>
    <g id="Group_700" data-name="Group 700" transform="translate(15.829 3.482)">
      <ellipse id="Ellipse_78" data-name="Ellipse 78" cx="14.44" cy="16.858" rx="14.44" ry="16.858" fill="#f7b1ac"/>
    </g>
    <path id="Path_1320" data-name="Path 1320" d="M401.261,362.542a35.786,35.786,0,0,0,5.979-.485c1.251-.428,4.22-1.5,5.98-3.6l-.072,7.048-11.887,1.457Z" transform="translate(-373.536 -325.344)" fill="#dc7680"/>
  </g>
  <g id="Group_702" data-name="Group 702" transform="translate(66.081 43.553)">
    <path id="Path_1321" data-name="Path 1321" d="M407.589,365.675c-2.453,1.163-6.33,2.934-11.226,4.872-6.272,2.484-7,2.387-7.974,3.544-3.349,4,.259,11.291,5.316,25.691,1.805,5.14,4.121,12.114,6.526,20.559l45.3-4.171L441.694,373.2,425.6,365.675" transform="translate(-387.091 -365.675)" fill="#1899aa"/>
  </g>
  <g id="Group_703" data-name="Group 703" transform="translate(19.982 42.719)">
    <path id="Path_1322" data-name="Path 1322" d="M443.535,375.957s1.612,3.184,3.752,7.652c3.9,8.149,9.563,20.566,10.423,25.73,1.328,8-14.175,24.388-14.175,24.388l-11,10.631-11.266,20.375L409,456.616s9.893-12.7,8.263-12.7-11.006,9.3-11.006,9.3l-2.789-5.63,13.795-8.988s22.73-16.391,23.617-24.363-10.832-21.261-10.832-21.261Z" transform="translate(-333.678 -360.249)" fill="#f7b1ac"/>
    <path id="Path_1323" data-name="Path 1323" d="M407.931,370.972a101.639,101.639,0,0,0-27.012,35.3q-9.565,17.255-19.047,34.55-3.329,6.071-6.648,12.147l10.174,5.335,7.383-11.962s-1.429,13.1-.143,13.437a16.284,16.284,0,0,0,4.162.014l.088-13.916A97.927,97.927,0,0,1,381.8,433.3c4.892-10.347,10.062-16.542,13.686-21.541a117.126,117.126,0,0,0,15.674-30.606Z" transform="translate(-355.223 -362.475)" fill="#f7b1ac"/>
    <path id="Path_1324" data-name="Path 1324" d="M374.559,394.561c-.256.487,14.171,7.407,14.171,7.407l3.959-6.306L379.372,386.9Z" transform="translate(-346.589 -355.36)" fill="#dc7680"/>
    <path id="Path_1325" data-name="Path 1325" d="M427.184,397.475s3.722,9.432,3.1,11.516l13.481-14.913-2.74-6.375Z" transform="translate(-323.086 -355.003)" fill="#dc7680"/>
    <path id="Path_1326" data-name="Path 1326" d="M403.01,369.043a31.921,31.921,0,0,0-9.636,4.033,32.333,32.333,0,0,0-10.533,10.849l-10.634,11.011,28.143,13.7,7.9-22.688Z" transform="translate(-347.638 -363.337)" fill="#1899aa"/>
    <path id="Path_1327" data-name="Path 1327" d="M409.528,365.933c2.95,0,18.336-2.342,21.938.822s18.664,30.185,18.664,30.185l-15.04,14.767Z" transform="translate(-330.971 -365.098)" fill="#1899aa"/>
  </g>
</svg>
