<svg xmlns="http://www.w3.org/2000/svg" width="711.723" height="497.939" viewBox="0 0 711.723 497.939">
  <g id="Group_836" data-name="Group 836" transform="translate(124.34 -1343.097)">
    <g id="Group_822" data-name="Group 822">
      <g id="Group_812" data-name="Group 812">
        <path id="Path_1517" data-name="Path 1517" d="M151.986,1604.257a1.221,1.221,0,0,1-.6-2.284c.315-.18,31.58-18.4,33.97-62.484.869-16.021.931-31.814.992-47.088.11-27.875.206-51.949,5.217-67.548,3.911-12.177,10.77-22.673,16.822-31.933,5.689-8.707,10.6-16.227,10.8-22.068a1.241,1.241,0,0,1,1.261-1.18,1.22,1.22,0,0,1,1.179,1.261c-.219,6.524-5.307,14.309-11.2,23.323-5.968,9.131-12.731,19.48-16.542,31.344-4.894,15.239-4.99,39.138-5.1,66.811-.061,15.3-.123,31.127-1,47.21-2.465,45.468-34.879,64.293-35.206,64.478A1.208,1.208,0,0,1,151.986,1604.257Z" fill="#fccb98"/>
      </g>
      <g id="Group_813" data-name="Group 813">
        <path id="Path_1518" data-name="Path 1518" d="M215.045,1385.474s21.582.193,25.178-19.348-7.314-22.511-9.236-22.018c-5.9,1.512-6.607,9.81-6.607,9.81s-1.513-13.871-9.051-10.2-8.416,10.957-4.974,19.989S215.045,1385.474,215.045,1385.474Z" fill="#fccb98"/>
      </g>
      <g id="Group_814" data-name="Group 814">
        <path id="Path_1519" data-name="Path 1519" d="M196.662,1416c7.459-4.116,17.455-15.418,26.686-11.481s2.225,9.867,2.225,9.867,10.751,7.367,7.008,15.316-17.54-5.769-21.471-8.18S196.662,1416,196.662,1416Z" fill="#fccb98"/>
      </g>
      <g id="Group_815" data-name="Group 815">
        <path id="Path_1520" data-name="Path 1520" d="M195.8,1418.085s-3.573-36.191-12.795-35.833-5.943,8.055-5.943,8.055-7.677-7.486-10.619-.508,3.1,9.854,13.5,12.293S195.8,1418.085,195.8,1418.085Z" fill="#fccb98"/>
      </g>
      <g id="Group_816" data-name="Group 816">
        <path id="Path_1521" data-name="Path 1521" d="M187.989,1454.273c6.389-5.223,13.022-7.717,24.611-3.5s15.492,10.191,14.081,13.762-7.871,2.017-7.871,2.017,7.931,6.287,4.277,13.159-14.6-12.748-20.092-18.305S187.989,1454.273,187.989,1454.273Z" fill="#fccb98"/>
      </g>
      <g id="Group_817" data-name="Group 817">
        <path id="Path_1522" data-name="Path 1522" d="M187.989,1454.273a69.547,69.547,0,0,0-15.69-27.247c-12.032-12.872-14.081-.228-14.081-.228s-10.7-3.358-12.524,6.336,15.249,7.462,23.6,9.52S187.989,1454.273,187.989,1454.273Z" fill="#fccb98"/>
      </g>
      <g id="Group_818" data-name="Group 818">
        <path id="Path_1523" data-name="Path 1523" d="M188.192,1492.067s2.432-9.384,17.912-2.979,20.007,15.964,19.762,21.457-9.227,3.777-9.227,3.777,8.915,7.964,3.756,14.682-12.221-6.788-17.483-18.713A45.965,45.965,0,0,0,188.192,1492.067Z" fill="#fccb98"/>
      </g>
      <g id="Group_819" data-name="Group 819">
        <path id="Path_1524" data-name="Path 1524" d="M187.136,1491.835s-5.133-15.689-16.771-21.516-27.17-8.019-32.785-.206,7.8,10.052,7.8,10.052-13.4,6.35-6.526,15.316,9.754-11.629,24.935-11.453S187.136,1491.835,187.136,1491.835Z" fill="#fccb98"/>
      </g>
      <g id="Group_820" data-name="Group 820">
        <path id="Path_1525" data-name="Path 1525" d="M184.347,1556.756c10.149-4.584,11.25,5.987,19.722,5.3s15.016-5.016,18.777.935-3.5,7.768-3.5,7.768,15.657,15.382,4.437,18.859-20.034-12.4-26.238-20.977S184.347,1556.756,184.347,1556.756Z" fill="#fccb98"/>
      </g>
      <g id="Group_821" data-name="Group 821">
        <path id="Path_1526" data-name="Path 1526" d="M183.532,1556.852s.163-5.433-13.354-10.378-11.516-27.419-18.235-29.668-8.383,7.834-8.383,7.834-15.589-8.1-13.823,8.687,36.8,15.582,42.282,17.353S183.532,1556.852,183.532,1556.852Z" fill="#fccb98"/>
      </g>
    </g>
    <path id="Path_1527" data-name="Path 1527" d="M-114.193,1561.606c12.179,17.711,30.632,11.157,33.835,23.608s-27.992-4.822-32.659-1.925-15.052,28.524-5.814,35.074,45.84-11.214,53.222-6.96,11.443,21.56-19.1,24.785-34.473.71-36.355,7.051-9.446,35.819,7.758,39.579,71.654-30.039,74.958-25.41-3.754,21.727-32.276,37.924-48.394,14.738-47.792,21.262,3.9,33.356,19.024,36.9,80.467-37.019,88.959-34.1,14.56,24.151,6.3,28.2-35.448,21.358-57.652,21.348-31.619.447-21.71,9.813,39.71,38.28,69.58,32.238,57.34-33.654,57.9-32.061-8.614,18.063-6.35,20.321,13.422,2.875,25.92-22.124,43.071-32.34,44.781-58.4-3.764-76.541-14.1-72.711-7.075,34.779-31.451,46.893-44.165,15.994-32.026.485,41.187-57.247,33.187-81.592-24.834-28.549-27.9-21.687S23.052,1636.537.376,1644.794s-1.566-8.079,9.977-25.589,11.667-38.491,7.691-45.937-6.153.156-11.647-5.917-9.023-13.148-13.985-8.99-.149,29.618-13.7,38.679-20.224,12.554-20.976,4.4,17.848-16.036,16.082-35.2-2.093-13.787-8.992-17.263-12.462-5.841-13.347-2.059,1.815,28.615-6,33.035-13.75,2.5-7.871-9.554,6.984-17.912.976-20.648-10.976-3.1-10.23.532,1.057,15.938-1.84,11.271-5.623-20.863-19.861-23.663S-120.84,1551.939-114.193,1561.606Z" fill="#4f4f98"/>
    <path id="Path_1528" data-name="Path 1528" d="M524.325,1447.327c-12.646,18.969-8.6,60.187-19.652,56.5s4.913-50.974,2.456-52.817-25.794-3.685-32.55,6.142,3.071,63.871-3.07,67.556-19.653-42.376-22.11-48.518-34.392,7.37-40.534,14.74-4.3,41.762,12.283,76.768,14.74,49.132-9.212,25.8-17.81-84.139-23.338-87.209-39.3,4.3-49.746,28.25-.614,45.447,7.984,57.73,28.251,25.181,25.18,28.251-29.479,7.37-42.99-3.685-18.425,7.37-3.071,23.338,50.36,25.18,86.6,24.566,20.267,20.881,42.991,31.936,82.3,9.519,71.855-7.37c-.685-1.108-2.764-1.228-35.006-9.826-33.279-8.875-28.251-24.566-22.11-25.181s71.242,20.267,88.438,6.756,36.849-58.344,24.566-62.643-57.116,11.669-78,2.457-19.039-13.512,0-15.968,75.54-6.142,80.453-22.724-1.842-26.408-11.669-25.18-50.974,9.212-47.9-3.685,33.778.614,40.534-23.338-7.37-10.44-19.039-9.826-21.495-1.842-9.212-12.283,21.495-16.582,12.283-35.621S525.554,1445.485,524.325,1447.327Z" fill="#4f4f98"/>
    <path id="Path_1529" data-name="Path 1529" d="M-83.6,1831.361c25.17,13.73,556.695,13.977,568.136-6.618s59.492-133.866,13.729-178.488-104.1-28.428-104.1-28.428,83.507-146.627-17.173-232.438-148.081,65.537-148.081,65.537-53.277-65.537-133.363-7.185-22.075,176.54-22.075,176.54-33.413-46.135-65.447-39.271-53.674,27.036-60.539,61.361,32.724,71.178,32.724,71.178-17.064-4.41-60.539,2.455S-83.6,1831.361-83.6,1831.361Z" fill="#e4e3f1"/>
    <g id="Group_828" data-name="Group 828">
      <ellipse id="Ellipse_92" data-name="Ellipse 92" cx="39.283" cy="10.933" rx="39.283" ry="10.933" transform="translate(334.73 1817.75)" fill="#d0d2d3"/>
      <path id="Path_1530" data-name="Path 1530" d="M369.108,1709.12c-.889,1.905-.122,3.133-.837,8.14-.935,6.555-3.125,10.6-5.2,15.311a117.6,117.6,0,0,0-6.737,20.209q-12.095,18.526-24.19,37.051s3.581,8.268,8.374,8.574,14.515-2.756,14.515-2.756a135.086,135.086,0,0,1,5.894-19.407c1.744-4.5,3.5-8.311,8.88-18.869,3.174-6.226,7.439-14.467,12.659-24.19l1.733,2.409-3.971,24.843-14.253,37.992s5.415,8.045,9.982,7.38,12.754-3.727,12.754-3.727c.677-3.412,1.684-8.792,2.66-15.457,1.86-12.708,1.54-15.989,3.545-23.125,2.533-9.014,4.132-7.66,6.737-16.536a67.239,67.239,0,0,0,2.45-25.415,69.52,69.52,0,0,0-3.814-16.858C377.928,1702.074,370.914,1705.245,369.108,1709.12Z" fill="#f4ef8c"/>
      <path id="Path_1531" data-name="Path 1531" d="M382.461,1733.183l3.474-2.055-3.579,29.613-12.3,42.4-4.088-4.711,12.859-34.275,1.394-3.716Z" fill="#fccb98" stroke="#fccb98" stroke-miterlimit="10" stroke-width="1"/>
      <g id="Group_823" data-name="Group 823">
        <path id="Path_1532" data-name="Path 1532" d="M371.723,1799.47s.527,10.79-1.044,14.034-5.02,5.29-4.346,8.761,4.923,5.525,4.923,5.525,7.43,2.244,9.493-.383.946-13.394,1.536-15.962-2.74-13.881-2.74-13.881Z" fill="#5352a2"/>
        <path id="Path_1533" data-name="Path 1533" d="M338.569,1789.831c-.306.919-4.593,9.186-9.186,10.411s-13.473.129-14.7,4.505,1.225,10.081,1.225,10.081,24.779-.5,29.231-3.256l5.677-18.985Z" fill="#5352a2"/>
      </g>
      <g id="Group_825" data-name="Group 825">
        <path id="Path_1534" data-name="Path 1534" d="M370.519,1643.629s-9.8-.367-7.962,10.6,3.216,10.508-.229,13.955-9.875,4.256-6.2,10.588,5.206,6.944,5.206,6.944l31.233-6.124c4.963-4.988,5.608-8.212,5.026-10.327-1.26-4.574-8.941-6.413-8.4-8.956.242-1.128,1.79-.941,2.45-2.151,2.3-4.229-9.745-19.054-17.85-16.686A7.213,7.213,0,0,0,370.519,1643.629Z" fill="#1b1541"/>
        <path id="Path_1535" data-name="Path 1535" d="M374.193,1665.887v5.442h8.268v-11.016Z" fill="#f7b1ac"/>
        <g id="Group_824" data-name="Group 824">
          <ellipse id="Ellipse_93" data-name="Ellipse 93" cx="9.982" cy="11.654" rx="9.982" ry="11.654" transform="translate(365.97 1643.629)" fill="#f7b1ac"/>
        </g>
        <path id="Path_1536" data-name="Path 1536" d="M374.193,1666.937a24.747,24.747,0,0,0,4.134-.335,9.565,9.565,0,0,0,4.134-2.487l-.05,4.871-8.218,1.008Z" fill="#dc7680"/>
      </g>
      <g id="Group_826" data-name="Group 826">
        <path id="Path_1537" data-name="Path 1537" d="M374.193,1671.33c-1.7.8-4.376,2.028-7.759,3.368-4.336,1.717-4.842,1.649-5.512,2.449-2.315,2.765.178,7.806,3.674,17.76,1.248,3.554,2.849,8.375,4.512,14.213l31.314-2.883-2.652-29.7-11.127-5.205" fill="#1899aa"/>
      </g>
      <g id="Group_827" data-name="Group 827">
        <path id="Path_1538" data-name="Path 1538" d="M404.1,1681.611s1.113,2.2,2.593,5.291c2.7,5.633,6.612,14.216,7.2,17.787.919,5.529-9.8,16.858-9.8,16.858l-7.6,7.349-7.788,14.086-8.483-5.612s6.839-8.78,5.711-8.78-7.607,6.43-7.607,6.43l-1.928-3.891,9.535-6.213s15.714-11.331,16.326-16.842-7.488-14.7-7.488-14.7Z" fill="#f7b1ac"/>
        <path id="Path_1539" data-name="Path 1539" d="M364.592,1676.626a70.266,70.266,0,0,0-18.674,24.406q-6.611,11.927-13.167,23.884-2.3,4.2-4.6,8.4l7.033,3.688,5.1-8.269s-.988,9.054-.1,9.289a11.306,11.306,0,0,0,2.877.01l.061-9.621a67.551,67.551,0,0,1,3.4-8.7c3.382-7.153,6.956-11.435,9.461-14.891a80.988,80.988,0,0,0,10.834-21.157Z" fill="#f7b1ac"/>
        <path id="Path_1540" data-name="Path 1540" d="M347.491,1697.852c-.177.337,9.8,5.12,9.8,5.12l2.736-4.359-9.205-6.056Z" fill="#dc7680"/>
        <path id="Path_1541" data-name="Path 1541" d="M400.117,1700.113s2.572,6.519,2.143,7.961l9.32-10.309-1.894-4.407Z" fill="#dc7680"/>
        <path id="Path_1542" data-name="Path 1542" d="M366.434,1674.7a22.071,22.071,0,0,0-6.662,2.788,22.355,22.355,0,0,0-7.28,7.5l-7.351,7.612,19.455,9.472,5.462-15.683Z" fill="#1899aa"/>
        <path id="Path_1543" data-name="Path 1543" d="M382.461,1671.33c2.039,0,12.674-1.619,15.165.568s12.9,20.866,12.9,20.866l-10.4,10.208Z" fill="#1899aa"/>
      </g>
    </g>
    <g id="Group_835" data-name="Group 835">
      <ellipse id="Ellipse_94" data-name="Ellipse 94" cx="39.283" cy="10.933" rx="39.283" ry="10.933" transform="translate(23.293 1817.999)" fill="#d0d2d3"/>
      <g id="Group_830" data-name="Group 830">
        <path id="Path_1544" data-name="Path 1544" d="M73.737,1638.243s10.289-.385,8.36,11.135-3.377,11.033.241,14.652,10.369,4.47,6.51,11.118-5.465,7.291-5.465,7.291l-32.794-6.43c-5.212-5.237-5.89-8.622-5.278-10.843,1.323-4.8,9.388-6.733,8.814-9.4-.254-1.184-1.879-.988-2.572-2.259-2.419-4.439,10.232-20.006,18.743-17.52A7.589,7.589,0,0,1,73.737,1638.243Z" fill="#1b1541"/>
        <path id="Path_1545" data-name="Path 1545" d="M69.879,1661.614v5.714H61.2v-11.566Z" fill="#f7b1ac"/>
        <g id="Group_829" data-name="Group 829">
          <ellipse id="Ellipse_95" data-name="Ellipse 95" cx="10.481" cy="12.236" rx="10.481" ry="12.236" transform="translate(57.551 1638.243)" fill="#f7b1ac"/>
        </g>
        <path id="Path_1546" data-name="Path 1546" d="M69.879,1662.716a25.962,25.962,0,0,1-4.34-.352,10.033,10.033,0,0,1-4.341-2.611l.053,5.115,8.628,1.058Z" fill="#dc7680"/>
      </g>
      <g id="Group_831" data-name="Group 831">
        <path id="Path_1547" data-name="Path 1547" d="M82.8,1675.148c-.062,1.5,1.867,33.334,1.867,33.334s2.572,17.527,3.858,24.2,2.893,15.456,2.893,15.456H78.891l-.378-7.18-2.2,7.18H72.773l2.572-11.038-.481-40.9-.484-19.221Z" fill="#f7b1ac"/>
        <path id="Path_1548" data-name="Path 1548" d="M51.875,1673.758a49.356,49.356,0,0,0-6.751,4.321l-4.5,58.052,2.25,8.038h12.4l-1.188-6.623,3.468,6.623h3.508L53.8,1730.987c-.883-8.173-1.56-16.874-1.929-26.055C51.43,1693.868,51.485,1683.446,51.875,1673.758Z" fill="#f7b1ac"/>
        <path id="Path_1549" data-name="Path 1549" d="M52.974,1736.67v7.5h2.3l-1.148-6.229Z" fill="#dc7680"/>
        <path id="Path_1550" data-name="Path 1550" d="M51.78,1702.355l-8.32-2.82.209-2.7,8,1.579Z" fill="#dc7680"/>
        <path id="Path_1551" data-name="Path 1551" d="M84.1,1698.971l-8.562,1.581.152-2.5,8.41-1.216Z" fill="#dc7680"/>
        <path id="Path_1552" data-name="Path 1552" d="M78.332,1741.546l-2.022,6.588H74.9l3.428-8.716Z" fill="#dc7680"/>
        <path id="Path_1553" data-name="Path 1553" d="M54.442,1667.925q.414,15.754.829,31.508l-13.182-2.641s.3-24.055,2.08-23.889-.94-.115,2.67-3.993Z" fill="#1899aa"/>
        <path id="Path_1554" data-name="Path 1554" d="M86.362,1677.688c1.183,7.569,2.165,18.507,2.165,18.507l-13.825,2v-29.028H77.52a34.868,34.868,0,0,1,3.412,1.315,9.185,9.185,0,0,1,4.058,2.957A7.577,7.577,0,0,1,86.362,1677.688Z" fill="#1899aa"/>
      </g>
      <g id="Group_832" data-name="Group 832">
        <path id="Path_1555" data-name="Path 1555" d="M67.563,1808.527a15.65,15.65,0,0,0-2.024,4.446l4.34,10.373-1.847,4.1s-6.834,2.572-8.441,0-1.829-6.972-2.04-9.113-2.28-7.285-2.28-7.285l3.522-3.629Z" fill="#5352a2"/>
        <path id="Path_1556" data-name="Path 1556" d="M79.987,1745.961s5.646.5,6.611,0,4.559,3.031,3.4,4.317.453,6.752,2.7,9.324,3.858,6.43,3.215,9.324a2.348,2.348,0,0,1-3.215,1.929s-7.508-11.007-11.65-8.7S79.987,1745.961,79.987,1745.961Z" fill="#5352a2"/>
        <path id="Path_1557" data-name="Path 1557" d="M82.8,1746.145l-.255,9.827-2.589-9.827Z" fill="#5352a2"/>
      </g>
      <g id="Group_833" data-name="Group 833">
        <path id="Path_1558" data-name="Path 1558" d="M74.7,1707.007a41.478,41.478,0,0,1,3.811,22.373,204.088,204.088,0,0,1-5.419,25.721l5.419,48.869s-6.062,5.144-13.939,4.5a26.7,26.7,0,0,1-12.7-4.179s7.716-48.227,7.716-49.191,3.537-22.019,1.607-22.423-5.465,1.417-15.111,15.456v1.822l32.711-5.787s4.585,6.109,3.942,10.61a57.831,57.831,0,0,1-2.251,9.171s-46.367,7.473-52.728-6.183c-.643-1.38,14.147-44.489,24.114-52.835S74.7,1707.007,74.7,1707.007Z" fill="#f4ef8c"/>
        <path id="Path_1559" data-name="Path 1559" d="M74.169,1764.79s-14.924,1.138-16.214,1.162q-.146,1.38-.293,2.759l16.828-1.028Z" fill="#fccb98" stroke="#fccb98" stroke-miterlimit="10" stroke-width="1"/>
        <path id="Path_1560" data-name="Path 1560" d="M61.2,1732.678s1.825-11.693-16.074,14.885l-.751,2.858,1.714-.465v-1.822l10.1-12.814S59.734,1731.51,61.2,1732.678Z" fill="#fccb98" stroke="#fccb98" stroke-miterlimit="10" stroke-width="1"/>
      </g>
      <g id="Group_834" data-name="Group 834">
        <path id="Path_1561" data-name="Path 1561" d="M69.879,1667.328s12.679,2.045,15.111,6.109,3.537,22.758,3.537,22.758l-13.825,2,.321-12.674a66.634,66.634,0,0,1,.358,16.747c-.176,1.651-.407,3.233-.679,4.741l-22.827-2.075c-.574-2.433-1.1-4.978-1.568-7.63a135.591,135.591,0,0,1-1.969-19.042q.84,3.628,1.679,7.259,1.251,6.819,2.5,13.639l-11.9-2.963a75.63,75.63,0,0,1,.321-13.113c.931-8.323,1.4-12.484,4.428-14.769,0,0,1.949-1.469,15.827-.985Z" fill="#1899aa"/>
      </g>
    </g>
    <path id="Path_1562" data-name="Path 1562" d="M232.626,1752.63a2.761,2.761,0,0,0-3.392-2.224c-8.014,2.084-32.214-.242-38.752-1.876-7.727-1.932-1.931-10.3,1.932-16.1s-1.507-15.892-15.454-15.454-16.1,13.084-10.947,18.235,7.29,10.1,1.713,14.167c-4.407,3.226-27.19,1.087-36.548.048a3.622,3.622,0,0,0-4.019,3.608v77.637a10.363,10.363,0,0,0,10.363,10.363h92.909a2.468,2.468,0,0,0,.619-.219c2.781-1.932,1.712-33.265-2.795-36.7s-14.591,12.879-26.826-1.932,6.439-26.607,14.373-21.893,13.1,9.234,16.742,3.657C235.618,1779.247,234.133,1761.364,232.626,1752.63Z" fill="#1899aa"/>
    <path id="Path_1563" data-name="Path 1563" d="M220.1,1748.711a2.762,2.762,0,0,0,2.224-3.393c-2.084-8.013.242-32.213,1.876-38.751,1.932-7.727,10.3-1.932,16.1,1.932s15.892-1.507,15.454-15.454-13.084-16.1-18.236-10.947-10.1,7.289-14.166,1.713c-3.227-4.408-1.087-27.191-.048-36.548a3.622,3.622,0,0,0-3.608-4.019H142.058a10.363,10.363,0,0,0-10.363,10.363v92.909a2.456,2.456,0,0,0,.219.618c1.932,2.782,33.265,1.713,36.7-2.794s-12.879-14.592,1.931-26.826,26.607,6.439,21.894,14.372-9.234,13.1-3.658,16.742C193.484,1751.7,211.367,1750.218,220.1,1748.711Z" fill="#4f4f98"/>
    <path id="Path_1564" data-name="Path 1564" d="M317.271,1727.124a2.76,2.76,0,0,0-2.224,3.392c2.083,8.014-.242,32.214-1.877,38.751-1.931,7.728-10.3,1.932-16.1-1.931s-15.892,1.506-15.454,15.454,13.085,16.1,18.236,10.947,10.1-7.29,14.166-1.713c3.227,4.407,1.088,27.19.049,36.548a3.621,3.621,0,0,0,3.608,4.019h77.637a10.362,10.362,0,0,0,10.362-10.363v-92.909a2.374,2.374,0,0,0-.219-.619c-1.931-2.782-33.265-1.713-36.7,2.8s12.878,14.591-1.932,26.826-26.607-6.439-21.893-14.373,9.233-13.1,3.657-16.742C343.888,1724.132,326.005,1725.616,317.271,1727.124Z" fill="#4f4f98"/>
    <path id="Path_1565" data-name="Path 1565" d="M81.653,1582.656c-.061.957-.072,1.862-.046,2.717.78,21.787,30.6,11.24,30.6,11.24s4.032,14.008,28.2,14.941,26.812-9.947,26.812-9.947,4.175,8.373,12.205,8.9a13.715,13.715,0,0,0,11.894-4.969s7.173,10.459,21.074-.168a18.41,18.41,0,0,0,6.819-10.144s-.011,0,0-.01c2.554-9.73-2.488-20.058-2.488-20.058-15.117-20.615-26.773-7.792-26.773-7.792s.391-6.531-7.24-9.558-16.273,3.308-16.273,3.308-.2-25.692-33.735-26.984c-27.2-1.045-29.5,20.091-29.4,28.108a29.624,29.624,0,0,0,.176,3.019s-.219-.084-.6-.205C99.517,1563.974,82.809,1564.595,81.653,1582.656Z" fill="#fccb98"/>
    <path id="Path_1566" data-name="Path 1566" d="M254.521,1497.867c-.044.68-.052,1.324-.033,1.933.556,15.5,21.776,8,21.776,8s2.869,9.969,20.068,10.632,19.08-7.078,19.08-7.078,2.97,5.958,8.685,6.333a9.76,9.76,0,0,0,8.464-3.536s5.1,7.443,15-.12a13.1,13.1,0,0,0,4.853-7.218s-.008,0,0-.007c1.817-6.924-1.77-14.273-1.77-14.273-10.758-14.67-19.052-5.545-19.052-5.545s.278-4.648-5.153-6.8-11.579,2.354-11.579,2.354-.144-18.282-24.007-19.2c-19.359-.744-20.995,14.3-20.923,20a21.188,21.188,0,0,0,.125,2.149s-.155-.061-.429-.147C267.233,1484.572,255.343,1485.013,254.521,1497.867Z" fill="#fccb98"/>
  </g>
</svg>
