<svg id="Group_698" data-name="Group 698" xmlns="http://www.w3.org/2000/svg" width="113.652" height="289.991" viewBox="0 0 113.652 289.991">
  <ellipse id="Ellipse_76" data-name="Ellipse 76" cx="56.826" cy="15.816" rx="56.826" ry="15.816" transform="translate(0 258.359)" fill="#d0d2d3"/>
  <g id="Group_691" data-name="Group 691" transform="translate(28.712)">
    <path id="Path_1296" data-name="Path 1296" d="M298.994,337.2s-15.068-.564-12.242,16.307,4.944,16.16-.353,21.46-15.186,6.546-9.534,16.281,8,10.679,8,10.679l48.028-9.417c7.634-7.67,8.626-12.627,7.731-15.879-1.937-7.035-13.75-9.861-12.909-13.773.372-1.734,2.753-1.447,3.767-3.308,3.543-6.5-14.985-29.3-27.449-25.66A11.114,11.114,0,0,0,298.994,337.2Z" transform="translate(-275.173 -333.496)" fill="#1b1541"/>
    <path id="Path_1297" data-name="Path 1297" d="M291.379,370.24a13.754,13.754,0,0,1,6.822-2.108,13.9,13.9,0,0,1,8.246,2.422q.139-7.783.278-15.565l-12.467,2.937q-.354,1.107-.683,2.261A81.6,81.6,0,0,0,291.379,370.24Z" transform="translate(-267.936 -323.898)" fill="#dc7680"/>
    <path id="Path_1298" data-name="Path 1298" d="M314.509,354.628c0,9.9-6.541,17.92-14.611,17.92a12.158,12.158,0,0,1-4.451-.848c-5.892-2.309-10.158-9.08-10.158-17.073,0-9.9,6.541-17.922,14.609-17.922S314.509,344.73,314.509,354.628Z" transform="translate(-270.655 -332.063)" fill="#f7b1ac"/>
  </g>
  <g id="Group_692" data-name="Group 692" transform="translate(75.607 51.783)">
    <path id="Path_1299" data-name="Path 1299" d="M317.016,392.992s2.336,15.811-1.169,23.684-8.256,9.43-8.256,9.43l5.093,16.753,7.058-5.412-6.076,7.749s-2.72,8.814.7,5.575,11.257-13.325,11.257-13.325,5.023-3.159,4.633-23.417l-.389-20.258Z" transform="translate(-307.591 -358.71)" fill="#f7b1ac"/>
    <path id="Path_1300" data-name="Path 1300" d="M314.516,397.306a37.438,37.438,0,0,1,0,9.566l12.519-1.481s.153-2.015.155-6.1S314.516,397.306,314.516,397.306Z" transform="translate(-304.498 -357.022)" fill="#dc7680"/>
    <path id="Path_1301" data-name="Path 1301" d="M315.631,369.812,312.985,407.8q-1.146,3.454-2.293,6.907l21.093-2.97q-.167-16.087-.334-32.175c-.13-.657-1.377-6.488-6.947-9.116A12.716,12.716,0,0,0,315.631,369.812Z" transform="translate(-306.206 -369.293)" fill="#1899aa"/>
    <path id="Path_1302" data-name="Path 1302" d="M321.486,421.617l-2.881,3.866-7.057,5.411-1.41-4.638,11.349-6.473" transform="translate(-306.454 -346.745)" fill="#dc7680"/>
  </g>
  <g id="Group_693" data-name="Group 693" transform="translate(26.693 90.939)">
    <path id="Path_1303" data-name="Path 1303" d="M285.639,404.144s-7.868,14.872-5.582,32.765,7.937,37.669,7.937,37.669l-7.937,71.573s8.879,7.534,20.416,6.592,18.6-6.122,18.6-6.122-11.3-70.63-11.3-72.043-5.18-32.247-2.355-32.839,8.005,2.076,22.131,22.636v2.669l-47.907-8.476s-6.714,8.947-5.772,15.539a84.784,84.784,0,0,0,3.3,13.432s67.907,10.943,77.223-9.056c.942-2.022-20.719-65.157-35.316-77.381S285.639,404.144,285.639,404.144Z" transform="translate(-273.777 -396.361)" fill="#f4ef8c"/>
    <path id="Path_1304" data-name="Path 1304" d="M282.662,460.24s21.857,1.668,23.746,1.7l.43,4.04-24.646-1.506Q282.426,462.359,282.662,460.24Z" transform="translate(-270.02 -367.833)" fill="#fccb98" stroke="#fccb98" stroke-miterlimit="10" stroke-width="1"/>
    <path id="Path_1305" data-name="Path 1305" d="M295.672,428.888s-2.672-17.125,23.542,21.8l1.1,4.185-2.511-.68v-2.669L303.01,432.758S297.817,427.178,295.672,428.888Z" transform="translate(-264.034 -383.51)" fill="#fccb98" stroke="#fccb98" stroke-miterlimit="10" stroke-width="1"/>
  </g>
  <g id="Group_694" data-name="Group 694" transform="translate(6.32 155.463)">
    <path id="Path_1306" data-name="Path 1306" d="M289.6,504.861a22.894,22.894,0,0,1,2.965,6.511L286.2,526.566l2.7,6s10.009,3.767,12.364,0,2.678-10.21,2.987-13.346,3.339-10.669,3.339-10.669l-5.159-5.316Z" transform="translate(-247.855 -413.158)" fill="#5352a2"/>
    <path id="Path_1307" data-name="Path 1307" d="M283.24,441.037s-8.269.741-9.682,0-6.676,4.44-4.986,6.323-.664,9.887-3.959,13.654-5.65,9.419-4.709,13.656a3.438,3.438,0,0,0,4.709,2.825s11-16.119,17.063-12.746S283.24,441.037,283.24,441.037Z" transform="translate(-259.694 -440.965)" fill="#5352a2"/>
    <path id="Path_1308" data-name="Path 1308" d="M273.122,441.2l.374,14.393,3.791-14.393Z" transform="translate(-253.698 -440.86)" fill="#5352a2"/>
  </g>
  <g id="Group_695" data-name="Group 695" transform="translate(35.706 44.023)">
    <path id="Path_1309" data-name="Path 1309" d="M297.387,363.929H311.8l24.517,8.208a52.463,52.463,0,0,0-6.986,17.026c-1.412,6.69-.443,10.345-1.8,18.835a149.726,149.726,0,0,1-3.656,16.694l-43.451,2.18a316.785,316.785,0,0,1,.02-33c.54-10.232,1.542-19.753,2.8-28.475Z" transform="translate(-280.008 -363.929)" fill="#1899aa"/>
  </g>
  <g id="Group_697" data-name="Group 697" transform="translate(16.278 45.458)">
    <path id="Path_1310" data-name="Path 1310" d="M270.268,389.112c-.321,9.582-.188,17.479,0,22.986.971,28.531,4.862,36.251,7.791,40.638a41.63,41.63,0,0,0,8.96,9.618v-6.233l-3.9-3.385,8.96,4.554V437.81a34.144,34.144,0,0,1-2.177-2.844c-5.763-8.4-6.23-17.261-6.488-23.556a64.528,64.528,0,0,1,3.243-22.816Z" transform="translate(-265.017 -354.348)" fill="#f7b1ac"/>
    <path id="Path_1311" data-name="Path 1311" d="M277.682,429.764l2.045,4.586,8.96,4.553v-4.569Z" transform="translate(-261.619 -335.962)" fill="#dc7680"/>
    <path id="Path_1312" data-name="Path 1312" d="M270.174,390.047v10.262L283.6,402.3s.529-11.276,1.551-10.673" transform="translate(-264.972 -353.699)" fill="#dc7680"/>
    <g id="Group_696" data-name="Group 696">
      <path id="Path_1313" data-name="Path 1313" d="M291.741,365.215c-2.9-.448-8.191-.787-12.83,2.16-5.241,3.329-6.879,9.087-9.417,18.521a88.781,88.781,0,0,0-2.916,18.57l20.809,2.776Z" transform="translate(-266.578 -364.92)" fill="#1899aa"/>
    </g>
  </g>
</svg>
