<svg id="Group_642" data-name="Group 642" xmlns="http://www.w3.org/2000/svg" width="156.529" height="285.209" viewBox="0 0 156.529 285.209">
  <ellipse id="Ellipse_68" data-name="Ellipse 68" cx="78.265" cy="15.592" rx="78.265" ry="15.592" transform="translate(0 254.025)" fill="#d0d2d3"/>
  <g id="Group_636" data-name="Group 636" transform="translate(17.599 234.984)">
    <path id="Path_1189" data-name="Path 1189" d="M411.177,272.271c-.3,1.861-2.384,13.177-2.384,13.177a9.487,9.487,0,0,0,.409,1.909,11.6,11.6,0,0,0,4.264,5.525,63.578,63.578,0,0,0,11.728,7.294c9.288,4.137,13.931,6.206,16.4,4.672,3.739-2.323,4.967-9.639,2.088-13.719a8.589,8.589,0,0,0-3.28-2.684c-3.239-1.5-5.472.037-8.35-.6-1.914-.421-4.434-1.87-6.859-6.561h0c-1.142-1.777-1.844-4.859.3-10.567Z" transform="translate(-326.772 -270.721)" fill="#5352a2"/>
    <path id="Path_1190" data-name="Path 1190" d="M372.76,274.132s.6,3.876-3.579,8.052-10.139,10.437-11.928,11.034-5.667,1.492-5.965,5.368,5.965,7.456,5.965,7.456,8.35,1.194,12.823,0,6.56-5.964,8.35-10.139c.643-1.5,5.045-5.771,7.157-10.453a13.029,13.029,0,0,0,.67-1.773c.8-2.754.318-4.652.21-7.438a29.339,29.339,0,0,1,.312-5.516Z" transform="translate(-351.278 -270.721)" fill="#5352a2"/>
  </g>
  <g id="Group_637" data-name="Group 637" transform="translate(59.529)">
    <path id="Path_1191" data-name="Path 1191" d="M403.31,109.461s-14.315-.536-11.631,15.491,4.7,15.352-.335,20.387-14.426,6.218-9.058,15.467,7.6,10.145,7.6,10.145L435.517,162c7.252-7.286,8.194-12,7.343-15.085-1.84-6.684-13.061-9.369-12.263-13.084.354-1.649,2.614-1.375,3.578-3.143,3.366-6.178-14.236-27.836-26.077-24.376A10.538,10.538,0,0,0,403.31,109.461Z" transform="translate(-380.68 -105.944)" fill="#1b1541"/>
    <path id="Path_1192" data-name="Path 1192" d="M396.3,141.144a9.2,9.2,0,0,0,6.474,3.785,9.446,9.446,0,0,0,7.841-3.487q.131-7.393.262-14.787l-11.844,2.789q-.334,1.055-.647,2.149A77.624,77.624,0,0,0,396.3,141.144Z" transform="translate(-374.026 -97.12)" fill="#dc7680"/>
    <path id="Path_1193" data-name="Path 1193" d="M418.187,126.061c0,9.4-6.213,17.024-13.879,17.024a11.556,11.556,0,0,1-4.23-.8c-5.6-2.195-9.65-8.626-9.65-16.22,0-9.4,6.215-17.024,13.88-17.024S418.187,116.659,418.187,126.061Z" transform="translate(-376.527 -104.626)" fill="#f7b1ac"/>
  </g>
  <g id="Group_639" data-name="Group 639" transform="translate(23.575 46.94)">
    <path id="Path_1194" data-name="Path 1194" d="M438.208,171.057c-.143.057-.087.037.036.13,1.438,1.072-.036,6.346-.036,6.346-3.835,12.808-7.843,19.6-7.843,19.6-5.663,9.59-9.706,16.327-12.15,20.382l-5.1-20.774a85.677,85.677,0,0,0,8.271-10.974c4.271-6.664,5.286-10.189,5.286-10.189Z" transform="translate(-330.904 -125.142)" fill="#f7b1ac"/>
    <path id="Path_1195" data-name="Path 1195" d="M423.131,175.587s-1.03,2.668-1.691,3.945l13.223-1.987s1.76-5.137.036-6.346S423.131,175.587,423.131,175.587Z" transform="translate(-327.359 -125.154)" fill="#dc7680"/>
    <path id="Path_1196" data-name="Path 1196" d="M438.687,183.893c.131-2.761,1.149-26.85-4.536-35.529a21.262,21.262,0,0,0-15.63-9.5v53.071l19.945-5.3Z" transform="translate(-328.603 -138.86)" fill="#1899aa"/>
    <g id="Group_638" data-name="Group 638" transform="translate(0 45.915)">
      <path id="Path_1197" data-name="Path 1197" d="M399.028,177.627s-7.177,9.145-11.949,40.955c-.834,4.842-2,12.233-2.982,21.371-.051.469-.227,2.406-.508,5.078,0,0-.471,4.455-.9,7.872-.967,7.746-10.044,24.493-13.8,31.485-4.529,8.42-8.919,16.913-13.419,25.349,2.266,6.454,5.363,9,7.754,10.139,0,0,1.419.676,10.194,2.18h0a29.331,29.331,0,0,0,18.435-8.742c1.694-8.517,6.7-33.245,13.121-58.749,0,0,3.289-13.05,12.08-38.781.285-.834,1.263-3.173,1.268-3.18l0-.01h0l2.259.261,1.686,3.836c1.643,34.843,2.088,45,2.088,45.843v1.574l1.49,50.626c7.9,7.219,18.125,8.233,21.174,7.274,4.089-1.286,11.928-11.975,11.928-11.975a124.913,124.913,0,0,0-3.578-15.209c-1.105-3.661-2.064-6.235-2.456-7.319-4.3-11.864-6.173-25.813-6.492-28.169-1.751-13.013.93-12.247.9-37.874-.026-18.188-1.385-24.734-2.088-27.734a84.914,84.914,0,0,0-8.947-22.673" transform="translate(-355.468 -171.057)" fill="#f4ef8c"/>
      <path id="Path_1198" data-name="Path 1198" d="M399.58,201.615s-.615-6.042.92-4.551c0,0,4.217,1.349,4.515,4.551S412.77,307.78,412.77,307.78l-5.667-4.024-1.49-50.626-3.579-48.013Z" transform="translate(-336.725 -160.077)" fill="#fccb98" stroke="#fccb98" stroke-miterlimit="10" stroke-width="1"/>
    </g>
  </g>
  <g id="Group_640" data-name="Group 640" transform="translate(45.2 47.123)">
    <path id="Path_1199" data-name="Path 1199" d="M379.121,167.952s-8.6,26.261-8.213,46.643-.784,24.693,0,27.828,3.969-1.959,3.969-1.959v-9.406l4.244,10.191,3.619.783c.675-.153,1.657-.381,2.839-.677a38.685,38.685,0,0,0,4.312-1.177c3.123-1.827-3.3-16.809-5.265-27.866-1.169-6.574-1.587-16.36,2.648-29.206l2.62-9.87Z" transform="translate(-370.632 -126.647)" fill="#f7b1ac"/>
    <path id="Path_1200" data-name="Path 1200" d="M374,209.8v4.764l3.686,8.851,3.62.784Z" transform="translate(-369.197 -108.816)" fill="#dc7680"/>
    <path id="Path_1201" data-name="Path 1201" d="M399.194,138.988a25.894,25.894,0,0,0-13.3,7.739l-13.7,33.566,19.989,7.447Q395.693,163.365,399.194,138.988Z" transform="translate(-369.964 -138.988)" fill="#1899aa"/>
    <path id="Path_1202" data-name="Path 1202" d="M376.5,169.416l-1.228,4.243,11.587,2.965,1.031-2.965Z" transform="translate(-368.657 -126.023)" fill="#dc7680"/>
  </g>
  <g id="Group_641" data-name="Group 641" transform="translate(62.961 41.942)">
    <path id="Path_1203" data-name="Path 1203" d="M403.139,136.841l-10.586,4.311a24.558,24.558,0,0,0-3.916,4.312c-10.754,15.149-2.571,41.343-2.571,41.343l.4,7.953,43.1,3.927,5.185-4.725.568-47.324,1.456-5.627-20.352-5.657" transform="translate(-383.086 -135.355)" fill="#1899aa"/>
  </g>
</svg>
