<svg id="Group_690" data-name="Group 690" xmlns="http://www.w3.org/2000/svg" width="128.237" height="293.063" viewBox="0 0 128.237 293.063">
  <ellipse id="Ellipse_75" data-name="Ellipse 75" cx="56.826" cy="15.816" rx="56.826" ry="15.816" transform="translate(14.586 261.43)" fill="#d0d2d3"/>
  <g id="Group_684" data-name="Group 684" transform="translate(27.815 7.669)">
    <path id="Path_1280" data-name="Path 1280" d="M703.774,335.839s-14.051-3.7-14.949,12.756,1.245,16.236-4.852,20.1-15.659,2.955-12.4,13.3,5.277,11.727,5.277,11.727L724,394.993c8.794-5.6,10.771-10.058,10.614-13.3-.34-7.023-10.851-12.17-9.238-15.671.716-1.554,2.893-.781,4.24-2.317,4.7-5.368-7.919-30.71-20.407-29.911A10.7,10.7,0,0,0,703.774,335.839Z" transform="translate(-670.915 -333.771)" fill="#1b1541"/>
    <path id="Path_1281" data-name="Path 1281" d="M687.8,367.895a7.274,7.274,0,1,0,14.457,1.38q.69-7.469,1.38-14.939l-12.19,1.93q-.417,1.039-.817,2.124a78.421,78.421,0,0,0-2.566,8.4Q687.929,367.345,687.8,367.895Z" transform="translate(-663.402 -324.587)" fill="#dc7680"/>
    <path id="Path_1282" data-name="Path 1282" d="M712.545,356.62c-2.085,9.307-9.927,15.474-17.514,13.774a11.7,11.7,0,0,1-4.007-1.734c-5.054-3.414-7.639-10.679-5.956-18.2,2.086-9.307,9.927-15.474,17.514-13.774S714.629,347.312,712.545,356.62Z" transform="translate(-664.824 -332.594)" fill="#f7b1ac"/>
  </g>
  <g id="Group_685" data-name="Group 685" transform="translate(27.941 49.871)">
    <path id="Path_1283" data-name="Path 1283" d="M695.541,362.945,671,366.764s4.474,32.671,17.324,45.679l2.283,5.445,37.187-4.2a84.435,84.435,0,0,0,2.42-28.776l-5.143-21.969H695.541Z" transform="translate(-671.002 -362.945)" fill="#1899aa"/>
  </g>
  <g id="Group_686" data-name="Group 686" transform="translate(25.376 238.349)">
    <path id="Path_1284" data-name="Path 1284" d="M694.68,498.141c3.661,7.2,3.135,11.077,1.814,13.31-4.419,7.476-23.666,6.579-23.666,6.579h0c-.424.323-4.021,3.143-3.559,6.429a6.03,6.03,0,0,0,.6,1.815,10.309,10.309,0,0,0,3.63,3.67h41.735s.359-9.236-1.61-14.161-4.293-16.853-4.293-16.853Z" transform="translate(-669.229 -491.045)" fill="#5352a2"/>
    <path id="Path_1285" data-name="Path 1285" d="M723.919,501.121c4.021,1.943,6.475,5.849,6.126,9.543-.474,5.038-6.145,9.5-12.775,8.312a9.123,9.123,0,0,0,1.506,10.7c3.129,3,7.447,2.209,7.87,2.125A57.453,57.453,0,0,0,749.6,511.6l-6.32-9.762-8.435-8.607Z" transform="translate(-648.252 -493.236)" fill="#5352a2"/>
  </g>
  <g id="Group_687" data-name="Group 687" transform="translate(36.368 100.137)">
    <path id="Path_1286" data-name="Path 1286" d="M686.167,399.689c.02,0,.419.084.419.084l-.419-.084q8.567-.2,17.66-.726,8.645-.508,16.792-1.27l4.576.479h0c1.758,3.828,4.275,9.657,6.771,16.935,8.513,24.812,7.3,42.938,10.663,58.056,4.74,21.326,8.886,40.876,18.958,59.241-7.406,10.783-14.69,17.42-17.8,17.214a11.388,11.388,0,0,1-2.932-.628,10.34,10.34,0,0,1-4.147-2.961c-7.8-33.146-14.683-57.853-18.27-68.084-.654-1.866-1.272-3.456-3.648-10.115-3.167-8.87-5.16-12.517-7.109-18.364-.593-1.778-1.778-2.963-2.37-4.739-.593-1.185-.881-1.049.15.461a4.813,4.813,0,0,0,3.206,1.988,5.188,5.188,0,0,1-3.949-5.412c1.778,15.4-.592,30.805,0,46.208,1.185,20.141,4.147,39.692,6.576,59.4a3.818,3.818,0,0,1-.373-2.088,13.088,13.088,0,0,1,.373,2.088c-9.539-.155-19.017-.155-28.495-.748a4.481,4.481,0,0,1-2.37-1.185,8.411,8.411,0,0,1-1.185-3.554c-.593-11.848-1.778-24.288-1.185-36.137.788-15.787,2.474-23.579,2.37-30.805-.236-16.263-3.136-16.092-3.554-30.805C676.1,417.085,685.425,399.616,686.167,399.689Z" transform="translate(-676.828 -397.693)" fill="#f4ef8c"/>
    <path id="Path_1287" data-name="Path 1287" d="M700.36,426.075a3.749,3.749,0,0,0-3.146.15c-1.454.971-1.924,3.609-.409,5.954l10.669,26.426c6.439,19.593,10.841,35.32,13.731,46.357,0,0,.563,2.148,7.349,28.7a6.5,6.5,0,0,0,3.8,2.78,4.207,4.207,0,0,0,2.158,0c3.252-1.558-5.8-27.089-7.448-31.7-3.806-10.647-13.353-36.453-16.749-47.191Q705.336,441.811,700.36,426.075Z" transform="translate(-668.323 -385.146)" fill="#fccb98" stroke="#fccb98" stroke-miterlimit="10" stroke-width="1"/>
  </g>
  <g id="Group_688" data-name="Group 688" transform="translate(0 52.171)">
    <path id="Path_1288" data-name="Path 1288" d="M659.888,381.935s-8.167,10.232-8.167,14.164c0,0-.6,3.611,3.327,6.644l31.462,4.849-5.143,11.194,10.521,8.888,3.091-4.956,1.973-9.263,3.169,8.658,3.718-.3q-1.1-4.841-2.206-9.681l-6.957-13.487-22.121-4.853,3.669-8.886Z" transform="translate(-651.687 -356.764)" fill="#f7b1ac"/>
    <path id="Path_1289" data-name="Path 1289" d="M656.336,383.987l-4.146,8.572s14.961-3.807,20.141.314l2.458-5.86Z" transform="translate(-651.462 -355.848)" fill="#dc7680"/>
    <path id="Path_1290" data-name="Path 1290" d="M687.047,364.665a19.318,19.318,0,0,0-6.391.318c-8.555,1.9-13.035,9.193-14.106,11.053q-5.746,8.319-11.495,16.637l20.787,8.886,10.473-21.505Z" transform="translate(-650.182 -364.535)" fill="#1899aa"/>
    <path id="Path_1291" data-name="Path 1291" d="M684.541,402.545l-3.486,11.574-1.579,4.351,3.091-4.956Z" transform="translate(-639.276 -347.56)" fill="#dc7680"/>
  </g>
  <g id="Group_689" data-name="Group 689" transform="translate(74.753)">
    <path id="Path_1292" data-name="Path 1292" d="M727.537,377.32a5.371,5.371,0,0,0,4.114-2.241,5.243,5.243,0,0,0,.726-3.974L722.7,346.766s-7.217,1.211-7.541,0-9.7-6.813-9.7-6.813l3.933-11.483,17.292,11.483s23.849,32.807,22.638,38.566-16.335,15.892-16.335,15.892Q730.258,385.866,727.537,377.32Z" transform="translate(-702.428 -328.47)" fill="#f7b1ac"/>
    <path id="Path_1293" data-name="Path 1293" d="M724.289,357.943c-.007,7.969,4.126,13.623,8.47,14.08.7.074,2.932.174,5.736-2.128l-12.056,10.281-2.876-18.259" transform="translate(-694.34 -315.308)" fill="#dc7680"/>
    <path id="Path_1294" data-name="Path 1294" d="M705.453,336.408l11.5,8.024,5.747-1.211Z" transform="translate(-702.428 -324.925)" fill="#dc7680"/>
    <path id="Path_1295" data-name="Path 1295" d="M703.362,370.088a11.042,11.042,0,0,1,3.265-3.977c3.735-2.764,7.877-1.75,13.07-2.22a32.471,32.471,0,0,0,12.705-4l4.538,28.8-29.04-3.63Z" transform="translate(-703.362 -314.436)" fill="#1899aa"/>
  </g>
</svg>
