<svg xmlns="http://www.w3.org/2000/svg" width="698.681" height="530.232" viewBox="0 0 698.681 530.232">
  <g id="Group_881" data-name="Group 881" transform="translate(-690.399 -1338.021)">
    <g id="Group_847" data-name="Group 847">
      <g id="Group_837" data-name="Group 837">
        <path id="Path_1567" data-name="Path 1567" d="M1004.277,1606.785a1.224,1.224,0,0,0,1.017-.545c.207-.311,20.63-31.746,2.3-73.426-6.484-14.745-13.571-28.893-20.425-42.575-12.4-24.742-23.1-46.11-25.614-61.918-1.958-12.306-.595-24.594.607-35.436,1.185-10.7,2.209-19.944-.538-25.865a1.222,1.222,0,0,0-2.216,1.029c2.461,5.3,1.473,14.23.326,24.567-1.219,10.995-2.6,23.457-.593,36.089,2.572,16.181,13.358,37.705,25.843,62.628,6.842,13.656,13.916,27.775,20.375,42.464,17.767,40.412-1.9,70.788-2.1,71.09a1.221,1.221,0,0,0,1.017,1.9Z" fill="#fccb98"/>
      </g>
      <g id="Group_838" data-name="Group 838">
        <path id="Path_1568" data-name="Path 1568" d="M962.32,1382.966s19.343-9.571,13.73-28.631-16.689-16.784-18.182-15.477c-4.585,4.015-1.466,11.737-1.466,11.737s-7.613-11.693-12.682-5.018-2.564,13.577,4.586,20.081S962.32,1382.966,962.32,1382.966Z" fill="#fccb98"/>
      </g>
      <g id="Group_839" data-name="Group 839">
        <path id="Path_1569" data-name="Path 1569" d="M959.7,1418.5c4.8-7.041,8.615-21.638,18.628-22.293s6.441,7.8,6.441,7.8,12.919,1.719,13.168,10.5-18.256,2.772-22.851,2.4S959.7,1418.5,959.7,1418.5Z" fill="#fccb98"/>
      </g>
      <g id="Group_840" data-name="Group 840">
        <path id="Path_1570" data-name="Path 1570" d="M959.872,1420.753s-19.529-30.68-27.6-26.2-1.665,9.87-1.665,9.87-10.23-3.213-9.705,4.342,7.215,7.392,17.6,4.872S959.872,1420.753,959.872,1420.753Z" fill="#fccb98"/>
      </g>
      <g id="Group_841" data-name="Group 841">
        <path id="Path_1571" data-name="Path 1571" d="M969.239,1456.569c3.342-7.545,8.135-12.765,20.38-14.233s18.425,2.1,18.778,5.923-6.113,5.352-6.113,5.352,9.915,2.03,9.757,9.811-18.781-4.784-26.191-7.262S969.239,1456.569,969.239,1456.569Z" fill="#fccb98"/>
      </g>
      <g id="Group_842" data-name="Group 842">
        <path id="Path_1572" data-name="Path 1572" d="M969.239,1456.569a69.556,69.556,0,0,0-26.3-17.228c-16.548-6.052-12.668,6.154-12.668,6.154s-11.063,1.835-8.313,11.308,16.974-.226,25.353-2.16S969.239,1456.569,969.239,1456.569Z" fill="#fccb98"/>
      </g>
      <g id="Group_843" data-name="Group 843">
        <path id="Path_1573" data-name="Path 1573" d="M986.484,1490.2s-2.067-9.471,14.637-10.745,25.06,5.211,27.321,10.223-6.528,7.536-6.528,7.536,11.55,3.081,9.98,11.4-13.969-.539-24.049-8.8A45.95,45.95,0,0,0,986.484,1490.2Z" fill="#fccb98"/>
      </g>
      <g id="Group_844" data-name="Group 844">
        <path id="Path_1574" data-name="Path 1574" d="M985.436,1490.471s-11.662-11.682-24.677-11.627-27.864,5.111-29.347,14.618,11.5,5.447,11.5,5.447-9.088,11.715,1.092,16.613,3.454-14.78,17.079-21.478S985.436,1490.471,985.436,1490.471Z" fill="#fccb98"/>
      </g>
      <g id="Group_845" data-name="Group 845">
        <path id="Path_1575" data-name="Path 1575" d="M1012.259,1549.658c6.986-8.673,12.741.262,19.989-4.177s11.134-11.255,17.177-7.644.386,8.511.386,8.511,20.914,6.656,12.473,14.824-23.476-2.021-32.882-6.871S1012.259,1549.658,1012.259,1549.658Z" fill="#fccb98"/>
      </g>
      <g id="Group_846" data-name="Group 846">
        <path id="Path_1576" data-name="Path 1576" d="M1011.575,1550.111s-2.307-4.921-16.6-3.231-22.655-19.267-29.666-18.239-3.943,10.774-3.943,10.774-17.565-.185-8.411,13.993,39.871-2.712,45.561-3.606S1011.575,1550.111,1011.575,1550.111Z" fill="#fccb98"/>
      </g>
    </g>
    <path id="Path_1577" data-name="Path 1577" d="M1306.715,1433.184c-12.647,18.969-8.6,60.187-19.653,56.5s4.913-50.975,2.456-52.817-25.794-3.685-32.55,6.142,3.071,63.871-3.07,67.556-19.653-42.376-22.11-48.518-34.392,7.37-40.533,14.74-4.3,41.762,12.282,76.768,14.74,49.132-9.212,25.8-17.81-84.139-23.337-87.21-39.306,4.3-49.746,28.251-.615,45.447,7.983,57.73,28.251,25.18,25.181,28.251-29.48,7.37-42.991-3.685-18.424,7.37-3.071,23.338,50.361,25.18,86.595,24.566,20.267,20.881,42.991,31.936,82.3,9.519,71.855-7.37c-.685-1.108-2.763-1.228-35.006-9.826-33.279-8.875-28.251-24.566-22.11-25.181s71.242,20.267,88.438,6.756,36.849-58.344,24.566-62.643-57.116,11.669-78,2.456-19.039-13.511,0-15.967,75.54-6.142,80.453-22.724-1.842-26.408-11.668-25.18-50.975,9.212-47.9-3.685,33.778.614,40.534-23.338-7.37-10.44-19.039-9.826-21.495-1.842-9.212-12.283,21.495-16.582,12.283-35.621S1307.943,1431.342,1306.715,1433.184Z" fill="#4f4f98"/>
    <path id="Path_1578" data-name="Path 1578" d="M1254.961,1531.687a149,149,0,0,0-284.908-82.3,214.121,214.121,0,0,0-65.368-10.168c-118.347,0-214.286,95.939-214.286,214.286,0,114.082,89.152,207.328,201.585,213.9l-.3.384H1219.13a169.962,169.962,0,0,0,35.831-336.1Z" fill="#e4e3f1"/>
    <path id="Path_1579" data-name="Path 1579" d="M808.671,1518.127c12.179,17.712,30.632,11.157,33.836,23.608s-27.993-4.821-32.66-1.924-15.052,28.524-5.814,35.074,45.84-11.214,53.222-6.96,11.443,21.559-19.1,24.785-34.473.709-36.355,7.05-9.446,35.82,7.759,39.58,71.653-30.04,74.958-25.41-3.755,21.727-32.277,37.923-48.393,14.739-47.792,21.262,3.9,33.357,19.024,36.9,80.467-37.019,88.959-34.1,14.561,24.151,6.3,28.2-35.448,21.358-57.652,21.348-31.618.447-21.71,9.813,39.711,38.28,69.58,32.238,57.341-33.654,57.9-32.061-8.615,18.063-6.351,20.321,13.422,2.875,25.92-22.125,43.071-32.339,44.781-58.4-3.764-76.542-14.1-72.711-7.074,34.779-31.45,46.893-44.166,15.994-32.027.484,41.187-57.247,33.187-81.591-24.834-28.549-27.9-21.687-12.991,46.425-35.666,54.682-1.567-8.079,9.977-25.589,11.666-38.492,7.69-45.937-6.153.155-11.646-5.917-9.024-13.148-13.986-8.99-.149,29.617-13.705,38.679-20.224,12.554-20.975,4.4,17.847-16.036,16.081-35.2-2.093-13.787-8.992-17.263-12.462-5.841-13.347-2.059,1.815,28.614-6,33.035-13.75,2.5-7.871-9.554,6.984-17.912.976-20.648-10.976-3.1-10.23.531,1.057,15.938-1.84,11.271-5.623-20.862-19.86-23.662S802.024,1508.461,808.671,1518.127Z" fill="#4f4f98"/>
    <g id="Group_854" data-name="Group 854">
      <ellipse id="Ellipse_96" data-name="Ellipse 96" cx="39.283" cy="10.933" rx="39.283" ry="10.933" transform="translate(803.445 1843.4)" fill="#d0d2d3"/>
      <g id="Group_848" data-name="Group 848">
        <path id="Path_1580" data-name="Path 1580" d="M850.151,1669.409s9.712-2.561,10.333,8.818-.861,11.224,3.355,13.9,10.824,2.043,8.569,9.195-3.648,8.108-3.648,8.108l-32.593.873c-6.079-3.874-7.445-6.953-7.337-9.2.235-4.855,7.5-8.413,6.386-10.833-.495-1.074-2-.54-2.931-1.6-3.25-3.711,5.475-21.229,14.107-20.677A7.4,7.4,0,0,1,850.151,1669.409Z" fill="#1b1541"/>
        <path id="Path_1581" data-name="Path 1581" d="M856,1697.916a5.029,5.029,0,1,1-9.995.955l-.954-10.327,8.427,1.334q.288.719.565,1.468a54.445,54.445,0,0,1,1.775,5.806C855.879,1697.409,855.939,1697.663,856,1697.916Z" fill="#dc7680"/>
        <path id="Path_1582" data-name="Path 1582" d="M839.876,1684.588c1.442,6.433,6.862,10.7,12.107,9.521a8.089,8.089,0,0,0,2.77-1.2c3.494-2.359,5.281-7.382,4.117-12.578-1.442-6.433-6.862-10.7-12.107-9.521S838.435,1678.154,839.876,1684.588Z" fill="#f7b1ac"/>
      </g>
      <g id="Group_849" data-name="Group 849">
        <path id="Path_1583" data-name="Path 1583" d="M855.816,1697.152l16.962,2.641s-3.093,22.585-11.976,31.577l-1.578,3.764-25.707-2.9a58.44,58.44,0,0,1-1.673-19.892l3.555-15.188h20.417Z" fill="#1899aa"/>
      </g>
      <g id="Group_850" data-name="Group 850">
        <path id="Path_1584" data-name="Path 1584" d="M856.957,1832.349c-2.531,4.976-2.167,7.656-1.254,9.2,3.055,5.168,16.36,4.547,16.36,4.547h0c.293.224,2.781,2.174,2.46,4.445a4.164,4.164,0,0,1-.418,1.255,7.11,7.11,0,0,1-2.509,2.536H842.745s-.248-6.384,1.113-9.788,2.968-11.65,2.968-11.65Z" fill="#5352a2"/>
        <path id="Path_1585" data-name="Path 1585" d="M822.244,1832.9c-2.78,1.342-4.476,4.043-4.235,6.6.329,3.483,4.248,6.57,8.831,5.746a6.3,6.3,0,0,1-1.041,7.4,6.44,6.44,0,0,1-5.44,1.469,39.738,39.738,0,0,1-15.868-13.96l4.369-6.748,5.832-5.95Z" fill="#5352a2"/>
      </g>
      <g id="Group_851" data-name="Group 851">
        <path id="Path_1586" data-name="Path 1586" d="M860.5,1733.281c-.014,0-.29.058-.29.058l.29-.058q-5.922-.14-12.208-.5-5.976-.351-11.607-.878l-3.164.331h0c-1.215,2.646-2.955,6.675-4.681,11.706-5.885,17.152-5.049,29.683-7.371,40.133-3.276,14.743-6.143,28.257-13.105,40.953,5.12,7.454,10.155,12.042,12.307,11.9a7.869,7.869,0,0,0,2.026-.434,7.157,7.157,0,0,0,2.867-2.047c5.393-22.913,10.15-39.993,12.63-47.065.453-1.29.879-2.389,2.522-6.992,2.189-6.132,3.567-8.653,4.915-12.695.409-1.229,1.228-2.048,1.638-3.277.409-.819.608-.724-.1.32a3.335,3.335,0,0,1-2.217,1.374,3.587,3.587,0,0,0,2.73-3.741c-1.228,10.647.41,21.3,0,31.943-.819,13.923-2.866,27.437-4.546,41.059a2.629,2.629,0,0,0,.258-1.443,9.037,9.037,0,0,0-.258,1.443c6.594-.107,13.146-.107,19.7-.517a3.1,3.1,0,0,0,1.639-.819,5.827,5.827,0,0,0,.819-2.457c.409-8.19,1.228-16.79.819-24.981-.546-10.913-1.711-16.3-1.638-21.295.162-11.242,2.167-11.124,2.457-21.3C867.454,1745.305,861.009,1733.229,860.5,1733.281Z" fill="#f4ef8c"/>
        <path id="Path_1587" data-name="Path 1587" d="M844.806,1760.195a2.592,2.592,0,0,1,2.175.1c1.005.671,1.33,2.495.284,4.115l-7.376,18.269c-4.451,13.544-7.494,24.416-9.492,32.045,0,0-.389,1.486-5.08,19.839a4.489,4.489,0,0,1-2.624,1.923,2.908,2.908,0,0,1-1.492,0c-2.248-1.078,4.008-18.726,5.149-21.916,2.631-7.36,9.231-25.2,11.578-32.623Q841.368,1771.073,844.806,1760.195Z" fill="#fccb98" stroke="#fccb98" stroke-miterlimit="10" stroke-width="1"/>
      </g>
      <g id="Group_852" data-name="Group 852">
        <path id="Path_1588" data-name="Path 1588" d="M886.424,1716.143s5.646,7.073,5.646,9.791a5.108,5.108,0,0,1-2.3,4.593l-21.748,3.352,3.555,7.737-7.274,6.145-2.137-3.426-1.364-6.4-2.191,5.985-2.57-.209q.762-3.346,1.525-6.692l4.809-9.323,15.292-3.355-2.535-6.143Z" fill="#f7b1ac"/>
        <path id="Path_1589" data-name="Path 1589" d="M888.724,1718.195l2.866,5.925s-10.342-2.631-13.923.218l-1.7-4.052Z" fill="#dc7680"/>
        <path id="Path_1590" data-name="Path 1590" d="M866.61,1698.833a13.372,13.372,0,0,1,4.417.219c5.914,1.313,9.011,6.356,9.751,7.642l7.946,11.5-14.37,6.143-7.24-14.866Z" fill="#1899aa"/>
        <path id="Path_1591" data-name="Path 1591" d="M860.8,1736.753l2.41,8,1.091,3.008-2.137-3.426Z" fill="#dc7680"/>
      </g>
      <g id="Group_853" data-name="Group 853">
        <path id="Path_1592" data-name="Path 1592" d="M823.061,1696.447a3.713,3.713,0,0,1-2.844-1.549,3.629,3.629,0,0,1-.5-2.747l6.692-16.825s4.989.837,5.213,0,6.707-4.71,6.707-4.71l-2.719-7.938-11.954,7.938s-16.486,22.679-15.649,26.66,11.292,10.986,11.292,10.986Q821.18,1702.355,823.061,1696.447Z" fill="#f7b1ac"/>
        <path id="Path_1593" data-name="Path 1593" d="M819.715,1692.151c0,5.509-2.852,9.417-5.855,9.733a5.33,5.33,0,0,1-3.964-1.471l8.333,7.107,1.988-12.622" fill="#dc7680"/>
        <path id="Path_1594" data-name="Path 1594" d="M838.327,1670.616l-7.947,5.547-3.973-.837Z" fill="#dc7680"/>
        <path id="Path_1595" data-name="Path 1595" d="M840.418,1701.149a7.648,7.648,0,0,0-2.256-2.75c-2.583-1.91-5.446-1.209-9.036-1.534a22.463,22.463,0,0,1-8.783-2.763l-3.137,19.911,20.075-2.509Z" fill="#1899aa"/>
      </g>
    </g>
    <g id="Group_861" data-name="Group 861">
      <ellipse id="Ellipse_97" data-name="Ellipse 97" cx="58.473" cy="10.933" rx="58.473" ry="10.933" transform="translate(1080.024 1632.067)" fill="#d0d2d3"/>
      <g id="Group_855" data-name="Group 855">
        <path id="Path_1596" data-name="Path 1596" d="M1138.9,1453.31s-9.955-2.625-10.591,9.038.882,11.5-3.439,14.245-11.095,2.095-8.783,9.426,3.739,8.309,3.739,8.309l33.407.9c6.23-3.971,7.631-7.126,7.52-9.427-.24-4.976-7.688-8.623-6.545-11.1.507-1.1,2.05-.553,3-1.642,3.331-3.8-5.611-21.76-14.459-21.194A7.589,7.589,0,0,0,1138.9,1453.31Z" fill="#1b1541"/>
        <path id="Path_1597" data-name="Path 1597" d="M1132.908,1482.53a5.154,5.154,0,1,0,10.244.978l.978-10.585-8.637,1.367q-.3.736-.579,1.505a55.6,55.6,0,0,0-1.819,5.951Q1133,1482.141,1132.908,1482.53Z" fill="#dc7680"/>
        <path id="Path_1598" data-name="Path 1598" d="M1149.432,1468.868c-1.477,6.594-7.033,10.964-12.409,9.759a8.277,8.277,0,0,1-2.84-1.229c-3.58-2.418-5.412-7.566-4.219-12.892,1.478-6.594,7.033-10.964,12.409-9.759S1150.91,1462.273,1149.432,1468.868Z" fill="#f7b1ac"/>
      </g>
      <g id="Group_856" data-name="Group 856">
        <path id="Path_1599" data-name="Path 1599" d="M1154.664,1619.222c-.214,1.337-1.715,9.471-1.715,9.471a6.854,6.854,0,0,0,.3,1.372,8.329,8.329,0,0,0,3.064,3.971,45.671,45.671,0,0,0,8.43,5.242c6.676,2.974,10.013,4.461,11.789,3.358,2.686-1.669,3.569-6.928,1.5-9.859a6.168,6.168,0,0,0-2.358-1.93c-2.327-1.079-3.932.027-6-.428-1.375-.3-3.186-1.344-4.93-4.716h0c-.821-1.277-1.325-3.493.214-7.595Z" fill="#5352a2"/>
        <path id="Path_1600" data-name="Path 1600" d="M1109.438,1620.559s.429,2.787-2.572,5.787-7.288,7.5-8.574,7.931-4.072,1.072-4.286,3.858,4.286,5.359,4.286,5.359,6,.857,9.217,0,4.716-4.287,6-7.288c.462-1.08,3.626-4.149,5.144-7.513a9.4,9.4,0,0,0,.482-1.274c.578-1.979.228-3.344.15-5.346a21.1,21.1,0,0,1,.225-3.965Z" fill="#5352a2"/>
      </g>
      <g id="Group_857" data-name="Group 857">
        <path id="Path_1601" data-name="Path 1601" d="M1133.095,1481.746l-17.386,2.707s3.17,23.149,12.274,32.365l1.618,3.858,26.349-2.974a59.853,59.853,0,0,0,1.715-20.389l-3.644-15.567h-20.926Z" fill="#1899aa"/>
      </g>
      <g id="Group_858" data-name="Group 858">
        <path id="Path_1602" data-name="Path 1602" d="M1129.6,1520.676s-5.159,6.574-8.589,29.437c-.6,3.48-1.435,8.793-2.143,15.361-.036.336-.162,1.728-.365,3.649,0,0-.338,3.2-.645,5.658-.7,5.568-7.218,17.6-9.921,22.629-3.256,6.052-6.411,12.157-9.646,18.219,1.63,4.639,3.856,6.47,5.573,7.288,0,0,1.021.486,7.327,1.567h0a21.072,21.072,0,0,0,13.25-6.283c1.218-6.121,4.812-23.894,9.431-42.225,0,0,2.363-9.379,8.683-27.873.2-.6.908-2.281.91-2.286l0-.007h0l1.624.188,1.212,2.757c1.18,25.044,1.5,32.346,1.5,32.948v1.132l1.072,36.387c5.68,5.188,13.026,5.917,15.218,5.228,2.939-.924,8.574-8.606,8.574-8.606a89.922,89.922,0,0,0-2.573-10.932c-.794-2.631-1.483-4.481-1.765-5.26a107.251,107.251,0,0,1-4.665-20.246c-1.259-9.353.668-8.8.643-27.221-.017-13.073-.994-17.778-1.5-19.934a61.054,61.054,0,0,0-6.43-16.3" fill="#f4ef8c"/>
        <path id="Path_1603" data-name="Path 1603" d="M1143.469,1545.81s-.441-4.343.661-3.271c0,0,3.032.97,3.246,3.271s5.573,76.3,5.573,76.3l-4.072-2.892-1.072-36.387-2.572-34.509Z" fill="#fccb98" stroke="#fccb98" stroke-miterlimit="10" stroke-width="1"/>
      </g>
      <g id="Group_859" data-name="Group 859">
        <path id="Path_1604" data-name="Path 1604" d="M1101.722,1501.211s-5.787,7.25-5.787,10.036a5.235,5.235,0,0,0,2.357,4.708l22.292,3.435-3.644,7.931,7.455,6.3,2.19-3.512,1.4-6.562,2.246,6.134,2.634-.215q-.78-3.429-1.562-6.858-2.465-4.779-4.93-9.556l-15.673-3.439,2.6-6.3Z" fill="#f7b1ac"/>
        <path id="Path_1605" data-name="Path 1605" d="M1099.364,1503.315l-2.937,6.073s10.6-2.7,14.271.223l1.741-4.153Z" fill="#dc7680"/>
        <path id="Path_1606" data-name="Path 1606" d="M1122.031,1483.469a13.676,13.676,0,0,0-4.528.225c-6.062,1.345-9.236,6.514-9.994,7.832l-8.145,11.789,14.729,6.3,7.421-15.237Z" fill="#1899aa"/>
        <path id="Path_1607" data-name="Path 1607" d="M1127.983,1522.336l-2.47,8.2-1.119,3.083,2.19-3.512Z" fill="#dc7680"/>
      </g>
      <g id="Group_860" data-name="Group 860">
        <path id="Path_1608" data-name="Path 1608" d="M1166.667,1481.023a3.805,3.805,0,0,0,2.915-1.588,3.711,3.711,0,0,0,.514-2.815l-6.858-17.245s-5.114.857-5.344,0-6.874-4.828-6.874-4.828l2.787-8.136,12.253,8.136s16.9,23.246,16.04,27.326-11.575,11.261-11.575,11.261Z" fill="#f7b1ac"/>
        <path id="Path_1609" data-name="Path 1609" d="M1170.1,1476.62c0,5.646,2.924,9.652,6,9.976a5.46,5.46,0,0,0,4.064-1.508l-8.542,7.285-2.038-12.938" fill="#dc7680"/>
        <path id="Path_1610" data-name="Path 1610" d="M1151.02,1454.547l8.145,5.685,4.073-.857Z" fill="#dc7680"/>
        <path id="Path_1611" data-name="Path 1611" d="M1148.877,1485.842a7.835,7.835,0,0,1,2.313-2.817c2.647-1.959,5.582-1.24,9.261-1.573a23.027,23.027,0,0,0,9-2.832l3.216,20.408-20.577-2.572Z" fill="#1899aa"/>
      </g>
    </g>
    <g id="Group_869" data-name="Group 869">
      <g id="Group_862" data-name="Group 862">
        <rect id="Rectangle_409" data-name="Rectangle 409" width="379.028" height="242.578" rx="8.504" transform="translate(870.446 1597.584)" fill="#dbdcdc"/>
        <path id="Path_1612" data-name="Path 1612" d="M1235.148,1841.846H884.771a16.029,16.029,0,0,1-16.01-16.01V1611.909a16.029,16.029,0,0,1,16.01-16.01h350.377a16.029,16.029,0,0,1,16.01,16.01v213.927A16.029,16.029,0,0,1,1235.148,1841.846ZM884.771,1599.268a12.656,12.656,0,0,0-12.641,12.641v213.927a12.656,12.656,0,0,0,12.641,12.641h350.377a12.656,12.656,0,0,0,12.641-12.641V1611.909a12.656,12.656,0,0,0-12.641-12.641Z" fill="#2191a1"/>
      </g>
      <circle id="Ellipse_98" data-name="Ellipse 98" cx="7.581" cy="7.581" r="7.581" transform="translate(1158.507 1612.745)" fill="#2191a1"/>
      <circle id="Ellipse_99" data-name="Ellipse 99" cx="7.581" cy="7.581" r="7.581" transform="translate(1219.151 1612.745)" fill="#4f4f98"/>
      <circle id="Ellipse_100" data-name="Ellipse 100" cx="7.581" cy="7.581" r="7.581" transform="translate(1188.829 1612.745)" fill="#eee88b"/>
      <rect id="Rectangle_410" data-name="Rectangle 410" width="60.644" height="15.161" rx="4.499" transform="translate(1158.507 1809.839)" fill="#2191a1"/>
      <rect id="Rectangle_411" data-name="Rectangle 411" width="60.644" height="15.161" rx="4.499" transform="translate(1158.507 1779.517)" fill="#2191a1"/>
      <g id="Group_864" data-name="Group 864">
        <rect id="Rectangle_412" data-name="Rectangle 412" width="45.483" height="3.369" rx="1" transform="translate(946.251 1794.678)" fill="#4f4f98"/>
        <rect id="Rectangle_413" data-name="Rectangle 413" width="45.483" height="3.369" rx="1" transform="translate(946.251 1806.47)" fill="#4f4f98"/>
        <path id="pic_big_1" d="M917.824,1809.839a1.9,1.9,0,0,1-1.894-1.895v-11.371a1.9,1.9,0,0,1,1.894-1.895H929.2a1.9,1.9,0,0,1,1.894,1.895v11.371a1.894,1.894,0,0,1-1.894,1.895Zm0-1.895H929.2v-11.371H917.824Zm.949-2.843,2.842-4.738,2.843,3.79,1.895-1.895,1.9,2.842Zm5.684-4.738a.948.948,0,1,1,.949.948A.948.948,0,0,1,924.457,1800.364Z" fill="#2191a1"/>
        <g id="Group_863" data-name="Group 863">
          <path id="Path_1616" data-name="Path 1616" d="M996.007,1825h-84.35a10.692,10.692,0,0,1-10.889-10.46v-24.563a10.692,10.692,0,0,1,10.889-10.46h84.35a10.692,10.692,0,0,1,10.889,10.46v24.563A10.692,10.692,0,0,1,996.007,1825Zm-84.35-42.346a7.487,7.487,0,0,0-7.624,7.323v24.563a7.488,7.488,0,0,0,7.624,7.324h84.35a7.487,7.487,0,0,0,7.623-7.324v-24.563a7.486,7.486,0,0,0-7.623-7.323Z" fill="#2191a1"/>
        </g>
      </g>
      <g id="Group_866" data-name="Group 866">
        <rect id="Rectangle_414" data-name="Rectangle 414" width="45.483" height="3.369" rx="1" transform="translate(1067.54 1794.678)" fill="#4f4f98"/>
        <rect id="Rectangle_415" data-name="Rectangle 415" width="45.483" height="3.369" rx="1" transform="translate(1067.54 1806.47)" fill="#4f4f98"/>
        <path id="pic_big_1-2" data-name="pic_big_1" d="M1039.113,1809.839a1.9,1.9,0,0,1-1.9-1.895v-11.371a1.9,1.9,0,0,1,1.9-1.895h11.371a1.9,1.9,0,0,1,1.9,1.895v11.371a1.894,1.894,0,0,1-1.9,1.895Zm0-1.895h11.371v-11.371h-11.371Zm.948-2.843,2.842-4.738,2.843,3.79,1.9-1.895,1.894,2.842Zm5.685-4.738a.948.948,0,1,1,.948.948A.947.947,0,0,1,1045.746,1800.364Z" fill="#2191a1"/>
        <g id="Group_865" data-name="Group 865">
          <path id="Path_1620" data-name="Path 1620" d="M1117.3,1825h-84.351a10.692,10.692,0,0,1-10.888-10.46v-24.563a10.692,10.692,0,0,1,10.888-10.46H1117.3a10.691,10.691,0,0,1,10.888,10.46v24.563A10.691,10.691,0,0,1,1117.3,1825Zm-84.351-42.346a7.486,7.486,0,0,0-7.623,7.323v24.563a7.487,7.487,0,0,0,7.623,7.324H1117.3a7.487,7.487,0,0,0,7.623-7.324v-24.563a7.486,7.486,0,0,0-7.623-7.323Z" fill="#2191a1"/>
        </g>
      </g>
      <g id="Group_868" data-name="Group 868">
        <g id="Group_867" data-name="Group 867">
          <path id="Path_1621" data-name="Path 1621" d="M1211.286,1767.725H912a11.247,11.247,0,0,1-11.235-11.234V1654.3A11.248,11.248,0,0,1,912,1643.067h299.283a11.247,11.247,0,0,1,11.234,11.235v102.189A11.246,11.246,0,0,1,1211.286,1767.725ZM912,1646.436a7.875,7.875,0,0,0-7.866,7.866v102.189a7.875,7.875,0,0,0,7.866,7.865h299.283a7.875,7.875,0,0,0,7.865-7.865V1654.3a7.875,7.875,0,0,0-7.865-7.866Z" fill="#2191a1"/>
        </g>
        <path id="pic_big_1-3" data-name="pic_big_1" d="M1055.959,1712.977a1.9,1.9,0,0,1-1.9-1.9v-11.37a1.894,1.894,0,0,1,1.9-1.9h11.371a1.9,1.9,0,0,1,1.9,1.9v11.37a1.9,1.9,0,0,1-1.9,1.9Zm0-1.9h11.371v-11.37h-11.371Zm.947-2.842,2.843-4.738,2.842,3.79,1.9-1.9,1.9,2.843Zm5.686-4.738a.947.947,0,1,1,.947.948A.948.948,0,0,1,1062.592,1703.5Z" fill="#2191a1"/>
      </g>
    </g>
    <g id="Group_876" data-name="Group 876">
      <ellipse id="Ellipse_101" data-name="Ellipse 101" cx="39.283" cy="10.933" rx="39.283" ry="10.933" transform="translate(1222.52 1846.386)" fill="#d0d2d3"/>
      <g id="Group_870" data-name="Group 870">
        <path id="Path_1625" data-name="Path 1625" d="M1248.27,1834.785c2.595,5.1,2.222,7.848,1.286,9.431-3.131,5.3-16.768,4.662-16.769,4.662h0c-.3.228-2.849,2.227-2.521,4.555a4.282,4.282,0,0,0,.428,1.286,7.289,7.289,0,0,0,2.573,2.6h29.57s.255-6.544-1.14-10.033-3.042-11.94-3.042-11.94Z" fill="#5352a2"/>
        <path id="Path_1626" data-name="Path 1626" d="M1283.851,1835.346c2.849,1.375,4.587,4.143,4.34,6.761-.336,3.57-4.353,6.734-9.051,5.89a6.462,6.462,0,0,0,1.067,7.579,6.6,6.6,0,0,0,5.576,1.506,40.7,40.7,0,0,0,16.264-14.309l-4.478-6.916-5.977-6.1Z" fill="#5352a2"/>
      </g>
      <g id="Group_871" data-name="Group 871">
        <path id="Path_1627" data-name="Path 1627" d="M1256.307,1662.986s-10.289-.385-8.36,11.135,3.377,11.033-.241,14.653-10.368,4.469-6.51,11.117,5.465,7.291,5.465,7.291l32.794-6.43c5.212-5.237,5.89-8.622,5.278-10.843-1.322-4.8-9.387-6.733-8.814-9.4.254-1.184,1.879-.987,2.572-2.259,2.419-4.439-10.232-20.006-18.743-17.519A7.581,7.581,0,0,0,1256.307,1662.986Z" fill="#1b1541"/>
        <path id="Path_1628" data-name="Path 1628" d="M1256.049,1692.1a6.613,6.613,0,0,0,4.653,2.72,6.79,6.79,0,0,0,5.635-2.505l.189-10.628-8.512,2q-.24.758-.465,1.544A55.752,55.752,0,0,0,1256.049,1692.1Z" fill="#dc7680"/>
        <path id="Path_1629" data-name="Path 1629" d="M1269.984,1675.866c0,6.758-4.466,12.236-9.975,12.236a8.292,8.292,0,0,1-3.04-.579c-4.022-1.577-6.935-6.2-6.935-11.657,0-6.758,4.466-12.237,9.975-12.237S1269.984,1669.108,1269.984,1675.866Z" fill="#f7b1ac"/>
      </g>
      <g id="Group_872" data-name="Group 872">
        <path id="Path_1630" data-name="Path 1630" d="M1291.324,1727.2c-.1.04-.063.026.025.092,1.034.772-.025,4.562-.025,4.562a69.334,69.334,0,0,1-5.638,14.085c-4.07,6.893-6.976,11.735-8.733,14.649l-3.662-14.931a61.523,61.523,0,0,0,5.945-7.888,32.287,32.287,0,0,0,3.8-7.322Z" fill="#f7b1ac"/>
        <path id="Path_1631" data-name="Path 1631" d="M1283.036,1730.446s-.74,1.917-1.216,2.834l9.5-1.427s1.265-3.692.025-4.562S1283.036,1730.446,1283.036,1730.446Z" fill="#dc7680"/>
        <path id="Path_1632" data-name="Path 1632" d="M1293.322,1726.563c.094-1.984.826-19.3-3.26-25.535a15.293,15.293,0,0,0-11.234-6.831v38.145l14.335-3.809Z" fill="#1899aa"/>
      </g>
      <g id="Group_873" data-name="Group 873">
        <path id="Path_1633" data-name="Path 1633" d="M1235.845,1724.016s-6.185,18.875-5.9,33.524-.564,17.748,0,20,2.852-1.408,2.852-1.408v-6.761l3.051,7.324,2.6.564c.485-.11,1.191-.275,2.041-.488a27.578,27.578,0,0,0,3.1-.845c2.245-1.314-2.368-12.082-3.784-20.028-.841-4.725-1.14-11.759,1.9-20.992l1.882-7.093Z" fill="#f7b1ac"/>
        <path id="Path_1634" data-name="Path 1634" d="M1233.2,1766.911v3.424l2.649,6.361,2.6.563Z" fill="#dc7680"/>
        <path id="Path_1635" data-name="Path 1635" d="M1250.752,1694.328a18.624,18.624,0,0,0-9.556,5.563l-9.846,24.125,14.368,5.353Z" fill="#1899aa"/>
        <path id="Path_1636" data-name="Path 1636" d="M1235.377,1725.516l-.883,3.05,8.328,2.131.741-2.131Z" fill="#dc7680"/>
      </g>
      <g id="Group_874" data-name="Group 874">
        <path id="Path_1637" data-name="Path 1637" d="M1244.643,1733.243c.015,0,.3.059.3.059l-.3-.059a98.326,98.326,0,0,1,24.056.43c2.938.84,7.136.84,7.975,3.778.84,2.1,0,4.617.42,6.716,2.938,14.271,5.037,26.864,7.556,41.135,3.358,15.111,6.3,28.963,13.432,41.975-5.249,7.64-10.409,12.344-12.614,12.2a8.081,8.081,0,0,1-2.078-.445,7.317,7.317,0,0,1-2.938-2.1c-5.527-23.485-10.4-40.992-12.946-48.24-.463-1.322-.9-2.449-2.585-7.167-2.243-6.285-3.656-8.869-5.037-13.013-.419-1.259-1.259-2.1-1.679-3.358-.419-.839-.624-.742.107.327a3.41,3.41,0,0,0,2.272,1.409,3.675,3.675,0,0,1-2.8-3.834c1.259,10.913-.42,21.827,0,32.74.839,14.272,2.938,28.123,4.659,42.085a2.7,2.7,0,0,1-.265-1.479,9.158,9.158,0,0,1,.265,1.479c-6.758-.11-13.474-.11-20.19-.53a3.178,3.178,0,0,1-1.679-.839,5.965,5.965,0,0,1-.84-2.519c-.419-8.4-1.259-17.209-.839-25.6.559-11.186,1.753-16.708,1.679-21.827-.166-11.524-2.222-11.4-2.519-21.827C1237.511,1745.568,1244.118,1733.191,1244.643,1733.243Z" fill="#f4ef8c"/>
        <path id="Path_1638" data-name="Path 1638" d="M1260.725,1760.829a2.66,2.66,0,0,0-2.229.107c-1.03.688-1.364,2.557-.291,4.218l7.56,18.725c4.562,13.882,7.681,25.026,9.729,32.846,0,0,.4,1.523,5.207,20.335a4.608,4.608,0,0,0,2.689,1.97,2.978,2.978,0,0,0,1.53,0c2.3-1.1-4.108-19.193-5.277-22.464-2.7-7.544-9.462-25.828-11.868-33.437Z" fill="#fccb98" stroke="#fccb98" stroke-miterlimit="10" stroke-width="1"/>
      </g>
      <g id="Group_875" data-name="Group 875">
        <path id="Path_1639" data-name="Path 1639" d="M1256.921,1691.673l-7.608,3.1a17.618,17.618,0,0,0-2.815,3.1c-7.729,10.889-1.848,29.715-1.848,29.715l.291,5.717,30.975,2.823,3.727-3.4.408-34.013,1.046-4.045-14.627-4.066" fill="#1899aa"/>
      </g>
    </g>
    <g id="Group_878" data-name="Group 878">
      <rect id="Rectangle_416" data-name="Rectangle 416" width="45.422" height="3.365" rx="1" transform="translate(1008.662 1531.436)" fill="#4f4f98"/>
      <rect id="Rectangle_417" data-name="Rectangle 417" width="45.422" height="3.365" rx="1" transform="translate(1008.662 1543.213)" fill="#4f4f98"/>
      <path id="pic_big_1-4" data-name="pic_big_1" d="M980.273,1546.577a1.892,1.892,0,0,1-1.892-1.892v-11.356a1.892,1.892,0,0,1,1.892-1.892h11.356a1.892,1.892,0,0,1,1.892,1.892v11.356a1.892,1.892,0,0,1-1.892,1.892Zm0-1.892h11.356v-11.356H980.273Zm.947-2.839,2.839-4.731,2.839,3.785,1.893-1.892,1.892,2.839Zm5.677-4.732a.947.947,0,1,1,.947.948A.947.947,0,0,1,986.9,1537.114Z" fill="#2191a1"/>
      <g id="Group_877" data-name="Group 877">
        <path id="Path_1643" data-name="Path 1643" d="M1058.351,1561.718H974.114a10.678,10.678,0,0,1-10.874-10.446v-24.53a10.678,10.678,0,0,1,10.874-10.446h84.237a10.678,10.678,0,0,1,10.874,10.446v24.53A10.678,10.678,0,0,1,1058.351,1561.718Zm-84.237-42.29a7.477,7.477,0,0,0-7.613,7.314v24.53a7.477,7.477,0,0,0,7.613,7.313h84.237a7.477,7.477,0,0,0,7.613-7.313v-24.53a7.477,7.477,0,0,0-7.613-7.314Z" fill="#2191a1"/>
      </g>
    </g>
    <g id="Group_880" data-name="Group 880">
      <rect id="Rectangle_418" data-name="Rectangle 418" width="45.422" height="3.365" rx="1" transform="translate(1040.071 1462.202)" fill="#4f4f98"/>
      <rect id="Rectangle_419" data-name="Rectangle 419" width="45.422" height="3.365" rx="1" transform="translate(1040.071 1473.978)" fill="#4f4f98"/>
      <path id="pic_big_1-5" data-name="pic_big_1" d="M1011.682,1477.342a1.892,1.892,0,0,1-1.892-1.892v-11.356a1.892,1.892,0,0,1,1.892-1.892h11.356a1.892,1.892,0,0,1,1.892,1.892v11.356a1.892,1.892,0,0,1-1.892,1.892Zm0-1.892h11.356v-11.356h-11.356Zm.947-2.84,2.839-4.731,2.839,3.785,1.893-1.893,1.893,2.839Zm5.677-4.73a.946.946,0,1,1,.946.946A.947.947,0,0,1,1018.306,1467.88Z" fill="#2191a1"/>
      <g id="Group_879" data-name="Group 879">
        <path id="Path_1647" data-name="Path 1647" d="M1089.759,1492.483h-84.236a10.678,10.678,0,0,1-10.874-10.446v-24.53a10.678,10.678,0,0,1,10.874-10.446h84.236a10.678,10.678,0,0,1,10.874,10.446v24.53A10.678,10.678,0,0,1,1089.759,1492.483Zm-84.236-42.289a7.476,7.476,0,0,0-7.613,7.313v24.53a7.476,7.476,0,0,0,7.613,7.314h84.236a7.476,7.476,0,0,0,7.613-7.314v-24.53a7.476,7.476,0,0,0-7.613-7.313Z" fill="#2191a1"/>
      </g>
    </g>
  </g>
</svg>
