<svg id="Group_650" data-name="Group 650" xmlns="http://www.w3.org/2000/svg" width="112.04" height="282.645" viewBox="0 0 112.04 282.645">
  <ellipse id="Ellipse_69" data-name="Ellipse 69" cx="56.02" cy="15.592" rx="56.02" ry="15.592" transform="translate(0 251.461)" fill="#d0d2d3"/>
  <g id="Group_644" data-name="Group 644" transform="translate(22.794 0.006)">
    <path id="Path_1204" data-name="Path 1204" d="M285.166,111.178s-13.974-.523-11.354,15.124,4.586,14.985-.327,19.9-14.083,6.069-8.843,15.1,7.424,9.9,7.424,9.9l44.541-8.733c7.078-7.112,8-11.711,7.167-14.726-1.8-6.524-12.751-9.145-11.972-12.773.345-1.609,2.553-1.341,3.494-3.068,3.286-6.031-13.9-27.172-25.455-23.8A10.3,10.3,0,0,0,285.166,111.178Z" transform="translate(-263.075 -107.746)" fill="#1b1541"/>
    <path id="Path_1205" data-name="Path 1205" d="M282.24,134.786v7.761h11.79V126.838Z" transform="translate(-254.909 -99.612)" fill="#f7b1ac"/>
    <g id="Group_643" data-name="Group 643" transform="translate(15.604 3.432)">
      <ellipse id="Ellipse_70" data-name="Ellipse 70" cx="14.235" cy="16.619" rx="14.235" ry="16.619" fill="#f7b1ac"/>
    </g>
    <path id="Path_1206" data-name="Path 1206" d="M282.24,134.663a35.293,35.293,0,0,0,5.9-.478c1.234-.422,4.158-1.475,5.9-3.547l-.071,6.948-11.72,1.436Z" transform="translate(-254.909 -97.993)" fill="#dc7680"/>
  </g>
  <g id="Group_646" data-name="Group 646" transform="translate(35.806 224.123)">
    <g id="Group_645" data-name="Group 645" transform="translate(20.214)">
      <path id="Path_1207" data-name="Path 1207" d="M301.252,264.9c-.9,1.466-.448,12.194,0,16.672s4.753,10.74,2.152,14.318-15.838,2.932-15.838,2.932l-1.192-27.905Z" transform="translate(-286.374 -264.903)" fill="#5352a2"/>
    </g>
    <path id="Path_1208" data-name="Path 1208" d="M279.557,277.346s1.342,8.25,0,12.723-8.258,3.5-7.26,9.466,3.979,10.663,7.856,11.558,12.26-5.592,12.26-5.592l2.8-19.907-5.549-16.474Z" transform="translate(-272.199 -263.105)" fill="#5352a2"/>
  </g>
  <g id="Group_647" data-name="Group 647" transform="translate(24.503 82.421)">
    <path id="Path_1209" data-name="Path 1209" d="M272.572,172.678s-10.215,26.857-7.979,41.854,4.921,53.916,4.921,53.916v55.464s16.607,3.7,20.38,2.523,11.791-10.124,11.791-10.124h4.953s12.082-8.5,12.082-14.315l-15.209-61.86s11.016-39.236,9.309-46.392-6.182-28.206-6.182-28.206Z" transform="translate(-264.274 -165.538)" fill="#f4ef8c"/>
    <path id="Path_1210" data-name="Path 1210" d="M282.24,189.708s2.517.589,3.146,4.543,0,43.32,0,43.32L302.5,302.958l-3.514,3.055h-4.953l-9.282-63.907Z" transform="translate(-256.619 -155.24)" fill="#fccb98" stroke="#fccb98" stroke-miterlimit="10" stroke-width="1"/>
  </g>
  <g id="Group_648" data-name="Group 648" transform="translate(29.745 42.942)">
    <path id="Path_1211" data-name="Path 1211" d="M284.353,137.854S268.75,145,268.04,152.766s2.966,31.707,2.966,31.707l37.328,8.007q3.333-14.336,6.667-28.674l-4.449-25.1-2.49-.081Z" transform="translate(-267.949 -137.854)" fill="#1899aa"/>
  </g>
  <g id="Group_649" data-name="Group 649" transform="translate(8.066)">
    <path id="Path_1212" data-name="Path 1212" d="M267.475,156.066s-16.759-21.939-14.522-26.116,34.465-22.565,37.877-22.2,17.592,4.963,17.592,4.963l-13.616,12.626-8.979-7.35,2.912,7.35L283.2,129.95l-2.617-8.936-10.9,15.029Z" transform="translate(-252.748 -107.742)" fill="#f7b1ac"/>
    <path id="Path_1213" data-name="Path 1213" d="M312.34,143.377c-.8,13.646-2.172,28.283-4.351,43.759-1.777,12.629-3.913,24.557-6.262,35.732q1.536,9.938,3.072,19.874l-12.465,6.837-1.825-4.79,1.825-13.891,12.465-87.52Z" transform="translate(-236.659 -92.559)" fill="#f7b1ac"/>
    <path id="Path_1214" data-name="Path 1214" d="M297.372,168.239l-.96,5.767,9.061,2.537,1.406-7.015Z" transform="translate(-234.144 -81.966)" fill="#dc7680"/>
    <path id="Path_1215" data-name="Path 1215" d="M312.576,140.818c.623,2.34,1.359,5.393,2.025,9a130.825,130.825,0,0,1,1.79,14.761,147.663,147.663,0,0,1,0,19.683q-12.3-2.46-24.6-4.921l8.606-40.891Z" transform="translate(-236.114 -94.659)" fill="#1899aa"/>
    <path id="Path_1216" data-name="Path 1216" d="M266.148,125.88l-4.473,40.561,17.6,2.541,7.75-26.028Z" transform="translate(-248.944 -100.014)" fill="#1899aa"/>
    <path id="Path_1217" data-name="Path 1217" d="M269.245,125.88s-13.379,6.81-14.741,4.024,12.264,18.433,12.264,18.433Z" transform="translate(-252.041 -100.014)" fill="#dc7680"/>
    <path id="Path_1218" data-name="Path 1218" d="M275.944,114.926l8.979,7.35,3.963-3.675-7.939-3.675Z" transform="translate(-242.864 -104.681)" fill="#dc7680"/>
  </g>
</svg>
