<svg xmlns="http://www.w3.org/2000/svg" width="698.682" height="512.762" viewBox="0 0 698.682 512.762">
  <g id="Group_778" data-name="Group 778" transform="translate(-376.394 -729.074)">
    <path id="Path_1408" data-name="Path 1408" d="M940.957,905.192a149,149,0,0,0-284.909-82.3,214.112,214.112,0,0,0-65.367-10.168c-118.347,0-214.287,95.939-214.287,214.286,0,114.082,89.153,207.327,201.586,213.9l-.3.385H905.126a169.962,169.962,0,0,0,35.831-336.1Z" fill="#e4e3f1"/>
    <path id="Path_1409" data-name="Path 1409" d="M510.684,976.556c12.179,17.711,30.632,11.157,33.835,23.608s-27.992-4.822-32.659-1.925-15.052,28.524-5.814,35.074,45.84-11.214,53.222-6.96,11.443,21.56-19.1,24.785-34.473.71-36.355,7.051-9.446,35.819,7.759,39.579,71.653-30.039,74.958-25.41-3.755,21.727-32.277,37.924-48.393,14.738-47.792,21.262,3.9,33.356,19.024,36.9,80.467-37.019,88.959-34.1,14.561,24.151,6.3,28.2-35.448,21.358-57.652,21.349-31.618.446-21.71,9.812,39.711,38.28,69.58,32.238,57.341-33.654,57.9-32.061-8.614,18.063-6.35,20.321,13.422,2.875,25.92-22.124,43.071-32.34,44.781-58.4-3.764-76.541-14.1-72.711-7.074,34.779-31.45,46.894-44.166,15.993-32.027.484,41.187-57.247,33.187-81.591-24.834-28.55-27.9-21.688-12.991,46.425-35.667,54.682-1.566-8.079,9.977-25.589,11.667-38.491,7.691-45.937-6.153.156-11.647-5.917-9.023-13.148-13.985-8.99-.149,29.618-13.705,38.679-20.224,12.554-20.975,4.4,17.847-16.036,16.081-35.2S596.6,967.405,589.7,963.93s-12.462-5.842-13.347-2.06,1.815,28.615-6,33.035-13.75,2.5-7.871-9.554,6.984-17.912.976-20.648-10.976-3.1-10.23.532,1.057,15.938-1.84,11.271-5.623-20.863-19.861-23.662S504.037,966.889,510.684,976.556Z" fill="#4f4f98"/>
    <g id="Group_759" data-name="Group 759">
      <g id="Group_749" data-name="Group 749">
        <path id="Path_1410" data-name="Path 1410" d="M802.833,1239.959a1.227,1.227,0,0,1-1.018-.545c-.206-.312-20.629-31.746-2.3-73.426,6.485-14.745,13.572-28.893,20.426-42.575,12.4-24.742,23.1-46.11,25.614-61.918,1.958-12.306.595-24.594-.607-35.436-1.185-10.7-2.209-19.945.537-25.865a1.222,1.222,0,0,1,2.217,1.029c-2.461,5.3-1.473,14.23-.326,24.567,1.219,10.995,2.6,23.456.592,36.088-2.571,16.182-13.357,37.706-25.842,62.629-6.842,13.656-13.917,27.775-20.375,42.464-17.767,40.412,1.9,70.788,2.1,71.09a1.221,1.221,0,0,1-1.017,1.9Z" fill="#fccb98"/>
      </g>
      <g id="Group_750" data-name="Group 750">
        <path id="Path_1411" data-name="Path 1411" d="M844.79,1016.14s-19.344-9.571-13.731-28.631,16.69-16.784,18.183-15.477c4.585,4.015,1.466,11.737,1.466,11.737s7.613-11.693,12.682-5.018,2.563,13.577-4.586,20.081S844.79,1016.14,844.79,1016.14Z" fill="#fccb98"/>
      </g>
      <g id="Group_751" data-name="Group 751">
        <path id="Path_1412" data-name="Path 1412" d="M847.414,1051.674c-4.8-7.041-8.615-21.638-18.628-22.293s-6.441,7.8-6.441,7.8-12.919,1.719-13.168,10.5,18.256,2.771,22.851,2.4S847.414,1051.674,847.414,1051.674Z" fill="#fccb98"/>
      </g>
      <g id="Group_752" data-name="Group 752">
        <path id="Path_1413" data-name="Path 1413" d="M847.238,1053.927s19.529-30.68,27.6-26.2,1.665,9.87,1.665,9.87,10.23-3.213,9.7,4.342-7.215,7.392-17.6,4.872S847.238,1053.927,847.238,1053.927Z" fill="#fccb98"/>
      </g>
      <g id="Group_753" data-name="Group 753">
        <path id="Path_1414" data-name="Path 1414" d="M837.871,1089.743c-3.342-7.545-8.135-12.765-20.38-14.233s-18.425,2.1-18.778,5.922,6.112,5.353,6.112,5.353-9.914,2.03-9.756,9.811,18.781-4.784,26.191-7.262S837.871,1089.743,837.871,1089.743Z" fill="#fccb98"/>
      </g>
      <g id="Group_754" data-name="Group 754">
        <path id="Path_1415" data-name="Path 1415" d="M837.871,1089.743a69.545,69.545,0,0,1,26.3-17.228c16.548-6.053,12.668,6.154,12.668,6.154s11.063,1.835,8.313,11.308-16.974-.226-25.353-2.16S837.871,1089.743,837.871,1089.743Z" fill="#fccb98"/>
      </g>
      <g id="Group_755" data-name="Group 755">
        <path id="Path_1416" data-name="Path 1416" d="M820.626,1123.375s2.067-9.472-14.637-10.745-25.06,5.211-27.321,10.223,6.528,7.536,6.528,7.536-11.55,3.081-9.98,11.4,13.969-.539,24.048-8.8A45.956,45.956,0,0,1,820.626,1123.375Z" fill="#fccb98"/>
      </g>
      <g id="Group_756" data-name="Group 756">
        <path id="Path_1417" data-name="Path 1417" d="M821.673,1123.645s11.663-11.682,24.678-11.627,27.864,5.111,29.347,14.618-11.5,5.447-11.5,5.447,9.088,11.715-1.092,16.613-3.454-14.781-17.079-21.478S821.673,1123.645,821.673,1123.645Z" fill="#fccb98"/>
      </g>
      <g id="Group_757" data-name="Group 757">
        <path id="Path_1418" data-name="Path 1418" d="M794.851,1182.831c-6.986-8.672-12.741.263-19.989-4.177s-11.134-11.255-17.177-7.643-.386,8.511-.386,8.511-20.914,6.656-12.473,14.824,23.476-2.022,32.882-6.871S794.851,1182.831,794.851,1182.831Z" fill="#fccb98"/>
      </g>
      <g id="Group_758" data-name="Group 758">
        <path id="Path_1419" data-name="Path 1419" d="M795.535,1183.285s2.307-4.921,16.6-3.232,22.655-19.266,29.665-18.238,3.944,10.774,3.944,10.774,17.565-.185,8.411,13.993-39.871-2.712-45.561-3.606S795.535,1183.285,795.535,1183.285Z" fill="#fccb98"/>
      </g>
    </g>
    <g id="Group_766" data-name="Group 766">
      <ellipse id="Ellipse_86" data-name="Ellipse 86" cx="54.881" cy="10.933" rx="54.881" ry="10.933" transform="translate(827.737 1219.969)" fill="#d0d2d3"/>
      <g id="Group_760" data-name="Group 760">
        <path id="Path_1420" data-name="Path 1420" d="M899.265,1207.7c-.209,1.305-1.672,9.241-1.672,9.241a6.653,6.653,0,0,0,.287,1.338,8.125,8.125,0,0,0,2.99,3.874,44.579,44.579,0,0,0,8.224,5.115c6.513,2.9,9.769,4.352,11.5,3.276,2.622-1.629,3.483-6.759,1.464-9.62a6.023,6.023,0,0,0-2.3-1.882c-2.271-1.053-3.837.026-5.855-.418-1.342-.3-3.109-1.311-4.81-4.6h0c-.8-1.247-1.293-3.408.209-7.411Z" fill="#5352a2"/>
        <path id="Path_1421" data-name="Path 1421" d="M855.142,1209.009s.418,2.718-2.51,5.646-7.11,7.319-8.364,7.737-3.974,1.046-4.183,3.764,4.183,5.228,4.183,5.228,5.855.837,8.992,0,4.6-4.182,5.855-7.11c.451-1.053,3.538-4.047,5.019-7.329a9.194,9.194,0,0,0,.47-1.244c.564-1.931.223-3.262.147-5.215a20.588,20.588,0,0,1,.219-3.869Z" fill="#5352a2"/>
      </g>
      <g id="Group_761" data-name="Group 761">
        <path id="Path_1422" data-name="Path 1422" d="M885.349,1044.306s-10.038-.376-8.156,10.863,3.294,10.765-.235,14.3-10.116,4.36-6.352,10.846,5.332,7.114,5.332,7.114l31.995-6.274c5.085-5.109,5.746-8.412,5.149-10.578-1.29-4.686-9.159-6.57-8.6-9.175.248-1.156,1.833-.964,2.509-2.2,2.36-4.331-9.983-19.519-18.286-17.093A7.4,7.4,0,0,0,885.349,1044.306Z" fill="#1b1541"/>
        <path id="Path_1423" data-name="Path 1423" d="M885.1,1072.711a6.453,6.453,0,0,0,4.54,2.654,6.624,6.624,0,0,0,5.5-2.445q.091-5.184.184-10.369l-8.3,1.956q-.234.74-.454,1.507A54.425,54.425,0,0,0,885.1,1072.711Z" fill="#dc7680"/>
        <path id="Path_1424" data-name="Path 1424" d="M898.693,1056.871c0,6.594-4.357,11.938-9.732,11.938a8.086,8.086,0,0,1-2.966-.564c-3.925-1.539-6.767-6.049-6.767-11.374,0-6.593,4.358-11.938,9.733-11.938S898.693,1050.278,898.693,1056.871Z" fill="#f7b1ac"/>
      </g>
      <g id="Group_763" data-name="Group 763">
        <path id="Path_1425" data-name="Path 1425" d="M919.512,1106.953c-.1.04-.061.027.025.091,1.008.752-.025,4.45-.025,4.45a67.678,67.678,0,0,1-5.5,13.742c-3.971,6.725-6.806,11.449-8.52,14.292l-3.573-14.567a60.084,60.084,0,0,0,5.8-7.7,31.5,31.5,0,0,0,3.707-7.145Z" fill="#f7b1ac"/>
        <path id="Path_1426" data-name="Path 1426" d="M911.426,1110.121s-.721,1.871-1.186,2.766l9.272-1.393s1.234-3.6.025-4.45S911.426,1110.121,911.426,1110.121Z" fill="#dc7680"/>
        <path id="Path_1427" data-name="Path 1427" d="M921.462,1106.334c.092-1.936.806-18.828-3.181-24.914a14.92,14.92,0,0,0-10.96-6.664v37.215l13.986-3.716Z" fill="#1899aa"/>
        <g id="Group_762" data-name="Group 762">
          <path id="Path_1428" data-name="Path 1428" d="M874.813,1111.56s-5.033,6.413-8.379,28.719c-.585,3.4-1.4,8.578-2.091,14.987-.036.328-.159,1.686-.356,3.56,0,0-.33,3.124-.629,5.52-.678,5.432-7.043,17.175-9.68,22.078-3.176,5.9-6.254,11.86-9.41,17.775,1.589,4.526,3.761,6.312,5.437,7.11,0,0,.995.474,7.148,1.529h0a20.568,20.568,0,0,0,12.927-6.13c1.188-5.972,4.695-23.311,9.2-41.2,0,0,2.306-9.151,8.471-27.194.2-.585.886-2.225.889-2.23l0-.007h0l1.584.183,1.182,2.69c1.152,24.434,1.464,31.558,1.464,32.146v1.1l1.045,35.5c5.542,5.062,12.71,5.773,14.848,5.1,2.867-.9,8.364-8.4,8.364-8.4a87.4,87.4,0,0,0-2.509-10.665c-.775-2.567-1.447-4.372-1.722-5.132a104.685,104.685,0,0,1-4.552-19.753c-1.228-9.125.652-8.588.628-26.558-.018-12.753-.971-17.344-1.464-19.448a59.542,59.542,0,0,0-6.274-15.9" fill="#f4ef8c"/>
          <path id="Path_1429" data-name="Path 1429" d="M888.344,1136.081s-.431-4.237.645-3.191c0,0,2.957.946,3.166,3.191s5.438,74.445,5.438,74.445l-3.974-2.822-1.045-35.5-2.51-33.668Z" fill="#fccb98" stroke="#fccb98" stroke-miterlimit="10" stroke-width="1"/>
        </g>
      </g>
      <g id="Group_764" data-name="Group 764">
        <path id="Path_1430" data-name="Path 1430" d="M865.385,1103.849s-6.034,18.414-5.759,32.706-.55,17.316,0,19.514,2.783-1.374,2.783-1.374v-6.6l2.976,7.146,2.538.55c.473-.108,1.162-.268,1.991-.476a27.431,27.431,0,0,0,3.024-.824c2.19-1.282-2.311-11.788-3.692-19.541-.82-4.609-1.113-11.472,1.857-20.48l1.837-6.921Z" fill="#f7b1ac"/>
        <path id="Path_1431" data-name="Path 1431" d="M862.8,1145.7v3.34l2.585,6.206,2.538.55Z" fill="#dc7680"/>
        <path id="Path_1432" data-name="Path 1432" d="M879.929,1074.884a18.156,18.156,0,0,0-9.323,5.427L861,1103.849l14.017,5.222Q877.474,1091.977,879.929,1074.884Z" fill="#1899aa"/>
        <path id="Path_1433" data-name="Path 1433" d="M864.929,1105.312l-.861,2.976,8.125,2.079.723-2.079Z" fill="#dc7680"/>
      </g>
      <g id="Group_765" data-name="Group 765">
        <path id="Path_1434" data-name="Path 1434" d="M885.948,1072.293l-7.423,3.024a17.168,17.168,0,0,0-2.746,3.023c-7.54,10.623-1.8,28.991-1.8,28.991l.283,5.577,30.221,2.754,3.636-3.313.4-33.185,1.021-3.946-14.271-3.967" fill="#1899aa"/>
      </g>
    </g>
    <circle id="Ellipse_87" data-name="Ellipse 87" cx="12.394" cy="12.394" r="12.394" transform="translate(718.158 927.244)" fill="#1899aa"/>
    <circle id="Ellipse_88" data-name="Ellipse 88" cx="12.394" cy="12.394" r="12.394" transform="translate(750.983 1059.853)" fill="#5352a2"/>
    <circle id="Ellipse_89" data-name="Ellipse 89" cx="12.394" cy="12.394" r="12.394" transform="translate(664.097 996.292)" fill="#f4ef8c"/>
    <path id="Path_1435" data-name="Path 1435" d="M700.885,848.45c-.062.956-.073,1.862-.046,2.716.78,21.787,30.6,11.24,30.6,11.24s4.032,14.009,28.2,14.941,26.812-9.947,26.812-9.947,4.175,8.373,12.2,8.9a13.714,13.714,0,0,0,11.894-4.969s7.173,10.46,21.073-.168a18.409,18.409,0,0,0,6.82-10.143s-.012,0,0-.011c2.553-9.73-2.488-20.058-2.488-20.058-15.117-20.615-26.773-7.791-26.773-7.791s.39-6.532-7.241-9.559-16.272,3.308-16.272,3.308-.2-25.691-33.735-26.984c-27.2-1.045-29.5,20.091-29.4,28.108a29.629,29.629,0,0,0,.176,3.02s-.218-.085-.6-.206C718.749,829.767,702.04,830.388,700.885,848.45Z" fill="#fccb98"/>
    <g id="Group_767" data-name="Group 767">
      <rect id="Rectangle_391" data-name="Rectangle 391" width="135.792" height="241.409" rx="8.504" transform="translate(812.845 1103.9) rotate(90)" fill="#dbdcdc"/>
      <path id="Path_1436" data-name="Path 1436" d="M798.588,1241.369h-212.9a15.951,15.951,0,0,1-15.932-15.933V1118.157a15.951,15.951,0,0,1,15.932-15.933h212.9a15.952,15.952,0,0,1,15.933,15.933v107.279A15.952,15.952,0,0,1,798.588,1241.369Zm-212.9-135.792a12.594,12.594,0,0,0-12.579,12.58v107.279a12.594,12.594,0,0,0,12.579,12.58h212.9a12.594,12.594,0,0,0,12.58-12.58V1118.157a12.594,12.594,0,0,0-12.58-12.58Z" fill="#2191a1"/>
    </g>
    <g id="Group_769" data-name="Group 769">
      <path id="pic_big_1" d="M656.5,1179.34a1.886,1.886,0,0,1-1.885-1.886v-11.316a1.887,1.887,0,0,1,1.885-1.886h11.317a1.886,1.886,0,0,1,1.885,1.886v11.316a1.886,1.886,0,0,1-1.885,1.886Zm0-1.886h11.317v-11.316H656.5Zm.943-2.829,2.83-4.715,2.829,3.773,1.886-1.886,1.885,2.829Zm5.658-4.715a.943.943,0,1,1,.943.943A.943.943,0,0,1,663.1,1169.91Z" fill="#2191a1"/>
      <g id="Group_768" data-name="Group 768">
        <path id="Path_1440" data-name="Path 1440" d="M681.741,1201.973H642.574a10.605,10.605,0,0,1-10.593-10.593v-39.167a10.6,10.6,0,0,1,10.593-10.593h39.167a10.6,10.6,0,0,1,10.592,10.593v39.167A10.6,10.6,0,0,1,681.741,1201.973ZM642.574,1144.8a7.425,7.425,0,0,0-7.416,7.416v39.167a7.425,7.425,0,0,0,7.416,7.416h39.167a7.425,7.425,0,0,0,7.416-7.416v-39.167a7.425,7.425,0,0,0-7.416-7.416Z" fill="#2191a1"/>
      </g>
    </g>
    <g id="Group_771" data-name="Group 771">
      <path id="pic_big_1-2" data-name="pic_big_1" d="M738.032,1179.34a1.886,1.886,0,0,1-1.886-1.886v-11.316a1.887,1.887,0,0,1,1.886-1.886h11.316a1.886,1.886,0,0,1,1.885,1.886v11.316a1.886,1.886,0,0,1-1.885,1.886Zm0-1.886h11.316v-11.316H738.032Zm2.828-10.373,4.715,2.829-3.772,2.83,1.886,1.885-2.83,1.886Zm3.773,6.6a.943.943,0,1,1,.943.943A.944.944,0,0,1,744.633,1173.682Z" fill="#2191a1"/>
      <g id="Group_770" data-name="Group 770">
        <path id="Path_1444" data-name="Path 1444" d="M713.514,1191.38v-39.167a10.6,10.6,0,0,1,10.592-10.593h39.167a10.6,10.6,0,0,1,10.593,10.593v39.167a10.605,10.605,0,0,1-10.593,10.593H724.106A10.6,10.6,0,0,1,713.514,1191.38Zm57.175-39.167a7.425,7.425,0,0,0-7.416-7.416H724.106a7.425,7.425,0,0,0-7.416,7.416v39.167a7.425,7.425,0,0,0,7.416,7.416h39.167a7.425,7.425,0,0,0,7.416-7.416Z" fill="#2191a1"/>
      </g>
    </g>
    <g id="Group_773" data-name="Group 773">
      <path id="pic_big_1-3" data-name="pic_big_1" d="M743.262,1020.689l-8-8a1.885,1.885,0,0,1,0-2.668l8-8a1.886,1.886,0,0,1,2.667,0l8,8a1.885,1.885,0,0,1,0,2.668l-8,8a1.884,1.884,0,0,1-2.667,0Zm-6.669-9.335,8,8,8-8-8-8Zm2.668-1.334,5.334-1.334-.667,4.667H746.6l-.667,3.334Zm7.335,2a.942.942,0,1,1,.666.276A.942.942,0,0,1,746.6,1012.021Z" fill="#2191a1"/>
      <g id="Group_772" data-name="Group 772">
        <path id="Path_1448" data-name="Path 1448" d="M737.1,1046.539l-27.7-27.695a10.6,10.6,0,0,1,0-14.98l27.7-27.7a10.6,10.6,0,0,1,14.98,0l27.7,27.7a10.6,10.6,0,0,1,0,14.98l-27.7,27.695A10.6,10.6,0,0,1,737.1,1046.539Zm12.734-68.124a7.424,7.424,0,0,0-10.488,0l-27.7,27.7a7.424,7.424,0,0,0,0,10.488l27.7,27.695a7.424,7.424,0,0,0,10.488,0l27.7-27.695a7.424,7.424,0,0,0,0-10.488Z" fill="#2191a1"/>
      </g>
    </g>
    <g id="Group_775" data-name="Group 775">
      <path id="pic_big_1-4" data-name="pic_big_1" d="M643.443,1069.382l-8-8a1.884,1.884,0,0,1,0-2.667l8-8a1.886,1.886,0,0,1,2.667,0l8,8a1.884,1.884,0,0,1,0,2.667l-8,8a1.886,1.886,0,0,1-2.667,0Zm-6.668-9.336,8,8,8-8-8-8Zm6,2h2.668l-.667-4.667,5.334,1.334-6.668,6.667Zm-1.334-1.334a.944.944,0,1,1,.668.276A.942.942,0,0,1,641.442,1060.713Z" fill="#2191a1"/>
      <g id="Group_774" data-name="Group 774">
        <path id="Path_1452" data-name="Path 1452" d="M652.266,1095.232l27.7-27.7a10.6,10.6,0,0,0,0-14.98l-27.7-27.7a10.6,10.6,0,0,0-14.98,0l-27.7,27.7a10.6,10.6,0,0,0,0,14.98l27.7,27.7A10.6,10.6,0,0,0,652.266,1095.232Zm-12.734-68.125a7.425,7.425,0,0,1,10.488,0l27.7,27.695a7.426,7.426,0,0,1,0,10.488l-27.7,27.7a7.426,7.426,0,0,1-10.488,0l-27.7-27.7a7.424,7.424,0,0,1,0-10.488Z" fill="#2191a1"/>
      </g>
    </g>
    <g id="Group_777" data-name="Group 777">
      <path id="pic_big_1-5" data-name="pic_big_1" d="M666.118,939.639a1.886,1.886,0,0,1-1.885-1.885V926.437a1.885,1.885,0,0,1,1.885-1.885h11.316a1.886,1.886,0,0,1,1.886,1.885v11.317a1.887,1.887,0,0,1-1.886,1.885Zm0-1.885h11.316V926.437H666.118Zm.943-2.83,1.885-2.829,1.886,1.885,2.829-3.772,2.829,4.715Zm1.885-4.714a.943.943,0,1,1,.943.942A.943.943,0,0,1,668.947,930.209Z" fill="#2191a1"/>
      <g id="Group_776" data-name="Group 776">
        <path id="Path_1456" data-name="Path 1456" d="M652.192,962.271h39.167a10.605,10.605,0,0,0,10.593-10.593V912.511a10.6,10.6,0,0,0-10.593-10.592H652.192A10.6,10.6,0,0,0,641.6,912.511v39.167A10.6,10.6,0,0,0,652.192,962.271Zm39.167-57.176a7.424,7.424,0,0,1,7.416,7.416v39.167a7.424,7.424,0,0,1-7.416,7.416H652.192a7.425,7.425,0,0,1-7.416-7.416V912.511a7.425,7.425,0,0,1,7.416-7.416Z" fill="#2191a1"/>
      </g>
    </g>
    <rect id="Rectangle_392" data-name="Rectangle 392" width="45.264" height="15.088" rx="7.544" transform="translate(617.252 1151.05) rotate(90)" fill="#2191a1"/>
  </g>
</svg>
