<svg xmlns="http://www.w3.org/2000/svg" width="698.681" height="512.22" viewBox="0 0 698.681 512.22">
  <g id="Group_748" data-name="Group 748" transform="translate(403.073 -652.481)">
    <path id="Path_1346" data-name="Path 1346" d="M161.489,828.6a149.738,149.738,0,0,0,2.477-27.15A148.989,148.989,0,0,0-123.419,746.3a214.146,214.146,0,0,0-65.368-10.168c-118.347,0-214.286,95.94-214.286,214.287,0,114.081,89.153,207.327,201.585,213.9l-.3.385H125.659a169.963,169.963,0,0,0,35.83-336.1Z" fill="#e4e3f1"/>
    <path id="Path_1347" data-name="Path 1347" d="M-284.8,815.039c12.178,17.711,30.632,11.157,33.835,23.608s-27.993-4.822-32.66-1.925-15.051,28.524-5.813,35.074,45.839-11.214,53.221-6.96,11.444,21.56-19.1,24.785-34.472.71-36.355,7.051-9.445,35.819,7.759,39.579,71.653-30.039,74.958-25.41-3.754,21.727-32.277,37.924-48.393,14.738-47.792,21.262,3.9,33.356,19.024,36.9,80.467-37.019,88.959-34.1,14.561,24.151,6.3,28.2-35.448,21.358-57.652,21.348-31.619.447-21.71,9.813,39.71,38.28,69.58,32.238,57.34-33.654,57.9-32.061-8.615,18.063-6.351,20.321,13.422,2.875,25.921-22.124,43.07-32.34,44.781-58.4-3.764-76.541-14.1-72.711-7.074,34.779-31.45,46.893-44.166,15.994-32.027.485,41.187-57.247,33.187-81.592-24.833-28.549-27.9-21.687-12.991,46.425-35.666,54.682-1.567-8.079,9.977-25.589,11.666-38.491,7.691-45.937-6.154.156-11.647-5.917-9.024-13.148-13.986-8.99-.149,29.618-13.705,38.679-20.224,12.554-20.975,4.4,17.847-16.036,16.081-35.2-2.092-13.787-8.991-17.263-12.462-5.841-13.347-2.059,1.814,28.615-6,33.035-13.749,2.5-7.87-9.554,6.984-17.912.975-20.648-10.976-3.1-10.23.532,1.058,15.938-1.84,11.271-5.623-20.863-19.86-23.663S-291.448,805.372-284.8,815.039Z" fill="#4f4f98"/>
    <path id="Path_1348" data-name="Path 1348" d="M182.848,778.988c-12.646,18.969-8.6,60.187-19.653,56.5s4.913-50.975,2.456-52.817-25.794-3.685-32.549,6.142,3.07,63.871-3.071,67.556-19.653-42.376-22.11-48.518-34.392,7.37-40.533,14.74-4.3,41.762,12.283,76.768,14.739,49.132-9.213,25.795-17.81-84.139-23.337-87.21S7.815,842.246-2.625,866.2s-.615,45.447,7.984,57.73,28.25,25.18,25.18,28.251-29.479,7.37-42.991-3.685-18.424,7.37-3.071,23.338,50.361,25.18,86.6,24.566,20.266,20.881,42.99,31.936,82.3,9.519,71.855-7.37c-.685-1.108-2.763-1.228-35.006-9.826-33.279-8.875-28.251-24.566-22.109-25.181s71.241,20.267,88.437,6.756,36.849-58.344,24.566-62.643-57.116,11.669-78,2.456-19.039-13.511,0-15.967,75.54-6.142,80.454-22.724-1.843-26.408-11.669-25.18-50.975,9.212-47.9-3.685,33.778.614,40.534-23.338-7.37-10.44-19.039-9.826-21.495-1.842-9.212-12.283,21.495-16.582,12.283-35.621S184.076,777.146,182.848,778.988Z" fill="#4f4f98"/>
    <g id="Group_723" data-name="Group 723">
      <g id="Group_713" data-name="Group 713">
        <path id="Path_1349" data-name="Path 1349" d="M-83.084,1024.629a1.225,1.225,0,0,1-1.017-.544c-.207-.312-20.63-31.746-2.3-73.427,6.484-14.744,13.571-28.893,20.425-42.574,12.4-24.743,23.1-46.111,25.614-61.919,1.958-12.306.6-24.594-.607-35.436-1.185-10.7-2.209-19.944.538-25.865a1.224,1.224,0,0,1,1.621-.592,1.221,1.221,0,0,1,.6,1.621c-2.461,5.3-1.473,14.23-.326,24.567,1.219,10.995,2.6,23.457.593,36.089-2.572,16.181-13.358,37.705-25.843,62.629-6.842,13.655-13.916,27.774-20.375,42.464-17.767,40.411,1.9,70.787,2.1,71.09a1.222,1.222,0,0,1-.341,1.693A1.229,1.229,0,0,1-83.084,1024.629Z" fill="#fccb98"/>
      </g>
      <g id="Group_714" data-name="Group 714">
        <path id="Path_1350" data-name="Path 1350" d="M-41.127,800.811s-19.343-9.572-13.73-28.632S-38.168,755.4-36.675,756.7c4.585,4.014,1.466,11.736,1.466,11.736s7.613-11.693,12.682-5.018S-19.963,777-27.113,783.5-41.127,800.811-41.127,800.811Z" fill="#fccb98"/>
      </g>
      <g id="Group_715" data-name="Group 715">
        <path id="Path_1351" data-name="Path 1351" d="M-38.5,836.344c-4.8-7.04-8.615-21.637-18.628-22.292s-6.441,7.8-6.441,7.8-12.919,1.719-13.168,10.5,18.256,2.771,22.851,2.394S-38.5,836.344-38.5,836.344Z" fill="#fccb98"/>
      </g>
      <g id="Group_716" data-name="Group 716">
        <path id="Path_1352" data-name="Path 1352" d="M-38.679,838.6s19.529-30.68,27.6-26.2,1.665,9.871,1.665,9.871,10.23-3.214,9.705,4.341-7.215,7.392-17.6,4.873S-38.679,838.6-38.679,838.6Z" fill="#fccb98"/>
      </g>
      <g id="Group_717" data-name="Group 717">
        <path id="Path_1353" data-name="Path 1353" d="M-48.046,874.414c-3.342-7.545-8.135-12.765-20.38-14.233s-18.425,2.1-18.778,5.922,6.113,5.353,6.113,5.353-9.915,2.029-9.757,9.811,18.781-4.785,26.191-7.263S-48.046,874.414-48.046,874.414Z" fill="#fccb98"/>
      </g>
      <g id="Group_718" data-name="Group 718">
        <path id="Path_1354" data-name="Path 1354" d="M-48.046,874.414a69.564,69.564,0,0,1,26.3-17.229c16.548-6.052,12.668,6.154,12.668,6.154s11.063,1.836,8.313,11.308-16.974-.226-25.353-2.16S-48.046,874.414-48.046,874.414Z" fill="#fccb98"/>
      </g>
      <g id="Group_719" data-name="Group 719">
        <path id="Path_1355" data-name="Path 1355" d="M-65.291,908.045s2.067-9.471-14.637-10.745-25.06,5.211-27.321,10.223,6.528,7.537,6.528,7.537-11.55,3.08-9.98,11.4,13.969-.539,24.049-8.8A45.963,45.963,0,0,1-65.291,908.045Z" fill="#fccb98"/>
      </g>
      <g id="Group_720" data-name="Group 720">
        <path id="Path_1356" data-name="Path 1356" d="M-64.243,908.315s11.662-11.682,24.677-11.627S-11.7,901.8-10.219,911.306s-11.5,5.447-11.5,5.447,9.088,11.716-1.092,16.613-3.454-14.78-17.079-21.478S-64.243,908.315-64.243,908.315Z" fill="#fccb98"/>
      </g>
      <g id="Group_721" data-name="Group 721">
        <path id="Path_1357" data-name="Path 1357" d="M-91.066,967.5c-6.986-8.673-12.741.262-19.989-4.177s-11.134-11.255-17.177-7.643-.386,8.51-.386,8.51-20.914,6.656-12.473,14.824,23.476-2.021,32.882-6.871S-91.066,967.5-91.066,967.5Z" fill="#fccb98"/>
      </g>
      <g id="Group_722" data-name="Group 722">
        <path id="Path_1358" data-name="Path 1358" d="M-90.382,967.955s2.307-4.921,16.6-3.231,22.655-19.266,29.666-18.239,3.943,10.774,3.943,10.774,17.565-.185,8.411,13.993-39.871-2.712-45.561-3.606S-90.382,967.955-90.382,967.955Z" fill="#fccb98"/>
      </g>
    </g>
    <g id="Group_730" data-name="Group 730">
      <ellipse id="Ellipse_81" data-name="Ellipse 81" cx="39.283" cy="10.933" rx="39.283" ry="10.933" transform="translate(-290.027 1140.311)" fill="#d0d2d3"/>
      <g id="Group_724" data-name="Group 724">
        <path id="Path_1359" data-name="Path 1359" d="M-243.321,966.32s9.713-2.561,10.333,8.818-.861,11.224,3.355,13.9,10.825,2.043,8.57,9.2-3.649,8.107-3.649,8.107l-32.592.873c-6.079-3.874-7.446-6.953-7.338-9.2.235-4.855,7.5-8.413,6.386-10.833-.494-1.074-2-.54-2.93-1.6-3.25-3.711,5.474-21.229,14.106-20.677A7.4,7.4,0,0,1-243.321,966.32Z" fill="#1b1541"/>
        <path id="Path_1360" data-name="Path 1360" d="M-237.474,994.828a5.128,5.128,0,0,1-4.287,5.747,5.137,5.137,0,0,1-5.708-4.793l-.954-10.327,8.427,1.334q.29.719.565,1.468a54.458,54.458,0,0,1,1.775,5.807C-237.593,994.32-237.533,994.575-237.474,994.828Z" fill="#dc7680"/>
        <path id="Path_1361" data-name="Path 1361" d="M-253.6,981.5c1.442,6.434,6.862,10.7,12.107,9.522a8.1,8.1,0,0,0,2.771-1.2c3.493-2.36,5.28-7.382,4.116-12.578-1.441-6.434-6.862-10.7-12.107-9.522S-255.037,975.065-253.6,981.5Z" fill="#f7b1ac"/>
      </g>
      <g id="Group_725" data-name="Group 725">
        <path id="Path_1362" data-name="Path 1362" d="M-237.656,994.064l16.962,2.64s-3.093,22.585-11.975,31.577l-1.578,3.764-25.707-2.9a58.3,58.3,0,0,1-1.412-7.245,58.554,58.554,0,0,1-.261-12.647l3.555-15.187h20.416Z" fill="#1899aa"/>
      </g>
      <g id="Group_726" data-name="Group 726">
        <path id="Path_1363" data-name="Path 1363" d="M-236.514,1129.26c-2.532,4.976-2.168,7.657-1.255,9.2,3.055,5.168,16.36,4.548,16.361,4.548h0c.292.223,2.78,2.173,2.46,4.444a4.187,4.187,0,0,1-.419,1.255,7.117,7.117,0,0,1-2.509,2.537h-28.85s-.249-6.385,1.112-9.789,2.968-11.649,2.968-11.649Z" fill="#5352a2"/>
        <path id="Path_1364" data-name="Path 1364" d="M-271.228,1129.807c-2.78,1.342-4.475,4.042-4.234,6.6.328,3.483,4.247,6.57,8.83,5.746a6.3,6.3,0,0,1-1.041,7.395,6.438,6.438,0,0,1-5.44,1.469,39.759,39.759,0,0,1-8.009-5.162,39.825,39.825,0,0,1-7.858-8.8l4.369-6.748,5.831-5.95Z" fill="#5352a2"/>
      </g>
      <g id="Group_727" data-name="Group 727">
        <path id="Path_1365" data-name="Path 1365" d="M-232.975,1030.192c-.015,0-.291.058-.291.058l.291-.058q-5.923-.14-12.208-.5-5.976-.351-11.608-.878l-3.163.331h0c-1.216,2.646-2.955,6.676-4.682,11.707-5.885,17.152-5.049,29.682-7.371,40.133-3.276,14.742-6.143,28.257-13.105,40.952,5.121,7.454,10.155,12.042,12.307,11.9a7.883,7.883,0,0,0,2.027-.434,7.15,7.15,0,0,0,2.866-2.047c5.393-22.913,10.15-39.993,12.631-47.065.452-1.29.879-2.389,2.522-6.992,2.188-6.132,3.566-8.653,4.914-12.695.409-1.229,1.228-2.048,1.638-3.276.409-.819.609-.725-.1.319a3.329,3.329,0,0,1-2.217,1.374,3.649,3.649,0,0,0,2.078-1.41,3.635,3.635,0,0,0,.652-2.331c-1.228,10.648.41,21.3,0,31.943-.819,13.923-2.866,27.438-4.546,41.059a2.63,2.63,0,0,0,.259-1.443,8.942,8.942,0,0,0-.259,1.443c6.594-.107,13.146-.107,19.7-.517a3.1,3.1,0,0,0,1.638-.819,5.827,5.827,0,0,0,.819-2.457c.409-8.19,1.228-16.79.819-24.981-.546-10.913-1.71-16.3-1.638-21.295.162-11.242,2.167-11.124,2.457-21.3C-226.017,1042.217-232.463,1030.141-232.975,1030.192Z" fill="#f4ef8c"/>
        <path id="Path_1366" data-name="Path 1366" d="M-248.665,1057.106a2.589,2.589,0,0,1,2.174.1c1.005.671,1.331,2.495.284,4.116l-7.376,18.268c-4.451,13.544-7.493,24.416-9.491,32.046,0,0-.389,1.485-5.081,19.839a4.489,4.489,0,0,1-2.623,1.922,2.912,2.912,0,0,1-1.493,0c-2.248-1.077,4.008-18.725,5.149-21.916,2.632-7.36,9.231-25.2,11.578-32.622Z" fill="#fccb98" stroke="#fccb98" stroke-miterlimit="10" stroke-width="1"/>
      </g>
      <g id="Group_728" data-name="Group 728">
        <path id="Path_1367" data-name="Path 1367" d="M-207.048,1013.054s5.646,7.073,5.646,9.791a5.108,5.108,0,0,1-2.3,4.594l-21.748,3.351,3.555,7.738-7.273,6.144-2.137-3.426-1.364-6.4-2.191,5.985-2.571-.209q.764-3.347,1.525-6.692l4.81-9.323,15.291-3.355-2.535-6.142Z" fill="#f7b1ac"/>
        <path id="Path_1368" data-name="Path 1368" d="M-204.747,1015.107l2.865,5.925s-10.342-2.632-13.923.217l-1.7-4.051Z" fill="#dc7680"/>
        <path id="Path_1369" data-name="Path 1369" d="M-226.862,995.744a13.355,13.355,0,0,1,4.418.22c5.914,1.312,9.01,6.355,9.75,7.641l7.947,11.5-14.37,6.142q-3.621-7.433-7.241-14.866Z" fill="#1899aa"/>
        <path id="Path_1370" data-name="Path 1370" d="M-232.669,1033.664l2.41,8,1.091,3.008-2.137-3.426Z" fill="#dc7680"/>
      </g>
      <g id="Group_729" data-name="Group 729">
        <path id="Path_1371" data-name="Path 1371" d="M-270.41,993.358a3.713,3.713,0,0,1-2.844-1.549,3.624,3.624,0,0,1-.5-2.747l6.691-16.825s4.99.837,5.214,0,6.706-4.71,6.706-4.71l-2.718-7.938-11.955,7.938s-16.485,22.679-15.649,26.66,11.293,10.986,11.293,10.986Q-272.293,999.266-270.41,993.358Z" fill="#f7b1ac"/>
        <path id="Path_1372" data-name="Path 1372" d="M-273.756,989.062c0,5.509-2.853,9.417-5.856,9.733a5.33,5.33,0,0,1-3.964-1.471l8.333,7.107,1.989-12.622" fill="#dc7680"/>
        <path id="Path_1373" data-name="Path 1373" d="M-255.145,967.527l-7.946,5.547-3.974-.837Z" fill="#dc7680"/>
        <path id="Path_1374" data-name="Path 1374" d="M-253.054,998.06a7.639,7.639,0,0,0-2.256-2.749c-2.583-1.911-5.446-1.21-9.036-1.534a22.466,22.466,0,0,1-8.783-2.764l-3.137,19.911,20.076-2.509Z" fill="#1899aa"/>
      </g>
    </g>
    <g id="Group_740" data-name="Group 740">
      <g id="Group_731" data-name="Group 731">
        <rect id="Rectangle_370" data-name="Rectangle 370" width="378.836" height="242.455" rx="8.504" transform="translate(-192.623 859.94)" fill="#dbdcdc"/>
        <path id="Path_1375" data-name="Path 1375" d="M171.894,1104.079H-178.3a16.021,16.021,0,0,1-16-16V874.258a16.02,16.02,0,0,1,16-16h350.2a16.02,16.02,0,0,1,16,16v213.819A16.021,16.021,0,0,1,171.894,1104.079ZM-178.3,861.624a12.648,12.648,0,0,0-12.634,12.634v213.819a12.648,12.648,0,0,0,12.634,12.634h350.2a12.648,12.648,0,0,0,12.635-12.634V874.258a12.649,12.649,0,0,0-12.635-12.634Z" fill="#2191a1"/>
      </g>
      <circle id="Ellipse_82" data-name="Ellipse 82" cx="7.577" cy="7.577" r="7.577" transform="translate(95.292 875.094)" fill="#2191a1"/>
      <circle id="Ellipse_83" data-name="Ellipse 83" cx="7.577" cy="7.577" r="7.577" transform="translate(155.906 875.094)" fill="#4f4f98"/>
      <circle id="Ellipse_84" data-name="Ellipse 84" cx="7.577" cy="7.577" r="7.577" transform="translate(125.599 875.094)" fill="#fccb98"/>
      <rect id="Rectangle_371" data-name="Rectangle 371" width="60.614" height="3.367" rx="1" transform="translate(-147.163 977.8)" fill="#4f4f98"/>
      <rect id="Rectangle_372" data-name="Rectangle 372" width="60.614" height="3.367" rx="1" transform="translate(-147.163 1008.107)" fill="#4f4f98"/>
      <rect id="Rectangle_373" data-name="Rectangle 373" width="60.614" height="3.367" rx="1" transform="translate(-147.163 1038.414)" fill="#4f4f98"/>
      <rect id="Rectangle_374" data-name="Rectangle 374" width="45.46" height="3.367" rx="1" transform="translate(-147.163 992.954)" fill="#4f4f98"/>
      <rect id="Rectangle_375" data-name="Rectangle 375" width="45.46" height="3.367" rx="1" transform="translate(-147.163 1023.26)" fill="#4f4f98"/>
      <rect id="Rectangle_376" data-name="Rectangle 376" width="60.614" height="3.367" rx="1" transform="translate(-71.396 977.8)" fill="#4f4f98"/>
      <rect id="Rectangle_377" data-name="Rectangle 377" width="60.614" height="3.367" rx="1" transform="translate(-71.396 1008.107)" fill="#4f4f98"/>
      <rect id="Rectangle_378" data-name="Rectangle 378" width="60.614" height="3.367" rx="1" transform="translate(-71.396 1038.414)" fill="#4f4f98"/>
      <rect id="Rectangle_379" data-name="Rectangle 379" width="45.46" height="3.367" rx="1" transform="translate(-71.396 992.954)" fill="#4f4f98"/>
      <rect id="Rectangle_380" data-name="Rectangle 380" width="45.46" height="3.367" rx="1" transform="translate(-71.396 1023.26)" fill="#4f4f98"/>
      <rect id="Rectangle_381" data-name="Rectangle 381" width="60.614" height="3.367" rx="1" transform="translate(4.371 977.8)" fill="#4f4f98"/>
      <rect id="Rectangle_382" data-name="Rectangle 382" width="60.614" height="3.367" rx="1" transform="translate(4.371 1008.107)" fill="#4f4f98"/>
      <rect id="Rectangle_383" data-name="Rectangle 383" width="60.614" height="3.367" rx="1" transform="translate(4.371 1038.414)" fill="#4f4f98"/>
      <rect id="Rectangle_384" data-name="Rectangle 384" width="45.46" height="3.367" rx="1" transform="translate(4.371 992.954)" fill="#4f4f98"/>
      <rect id="Rectangle_385" data-name="Rectangle 385" width="45.46" height="3.367" rx="1" transform="translate(4.371 1023.26)" fill="#4f4f98"/>
      <rect id="Rectangle_386" data-name="Rectangle 386" width="60.614" height="3.367" rx="1" transform="translate(80.138 977.8)" fill="#4f4f98"/>
      <rect id="Rectangle_387" data-name="Rectangle 387" width="60.614" height="3.367" rx="1" transform="translate(80.138 1008.107)" fill="#4f4f98"/>
      <rect id="Rectangle_388" data-name="Rectangle 388" width="60.614" height="3.367" rx="1" transform="translate(80.138 1038.414)" fill="#4f4f98"/>
      <rect id="Rectangle_389" data-name="Rectangle 389" width="45.46" height="3.367" rx="1" transform="translate(80.138 992.954)" fill="#4f4f98"/>
      <rect id="Rectangle_390" data-name="Rectangle 390" width="45.46" height="3.367" rx="1" transform="translate(80.138 1023.26)" fill="#4f4f98"/>
      <g id="Group_733" data-name="Group 733">
        <path id="pic_big_1" d="M-122.539,943.284a1.894,1.894,0,0,1-1.895-1.894V930.025a1.894,1.894,0,0,1,1.895-1.894h11.365a1.894,1.894,0,0,1,1.895,1.894V941.39a1.894,1.894,0,0,1-1.895,1.894Zm0-1.894h11.365V930.025h-11.365Zm.947-2.841,2.841-4.736,2.841,3.788,1.895-1.894,1.895,2.841Zm5.683-4.736a.947.947,0,0,1,.947-.947.947.947,0,0,1,.948.947.947.947,0,0,1-.948.947A.947.947,0,0,1-115.909,933.813Z" fill="#2191a1"/>
        <g id="Group_732" data-name="Group 732">
          <path id="Path_1379" data-name="Path 1379" d="M-97.188,966.014h-39.336a10.65,10.65,0,0,1-10.639-10.638V916.039A10.65,10.65,0,0,1-136.524,905.4h39.336a10.65,10.65,0,0,1,10.639,10.638v39.337A10.65,10.65,0,0,1-97.188,966.014Zm-39.336-57.423a7.457,7.457,0,0,0-7.449,7.448v39.337a7.457,7.457,0,0,0,7.449,7.448h39.336a7.457,7.457,0,0,0,7.449-7.448V916.039a7.457,7.457,0,0,0-7.449-7.448Z" fill="#2191a1"/>
        </g>
      </g>
      <g id="Group_735" data-name="Group 735">
        <path id="pic_big_1-2" data-name="pic_big_1" d="M-46.771,943.284a1.894,1.894,0,0,1-1.895-1.894V930.025a1.894,1.894,0,0,1,1.895-1.894h11.365a1.894,1.894,0,0,1,1.894,1.894V941.39a1.894,1.894,0,0,1-1.894,1.894Zm0-1.894h11.365V930.025H-46.771Zm.947-2.841,2.841-4.736,2.841,3.788,1.895-1.894,1.894,2.841Zm5.683-4.736a.947.947,0,0,1,.947-.947.947.947,0,0,1,.947.947.947.947,0,0,1-.947.947A.947.947,0,0,1-40.142,933.813Z" fill="#2191a1"/>
        <g id="Group_734" data-name="Group 734">
          <path id="Path_1383" data-name="Path 1383" d="M-21.42,966.014H-60.757A10.65,10.65,0,0,1-71.4,955.376V916.039A10.65,10.65,0,0,1-60.757,905.4H-21.42a10.65,10.65,0,0,1,10.638,10.638v39.337A10.65,10.65,0,0,1-21.42,966.014Zm-39.337-57.423a7.457,7.457,0,0,0-7.449,7.448v39.337a7.457,7.457,0,0,0,7.449,7.448H-21.42a7.457,7.457,0,0,0,7.448-7.448V916.039a7.457,7.457,0,0,0-7.448-7.448Z" fill="#2191a1"/>
        </g>
      </g>
      <g id="Group_737" data-name="Group 737">
        <path id="pic_big_1-3" data-name="pic_big_1" d="M29,943.284a1.894,1.894,0,0,1-1.9-1.894V930.025a1.894,1.894,0,0,1,1.9-1.894H40.361a1.894,1.894,0,0,1,1.894,1.894V941.39a1.894,1.894,0,0,1-1.894,1.894Zm0-1.894H40.361V930.025H29Zm.947-2.841,2.841-4.736,2.841,3.788,1.894-1.894,1.895,2.841Zm5.682-4.736a.947.947,0,1,1,.948.947A.947.947,0,0,1,35.625,933.813Z" fill="#2191a1"/>
        <g id="Group_736" data-name="Group 736">
          <path id="Path_1387" data-name="Path 1387" d="M54.347,966.014H15.01A10.65,10.65,0,0,1,4.371,955.376V916.039A10.65,10.65,0,0,1,15.01,905.4H54.347a10.65,10.65,0,0,1,10.638,10.638v39.337A10.65,10.65,0,0,1,54.347,966.014ZM15.01,908.591a7.456,7.456,0,0,0-7.448,7.448v39.337a7.456,7.456,0,0,0,7.448,7.448H54.347a7.456,7.456,0,0,0,7.448-7.448V916.039a7.456,7.456,0,0,0-7.448-7.448Z" fill="#2191a1"/>
        </g>
      </g>
      <g id="Group_739" data-name="Group 739">
        <path id="pic_big_1-4" data-name="pic_big_1" d="M104.763,943.284a1.894,1.894,0,0,1-1.894-1.894V930.025a1.894,1.894,0,0,1,1.894-1.894h11.365a1.894,1.894,0,0,1,1.895,1.894V941.39a1.894,1.894,0,0,1-1.895,1.894Zm0-1.894h11.365V930.025H104.763Zm.947-2.841,2.841-4.736,2.841,3.788,1.895-1.894,1.895,2.841Zm5.683-4.736a.947.947,0,1,1,.947.947A.947.947,0,0,1,111.392,933.813Z" fill="#2191a1"/>
        <g id="Group_738" data-name="Group 738">
          <path id="Path_1391" data-name="Path 1391" d="M130.114,966.014H90.777a10.651,10.651,0,0,1-10.639-10.638V916.039A10.651,10.651,0,0,1,90.777,905.4h39.337a10.65,10.65,0,0,1,10.638,10.638v39.337A10.65,10.65,0,0,1,130.114,966.014ZM90.777,908.591a7.456,7.456,0,0,0-7.448,7.448v39.337a7.456,7.456,0,0,0,7.448,7.448h39.337a7.456,7.456,0,0,0,7.448-7.448V916.039a7.456,7.456,0,0,0-7.448-7.448Z" fill="#2191a1"/>
        </g>
      </g>
    </g>
    <g id="Group_747" data-name="Group 747">
      <ellipse id="Ellipse_85" data-name="Ellipse 85" cx="58.473" cy="10.933" rx="58.473" ry="10.933" transform="translate(79.089 1140.311)" fill="#d0d2d3"/>
      <g id="Group_741" data-name="Group 741">
        <path id="Path_1392" data-name="Path 1392" d="M137.966,961.555s-9.955-2.626-10.591,9.037.882,11.505-3.439,14.246-11.095,2.094-8.783,9.425,3.739,8.31,3.739,8.31l33.407.9c6.23-3.971,7.631-7.127,7.52-9.427-.24-4.976-7.688-8.623-6.545-11.1.507-1.1,2.05-.553,3-1.642,3.331-3.8-5.611-21.759-14.459-21.193A7.581,7.581,0,0,0,137.966,961.555Z" fill="#1b1541"/>
        <path id="Path_1393" data-name="Path 1393" d="M131.973,990.774a5.154,5.154,0,1,0,10.244.978l.978-10.584-8.637,1.367q-.3.737-.579,1.505a55.536,55.536,0,0,0-1.819,5.951Q132.062,990.386,131.973,990.774Z" fill="#dc7680"/>
        <path id="Path_1394" data-name="Path 1394" d="M148.5,977.112c-1.477,6.595-7.033,10.964-12.409,9.76a8.3,8.3,0,0,1-2.839-1.229c-3.581-2.418-5.413-7.566-4.22-12.892,1.478-6.595,7.033-10.964,12.409-9.76S149.975,970.518,148.5,977.112Z" fill="#f7b1ac"/>
      </g>
      <g id="Group_742" data-name="Group 742">
        <path id="Path_1395" data-name="Path 1395" d="M153.729,1127.466c-.214,1.338-1.715,9.472-1.715,9.472a6.886,6.886,0,0,0,.295,1.372,8.328,8.328,0,0,0,3.065,3.97,45.69,45.69,0,0,0,8.429,5.243c6.676,2.974,10.013,4.461,11.789,3.358,2.687-1.67,3.569-6.928,1.5-9.86a6.162,6.162,0,0,0-2.358-1.929c-2.327-1.079-3.932.026-6-.429-1.375-.3-3.186-1.344-4.93-4.715h0c-.821-1.278-1.325-3.493.214-7.595Z" fill="#5352a2"/>
        <path id="Path_1396" data-name="Path 1396" d="M108.5,1128.8s.429,2.786-2.572,5.787-7.288,7.5-8.574,7.93-4.072,1.072-4.286,3.859,4.286,5.358,4.286,5.358,6,.857,9.217,0,4.716-4.287,6-7.287c.462-1.08,3.626-4.149,5.144-7.513a9.448,9.448,0,0,0,.482-1.274c.578-1.98.228-3.344.15-5.347a21.172,21.172,0,0,1,.225-3.964Z" fill="#5352a2"/>
      </g>
      <g id="Group_743" data-name="Group 743">
        <path id="Path_1397" data-name="Path 1397" d="M132.16,989.991,114.774,992.7s3.17,23.149,12.274,32.366l1.618,3.858,26.349-2.975a59.841,59.841,0,0,0,1.715-20.388l-3.644-15.567H132.16Z" fill="#1899aa"/>
      </g>
      <g id="Group_744" data-name="Group 744">
        <path id="Path_1398" data-name="Path 1398" d="M128.666,1028.921s-5.159,6.573-8.588,29.436c-.6,3.481-1.436,8.793-2.144,15.361-.036.337-.162,1.729-.365,3.65,0,0-.338,3.2-.644,5.658-.7,5.567-7.219,17.6-9.922,22.629-3.255,6.051-6.41,12.156-9.646,18.219,1.63,4.639,3.856,6.47,5.573,7.287,0,0,1.021.486,7.328,1.568h0a21.086,21.086,0,0,0,13.249-6.283c1.218-6.122,4.813-23.894,9.431-42.225,0,0,2.363-9.38,8.683-27.873.205-.6.908-2.281.91-2.286l0-.007h0l1.624.187L145.37,1057c1.18,25.043,1.5,32.345,1.5,32.948v1.132l1.072,36.386c5.68,5.189,13.027,5.918,15.218,5.229,2.939-.925,8.574-8.607,8.574-8.607a89.86,89.86,0,0,0-2.573-10.931c-.794-2.632-1.483-4.481-1.765-5.261a107.234,107.234,0,0,1-4.665-20.246c-1.259-9.353.668-8.8.643-27.221-.017-13.072-.994-17.777-1.5-19.934a61.082,61.082,0,0,0-6.43-16.3" fill="#f4ef8c"/>
        <path id="Path_1399" data-name="Path 1399" d="M142.534,1054.055s-.441-4.343.661-3.271c0,0,3.032.969,3.246,3.271s5.573,76.3,5.573,76.3l-4.072-2.893-1.072-36.386-2.572-34.509Z" fill="#fccb98" stroke="#fccb98" stroke-miterlimit="10" stroke-width="1"/>
      </g>
      <g id="Group_745" data-name="Group 745">
        <path id="Path_1400" data-name="Path 1400" d="M100.787,1009.456S95,1016.706,95,1019.491a5.235,5.235,0,0,0,2.357,4.708l22.292,3.436L116,1035.566l7.455,6.3,2.19-3.512,1.4-6.563,2.246,6.134,2.634-.214q-.78-3.429-1.562-6.859l-4.93-9.556-15.673-3.438,2.6-6.3Z" fill="#f7b1ac"/>
        <path id="Path_1401" data-name="Path 1401" d="M98.429,1011.559l-2.937,6.074s10.6-2.7,14.271.223l1.741-4.153Z" fill="#dc7680"/>
        <path id="Path_1402" data-name="Path 1402" d="M121.1,991.713a13.7,13.7,0,0,0-4.528.225c-6.062,1.346-9.236,6.515-9.994,7.833l-8.145,11.788,14.729,6.3,7.421-15.238Z" fill="#1899aa"/>
        <path id="Path_1403" data-name="Path 1403" d="M127.048,1030.58l-2.47,8.2-1.119,3.083,2.19-3.512Z" fill="#dc7680"/>
      </g>
      <g id="Group_746" data-name="Group 746">
        <path id="Path_1404" data-name="Path 1404" d="M165.732,989.268a3.808,3.808,0,0,0,2.915-1.588,3.711,3.711,0,0,0,.514-2.815L162.3,967.62s-5.114.857-5.344,0-6.874-4.828-6.874-4.828l2.787-8.137,12.253,8.137s16.9,23.245,16.04,27.326-11.575,11.26-11.575,11.26Z" fill="#f7b1ac"/>
        <path id="Path_1405" data-name="Path 1405" d="M169.161,984.865c0,5.646,2.924,9.651,6,9.976a5.466,5.466,0,0,0,4.064-1.508l-8.542,7.285-2.038-12.938" fill="#dc7680"/>
        <path id="Path_1406" data-name="Path 1406" d="M150.085,962.792l8.145,5.685,4.073-.857Z" fill="#dc7680"/>
        <path id="Path_1407" data-name="Path 1407" d="M147.942,994.087a7.836,7.836,0,0,1,2.313-2.818c2.647-1.958,5.582-1.24,9.261-1.572a23.016,23.016,0,0,0,9-2.833l3.216,20.409-20.577-2.572Z" fill="#1899aa"/>
      </g>
    </g>
  </g>
</svg>
