<svg id="Group_683" data-name="Group 683" xmlns="http://www.w3.org/2000/svg" width="129.332" height="289.813" viewBox="0 0 129.332 289.813">
  <ellipse id="Ellipse_74" data-name="Ellipse 74" cx="56.826" cy="15.816" rx="56.826" ry="15.816" transform="translate(0 258.181)" fill="#d0d2d3"/>
  <g id="Group_678" data-name="Group 678" transform="translate(13.617 236.047)">
    <path id="Path_1266" data-name="Path 1266" d="M576.057,499.142c.454,3.1,1.816,11.066-4.538,16.611s-14.521,9.629-14.974,9.174c-1.581,4.561-.794,6.695,0,7.774,4.476,6.087,24.9,0,24.9,0h0l12.945-2.329s2.906-15.881,0-19.964-.729-13.614-.729-13.614Z" transform="translate(-555.631 -496.794)" fill="#5352a2"/>
    <g id="Group_677" data-name="Group 677" transform="translate(56.809 0.777)">
      <path id="Path_1267" data-name="Path 1267" d="M601.171,497.331,599,506.667l-1.909,8.846s-2.777-1.261-2.07,6.906v10.042s4.34,4.6,14.775,0c0,0,4.992-15.331,3.177-16.543s.4-18.587.4-18.587Z" transform="translate(-594.902 -497.331)" fill="#5352a2"/>
    </g>
  </g>
  <g id="Group_679" data-name="Group 679" transform="translate(34.042)">
    <path id="Path_1268" data-name="Path 1268" d="M632.124,398.068c1.361-2.116,20.42-21.21,20.42-21.21s-4.538-8.791-6.806-9.368c0,0-37.928-41.66-48.005-28.379l2.174,13.28,12.2.064c4.291,3.751,8.733,7.952,13.215,12.642q3.621,3.791,6.806,7.489l-7.259,6.971Z" transform="translate(-557.254 -332.334)" fill="#f7b1ac"/>
    <path id="Path_1269" data-name="Path 1269" d="M574.771,370.754s-6.2-29.344-3.525-31.152c0,0,53.373-10.359,54.856-3.815s1.815,16.4,1.815,16.4l-17.524-8.542s-16.14,8.165-22.677,7.509,1.292,29.105,1.292,29.105Z" transform="translate(-569.383 -333.619)" fill="#f7b1ac"/>
    <path id="Path_1270" data-name="Path 1270" d="M572.182,352.609l13.188,5.466,2.921,17.215L574.054,365.1Z" transform="translate(-568.665 -325.139)" fill="#dc7680"/>
    <path id="Path_1271" data-name="Path 1271" d="M621.507,361.444c4.133,3.846,7.746,4.976,10.437,5.216,4.068.365,9.983-.943,9.983-.943l-14.268,14.843Z" transform="translate(-546.637 -321.193)" fill="#dc7680"/>
    <path id="Path_1272" data-name="Path 1272" d="M575.14,392.526c.039-1.95-5.389-36.842-5.389-36.842l18.334,7.058,4.45,1.274v20.192Z" transform="translate(-569.751 -323.766)" fill="#1899aa"/>
    <path id="Path_1273" data-name="Path 1273" d="M601.927,375.046a69.577,69.577,0,0,0,28.324-13.6l8.622,26.8-25.211,4.591c-2.8-.874-5.532-1.191-7.006.205-2.576,2.439-.184,9.054,0,9.018S605.75,395.466,601.927,375.046Z" transform="translate(-555.382 -321.193)" fill="#1899aa"/>
  </g>
  <g id="Group_680" data-name="Group 680" transform="translate(35.955 5.773)">
    <path id="Path_1274" data-name="Path 1274" d="M597.949,340.554s-14.42-1.784-13.1,14.648,3.415,15.923-2.108,20.575c-3.94,3.318-9.954,4.464-11.4,8.411-.694,1.9.075,3.977.9,6.436a18.26,18.26,0,0,0,2.319,4.6l51.377,1.227c7.961-6.735,9.322-11.414,8.73-14.609-1.28-6.915-12.387-10.6-11.259-14.288.5-1.635,2.762-1.162,3.89-2.866,3.938-5.951-11.973-29.369-24.241-26.9A10.708,10.708,0,0,0,597.949,340.554Z" transform="translate(-571.073 -337.61)" fill="#1b1541"/>
    <path id="Path_1275" data-name="Path 1275" d="M587.688,373.484a7.274,7.274,0,1,0,14.512-.574q-.321-7.495-.639-14.988l-11.82,3.548q-.276,1.087-.525,2.215a78.791,78.791,0,0,0-1.416,8.668C587.759,372.734,587.721,373.11,587.688,373.484Z" transform="translate(-563.653 -328.539)" fill="#dc7680"/>
    <path id="Path_1276" data-name="Path 1276" d="M610.558,359c-.817,9.5-7.758,16.668-15.5,16a11.7,11.7,0,0,1-4.205-1.18c-5.467-2.7-9-9.556-8.344-17.23.816-9.5,7.757-16.668,15.5-16S611.374,349.5,610.558,359Z" transform="translate(-566.004 -336.298)" fill="#f7b1ac"/>
  </g>
  <g id="Group_681" data-name="Group 681" transform="translate(39.431 47.222)">
    <path id="Path_1277" data-name="Path 1277" d="M594.035,372.894l-20.544,9.537s-.412,12.349,3.219,21.035,7.046,17.23,7.046,17.23L623.9,414.3s-8.04-14.985,9.819-33.07l1.979-14.969" transform="translate(-573.476 -366.263)" fill="#1899aa"/>
  </g>
  <g id="Group_682" data-name="Group 682" transform="translate(29.504 95.262)">
    <path id="Path_1278" data-name="Path 1278" d="M586.82,405.866s3.871,14.145,0,22.312-18.39,39.023-20.206,49.915v66.7s2.818,4.189,6.4,5.5,20.921-14.573,20.921-14.573-7.441-47.432-4.45-52.077,16.339-19.766,22.144-37.161c0,0,2.628-3.128,3.083-1.413s0,33.049,0,33.049l-7.062,59.871s4.863,8.322,10.047,8.7,18.473-8.7,18.473-8.7l.613-57.113s9.238-42.715,4.7-55.42a183.867,183.867,0,0,0-12.253-25.984h-2.268Z" transform="translate(-566.614 -399.472)" fill="#f4ef8c"/>
    <path id="Path_1279" data-name="Path 1279" d="M598.961,434.547c.123-3.755.542-8.073,1.982-8.335.27-.049.571.014,1.1.469,3.175,2.722,4.991,7.867,4.991,7.867v43.172l-6.695,54.8-5.358-6.462c.583-4.288,4.091-30.16,6.027-47.575.075-.667.621-5.637,1.036-12.3.516-8.286.762-12.536.182-17.715A61.442,61.442,0,0,0,598.961,434.547Z" transform="translate(-553.945 -387.537)" fill="#fccb98" stroke="#fccb98" stroke-miterlimit="10" stroke-width="1"/>
  </g>
</svg>
