<svg xmlns="http://www.w3.org/2000/svg" width="323.007" height="791.226" viewBox="0 0 323.007 791.226">
  <g id="Group_1192" data-name="Group 1192" transform="translate(0 0)">
    <path id="Path_3197" data-name="Path 3197" d="M264.334,190.084c3.2-21.714,4.508-43.919,10.008-65.029,11.364-43.57,4.149-85.262-6.893-127.471-13.977-53.431-23.566-107.466-13.073-163.043,2.173-11.483,2.624-23.315,9.9-33.214,2.238-.817,4.792-1.465,6.746-.2,31.1,20.075,63.912,34.559,102.087,32.016C384.585-154.481,386.9-139,387.542-123.124c4.666,115.83-9.017,229.623-38.191,341.679-5.5,10.944-13.079,12.033-22.422,4.7q-.817-14.742-1.634-29.49c-2.782-3.5-3.109-7.53-2.543-11.75,1.149-27.41,2.107-54.781,5.031-82.148,3.436-32.092-.937-64.152-6.125-95.929C321.277-1.2,319.829-6.2,319.5-11.35c-.12-7.111.109-14.3-3.643-20.789-1.4-4.367-4.111-8.369-4.078-9.621C324.773-8.4,320.646,30.494,324.974,68.45c-5.75,40.276-19.76,78.543-28.515,118.1a16.288,16.288,0,0,1-8.832,8.064C279.063,197.217,271.091,196.738,264.334,190.084Z" transform="translate(-235.402 532.335)" fill="#fbfbfd" fill-rule="evenodd"/>
    <path id="Path_3198" data-name="Path 3198" d="M375.458-35.823c-43.369,13.65-76.507-7.7-108.833-31.815-9.463-19.515-7.808-40.886-10.247-61.571-11.048-22.847-6.55-46.325-2.88-69.706,1.759-6.964,4.481-9.828,10.846-3.321,23.707,24.279,23.778,24.208,51.416,4.737,13.117,1.231,22.564-2.984,27.334-16.416,2.292-6.441,5.685-13.111,13.541-15.148,24.6,6.087,39.187,28.314,61.441,38.174,8.445,13.329,1.933,21.524-9.594,28-30.742-9.371-31.08-9.382-32.131,22.863-.811,24.976-2.4,49.973,2.853,74.862C381.246-55.484,382.5-44.845,375.458-35.823Z" transform="translate(-237.747 401.301)" fill="#fe8d4d" fill-rule="evenodd"/>
    <path id="Path_3199" data-name="Path 3199" d="M272.262-139.813c-28.646-51.721-26.277-83.351,8.532-114.115,10.236-4.171,21.29-3.36,31.9-5.249,8.755-2.2,16.188.648,22.972,6.006,6.7,7.8,15.4,13.808,20.81,22.83a36.787,36.787,0,0,1,6.017,16.493c.632,8.162.844,16.308-1.77,24.23-4.645,7.356-8.059,15-5.178,24.039-1.329,18.219-12.725,26.1-29.359,28.6-8.282,3.131-14.843,10.906-24.889,9.333C292.049-132.7,281.562-134.842,272.262-139.813Z" transform="translate(-223.722 264.125)" fill="#936760" fill-rule="evenodd"/>
    <path id="Path_3200" data-name="Path 3200" d="M278.618-132.149c5.924-8.4,9.812-17.495,9.594-28C333.165-158.235,365.6-176.4,388.829-216c4.111-7.008,18.191-19.188,32.609-19.961,4.252-.229,7.639,1.721,8.717,6.311,2.216,9.4-.637,17.173-7.83,23.364-22.068,19.008-45.432,36.71-65.954,57.253C333.3-125.952,308-121.814,278.618-132.149Z" transform="translate(-107.883 370.558)" fill="#fed7cc" fill-rule="evenodd"/>
    <path id="Path_3201" data-name="Path 3201" d="M311.943-162.853c-5.94,15.85-18,19.689-33.824,19.079-19.667-.762-19.487-17.1-25.128-29.1-3.512-2.9-3.055-6.153-.839-9.561,3.229-20.647,11.652-38.457,28.308-51.77,11.8-4.655,22.237-1.775,31.831,5.8C321.923-206.5,328.73-184.611,311.943-162.853Z" transform="translate(-233.217 368.457)" fill="#946760" fill-rule="evenodd"/>
    <path id="Path_3202" data-name="Path 3202" d="M275.855-107.95c8.015,1.029,15.61.033,22.422-4.7,4.258-1.879,8.451-3.931,12.79-5.586,6.752-2.559,13.563-11.663,20.762-3.5,7.813,8.864-.948,15.921-6.153,22.079C317.5-90,306.738-83.306,295.282-78.161c-10.721,4.808-25.085,10.574-31.776-.6C257.908-88.12,264.1-101.3,275.855-107.95Z" transform="translate(-184.327 863.545)" fill="#feb587" fill-rule="evenodd"/>
    <path id="Path_3203" data-name="Path 3203" d="M265.3-158.341c4.628-22.166,2.853-43.946-3.969-65.415a5.783,5.783,0,0,1,2.352-7.193q11.41-3.259,22.814-6.518c1.606.686,2.183,1.448,1.731,2.3-.468.888-.947,1.334-1.448,1.334-22.33,26.7,9.256,29.5,18.682,42.127-3.556,7.024-8.309,13.716-10.422,21.148C290.084-153.169,280.322-149.989,265.3-158.341Z" transform="translate(-186.578 363.946)" fill="#fdd6cb" fill-rule="evenodd"/>
    <path id="Path_3204" data-name="Path 3204" d="M323.743-118.509q-.637,4.01-1.285,8.009c-12.327,11.908-24.224,24.426-40.951,30.41-9.463,3.387-21.36,9.953-27.976.365-6.36-9.213-1.884-21.007,7.726-28.82,8.554-.523,17.358.114,24.965-5.1a31.648,31.648,0,0,0,3.425-2.951C307.872-135.481,313.42-135.791,323.743-118.509Z" transform="translate(-232.565 836.616)" fill="#feb485" fill-rule="evenodd"/>
    <path id="Path_3205" data-name="Path 3205" d="M266.2-226.531q.417,4.786.839,9.567-.572,38.248-1.144,76.5c-19.874-11.914-22.6-28.586-14.042-48.835C257.028-201.539,261.438-214.106,266.2-226.531Z" transform="translate(-247.261 412.555)" fill="#fed7cb" fill-rule="evenodd"/>
    <path id="Path_3206" data-name="Path 3206" d="M265.9-196.358q-.229-1.813-.283-3.637c12.523-7.04,26.827-12.42,28.03-30.029,1.035-5.418,4.634-9.044,8.625-12.42,6.991-4.906,13.569-4.8,19.585,1.688C314.318-210.515,299.045-198.389,265.9-196.358Z" transform="translate(-165.69 326.469)" fill="#fdd8cd" fill-rule="evenodd"/>
    <path id="Path_3207" data-name="Path 3207" d="M293.145-206.462c-5.957-.272-11.93-3.2-17.865.1a7.208,7.208,0,0,1-2.842-8.412c1.138-5.195,2.635-10.318,3.12-15.654,2.341-7.28,5.325-14.119,12.567-17.957,4.966-9.654,8.549-4.051,9.425,1.683C299.619-233.066,301.187-219.138,293.145-206.462Z" transform="translate(-136.981 292.175)" fill="#986e67" fill-rule="evenodd"/>
    <path id="Path_3208" data-name="Path 3208" d="M290.357-244.863c-5.031-6.234-11.739-9.028-19.558-9.556-5.26,2.962-9.207,3.5-8.521-4.59,21.894-4.432,41.725-.212,59.508,13.645,9.507,7.405,7.5,12.235-2.75,15.932a8.267,8.267,0,0,1-6.12.278C306.321-235.71,300.054-242.751,290.357-244.863Z" transform="translate(-180.861 260.696)" fill="#976d67" fill-rule="evenodd"/>
    <path id="Path_3209" data-name="Path 3209" d="M285.8-228.1q-1.168,3.594-2.347,7.193c-9.409-.887-19.183-.065-27.519-5.935q.645-4.974,1.3-9.942C268.352-239.133,278.866-239.5,285.8-228.1Z" transform="translate(-208.694 361.092)" fill="#fde35a" fill-rule="evenodd"/>
    <path id="Path_3210" data-name="Path 3210" d="M282.087-260.224c1.133,4.7,5.167,4.024,8.521,4.59-10.122,8.26-21.927,2.494-32.865,3.92C264.462-258.547,272.635-261.209,282.087-260.224Z" transform="translate(-200.671 261.911)" fill="#e0d4d2" fill-rule="evenodd"/>
    <path id="Path_3211" data-name="Path 3211" d="M287.794-248.933q-4.68,9.491-9.371,18.992c-9.893-.425-4.759-8.14-6.158-12.687.3-4.922,1.878-9.028,6.991-10.863Q283.519-251.211,287.794-248.933Z" transform="translate(-136.65 292.725)" fill="#f4efe2" fill-rule="evenodd"/>
    <path id="Path_3212" data-name="Path 3212" d="M277.5-127.463c-6.8,9.169-14.516,13.857-24.965,5.091.076-1.878.153-3.762.24-5.646Z" transform="translate(-223.838 850.438)" fill="#f6e7e8" fill-rule="evenodd"/>
    <path id="Path_3213" data-name="Path 3213" d="M285.626-245.545l-4.846,9.572q-1.944,3.3-3.724-.093-2.834-7.04-5.663-14.081c-1.862-4.9.239-5.886,4.6-4.645l5.205,1.274Q283.407-249.53,285.626-245.545Z" transform="translate(-143.02 284.78)" fill="#fbf9fa" fill-rule="evenodd"/>
    <path id="Path_3214" data-name="Path 3214" d="M279.789-112.688c-8.233,21.4-1.329,44.12-5.755,65.851q-6.869-63.632-13.748-127.264c3.055,10.476,13.433,17.026,14.434,27.938.779,6.888,1.693,13.754,4.949,20.032Q279.726-119.41,279.789-112.688Z" transform="translate(-189.372 645.602)" fill="#efefef" fill-rule="evenodd"/>
    <path id="Path_3215" data-name="Path 3215" d="M284.162-245q.507,4.247,1.018,8.494a17,17,0,0,1-10.34,10.629c-7.231-8.587-7.41-15.425,4.77-19.193C281.162-247.378,282.681-247.476,284.162-245Z" transform="translate(-146.887 322.326)" fill="#f0c9bf" fill-rule="evenodd"/>
    <path id="Path_3216" data-name="Path 3216" d="M290.844-242.475q-2.295,2.319-4.6,4.645-9.433-9.393-18.878-18.8C281.332-262.093,285.045-250.556,290.844-242.475Z" transform="translate(-157.875 272.465)" fill="#e3d8d6" fill-rule="evenodd"/>
    <path id="Path_3217" data-name="Path 3217" d="M276.189-223.141c-1.514-.027-3.038-.049-4.552-.071q.645-14.268,1.312-28.537,1.862.057,3.724.093c.365,4.939-.779,10.307,4.013,13.977Q278.44-230.419,276.189-223.141Z" transform="translate(-138.913 300.464)" fill="#ece6e6" fill-rule="evenodd"/>
  </g>
</svg>
