<svg xmlns="http://www.w3.org/2000/svg" width="342.538" height="716.179" viewBox="0 0 342.538 716.179">
  <g id="Group_1185" data-name="Group 1185" transform="translate(0 0)">
    <path id="Path_3080" data-name="Path 3080" d="M175.244-186.527c23.533,35.724,26.49,77.906,36.737,117.774,3.545,13.77,4.28,28.341,8.576,41.822,7.1,22.319-2.782,34.276-21.965,42.28-8.1,3.381-15.986,7.253-23.969,10.906-11.091,9.191-23.174,12.039-36.7,5.777q-8.118.131-16.242.25c-13.65,8.325-26.784,1.726-40.047-1.339C35.7,7.5,22.105-15.839,27.387-62.056c2.32-10.264,6.082-20.2,7.089-30.78,2.314-11.233,5.439-22.264,7.988-33.443C50.354-149.833,54.3-174.63,64.712-197.4a9.951,9.951,0,0,1,5.02-3.43c4.214-.441,7.939,1.2,11.685,2.782,3.6,1.546,7.182,3.174,10.868,4.541,16.732,5.761,33.59,10.737,51.6,9.387,4.89-.005,9.512-1.568,14.228-2.57C163.826-187.452,169.576-189.984,175.244-186.527Z" transform="translate(46.871 479.03)" fill="#8488e9" fill-rule="evenodd"/>
    <path id="Path_3081" data-name="Path 3081" d="M34.729-210.747c7.933-23.62,24.5-37.815,48.884-40.755,24.872-3,43.058,8.151,55.816,29.958,21.333,36.465,19.177,74.225,8.4,112.851,4.133,22.613-8.162,43.342-7.4,65.943.365,10.814-12.4,9.861-21.17,10.013-5.831-.142-11.244-2.369-16.9-3.387C64.742-45.891,62.21-51.1,71.259-99.7c8.015-27.889,25.477-50.518,46.086-77.459-25.014,6.381-36.742-7.416-48.454-20.255-8.565-9.382-15.97-18.567-30.012-8.815C36.542-204.6,34.1-207.3,34.729-210.747Z" transform="translate(83.84 251.983)" fill="#fc6b78" fill-rule="evenodd"/>
    <path id="Path_3082" data-name="Path 3082" d="M64.808-174.928c-8.549,43.3,13.6,69.722,48.874,88.926,7.089,10.367,14.609,20.625,7.857,34.167L43.687-10.148c-5.761.991-6.986-3.637-7.77-7.274-9.251-43.069-18.012-86.22-16.847-130.656,5.374-10.008,12-17.925,25.117-14.7,2.249,7.939.6,15.872,1.138,20.745,1.339-5.723-.381-14.75.142-23.669C50.1-172.6,55.491-177.874,64.808-174.928Z" transform="translate(14.215 590.78)" fill="#fe919e" fill-rule="evenodd"/>
    <path id="Path_3083" data-name="Path 3083" d="M37.96-235.565c10.536,4,11.592-9.093,20.293-10.835a157.047,157.047,0,0,0,32.12,35.528c5.418,4.4,11.227,11.309,19.553,4.209,4.291-3.659,8.543-4.258,12.295.7,4.154,5.483,2.053,10.476-2.009,14.685-17.217,17.843-29.364,38.975-40.124,61.037-4.579,6.126-8.668,1.563-12.877-.555-5.93-7.814-6.066-18.426-14.9-25.564-5.919-4.786-8.783-2.238-13.226-.626.485-20.495-7.372-40.363-4.585-61.043C35.3-223.951,32.82-230.5,37.96-235.565Z" transform="translate(80.608 276.801)" fill="#fed7cc" fill-rule="evenodd"/>
    <path id="Path_3084" data-name="Path 3084" d="M46.811-153.407q18.36-2.891,36.7-5.777Q93.7-86.119,103.9-13.053c-5.5,16.8-16.89,10.928-27.715,7.171,3.479-10.089.7-19.406-2.173-29.283C62.71-74.042,51.058-112.891,46.811-153.407Z" transform="translate(137.984 664.469)" fill="#fed6cc" fill-rule="evenodd"/>
    <path id="Path_3085" data-name="Path 3085" d="M49.7-164.079C54.548-117.1,58.245-69.953,70.774-24.129c-4.35,4.5-6.724,1.454-9.354-2.189C51.324-40.278,39.863-52.3,21.089-53.384c-5.908-.343-8.766-3.931-8.129-9.42,4.252-36.59,3.479-73.746,12.333-109.813A238.559,238.559,0,0,0,49.7-164.079Z" transform="translate(-12.872 604.76)" fill="#feb5be" fill-rule="evenodd"/>
    <path id="Path_3086" data-name="Path 3086" d="M85.744-132.222c3.986,4.661,7.884,9.4,11.968,13.972,7.236,8.108,12.747,5.957,17.015-3.027,8.211-17.282,16.569-34.494,24.622-51.852,4.247-9.164,2.341-16.623-2.015-26.506-3.953-8.968-.436-23.587,6.757-32.648,4.5-5.668,9.349,1.378,11.892,6.278,6.049,11.641,5.587,24.595,2.434,36.138a454.31,454.31,0,0,1-44.463,107.6C106.887-70,99.454-69.36,90.53-80.343,79.379-94.069,67.977-107.589,56.679-121.2,61.89-136.7,72.1-138.984,85.744-132.222Z" transform="translate(181.847 330.196)" fill="#fed7cc" fill-rule="evenodd"/>
    <path id="Path_3087" data-name="Path 3087" d="M44.218-125.119q-3.929-17.07-7.857-34.156,20.329,3.251,40.657,6.523c2.761,43,13.776,84.685,20.353,127.079C90.75-13.117,82.3-14.342,72.935-22.428c3.866-5.467.419-10.16-1.225-15.295C62.382-66.8,53.349-95.978,44.218-125.119Z" transform="translate(91.535 664.065)" fill="#fed6cc" fill-rule="evenodd"/>
    <path id="Path_3088" data-name="Path 3088" d="M121.8-170.984c-10.879.523-21.23,2.456-29.065,11.02-12.257,18.208-7.786,39.922-12.436,59.742-1.829,7.8-2.679,15.839-3.975,23.767-5.265,1.895-10.253,4.971-16.231,3.779-16.678-26.283-12.333-53.894-5.173-81.685,12.861.256,22.417,1.073,19.063-19.03C71.115-190.629,80.3-208.5,85.871-225.667,101.792-210.029,117.2-194.054,121.8-170.984Z" transform="translate(145.789 368.958)" fill="#fed733" fill-rule="evenodd"/>
    <path id="Path_3089" data-name="Path 3089" d="M25.227-56.871C19.5-82.9,36.182-102.7,44.932-124.35c11.549-28.569,21.48-57.291,24.916-88.017,7.732-6.109,13.405-1.813,18.861,3.7,5.772,13.542,3.381,27.562,2.4,41.5-2.771,7.9-2.483,16.868-7.971,23.881C70.333-135.3,63.206-121.905,60.3-108.876c-3.512,15.758-10.394,28.3-20.348,40.042C35.741-64,34.043-56.033,25.227-56.871Z" transform="translate(36.84 414.806)" fill="#fed7cc" fill-rule="evenodd"/>
    <path id="Path_3090" data-name="Path 3090" d="M48.754-222.378q3.324-4.655,6.654-9.311c5.516,8.282,19.5,7.394,21.333,19.52.7,4.612.588,9.349.849,14.032,8.9,21.616,5.363,45.911-8.222,56.6-6.006,1.437-11.685-.735-17.495-1.568-10.149-2.189-20.68-4-20-18.142l-.142.288c4.361-6.512,3.757-14.957,8.331-21.382C40.44-196.237,51.46-207.813,48.754-222.378Z" transform="translate(70.942 342.19)" fill="#fc6b77" fill-rule="evenodd"/>
    <path id="Path_3091" data-name="Path 3091" d="M81.833-131.493c8.26-.2,17.211,4.8,24.437-3.245,11.576,19.9,8.9,28.787-11.7,37.717C78.544-90.062,61.611-88.69,44.41-90c-3.136-.24-7.46-.915-8.984-3.022-3.065-4.242,1.171-7.5,3.958-10.209C51.766-115.267,66.843-123.331,81.833-131.493Z" transform="translate(82.636 773.13)" fill="#fc6d7a" fill-rule="evenodd"/>
    <path id="Path_3092" data-name="Path 3092" d="M57.485-125.171c8.156-6.566,21.333,6.24,27.715-7.176.7,15.7,2.477,31.379-2.227,46.9-3.267,10.765-8.048,19.918-21.066,17.473C48.691-70.471,50.689-81.415,51.9-90.819,53.379-102.318,55.59-113.725,57.485-125.171Z" transform="translate(156.686 783.757)" fill="#fc6d7a" fill-rule="evenodd"/>
    <path id="Path_3093" data-name="Path 3093" d="M39.563-142.151c-11.745,7.465-18.9,1.813-24.41-8.538q14.7-9.719,29.4-19.449c2.2-3.784,5.657-5.919,9.654-7.383A9.99,9.99,0,0,1,60.351-176c6.18,7.057,4.623,14.015-.256,20.93Z" transform="translate(-2.733 582.832)" fill="#fc6c79" fill-rule="evenodd"/>
    <path id="Path_3094" data-name="Path 3094" d="M28.017-174.109c4.813-3.381,5.717-10.617,12.2-12.338,5.124-3.648,9.665-3.692,13.253,2.129C51.55-169.97,34.845-164.34,33.13-149.846c-8.625,4.16-6.1-5.456-9.54-7.71C22.784-163.687,25.1-168.98,28.017-174.109Z" transform="translate(34.05 532.043)" fill="#fecbd1" fill-rule="evenodd"/>
    <path id="Path_3095" data-name="Path 3095" d="M34.328-218.752c3.643,9.975,12.267,12.055,21.328,13.427,2.8,3.975,2.624,7.655-1.094,10.988L38.2-197.261C33.315-203.773,27.418-210.105,34.328-218.752Z" transform="translate(68.483 399.694)" fill="#fed831" fill-rule="evenodd"/>
    <path id="Path_3096" data-name="Path 3096" d="M30.139-183.206l7.944,8.009c4.421,3.011,5.488,7.65,6.087,12.523-.539,5.516-4.367,8.086-8.93,9.986A8.5,8.5,0,0,1,30-153.047c-4.5-3.654-3.55-9.267-4.993-14.021a16.928,16.928,0,0,0-3.055-3.741C24.324-175.175,30.8-176.835,30.139-183.206Z" transform="translate(27.501 557.693)" fill="#fee3e7" fill-rule="evenodd"/>
    <path id="Path_3097" data-name="Path 3097" d="M28.191-180.929c1.416.016,2.826.027,4.242.038,4.154,8.08.517,14.565-4.263,20.811q-3.814,2.475-7.617,4.955Q24.374-168.022,28.191-180.929Z" transform="translate(21.265 567.814)" fill="#fed4db" fill-rule="evenodd"/>
    <path id="Path_3098" data-name="Path 3098" d="M40.264-222.626c.566,8.429-.817,16.1-8.331,21.382C31.155-209.754,31.737-217.736,40.264-222.626Z" transform="translate(70.736 382.475)" fill="#fed643" fill-rule="evenodd"/>
    <path id="Path_3099" data-name="Path 3099" d="M44.583-172.33c9.757-.043,12.61-5.826,12.659-14.565.071-12.877.583-25.754.9-38.632q6.085,1.266,12.169,2.516c-.387,4.655-.278,9.425-1.236,13.966-8.434,40.069-8.216,40.526,30.312,51.171a213.111,213.111,0,0,1,5.053,87.582A92.063,92.063,0,0,1,45.694-80.708C36.661-111.146,30.116-141.61,44.583-172.33Z" transform="translate(90.38 369.58)" fill="#fed733" fill-rule="evenodd"/>
    <path id="Path_3100" data-name="Path 3100" d="M53.609-125.511c-2.314-29.163-8.489-58.1-5.053-87.593q5.472,1.462,10.939,2.9c.18,27.328-.446,54.7,5.173,81.685Z" transform="translate(141.216 424.799)" fill="#fdf5ee" fill-rule="evenodd"/>
    <path id="Path_3101" data-name="Path 3101" d="M46.854-187.721q3.61,1.919,7.215,3.844-4.108,17.209-8.216,34.434c-3.877,4.813-6.55,12.1-15.077,7.318-5.488-2.848-4.7-8.162-5.124-13C20.893-173.684,36.046-179.292,46.854-187.721Z" transform="translate(39.933 537.625)" fill="#fef5f6" fill-rule="evenodd"/>
    <path id="Path_3102" data-name="Path 3102" d="M48.78-213.4c-6.626,30.622.534,61.081,1.111,91.622q-4.517-2.066-9.044-4.133c-4.187-5.2-4.193-11.619-5.205-17.751-.185-5.145-1.519-10.378,1.241-15.284q-.008-23.171-.022-46.347l1.094-10.993Q43.37-214.841,48.78-213.4Z" transform="translate(86.184 410.651)" fill="#fef6f3" fill-rule="evenodd"/>
    <path id="Path_3103" data-name="Path 3103" d="M35.113-173.373q7.538-3.659,15.077-7.318a79.179,79.179,0,0,1-6.763,27.671c-6.224,1.345-9.763,8.592-16.983,7.759-3.8-6.73-3.114-13.6-.626-20.522Q30.466-169.581,35.113-173.373Z" transform="translate(35.595 568.872)" fill="#fb6f7c" fill-rule="evenodd"/>
    <path id="Path_3104" data-name="Path 3104" d="M41.457-205.756q.474,7.579.942,15.159c.327,5.173,5.761,12.3-5.053,13.22q-1.16-.245-2.32-.474c-.294-2.559-.6-5.118-.9-7.683C40.678-190.788,33.529-201,41.457-205.756Z" transform="translate(81.609 457.46)" fill="#fedc45" fill-rule="evenodd"/>
    <path id="Path_3105" data-name="Path 3105" d="M34.719-189.752c5.646-2.891,3.9-8.608,5.047-13.22,3.9,5.467,3.349,11.69,3.033,17.876C39.434-185.488,36.32-186.3,34.719-189.752Z" transform="translate(84.236 469.835)" fill="#f3d972" fill-rule="evenodd"/>
    <path id="Path_3106" data-name="Path 3106" d="M31-177.552q.319,10.266.626,20.527v28.308c-1.192.049-2.39.1-3.583.142q-.547-12.153-1.094-24.306c-.746-7.062,3.376-15.093-4.138-20.821-.757-3.474.681-4.808,4.105-4.2Q28.955-177.7,31-177.552Z" transform="translate(30.417 580.641)" fill="#feb7c1" fill-rule="evenodd"/>
    <path id="Path_3107" data-name="Path 3107" d="M29.846-165.1q-2.05,2.1-4.1,4.2a11.811,11.811,0,0,1-3.8.789l4.263-20.81C31.893-176.675,29.65-170.609,29.846-165.1Z" transform="translate(27.484 567.846)" fill="#fefcfd" fill-rule="evenodd"/>
  </g>
</svg>
