<svg xmlns="http://www.w3.org/2000/svg" width="271.151" height="814.339" viewBox="0 0 271.151 814.339">
  <g id="Group_1189" data-name="Group 1189" transform="translate(0 0)">
    <g id="Group_1188" data-name="Group 1188" transform="translate(0)">
      <path id="Path_3145" data-name="Path 3145" d="M206.611-362.453s-36.965,102.4-4.448,180.641,133.253-1.192,128.854-33.835-9.545-56.382,18.442-59.4-22.341-120.4-41.594-120.4S206.611-362.453,206.611-362.453Z" transform="translate(-86.589 589.466)" fill="#fe9c66" fill-rule="evenodd"/>
      <path id="Path_3146" data-name="Path 3146" d="M336.184-334.98c-3.6,31.423-7.552,63.057-17.522,92.961-24.35,73.054-14.048,147-8.837,220.938.588,8.4,5.048,17.135-2.608,24.633-7.236,4.214-13.688,12.3-23.3,4.7C267.959-13.077,273.4-38.978,270.8-62.517c-6.572-59.616-15.469-119.434-6.093-181.659-15.082,17.9-28.842,64.468-29.136,95.335-.523,54.721,7.841,108.811,11.712,163.222.332,4.693,2.3,9.327-1.693,13.367-5.107,7.329-11.178,10.1-19.106,4.013-6.763-4.035-8.538-10.389-9.779-17.827-8.962-53.649-22.057-106.9-26.636-160.892-5.14-60.58,6.844-121.117,11.941-181.632,1.083-12.877,9-6.991,15.093-6.626,40.668,2.4,80.857,2.853,113.755-27.208C340.469-354.795,339.788-345.168,336.184-334.98Z" transform="translate(-86.436 736.242)" fill="#5f69dc" fill-rule="evenodd"/>
      <path id="Path_3147" data-name="Path 3147" d="M262.475-418.618c27.987,7.476,40.162,27.541,45.879,54.449,4.895,23.043,4.928,47.246,15.981,68.949,5.363,10.53-3.016,16.786-9.708,21.4-34.962,24.066-72.984,28.662-112.8,14.374-8.151-2.924-18.774-6.316-6.115-19.569,15.246-15.954,6.828-35.49,2.162-53.839-7.449-29.321-10.759-57.989,16.907-79.986,7.558-.577,15.42.071,21.736-5.439a11.637,11.637,0,0,1,2.951-.06C247.164-415.863,254.8-418.482,262.475-418.618Z" transform="translate(-81.802 486.46)" fill="#fc6b78" fill-rule="evenodd"/>
      <path id="Path_3148" data-name="Path 3148" d="M170.012-266.142c2.864-10.525,15.333-15.344,10.182-26.86-1.236-2.772.724-5.195,3.18-4.911,22.351,2.586,31.526-17.424,46.952-26.718,15.877-9.567,24.431-22.329,22.7-40.951-1.067-11.445,4.824-12.033,14.173-12.279,12.839-.332,9.643,8.347,9.273,14.451-1.557,25.613-9.071,47.158-35.141,59.453-15.513,7.318-28.956,19.09-43.184,29.076C190.338-269.4,182.72-263.811,170.012-266.142Z" transform="translate(-170.012 667.582)" fill="#fed7cc" fill-rule="evenodd"/>
      <path id="Path_3149" data-name="Path 3149" d="M223.965-286.491q-2.662-13.721-5.32-27.443c-4.628-10.481-3.474-21.638-4.4-32.642-1.394-16.645,4.966-25.439,22.841-26.756C240.191-343.009,239.652-313.7,223.965-286.491Z" transform="translate(25.782 687.752)" fill="#fdd6cc" fill-rule="evenodd"/>
      <path id="Path_3150" data-name="Path 3150" d="M224.162-364.273c-3.7,15.97-10.046,21.415-21.742,5.439-3.218-18.54-6.806-37.031-9.441-55.652-.844-5.946-.615-14.309,6.42-15.992,8.265-1.977,8.674,6.588,11.031,12.213C217.683-400.923,215.1-381.12,224.162-364.273Z" transform="translate(-69.45 432.453)" fill="#646cdc" fill-rule="evenodd"/>
      <path id="Path_3151" data-name="Path 3151" d="M221.978-363.236c-7.492,14.554-15.131,17.146-23.01.278,3.583-18.333,7.018-36.7,10.857-54.977,1.2-5.739,1.753-14.162,9.8-13.041,6.7.931,5.211,8.87,5.053,13.977C224.1-399.069,222.926-381.155,221.978-363.236Z" transform="translate(-41.305 431.078)" fill="#636ede" fill-rule="evenodd"/>
      <path id="Path_3152" data-name="Path 3152" d="M252.329-274.42c2.837,19.259-5.374,22.945-21.246,14.663A96.256,96.256,0,0,1,213.5-271.468c-5.761-4.89-15.611-10.857-11.276-18.4,5.113-8.9,13.792,1.71,21.126,1.633C234.666-287.117,246.476-287,252.329-274.42Z" transform="translate(-31.609 1042.913)" fill="#fc727e" fill-rule="evenodd"/>
      <path id="Path_3153" data-name="Path 3153" d="M241.14-271.439c.12,6.675,7.547,13.841.169,19.863-7.95,6.5-15.126-.272-21.448-4.018-12.725-7.541-24.47-16.5-30.029-31.858,12.082-5.336,18.142,6.125,27.127,7.008C225.436-278.561,234.872-279.263,241.14-271.439Z" transform="translate(-81.914 1063.21)" fill="#fc727f" fill-rule="evenodd"/>
      <path id="Path_3154" data-name="Path 3154" d="M218.995-262.985c-9.273.245-17.745-1.65-24.181-9.011,5.9-3.479,4.993-9.273,5-14.756q9.556-2.009,19.112-4.013Q218.954-276.88,218.995-262.985Z" transform="translate(-59.769 1054.756)" fill="#fdd9ce" fill-rule="evenodd"/>
      <path id="Path_3155" data-name="Path 3155" d="M234.2-266.509c-8.657-6.7-21.42-4.813-28.978-13.819,4.209-2.091,5.592-5.782,5.728-10.177q11.663-2.352,23.315-4.7C226.675-285.658,233.878-276.076,234.2-266.509Z" transform="translate(-13.484 1035.002)" fill="#feded2" fill-rule="evenodd"/>
    </g>
    <path id="Path_3156" data-name="Path 3156" d="M217.689-392.046,184-297.235l30.919,25.785,31.873-71.75Z" transform="translate(-107.841 604.57)" fill="#fe9c66" fill-rule="evenodd"/>
  </g>
</svg>
