<svg xmlns="http://www.w3.org/2000/svg" width="245.052" height="795.906" viewBox="0 0 245.052 795.906">
  <g id="Group_1190" data-name="Group 1190" transform="translate(0 0)">
    <path id="Path_3157" data-name="Path 3157" d="M200.3-224.95S185.274-123.136,174.836-82.511,292.19-65.082,286.544-80.317s8.685-138.981,0-140.936S270.3-232.4,265.635-226.442s2.26,35.533-11.538,40.9-49.875-19.771-42.351-31.1S201.968-235.976,200.3-224.95Z" transform="translate(-119.888 383.648)" fill="#fe8e50" fill-rule="evenodd"/>
    <path id="Path_3158" data-name="Path 3158" d="M182.269,169.673c-5.434-17.865,4.487-33.78,6.757-50.654,4.487-33.29,11.75-66.216,15.992-99.528,4.955-38.915-2.929-75.51-20.859-110.929-14.783-29.217-23.135-60.5-1.476-91.241,29.37-7.068,57.286,2.989,85.67,7.362,6.7,1.034,13.934,5.848,19.89,1.056,7.77-6.251-7.824-10.667-2.761-17.631,24.3-16.057,24.976-16.193,30.851,12.785,4.372,21.529,6.7,43.478,9.926,65.23,6.561,8.069,5.663,17.712,5.794,27.148.158,4.067.577,8.135.142,12.2,1.116,37.592-3.5,74.786-8.01,111.964-1.078,8.913-1.655,18.584-10.427,24.464-9.207,32.86-16.923,66.33-38.79,93.952-13.95,6.561-24.312,1.77-32.4-10.225,11.973-45.149,32.109-87.919,39.214-134.479,5.962-39.029-.849-76.016-18.295-115.394-9.376,15.338-7.3,29.147-6.959,41.964a559.36,559.36,0,0,1-36.3,214.421c-2.744,7.253-5.064,14.456-10.062,20.489C199.927,180.568,190.693,178.919,182.269,169.673Z" transform="translate(-140.847 505.828)" fill="#fbfbfd" fill-rule="evenodd"/>
    <path id="Path_3159" data-name="Path 3159" d="M308.885-69.861c6.98,5.548,21.458,7,14.217,20.908-5.527,10.6-15.97,7.095-24.529,3.8C268.75-56.625,236.489-53,206.084-60.649c-42.182-7.873-48.732-15.447-36.062-55.01a451.422,451.422,0,0,1,46.358-99.914c4.476-7.231,9.458-17.217,21.17-13.977,12.208,3.381,8.979,14.1,9.964,22.983,3.4,30.649-17.429,51.569-30.573,75.254-16.057,28.934-17.015,28.488,13.569,43.3,6.882,3.338,14.217,5.755,21.11,9.088,14.108,6.822,25.237,4.655,32.7-9.953,3.1-2.75,6.1-2.75,9.006.31C285.956-71.887,294.967-68.832,308.885-69.861Z" transform="translate(-164.249 383.799)" fill="#fed6cb" fill-rule="evenodd"/>
    <path id="Path_3160" data-name="Path 3160" d="M276.669-195.994c-6.147,13.787-8.282,29.816-23.255,38.539-5.968,3.479-5.864,8.821.2,12.73,15.736,10.149,10.253,24.192,4.65,35.92-4.22,8.837-39.906,10.04-47.638,1.982-11.118-11.587-14.211-25.646-1.23-37.9,7.345-6.926.789-8.434-2.2-11.93-3.049-11.162-12.7-16.4-20.544-23.408-10.215-9.12-15.687-19.2-2.113-30.252a18.039,18.039,0,0,1,5.543-1.628c5.538-.114,8.1-3.833,9.948-8.456,7.7-16.857,21.693-25.33,39.138-28.03,20.386-3.158,34.6,8.505,39.378,31.042C277.834-210.26,280.241-202.866,276.669-195.994Z" transform="translate(-110.008 300.411)" fill="#fed6cb" fill-rule="evenodd"/>
    <path id="Path_3161" data-name="Path 3161" d="M226.024,5.292c16.961-27.312,5.211-53.044-5.064-78.407-6.044-14.908-14.516-28.825-21.306-43.456-2.853-6.142-7.111-13.7-5.723-19.4,6.529-26.805,7.579-53.126-.1-79.844-1.307-4.541-1.949-11.745,5.222-13.395,7.443-1.715,10.988,3.975,13.607,9.79,5.4,11.99,10.579,24.426,8.44,37.717-8.418,52.1,19.248,96.626,30.873,144.356C255.29-23.735,257.5-12.339,253.455.539c-4.487,11.462-1.3,24.344-6.583,35.67a7.477,7.477,0,0,1-5.565,3.125c-4.819-1.171-7.133-4.612-8.265-9.115C234.877,20.756,229.307,13.345,226.024,5.292Z" transform="translate(-36.423 386.725)" fill="#fed7cc" fill-rule="evenodd"/>
    <path id="Path_3162" data-name="Path 3162" d="M235.9-174.593c2.722,28.542,5.641,57.063,8.053,85.627a231.361,231.361,0,0,1,.414,29.724c-.408,9.126,11.228,21.35-1.143,26.6-12.148,5.156-26.751,12.845-40.75,1.889-5.309-44.262.147-87.99,6.5-131.647C216.2-170.221,227.513-169.17,235.9-174.593Z" transform="translate(-3.882 630.871)" fill="#feb0da" fill-rule="evenodd"/>
    <path id="Path_3163" data-name="Path 3163" d="M201.316-166.809c-12.322,10.449-9.518,20.233,3.18,26.522,11.44,5.668,17.239,12.894,15.469,25.646-34.635-21.616-45.666-44.246-37.956-82.126,2.118-10.416-2.216-17.456-6-25.684-5.162-11.206-1.77-21.257,6.986-28.945,9.011-7.917,21.769-10.046,29.2-1.492,11.233,12.937,25.074,14.217,39.7,16.52,9.109,1.438,17.669,4.748,22.433,13.748-9.948,6.681-22.395-.877-32.354,5.744-8.51,2.287-15.208,6.768-18.649,15.229-3.844,5.723-7.552,11.56-10.846,17.647C207.834-178.869,206.571-171.535,201.316-166.809Z" transform="translate(-122.787 258.392)" fill="#936760" fill-rule="evenodd"/>
    <path id="Path_3164" data-name="Path 3164" d="M235.963-138.8c-7.683,33.432-8.086,67.539-9.844,101.559-.577,11.053,4.6,23.114-4.427,33.089Q208.845-20.336,196-36.532c8.162-45.808,10.645-92.117,12.512-138.486,6.676-.147,13.629.664,18.469-5.559a29.2,29.2,0,0,0,3.6.947c3.071,2.178,4.247,5.331,4.634,8.9.223,5.908-1.987,11.031-5.129,15.839-9.942,7.95-3.365,20.309-8.314,25.793,1.5-3.692,1.971-11.385,3.969-18.867C233.1-149.318,236.154-145.86,235.963-138.8Z" transform="translate(-23.102 604.273)" fill="#f981b7" fill-rule="evenodd"/>
    <path id="Path_3165" data-name="Path 3165" d="M214.4-122.382c12.131,11.543,24.611,22.749,36.236,34.777,5.053,5.233,11.374,11.864,6.534,20.037-4.65,7.852-13.307,10.236-21.949,9.442-18.137-1.655-31.455-11.652-39.448-27.464-5.9-11.679-17.228-21.589-14.195-36.8C197.8-139.664,199.269-139.664,214.4-122.382Z" transform="translate(-89.47 805.327)" fill="#feb385" fill-rule="evenodd"/>
    <path id="Path_3166" data-name="Path 3166" d="M207.659-121.8c6.578,19.237,5.794,39.138,4.977,58.968-.392,9.594-3.354,18.992-14.233,20.849-11.483,1.955-19.117-5.39-22.727-15.262-7.846-21.442-7.155-43.276-.3-64.969C186.239-129.95,197-130.287,207.659-121.8Z" transform="translate(-138.632 837.571)" fill="#feb384" fill-rule="evenodd"/>
    <path id="Path_3167" data-name="Path 3167" d="M183.313-216.279c-2.521-8.9,5.559-12.322,9.289-17.985,7-6.762,14.8-12.24,24.181-15.2,10.765-4.841,21.012-.654,31.363,1.791,14.331,10.4,21.916,23.713,18.137,41.942-1.459,2.1-2.723,2.1-3.768-.343-3.811-16.433-15.72-24.54-31.031-25.112-21.083-.789-35.229,11.418-44.333,29.827-4.546,1.045-6.131-1.9-7.3-5.418A10.884,10.884,0,0,1,183.313-216.279Z" transform="translate(-95.299 288.157)" fill="#936760" fill-rule="evenodd"/>
    <path id="Path_3168" data-name="Path 3168" d="M203.284-94.06q-16.139-.2-32.288-.414c4.634-12.926,5.467-26.3,4.677-39.857,9,3.833,18.458,3.381,27.905,2.957Q203.431-112.72,203.284-94.06Z" transform="translate(-134.257 809.833)" fill="#fdd6cc" fill-rule="evenodd"/>
    <path id="Path_3169" data-name="Path 3169" d="M213.987-107.25c-10.939-9.9-21.878-9.844-32.822-.005,1.263-11.091,10.846-19.645,9.61-31.493,9.812,6.561,20.838,9.235,32.4,10.236C222.753-120.28,213.138-116.022,213.987-107.25Z" transform="translate(-89.056 790.195)" fill="#f9d5cd" fill-rule="evenodd"/>
    <path id="Path_3170" data-name="Path 3170" d="M202.839-162.606q2.54-7.424,5.086-14.837c4.062-3.027,7.628-1.759,11.01,1.241,3.49,3.692,3.294,9.583,7.623,12.79q2.7,4.6,5.4,9.2c-3.191,9.725-6.724,18.736-19.155,9.191l-9.044-9.311C200.34-156.742,200.71-159.579,202.839-162.606Z" transform="translate(0.057 610.489)" fill="#ef4e90" fill-rule="evenodd"/>
    <path id="Path_3171" data-name="Path 3171" d="M212.917-136.912q-5.039-2.3-10.062-4.579-.245-4.206-.5-8.4c2.8-12.556-5.881-28.052,9.55-37.374q2.344,6.918,4.688,13.841C217.926-161,224.531-148.036,212.917-136.912Z" transform="translate(5.127 574.536)" fill="#fefcfd" fill-rule="evenodd"/>
    <path id="Path_3172" data-name="Path 3172" d="M202.488-186.342c10.313,4.944,20.173,10.062,9,23.31-2.733,5.6-6.6,8.657-13.1,5.87q-.049-14.62-.093-29.245Z" transform="translate(-12.888 578.359)" fill="#fee7f1" fill-rule="evenodd"/>
    <path id="Path_3173" data-name="Path 3173" d="M222.74-244.255q-15.853.539-31.711,1.073c-5,2.058-6-.425-5.4-4.737,11.755-6.583,23.74-5.184,35.806-1.051C221.868-247.4,222.3-245.829,222.74-244.255Z" transform="translate(-69.898 284.738)" fill="#f6b185" fill-rule="evenodd"/>
    <path id="Path_3174" data-name="Path 3174" d="M199.772-192.931q-4.508-.155-9.006-.3c-.73-3.392-7.982-5.325-4.557-8.434,7.568-6.866,16.3-6.9,23.92,1.116C206.725-198.055,203.246-195.49,199.772-192.931Z" transform="translate(-70.698 488.16)" fill="#f2f3f9" fill-rule="evenodd"/>
    <path id="Path_3175" data-name="Path 3175" d="M204.294-148.211c7.574-11.532,1.944-24.393,3.675-36.514,9.6,14.473,2.314,30.747,4.9,45.966A14.919,14.919,0,0,1,204.294-148.211Z" transform="translate(13.75 585.835)" fill="#fdd3e6" fill-rule="evenodd"/>
    <path id="Path_3176" data-name="Path 3176" d="M195.417-243.317a36.256,36.256,0,0,1,3.768.343c-.147,7.59,2.82,15.79-4.329,22Q195.142-232.149,195.417-243.317Z" transform="translate(-28.201 325.399)" fill="#8e93ee" fill-rule="evenodd"/>
    <path id="Path_3177" data-name="Path 3177" d="M198.394-176.244q6.542-2.94,13.1-5.87,2.638,4.182,5.276,8.369c-1.2,5.521,1,13.917-5.619,15.208-3.523.681-8.516-6.191-12.845-9.648Q198.35-172.221,198.394-176.244Z" transform="translate(-12.888 597.441)" fill="#f15695" fill-rule="evenodd"/>
    <path id="Path_3178" data-name="Path 3178" d="M228.784-187.806c-16.1,7.748-32.016,8.646-47.621-1.623C196.959-186.146,212.814-184.926,228.784-187.806Z" transform="translate(-89.065 564.927)" fill="#fbfbfd" fill-rule="evenodd"/>
    <path id="Path_3179" data-name="Path 3179" d="M188.156-245.191q-.572,4.713-1.154,9.425c-1.525,3.479.283,8.418-4.557,10.449q-1.895-.008-3.773-.169C178.976-233.43,177.489-242.234,188.156-245.191Z" transform="translate(-100.142 317.069)" fill="#fdb380" fill-rule="evenodd"/>
    <path id="Path_3180" data-name="Path 3180" d="M179.364-233.011q2.279-5.219,4.557-10.449,2.5,2.744,5,5.494C188.315-231.329,187.036-226.009,179.364-233.011Z" transform="translate(-97.061 324.763)" fill="#8682dd" fill-rule="evenodd"/>
    <path id="Path_3181" data-name="Path 3181" d="M200.55-251.63q2.7,2.36,5.39,4.737c-7.781,4.421-13.792,12.262-23.822,12.338C182.424-246.55,192.394-248.118,200.55-251.63Z" transform="translate(-84.816 288.448)" fill="#e2a794" fill-rule="evenodd"/>
    <path id="Path_3182" data-name="Path 3182" d="M207.419-176.135q.457,4.141.915,8.276c-.887,8.2.561,17.021-8.151,23.331C203.477-154.916,200.4-166.372,207.419-176.135Z" transform="translate(-4.523 624.017)" fill="#fb9ec7" fill-rule="evenodd"/>
  </g>
</svg>
