<svg xmlns="http://www.w3.org/2000/svg" width="239.71" height="696.946" viewBox="0 0 239.71 696.946">
  <g id="Group_1186" data-name="Group 1186" transform="translate(0 0)">
    <path id="Path_3108" data-name="Path 3108" d="M210-192.013c28.063,46.059,38.093,97.851,47.812,149.773,7.519,40.145,7.819,80.928,11.342,121.427,1.127,12.953-4.127,20.5-15.54,24.616-11.4,4.116-22.945,7.83-34.423,11.712-6.986,7.988-15.709,10.008-25.749,7.514q-15.069,2.181-30.132,4.367c-11.146,8.7-20.386,1.781-29.811-3.637-24.1-3.18-29.729-18.7-30.165-40.679-1.067-54.324,6.915-108.027,9.158-162.1,1.3-6.659-3.033-12.73-2.091-19.362.033-12.218-.719-24.562,5.238-35.909,1.514-2.368,3.136-5.723,5.913-5.586,31.755,1.53,48.013-19.248,62.475-42.8a21.628,21.628,0,0,1,7.558-7.269C197.509-192.519,203.379-195.683,210-192.013Z" transform="translate(-29.592 496.46)" fill="#7079f1" fill-rule="evenodd"/>
    <path id="Path_3109" data-name="Path 3109" d="M104.909-85.679c8.9-17.086,10.073-36.3,15.017-54.476,5.216-22.553.212-44.85-1.732-67.234.626-8.832,5.009-16.019,9.991-22.967a27.308,27.308,0,0,1,4.459-4.547c8.783-6.278,18.164-11.266,28.956-13.177,8.924-.316,17.952-1.4,26.2,3.43,18.959,12.61,27.181,30.682,26.021,53-1.508,28.983,8.527,56.251,11.892,84.5-3.218,6.033.082,13.073-2.94,19.15-20.037,23.587-48.944,24.453-76.131,29.778-3.381.136-6.763.082-10.149-.087a48.374,48.374,0,0,1-10.111-1.4C114.65-64.569,102.04-68.746,104.909-85.679Z" transform="translate(-23.991 253.203)" fill="#936760" fill-rule="evenodd"/>
    <path id="Path_3110" data-name="Path 3110" d="M134.9-218.521c2.3,12.894,12.921,17.053,22.939,21.84,10.944,16.727.964,32.239-2.733,48.128a48.01,48.01,0,0,1-2.3,6.724A288.163,288.163,0,0,0,137.911-30.7c-1.78,14.87-1.7,29.675,1.737,44.349.528,6.142,1.22,12.316-2.766,17.75C112.391,25.074,111.857-.6,99.116-16.422c-4.879-6.06,4.693-13.933,6.921-21.24-6.191-7.024-6.686-15.54-5.646-24.1,4.612-37.864,5.576-76.338,18.48-112.851C119.469-190.981,127.572-204.609,134.9-218.521Z" transform="translate(-53.983 386.045)" fill="#fed8cc" fill-rule="evenodd"/>
    <path id="Path_3111" data-name="Path 3111" d="M118.01-193.19c27.219-3.882,53.758-9.757,76.784-26,6.273,25.727,12.311,51.46,1.231,77.465-2.14,22.232,2.63,46.5-18.556,63.134q-8.568,2.949-17.13,5.9c-5.924-15.654,11.614-25.357,10.024-39.879-2.407-12.757-14.059-11.783-22.651-15.246-12.632-5.1-27.943-4.285-37.156-16.955C111.9-161.1,108.443-178.151,118.01-193.19Z" transform="translate(2.944 383.049)" fill="#fe9c66" fill-rule="evenodd"/>
    <path id="Path_3112" data-name="Path 3112" d="M154.6-210.458c-1.77,45.89-12.85,90.9-12.834,136.956-24.235-5.118-38.223-19.8-41.61-44.452-3.174-23.076-6.665-46.113-9.387-69.237-.566-4.862-3.545-11.516,3.969-14.674,12.452,1.459,24.459,5.053,36.677,7.65,5.3,1.133,11.015,3.844,14.647-3.1C152.454-199.389,148.7-208.051,154.6-210.458Z" transform="translate(-89.711 421.884)" fill="#fc6b78" fill-rule="evenodd"/>
    <path id="Path_3113" data-name="Path 3113" d="M163.5-111.328c.877,7.318,8.592,15.088.561,21.823-7.5,6.3-16.182,3.027-24.192-.436-10.487-4.536-21.377-8.739-28.52-18.213-3.67-4.868-9.213-10.547-4.5-17.168,4.873-6.861,11.413-3.147,17.369-.621,4.579,1.944,9.229,3.724,13.846,5.581C146.657-117.672,154.993-114.263,163.5-111.328Z" transform="translate(-21.608 782.883)" fill="#feb486" fill-rule="evenodd"/>
    <path id="Path_3114" data-name="Path 3114" d="M167.277-117.584c.49,7.171,8.271,14.516-.06,21.469-6.844,5.717-13.547.267-19.972-1.416a49.559,49.559,0,0,1-15.11-7.3c-8.592-5.919-21.006-12.8-14.581-24.393,5.761-10.389,16.041.632,24.344,2.02C150.687-124.864,158.838-120.84,167.277-117.584Z" transform="translate(26.149 763.335)" fill="#feb587" fill-rule="evenodd"/>
    <path id="Path_3115" data-name="Path 3115" d="M146.778-84.041c-11.336,5.031-19.858,2.14-25.439-9.039-3.621-14.266-5.723-28.983-12.545-42.3l29.811,3.643Q142.689-107.89,146.778-84.041Z" transform="translate(-4.888 755.595)" fill="#fceae6" fill-rule="evenodd"/>
    <path id="Path_3116" data-name="Path 3116" d="M127.258-127.191q-.613-38.738-1.231-77.47,1.993-8.9,3.98-17.8c.027,17.184,1.8,34.21,9.436,49.756C148.852-153.55,145.16-138.663,127.258-127.191Z" transform="translate(71.712 368.51)" fill="#fed3c5" fill-rule="evenodd"/>
    <path id="Path_3117" data-name="Path 3117" d="M124.974-241.133c.545,10.291.479,19.515,6.36,30,6.991,12.474-6.147,26.065-9.066,39.541-3.566-14.168-16.351-24.007-18.3-38.937,5.037-4.4,12.463-7.285,10.247-16.269.942-4.737,2.472-9.224,5.516-13.079A5.486,5.486,0,0,1,124.974-241.133Z" transform="translate(-26.339 284.638)" fill="#fad6cb" fill-rule="evenodd"/>
    <path id="Path_3118" data-name="Path 3118" d="M149.38-103.119c-11.331,4.383-19.5.419-25.379-9.616.577-6.049-1.138-11.516-4.2-16.645q12.88-3.757,25.749-7.514C145.487-125.482,144.267-113.938,149.38-103.119Z" transform="translate(44.046 748.87)" fill="#fce9e4" fill-rule="evenodd"/>
    <path id="Path_3119" data-name="Path 3119" d="M107.056-231.51c19.591-17.789,43.075-19.645,67.767-16.564-3.158,10.732-12,3.5-17.865,5.657-10.367,3.675-21.192,6.518-28.891,15.267l.354-.408c-3.409,3.06-6.387,6.763-11.26,7.71C109.708-220.185,101.736-220.1,107.056-231.51Z" transform="translate(-20.301 249.288)" fill="#a0786e" fill-rule="evenodd"/>
    <path id="Path_3120" data-name="Path 3120" d="M141.958-201.565c1.906,4.868,6.861,13.7-3.517,10.988-16.09-4.209-34.14-3.632-47.806-15.54C108.7-215.422,124.812-202.714,141.958-201.565Z" transform="translate(-85.607 426.135)" fill="#f34b5f" fill-rule="evenodd"/>
    <path id="Path_3121" data-name="Path 3121" d="M121.692-221.079c3.2,12.115,4.977,23.135-14,18.083-5.951-13.237-6.229-26.468.038-39.693,6.583-1.759,8.3,3.675,11.129,7.492C120.652-230.673,122.057-226.05,121.692-221.079Z" transform="translate(-30.064 277.102)" fill="#996e67" fill-rule="evenodd"/>
    <path id="Path_3122" data-name="Path 3122" d="M111.816-220.089q-3.92-4.647-7.841-9.3c.991-6.654,3.076-12.719,9.088-16.634-.893,10.062,6.659,8.488,12.594,9.142,1.116,3.038-.583,4.982-2.641,6.773-3.986,2.706-2.9,8.3-6.409,11.3A4.2,4.2,0,0,1,111.816-220.089Z" transform="translate(-26.308 263.801)" fill="#e9e1dc" fill-rule="evenodd"/>
    <path id="Path_3123" data-name="Path 3123" d="M114.414-244.313c6.719-2.4,14.7.7,20.718-4.753,4.96.1,7.378,3.4,9.284,7.345q-15.077.147-30.159.294C114.31-242.391,114.365-243.354,114.414-244.313Z" transform="translate(19.39 250.275)" fill="#e6dddb" fill-rule="evenodd"/>
    <path id="Path_3124" data-name="Path 3124" d="M207.4-175.132q-8.625,19.871-17.26,39.742c-4.879,6.975-10.274,13.645-14.543,20.974-13.111,22.531-33.116,31.325-58.315,30.4-6.556,4.176-9.534-.485-12.534-5.08-3.174-39.939,2.069-78.663,16.841-116,21.671,7.416,44.343,11.206,66.063,18.469C195.086-184.127,203.134-182.956,207.4-175.132Z" transform="translate(-26.848 445.744)" fill="#fc6b77" fill-rule="evenodd"/>
    <path id="Path_3125" data-name="Path 3125" d="M104.164-183.786l12.534,5.08c-5.249,12.2-2.221,25.428-4.764,37.962C104.97-154.3,103.386-168.829,104.164-183.786Z" transform="translate(-26.269 540.439)" fill="#fefaf9" fill-rule="evenodd"/>
    <path id="Path_3126" data-name="Path 3126" d="M107.288-167.079c4.7-15.469,9.109-30.987,8.151-47.431q4.19.294,8.38.583c7.389,16.084,5.979,31.678-2.6,46.886C116.566-163.382,111.922-163.371,107.288-167.079Z" transform="translate(-11.582 403.873)" fill="#fe9b66" fill-rule="evenodd"/>
    <path id="Path_3127" data-name="Path 3127" d="M110.725-167.255c5.69-15.3,4.345-31.259,4.421-47.077q4.361-.049,8.712-.087c.517,17.157-.343,34.189-4.394,50.954.332,4.176-1.476,6.953-5.739,5.766C108.607-159.126,108.258-162.97,110.725-167.255Z" transform="translate(-2.909 404.278)" fill="#fc6c76" fill-rule="evenodd"/>
    <path id="Path_3128" data-name="Path 3128" d="M135.541-248.193c-.022.964-.076,1.922-.158,2.886-7.9,5.853-16.155,11-25.88,13.291C112.427-246.668,125.517-244.959,135.541-248.193Z" transform="translate(-1.736 254.155)" fill="#e0d4d2" fill-rule="evenodd"/>
    <path id="Path_3129" data-name="Path 3129" d="M108.906-236.274q2.45-1.919,4.895-3.844,4.394-2.589,8.772-5.178-4.737,10.879-9.485,21.769-1.789,0-3.577-.076c-.626-.708-1.247-1.416-1.873-2.113C106.308-229.446,105.938-233.056,108.906-236.274Z" transform="translate(-14.452 267.032)" fill="#ede7e6" fill-rule="evenodd"/>
    <path id="Path_3130" data-name="Path 3130" d="M120.184-205.57c.9,5.9,2.363,10.492,8.739,3.79,16.133,4.285,32.245,8.663,48.405,12.828,8.973,2.32,15.072,7.029,15.594,16.977-23.9-6.7-47.774-13.52-71.731-20.021-6.087-1.644-13.269-1.089-14.081-9.942a9.084,9.084,0,0,1,.958-3.86Q114.129-205.693,120.184-205.57Z" transform="translate(-12.368 442.593)" fill="#f13e54" fill-rule="evenodd"/>
    <path id="Path_3131" data-name="Path 3131" d="M105.415-239.7q2.556-.269,5.113-.534c1.454-1.862,2.864-1.835,4.247.071l.191.18c-.283,4.432.779,9.229-3.43,12.594Q108.472-233.547,105.415-239.7Z" transform="translate(-19.907 283.411)" fill="#f4efe8" fill-rule="evenodd"/>
    <path id="Path_3132" data-name="Path 3132" d="M113.537-231.148l-2.118.06-2.129-.131c-2.461-5.3-8.342-11.658,3.839-12.42Q113.333-237.391,113.537-231.148Z" transform="translate(-18.67 274.397)" fill="#feee8e" fill-rule="evenodd"/>
  </g>
</svg>
