<svg xmlns="http://www.w3.org/2000/svg" width="234.373" height="730.032" viewBox="0 0 234.373 730.032">
  <g id="Group_1191" data-name="Group 1191" transform="translate(0 0)">
    <path id="Path_3183" data-name="Path 3183" d="M30.129-367.245s133.8,3.332,133.929,23.277-39.372,77.2-32.424,127.76-109.7,47.714-105.659-21.676S30.129-367.245,30.129-367.245Z" transform="translate(-8.429 574.913)" fill="#fbfbfd" fill-rule="evenodd"/>
    <path id="Path_3184" data-name="Path 3184" d="M34.764-343.487c27.927,27.241,63.259,25.8,97.617,22.444,15.5-1.519,15.823,4.1,16.651,15.148,3.327,44.322,7.454,88.589,10.65,132.916,1.372,19.03-3.343,37.657-6.5,56.29-6.093,36.04-12.6,72.009-18.916,108.011-1.122,6.376-.991,13.346-8.3,16.618-5.614,3.534-11.01,3.207-16.2-.893-8.358-22.651.7-44.893,2.249-67.174,3.8-54.634,13.71-109.388-10.024-162.253-1.775-3.953-3.245-8.053-8.276-11.756,0,7.3-.3,14.62.054,21.9,3.006,61.718-7.732,122.494-12.747,183.663C80.485-22,80.681-13.394,70.69-12.028,63.856-7.683,58.727-10.3,54.344-16.013c-8.919-9.741-4.356-21.611-3.006-31.7,10.612-79.382,3.7-157.081-18.633-233.794-3.6-12.382-3.9-25.727-5.733-38.621C25.285-329.347,21-339.425,34.764-343.487Z" transform="translate(-12.328 680.515)" fill="#fe8e50" fill-rule="evenodd"/>
    <path id="Path_3185" data-name="Path 3185" d="M150.147-332.814c-1.819,29.816-7.775,59.328,2.3,89.373,5.532,16.5-16.727,39.23-35.588,34.319-27.094-7.068-55.87-5.652-81.794-17.375-12.028-4.258-10.792-13.536-8.761-23.119,6.833-33.105,13.03-66.357,20.767-99.25,3.752-15.959,5.919-34.3,26.593-39.4C79.286-391.924,85.6-392.838,92.12-393a53.193,53.193,0,0,1,24.181,4.993c6.082,3.234,12.311,6.234,18.224,9.823a32.148,32.148,0,0,1,10.068,10.874C151.426-356.613,152.793-345.038,150.147-332.814Z" transform="translate(-12.3 460.409)" fill="#956c6c" fill-rule="evenodd"/>
    <path id="Path_3186" data-name="Path 3186" d="M71.232-363.42C69.8-331.033,77.7-299.3,75.087-267.1c-.708,8.728,2.619,15.54,9.207,20.609,16.7,12.845,27.285,34.608,53.306,34.668,3.327.005,2.461,17.1,10.6,23.331.4.31-.675,4.116-1.8,4.6-6.98,3.044-13.542-.1-18.126-4.389-15.518-14.511-34.886-23.146-51.814-35.43-14.124-10.247-21.807-23.038-21.426-41.632.327-15.5-2.5-31.221-5.352-46.581C45.679-333.467,42.63-353.919,71.232-363.42Z" transform="translate(86.085 591.915)" fill="#fed7cc" fill-rule="evenodd"/>
    <path id="Path_3187" data-name="Path 3187" d="M69.142-328.792q-11.712-2.173-23.435-4.34C42-336,32.16-334.172,37.464-343.924c-1.29-15.839,2.031-31.27,4.214-46.788.871-6.229.9-15.218,9.251-14.647,6.937.479,6.207,8.848,6.251,14.652.12,15.447.044,30.894.044,51.52,12.7-16.874,14.6-32.915,22.389-45.983,3.1-5.205,4.982-14.576,13.046-10.955,6.817,3.06,3.7,11.445,2.771,17.876-2,13.933-14.974,24.959-10.661,40.526-.626,3.768-3.648,5.5-6.349,7.519C75.475-328.814,72.654-326.489,69.142-328.792Z" transform="translate(36.269 405.385)" fill="#fdb4dd" fill-rule="evenodd"/>
    <path id="Path_3188" data-name="Path 3188" d="M36.676-366.671c-.866,9.142,2.761,16.58,8.761,23.119,10.454,34.406-4.274,68.726-.332,103.116-7.2,6.251-5.826,15.355-7.792,23.359C17.575-250.215,21.718-285.955,27.24-321.309,29.613-336.468,29.575-352.4,36.676-366.671Z" transform="translate(-22.668 577.464)" fill="#fed7cc" fill-rule="evenodd"/>
    <path id="Path_3189" data-name="Path 3189" d="M52.5-275.265c8.309-.686,18.66-12.12,23.691-2.7,3.643,6.833-9.7,13.133-15.779,19.4a16.568,16.568,0,0,1-4.857,3.131c-6.806,3.2-13.542,10.236-21.306,5.614-9.463-5.63-.267-13.95-.909-21.045C38.967-275.6,46.263-273.136,52.5-275.265Z" transform="translate(9.67 955.296)" fill="#f885b9" fill-rule="evenodd"/>
    <path id="Path_3190" data-name="Path 3190" d="M64.152-270.006c7.095-2.27,12.627-9.327,21.3-7.165-3.321,13.879-22.183,33.688-34.357,33.726-18.349.071-9.627-11.4-7.149-19.83C49.717-268.41,57.188-268.454,64.152-270.006Z" transform="translate(53.031 973.477)" fill="#f884b9" fill-rule="evenodd"/>
    <path id="Path_3191" data-name="Path 3191" d="M60.681-263.2c-5.532,5.848-12.061,8.712-20.2,6.735q.221-11.336.463-22.645,8.094.441,16.2.888C57.212-272.951,54.985-267.141,60.681-263.2Z" transform="translate(56.502 966.67)" fill="#fed5cd" fill-rule="evenodd"/>
    <path id="Path_3192" data-name="Path 3192" d="M43.414-387.828c1.791-3.528,4.955-4.742,8.608-5.129,10.122,7,16.161,16.3,16.324,28.929-4.846,2.178-6.463-2.369-9.267-4.443q-3.4-3.528-6.8-7.051C49.044-379.415,42.33-380.815,43.414-387.828Z" transform="translate(69.021 460.625)" fill="#9b7172" fill-rule="evenodd"/>
    <path id="Path_3193" data-name="Path 3193" d="M50.537-267.815c-5.412,5.728-11.483,8.592-19.166,4.4q-.49-9.956-.986-19.928l16.346,3.986C46.627-275.062,46.143-270.63,50.537-267.815Z" transform="translate(11.631 947.846)" fill="#fed9cf" fill-rule="evenodd"/>
    <path id="Path_3194" data-name="Path 3194" d="M46.2-388.46q4.631,2.222,9.267,4.443c5.744,10.253,4.841,20.6.474,31C57.085-366.038,51.95-377.336,46.2-388.46Z" transform="translate(81.905 480.614)" fill="#f3aad0" fill-rule="evenodd"/>
    <path id="Path_3195" data-name="Path 3195" d="M46.3-394.1c-.61,6.158,5.145,7.46,8.244,10.792q-10.307-.057-20.609-.109C34.255-391.386,41.137-391.75,46.3-394.1Z" transform="translate(27.428 455.558)" fill="#bf949e" fill-rule="evenodd"/>
    <path id="Path_3196" data-name="Path 3196" d="M49.052-392.015l8.87,12.3a34.694,34.694,0,0,1-15.894-8.5Q45.54-390.115,49.052-392.015Z" transform="translate(63.383 464.812)" fill="#f9afd6" fill-rule="evenodd"/>
  </g>
</svg>
