<svg xmlns="http://www.w3.org/2000/svg" width="219.758" height="674.288" viewBox="0 0 219.758 674.288">
  <g id="Group_1193" data-name="Group 1193" transform="translate(0 0)">
    <path id="Path_3218" data-name="Path 3218" d="M124.276-384.125s72,34.4,82.877,79.714c14.315,59.665-30.84,38.109-25.1,87.8s-80.6,44.175-77.253-24.028S124.276-384.125,124.276-384.125Z" transform="translate(-16.634 479.777)" fill="#fbfbfd" fill-rule="evenodd"/>
    <path id="Path_3219" data-name="Path 3219" d="M203.62-139.277,201.8-139.7l-1.857.114c-17.734,4.693-31.5-1.819-42.841-15.164-24.578-16.482-48.318-33.7-63.156-60.509-6.779-12.246-7.612-22.721-.093-35.713,17.925-30.976,34.031-63,50.872-94.589,4.024-2.57,7.481-1.416,10.672,1.579,8.211,14.195,20.32,17.38,35.855,14.113,15.67-3.289,30.78-7.465,44.926-15.246,5.363-2.951,12.137-9.714,17.456.735,17.3,50.545,33.933,101.325,52.3,151.472,5.189,14.168,1.808,20.435-10.3,27.219C279.8-156.8,263.057-150.357,246.4-143.54,232.919-134.235,218.888-130.559,203.62-139.277Z" transform="translate(-88.535 631.466)" fill="#fe9b5b" fill-rule="evenodd"/>
    <path id="Path_3220" data-name="Path 3220" d="M105.875-367.322c7.329-22.667,24.388-34.531,49.385-34.368,24.981.174,44.36,12.844,48.623,35.659,7.144,38.311,5.565,77.084-2.3,115.106-4.307,20.827-32.484,26.419-48.678,11.462-4.242-3.921-3.272-7.634-2.221-12.153,2.325-10.008,4.285-20.1,6.4-30.154-2.6-8.516.708-16.248,3.158-24.1,2.477-10.2,11.919-16.558,15.583-28.041-12.943-1.421-25.45-.577-37.363-5.657-11.331-4.83-17.527-17.56-30.829-18.594C103.784-360.593,103.643-363.729,105.875-367.322Z" transform="translate(-17.938 401.692)" fill="#936760" fill-rule="evenodd"/>
    <path id="Path_3221" data-name="Path 3221" d="M135.427-270.957q-4.378-2.075-8.755-4.154c-1.949-4.4-5.614-6.556-10.046-7.7-7-7.569-19.351-8.3-24.028-18.812q.286-30.783.583-61.571c1.884-1.938,4.514-3.414,6.773-2.216,24.856,13.231,52.446,22.281,70.773,45.677,5.908,16.993,6.147,34.368,3.409,51.906-1.879,6.469-6.479,6.871-11.837,5C153.449-265.91,143.953-266.846,135.427-270.957Z" transform="translate(-70.478 561.02)" fill="#d0a76c" fill-rule="evenodd"/>
    <path id="Path_3222" data-name="Path 3222" d="M109.671-307.818q21.39-2.131,42.775-4.263c-3.675,41.686-6.714,83.449-11.538,125-1.04,8.941,9.741,18.322-1.225,26.435-12.469,8.478-16.008,7.2-22.063-7.966,10.307-24.878-2.02-49.424-1.454-74.269C116.662-264.465,112.034-286.169,109.671-307.818Z" transform="translate(5.414 800.007)" fill="#fed6cb" fill-rule="evenodd"/>
    <path id="Path_3223" data-name="Path 3223" d="M101.128-314.139a158.886,158.886,0,0,0,42.841,15.164c-6.741,26.2-3.839,53.306-7.53,79.833-2.221,15.948-2.271,32.2-3.3,48.313-10.933,10.166-19.852,6.643-27.7-4.089,7.715-5.777,8.385-13.912,7.519-22.537Q107.049-255.794,101.128-314.139Z" transform="translate(-32.559 790.859)" fill="#fed6cc" fill-rule="evenodd"/>
    <path id="Path_3224" data-name="Path 3224" d="M100.463-272.525c13.269-5.614,23.3,3.79,34.564,7.443,12.654-14.358,30.078-22.444,44.817-34.063.9-.114,1.8-.229,2.7-.338,10.307-15.442,11.135-33.677,14.854-51.03,1.949-9.12,5.314-15.148,16.286-14.979,11.745.174,16.346,3.065,12.817,16.062-6.882,25.308-16.384,49.592-25.88,73.931-4.432-3.724-7.808-1.361-11.843,1.318-17.467,11.614-37.249,17.135-57.771,19.259C117.375-253.511,103.381-254.121,100.463-272.525Z" transform="translate(-35.514 562.588)" fill="#fed6cc" fill-rule="evenodd"/>
    <path id="Path_3225" data-name="Path 3225" d="M166.068-310.209c-23.152-16.286-47.039-31.276-73.365-42.013,4.1-10.187,15.235-10.492,22.6-16.1C126.129-350.806,144.7-343.652,161.331-334c14.467.158,22.2-11.026,31.9-18.845,19.493,8.875,26.441,23.941,23.217,44.855-1.056,6.828.31,14.032.583,21.061l-1.476.06c-12-5.107-7.345-15.964-7.824-24.529-.61-10.928-3.479-13.814-13.781-7.993C185.43-314.576,177.415-306.92,166.068-310.209Z" transform="translate(-70.007 550.043)" fill="#e0d1b4" fill-rule="evenodd"/>
    <path id="Path_3226" data-name="Path 3226" d="M143.61-307.459c-13.443-7.449-26.756-15.131-40.369-22.259-7.541-3.948-5.494-10.819-6.387-16.9q.425-13.174.855-26.343c16.961-2.249,41.011,11.826,50.371,29.451C148.924-331.2,152.169-318.589,143.61-307.459Z" transform="translate(-51.556 528.345)" fill="#d0a86d" fill-rule="evenodd"/>
    <path id="Path_3227" data-name="Path 3227" d="M143.227-332.494a145.9,145.9,0,0,0-46.216-26.1c13.237-18.834,30.41-22.117,50.757-12.855,9.18,1.105,15.981,6.431,22.292,12.616q1.829,5.709,3.664,11.418C164.713-340.084,157.052-330,143.227-332.494Z" transform="translate(-50.858 513.969)" fill="#e0d1b3" fill-rule="evenodd"/>
    <path id="Path_3228" data-name="Path 3228" d="M137.4-318.39c-10.3.849-16.155-6.131-22.3-12.616-3.022-13.558-9.883-26.239-9.333-40.619-1.1-5.009-3.528-10.264,2.63-13.906,12.251,5.4,25.2,9.474,35.555,18.556,2.641,11.146-1.8,21.834-2.1,32.789C140.8-328.795,142-322.773,137.4-318.39Z" transform="translate(-18.195 473.528)" fill="#92665f" fill-rule="evenodd"/>
    <path id="Path_3229" data-name="Path 3229" d="M105.757-356.184c11.026-3.223,18.311-14.081,30.5-14.919q.18,15.322.359,30.638c-3.545,16.9-16.792,21.039-31.172,23.685Q105.6-336.479,105.757-356.184Z" transform="translate(-13.388 537.659)" fill="#d5b988" fill-rule="evenodd"/>
    <path id="Path_3230" data-name="Path 3230" d="M142-284.859c-1.857,8.739-9.093,13.591-14.538,19.64-7.029,7.813-17.064,12.077-25.46,5.619-9.169-7.04,1.579-14.44,3.893-21.644,8.538-2.091,18.872,7.922,25.972-3.871C135.283-286.711,138.7-288.028,142-284.859Z" transform="translate(-44.885 912.399)" fill="#fa9699" fill-rule="evenodd"/>
    <path id="Path_3231" data-name="Path 3231" d="M137.973-267.616a6.739,6.739,0,0,1-.893,1.677c-7.536,7.541-16.759,14.8-26.4,6.7-9.452-7.944,1.127-15.779,4.449-23.353,10.133-1.808,15.839,6.539,23.577,10.258A3.486,3.486,0,0,1,137.973-267.616Z" transform="translate(-7.163 929.97)" fill="#fa9699" fill-rule="evenodd"/>
    <path id="Path_3232" data-name="Path 3232" d="M112.131-340.436q-.547-17.315-1.084-34.635c6.213-7.6,13.852-10.961,23.626-7.966q-3.528,11.589-7.062,23.179C110.976-362.537,118.071-346.284,112.131-340.436Z" transform="translate(11.531 479.778)" fill="#f0c7c1" fill-rule="evenodd"/>
    <path id="Path_3233" data-name="Path 3233" d="M94.6-354.053c10.411,3.2,20.266,7.117,24.023,18.812C91.548-333.765,88.945-335.807,94.6-354.053Z" transform="translate(-72.484 613.445)" fill="#fbd5c8" fill-rule="evenodd"/>
    <path id="Path_3234" data-name="Path 3234" d="M131.052-265.4c-10.509,2.8-15.028-7.258-22.689-10.563a10.508,10.508,0,0,1,7.111-8.374C134.831-283.595,137.613-280.219,131.052-265.4Z" transform="translate(-0.4 923.336)" fill="#fed3c9" fill-rule="evenodd"/>
    <path id="Path_3235" data-name="Path 3235" d="M126.773-277.322c-9.158,19.5-18.028.773-27.034-.2q4.035-3.937,8.075-7.862C117.805-291.337,122.3-284.351,126.773-277.322Z" transform="translate(-38.733 908.683)" fill="#fed4c9" fill-rule="evenodd"/>
    <path id="Path_3236" data-name="Path 3236" d="M125.242-259.188c5.309-14.952-5.238-16.857-15.572-18.937q3.969-3.8,7.955-7.607c5.685,7.285,11.554,14.081,22.068,7.96-.479,10.329-7.035,16.885-14.293,22.994Q125.319-256.983,125.242-259.188Z" transform="translate(5.41 917.126)" fill="#fba3a4" fill-rule="evenodd"/>
    <path id="Path_3237" data-name="Path 3237" d="M108.2-395.38q1.535,3.961,3.087,7.928c3.049,11.631,8.01,23.288-.446,34.777a5.217,5.217,0,0,1-5.347.359C105.818-366.7,100.242-381.468,108.2-395.38Z" transform="translate(-20.261 429.75)" fill="#a57e78" fill-rule="evenodd"/>
    <path id="Path_3238" data-name="Path 3238" d="M120.186-273.146c-5.875-3.746-10.95-9.36-18.965-8.064q1.9-3.684,3.8-7.362c9.06,2.526,17.326,10.438,27.7,4.095q-1.74,3.749-3.474,7.509C125.669-277.033,122.228-276.75,120.186-273.146Z" transform="translate(-32.145 904.507)" fill="#fba7a6" fill-rule="evenodd"/>
    <path id="Path_3239" data-name="Path 3239" d="M105.13-387.471h1.846c5.058,2.564,7.389,6.125,4.307,11.685-4.209,3.381-2.684,8.467-3.811,12.779C102.9-370.793,103.616-379.1,105.13-387.471Z" transform="translate(-19.899 464.905)" fill="#a0766f" fill-rule="evenodd"/>
    <path id="Path_3240" data-name="Path 3240" d="M108.829-341.957q-2.148-5.848-4.3-11.685c11.184-10.6-4.345-24.208,3.942-35.136,2.733-8.646,4.7-7.792,10.585-1.116,13.879,15.752,30.1,27.666,53.088,18.115,3.354-1.394,6.278-.7,8.45,2.222,3.659,4.938,2.63,10.068-1.094,14.01-6.131,6.5-12.218,12.9-15.85,21.213q-11.81,3.986-23.626,7.966C127.043-326.39,116.441-331.181,108.829-341.957Z" transform="translate(-17.446 431.075)" fill="#fdd6cb" fill-rule="evenodd"/>
    <path id="Path_3241" data-name="Path 3241" d="M106.177-340.095q15.069-8.1,30.154-16.2c4.307-2.314,8.565-7.449,13.569-4.3,4.873,3.066,1.927,9.355,2.6,14.2,1.372,9.855-3.147,20.337,3.169,29.653-10.7,17.674-29.25,24.829-46.037,34.336C110.626-301.773,110.174-321.038,106.177-340.095Z" transform="translate(-10.116 579.929)" fill="#d5b989" fill-rule="evenodd"/>
  </g>
</svg>
