<svg id="Group_927" data-name="Group 927" xmlns="http://www.w3.org/2000/svg" xmlns:xlink="http://www.w3.org/1999/xlink" width="312.486" height="549.675" viewBox="0 0 312.486 549.675">
  <defs>
    <clipPath id="clip-path">
      <rect id="Rectangle_466" data-name="Rectangle 466" width="271.555" height="135.219" fill="none"/>
    </clipPath>
  </defs>
  <g id="Group_917" data-name="Group 917">
    <rect id="Rectangle_465" data-name="Rectangle 465" width="305.081" height="541.993" rx="8.504" transform="translate(3.944 3.833)" fill="#dcdddd"/>
    <path id="Path_1696" data-name="Path 1696" d="M747.08,619.175H506.157a35.825,35.825,0,0,1-35.782-35.782V105.282A35.825,35.825,0,0,1,506.157,69.5H747.08a35.825,35.825,0,0,1,35.782,35.782V583.393A35.825,35.825,0,0,1,747.08,619.175ZM506.157,77.03A28.282,28.282,0,0,0,477.9,105.282V583.393a28.282,28.282,0,0,0,28.252,28.252H747.08a28.282,28.282,0,0,0,28.252-28.252V105.282A28.282,28.282,0,0,0,747.08,77.03Z" transform="translate(-470.375 -69.5)" fill="#1899aa"/>
  </g>
  <g id="Group_919" data-name="Group 919" transform="translate(37.649 37.649)">
    <g id="Group_918" data-name="Group 918">
      <path id="Path_1697" data-name="Path 1697" d="M693.227,248.92H504.711a24.217,24.217,0,0,1-24.336-24.043V103.543A24.217,24.217,0,0,1,504.711,79.5H693.227a24.217,24.217,0,0,1,24.336,24.043V224.878A24.217,24.217,0,0,1,693.227,248.92ZM504.711,86.71a16.956,16.956,0,0,0-17.04,16.833V224.878a16.956,16.956,0,0,0,17.04,16.833H693.227a16.956,16.956,0,0,0,17.04-16.833V103.543a16.956,16.956,0,0,0-17.04-16.833Z" transform="translate(-480.375 -79.5)" fill="#1899aa"/>
    </g>
    <path id="pic_big_1" d="M4.191,33.525A4.192,4.192,0,0,1,0,29.335V4.191A4.192,4.192,0,0,1,4.191,0H29.335a4.192,4.192,0,0,1,4.191,4.191V29.335a4.192,4.192,0,0,1-4.191,4.191Zm0-4.191H29.335V4.191H4.191Zm2.1-6.286,6.286-10.477,6.286,8.381,4.191-4.191,4.191,6.286ZM18.861,12.572a2.1,2.1,0,1,1,2.092,2.1A2.088,2.088,0,0,1,18.861,12.572Z" transform="translate(101.514 67.877)" fill="#1899aa"/>
  </g>
  <g id="Group_926" data-name="Group 926" transform="translate(37.47 240.745)">
    <g id="Group_925" data-name="Group 925" transform="translate(0 0)" clip-path="url(#clip-path)">
      <g id="Group_924" data-name="Group 924" transform="translate(0.179 0.208)">
        <g id="Group_921" data-name="Group 921">
          <path id="pic_big_1-2" data-name="pic_big_1" d="M4.236,33.884A4.237,4.237,0,0,1,0,29.649V4.236A4.237,4.237,0,0,1,4.236,0H29.649a4.237,4.237,0,0,1,4.236,4.236V29.649a4.237,4.237,0,0,1-4.236,4.235Zm0-4.235H29.649V4.236H4.236ZM6.353,23.3l6.353-10.589,6.353,8.471L23.3,16.942,27.531,23.3Zm12.71-10.589a2.118,2.118,0,1,1,2.114,2.121A2.111,2.111,0,0,1,19.063,12.707Z" transform="translate(50.826 50.825)" fill="#1899aa"/>
          <g id="Group_920" data-name="Group 920">
            <path id="Path_1704" data-name="Path 1704" d="M592.125,269.036H504.162a23.812,23.812,0,0,1-23.786-23.787V157.287A23.812,23.812,0,0,1,504.162,133.5h87.963a23.812,23.812,0,0,1,23.787,23.787V245.25A23.812,23.812,0,0,1,592.125,269.036Zm-87.963-128.4a16.67,16.67,0,0,0-16.652,16.652V245.25A16.67,16.67,0,0,0,504.162,261.9h87.963a16.67,16.67,0,0,0,16.652-16.652V157.287a16.67,16.67,0,0,0-16.652-16.652Z" transform="translate(-480.375 -133.5)" fill="#1899aa"/>
          </g>
        </g>
        <g id="Group_923" data-name="Group 923" transform="translate(169.42)">
          <path id="pic_big_1-3" data-name="pic_big_1" d="M4.236,33.884A4.237,4.237,0,0,1,0,29.649V4.236A4.237,4.237,0,0,1,4.236,0H29.649a4.237,4.237,0,0,1,4.235,4.236V29.649a4.237,4.237,0,0,1-4.235,4.235Zm0-4.235H29.649V4.236H4.236ZM6.353,23.3l6.353-10.589,6.353,8.471L23.3,16.942,27.531,23.3Zm12.71-10.589a2.118,2.118,0,1,1,2.114,2.121A2.111,2.111,0,0,1,19.063,12.707Z" transform="translate(50.826 50.825)" fill="#1899aa"/>
          <g id="Group_922" data-name="Group 922">
            <path id="Path_1708" data-name="Path 1708" d="M637.125,269.036H549.162a23.812,23.812,0,0,1-23.787-23.787V157.287A23.812,23.812,0,0,1,549.162,133.5h87.963a23.812,23.812,0,0,1,23.787,23.787V245.25A23.812,23.812,0,0,1,637.125,269.036Zm-87.963-128.4a16.67,16.67,0,0,0-16.652,16.652V245.25A16.67,16.67,0,0,0,549.162,261.9h87.963a16.67,16.67,0,0,0,16.652-16.652V157.287a16.67,16.67,0,0,0-16.652-16.652Z" transform="translate(-525.375 -133.5)" fill="#1899aa"/>
          </g>
        </g>
      </g>
    </g>
  </g>
  <rect id="Rectangle_467" data-name="Rectangle 467" width="101.694" height="33.525" rx="4.499" transform="translate(37.47 410.607)" fill="#1899aa"/>
  <rect id="Rectangle_468" data-name="Rectangle 468" width="101.694" height="33.525" rx="4.499" transform="translate(172.689 410.607)" fill="#1899aa"/>
  <rect id="Rectangle_469" data-name="Rectangle 469" width="101.694" height="6.705" rx="1" transform="translate(105.638 512.3)" fill="#1899aa"/>
</svg>
