<svg id="Group_957" data-name="Group 957" xmlns="http://www.w3.org/2000/svg" width="549.675" height="312.486" viewBox="0 0 549.675 312.486">
  <rect id="Rectangle_500" data-name="Rectangle 500" width="305.081" height="541.993" rx="8.504" transform="translate(545.979 4.053) rotate(90)" fill="#dcdddd"/>
  <path id="Path_1760" data-name="Path 1760" d="M1011.268,768.986H533.157A35.825,35.825,0,0,1,497.375,733.2V492.282A35.825,35.825,0,0,1,533.157,456.5h478.111a35.825,35.825,0,0,1,35.782,35.782V733.2A35.825,35.825,0,0,1,1011.268,768.986ZM533.157,464.03A28.282,28.282,0,0,0,504.9,492.282V733.2a28.282,28.282,0,0,0,28.252,28.252h478.111A28.282,28.282,0,0,0,1039.52,733.2V492.282a28.282,28.282,0,0,0-28.252-28.252Z" transform="translate(-497.375 -456.5)" fill="#1899aa"/>
</svg>
