<svg id="Group_956" data-name="Group 956" xmlns="http://www.w3.org/2000/svg" width="237.188" height="237.188" viewBox="0 0 237.188 237.188">
  <rect id="Rectangle_498" data-name="Rectangle 498" width="169.862" height="7.823" rx="1" transform="translate(33.622 161.61)" fill="#5352a2"/>
  <rect id="Rectangle_499" data-name="Rectangle 499" width="169.862" height="6.705" rx="1" transform="translate(33.622 196.253)" fill="#5352a2"/>
  <g id="Group_955" data-name="Group 955">
    <path id="Path_1756" data-name="Path 1756" d="M630.227,712.688H441.711a24.365,24.365,0,0,1-24.336-24.336V499.836A24.365,24.365,0,0,1,441.711,475.5H630.227a24.365,24.365,0,0,1,24.336,24.336V688.352A24.365,24.365,0,0,1,630.227,712.688ZM441.711,482.8a17.062,17.062,0,0,0-17.04,17.04V688.352a17.062,17.062,0,0,0,17.04,17.04H630.227a17.062,17.062,0,0,0,17.04-17.04V499.836a17.062,17.062,0,0,0-17.04-17.04Z" transform="translate(-417.375 -475.5)" fill="#1899aa"/>
  </g>
  <path id="pic_big_1" d="M4.191,33.525A4.192,4.192,0,0,1,0,29.335V4.191A4.192,4.192,0,0,1,4.191,0H29.335a4.192,4.192,0,0,1,4.191,4.191V29.335a4.192,4.192,0,0,1-4.191,4.191Zm0-4.191H29.335V4.191H4.191Zm2.1-6.286,6.286-10.477,6.286,8.381,4.191-4.191,4.191,6.286ZM18.861,12.572a2.1,2.1,0,1,1,2.092,2.1A2.088,2.088,0,0,1,18.861,12.572Z" transform="translate(101.79 67.739)" fill="#1899aa"/>
</svg>
