<svg id="Group_902" data-name="Group 902" xmlns="http://www.w3.org/2000/svg" xmlns:xlink="http://www.w3.org/1999/xlink" width="312.486" height="549.675" viewBox="0 0 312.486 549.675">
  <defs>
    <clipPath id="clip-path">
      <rect id="Rectangle_432" data-name="Rectangle 432" width="305.081" height="135.219" fill="none"/>
    </clipPath>
  </defs>
  <g id="Group_887" data-name="Group 887">
    <rect id="Rectangle_427" data-name="Rectangle 427" width="305.081" height="541.993" rx="8.504" transform="translate(4.013 3.833)" fill="#dcdddd"/>
    <path id="Path_1657" data-name="Path 1657" d="M549.08,619.175H308.157a35.825,35.825,0,0,1-35.782-35.782V105.282A35.825,35.825,0,0,1,308.157,69.5H549.08a35.825,35.825,0,0,1,35.782,35.782V583.393A35.825,35.825,0,0,1,549.08,619.175ZM308.157,77.03A28.282,28.282,0,0,0,279.9,105.282V583.393a28.282,28.282,0,0,0,28.252,28.252H549.08a28.282,28.282,0,0,0,28.252-28.252V105.282A28.282,28.282,0,0,0,549.08,77.03Z" transform="translate(-272.375 -69.5)" fill="#1899aa"/>
  </g>
  <rect id="Rectangle_428" data-name="Rectangle 428" width="101.694" height="7.823" rx="1" transform="translate(37.539 37.358)" fill="#5352a2"/>
  <rect id="Rectangle_429" data-name="Rectangle 429" width="33.525" height="7.823" rx="1" transform="translate(240.926 37.358)" fill="#5352a2"/>
  <rect id="Rectangle_430" data-name="Rectangle 430" width="33.525" height="7.823" rx="1" transform="translate(240.926 240.745)" fill="#5352a2"/>
  <rect id="Rectangle_431" data-name="Rectangle 431" width="101.694" height="7.823" rx="1" transform="translate(37.539 240.745)" fill="#5352a2"/>
  <g id="Group_894" data-name="Group 894" transform="translate(4.013 275.388)">
    <g id="Group_893" data-name="Group 893" transform="translate(0 0)" clip-path="url(#clip-path)">
      <g id="Group_892" data-name="Group 892" transform="translate(33.635 -0.55)">
        <g id="Group_889" data-name="Group 889">
          <path id="pic_big_1" d="M4.236,33.884A4.237,4.237,0,0,1,0,29.649V4.235A4.237,4.237,0,0,1,4.236,0H29.649a4.237,4.237,0,0,1,4.235,4.235V29.649a4.237,4.237,0,0,1-4.235,4.235Zm0-4.235H29.649V4.235H4.236ZM6.353,23.3l6.353-10.589,6.353,8.471L23.3,16.942,27.531,23.3Zm12.71-10.589a2.118,2.118,0,1,1,2.114,2.121A2.111,2.111,0,0,1,19.063,12.707Z" transform="translate(50.826 50.825)" fill="#1899aa"/>
          <g id="Group_888" data-name="Group 888">
            <path id="Path_1661" data-name="Path 1661" d="M394.125,278.036H306.162a23.812,23.812,0,0,1-23.787-23.787V166.287A23.812,23.812,0,0,1,306.162,142.5h87.963a23.812,23.812,0,0,1,23.787,23.787V254.25A23.812,23.812,0,0,1,394.125,278.036Zm-87.963-128.4a16.67,16.67,0,0,0-16.652,16.652V254.25A16.67,16.67,0,0,0,306.162,270.9h87.963a16.67,16.67,0,0,0,16.652-16.652V166.287a16.67,16.67,0,0,0-16.652-16.652Z" transform="translate(-282.375 -142.5)" fill="#1899aa"/>
          </g>
        </g>
        <g id="Group_891" data-name="Group 891" transform="translate(169.42)">
          <path id="pic_big_1-2" data-name="pic_big_1" d="M4.235,33.884A4.237,4.237,0,0,1,0,29.649V4.235A4.237,4.237,0,0,1,4.235,0H29.648a4.237,4.237,0,0,1,4.236,4.235V29.649a4.237,4.237,0,0,1-4.236,4.235Zm0-4.235H29.648V4.235H4.235ZM6.353,23.3l6.353-10.589,6.353,8.471L23.3,16.942,27.531,23.3Zm12.71-10.589a2.118,2.118,0,1,1,2.114,2.121A2.111,2.111,0,0,1,19.063,12.707Z" transform="translate(50.826 50.825)" fill="#1899aa"/>
          <g id="Group_890" data-name="Group 890">
            <path id="Path_1665" data-name="Path 1665" d="M439.125,278.036H351.162a23.812,23.812,0,0,1-23.787-23.787V166.287A23.812,23.812,0,0,1,351.162,142.5h87.963a23.812,23.812,0,0,1,23.787,23.787V254.25A23.812,23.812,0,0,1,439.125,278.036Zm-87.963-128.4a16.67,16.67,0,0,0-16.652,16.652V254.25A16.67,16.67,0,0,0,351.162,270.9h87.963a16.67,16.67,0,0,0,16.652-16.652V166.287a16.67,16.67,0,0,0-16.652-16.652Z" transform="translate(-327.375 -142.5)" fill="#1899aa"/>
          </g>
        </g>
      </g>
    </g>
  </g>
  <g id="Group_901" data-name="Group 901" transform="translate(4.013 72.001)">
    <g id="Group_900" data-name="Group 900" transform="translate(0 0)" clip-path="url(#clip-path)">
      <g id="Group_899" data-name="Group 899" transform="translate(33.635 -0.468)">
        <g id="Group_896" data-name="Group 896">
          <path id="pic_big_1-3" data-name="pic_big_1" d="M4.236,33.884A4.237,4.237,0,0,1,0,29.649V4.236A4.237,4.237,0,0,1,4.236,0H29.649a4.237,4.237,0,0,1,4.235,4.236V29.649a4.237,4.237,0,0,1-4.235,4.236Zm0-4.236H29.649V4.236H4.236ZM6.353,23.3l6.353-10.589,6.353,8.471L23.3,16.942,27.531,23.3Zm12.71-10.589a2.118,2.118,0,1,1,2.114,2.121A2.111,2.111,0,0,1,19.063,12.707Z" transform="translate(50.826 50.825)" fill="#1899aa"/>
          <g id="Group_895" data-name="Group 895">
            <path id="Path_1669" data-name="Path 1669" d="M394.125,224.036H306.162a23.812,23.812,0,0,1-23.787-23.787V112.287A23.812,23.812,0,0,1,306.162,88.5h87.963a23.812,23.812,0,0,1,23.787,23.787V200.25A23.812,23.812,0,0,1,394.125,224.036Zm-87.963-128.4a16.67,16.67,0,0,0-16.652,16.652V200.25A16.67,16.67,0,0,0,306.162,216.9h87.963a16.67,16.67,0,0,0,16.652-16.652V112.287a16.67,16.67,0,0,0-16.652-16.652Z" transform="translate(-282.375 -88.5)" fill="#1899aa"/>
          </g>
        </g>
        <g id="Group_898" data-name="Group 898" transform="translate(169.42)">
          <path id="pic_big_1-4" data-name="pic_big_1" d="M4.235,33.884A4.237,4.237,0,0,1,0,29.649V4.236A4.237,4.237,0,0,1,4.235,0H29.648a4.237,4.237,0,0,1,4.236,4.236V29.649a4.237,4.237,0,0,1-4.236,4.236Zm0-4.236H29.648V4.236H4.235ZM6.353,23.3l6.353-10.589,6.353,8.471L23.3,16.942,27.531,23.3Zm12.71-10.589a2.118,2.118,0,1,1,2.114,2.121A2.111,2.111,0,0,1,19.063,12.707Z" transform="translate(50.826 50.825)" fill="#1899aa"/>
          <g id="Group_897" data-name="Group 897">
            <path id="Path_1673" data-name="Path 1673" d="M439.125,224.036H351.162a23.812,23.812,0,0,1-23.787-23.787V112.287A23.812,23.812,0,0,1,351.162,88.5h87.963a23.812,23.812,0,0,1,23.787,23.787V200.25A23.812,23.812,0,0,1,439.125,224.036Zm-87.963-128.4a16.67,16.67,0,0,0-16.652,16.652V200.25A16.67,16.67,0,0,0,351.162,216.9h87.963a16.67,16.67,0,0,0,16.652-16.652V112.287a16.67,16.67,0,0,0-16.652-16.652Z" transform="translate(-327.375 -88.5)" fill="#1899aa"/>
          </g>
        </g>
      </g>
    </g>
  </g>
  <rect id="Rectangle_434" data-name="Rectangle 434" width="101.694" height="6.705" rx="1" transform="translate(105.707 512.3)" fill="#1899aa"/>
</svg>
