<svg id="Group_943" data-name="Group 943" xmlns="http://www.w3.org/2000/svg" width="854.631" height="549.675" viewBox="0 0 854.631 549.675">
  <g id="Group_936" data-name="Group 936">
    <rect id="Rectangle_479" data-name="Rectangle 479" width="847.073" height="541.993" rx="8.504" transform="translate(3.862 4.081)" fill="#dcdddd"/>
    <path id="Path_1722" data-name="Path 1722" d="M1235.224,781.175H452.157a35.825,35.825,0,0,1-35.781-35.781V267.281A35.825,35.825,0,0,1,452.157,231.5h783.068a35.825,35.825,0,0,1,35.782,35.781V745.393A35.825,35.825,0,0,1,1235.224,781.175ZM452.157,239.03A28.282,28.282,0,0,0,423.9,267.281V745.393a28.282,28.282,0,0,0,28.252,28.252h783.068a28.282,28.282,0,0,0,28.252-28.252V267.281a28.282,28.282,0,0,0-28.252-28.252Z" transform="translate(-416.375 -231.5)" fill="#1899aa"/>
  </g>
  <circle id="Ellipse_105" data-name="Ellipse 105" cx="16.763" cy="16.763" r="16.763" transform="translate(647.548 37.606)" fill="#1899aa"/>
  <ellipse id="Ellipse_106" data-name="Ellipse 106" cx="17.321" cy="16.763" rx="17.321" ry="16.763" transform="translate(782.767 37.606)" fill="#5352a2"/>
  <circle id="Ellipse_107" data-name="Ellipse 107" cx="16.763" cy="16.763" r="16.763" transform="translate(715.716 37.606)" fill="#f4ef8c"/>
  <rect id="Rectangle_480" data-name="Rectangle 480" width="135.219" height="34.643" rx="4.499" transform="translate(647.548 477.905)" fill="#1899aa"/>
  <rect id="Rectangle_481" data-name="Rectangle 481" width="135.219" height="33.525" rx="4.499" transform="translate(647.548 410.855)" fill="#1899aa"/>
  <g id="Group_938" data-name="Group 938" transform="translate(71.533 410.373)">
    <rect id="Rectangle_482" data-name="Rectangle 482" width="100.576" height="7.823" rx="1" transform="translate(102.19 34.007)" fill="#5352a2"/>
    <rect id="Rectangle_483" data-name="Rectangle 483" width="100.576" height="7.823" rx="1" transform="translate(102.19 59.709)" fill="#5352a2"/>
    <path id="pic_big_1" d="M4.191,33.525A4.192,4.192,0,0,1,0,29.335V4.191A4.192,4.192,0,0,1,4.191,0H29.335a4.192,4.192,0,0,1,4.191,4.191V29.335a4.192,4.192,0,0,1-4.191,4.191Zm0-4.191H29.335V4.191H4.191Zm2.1-6.286,6.286-10.477,6.286,8.381,4.191-4.191,4.191,6.286ZM18.861,12.572a2.1,2.1,0,1,1,2.092,2.1A2.088,2.088,0,0,1,18.861,12.572Z" transform="translate(34.022 34.007)" fill="#1899aa"/>
    <g id="Group_937" data-name="Group 937">
      <path id="Path_1726" data-name="Path 1726" d="M648.227,442.152H459.711c-13.422,0-24.336-10.485-24.336-23.376v-54.9c0-12.891,10.914-23.376,24.336-23.376H648.227c13.422,0,24.336,10.485,24.336,23.376v54.9C672.563,431.667,661.649,442.152,648.227,442.152ZM459.711,347.51c-9.393,0-17.04,7.342-17.04,16.366v54.9c0,9.025,7.647,16.366,17.04,16.366H648.227c9.393,0,17.04-7.342,17.04-16.366v-54.9c0-9.025-7.647-16.366-17.04-16.366Z" transform="translate(-435.375 -340.5)" fill="#1899aa"/>
    </g>
  </g>
  <g id="Group_940" data-name="Group 940" transform="translate(342.605 410.373)">
    <rect id="Rectangle_484" data-name="Rectangle 484" width="101.694" height="7.823" rx="1" transform="translate(101.556 34.007)" fill="#5352a2"/>
    <rect id="Rectangle_485" data-name="Rectangle 485" width="101.694" height="7.823" rx="1" transform="translate(101.556 59.709)" fill="#5352a2"/>
    <path id="pic_big_1-2" data-name="pic_big_1" d="M4.191,33.525A4.192,4.192,0,0,1,0,29.335V4.191A4.192,4.192,0,0,1,4.191,0H29.335a4.192,4.192,0,0,1,4.191,4.191V29.335a4.192,4.192,0,0,1-4.191,4.191Zm0-4.191H29.335V4.191H4.191Zm2.1-6.286,6.286-10.477,6.286,8.381,4.191-4.191,4.191,6.286ZM18.861,12.572a2.1,2.1,0,1,1,2.092,2.1A2.088,2.088,0,0,1,18.861,12.572Z" transform="translate(33.388 34.007)" fill="#1899aa"/>
    <g id="Group_939" data-name="Group 939">
      <path id="Path_1730" data-name="Path 1730" d="M720.227,442.152H531.711c-13.422,0-24.336-10.485-24.336-23.376v-54.9c0-12.891,10.914-23.376,24.336-23.376H720.227c13.422,0,24.336,10.485,24.336,23.376v54.9C744.563,431.667,733.649,442.152,720.227,442.152ZM531.711,347.51c-9.393,0-17.04,7.342-17.04,16.366v54.9c0,9.025,7.646,16.366,17.04,16.366H720.227c9.393,0,17.04-7.342,17.04-16.366v-54.9c0-9.025-7.646-16.366-17.04-16.366Z" transform="translate(-507.375 -340.5)" fill="#1899aa"/>
    </g>
  </g>
  <g id="Group_942" data-name="Group 942" transform="translate(71.533 105.417)">
    <g id="Group_941" data-name="Group 941">
      <path id="Path_1731" data-name="Path 1731" d="M1129.362,538.1H460.483a25.136,25.136,0,0,1-25.108-25.108V284.608A25.138,25.138,0,0,1,460.483,259.5h668.878a25.136,25.136,0,0,1,25.108,25.108V512.994A25.133,25.133,0,0,1,1129.362,538.1ZM460.483,267.03A17.6,17.6,0,0,0,442.9,284.608V512.994a17.6,17.6,0,0,0,17.578,17.578h668.878a17.6,17.6,0,0,0,17.578-17.578V284.608a17.6,17.6,0,0,0-17.578-17.578Z" transform="translate(-435.375 -259.5)" fill="#1899aa"/>
    </g>
    <path id="pic_big_1-3" data-name="pic_big_1" d="M4.235,33.884A4.237,4.237,0,0,1,0,29.648V4.235A4.237,4.237,0,0,1,4.235,0H29.649a4.237,4.237,0,0,1,4.235,4.235V29.648a4.237,4.237,0,0,1-4.235,4.236Zm0-4.236H29.649V4.235H4.235ZM6.353,23.3l6.353-10.589,6.353,8.471L23.3,16.942,27.531,23.3Zm12.71-10.589a2.118,2.118,0,1,1,2.115,2.121A2.113,2.113,0,0,1,19.063,12.707Z" transform="translate(342.605 122.358)" fill="#1899aa"/>
  </g>
</svg>
