<svg id="Group_966" data-name="Group 966" xmlns="http://www.w3.org/2000/svg" width="133.028" height="163.502" viewBox="0 0 133.028 163.502">
  <g id="Group_964" data-name="Group 964" transform="translate(0 132.457)">
    <path id="Path_1767" data-name="Path 1767" d="M766.955,451.4a15.523,15.523,0,1,1,15.522-15.523A15.537,15.537,0,0,1,766.955,451.4Zm0-26.761a11.24,11.24,0,1,0,11.238,11.238A11.252,11.252,0,0,0,766.955,424.643Z" transform="translate(-751.432 -420.359)" fill="#1899aa"/>
  </g>
  <path id="Path_1768" data-name="Path 1768" d="M791.009,385.177l-9.051,23.492h18.1Z" transform="translate(-667.031 -385.177)" fill="#1899aa"/>
  <g id="Group_965" data-name="Group 965" transform="translate(13.38 20.726)">
    <path id="Path_1769" data-name="Path 1769" d="M757.128,506.7a2.143,2.143,0,0,1-2.142-2.142V450.638a14.294,14.294,0,0,1,14.28-14.28h84.179a10.007,10.007,0,0,0,10-10V392.824a2.142,2.142,0,1,1,4.284,0v33.538a14.3,14.3,0,0,1-14.28,14.277H769.266a10.013,10.013,0,0,0-10,10v53.917A2.14,2.14,0,0,1,757.128,506.7Z" transform="translate(-754.986 -390.682)" fill="#1899aa"/>
  </g>
</svg>
