<svg id="Group_954" data-name="Group 954" xmlns="http://www.w3.org/2000/svg" width="237.188" height="101.652" viewBox="0 0 237.188 101.652">
  <rect id="Rectangle_490" data-name="Rectangle 490" width="101.694" height="7.823" rx="1" transform="translate(101.79 33.414)" fill="#5352a2"/>
  <rect id="Rectangle_491" data-name="Rectangle 491" width="101.694" height="7.823" rx="1" transform="translate(101.79 60.234)" fill="#5352a2"/>
  <path id="pic_big_1" d="M4.191,33.525A4.192,4.192,0,0,1,0,29.335V4.191A4.192,4.192,0,0,1,4.191,0H29.335a4.192,4.192,0,0,1,4.191,4.191V29.335a4.192,4.192,0,0,1-4.191,4.191Zm0-4.191H29.335V4.191H4.191Zm2.1-6.286,6.286-10.477,6.286,8.381,4.191-4.191,4.191,6.286ZM18.861,12.572a2.1,2.1,0,1,1,2.092,2.1A2.088,2.088,0,0,1,18.861,12.572Z" transform="translate(33.622 33.414)" fill="#1899aa"/>
  <g id="Group_953" data-name="Group 953">
    <path id="Path_1755" data-name="Path 1755" d="M630.227,541.152H441.711c-13.422,0-24.336-10.485-24.336-23.376v-54.9c0-12.891,10.914-23.376,24.336-23.376H630.227c13.422,0,24.336,10.485,24.336,23.376v54.9C654.563,530.667,643.649,541.152,630.227,541.152ZM441.711,446.51c-9.393,0-17.04,7.342-17.04,16.366v54.9c0,9.025,7.646,16.366,17.04,16.366H630.227c9.393,0,17.04-7.342,17.04-16.366v-54.9c0-9.025-7.646-16.366-17.04-16.366Z" transform="translate(-417.375 -439.5)" fill="#1899aa"/>
  </g>
</svg>
