<svg id="Group_960" data-name="Group 960" xmlns="http://www.w3.org/2000/svg" width="216.281" height="149.685" viewBox="0 0 216.281 149.685">
  <g id="Group_958" data-name="Group 958" transform="translate(0 118.64)">
    <path id="Path_1761" data-name="Path 1761" d="M648.9,451.4a15.523,15.523,0,1,1,15.523-15.523A15.54,15.54,0,0,1,648.9,451.4Zm0-26.761a11.24,11.24,0,1,0,11.242,11.238A11.254,11.254,0,0,0,648.9,424.643Z" transform="translate(-633.375 -420.359)" fill="#1899aa"/>
  </g>
  <g id="Group_959" data-name="Group 959" transform="translate(13.38 6.909)">
    <path id="Path_1762" data-name="Path 1762" d="M639.071,506.7a2.143,2.143,0,0,1-2.142-2.142V404.962a14.3,14.3,0,0,1,14.28-14.28H816.337a2.14,2.14,0,1,1,0,4.281H651.209a10.01,10.01,0,0,0-10,10v99.593A2.143,2.143,0,0,1,639.071,506.7Z" transform="translate(-636.929 -390.682)" fill="#1899aa"/>
  </g>
  <path id="Path_1763" data-name="Path 1763" d="M708.074,397.9l-23.492-9.051v18.1Z" transform="translate(-491.793 -388.847)" fill="#1899aa"/>
</svg>
