<svg id="Group_948" data-name="Group 948" xmlns="http://www.w3.org/2000/svg" width="135.536" height="135.536" viewBox="0 0 135.536 135.536">
  <path id="pic_big_1" d="M4.236,33.884A4.237,4.237,0,0,1,0,29.649V4.236A4.237,4.237,0,0,1,4.236,0H29.649a4.237,4.237,0,0,1,4.236,4.236V29.649a4.237,4.237,0,0,1-4.236,4.236Zm0-4.236H29.649V4.236H4.236ZM6.353,23.3l6.353-10.589,6.353,8.471L23.3,16.942,27.531,23.3Zm12.71-10.589a2.118,2.118,0,1,1,2.114,2.121A2.11,2.11,0,0,1,19.063,12.707Z" transform="translate(50.826 50.825)" fill="#1899aa"/>
  <g id="Group_947" data-name="Group 947">
    <path id="Path_1743" data-name="Path 1743" d="M529.125,530.036H441.162a23.812,23.812,0,0,1-23.787-23.787V418.287A23.812,23.812,0,0,1,441.162,394.5h87.963a23.813,23.813,0,0,1,23.787,23.787V506.25A23.813,23.813,0,0,1,529.125,530.036Zm-87.963-128.4a16.67,16.67,0,0,0-16.652,16.652V506.25A16.67,16.67,0,0,0,441.162,522.9h87.963a16.67,16.67,0,0,0,16.652-16.652V418.287a16.67,16.67,0,0,0-16.652-16.652Z" transform="translate(-417.375 -394.5)" fill="#1899aa"/>
  </g>
</svg>
