<svg id="Group_935" data-name="Group 935" xmlns="http://www.w3.org/2000/svg" width="312.486" height="549.675" viewBox="0 0 312.486 549.675">
  <g id="Group_928" data-name="Group 928">
    <rect id="Rectangle_470" data-name="Rectangle 470" width="305.081" height="541.993" rx="8.504" transform="translate(3.351 3.833)" fill="#dcdddd"/>
    <path id="Path_1709" data-name="Path 1709" d="M846.079,619.175H605.157a35.825,35.825,0,0,1-35.782-35.782V105.282A35.825,35.825,0,0,1,605.157,69.5H846.079a35.825,35.825,0,0,1,35.782,35.782V583.393A35.825,35.825,0,0,1,846.079,619.175ZM605.157,77.03A28.283,28.283,0,0,0,576.9,105.282V583.393a28.283,28.283,0,0,0,28.252,28.252H846.079a28.283,28.283,0,0,0,28.252-28.252V105.282A28.282,28.282,0,0,0,846.079,77.03Z" transform="translate(-569.375 -69.5)" fill="#1899aa"/>
  </g>
  <rect id="Rectangle_471" data-name="Rectangle 471" width="101.694" height="7.823" rx="1" transform="translate(37.994 37.358)" fill="#5352a2"/>
  <g id="Group_930" data-name="Group 930" transform="translate(37.649 71.533)">
    <rect id="Rectangle_472" data-name="Rectangle 472" width="101.694" height="7.823" rx="1" transform="translate(102.039 33.993)" fill="#5352a2"/>
    <rect id="Rectangle_473" data-name="Rectangle 473" width="101.694" height="7.823" rx="1" transform="translate(102.039 59.696)" fill="#5352a2"/>
    <path id="pic_big_1" d="M4.191,33.525A4.192,4.192,0,0,1,0,29.335V4.191A4.192,4.192,0,0,1,4.191,0H29.335a4.192,4.192,0,0,1,4.191,4.191V29.335a4.192,4.192,0,0,1-4.191,4.191Zm0-4.191H29.335V4.191H4.191Zm2.1-6.286,6.286-10.477,6.286,8.381,4.191-4.191,4.191,6.286ZM18.861,12.572a2.1,2.1,0,1,1,2.092,2.1A2.088,2.088,0,0,1,18.861,12.572Z" transform="translate(33.87 33.993)" fill="#1899aa"/>
    <g id="Group_929" data-name="Group 929">
      <path id="Path_1713" data-name="Path 1713" d="M792.227,190.152H603.711c-13.422,0-24.336-10.485-24.336-23.376v-54.9c0-12.891,10.914-23.376,24.336-23.376H792.227c13.422,0,24.336,10.485,24.336,23.376v54.9C816.563,179.667,805.649,190.152,792.227,190.152ZM603.711,95.51c-9.393,0-17.04,7.342-17.04,16.366v54.9c0,9.024,7.646,16.366,17.04,16.366H792.227c9.394,0,17.04-7.342,17.04-16.366v-54.9c0-9.024-7.646-16.366-17.04-16.366Z" transform="translate(-579.375 -88.5)" fill="#1899aa"/>
    </g>
  </g>
  <g id="Group_932" data-name="Group 932" transform="translate(37.649 207.069)">
    <rect id="Rectangle_474" data-name="Rectangle 474" width="101.694" height="7.823" rx="1" transform="translate(102.039 33.676)" fill="#5352a2"/>
    <rect id="Rectangle_475" data-name="Rectangle 475" width="101.694" height="7.823" rx="1" transform="translate(102.039 60.496)" fill="#5352a2"/>
    <path id="pic_big_1-2" data-name="pic_big_1" d="M4.191,33.525A4.192,4.192,0,0,1,0,29.335V4.191A4.192,4.192,0,0,1,4.191,0H29.335a4.192,4.192,0,0,1,4.191,4.191V29.335a4.192,4.192,0,0,1-4.191,4.191Zm0-4.191H29.335V4.191H4.191Zm2.1-6.286,6.286-10.477,6.286,8.381,4.191-4.191,4.191,6.286ZM18.861,12.572a2.1,2.1,0,1,1,2.092,2.1A2.088,2.088,0,0,1,18.861,12.572Z" transform="translate(33.87 33.676)" fill="#1899aa"/>
    <g id="Group_931" data-name="Group 931">
      <path id="Path_1717" data-name="Path 1717" d="M792.227,226.152H603.711c-13.422,0-24.336-10.485-24.336-23.376v-54.9c0-12.891,10.914-23.376,24.336-23.376H792.227c13.422,0,24.336,10.485,24.336,23.376v54.9C816.563,215.667,805.649,226.152,792.227,226.152ZM603.711,131.51c-9.393,0-17.04,7.342-17.04,16.366v54.9c0,9.024,7.646,16.366,17.04,16.366H792.227c9.394,0,17.04-7.342,17.04-16.366v-54.9c0-9.024-7.646-16.366-17.04-16.366Z" transform="translate(-579.375 -124.5)" fill="#1899aa"/>
    </g>
  </g>
  <g id="Group_934" data-name="Group 934" transform="translate(37.649 342.605)">
    <rect id="Rectangle_476" data-name="Rectangle 476" width="101.694" height="7.823" rx="1" transform="translate(102.039 33.358)" fill="#5352a2"/>
    <rect id="Rectangle_477" data-name="Rectangle 477" width="101.694" height="7.823" rx="1" transform="translate(102.039 60.179)" fill="#5352a2"/>
    <path id="pic_big_1-3" data-name="pic_big_1" d="M4.191,33.525A4.192,4.192,0,0,1,0,29.335V4.191A4.192,4.192,0,0,1,4.191,0H29.335a4.192,4.192,0,0,1,4.191,4.191V29.335a4.192,4.192,0,0,1-4.191,4.191Zm0-4.191H29.335V4.191H4.191Zm2.1-6.286,6.286-10.477,6.286,8.381,4.191-4.191,4.191,6.286ZM18.861,12.572a2.1,2.1,0,1,1,2.092,2.1A2.088,2.088,0,0,1,18.861,12.572Z" transform="translate(33.87 33.358)" fill="#1899aa"/>
    <g id="Group_933" data-name="Group 933">
      <path id="Path_1721" data-name="Path 1721" d="M792.227,262.152H603.711c-13.422,0-24.336-10.485-24.336-23.376v-54.9c0-12.891,10.914-23.376,24.336-23.376H792.227c13.422,0,24.336,10.485,24.336,23.376v54.9C816.563,251.667,805.649,262.152,792.227,262.152ZM603.711,167.51c-9.393,0-17.04,7.342-17.04,16.366v54.9c0,9.024,7.646,16.366,17.04,16.366H792.227c9.394,0,17.04-7.342,17.04-16.366v-54.9c0-9.024-7.646-16.366-17.04-16.366Z" transform="translate(-579.375 -160.5)" fill="#1899aa"/>
    </g>
  </g>
  <rect id="Rectangle_478" data-name="Rectangle 478" width="101.694" height="6.705" rx="1" transform="translate(105.045 512.3)" fill="#1899aa"/>
</svg>
