<svg id="Group_963" data-name="Group 963" xmlns="http://www.w3.org/2000/svg" width="31.045" height="164.127" viewBox="0 0 31.045 164.127">
  <g id="Group_961" data-name="Group 961" transform="translate(0 133.081)">
    <path id="Path_1764" data-name="Path 1764" d="M732.811,451.4a15.523,15.523,0,1,1,15.523-15.523A15.54,15.54,0,0,1,732.811,451.4Zm0-26.761a11.24,11.24,0,1,0,11.242,11.238A11.254,11.254,0,0,0,732.811,424.643Z" transform="translate(-717.288 -420.359)" fill="#1899aa"/>
  </g>
  <path id="Path_1765" data-name="Path 1765" d="M728.058,385.011,719.007,408.5h18.1Z" transform="translate(-712.535 -385.011)" fill="#1899aa"/>
  <g id="Group_962" data-name="Group 962" transform="translate(13.38 21.351)">
    <path id="Path_1766" data-name="Path 1766" d="M722.984,506.7a2.143,2.143,0,0,1-2.142-2.142V392.824a2.142,2.142,0,1,1,4.284,0V504.555A2.143,2.143,0,0,1,722.984,506.7Z" transform="translate(-720.842 -390.682)" fill="#1899aa"/>
  </g>
</svg>
