<svg id="Group_916" data-name="Group 916" xmlns="http://www.w3.org/2000/svg" width="854.631" height="549.675" viewBox="0 0 854.631 549.675">
  <g id="Group_907" data-name="Group 907">
    <rect id="Rectangle_444" data-name="Rectangle 444" width="847.073" height="541.993" rx="8.504" transform="translate(3.489 4.081)" fill="#dcdddd"/>
    <path id="Path_1679" data-name="Path 1679" d="M992.224,781.175H209.157a35.825,35.825,0,0,1-35.781-35.781V267.281A35.825,35.825,0,0,1,209.157,231.5H992.224a35.825,35.825,0,0,1,35.782,35.781V745.393A35.825,35.825,0,0,1,992.224,781.175ZM209.157,239.03A28.282,28.282,0,0,0,180.9,267.281V745.393a28.282,28.282,0,0,0,28.252,28.252H992.224a28.282,28.282,0,0,0,28.252-28.252V267.281a28.282,28.282,0,0,0-28.252-28.252Z" transform="translate(-173.375 -231.5)" fill="#1899aa"/>
  </g>
  <ellipse id="Ellipse_102" data-name="Ellipse 102" cx="17.321" cy="16.763" rx="17.321" ry="16.763" transform="translate(647.176 37.606)" fill="#1899aa"/>
  <circle id="Ellipse_103" data-name="Ellipse 103" cx="16.763" cy="16.763" r="16.763" transform="translate(783.512 37.606)" fill="#5352a2"/>
  <circle id="Ellipse_104" data-name="Ellipse 104" cx="16.763" cy="16.763" r="16.763" transform="translate(715.344 37.606)" fill="#f4ef8c"/>
  <rect id="Rectangle_445" data-name="Rectangle 445" width="135.219" height="6.705" rx="1" transform="translate(105.183 267.813)" fill="#5352a2"/>
  <rect id="Rectangle_446" data-name="Rectangle 446" width="135.219" height="7.823" rx="1" transform="translate(105.183 334.864)" fill="#5352a2"/>
  <rect id="Rectangle_447" data-name="Rectangle 447" width="135.219" height="7.823" rx="1" transform="translate(105.183 403.032)" fill="#5352a2"/>
  <rect id="Rectangle_448" data-name="Rectangle 448" width="101.694" height="7.823" rx="1" transform="translate(105.183 301.339)" fill="#5352a2"/>
  <rect id="Rectangle_449" data-name="Rectangle 449" width="101.694" height="6.705" rx="1" transform="translate(105.183 369.507)" fill="#5352a2"/>
  <rect id="Rectangle_450" data-name="Rectangle 450" width="135.219" height="6.705" rx="1" transform="translate(275.044 267.813)" fill="#5352a2"/>
  <rect id="Rectangle_451" data-name="Rectangle 451" width="135.219" height="7.823" rx="1" transform="translate(275.044 334.864)" fill="#5352a2"/>
  <rect id="Rectangle_452" data-name="Rectangle 452" width="135.219" height="7.823" rx="1" transform="translate(275.044 403.032)" fill="#5352a2"/>
  <rect id="Rectangle_453" data-name="Rectangle 453" width="101.694" height="7.823" rx="1" transform="translate(275.044 301.339)" fill="#5352a2"/>
  <rect id="Rectangle_454" data-name="Rectangle 454" width="101.694" height="6.705" rx="1" transform="translate(275.044 369.507)" fill="#5352a2"/>
  <rect id="Rectangle_455" data-name="Rectangle 455" width="136.336" height="6.705" rx="1" transform="translate(443.789 267.813)" fill="#5352a2"/>
  <rect id="Rectangle_456" data-name="Rectangle 456" width="136.336" height="7.823" rx="1" transform="translate(443.789 334.864)" fill="#5352a2"/>
  <rect id="Rectangle_457" data-name="Rectangle 457" width="136.336" height="7.823" rx="1" transform="translate(443.789 403.032)" fill="#5352a2"/>
  <rect id="Rectangle_458" data-name="Rectangle 458" width="101.694" height="7.823" rx="1" transform="translate(443.789 301.339)" fill="#5352a2"/>
  <rect id="Rectangle_459" data-name="Rectangle 459" width="101.694" height="6.705" rx="1" transform="translate(443.789 369.507)" fill="#5352a2"/>
  <rect id="Rectangle_460" data-name="Rectangle 460" width="135.219" height="6.705" rx="1" transform="translate(613.65 267.813)" fill="#5352a2"/>
  <rect id="Rectangle_461" data-name="Rectangle 461" width="135.219" height="7.823" rx="1" transform="translate(613.65 334.864)" fill="#5352a2"/>
  <rect id="Rectangle_462" data-name="Rectangle 462" width="135.219" height="7.823" rx="1" transform="translate(613.65 403.032)" fill="#5352a2"/>
  <rect id="Rectangle_463" data-name="Rectangle 463" width="101.694" height="7.823" rx="1" transform="translate(613.65 301.339)" fill="#5352a2"/>
  <rect id="Rectangle_464" data-name="Rectangle 464" width="101.694" height="6.705" rx="1" transform="translate(613.65 369.507)" fill="#5352a2"/>
  <g id="Group_909" data-name="Group 909" transform="translate(105.417 105.417)">
    <path id="pic_big_1" d="M4.236,33.884A4.237,4.237,0,0,1,0,29.648V4.235A4.237,4.237,0,0,1,4.236,0H29.649a4.237,4.237,0,0,1,4.236,4.235V29.648a4.237,4.237,0,0,1-4.236,4.236Zm0-4.236H29.649V4.235H4.236ZM6.353,23.3l6.353-10.589,6.353,8.471L23.3,16.942,27.531,23.3Zm12.71-10.589a2.118,2.118,0,1,1,2.114,2.121A2.111,2.111,0,0,1,19.063,12.707Z" transform="translate(50.826 50.825)" fill="#1899aa"/>
    <g id="Group_908" data-name="Group 908">
      <path id="Path_1683" data-name="Path 1683" d="M313.125,395.036H225.162a23.812,23.812,0,0,1-23.787-23.787V283.287A23.812,23.812,0,0,1,225.162,259.5h87.963a23.812,23.812,0,0,1,23.787,23.787V371.25A23.812,23.812,0,0,1,313.125,395.036Zm-87.963-128.4a16.67,16.67,0,0,0-16.652,16.652V371.25A16.67,16.67,0,0,0,225.162,387.9h87.963a16.67,16.67,0,0,0,16.652-16.652V283.287a16.67,16.67,0,0,0-16.652-16.652Z" transform="translate(-201.375 -259.5)" fill="#1899aa"/>
    </g>
  </g>
  <g id="Group_911" data-name="Group 911" transform="translate(274.837 105.417)">
    <path id="pic_big_1-2" data-name="pic_big_1" d="M4.235,33.884A4.237,4.237,0,0,1,0,29.648V4.235A4.237,4.237,0,0,1,4.235,0H29.649a4.237,4.237,0,0,1,4.235,4.235V29.648a4.237,4.237,0,0,1-4.235,4.236Zm0-4.236H29.649V4.235H4.235ZM6.353,23.3l6.353-10.589,6.353,8.471L23.3,16.942,27.531,23.3Zm12.71-10.589a2.118,2.118,0,1,1,2.114,2.121A2.11,2.11,0,0,1,19.063,12.707Z" transform="translate(50.826 50.825)" fill="#1899aa"/>
    <g id="Group_910" data-name="Group 910">
      <path id="Path_1687" data-name="Path 1687" d="M358.125,395.036H270.162a23.812,23.812,0,0,1-23.787-23.787V283.287A23.812,23.812,0,0,1,270.162,259.5h87.963a23.812,23.812,0,0,1,23.787,23.787V371.25A23.812,23.812,0,0,1,358.125,395.036Zm-87.963-128.4a16.67,16.67,0,0,0-16.652,16.652V371.25A16.67,16.67,0,0,0,270.162,387.9h87.963a16.67,16.67,0,0,0,16.652-16.652V283.287a16.67,16.67,0,0,0-16.652-16.652Z" transform="translate(-246.375 -259.5)" fill="#1899aa"/>
    </g>
  </g>
  <g id="Group_913" data-name="Group 913" transform="translate(444.257 105.417)">
    <path id="pic_big_1-3" data-name="pic_big_1" d="M4.236,33.884A4.237,4.237,0,0,1,0,29.648V4.235A4.237,4.237,0,0,1,4.236,0H29.649a4.237,4.237,0,0,1,4.236,4.235V29.648a4.237,4.237,0,0,1-4.236,4.236Zm0-4.236H29.649V4.235H4.236ZM6.353,23.3l6.353-10.589,6.353,8.471L23.3,16.942,27.531,23.3Zm12.71-10.589a2.118,2.118,0,1,1,2.114,2.121A2.11,2.11,0,0,1,19.063,12.707Z" transform="translate(50.826 50.825)" fill="#1899aa"/>
    <g id="Group_912" data-name="Group 912">
      <path id="Path_1691" data-name="Path 1691" d="M403.125,395.036H315.162a23.812,23.812,0,0,1-23.787-23.787V283.287A23.812,23.812,0,0,1,315.162,259.5h87.963a23.812,23.812,0,0,1,23.787,23.787V371.25A23.812,23.812,0,0,1,403.125,395.036Zm-87.963-128.4a16.67,16.67,0,0,0-16.652,16.652V371.25A16.67,16.67,0,0,0,315.162,387.9h87.963a16.67,16.67,0,0,0,16.652-16.652V283.287a16.67,16.67,0,0,0-16.652-16.652Z" transform="translate(-291.375 -259.5)" fill="#1899aa"/>
    </g>
  </g>
  <g id="Group_915" data-name="Group 915" transform="translate(613.678 105.417)">
    <path id="pic_big_1-4" data-name="pic_big_1" d="M4.236,33.884A4.237,4.237,0,0,1,0,29.648V4.235A4.237,4.237,0,0,1,4.236,0H29.649a4.237,4.237,0,0,1,4.236,4.235V29.648a4.237,4.237,0,0,1-4.236,4.236Zm0-4.236H29.649V4.235H4.236ZM6.353,23.3l6.353-10.589,6.353,8.471L23.3,16.942,27.531,23.3Zm12.71-10.589a2.118,2.118,0,1,1,2.114,2.121A2.111,2.111,0,0,1,19.063,12.707Z" transform="translate(50.826 50.825)" fill="#1899aa"/>
    <g id="Group_914" data-name="Group 914">
      <path id="Path_1695" data-name="Path 1695" d="M448.125,395.036H360.162a23.812,23.812,0,0,1-23.787-23.787V283.287A23.812,23.812,0,0,1,360.162,259.5h87.963a23.812,23.812,0,0,1,23.787,23.787V371.25A23.812,23.812,0,0,1,448.125,395.036Zm-87.963-128.4a16.67,16.67,0,0,0-16.652,16.652V371.25A16.67,16.67,0,0,0,360.162,387.9h87.963a16.67,16.67,0,0,0,16.652-16.652V283.287a16.67,16.67,0,0,0-16.652-16.652Z" transform="translate(-336.375 -259.5)" fill="#1899aa"/>
    </g>
  </g>
</svg>
