<svg xmlns="http://www.w3.org/2000/svg" width="854.631" height="549.675" viewBox="0 0 854.631 549.675">
  <g id="Group_967" data-name="Group 967" transform="translate(-165.025 -4635.326)">
    <g id="Group_944" data-name="Group 944" transform="translate(165.025 4635.326)">
      <rect id="Rectangle_486" data-name="Rectangle 486" width="847.073" height="543.11" rx="8.504" transform="translate(3.489 3.212)" fill="#dcdddd"/>
      <path id="Path_1735" data-name="Path 1735" d="M992.224,943.175H209.157a35.825,35.825,0,0,1-35.781-35.782V429.282A35.825,35.825,0,0,1,209.157,393.5H992.224a35.825,35.825,0,0,1,35.782,35.782V907.393A35.825,35.825,0,0,1,992.224,943.175ZM209.157,401.03A28.282,28.282,0,0,0,180.9,429.282V907.393a28.282,28.282,0,0,0,28.252,28.252H992.224a28.282,28.282,0,0,0,28.252-28.252V429.282a28.282,28.282,0,0,0-28.252-28.252Z" transform="translate(-173.375 -393.5)" fill="#1899aa"/>
    </g>
    <g id="Group_946" data-name="Group 946" transform="translate(812.587 4740.743)">
      <path id="pic_big_1" d="M4.235,33.884A4.237,4.237,0,0,1,0,29.649V4.235A4.237,4.237,0,0,1,4.235,0H29.649a4.237,4.237,0,0,1,4.235,4.235V29.649a4.237,4.237,0,0,1-4.235,4.235Zm0-4.235H29.649V4.235H4.235ZM6.353,23.3l6.353-10.589,6.353,8.471L23.3,16.942,27.531,23.3Zm12.71-10.589a2.118,2.118,0,1,1,2.114,2.121A2.111,2.111,0,0,1,19.063,12.707Z" transform="translate(50.826 50.825)" fill="#1899aa"/>
      <g id="Group_945" data-name="Group 945">
        <path id="Path_1739" data-name="Path 1739" d="M457.125,557.036H369.162a23.812,23.812,0,0,1-23.787-23.786V445.287A23.813,23.813,0,0,1,369.162,421.5h87.963a23.813,23.813,0,0,1,23.787,23.787V533.25A23.812,23.812,0,0,1,457.125,557.036Zm-87.963-128.4a16.67,16.67,0,0,0-16.652,16.652V533.25A16.67,16.67,0,0,0,369.162,549.9h87.963a16.67,16.67,0,0,0,16.652-16.652V445.287a16.67,16.67,0,0,0-16.652-16.652Z" transform="translate(-345.375 -421.5)" fill="#1899aa"/>
      </g>
    </g>
    <g id="Group_950" data-name="Group 950" transform="translate(812.587 4910.163)">
      <path id="pic_big_1-2" data-name="pic_big_1" d="M4.235,33.884A4.237,4.237,0,0,1,0,29.648V4.235A4.237,4.237,0,0,1,4.235,0H29.649a4.237,4.237,0,0,1,4.235,4.235V29.648a4.237,4.237,0,0,1-4.235,4.236Zm0-4.236H29.649V4.235H4.235ZM6.353,23.3l6.353-10.589,6.353,8.471L23.3,16.942,27.531,23.3Zm12.71-10.589a2.118,2.118,0,1,1,2.114,2.121A2.111,2.111,0,0,1,19.063,12.707Z" transform="translate(50.826 50.825)" fill="#1899aa"/>
      <g id="Group_949" data-name="Group 949">
        <path id="Path_1747" data-name="Path 1747" d="M457.125,602.036H369.162a23.813,23.813,0,0,1-23.787-23.787V490.287A23.812,23.812,0,0,1,369.162,466.5h87.963a23.812,23.812,0,0,1,23.787,23.786V578.25A23.813,23.813,0,0,1,457.125,602.036Zm-87.963-128.4a16.67,16.67,0,0,0-16.652,16.652V578.25A16.67,16.67,0,0,0,369.162,594.9h87.963a16.67,16.67,0,0,0,16.652-16.652V490.287a16.67,16.67,0,0,0-16.652-16.652Z" transform="translate(-345.375 -466.5)" fill="#1899aa"/>
      </g>
    </g>
    <ellipse id="Ellipse_108" data-name="Ellipse 108" cx="17.321" cy="16.763" rx="17.321" ry="16.763" transform="translate(812.201 4673.18)" fill="#1899aa"/>
    <circle id="Ellipse_109" data-name="Ellipse 109" cx="16.763" cy="16.763" r="16.763" transform="translate(948.537 4673.18)" fill="#5352a2"/>
    <circle id="Ellipse_110" data-name="Ellipse 110" cx="16.763" cy="16.763" r="16.763" transform="translate(880.369 4673.18)" fill="#f4ef8c"/>
    <g id="Group_952" data-name="Group 952" transform="translate(236.558 4740.743)">
      <g id="Group_951" data-name="Group 951">
        <path id="Path_1748" data-name="Path 1748" d="M709.754,726.456H217.14a24.659,24.659,0,0,1-24.765-24.5V446.006A24.663,24.663,0,0,1,217.14,421.5H709.754a24.663,24.663,0,0,1,24.766,24.506V701.955A24.659,24.659,0,0,1,709.754,726.456ZM217.14,428.849A17.267,17.267,0,0,0,199.8,446.006V701.955a17.266,17.266,0,0,0,17.337,17.153H709.754a17.266,17.266,0,0,0,17.337-17.153V446.006a17.267,17.267,0,0,0-17.337-17.157Z" transform="translate(-192.375 -421.5)" fill="#1899aa"/>
      </g>
      <path id="pic_big_1-3" data-name="pic_big_1" d="M4.235,33.884A4.237,4.237,0,0,1,0,29.649V4.235A4.237,4.237,0,0,1,4.235,0H29.649a4.237,4.237,0,0,1,4.235,4.235V29.649a4.237,4.237,0,0,1-4.235,4.235Zm0-4.235H29.649V4.235H4.235ZM6.353,23.3l6.353-10.589,6.353,8.471L23.3,16.942,27.531,23.3Zm12.71-10.589a2.118,2.118,0,1,1,2.114,2.121A2.111,2.111,0,0,1,19.063,12.707Z" transform="translate(254.13 135.535)" fill="#1899aa"/>
    </g>
    <rect id="Rectangle_487" data-name="Rectangle 487" width="677.212" height="7.823" rx="1" transform="translate(236.683 5072.131)" fill="#5352a2"/>
    <rect id="Rectangle_488" data-name="Rectangle 488" width="711.855" height="7.823" rx="1" transform="translate(236.683 5105.657)" fill="#5352a2"/>
    <rect id="Rectangle_489" data-name="Rectangle 489" width="677.212" height="6.705" rx="1" transform="translate(236.683 5140.3)" fill="#5352a2"/>
  </g>
</svg>
