<svg xmlns="http://www.w3.org/2000/svg" width="251.131" height="332.63" viewBox="0 0 251.131 332.63">
  <g id="Group_491" data-name="Group 491" transform="translate(-1254.089 -2304.932)">
    <g id="Group_457" data-name="Group 457">
      <g id="Group_456" data-name="Group 456">
        <path id="Path_943" data-name="Path 943" d="M1322.639,2347.16a13.985,13.985,0,1,1,19.778,0A14,14,0,0,1,1322.639,2347.16Zm17.373-17.373a10.584,10.584,0,1,0,0,14.968A10.6,10.6,0,0,0,1340.012,2329.787Z" fill="#e6e6e6"/>
      </g>
      <rect id="Rectangle_273" data-name="Rectangle 273" width="3.402" height="28.44" rx="0.753" transform="translate(1323.841 2343.552) rotate(45)" fill="#e6e6e6"/>
      <rect id="Rectangle_274" data-name="Rectangle 274" width="3.402" height="21.772" rx="0.753" transform="matrix(-0.707, 0.707, -0.707, -0.707, 1323.889, 2361.304)" fill="#e6e6e6"/>
    </g>
    <g id="Group_459" data-name="Group 459">
      <g id="Group_458" data-name="Group 458">
        <path id="Path_944" data-name="Path 944" d="M1386.921,2351.6a23.335,23.335,0,1,1,23.335-23.335A23.361,23.361,0,0,1,1386.921,2351.6Zm0-40.994a17.659,17.659,0,1,0,17.659,17.659A17.678,17.678,0,0,0,1386.921,2310.608Z" fill="#e6e6e6"/>
      </g>
      <rect id="Rectangle_275" data-name="Rectangle 275" width="5.676" height="47.451" rx="0.753" transform="translate(1384.083 2345.926)" fill="#e6e6e6"/>
      <rect id="Rectangle_276" data-name="Rectangle 276" width="5.676" height="36.326" rx="0.753" transform="translate(1405.083 2366.813) rotate(90)" fill="#e6e6e6"/>
    </g>
    <g id="Group_471" data-name="Group 471">
      <g id="Group_461" data-name="Group 461">
        <rect id="Rectangle_277" data-name="Rectangle 277" width="8.637" height="35.758" rx="4.318" transform="translate(1293.167 2628.755) rotate(-180)" fill="#ff8f8e"/>
        <path id="Path_945" data-name="Path 945" d="M1294.192,2637.562h-26.619a7.254,7.254,0,0,1,.247-2.76c1.013-3.429,4.37-4.73,8.971-7.838a58.935,58.935,0,0,0,6.8-5.373h10.6Z" fill="#b8f2e5"/>
        <path id="Path_946" data-name="Path 946" d="M1267.571,2636.1h26.621v1.463h-26.621a7.541,7.541,0,0,1-.035-.782C1267.537,2636.536,1267.551,2636.308,1267.571,2636.1Z" fill="#fff"/>
        <circle id="Ellipse_53" data-name="Ellipse 53" cx="2.563" cy="2.563" r="2.563" transform="translate(1287.094 2628.755)" fill="#fff"/>
        <g id="Group_460" data-name="Group 460">
          <path id="Path_947" data-name="Path 947" d="M1289.657,2633.5a2.185,2.185,0,1,1,2.185-2.186A2.189,2.189,0,0,1,1289.657,2633.5Zm0-4.075a1.89,1.89,0,1,0,1.889,1.889A1.892,1.892,0,0,0,1289.657,2629.429Z" fill="#b8f2e5"/>
        </g>
        <path id="Path_948" data-name="Path 948" d="M1280.079,2624.567l3.416,3.416,1.035-1.034-3.3-3.3C1280.833,2623.967,1280.45,2624.276,1280.079,2624.567Z" fill="#fff"/>
        <path id="Path_949" data-name="Path 949" d="M1281.241,2630.237l1.035-1.034-3.583-3.583c-.421.31-.827.6-1.2.865Z" fill="#fff"/>
        <path id="Path_950" data-name="Path 950" d="M1274.858,2628.222l4.2,4.2,1.035-1.035-3.975-3.975Q1275.467,2627.838,1274.858,2628.222Z" fill="#fff"/>
      </g>
      <g id="Group_463" data-name="Group 463">
        <rect id="Rectangle_278" data-name="Rectangle 278" width="8.637" height="35.758" rx="4.318" transform="translate(1329.824 2628.755) rotate(-180)" fill="#ff8f8e"/>
        <path id="Path_951" data-name="Path 951" d="M1320.253,2637.562h26.619a7.245,7.245,0,0,0-.246-2.76c-1.014-3.429-4.371-4.73-8.972-7.838a58.939,58.939,0,0,1-6.8-5.373h-10.6Z" fill="#b8f2e5"/>
        <path id="Path_952" data-name="Path 952" d="M1346.874,2636.1h-26.621v1.463h26.621a7.575,7.575,0,0,0,.035-.782C1346.908,2636.536,1346.894,2636.308,1346.874,2636.1Z" fill="#fff"/>
        <circle id="Ellipse_54" data-name="Ellipse 54" cx="2.563" cy="2.563" r="2.563" transform="translate(1322.225 2628.755)" fill="#fff"/>
        <g id="Group_462" data-name="Group 462">
          <path id="Path_953" data-name="Path 953" d="M1324.788,2633.5a2.185,2.185,0,1,0-2.185-2.186A2.189,2.189,0,0,0,1324.788,2633.5Zm0-4.075a1.89,1.89,0,1,1-1.889,1.889A1.892,1.892,0,0,1,1324.788,2629.429Z" fill="#b8f2e5"/>
        </g>
        <path id="Path_954" data-name="Path 954" d="M1334.366,2624.567l-3.416,3.416-1.035-1.034,3.3-3.3C1333.612,2623.967,1333.995,2624.276,1334.366,2624.567Z" fill="#fff"/>
        <path id="Path_955" data-name="Path 955" d="M1333.2,2630.237l-1.035-1.034,3.583-3.583c.421.31.827.6,1.2.865Z" fill="#fff"/>
        <path id="Path_956" data-name="Path 956" d="M1339.588,2628.222l-4.2,4.2-1.035-1.035,3.976-3.975Q1338.977,2627.838,1339.588,2628.222Z" fill="#fff"/>
      </g>
      <g id="Group_464" data-name="Group 464">
        <rect id="Rectangle_279" data-name="Rectangle 279" width="14.498" height="10.633" transform="translate(1303.431 2388.661)" fill="#ff8f8e"/>
        <ellipse id="Ellipse_55" data-name="Ellipse 55" cx="7.249" cy="6.616" rx="7.249" ry="6.616" transform="translate(1303.431 2382.044)" fill="#ae324a"/>
        <path id="Path_957" data-name="Path 957" d="M1322.411,2377.186a2.067,2.067,0,0,0-1.63-2.019v-5.742a6.287,6.287,0,0,0-6.269-6.269h-7.665a6.287,6.287,0,0,0-6.269,6.269v5.693a2.068,2.068,0,0,0,0,4.135l.022,0c.324,7.929,4.712,14.209,10.079,14.209s9.771-6.3,10.082-14.249A2.069,2.069,0,0,0,1322.411,2377.186Z" fill="#ff8f8e"/>
        <path id="Path_958" data-name="Path 958" d="M1310.62,2377.909c-.136.59-.323,1.324-.582,2.159-.478,1.547-.82,2.219-.481,2.744a1.389,1.389,0,0,0,1.063.547" fill="#ae324a"/>
        <path id="Path_959" data-name="Path 959" d="M1321.7,2367.419a4.17,4.17,0,0,0,.712-2.333v-.617a4.219,4.219,0,0,0-4.207-4.207h-.914a4.181,4.181,0,0,0-2.8,1.082,7.993,7.993,0,0,0-3.212-1.96,12.6,12.6,0,0,0-8.415-.822,6.768,6.768,0,0,0-4.049,2.53,6.2,6.2,0,0,0-.949,4.1,6.141,6.141,0,0,0,1.2,3.371,10,10,0,0,0-.551,3.427c0,2.821.949,5.108,2.119,5.108v-7.248a9.419,9.419,0,0,0,2.643.751c1.161.193,8.641,1.433,11.236-1.589.138-.16.259-.321.374-.481a4.175,4.175,0,0,0,2.407.765h.914a4.176,4.176,0,0,0,2.551-.873v8.675c1.17,0,2.12-2.287,2.12-5.108A7.7,7.7,0,0,0,1321.7,2367.419Z" fill="#b8f2e5"/>
      </g>
      <g id="Group_466" data-name="Group 466">
        <path id="Path_960" data-name="Path 960" d="M1325.275,2412.032h-29.81v-13.1h29.81Z" fill="#ff8f8e"/>
        <g id="Group_465" data-name="Group 465">
          <path id="Path_961" data-name="Path 961" d="M1349.124,2476.437h-77.508c-.4-31.358,2.234-54.919,6.033-63.185a28.6,28.6,0,0,1,5.891-8.361,25.444,25.444,0,0,1,11.925-5.962c.565.715,6.282,7.7,15.743,7.279a19.594,19.594,0,0,0,14.067-7.279,24.386,24.386,0,0,1,11.924,5.962,27.122,27.122,0,0,1,5.612,8.361C1346.349,2421.58,1349.011,2445.092,1349.124,2476.437Z" fill="#b8f2e5"/>
        </g>
      </g>
      <path id="Path_962" data-name="Path 962" d="M1271.616,2476.437a418.635,418.635,0,0,0,11.924,137.128h11.925c.905-18.245,2.56-43.882,5.822-74.651,2.728-25.732,4.132-38.6,6.1-38.629,2.494-.037,6.3,20.28,11.924,113.28h11.924q4.642-35.594,9.286-71.188l8.6-65.94Z" fill="#20221d"/>
      <g id="Group_468" data-name="Group 468">
        <g id="Group_467" data-name="Group 467">
          <path id="Path_963" data-name="Path 963" d="M1322.086,2476.773a4.606,4.606,0,0,1,3.244-1.143,6.332,6.332,0,0,0,3.31-.558,7.554,7.554,0,0,0,1.73-1.679,10.15,10.15,0,0,1,6.461-3.133c3.659-.161,4.213.768,4.213.768s-7.1,7.655-10.955,7.8S1322.086,2476.773,1322.086,2476.773Z" fill="#ae324a"/>
          <path id="Path_964" data-name="Path 964" d="M1314.153,2477.651c-.623.16-1.021,1.113-1.021,1.113s6.362,1.639,7.436,1.887c2.4.555,5.528,1.435,6.384,1.752a4.626,4.626,0,0,0,2.86.477,10.335,10.335,0,0,0,2.377-1.279S1318.622,2476.5,1314.153,2477.651Z" fill="#ae324a"/>
          <path id="Path_965" data-name="Path 965" d="M1346.507,2479.767c-.192.1-1.594.446-4.4,1.137-5.659,1.393-3.759.733-5.606,1.284a10.331,10.331,0,0,1-4.7.68c-.188-.025-.652-.133-1.571-.347-1.473-.343-2.99-.581-4.12-.983-1.7-.6-4.313-1.19-5.586-1.622s-7.528-1.953-7.528-1.953a1.838,1.838,0,0,1,1.727-1.445c1.379.045,2.072.088,2.072.088a3.121,3.121,0,0,1,2.654-.884c.975.048,3.027.277,5.135.465,2,.179,3.829.277,4.961-.287,2.279-1.134,4.371-5.034,8.408-6s11.737-2.033,11.737-2.033C1350.151,2477.048,1347.683,2479.149,1346.507,2479.767Z" fill="#ff8f8e"/>
          <path id="Path_966" data-name="Path 966" d="M1316.8,2476.606a1.691,1.691,0,0,0-.413.937c1.021.049,1.748.309,3.656.538a70.82,70.82,0,0,1,7.806,1.662,1.163,1.163,0,0,1,.743.994,23.666,23.666,0,0,0-2.489-.763c-1.35-.331-6.7-1.432-7.992-1.785-.331-.091-1.94-.4-2.31-.484a3.334,3.334,0,0,1,.478-1.126Z" fill="#ae324a"/>
        </g>
        <rect id="Rectangle_280" data-name="Rectangle 280" width="11.604" height="41.735" rx="5.802" transform="translate(1331.243 2424.453) rotate(-20.662)" fill="#ff8f8e"/>
        <rect id="Rectangle_281" data-name="Rectangle 281" width="11.604" height="30.372" rx="5.802" transform="translate(1345.397 2449.251) rotate(16.075)" fill="#ff8f8e"/>
        <path id="Path_967" data-name="Path 967" d="M1341.455,2451.533l8.022-1.241a12.69,12.69,0,0,0-8.862-.986Z" fill="#ae324a"/>
        <rect id="Rectangle_282" data-name="Rectangle 282" width="23.848" height="35.773" rx="4.389" transform="translate(1316.511 2413.973) rotate(-23.825)" fill="#b8f2e5"/>
      </g>
      <g id="Group_470" data-name="Group 470">
        <g id="Group_469" data-name="Group 469">
          <path id="Path_968" data-name="Path 968" d="M1298.452,2476.773a4.607,4.607,0,0,0-3.245-1.143,6.332,6.332,0,0,1-3.31-.558,7.576,7.576,0,0,1-1.73-1.679,10.15,10.15,0,0,0-6.461-3.133c-3.658-.161-4.213.768-4.213.768s7.1,7.655,10.956,7.8S1298.452,2476.773,1298.452,2476.773Z" fill="#ae324a"/>
          <path id="Path_969" data-name="Path 969" d="M1306.384,2477.651c.623.16,1.021,1.113,1.021,1.113s-6.362,1.639-7.436,1.887c-2.4.555-5.528,1.435-6.384,1.752a4.626,4.626,0,0,1-2.86.477,10.357,10.357,0,0,1-2.377-1.279S1301.916,2476.5,1306.384,2477.651Z" fill="#ae324a"/>
          <path id="Path_970" data-name="Path 970" d="M1274.03,2479.767c.192.1,1.594.446,4.4,1.137,5.66,1.393,3.76.733,5.606,1.284a10.331,10.331,0,0,0,4.7.68c.189-.025.652-.133,1.571-.347,1.473-.343,2.99-.581,4.12-.983,1.7-.6,4.313-1.19,5.586-1.622s7.529-1.953,7.529-1.953a1.838,1.838,0,0,0-1.728-1.445c-1.379.045-2.072.088-2.072.088a3.12,3.12,0,0,0-2.653-.884c-.976.048-3.028.277-5.136.465-2,.179-3.829.277-4.961-.287-2.279-1.134-4.371-5.034-8.407-6s-11.738-2.033-11.738-2.033C1270.387,2477.048,1272.855,2479.149,1274.03,2479.767Z" fill="#ff8f8e"/>
          <path id="Path_971" data-name="Path 971" d="M1303.741,2476.606a1.69,1.69,0,0,1,.414.937c-1.022.049-1.749.309-3.657.538a70.82,70.82,0,0,0-7.806,1.662,1.165,1.165,0,0,0-.743.994,23.641,23.641,0,0,1,2.49-.763c1.349-.331,6.7-1.432,7.991-1.785.332-.091,1.941-.4,2.311-.484a3.355,3.355,0,0,0-.478-1.126Z" fill="#ae324a"/>
        </g>
        <rect id="Rectangle_283" data-name="Rectangle 283" width="11.604" height="41.735" rx="5.802" transform="translate(1274.568 2463.504) rotate(-159.338)" fill="#ff8f8e"/>
        <rect id="Rectangle_284" data-name="Rectangle 284" width="11.604" height="30.372" rx="5.802" transform="translate(1283.55 2478.436) rotate(163.925)" fill="#ff8f8e"/>
        <path id="Path_972" data-name="Path 972" d="M1279.083,2451.533l-8.023-1.241a12.69,12.69,0,0,1,8.862-.986Q1279.5,2450.419,1279.083,2451.533Z" fill="#ae324a"/>
        <rect id="Rectangle_285" data-name="Rectangle 285" width="23.848" height="35.773" rx="4.389" transform="translate(1289.576 2446.698) rotate(-156.175)" fill="#b8f2e5"/>
      </g>
    </g>
    <g id="Group_473" data-name="Group 473">
      <g id="Group_472" data-name="Group 472">
        <path id="Path_973" data-name="Path 973" d="M1264.654,2400.548a6.191,6.191,0,1,1,0-8.756A6.2,6.2,0,0,1,1264.654,2400.548Zm-7.69-7.691a4.685,4.685,0,1,0,6.625,0A4.69,4.69,0,0,0,1256.964,2392.857Z" fill="#e6e6e6"/>
      </g>
      <rect id="Rectangle_286" data-name="Rectangle 286" width="1.506" height="12.589" rx="0.753" transform="translate(1263.057 2400.015) rotate(-45)" fill="#e6e6e6"/>
      <rect id="Rectangle_287" data-name="Rectangle 287" width="1.506" height="9.638" rx="0.753" transform="translate(1270.915 2399.994) rotate(45)" fill="#e6e6e6"/>
    </g>
    <g id="Group_475" data-name="Group 475">
      <g id="Group_474" data-name="Group 474">
        <path id="Path_974" data-name="Path 974" d="M1341.1,2381.888a6.191,6.191,0,1,1,8.755,0A6.2,6.2,0,0,1,1341.1,2381.888Zm7.69-7.69a4.685,4.685,0,1,0,0,6.625A4.69,4.69,0,0,0,1348.789,2374.2Z" fill="#e6e6e6"/>
      </g>
      <rect id="Rectangle_288" data-name="Rectangle 288" width="1.506" height="12.589" rx="0.753" transform="translate(1341.631 2380.291) rotate(45)" fill="#e6e6e6"/>
      <rect id="Rectangle_289" data-name="Rectangle 289" width="1.506" height="9.638" rx="0.753" transform="translate(1341.652 2388.149) rotate(135)" fill="#e6e6e6"/>
    </g>
    <g id="Group_477" data-name="Group 477">
      <g id="Group_476" data-name="Group 476">
        <path id="Path_975" data-name="Path 975" d="M1281.8,2372.378a9.095,9.095,0,1,1,9.095-9.095A9.105,9.105,0,0,1,1281.8,2372.378Zm0-15.978a6.883,6.883,0,1,0,6.883,6.883A6.891,6.891,0,0,0,1281.8,2356.4Z" fill="#e6e6e6"/>
      </g>
      <rect id="Rectangle_290" data-name="Rectangle 290" width="2.212" height="18.495" rx="0.753" transform="translate(1280.694 2370.166)" fill="#e6e6e6"/>
      <rect id="Rectangle_291" data-name="Rectangle 291" width="2.212" height="14.158" rx="0.753" transform="translate(1288.879 2378.307) rotate(90)" fill="#e6e6e6"/>
    </g>
    <g id="Group_489" data-name="Group 489">
      <g id="Group_479" data-name="Group 479">
        <rect id="Rectangle_292" data-name="Rectangle 292" width="11.578" height="41.642" rx="5.789" transform="matrix(-0.676, -0.737, 0.737, -0.676, 1394.941, 2457.71)" fill="#ff8f8e"/>
        <path id="Path_976" data-name="Path 976" d="M1393.014,2443.766l7.25,4.664a4.97,4.97,0,0,0-.355-2.8,5.916,5.916,0,0,0-5.535-3.1Z" fill="#ae324a"/>
        <rect id="Rectangle_293" data-name="Rectangle 293" width="11.578" height="47.933" rx="5.789" transform="translate(1400.571 2443.766) rotate(90)" fill="#ff8f8e"/>
        <rect id="Rectangle_294" data-name="Rectangle 294" width="23.795" height="35.693" rx="4.389" transform="matrix(0.676, 0.737, -0.737, 0.676, 1427.454, 2403.658)" fill="#b8f2e5"/>
        <g id="Group_478" data-name="Group 478">
          <path id="Path_977" data-name="Path 977" d="M1373.043,2446.594l-.551,8.7s-8.778-.724-10.858-.416-5.281,1.686-7.539,1.924a6.111,6.111,0,0,1-6.336-3.592l-4.145-7.585s12.643-1.549,14.408-1.834,5.48,1.931,6.752,2.149S1373.043,2446.594,1373.043,2446.594Z" fill="#ff8f8e"/>
          <path id="Path_978" data-name="Path 978" d="M1352.661,2444.538s-9.969.968-13.655,1.588-6.742.951-8.183,1.173-3.233,3.019,1.307,2.645c4.674-.386,18.084-1.909,18.084-1.909Z" fill="#ff8f8e"/>
          <path id="Path_979" data-name="Path 979" d="M1348.327,2447.705a57.113,57.113,0,0,0-5.947,1.229c-1.343.491-.885,3.146.674,3.022a16.319,16.319,0,0,0,6.13-1.62C1350.629,2449.476,1350.616,2447.308,1348.327,2447.705Z" fill="#ff8f8e"/>
          <path id="Path_980" data-name="Path 980" d="M1350.616,2450.592a62.56,62.56,0,0,0-6.485,1.256c-1.343.49-.81,3.344,1.212,2.994s4.684-.76,6.129-1.62S1352.466,2450.292,1350.616,2450.592Z" fill="#ff8f8e"/>
          <path id="Path_981" data-name="Path 981" d="M1352.99,2453.082a55.685,55.685,0,0,0-5.813,1.136c-1.227.448-.6,3.022,1.249,2.7a17.475,17.475,0,0,0,5.347-1.436C1355.093,2454.7,1355.081,2452.719,1352.99,2453.082Z" fill="#ff8f8e"/>
          <path id="Path_982" data-name="Path 982" d="M1361.173,2451.544s-4.568-.04-6.427-1.006a14.639,14.639,0,0,1-2.469-1.53s-3.709,1.323-6.128.884c-2.217-.4-2.333-1.557-2.333-1.557s-.22,1.568,2.465,2.1c2.376.467,6.047-.727,6.047-.727a8.006,8.006,0,0,0,4.848,2.6A10.132,10.132,0,0,0,1361.173,2451.544Z" fill="#ae324a"/>
          <path id="Path_983" data-name="Path 983" d="M1345.112,2447.62c3.258-.459,6.131-2.492,10.688-3.506-1.306.121-4.536.574-4.536.574S1346.845,2446.738,1345.112,2447.62Z" fill="#ae324a"/>
          <path id="Path_984" data-name="Path 984" d="M1346.476,2454.647s3.766-1.092,4.822-1.265a6.619,6.619,0,0,1,2.86-.21c.755.265.859.831.285,1.651s-3.242,1.576-3.242,1.576,2.78-.02,3.9-1.542c.861-1.168-.072-2.052-1-2.394a4.007,4.007,0,0,0-1.733-.067s.416-1.052-.342-1.581a4.742,4.742,0,0,0-2.421-.388,10.855,10.855,0,0,0-2.583.215c-.825.264-2.9,1.206-2.9,1.206s3.788-.764,4.894-.813a3.987,3.987,0,0,1,2.387.318.739.739,0,0,1,.251.878C1351.444,2452.795,1351.265,2452.918,1346.476,2454.647Z" fill="#ae324a"/>
        </g>
      </g>
      <g id="Group_481" data-name="Group 481">
        <rect id="Rectangle_295" data-name="Rectangle 295" width="8.614" height="35.665" rx="4.307" transform="translate(1420.834 2628.778) rotate(180)" fill="#ff8f8e"/>
        <path id="Path_985" data-name="Path 985" d="M1421.856,2637.562h-26.549a7.226,7.226,0,0,1,.245-2.753c1.012-3.42,4.36-4.717,8.948-7.817a58.911,58.911,0,0,0,6.785-5.359h10.571Z" fill="#b8f2e5"/>
        <path id="Path_986" data-name="Path 986" d="M1395.305,2636.1h26.551v1.459h-26.551a7.441,7.441,0,0,1-.036-.78C1395.271,2636.539,1395.284,2636.311,1395.305,2636.1Z" fill="#fff"/>
        <circle id="Ellipse_56" data-name="Ellipse 56" cx="2.557" cy="2.557" r="2.557" transform="translate(1414.776 2628.778)" fill="#fff"/>
        <g id="Group_480" data-name="Group 480">
          <path id="Path_987" data-name="Path 987" d="M1417.333,2633.514a2.179,2.179,0,1,1,2.179-2.179A2.182,2.182,0,0,1,1417.333,2633.514Zm0-4.064a1.885,1.885,0,1,0,1.884,1.885A1.887,1.887,0,0,0,1417.333,2629.45Z" fill="#b8f2e5"/>
        </g>
        <path id="Path_988" data-name="Path 988" d="M1407.78,2624.6l3.407,3.407,1.032-1.032-3.3-3.3Q1408.336,2624.164,1407.78,2624.6Z" fill="#fff"/>
        <path id="Path_989" data-name="Path 989" d="M1408.939,2630.256l1.032-1.032-3.573-3.573c-.42.309-.825.6-1.2.863Z" fill="#fff"/>
        <path id="Path_990" data-name="Path 990" d="M1402.572,2628.247l4.189,4.188,1.032-1.032-3.965-3.965C1403.4,2627.722,1402.978,2627.99,1402.572,2628.247Z" fill="#fff"/>
      </g>
      <g id="Group_483" data-name="Group 483">
        <rect id="Rectangle_296" data-name="Rectangle 296" width="8.614" height="35.665" rx="4.307" transform="translate(1488.82 2622.016) rotate(163.828)" fill="#ff8f8e"/>
        <path id="Path_991" data-name="Path 991" d="M1492.248,2630.167l-25.5,7.4a7.246,7.246,0,0,1-.531-2.713c.019-3.567,2.873-5.745,6.417-10a58.905,58.905,0,0,0,5.024-7.037l10.152-2.944Z" fill="#b8f2e5"/>
        <path id="Path_992" data-name="Path 992" d="M1466.341,2636.161l25.5-7.395.406,1.4-25.5,7.4a7.508,7.508,0,0,1-.251-.739C1466.43,2636.588,1466.379,2636.367,1466.341,2636.161Z" fill="#fff"/>
        <circle id="Ellipse_57" data-name="Ellipse 57" cx="2.557" cy="2.557" r="2.557" transform="translate(1483.613 2622.889)" fill="#fff"/>
        <g id="Group_482" data-name="Group 482">
          <path id="Path_993" data-name="Path 993" d="M1486.776,2627.539a2.179,2.179,0,1,1,1.487-2.7A2.181,2.181,0,0,1,1486.776,2627.539Zm-1.132-3.9a1.885,1.885,0,1,0,2.335,1.285A1.887,1.887,0,0,0,1485.644,2623.636Z" fill="#b8f2e5"/>
        </g>
        <path id="Path_994" data-name="Path 994" d="M1475.119,2621.639l4.222,2.324.7-1.279-4.083-2.247C1475.675,2620.855,1475.393,2621.257,1475.119,2621.639Z" fill="#fff"/>
        <path id="Path_995" data-name="Path 995" d="M1477.808,2626.748l.7-1.279-4.427-2.436c-.317.413-.625.806-.913,1.163Z" fill="#fff"/>
        <path id="Path_996" data-name="Path 996" d="M1471.133,2626.591l5.189,2.856.7-1.278-4.913-2.7C1471.778,2625.857,1471.451,2626.231,1471.133,2626.591Z" fill="#fff"/>
      </g>
      <g id="Group_484" data-name="Group 484">
        <rect id="Rectangle_297" data-name="Rectangle 297" width="12.56" height="20.231" transform="translate(1439.929 2379.32)" fill="#ff8f8e"/>
        <path id="Path_997" data-name="Path 997" d="M1450.907,2385.528c1.567,4.043-2.861,9.131-6.891,9.411a6.267,6.267,0,0,1-4.087-1.317,6.655,6.655,0,0,1-2.27-5.267,7.186,7.186,0,0,1,6.172-6.6C1446.778,2381.392,1449.922,2382.989,1450.907,2385.528Z" fill="#ae324a"/>
        <path id="Path_998" data-name="Path 998" d="M1452.57,2376.214v-5.674a6.215,6.215,0,0,0-6.2-6.2H1438.8a6.215,6.215,0,0,0-6.2,6.2v9.714c.545,8.318,5.661,14.027,9.984,14.042,5.175.018,9.936-8.08,9.965-14.084Z" fill="#ff8f8e"/>
        <path id="Path_999" data-name="Path 999" d="M1447,2372.327c-.981-1.423-3.567-2.146-5.722-1.787-1.81.3-1.766,1.034-3.551,1.37a7.237,7.237,0,0,1-6.057-1.6,6.62,6.62,0,0,1-1.881-4.1c-.335-2.939,1.121-6.452,3.243-7.183,1.945-.67,2.676,1.145,6.348,1.237,2.493.062,2.727-.76,6.02-.854a13.08,13.08,0,0,1,5.238.636,14.549,14.549,0,0,1,5.02,4.074c7.413,9.644-.022,27.625-3.171,27.5-1.311-.053-2.976-3.291-2.591-5.653.13-.8.553-1.865,1.371-5,.1-.386.094-.4.153-.585.442-1.35,1.206-2.136.964-3.465a2.036,2.036,0,0,0-.946-1.537,1.7,1.7,0,0,0-1.6.146,2.532,2.532,0,0,0-.928,1.855c-.155.957.08,1.592-.054,1.637-.168.055-.719-.869-1.11-1.983C1446.811,2374.366,1447.81,2373.5,1447,2372.327Z" fill="#b8f2e5"/>
        <path id="Path_1000" data-name="Path 1000" d="M1451.67,2377.567c-.039.006.013-.651-.382-.894a.6.6,0,0,0-.445-.061.693.693,0,0,0-.4.464,1.076,1.076,0,0,0,.033.729c.108.3.233.282.345.574a1.053,1.053,0,0,1,.006.907.682.682,0,0,1-.67.348.427.427,0,0,1-.328-.3c-.016-.1.051-.138.148-.384a.772.772,0,0,0,.1-.407c-.041-.2-.233-.187-.311-.422a.642.642,0,0,1,.027-.43c.057-.134.11-.122.169-.24.118-.232-.043-.362.036-.649a.777.777,0,0,1,.744-.561,1.11,1.11,0,0,1,.793.4A.956.956,0,0,1,1451.67,2377.567Z" fill="#ae324a"/>
        <rect id="Rectangle_298" data-name="Rectangle 298" width="2.674" height="2.019" rx="1.009" transform="translate(1431.265 2378.31)" fill="#ff8f8e"/>
      </g>
      <g id="Group_485" data-name="Group 485">
        <rect id="Rectangle_299" data-name="Rectangle 299" width="23.786" height="17.84" rx="4.417" transform="translate(1433.611 2399.551)" fill="#ff8f8e"/>
        <path id="Path_1001" data-name="Path 1001" d="M1438.1,2399.551a18.253,18.253,0,0,0-16.186,9.8c-1.148,2.2-4.528,6.032-6.142,13.985-4.107,20.231,4.049,47.43,5.946,53.519h53.52c3.559-7.64,11.106-26.581,5.946-47.572-1.506-6.13-5.617-13.3-11.762-21.979a18.305,18.305,0,0,0-14.936-7.754,8.6,8.6,0,0,1-16.386,0Z" fill="#b8f2e5"/>
      </g>
      <g id="Group_487" data-name="Group 487">
        <g id="Group_486" data-name="Group 486">
          <rect id="Rectangle_300" data-name="Rectangle 300" width="11.573" height="41.626" rx="5.787" transform="matrix(-0.701, 0.713, -0.713, -0.701, 1505.219, 2449.458)" fill="#ff8f8e"/>
          <rect id="Rectangle_301" data-name="Rectangle 301" width="11.573" height="47.916" rx="5.787" transform="translate(1501.479 2442.728) rotate(78.078)" fill="#ff8f8e"/>
          <path id="Path_1002" data-name="Path 1002" d="M1485.322,2446.139l7.483-1.579a14.938,14.938,0,0,0-8.7.389Z" fill="#ae324a"/>
        </g>
        <rect id="Rectangle_302" data-name="Rectangle 302" width="23.786" height="35.68" rx="4.389" transform="translate(1449.569 2419.816) rotate(-45.518)" fill="#b8f2e5"/>
        <path id="Path_1003" data-name="Path 1003" d="M1478.019,2459.46s-11.58,2.182-13.787,2.391-5.334,2.741-7.877,3.078a42.819,42.819,0,0,1-8.508.006c-1.083-.031-2.047-.219-2.289-.972a1.659,1.659,0,0,1,.193-1.665s-1.7.151-1.982-.782a2.328,2.328,0,0,1,.56-2.133,1.984,1.984,0,0,1-1.642-1.318c-.229-.8.722-2,.722-2a1.637,1.637,0,0,1-.755-1.659c.071-.692,1.154-1.007,2.287-1.436.7-.265,5.171-1.324,5.857-1.64a3.009,3.009,0,0,0,.866-3.557c-1.248-2.686-1.57-4.428-.559-6.151.773-1.315,1.626-.991,1.626-.991s.189,2.866.777,3.712a21.192,21.192,0,0,1,1.894,3.563,6.919,6.919,0,0,0,3.242,2.769c.685.238,1.561.569,2.487.83a7.541,7.541,0,0,0,3.505.319c3.182-.711,12.041-3.056,12.041-3.056l.254,2.026h0Z" fill="#ff8f8e"/>
      </g>
      <g id="Group_488" data-name="Group 488">
        <path id="Path_1004" data-name="Path 1004" d="M1421.718,2476.856c4.387,18.873,8.9,34.6,12.554,46.4,5.91,19.071,9.982,32.211,17.7,48.619a259.024,259.024,0,0,0,23.191,39.722l11.41-3.191c-.342-4.661-1.013-11.8-2.442-20.408-3.171-19.111-6.02-21.037-8.52-34.477-5.393-28.994-.353-64.225-.371-70.716,0-.095-.006-1.786,0-4.084,0-.711,0-1.337,0-1.863Z" fill="#20221d"/>
        <path id="Path_1005" data-name="Path 1005" d="M1421.718,2476.856a383.739,383.739,0,0,0-11.893,136.772h11.893c5.408-30.246,15.728-50.95,24.49-64.532,10.628-16.473,27.94-36.385,29.03-66.293.091-2.511.05-4.582,0-5.947Z" fill="#444"/>
      </g>
    </g>
    <g id="Group_490" data-name="Group 490">
      <rect id="Rectangle_303" data-name="Rectangle 303" width="90.222" height="56.889" rx="6.444" transform="translate(1258.309 2416.237)" fill="#e6e6e6"/>
      <rect id="Rectangle_304" data-name="Rectangle 304" width="90.222" height="5.111" rx="2" transform="translate(1258.309 2473.126)" fill="#ccc"/>
      <path id="lock_1" d="M1295.42,2444.681a8,8,0,1,1,8,8A8.009,8.009,0,0,1,1295.42,2444.681Zm2,0a6,6,0,1,0,6-6A6,6,0,0,0,1297.42,2444.681Zm5,3V2445.4a2,2,0,1,1,2,0v2.276Z" fill="#ccc"/>
    </g>
  </g>
</svg>
