<svg xmlns="http://www.w3.org/2000/svg" width="395.191" height="456.877" viewBox="0 0 395.191 456.877">
  <g id="Group_204" data-name="Group 204" transform="translate(-2001.224 -1956.445)">
    <ellipse id="Ellipse_20" data-name="Ellipse 20" cx="109.794" cy="10.809" rx="109.794" ry="10.809" transform="translate(2048.492 2391.704)" fill="#666"/>
    <g id="Group_168" data-name="Group 168" transform="translate(2068.731 1956.445)">
      <path id="accept_cr" d="M0,10.558A10.557,10.557,0,1,1,10.557,21.116,10.569,10.569,0,0,1,0,10.558Zm2.638,0a7.919,7.919,0,1,0,7.919-7.919A7.918,7.918,0,0,0,2.638,10.558ZM8.3,14.13,5.665,11.49A1.32,1.32,0,0,1,7.531,9.624L9.237,11.33l4.347-4.346a1.319,1.319,0,0,1,1.865,1.867L10.17,14.13a1.319,1.319,0,0,1-1.866,0Z" transform="translate(139.782 139.02)" fill="#ccc"/>
      <g id="Group_165" data-name="Group 165" transform="translate(0 46.473)">
        <path id="Path_337" data-name="Path 337" d="M2140.874,2000.673l44.373,77.33-77.33,44.373-44.373-77.33,77.33-44.373m1.153-4.256-82.739,47.476,47.475,82.739,82.74-47.476-47.476-82.739Z" transform="translate(-2059.288 -1996.417)" fill="#ccc"/>
        <path id="pic_big_1" d="M6.49,20.159.276,9.33a2.082,2.082,0,0,1,.769-2.841L11.875.277a2.079,2.079,0,0,1,2.84.769l6.213,10.828a2.081,2.081,0,0,1-.77,2.84L9.33,20.927a2.079,2.079,0,0,1-2.84-.768ZM2.082,8.3,8.294,19.123,19.123,12.91,12.908,2.081ZM7.761,9.833l4.779,2.055.769-2.84,3.358,1.672L7.643,15.9ZM10.468,8.28a1.042,1.042,0,1,1,.9.522A1.04,1.04,0,0,1,10.468,8.28Z" transform="translate(54.506 54.506)" fill="#ccc"/>
      </g>
      <path id="accept_cr-2" data-name="accept_cr" d="M0,10.558A10.558,10.558,0,1,1,10.558,21.116,10.569,10.569,0,0,1,0,10.558Zm2.639,0A7.919,7.919,0,1,0,10.558,2.64,7.919,7.919,0,0,0,2.639,10.558ZM8.305,14.13l-2.64-2.639A1.32,1.32,0,0,1,7.532,9.626l1.707,1.706,4.345-4.347A1.32,1.32,0,0,1,15.45,8.853L10.171,14.13a1.317,1.317,0,0,1-1.865,0Z" transform="translate(90.367)" fill="#ccc"/>
      <g id="Group_166" data-name="Group 166" transform="translate(141.046 14.571)">
        <path id="Path_343" data-name="Path 343" d="M2272.879,1972.1v89.157h-89.157V1972.1h89.157m3.118-3.118H2180.6v95.393H2276v-95.393Z" transform="translate(-2180.604 -1968.978)" fill="#ccc"/>
        <path id="pic_big_1-2" data-name="pic_big_1" d="M2.08,16.646A2.08,2.08,0,0,1,0,14.565V2.081A2.08,2.08,0,0,1,2.08,0H14.564a2.081,2.081,0,0,1,2.081,2.081V14.565a2.081,2.081,0,0,1-2.081,2.08Zm0-2.08H14.564V2.081H2.08Zm1.04-3.121,3.122-5.2L9.363,10.4l2.08-2.081,2.081,3.121Zm6.243-5.2a1.041,1.041,0,1,1,1.04,1.04A1.042,1.042,0,0,1,9.363,6.243Z" transform="translate(39.374 39.374)" fill="#ccc"/>
      </g>
      <g id="Group_167" data-name="Group 167" transform="translate(100.896 179.878)">
        <path id="Path_347" data-name="Path 347" d="M2223.512,2130.516l-16.737,58.087-58.087-16.739,16.738-58.086,58.086,16.737m2.617-1.445-62.15-17.909-17.909,62.15,62.15,17.909,17.909-62.15Z" transform="translate(-2146.07 -2111.161)" fill="#ccc"/>
        <path id="pic_big_1-3" data-name="pic_big_1" d="M9.154,13.245,1.021,10.9A1.411,1.411,0,0,1,.055,9.155L2.4,1.021A1.41,1.41,0,0,1,4.145.056L12.28,2.4a1.41,1.41,0,0,1,.965,1.746L10.9,12.28a1.41,1.41,0,0,1-1.746.965Zm-7.743-3.7L9.545,11.89,11.89,3.755,3.755,1.411ZM2.675,7.707l3.01-2.8L6.937,8.2l1.747-.965.77,2.423ZM8.2,6.363a.7.7,0,1,1,.2.028A.7.7,0,0,1,8.2,6.363Z" transform="translate(33.379 33.379)" fill="#ccc"/>
      </g>
    </g>
    <g id="Group_169" data-name="Group 169" transform="translate(2001.224 2365.188)">
      <path id="Path_351" data-name="Path 351" d="M2027.862,2308.019c-4.979-.3-5.063,8.544-5.021,11.451.112,7.79,1.365,15.569,1.893,23.341-.058.483-.115.968-.174,1.451a.94.94,0,0,0,1.158,1.042.883.883,0,0,0,1.185-.9c-.027-.485-.063-.968-.093-1.452,1.045-8.274,2.272-16.581,3.047-24.914C2030.057,2315.879,2031.578,2308.242,2027.862,2308.019Z" transform="translate(-1997.709 -2308.011)" fill="#b388eb"/>
      <path id="Path_352" data-name="Path 352" d="M2049.693,2325.577c-3.472-3.4-9.528-.541-12.455,1.953-4.1,3.5-6.8,8.978-8.4,14.032a.964.964,0,0,0,0,.622c-.2,1.032,1.324,1.8,1.9.73,2.874-5.382,9.476-7.725,14.57-10.508C2047.331,2331.3,2052.557,2328.384,2049.693,2325.577Z" transform="translate(-1996.742 -2305.409)" fill="#b388eb"/>
      <path id="Path_353" data-name="Path 353" d="M2038.124,2316.542c-5.639-4.672-7.857,11.228-7.9,13.944a1.036,1.036,0,0,0,2.052.167,1.218,1.218,0,0,0,.154-.2C2034.107,2327.731,2042.115,2319.849,2038.124,2316.542Z" transform="translate(-1996.508 -2306.763)" fill="#b388eb"/>
      <path id="Path_354" data-name="Path 354" d="M2051.422,2336.424c-1.743-5.31-13.2,1.268-16.139,2.559a.814.814,0,0,0-.542.778,1.046,1.046,0,0,0,1.063,1.668,13.909,13.909,0,0,1,3.72-.079,46.08,46.08,0,0,0,6.393-.3C2048.044,2340.774,2052.45,2339.561,2051.422,2336.424Z" transform="translate(-1995.808 -2303.723)" fill="#b388eb"/>
      <path id="Path_355" data-name="Path 355" d="M2008.158,2332.406c5.1,2.783,11.7,5.126,14.57,10.508.573,1.071,2.1.3,1.9-.73a.957.957,0,0,0,0-.622c-1.606-5.054-4.3-10.534-8.4-14.032-2.929-2.494-8.984-5.354-12.457-1.953C2000.9,2328.384,2006.126,2331.3,2008.158,2332.406Z" transform="translate(-2000.948 -2305.409)" fill="#b388eb"/>
      <path id="Path_356" data-name="Path 356" d="M2013.551,2316.542c5.636-4.672,7.856,11.228,7.9,13.944a1.036,1.036,0,0,1-2.052.167,1.154,1.154,0,0,1-.154-.2C2017.567,2327.731,2009.558,2319.849,2013.551,2316.542Z" transform="translate(-1999.399 -2306.763)" fill="#b388eb"/>
      <path id="Path_357" data-name="Path 357" d="M2001.377,2336.424c1.742-5.31,13.2,1.268,16.14,2.559a.811.811,0,0,1,.539.778,1.046,1.046,0,0,1-1.063,1.668,13.892,13.892,0,0,0-3.718-.079,46.084,46.084,0,0,1-6.395-.3C2004.754,2340.774,2000.349,2339.561,2001.377,2336.424Z" transform="translate(-2001.224 -2303.723)" fill="#b388eb"/>
    </g>
    <g id="Group_170" data-name="Group 170" transform="translate(2268.08 2350.708)">
      <path id="Path_358" data-name="Path 358" d="M2267.533,2295.567c-6.876-.413-6.992,11.8-6.935,15.813.155,10.754,1.885,21.5,2.613,32.229-.08.667-.158,1.337-.24,2a1.3,1.3,0,0,0,1.6,1.437,1.218,1.218,0,0,0,1.637-1.241c-.036-.668-.086-1.337-.128-2.006,1.443-11.425,3.136-22.9,4.207-34.4C2270.563,2306.422,2272.663,2295.877,2267.533,2295.567Z" transform="translate(-2225.898 -2295.557)" fill="#b388eb"/>
      <path id="Path_359" data-name="Path 359" d="M2297.676,2319.813c-4.793-4.7-13.155-.748-17.2,2.7-5.665,4.827-9.387,12.4-11.6,19.375a1.326,1.326,0,0,0-.006.858c-.276,1.425,1.83,2.486,2.619,1.008,3.968-7.432,13.082-10.666,20.117-14.51C2294.415,2327.709,2301.63,2323.688,2297.676,2319.813Z" transform="translate(-2224.563 -2291.962)" fill="#b388eb"/>
      <path id="Path_360" data-name="Path 360" d="M2281.7,2307.336c-7.786-6.45-10.85,15.5-10.911,19.255a1.431,1.431,0,0,0,2.833.23,1.56,1.56,0,0,0,.212-.272C2276.153,2322.786,2287.212,2311.9,2281.7,2307.336Z" transform="translate(-2224.239 -2293.833)" fill="#b388eb"/>
      <path id="Path_361" data-name="Path 361" d="M2300.063,2334.791c-2.406-7.333-18.224,1.749-22.284,3.532a1.126,1.126,0,0,0-.748,1.073,1.445,1.445,0,0,0,1.469,2.306c1.549-.448,3.543-.122,5.135-.109a63.455,63.455,0,0,0,8.829-.41C2295.4,2340.8,2301.483,2339.121,2300.063,2334.791Z" transform="translate(-2223.273 -2289.635)" fill="#b388eb"/>
      <path id="Path_362" data-name="Path 362" d="M2240.325,2329.242c7.037,3.844,16.15,7.078,20.118,14.51.792,1.478,2.9.417,2.621-1.008a1.328,1.328,0,0,0-.006-.858c-2.217-6.979-5.937-14.548-11.6-19.375-4.044-3.445-12.405-7.394-17.2-2.7C2230.3,2323.688,2237.518,2327.709,2240.325,2329.242Z" transform="translate(-2230.369 -2291.962)" fill="#b388eb"/>
      <path id="Path_363" data-name="Path 363" d="M2247.771,2307.336c7.785-6.45,10.849,15.5,10.912,19.255a1.432,1.432,0,0,1-2.835.23,1.491,1.491,0,0,1-.211-.272C2253.316,2322.786,2242.258,2311.9,2247.771,2307.336Z" transform="translate(-2228.23 -2293.833)" fill="#b388eb"/>
      <path id="Path_364" data-name="Path 364" d="M2230.963,2334.791c2.4-7.333,18.224,1.749,22.284,3.532a1.12,1.12,0,0,1,.746,1.073,1.445,1.445,0,0,1-1.467,2.306c-1.55-.448-3.544-.122-5.134-.109a63.473,63.473,0,0,1-8.83-.41C2235.625,2340.8,2229.542,2339.121,2230.963,2334.791Z" transform="translate(-2230.751 -2289.635)" fill="#b388eb"/>
    </g>
    <g id="Group_172" data-name="Group 172" transform="translate(2074.379 2339.52)">
      <rect id="Rectangle_109" data-name="Rectangle 109" width="89.159" height="6.909" transform="translate(3.575)" fill="#b388eb"/>
      <g id="Group_171" data-name="Group 171">
        <path id="Path_365" data-name="Path 365" d="M2133.6,2287.731l16.622,59.341c.332,1.183-.923,2.31-2.8,2.518h0c-1.879.209-3.67-.581-4-1.764l-16.622-59.341c-.332-1.182.923-2.31,2.8-2.518h0C2131.477,2285.759,2133.269,2286.549,2133.6,2287.731Z" transform="translate(-2053.966 -2285.934)" fill="#b388eb"/>
        <path id="Path_366" data-name="Path 366" d="M2080.822,2287.731l-16.623,59.341c-.331,1.183.923,2.31,2.8,2.518h0c1.879.209,3.67-.581,4-1.764l16.622-59.341c.331-1.182-.923-2.31-2.8-2.518h0C2082.945,2285.759,2081.153,2286.549,2080.822,2287.731Z" transform="translate(-2064.146 -2285.934)" fill="#b388eb"/>
      </g>
    </g>
    <g id="Group_189" data-name="Group 189" transform="translate(2097.042 2172.916)">
      <g id="Group_179" data-name="Group 179" transform="translate(43.906 53.009)">
        <g id="Group_173" data-name="Group 173" transform="translate(17.482 20.582)">
          <rect id="Rectangle_110" data-name="Rectangle 110" width="13.461" height="48.414" rx="5.789" transform="translate(21.18 47.765) rotate(170.609)" fill="#ff8f8e"/>
          <path id="Path_367" data-name="Path 367" d="M2147.416,2237.84a5.318,5.318,0,0,0-3.122.744,5.393,5.393,0,0,0-2.34,3.129q.185,1.247.367,2.494Z" transform="translate(-2135.542 -2200.745)" fill="#ae324a"/>
          <rect id="Rectangle_111" data-name="Rectangle 111" width="13.461" height="55.729" rx="5.789" transform="matrix(0.994, 0.113, -0.113, 0.994, 7.58, 36.176)" fill="#ff8f8e"/>
        </g>
        <g id="Group_178" data-name="Group 178" transform="translate(10.971 92.125)">
          <g id="Group_177" data-name="Group 177">
            <g id="Group_174" data-name="Group 174" transform="translate(3.022 31.699)">
              <path id="Path_368" data-name="Path 368" d="M2142.752,2302.879s-5.051.276-6.954.5a6.176,6.176,0,0,1-2.361.037,3.123,3.123,0,0,1,2.654-2.474c2.322-.358,6.261-1.406,6.261-1.406l4.11-4.805S2146.18,2301.651,2142.752,2302.879Z" transform="translate(-2133.437 -2294.732)" fill="#ae324a"/>
            </g>
            <g id="Group_175" data-name="Group 175" transform="translate(3.688 28.479)">
              <path id="Path_369" data-name="Path 369" d="M2143.623,2299.789s-5.211-.419-7.19-.454a6.4,6.4,0,0,1-2.423-.29,3.226,3.226,0,0,1,3.061-2.165c2.427-.044,6.606-.571,6.606-.571l4.876-4.348S2147.3,2299.007,2143.623,2299.789Z" transform="translate(-2134.01 -2291.962)" fill="#ae324a"/>
            </g>
            <path id="Path_370" data-name="Path 370" d="M2146.965,2302.123s-3.6,2.973-5.488,3.566-7.59,1.927-7.59,1.927-1.024-.906,1.027-2.342a54.728,54.728,0,0,1,7.472-3.61l3.486-5.18Z" transform="translate(-2130.384 -2262.748)" fill="#ff8f8e"/>
            <g id="Group_176" data-name="Group 176">
              <path id="Path_371" data-name="Path 371" d="M2149.195,2267.467c1.586,3.173,3,5.593,3.227,8.124.342,3.818.573,10.376.78,15.508a19.555,19.555,0,0,1-.894,6.183c-1.016,3.14-1.669,6.164-3.407,11.547-1.432,4.439-5.2,10.126-5.2,10.126s-2.305-1.536-.916-4.641c1.37-3.062,3.822-15.055,3-18.908-.136-.64-1.959-2.074-1.959-2.074s-4.6,4.2-6.464,5.878c-3.869,3.483-5.522,2-6.162,1.458-1.5-1.277,2.054-3.05,3.193-4.432,1.8-2.181,3.439-5.077,3.961-12.5.188-2.674,3.157-6.771,3.207-9.32a23.184,23.184,0,0,0-1.03-3.848Z" transform="translate(-2130.838 -2267.467)" fill="#ff8f8e"/>
            </g>
          </g>
        </g>
        <rect id="Rectangle_112" data-name="Rectangle 112" width="27.665" height="41.498" rx="4.389" transform="translate(0 8.699) rotate(-18.328)" fill="#b388eb"/>
      </g>
      <g id="Group_181" data-name="Group 181" transform="translate(110.314 177.611)">
        <rect id="Rectangle_113" data-name="Rectangle 113" width="9.822" height="40.664" rx="3.332" transform="matrix(0.988, -0.153, 0.153, 0.988, 0, 1.508)" fill="#ff8f8e"/>
        <path id="Path_372" data-name="Path 372" d="M2184.611,2342.694l29.911-4.647a8.219,8.219,0,0,0-.758-3.059c-1.738-3.676-5.737-4.552-11.449-7.241a67.312,67.312,0,0,1-8.583-4.851l-11.909,1.85Z" transform="translate(-2177.984 -2290.929)" fill="#b388eb"/>
        <path id="Path_373" data-name="Path 373" d="M2213.916,2334.514,2184,2339.16l.256,1.645,29.914-4.647a8.573,8.573,0,0,0-.1-.885C2214.03,2335,2213.975,2334.745,2213.916,2334.514Z" transform="translate(-2177.63 -2289.04)" fill="#fff"/>
        <circle id="Ellipse_21" data-name="Ellipse 21" cx="2.915" cy="2.915" r="2.915" transform="translate(7.718 41.042)" fill="#fff"/>
        <g id="Group_180" data-name="Group 180" transform="translate(8.148 41.472)">
          <path id="Path_374" data-name="Path 374" d="M2188.4,2336.012a2.485,2.485,0,1,0-2.838-2.074A2.489,2.489,0,0,0,2188.4,2336.012Zm-.711-4.578a2.148,2.148,0,1,1-1.794,2.453A2.15,2.15,0,0,1,2187.685,2331.434Z" transform="translate(-2185.529 -2331.072)" fill="#b388eb"/>
        </g>
        <path id="Path_375" data-name="Path 375" d="M2196.552,2325.362l-3.242,4.435-1.343-.981,3.135-4.29C2195.6,2324.82,2196.084,2325.1,2196.552,2325.362Z" transform="translate(-2176.334 -2290.664)" fill="#fff"/>
        <path id="Path_376" data-name="Path 376" d="M2195.826,2331.689l-1.343-.982,3.4-4.652c.527.274,1.034.532,1.5.761Z" transform="translate(-2175.925 -2290.416)" fill="#fff"/>
        <path id="Path_377" data-name="Path 377" d="M2202.252,2328.091l-3.987,5.453-1.343-.982,3.773-5.161C2201.231,2327.645,2201.748,2327.873,2202.252,2328.091Z" transform="translate(-2175.528 -2290.197)" fill="#fff"/>
      </g>
      <g id="Group_182" data-name="Group 182" transform="translate(31.811)">
        <rect id="Rectangle_114" data-name="Rectangle 114" width="14.639" height="23.579" transform="translate(18.063 43.551) rotate(180)" fill="#ff8f8e"/>
        <path id="Path_378" data-name="Path 378" d="M2115.585,2166.661c-1.828,4.712,3.333,10.641,8.03,10.968a7.3,7.3,0,0,0,4.763-1.535,7.759,7.759,0,0,0,2.646-6.14,8.376,8.376,0,0,0-7.193-7.691C2120.4,2161.84,2116.731,2163.7,2115.585,2166.661Z" transform="translate(-2110.315 -2139.452)" fill="#ae324a"/>
        <path id="Path_379" data-name="Path 379" d="M2113.864,2158.635v-6.614a7.243,7.243,0,0,1,7.222-7.221h8.829a7.244,7.244,0,0,1,7.222,7.221v11.322c-.636,9.7-6.6,16.349-11.637,16.366-6.032.021-11.581-9.416-11.615-16.415Z" transform="translate(-2110.534 -2142.283)" fill="#ff8f8e"/>
        <path id="Path_380" data-name="Path 380" d="M2130.51,2157.412a29.475,29.475,0,0,0,4.407-2.5c1.168-.778,2.109-1.5,2.792-2.057a9.621,9.621,0,0,0-1.812-5.485c-1.7-2.292-4-3.017-6.219-3.721-2.088-.66-6.2-1.961-9.89.1a8.913,8.913,0,0,0-2.351,1.909,3.837,3.837,0,0,0-2.133-.13,4.622,4.622,0,0,0-2.666,2.236c-1.844,2.924-2.213,8.6-.685,15.18a42.171,42.171,0,0,0,2.4,7.248,7.023,7.023,0,0,0,1.929-3.5,9.128,9.128,0,0,0-.231-2.748c-.492-2.046-1.494-2.644-1.5-4.133,0-.153.008-1.752.982-2.2a1.844,1.844,0,0,1,1.713.246,2.2,2.2,0,0,1,.735.93,2.978,2.978,0,0,1,.294,1.371,50.294,50.294,0,0,0,6.121-.93A28.1,28.1,0,0,0,2130.51,2157.412Z" transform="translate(-2111 -2142.635)" fill="#b388eb"/>
        <path id="Path_381" data-name="Path 381" d="M2114.777,2158.271c.045.007-.015-.759.444-1.042a.691.691,0,0,1,.519-.071.8.8,0,0,1,.471.539,1.242,1.242,0,0,1-.038.85c-.127.354-.271.329-.4.67a1.224,1.224,0,0,0-.008,1.057.793.793,0,0,0,.781.406.5.5,0,0,0,.382-.344c.019-.121-.06-.162-.172-.448a.9.9,0,0,1-.115-.475c.048-.234.272-.218.363-.491a.74.74,0,0,0-.032-.5c-.065-.157-.127-.143-.2-.28-.137-.271.05-.422-.042-.757a.906.906,0,0,0-.867-.653,1.3,1.3,0,0,0-.924.465A1.113,1.113,0,0,0,2114.777,2158.271Z" transform="translate(-2110.397 -2140.343)" fill="#ae324a"/>
        <rect id="Rectangle_115" data-name="Rectangle 115" width="3.116" height="2.353" rx="0.998" transform="translate(28.162 21.148) rotate(180)" fill="#ff8f8e"/>
      </g>
      <g id="Group_184" data-name="Group 184" transform="translate(89.909 179.615)">
        <rect id="Rectangle_116" data-name="Rectangle 116" width="9.822" height="40.664" rx="3.332" transform="translate(1.165)" fill="#ff8f8e"/>
        <path id="Path_382" data-name="Path 382" d="M2160.97,2343.256h30.271a8.237,8.237,0,0,0-.281-3.139c-1.152-3.9-4.97-5.378-10.2-8.913a67.276,67.276,0,0,1-7.736-6.111H2160.97Z" transform="translate(-2160.97 -2292.577)" fill="#b388eb"/>
        <path id="Path_383" data-name="Path 383" d="M2191.243,2339.284H2160.97v1.664h30.273a8.471,8.471,0,0,0,.041-.889C2191.281,2339.781,2191.266,2339.521,2191.243,2339.284Z" transform="translate(-2160.97 -2290.269)" fill="#fff"/>
        <circle id="Ellipse_22" data-name="Ellipse 22" cx="2.915" cy="2.915" r="2.915" transform="translate(2.242 40.664)" fill="#fff"/>
        <g id="Group_183" data-name="Group 183" transform="translate(2.672 41.093)">
          <path id="Path_384" data-name="Path 384" d="M2165.754,2337.44a2.485,2.485,0,1,0-2.486-2.485A2.489,2.489,0,0,0,2165.754,2337.44Zm0-4.634a2.149,2.149,0,1,1-2.148,2.149A2.152,2.152,0,0,1,2165.754,2332.806Z" transform="translate(-2163.268 -2332.47)" fill="#b388eb"/>
        </g>
        <path id="Path_385" data-name="Path 385" d="M2175.482,2328.151l-3.885,3.885-1.177-1.177,3.759-3.758Q2174.849,2327.652,2175.482,2328.151Z" transform="translate(-2159.433 -2292.25)" fill="#fff"/>
        <path id="Path_386" data-name="Path 386" d="M2173.8,2334.284l-1.177-1.177,4.075-4.074c.478.352.94.685,1.368.984Z" transform="translate(-2159.075 -2291.936)" fill="#fff"/>
        <path id="Path_387" data-name="Path 387" d="M2180.714,2331.708l-4.775,4.776-1.177-1.177,4.52-4.522C2179.774,2331.109,2180.251,2331.415,2180.714,2331.708Z" transform="translate(-2158.727 -2291.651)" fill="#fff"/>
      </g>
      <path id="Path_388" data-name="Path 388" d="M2152.671,2257.3c14.6-11.18,29.527-15.3,38.168-9.545,4.058,2.705,5.7,6.9,8.515,14.119,3.283,8.41,4.729,16.611,5.548,34.23.379,8.157.641,18.706.346,31.084l-13.455,1.684c-7.6-36.135-19.065-46.875-28.714-49.468-15.332-4.122-29.835,11.322-45.3,4.064-8.659-4.064-13.03-13.1-15.346-19.882Z" transform="translate(-2080.581 -2125.961)" fill="#20221d"/>
      <g id="Group_185" data-name="Group 185" transform="translate(0 43.551)">
        <rect id="Rectangle_117" data-name="Rectangle 117" width="27.12" height="20.34" rx="4.417" transform="translate(56.236 20.34) rotate(180)" fill="#ff8f8e"/>
        <path id="Path_389" data-name="Path 389" d="M2134.757,2180.094a20.811,20.811,0,0,1,18.455,11.175c1.309,2.507,5.163,6.877,7,15.945,4.682,23.067-4.617,54.078-6.781,61.021h-61.021c-4.059-8.711-12.663-30.308-6.779-54.241,1.717-6.988,6.4-15.164,13.41-25.058a20.871,20.871,0,0,1,17.029-8.842,9.807,9.807,0,0,0,18.684,0Z" transform="translate(-2083.638 -2180.094)" fill="#b388eb"/>
      </g>
      <path id="Path_390" data-name="Path 390" d="M2153.907,2251.43c3.374-1.509,15.091-6.272,24.149-.865,8.893,5.309,10.151,17.389,11.416,29.538.8,7.72.135,14.886-1.236,28.9-.977,9.971-2.079,18.233-2.928,24.051h-13.56a92.575,92.575,0,0,0-6.242-32.569,90.677,90.677,0,0,0-6.09-12.636c-32.426,7.566-57.921.392-62.976-8.138a42.509,42.509,0,0,1-5.232-15.752,36.213,36.213,0,0,1,0-6.779Z" transform="translate(-2082.433 -2125.491)" fill="#444"/>
      <g id="Group_186" data-name="Group 186" transform="translate(56.96 40.874)">
        <rect id="Rectangle_118" data-name="Rectangle 118" width="97.318" height="11.386" rx="4.896" transform="translate(97.318 85.397) rotate(-180)" fill="#ccc"/>
        <rect id="Rectangle_119" data-name="Rectangle 119" width="85.197" height="6.768" rx="2.911" transform="translate(115.037 1.465) rotate(102.5)" fill="#e6e6e6"/>
      </g>
      <g id="Group_188" data-name="Group 188" transform="translate(1.955 57.788)">
        <rect id="Rectangle_120" data-name="Rectangle 120" width="13.675" height="49.186" rx="5.881" transform="translate(21.158 30.593) rotate(-47.467)" fill="#ff8f8e"/>
        <path id="Path_391" data-name="Path 391" d="M2137.859,2233.291l-8.564,5.509a5.878,5.878,0,0,1,.42-3.305,6.989,6.989,0,0,1,6.538-3.662Z" transform="translate(-2078.18 -2185.917)" fill="#ae324a"/>
        <rect id="Rectangle_121" data-name="Rectangle 121" width="13.675" height="56.617" rx="5.881" transform="translate(107.371 47.374) rotate(90)" fill="#ff8f8e"/>
        <rect id="Rectangle_122" data-name="Rectangle 122" width="28.106" height="42.159" rx="4.389" transform="matrix(-0.676, 0.737, -0.737, -0.676, 50.067, 28.5)" fill="#b388eb"/>
        <g id="Group_187" data-name="Group 187" transform="translate(90.072 35.371)">
          <path id="Path_392" data-name="Path 392" d="M2177.053,2233.183s6.3.341,7.355.052c1.485-.4,8.03-1.742,14.578-2.841,2.486-.417,3.88,1.8.87,2.931-2.479.935-9.119,2.069-11.951,3.06-1.571.549-1.031,1.19-.753,1.24a91.63,91.63,0,0,0,13.033,1.03c3.657-.087,4.024,2.962.376,3.387-.906.1-4.5-.135-7.464-.161-2.448-.022-4.085-.159-5.253-.029-2.061.231-2.966.64-1.042,1.679,2.908,1.571,10.163,3.619,11.027,4.035,4.261,2.053,2.4,3.729-.581,3.161-1.45-.276-8.276-2.7-12.214-3.912-.621-.192-1.276.192-.3.921l-2.684-.23-7.873-1.548Z" transform="translate(-2160.941 -2221.53)" fill="#ff8f8e"/>
          <path id="Path_393" data-name="Path 393" d="M2188.026,2226.39c-.7,2.434-5.639,5.49-6.481,6.391-.861.922-.578,1.713.783,1.773,2.481.109-1.072,3.08-1.388,4.866a.63.63,0,0,0,.03.349c-.088.369-.191.757-.308,1.131a5.818,5.818,0,0,1-2,2.851s2.324,1.361,6.253,4.046c1.2.821,3.87,2.753,4.995,3.556a34.936,34.936,0,0,1,4.955,3.946c1.021,1.273.032,3.019-2.172,1.684-3.008-1.823-7.474-4.836-9.78-5.814-1.811-.769-5.623-1.294-7.842-2.093a41.132,41.132,0,0,0-6.033-1.8c-1.242-.179-6.246-.329-6.246-.329l.417-7.9.034-.647.021-.392.126-2.4a44.386,44.386,0,0,0,5.94-.144c.694-.192,2.318-.385,3.258-1.479.51-.593,1.092-1.342,1.788-2.28a6.442,6.442,0,0,1,4.085-2.894,14.068,14.068,0,0,0,8.414-6.051C2187.45,2222.871,2188.911,2223.316,2188.026,2226.39Z" transform="translate(-2162.792 -2222.763)" fill="#ff8f8e"/>
        </g>
      </g>
    </g>
    <g id="Group_203" data-name="Group 203" transform="translate(2256.639 2082.188)">
      <g id="Group_190" data-name="Group 190" transform="translate(0 13.925)">
        <path id="Path_394" data-name="Path 394" d="M2269.425,2149.719c.052.027.1.051.161.073a1.683,1.683,0,0,0,1.829-.4l21.719-22.7,1.623,15.931a1.682,1.682,0,1,0,3.346-.341l-1.992-19.556a1.681,1.681,0,0,0-2.888-.993l-21.41,22.373-.476-28.9a1.682,1.682,0,0,0-2.415-1.487l-15.215,7.36,2.091-40.2a1.681,1.681,0,0,0-2.815-1.326l-26.666,24.464-2.048-25.886a1.682,1.682,0,0,0-3.354.265l2.32,29.325a1.683,1.683,0,0,0,2.815,1.107l26.175-24.016-2.026,38.937a1.682,1.682,0,0,0,2.413,1.6l15.4-7.45.5,30.36A1.682,1.682,0,0,0,2269.425,2149.719Z" transform="translate(-2220.911 -2076.576)" fill="#e6e6e6"/>
      </g>
      <g id="Group_194" data-name="Group 194" transform="translate(97.365 18.658)">
        <g id="Group_191" data-name="Group 191" transform="translate(20.105)">
          <path id="Path_395" data-name="Path 395" d="M2344.042,2104.846a21.232,21.232,0,0,0-16.745-23.757,19.921,19.921,0,0,0-5.348-.406l2.269,20.11Z" transform="translate(-2321.948 -2080.647)" fill="#e6e6e6"/>
        </g>
        <g id="Group_192" data-name="Group 192" transform="translate(0 0.328)">
          <path id="Path_396" data-name="Path 396" d="M2326.962,2122.992l-2.271-20.105-2.479-21.957a21.247,21.247,0,0,0-17.129,16.617,21.232,21.232,0,0,0,21.88,25.445Z" transform="translate(-2304.656 -2080.929)" fill="#e6e6e6"/>
        </g>
        <g id="Group_193" data-name="Group 193" transform="translate(22.679 22.825)">
          <path id="Path_397" data-name="Path 397" d="M2343.17,2104.166l-19.008-3.887,2.177,19.28A20.821,20.821,0,0,0,2343.17,2104.166Z" transform="translate(-2324.162 -2100.279)" fill="#e6e6e6"/>
        </g>
      </g>
      <g id="Group_198" data-name="Group 198" transform="translate(18.489 101.253)">
        <g id="Group_195" data-name="Group 195" transform="translate(1.195)">
          <path id="Path_398" data-name="Path 398" d="M2252.566,2153.928a9.721,9.721,0,0,0-13.281.814,9.109,9.109,0,0,0-1.444,1.987l8.38,3.948Z" transform="translate(-2237.841 -2151.689)" fill="#e6e6e6"/>
        </g>
        <g id="Group_196" data-name="Group 196" transform="translate(0 6.103)">
          <path id="Path_399" data-name="Path 399" d="M2255.04,2165.2l-8.379-3.948-9.151-4.311a9.726,9.726,0,0,0,2.358,10.668,9.719,9.719,0,0,0,15.172-2.409Z" transform="translate(-2236.813 -2156.938)" fill="#e6e6e6"/>
        </g>
        <g id="Group_197" data-name="Group 197" transform="translate(10.692 3.043)">
          <path id="Path_400" data-name="Path 400" d="M2252.093,2154.306l-6.083,6.471,8.035,3.785A9.531,9.531,0,0,0,2252.093,2154.306Z" transform="translate(-2246.01 -2154.306)" fill="#e6e6e6"/>
        </g>
      </g>
      <g id="Group_202" data-name="Group 202" transform="translate(51.121)">
        <g id="Group_199" data-name="Group 199" transform="translate(1.195)">
          <path id="Path_401" data-name="Path 401" d="M2280.633,2066.839a9.719,9.719,0,0,0-13.281.814,9.1,9.1,0,0,0-1.444,1.986l8.38,3.949Z" transform="translate(-2265.908 -2064.599)" fill="#e6e6e6"/>
        </g>
        <g id="Group_200" data-name="Group 200" transform="translate(0 6.102)">
          <path id="Path_402" data-name="Path 402" d="M2283.106,2078.107l-8.379-3.947-9.151-4.312a9.707,9.707,0,0,0,17.53,8.259Z" transform="translate(-2264.88 -2069.848)" fill="#e6e6e6"/>
        </g>
        <g id="Group_201" data-name="Group 201" transform="translate(10.692 3.044)">
          <path id="Path_403" data-name="Path 403" d="M2280.16,2067.217l-6.083,6.471,8.035,3.786A9.531,9.531,0,0,0,2280.16,2067.217Z" transform="translate(-2274.077 -2067.217)" fill="#e6e6e6"/>
        </g>
      </g>
    </g>
  </g>
</svg>
