<svg xmlns="http://www.w3.org/2000/svg" width="470.584" height="285.123" viewBox="0 0 470.584 285.123">
  <g id="Group_612" data-name="Group 612" transform="translate(-998.213 -1185.733)">
    <g id="Group_592" data-name="Group 592" transform="translate(273.782 111.918)">
      <g id="Group_589" data-name="Group 589" transform="translate(808.343 -1454.514)">
        <rect id="Rectangle_227" data-name="Rectangle 227" width="8.755" height="36.247" rx="4.377" transform="matrix(1, 0.006, -0.006, 1, 21.064, 2581.955)" fill="#ff8f8e"/>
        <path id="Path_779" data-name="Path 779" d="M19.736,2627.121l26.983.173a7.363,7.363,0,0,0-.232-2.8c-1.006-3.482-4.4-4.822-9.043-8a59.8,59.8,0,0,1-6.861-5.49l-10.743-.069Z" fill="#b388eb"/>
        <path id="Path_780" data-name="Path 780" d="M46.73,2625.811l-26.984-.173-.01,1.484,26.985.172a7.662,7.662,0,0,0,.04-.793C46.761,2626.254,46.749,2626.023,46.73,2625.811Z" fill="#fff"/>
        <circle id="Ellipse_44" data-name="Ellipse 44" cx="2.598" cy="2.598" r="2.598" transform="translate(21.776 2618.223)" fill="#fff"/>
        <g id="Group_378" data-name="Group 378">
          <path id="Path_781" data-name="Path 781" d="M24.36,2623.037a2.215,2.215,0,1,0-2.2-2.229A2.218,2.218,0,0,0,24.36,2623.037Zm.026-4.131a1.916,1.916,0,1,1-1.928,1.9A1.918,1.918,0,0,1,24.386,2618.906Z" fill="#b388eb"/>
        </g>
        <path id="Path_782" data-name="Path 782" d="M34.126,2614.04l-3.485,3.441-1.042-1.056,3.371-3.328Q33.564,2613.594,34.126,2614.04Z" fill="#fff"/>
        <path id="Path_783" data-name="Path 783" d="M32.911,2619.78l-1.042-1.055,3.655-3.609c.425.317.834.616,1.215.885Z" fill="#fff"/>
        <path id="Path_784" data-name="Path 784" d="M39.4,2617.779l-4.284,4.23-1.042-1.056,4.055-4Q38.78,2617.385,39.4,2617.779Z" fill="#fff"/>
      </g>
      <g id="Group_590" data-name="Group 590" transform="translate(808.343 -1454.514)">
        <rect id="Rectangle_228" data-name="Rectangle 228" width="8.755" height="36.247" rx="4.377" transform="translate(50.074 2613.961) rotate(-74.165)" fill="#ff8f8e"/>
        <path id="Path_785" data-name="Path 785" d="M93.251,2627.287l7.363-25.958a7.345,7.345,0,0,0-2.76-.523c-3.625.04-5.821,2.954-10.125,6.581a59.922,59.922,0,0,1-7.122,5.147l-2.931,10.336Z" fill="#b388eb"/>
        <path id="Path_786" data-name="Path 786" d="M99.188,2600.922l-7.364,25.961,1.427.4,7.364-25.96a7.634,7.634,0,0,0-.754-.251C99.623,2601.01,99.4,2600.96,99.188,2600.922Z" fill="#fff"/>
        <circle id="Ellipse_45" data-name="Ellipse 45" cx="2.598" cy="2.598" r="2.598" transform="translate(85.818 2618.539)" fill="#fff"/>
        <g id="Group_380" data-name="Group 380">
          <path id="Path_787" data-name="Path 787" d="M90.547,2621.742a2.215,2.215,0,1,0-2.735,1.527A2.217,2.217,0,0,0,90.547,2621.742Zm-3.973-1.127a1.915,1.915,0,1,1,1.32,2.365A1.918,1.918,0,0,1,86.574,2620.615Z" fill="#b388eb"/>
        </g>
        <path id="Path_788" data-name="Path 788" d="M84.481,2609.93l2.387,4.277-1.295.722-2.309-4.136C83.688,2610.5,84.1,2610.211,84.481,2609.93Z" fill="#fff"/>
        <path id="Path_789" data-name="Path 789" d="M89.69,2612.632l-1.3.723-2.5-4.485c.418-.325.816-.64,1.176-.935Z" fill="#fff"/>
        <path id="Path_790" data-name="Path 790" d="M89.49,2605.849l2.934,5.257-1.3.723-2.777-4.976C88.749,2606.509,89.127,2606.175,89.49,2605.849Z" fill="#fff"/>
      </g>
      <g id="Group_591" data-name="Group 591" transform="translate(808.343 -1454.514)">
        <path id="Path_802" data-name="Path 802" d="M-30.773,2580.635c13.759-18.284,30.528-28.355,41.932-24.025,6.9,2.619,10.806,10.441,15.52,19.7a87.164,87.164,0,0,1,8.674,27.95l-17.847-.488c-6.691-15.205-12.808-19.138-17.532-19.387-15.579-.819-21.271,38.515-44.924,41.17-14.036,1.575-26.8-10.049-27.493-10.691a40.426,40.426,0,0,1-11.373-19.285Z" fill="#20221d"/>
        <g id="Group_386" data-name="Group 386">
          <path id="Path_803" data-name="Path 803" d="M-30.773,2580.635c6.907.566,16.123,1.508,26.926,3.159a299.465,299.465,0,0,1,31.387,6.15,222.442,222.442,0,0,1,44.314,16.88q-2.068,8.543-4.138,17.086c-31.275-13.888-53.135-12.633-67.706-8.445-12.161,3.494-24.012,10.394-46,11.728-19.92,1.209-26.543-3.457-29.547-6.267-8.944-8.368-8.525-21.557-8.275-25.35Z" fill="#444"/>
        </g>
      </g>
    </g>
    <g id="Group_596" data-name="Group 596" transform="translate(399.969 393.688)">
      <g id="Group_593" data-name="Group 593" transform="translate(-258.627 -1049.994)">
        <rect id="Rectangle_199" data-name="Rectangle 199" width="8.33" height="34.489" rx="4.165" transform="translate(882.979 2117.362) rotate(-161.246)" fill="#ff8f8e"/>
        <path id="Path_701" data-name="Path 701" d="M881.184,2125.723l-24.311-8.254a7,7,0,0,1,1.081-2.445c1.989-2.818,5.459-2.964,10.624-4.376a56.979,56.979,0,0,0,7.879-2.8l9.68,3.286Z" fill="#b388eb"/>
        <path id="Path_702" data-name="Path 702" d="M857.325,2116.132l24.313,8.255-.454,1.336-24.313-8.255c.053-.224.121-.467.21-.725C857.159,2116.52,857.242,2116.316,857.325,2116.132Z" fill="#fff"/>
        <circle id="Ellipse_38" data-name="Ellipse 38" cx="2.472" cy="2.472" r="2.472" transform="translate(876.506 2116.142)" fill="#fff"/>
        <g id="Group_338" data-name="Group 338">
          <path id="Path_703" data-name="Path 703" d="M878.3,2120.61a2.108,2.108,0,1,1,2.673-1.318A2.111,2.111,0,0,1,878.3,2120.61Zm1.263-3.722a1.823,1.823,0,1,0,1.14,2.312A1.826,1.826,0,0,0,879.564,2116.888Z" fill="#b388eb"/>
        </g>
        <path id="Path_704" data-name="Path 704" d="M872.324,2109.478l2.061,4.179,1.266-.624-1.993-4.043Q872.969,2109.251,872.324,2109.478Z" fill="#fff"/>
        <path id="Path_705" data-name="Path 705" d="M871.628,2115.017l1.266-.624-2.162-4.383c-.48.152-.942.293-1.368.416Z" fill="#fff"/>
        <path id="Path_706" data-name="Path 706" d="M866.422,2111.2l2.533,5.138,1.266-.624-2.4-4.864C867.34,2110.973,866.874,2111.088,866.422,2111.2Z" fill="#fff"/>
      </g>
      <g id="Group_594" data-name="Group 594" transform="translate(-258.627 -1049.994)">
        <rect id="Rectangle_200" data-name="Rectangle 200" width="8.33" height="34.489" rx="4.165" transform="translate(948.038 2114.415) rotate(154.257)" fill="#ff8f8e"/>
        <path id="Path_707" data-name="Path 707" d="M947.061,2126.43H921.387a6.971,6.971,0,0,1,.238-2.662c.977-3.308,4.215-4.562,8.653-7.56a56.918,56.918,0,0,0,6.561-5.182h10.222Z" fill="#b388eb"/>
        <path id="Path_708" data-name="Path 708" d="M921.385,2125.019h25.676v1.411H921.385a7.292,7.292,0,0,1-.034-.754C921.353,2125.44,921.365,2125.22,921.385,2125.019Z" fill="#fff"/>
        <circle id="Ellipse_39" data-name="Ellipse 39" cx="2.472" cy="2.472" r="2.472" transform="translate(940.215 2117.935)" fill="#fff"/>
        <g id="Group_340" data-name="Group 340">
          <path id="Path_709" data-name="Path 709" d="M942.687,2122.515a2.107,2.107,0,1,1,2.108-2.107A2.11,2.11,0,0,1,942.687,2122.515Zm0-3.93a1.823,1.823,0,1,0,1.823,1.823A1.825,1.825,0,0,0,942.687,2118.585Z" fill="#b388eb"/>
        </g>
        <path id="Path_710" data-name="Path 710" d="M933.449,2113.9l3.3,3.295,1-1-3.187-3.187C934.176,2113.317,933.807,2113.615,933.449,2113.9Z" fill="#fff"/>
        <path id="Path_711" data-name="Path 711" d="M934.57,2119.365l1-1-3.456-3.456c-.406.3-.8.581-1.161.835Z" fill="#fff"/>
        <path id="Path_712" data-name="Path 712" d="M928.413,2117.421l4.05,4.051,1-1-3.834-3.834C929.21,2116.914,928.806,2117.173,928.413,2117.421Z" fill="#fff"/>
      </g>
      <g id="Group_595" data-name="Group 595" transform="translate(-258.627 -1049.994)">
        <path id="Path_713" data-name="Path 713" d="M923.369,1991.455c-7.348,4.14-13.269,8-17.571,10.96-13.8,9.5-16.574,13.652-17.606,15.335-2.379,3.88-3.255,7.284-4.827,17.583-2.549,16.7-3.609,29.772-4.261,36.657-.685,7.242-1.859,17.575-3.975,30.1l15.334,1.136a261.271,261.271,0,0,0,8.236-27.262c5.365-22.047,5.372-34.658,13.728-38.249,2.041-.878,2.351-.259,11.83.2,14.966.717,22.45,1.075,28.444-1.331,3.648-1.465,11.551-5.845,16.9-21.273Z" fill="#20221d"/>
      </g>
      <path id="Path_1183" data-name="Path 1183" d="M923.369,1991.455a190.591,190.591,0,0,0-13.879,22.6c-6.683,12.823-10.011,19.4-9.371,27.546.343,4.367,2.5,9.112,6.815,18.6,3.274,7.2,6.4,13.119,10.224,19.879,4.175,7.378,9.881,17.04,17.18,28.255l12.613-.361a184.97,184.97,0,0,0-18.292-57.712,114.5,114.5,0,0,0,33.651-26.126,110.381,110.381,0,0,0,7.012-8.874Z" transform="translate(-258.627 -1049.994)" fill="#444"/>
    </g>
    <g id="Group_599" data-name="Group 599" transform="translate(1044.023 472.678)">
      <g id="Group_597" data-name="Group 597" transform="translate(-421.627 -1127.994)">
        <rect id="Rectangle_205" data-name="Rectangle 205" width="8.603" height="35.617" rx="4.301" transform="translate(545.241 2117.185) rotate(-180)" fill="#ff8f8e"/>
        <path id="Path_719" data-name="Path 719" d="M546.262,2125.957H519.748a7.212,7.212,0,0,1,.245-2.75c1.01-3.415,4.354-4.711,8.936-7.806a58.834,58.834,0,0,0,6.776-5.352h10.557Z" fill="#b388eb"/>
        <path id="Path_720" data-name="Path 720" d="M519.746,2124.5h26.516v1.457H519.746a7.485,7.485,0,0,1-.036-.779C519.712,2124.935,519.725,2124.708,519.746,2124.5Z" fill="#fff"/>
        <circle id="Ellipse_40" data-name="Ellipse 40" cx="2.553" cy="2.553" r="2.553" transform="translate(539.191 2117.185)" fill="#fff"/>
        <g id="Group_346" data-name="Group 346">
          <path id="Path_721" data-name="Path 721" d="M541.745,2121.914a2.177,2.177,0,1,1,2.176-2.176A2.179,2.179,0,0,1,541.745,2121.914Zm0-4.058a1.882,1.882,0,1,0,1.882,1.882A1.885,1.885,0,0,0,541.745,2117.856Z" fill="#b388eb"/>
        </g>
        <path id="Path_722" data-name="Path 722" d="M532.2,2113.012l3.4,3.4,1.031-1.031-3.292-3.292Q532.76,2112.578,532.2,2113.012Z" fill="#fff"/>
        <path id="Path_723" data-name="Path 723" d="M533.362,2118.661l1.031-1.031-3.569-3.569c-.419.309-.824.6-1.2.862Z" fill="#fff"/>
        <path id="Path_724" data-name="Path 724" d="M527,2116.654l4.183,4.182,1.031-1.03-3.96-3.96C527.827,2116.129,527.409,2116.4,527,2116.654Z" fill="#fff"/>
      </g>
      <g id="Group_598" data-name="Group 598" transform="translate(-421.627 -1127.994)">
        <rect id="Rectangle_206" data-name="Rectangle 206" width="8.603" height="35.617" rx="4.301" transform="translate(581.754 2117.185) rotate(-180)" fill="#ff8f8e"/>
        <path id="Path_725" data-name="Path 725" d="M572.221,2125.957h26.514a7.235,7.235,0,0,0-.246-2.75c-1.01-3.415-4.353-4.711-8.936-7.806a58.834,58.834,0,0,1-6.776-5.352H572.221Z" fill="#b388eb"/>
        <path id="Path_726" data-name="Path 726" d="M598.737,2124.5H572.221v1.457h26.516a7.483,7.483,0,0,0,.035-.779C598.77,2124.935,598.757,2124.708,598.737,2124.5Z" fill="#fff"/>
        <circle id="Ellipse_41" data-name="Ellipse 41" cx="2.553" cy="2.553" r="2.553" transform="translate(574.185 2117.185)" fill="#fff"/>
        <g id="Group_348" data-name="Group 348">
          <path id="Path_727" data-name="Path 727" d="M576.738,2121.914a2.177,2.177,0,1,0-2.177-2.176A2.179,2.179,0,0,0,576.738,2121.914Zm0-4.058a1.882,1.882,0,1,1-1.882,1.882A1.884,1.884,0,0,1,576.738,2117.856Z" fill="#b388eb"/>
        </g>
        <path id="Path_728" data-name="Path 728" d="M586.278,2113.012l-3.4,3.4-1.031-1.031,3.292-3.292C585.527,2112.416,585.909,2112.723,586.278,2113.012Z" fill="#fff"/>
        <path id="Path_729" data-name="Path 729" d="M585.12,2118.661l-1.03-1.031,3.568-3.569c.42.309.824.6,1.2.862Z" fill="#fff"/>
        <path id="Path_730" data-name="Path 730" d="M591.479,2116.654l-4.183,4.182-1.031-1.03,3.96-3.96C590.656,2116.129,591.073,2116.4,591.479,2116.654Z" fill="#fff"/>
      </g>
      <path id="Path_1184" data-name="Path 1184" d="M523.775,1965.465a417,417,0,0,0,11.877,136.589h11.877c.9-18.173,2.55-43.71,5.8-74.357,2.717-25.632,4.116-38.448,6.078-38.478,2.484-.037,6.274,20.2,11.877,112.835h11.877l17.817-136.589Z" transform="translate(-421.627 -1127.994)" fill="#20221d"/>
    </g>
    <g id="Group_602" data-name="Group 602" transform="translate(20.634 756.222)">
      <g id="Group_600" data-name="Group 600" transform="translate(1275.998 -1597.859)">
        <rect id="Rectangle_76" data-name="Rectangle 76" width="8.448" height="34.975" rx="3.332" transform="translate(-1.867 2082.84)" fill="#ff8f8e"/>
        <path id="Path_229" data-name="Path 229" d="M-2.869,2126.43H23.167a7.1,7.1,0,0,0-.241-2.7c-.992-3.354-4.275-4.626-8.775-7.666a57.7,57.7,0,0,1-6.654-5.256H-2.869Z" fill="#b388eb"/>
        <path id="Path_230" data-name="Path 230" d="M23.169,2125H-2.869v1.431H23.169a7.515,7.515,0,0,0,.034-.765C23.2,2125.426,23.189,2125.2,23.169,2125Z" fill="#fff"/>
        <circle id="Ellipse_14" data-name="Ellipse 14" cx="2.507" cy="2.507" r="2.507" transform="translate(-0.941 2117.816)" fill="#fff"/>
        <g id="Group_120" data-name="Group 120">
          <path id="Path_231" data-name="Path 231" d="M1.566,2122.46a2.137,2.137,0,1,0-2.137-2.137A2.14,2.14,0,0,0,1.566,2122.46Zm0-3.985a1.848,1.848,0,1,1-1.848,1.848A1.85,1.85,0,0,1,1.566,2118.475Z" fill="#b388eb"/>
        </g>
        <path id="Path_232" data-name="Path 232" d="M10.935,2113.719l-3.342,3.342-1.012-1.012,3.232-3.233Q10.389,2113.292,10.935,2113.719Z" fill="#fff"/>
        <path id="Path_233" data-name="Path 233" d="M9.8,2119.265l-1.012-1.012,3.5-3.5c.412.3.809.589,1.178.846Z" fill="#fff"/>
        <path id="Path_234" data-name="Path 234" d="M16.042,2117.294l-4.108,4.108-1.012-1.012,3.888-3.888Q15.444,2116.918,16.042,2117.294Z" fill="#fff"/>
      </g>
      <path id="Path_1185" data-name="Path 1185" d="M-29.109,2041.621c13.659-7.982,26.835-9.908,33.594-4.071,3.175,2.742,4.125,6.5,5.76,12.96,1.9,7.527,2.263,14.681,1.08,29.806-.548,7-1.451,16.033-3.024,26.566H-3.362c-2.629-31.651-11.266-42.041-19.223-45.285-12.646-5.155-26.674,6.477-39.094-1.368-6.957-4.394-9.722-12.569-10.974-18.608Z" transform="translate(1275.998 -1597.859)" fill="#20221d"/>
      <g id="Group_601" data-name="Group 601" transform="translate(1275.998 -1597.859)">
        <rect id="Rectangle_80" data-name="Rectangle 80" width="8.448" height="34.975" rx="3.332" transform="matrix(0.203, 0.979, -0.979, 0.203, -57.628, 2092.096)" fill="#ff8f8e"/>
        <path id="Path_237" data-name="Path 237" d="M-100.516,2099.951l5.278,25.5a7.09,7.09,0,0,0,2.6-.783c3.084-1.651,3.664-5.124,5.728-10.147a57.625,57.625,0,0,1,3.8-7.581l-2.1-10.151Z" fill="#b388eb"/>
        <path id="Path_238" data-name="Path 238" d="M-93.836,2125.158l-5.279-25.5-1.4.29,5.278,25.5a7.349,7.349,0,0,0,.757-.121C-94.248,2125.277-94.032,2125.219-93.836,2125.158Z" fill="#fff"/>
        <circle id="Ellipse_15" data-name="Ellipse 15" cx="2.507" cy="2.507" r="2.507" transform="translate(-96.144 2100.549)" fill="#fff"/>
        <g id="Group_122" data-name="Group 122">
          <path id="Path_239" data-name="Path 239" d="M-95.73,2103.49a2.141,2.141,0,0,0,2.527,1.66,2.141,2.141,0,0,0,1.66-2.527,2.141,2.141,0,0,0-2.527-1.66A2.141,2.141,0,0,0-95.73,2103.49Zm3.9-.808a1.849,1.849,0,0,1-1.435,2.184,1.849,1.849,0,0,1-2.184-1.435,1.849,1.849,0,0,1,1.435-2.184A1.849,1.849,0,0,1-91.827,2102.682Z" fill="#b388eb"/>
        </g>
        <path id="Path_240" data-name="Path 240" d="M-85.27,2110.891l-3.95-2.6.786-1.2,3.82,2.51C-84.846,2110.05-85.066,2110.478-85.27,2110.891Z" fill="#fff"/>
        <path id="Path_241" data-name="Path 241" d="M-90.932,2110.9l.786-1.2,4.142,2.721c-.213.465-.413.912-.59,1.325Z" fill="#fff"/>
        <path id="Path_242" data-name="Path 242" d="M-87.736,2116.617l-4.855-3.189.786-1.2,4.6,3.02C-87.4,2115.721-87.57,2116.176-87.736,2116.617Z" fill="#fff"/>
      </g>
      <path id="Path_1186" data-name="Path 1186" d="M-20.151,2041.621a47.85,47.85,0,0,1,18.516,20.768c2.163,4.813,5.313,11.821,3.24,19.007-.659,2.286-3.583,10.609-24.9,18.541-10.8,4.02-29.782,9.225-55.881,6.945v-11.663l46.653-17.495c-3.44-.877-37.155-9.872-40.115-30.272a20.6,20.6,0,0,1,0-5.831Z" transform="translate(1275.998 -1597.859)" fill="#444"/>
    </g>
    <g id="Group_604" data-name="Group 604" transform="translate(205.414 -116.28)">
      <g id="Group_149" data-name="Group 149">
        <rect id="Rectangle_101" data-name="Rectangle 101" width="8.618" height="35.678" rx="4.309" transform="translate(1088.413 1541.73)" fill="#ff8f8e"/>
        <path id="Path_296" data-name="Path 296" d="M1087.39,1586.2h26.559a7.217,7.217,0,0,0-.246-2.755c-1.011-3.421-4.361-4.719-8.951-7.82a58.932,58.932,0,0,1-6.787-5.361H1087.39Z" fill="#b388eb"/>
        <path id="Path_297" data-name="Path 297" d="M1113.951,1584.736H1087.39v1.46h26.561c.023-.237.037-.5.036-.781C1113.985,1585.171,1113.972,1584.944,1113.951,1584.736Z" fill="#fff"/>
        <circle id="Ellipse_18" data-name="Ellipse 18" cx="2.558" cy="2.558" r="2.558" transform="translate(1089.357 1577.408)" fill="#fff"/>
        <g id="Group_148" data-name="Group 148">
          <path id="Path_298" data-name="Path 298" d="M1091.915,1582.146a2.18,2.18,0,1,0-2.181-2.18A2.183,2.183,0,0,0,1091.915,1582.146Zm0-4.066a1.885,1.885,0,1,1-1.885,1.886A1.887,1.887,0,0,1,1091.915,1578.08Z" fill="#b388eb"/>
        </g>
        <path id="Path_299" data-name="Path 299" d="M1101.472,1573.229l-3.409,3.409-1.033-1.032,3.3-3.3Q1100.915,1572.792,1101.472,1573.229Z" fill="#fff"/>
        <path id="Path_300" data-name="Path 300" d="M1100.312,1578.887l-1.033-1.033,3.575-3.574c.42.309.825.6,1.2.863Z" fill="#fff"/>
        <path id="Path_301" data-name="Path 301" d="M1106.681,1576.876l-4.19,4.19-1.032-1.032,3.966-3.966C1105.857,1576.351,1106.275,1576.619,1106.681,1576.876Z" fill="#fff"/>
      </g>
      <path id="Path_302" data-name="Path 302" d="M1114.3,1425.429c-.206,18.487-1.162,38.386-3.206,59.489a697.91,697.91,0,0,1-11.9,77.334h-11.9c-7.777-50.016-13.48-85.378-16.658-99.147a85.616,85.616,0,0,1-2.2-28.2,81.438,81.438,0,0,1,1.442-9.475Z" fill="#20221d"/>
      <g id="Group_151" data-name="Group 151">
        <rect id="Rectangle_102" data-name="Rectangle 102" width="8.618" height="35.678" rx="4.309" transform="translate(1097.443 1541.73)" fill="#ff8f8e"/>
        <path id="Path_304" data-name="Path 304" d="M1096.42,1586.2h26.559a7.222,7.222,0,0,0-.246-2.755c-1.011-3.421-4.361-4.719-8.951-7.82a58.922,58.922,0,0,1-6.787-5.361H1096.42Z" fill="#b388eb"/>
        <path id="Path_305" data-name="Path 305" d="M1122.981,1584.736H1096.42v1.46h26.561a7.786,7.786,0,0,0,.036-.781C1123.015,1585.171,1123,1584.944,1122.981,1584.736Z" fill="#fff"/>
        <circle id="Ellipse_19" data-name="Ellipse 19" cx="2.558" cy="2.558" r="2.558" transform="translate(1098.387 1577.408)" fill="#fff"/>
        <g id="Group_150" data-name="Group 150">
          <path id="Path_306" data-name="Path 306" d="M1100.945,1582.146a2.18,2.18,0,1,0-2.181-2.18A2.183,2.183,0,0,0,1100.945,1582.146Zm0-4.066a1.885,1.885,0,1,1-1.885,1.886A1.887,1.887,0,0,1,1100.945,1578.08Z" fill="#b388eb"/>
        </g>
        <path id="Path_307" data-name="Path 307" d="M1110.5,1573.229l-3.408,3.409-1.033-1.032,3.3-3.3Q1109.945,1572.792,1110.5,1573.229Z" fill="#fff"/>
        <path id="Path_308" data-name="Path 308" d="M1109.342,1578.887l-1.033-1.033,3.575-3.574c.42.309.825.6,1.2.863Z" fill="#fff"/>
        <path id="Path_309" data-name="Path 309" d="M1115.711,1576.876l-4.19,4.19-1.032-1.032,3.966-3.966C1114.887,1576.351,1115.305,1576.619,1115.711,1576.876Z" fill="#fff"/>
      </g>
      <path id="Path_315" data-name="Path 315" d="M1123.421,1425.429c-.206,18.487-1.162,38.386-3.206,59.489a697.91,697.91,0,0,1-11.9,77.334h-11.9c-12.868-55.637-21.692-96.561-23.8-107.078a133.857,133.857,0,0,1-2.744-23.8c-.061-2.69-.026-4.837,0-5.949Z" fill="#444"/>
    </g>
    <g id="Group_607" data-name="Group 607" transform="translate(1038.21 762.599)">
      <g id="Group_605" data-name="Group 605" transform="translate(298.869 478.788)">
        <rect id="Rectangle_4" data-name="Rectangle 4" width="9.359" height="38.746" rx="3.332" transform="matrix(-0.988, -0.153, 0.153, -0.988, 28.871, 39.723)" fill="#ff8f8e"/>
        <path id="Path_18" data-name="Path 18" d="M2303.7,2959.458l-28.5-4.427a7.859,7.859,0,0,1,.722-2.915c1.656-3.5,5.467-4.337,10.909-6.9a63.793,63.793,0,0,0,8.178-4.622l11.347,1.763Z" transform="translate(-2275.199 -2910.135)" fill="#b388eb"/>
        <path id="Path_19" data-name="Path 19" d="M2275.443,2952.212l28.5,4.428-.243,1.566-28.5-4.427a8.2,8.2,0,0,1,.092-.844C2275.333,2952.674,2275.386,2952.432,2275.443,2952.212Z" transform="translate(-2275.199 -2908.883)" fill="#fff"/>
        <circle id="Ellipse_1" data-name="Ellipse 1" cx="2.777" cy="2.777" r="2.777" transform="translate(21.909 39.106)" fill="#fff"/>
        <g id="Group_11" data-name="Group 11" transform="translate(22.317 39.516)">
          <path id="Path_20" data-name="Path 20" d="M2297.35,2953.477a2.368,2.368,0,1,1,2.7-1.976A2.37,2.37,0,0,1,2297.35,2953.477Zm.677-4.363a2.048,2.048,0,1,0,1.709,2.337A2.051,2.051,0,0,0,2298.027,2949.115Z" transform="translate(-2295.345 -2948.769)" fill="#b388eb"/>
        </g>
        <path id="Path_21" data-name="Path 21" d="M2289.239,2943.022l3.09,4.226,1.281-.936-2.989-4.088C2290.146,2942.505,2289.685,2942.771,2289.239,2943.022Z" transform="translate(-2273.686 -2909.959)" fill="#fff"/>
        <path id="Path_22" data-name="Path 22" d="M2289.841,2949.122l1.281-.937-3.24-4.432c-.5.263-.986.507-1.433.727Z" transform="translate(-2273.986 -2909.795)" fill="#fff"/>
        <path id="Path_23" data-name="Path 23" d="M2283.644,2945.757l3.8,5.194,1.281-.936-3.6-4.917C2284.615,2945.331,2284.123,2945.549,2283.644,2945.757Z" transform="translate(-2274.289 -2909.649)" fill="#fff"/>
      </g>
      <g id="Group_606" data-name="Group 606" transform="translate(324.246 480.698)">
        <rect id="Rectangle_7" data-name="Rectangle 7" width="9.359" height="38.746" rx="3.332" transform="translate(27.773 38.746) rotate(-180)" fill="#ff8f8e"/>
        <path id="Path_28" data-name="Path 28" d="M2326.99,2960.1h-28.843a7.863,7.863,0,0,1,.267-2.991c1.1-3.716,4.736-5.125,9.721-8.492a64,64,0,0,0,7.371-5.822h11.483Z" transform="translate(-2298.106 -2911.808)" fill="#b388eb"/>
        <path id="Path_29" data-name="Path 29" d="M2298.145,2956.982h28.845v1.585h-28.845a8.233,8.233,0,0,1-.039-.848C2298.108,2957.455,2298.123,2957.208,2298.145,2956.982Z" transform="translate(-2298.106 -2910.279)" fill="#fff"/>
        <circle id="Ellipse_2" data-name="Ellipse 2" cx="2.777" cy="2.777" r="2.777" transform="translate(21.192 38.746)" fill="#fff"/>
        <g id="Group_14" data-name="Group 14" transform="translate(21.602 39.155)">
          <path id="Path_30" data-name="Path 30" d="M2319.973,2954.9a2.368,2.368,0,1,1,2.369-2.368A2.37,2.37,0,0,1,2319.973,2954.9Zm0-4.415a2.047,2.047,0,1,0,2.049,2.047A2.05,2.05,0,0,0,2319.973,2950.489Z" transform="translate(-2317.606 -2950.168)" fill="#b388eb"/>
        </g>
        <path id="Path_31" data-name="Path 31" d="M2310.375,2945.8l3.7,3.7,1.121-1.121-3.581-3.58C2311.193,2945.15,2310.777,2945.485,2310.375,2945.8Z" transform="translate(-2296.783 -2911.592)" fill="#fff"/>
        <path id="Path_32" data-name="Path 32" d="M2311.907,2951.736l1.121-1.122-3.882-3.882c-.457.336-.9.653-1.3.937Z" transform="translate(-2297.056 -2911.384)" fill="#fff"/>
        <path id="Path_33" data-name="Path 33" d="M2305.268,2949.363l4.551,4.551,1.121-1.121-4.308-4.307Q2305.929,2948.947,2305.268,2949.363Z" transform="translate(-2297.334 -2911.195)" fill="#fff"/>
      </g>
      <path id="Path_1187" data-name="Path 1187" d="M2344.392,2874.424c-13.916-10.652-28.135-14.582-36.368-9.094-3.866,2.577-5.428,6.576-8.114,13.452-3.128,8.014-4.507,15.827-5.286,32.616-.361,7.772-.611,17.823-.33,29.618l12.821,1.6c7.243-34.429,18.166-44.663,27.359-47.135,14.61-3.926,28.43,10.789,43.161,3.874,8.252-3.874,12.415-12.479,14.623-18.946Z" transform="translate(-1974.284 -2439.727)" fill="#20221d"/>
      <path id="Path_1188" data-name="Path 1188" d="M2343.366,2868.969c-3.216-1.438-14.38-5.977-23.011-.823-8.472,5.058-9.672,16.568-10.877,28.144-.767,7.356-.128,14.184,1.179,27.541.929,9.5,1.979,17.374,2.788,22.917h12.921a88.18,88.18,0,0,1,5.947-31.033,86.365,86.365,0,0,1,5.8-12.038c30.9,7.208,55.188.372,60-7.755a40.48,40.48,0,0,0,4.985-15.01,34.485,34.485,0,0,0,0-6.461Z" transform="translate(-1972.67 -2439.416)" fill="#444"/>
    </g>
    <g id="Group_611" data-name="Group 611" transform="translate(-759.872 942.548)">
      <g id="Group_608" data-name="Group 608" transform="translate(787.659 -1057.888)">
        <rect id="Rectangle_90" data-name="Rectangle 90" width="8.614" height="35.665" rx="4.307" transform="translate(1369.596 1577.411) rotate(-180)" fill="#ff8f8e"/>
        <path id="Path_267" data-name="Path 267" d="M1370.619,1586.2h-26.55a7.257,7.257,0,0,1,.246-2.754c1.011-3.42,4.359-4.717,8.948-7.817a58.876,58.876,0,0,0,6.785-5.359h10.571Z" fill="#b388eb"/>
        <path id="Path_268" data-name="Path 268" d="M1344.067,1584.736h26.552v1.46h-26.552a7.521,7.521,0,0,1-.035-.781C1344.034,1585.172,1344.047,1584.945,1344.067,1584.736Z" fill="#fff"/>
        <circle id="Ellipse_16" data-name="Ellipse 16" cx="2.557" cy="2.557" r="2.557" transform="translate(1363.539 1577.411)" fill="#fff"/>
        <g id="Group_136" data-name="Group 136">
          <path id="Path_269" data-name="Path 269" d="M1366.095,1582.148a2.18,2.18,0,1,1,2.18-2.18A2.183,2.183,0,0,1,1366.095,1582.148Zm0-4.065a1.885,1.885,0,1,0,1.885,1.885A1.888,1.888,0,0,0,1366.095,1578.083Z" fill="#b388eb"/>
        </g>
        <path id="Path_270" data-name="Path 270" d="M1356.542,1573.234l3.408,3.407,1.032-1.032-3.3-3.3C1357.3,1572.636,1356.912,1572.944,1356.542,1573.234Z" fill="#fff"/>
        <path id="Path_271" data-name="Path 271" d="M1357.7,1578.89l1.032-1.032-3.574-3.574c-.42.309-.825.6-1.2.863Z" fill="#fff"/>
        <path id="Path_272" data-name="Path 272" d="M1351.335,1576.88l4.188,4.188,1.032-1.032-3.965-3.965C1352.159,1576.355,1351.741,1576.623,1351.335,1576.88Z" fill="#fff"/>
      </g>
      <g id="Group_609" data-name="Group 609" transform="translate(787.659 -1057.888)">
        <rect id="Rectangle_91" data-name="Rectangle 91" width="8.614" height="35.665" rx="4.307" transform="translate(1437.582 1570.649) rotate(163.828)" fill="#ff8f8e"/>
        <path id="Path_273" data-name="Path 273" d="M1441.011,1578.8l-25.5,7.394a7.228,7.228,0,0,1-.531-2.713c.018-3.566,2.873-5.744,6.417-10a58.9,58.9,0,0,0,5.024-7.037l10.152-2.944Z" fill="#b388eb"/>
        <path id="Path_274" data-name="Path 274" d="M1415.1,1584.794l25.5-7.395.407,1.4-25.5,7.4a7.6,7.6,0,0,1-.251-.74C1415.192,1585.222,1415.142,1585,1415.1,1584.794Z" fill="#fff"/>
        <circle id="Ellipse_17" data-name="Ellipse 17" cx="2.557" cy="2.557" r="2.557" transform="translate(1432.375 1571.523)" fill="#fff"/>
        <g id="Group_138" data-name="Group 138">
          <path id="Path_275" data-name="Path 275" d="M1435.539,1576.172a2.179,2.179,0,1,1,1.486-2.7A2.182,2.182,0,0,1,1435.539,1576.172Zm-1.132-3.9a1.885,1.885,0,1,0,2.335,1.285A1.887,1.887,0,0,0,1434.407,1572.269Z" fill="#b388eb"/>
        </g>
        <path id="Path_276" data-name="Path 276" d="M1423.881,1570.272l4.222,2.324.7-1.279-4.084-2.247C1424.437,1569.489,1424.156,1569.891,1423.881,1570.272Z" fill="#fff"/>
        <path id="Path_277" data-name="Path 277" d="M1426.57,1575.381l.7-1.278-4.428-2.437c-.317.413-.624.806-.913,1.163Z" fill="#fff"/>
        <path id="Path_278" data-name="Path 278" d="M1419.9,1575.224l5.189,2.856.7-1.278-4.912-2.7C1420.541,1574.49,1420.214,1574.864,1419.9,1575.224Z" fill="#fff"/>
      </g>
      <g id="Group_610" data-name="Group 610" transform="translate(787.659 -1057.888)">
        <path id="Path_286" data-name="Path 286" d="M1370.481,1425.489c4.387,18.873,8.9,34.6,12.554,46.4,5.909,19.07,9.981,32.21,17.7,48.618a259.075,259.075,0,0,0,23.192,39.723l11.41-3.192c-.343-4.66-1.013-11.8-2.442-20.408-3.172-19.11-6.021-21.037-8.52-34.477-5.393-28.994-.353-64.225-.372-70.716,0-.1-.006-1.786,0-4.083,0-.712,0-1.338,0-1.864Z" fill="#20221d"/>
        <path id="Path_287" data-name="Path 287" d="M1370.481,1425.489a383.742,383.742,0,0,0-11.893,136.772h11.893c5.407-30.246,15.727-50.95,24.49-64.531,10.627-16.474,27.94-36.385,29.029-66.294.092-2.511.05-4.581,0-5.947Z" fill="#444"/>
      </g>
    </g>
  </g>
</svg>
