<svg xmlns="http://www.w3.org/2000/svg" width="245.804" height="292.446" viewBox="0 0 245.804 292.446">
  <g id="Group_620" data-name="Group 620" transform="translate(-636.361 -1550.157)">
    <g id="Group_614" data-name="Group 614" transform="translate(165.607 -291.994)">
      <path id="Path_731" data-name="Path 731" d="M577.223,1901.313H547.529v-13.051h29.694Z" fill="#ff8f8e"/>
      <g id="Group_350" data-name="Group 350">
        <path id="Path_732" data-name="Path 732" d="M600.978,1965.465h-77.2c-.4-31.235,2.225-54.7,6.009-62.937a28.489,28.489,0,0,1,5.868-8.328,25.327,25.327,0,0,1,11.877-5.938c.563.712,6.258,7.665,15.682,7.25a19.522,19.522,0,0,0,14.012-7.25A24.284,24.284,0,0,1,589.1,1894.2a27.016,27.016,0,0,1,5.59,8.328C598.213,1910.823,600.865,1934.243,600.978,1965.465Z" fill="#b388eb"/>
      </g>
    </g>
    <g id="Group_616" data-name="Group 616" transform="translate(587.234 844.64)">
      <g id="Group_597" data-name="Group 597" transform="translate(-421.627 -1127.994)">
        <rect id="Rectangle_205" data-name="Rectangle 205" width="8.603" height="35.617" rx="4.301" transform="translate(545.241 2117.185) rotate(-180)" fill="#ff8f8e"/>
        <path id="Path_719" data-name="Path 719" d="M546.262,2125.957H519.748a7.212,7.212,0,0,1,.245-2.75c1.01-3.415,4.354-4.711,8.936-7.806a58.834,58.834,0,0,0,6.776-5.352h10.557Z" fill="#b388eb"/>
        <path id="Path_720" data-name="Path 720" d="M519.746,2124.5h26.516v1.457H519.746a7.485,7.485,0,0,1-.036-.779C519.712,2124.935,519.725,2124.708,519.746,2124.5Z" fill="#fff"/>
        <circle id="Ellipse_40" data-name="Ellipse 40" cx="2.553" cy="2.553" r="2.553" transform="translate(539.191 2117.185)" fill="#fff"/>
        <g id="Group_346" data-name="Group 346">
          <path id="Path_721" data-name="Path 721" d="M541.745,2121.914a2.177,2.177,0,1,1,2.176-2.176A2.179,2.179,0,0,1,541.745,2121.914Zm0-4.058a1.882,1.882,0,1,0,1.882,1.882A1.885,1.885,0,0,0,541.745,2117.856Z" fill="#b388eb"/>
        </g>
        <path id="Path_722" data-name="Path 722" d="M532.2,2113.012l3.4,3.4,1.031-1.031-3.292-3.292Q532.76,2112.578,532.2,2113.012Z" fill="#fff"/>
        <path id="Path_723" data-name="Path 723" d="M533.362,2118.661l1.031-1.031-3.569-3.569c-.419.309-.824.6-1.2.862Z" fill="#fff"/>
        <path id="Path_724" data-name="Path 724" d="M527,2116.654l4.183,4.182,1.031-1.03-3.96-3.96C527.827,2116.129,527.409,2116.4,527,2116.654Z" fill="#fff"/>
      </g>
      <g id="Group_598" data-name="Group 598" transform="translate(-421.627 -1127.994)">
        <rect id="Rectangle_206" data-name="Rectangle 206" width="8.603" height="35.617" rx="4.301" transform="translate(581.754 2117.185) rotate(-180)" fill="#ff8f8e"/>
        <path id="Path_725" data-name="Path 725" d="M572.221,2125.957h26.514a7.235,7.235,0,0,0-.246-2.75c-1.01-3.415-4.353-4.711-8.936-7.806a58.834,58.834,0,0,1-6.776-5.352H572.221Z" fill="#b388eb"/>
        <path id="Path_726" data-name="Path 726" d="M598.737,2124.5H572.221v1.457h26.516a7.483,7.483,0,0,0,.035-.779C598.77,2124.935,598.757,2124.708,598.737,2124.5Z" fill="#fff"/>
        <circle id="Ellipse_41" data-name="Ellipse 41" cx="2.553" cy="2.553" r="2.553" transform="translate(574.185 2117.185)" fill="#fff"/>
        <g id="Group_348" data-name="Group 348">
          <path id="Path_727" data-name="Path 727" d="M576.738,2121.914a2.177,2.177,0,1,0-2.177-2.176A2.179,2.179,0,0,0,576.738,2121.914Zm0-4.058a1.882,1.882,0,1,1-1.882,1.882A1.884,1.884,0,0,1,576.738,2117.856Z" fill="#b388eb"/>
        </g>
        <path id="Path_728" data-name="Path 728" d="M586.278,2113.012l-3.4,3.4-1.031-1.031,3.292-3.292C585.527,2112.416,585.909,2112.723,586.278,2113.012Z" fill="#fff"/>
        <path id="Path_729" data-name="Path 729" d="M585.12,2118.661l-1.03-1.031,3.568-3.569c.42.309.824.6,1.2.862Z" fill="#fff"/>
        <path id="Path_730" data-name="Path 730" d="M591.479,2116.654l-4.183,4.182-1.031-1.03,3.96-3.96C590.656,2116.129,591.073,2116.4,591.479,2116.654Z" fill="#fff"/>
      </g>
      <path id="Path_1184" data-name="Path 1184" d="M523.775,1965.465a417,417,0,0,0,11.877,136.589h11.877c.9-18.173,2.55-43.71,5.8-74.357,2.717-25.632,4.116-38.448,6.078-38.478,2.484-.037,6.274,20.2,11.877,112.835h11.877l17.817-136.589Z" transform="translate(-421.627 -1127.994)" fill="#20221d"/>
    </g>
    <g id="Group_617" data-name="Group 617" transform="translate(194.984 -283.591)">
      <rect id="Rectangle_207" data-name="Rectangle 207" width="11.558" height="80.024" rx="5.779" transform="translate(662.908 1894.463) rotate(90)" fill="#ff8f8e"/>
      <g id="Group_352" data-name="Group 352">
        <path id="Path_734" data-name="Path 734" d="M643.494,1897.088l.433,8.688s8.769-.6,10.84-.269,5.247,1.753,7.5,2.021a6.1,6.1,0,0,0,6.37-3.5l4.238-7.514s-12.6-1.715-14.352-2.022-5.495,1.853-6.767,2.053S643.494,1897.088,643.494,1897.088Z" fill="#ff8f8e"/>
        <path id="Path_735" data-name="Path 735" d="M663.859,1895.309s9.934,1.1,13.6,1.768,6.715,1.039,8.15,1.28,3.185,3.056-1.34,2.621c-4.659-.447-18.019-2.146-18.019-2.146Z" fill="#ff8f8e"/>
        <path id="Path_736" data-name="Path 736" d="M668.141,1898.528a56.9,56.9,0,0,1,5.917,1.306c1.334.507.842,3.151-.713,3.006a16.269,16.269,0,0,1-6.094-1.7C665.82,1900.264,665.862,1898.1,668.141,1898.528Z" fill="#ff8f8e"/>
        <path id="Path_737" data-name="Path 737" d="M665.819,1901.378a62.611,62.611,0,0,1,6.454,1.339c1.333.508.763,3.349-1.25,2.973s-4.664-.822-6.094-1.7S663.976,1901.054,665.819,1901.378Z" fill="#ff8f8e"/>
        <path id="Path_738" data-name="Path 738" d="M663.416,1903.83a55.51,55.51,0,0,1,5.786,1.212c1.218.463.554,3.023-1.283,2.68a17.44,17.44,0,0,1-5.316-1.505C661.3,1905.415,661.335,1903.44,663.416,1903.83Z" fill="#ff8f8e"/>
        <path id="Path_739" data-name="Path 739" d="M655.272,1902.187s4.558.02,6.426-.918a14.579,14.579,0,0,0,2.484-1.494s3.683,1.37,6.1.964c2.218-.372,2.348-1.522,2.348-1.522s.2,1.567-2.487,2.058c-2.377.434-6.024-.806-6.024-.806A7.99,7.99,0,0,1,659.25,1903,10.094,10.094,0,0,1,655.272,1902.187Z" fill="#ae324a"/>
        <path id="Path_740" data-name="Path 740" d="M671.351,1898.486c-3.245-.5-6.085-2.568-10.619-3.642,1.3.138,4.519.634,4.519.634S669.633,1897.583,671.351,1898.486Z" fill="#ae324a"/>
        <path id="Path_741" data-name="Path 741" d="M669.9,1905.48s-3.744-1.14-4.8-1.328a6.6,6.6,0,0,0-2.85-.247c-.758.255-.869.818-.307,1.644s3.214,1.615,3.214,1.615-2.774-.057-3.874-1.59c-.843-1.177.1-2.047,1.028-2.376a3.983,3.983,0,0,1,1.73-.044s-.4-1.055.362-1.573a4.731,4.731,0,0,1,2.421-.355,10.838,10.838,0,0,1,2.575.25c.82.274,2.874,1.241,2.874,1.241s-3.77-.812-4.873-.876a3.967,3.967,0,0,0-2.386.286.736.736,0,0,0-.262.872C664.963,1903.565,665.14,1903.69,669.9,1905.48Z" fill="#ae324a"/>
      </g>
      <rect id="Rectangle_208" data-name="Rectangle 208" width="23.755" height="35.632" rx="4.389" transform="translate(575.626 1912.119) rotate(-90)" fill="#b388eb"/>
    </g>
    <g id="Group_618" data-name="Group 618" transform="translate(130.788 -287.56)">
      <g id="Group_354" data-name="Group 354">
        <rect id="Rectangle_209" data-name="Rectangle 209" width="11.558" height="41.571" rx="5.779" transform="translate(523.237 1904.239) rotate(20.075)" fill="#ff8f8e"/>
        <path id="Path_742" data-name="Path 742" d="M518.519,1935.763a4.555,4.555,0,0,1,2.515,1.124,4.639,4.639,0,0,1,1.477,3.012l-.708,2.047Q520.161,1938.854,518.519,1935.763Z" fill="#ae324a"/>
        <rect id="Rectangle_210" data-name="Rectangle 210" width="11.558" height="47.852" rx="5.779" transform="translate(518.791 1983.394) rotate(-175.808)" fill="#ff8f8e"/>
      </g>
      <g id="Group_359" data-name="Group 359">
        <g id="Group_358" data-name="Group 358">
          <g id="Group_355" data-name="Group 355">
            <path id="Path_743" data-name="Path 743" d="M511.8,1999.412s4.218,1.038,5.788,1.53a5.3,5.3,0,0,0,1.986.407,2.679,2.679,0,0,0-1.846-2.51c-1.9-.671-5.058-2.183-5.058-2.183l-2.7-4.708S509.1,1997.831,511.8,1999.412Z" fill="#ae324a"/>
          </g>
          <g id="Group_356" data-name="Group 356">
            <path id="Path_744" data-name="Path 744" d="M511.547,1996.271s4.463.477,6.138.762a5.5,5.5,0,0,0,2.091.142,2.77,2.77,0,0,0-2.239-2.314c-2.04-.424-5.483-1.533-5.483-1.533l-3.422-4.446S508.566,1995.026,511.547,1996.271Z" fill="#ae324a"/>
          </g>
          <path id="Path_745" data-name="Path 745" d="M508.29,1998.339s2.564,3.082,4.062,3.882,6.1,2.834,6.1,2.834,1.008-.6-.494-2.139a46.987,46.987,0,0,0-5.73-4.235l-2.118-4.925Z" fill="#ff8f8e"/>
          <g id="Group_357" data-name="Group 357">
            <path id="Path_746" data-name="Path 746" d="M513.059,1964.833c-1.843,2.425-3.421,4.241-4.015,6.341-.9,3.167-2.135,8.664-3.127,12.961a16.761,16.761,0,0,0-.229,5.359c.357,2.812.426,5.468,1.036,10.286a44.88,44.88,0,0,0,2.777,9.372,3.077,3.077,0,0,0,1.511-3.77c-.668-2.8-.828-13.311.477-16.432.216-.518,1.982-1.438,1.982-1.438s3.211,4.274,4.519,5.988c2.71,3.556,4.341,2.569,4.967,2.212,1.467-.839-1.247-2.9-1.988-4.248-1.168-2.126-2.094-4.831-1.353-11.175.267-2.287-1.585-6.216-1.222-8.374a19.811,19.811,0,0,1,1.482-3.084Z" fill="#ff8f8e"/>
          </g>
        </g>
      </g>
      <rect id="Rectangle_211" data-name="Rectangle 211" width="23.755" height="35.632" rx="4.389" transform="translate(529.332 1934.326) rotate(-135)" fill="#b388eb"/>
    </g>
    <g id="Group_619" data-name="Group 619" transform="translate(385.848 1343.562)">
      <rect id="Rectangle_365" data-name="Rectangle 365" width="14.131" height="10.364" transform="translate(335.371 236.342)" fill="#ff8f8e"/>
      <ellipse id="Ellipse_67" data-name="Ellipse 67" cx="7.066" cy="6.449" rx="7.066" ry="6.449" transform="translate(335.371 229.893)" fill="#ae324a"/>
      <path id="Path_1172" data-name="Path 1172" d="M354.582,230.35a2.015,2.015,0,0,0-1.589-1.968v-5.6a6.129,6.129,0,0,0-6.11-6.11h-7.471a6.129,6.129,0,0,0-6.11,6.11v5.549a2.015,2.015,0,0,0,0,4.03l.021,0c.317,7.728,4.593,13.85,9.825,13.85s9.523-6.142,9.827-13.889A2.016,2.016,0,0,0,354.582,230.35Z" transform="translate(-0.71 -5.193)" fill="#ff8f8e"/>
      <path id="Path_1173" data-name="Path 1173" d="M354.388,246.335c-.133.574-.316,1.29-.567,2.1-.466,1.507-.8,2.163-.469,2.675a1.357,1.357,0,0,0,1.037.532" transform="translate(-12.009 -20.472)" fill="#ae324a"/>
      <path id="Path_1174" data-name="Path 1174" d="M353.177,215.638a4.069,4.069,0,0,0,.694-2.274v-.6a4.113,4.113,0,0,0-4.1-4.1h-.891a4.078,4.078,0,0,0-2.732,1.055,7.778,7.778,0,0,0-3.13-1.911,12.278,12.278,0,0,0-8.2-.8,6.6,6.6,0,0,0-3.947,2.466,6.046,6.046,0,0,0-.925,3.993,5.98,5.98,0,0,0,1.168,3.286,9.741,9.741,0,0,0-.537,3.341c0,2.749.925,4.978,2.066,4.978V218a9.179,9.179,0,0,0,2.575.733c1.132.187,8.423,1.4,10.953-1.549.134-.156.252-.313.364-.469a4.071,4.071,0,0,0,2.346.746h.891a4.071,4.071,0,0,0,2.486-.851v8.455c1.141,0,2.066-2.229,2.066-4.978A7.5,7.5,0,0,0,353.177,215.638Z" transform="translate(0 0)" fill="#b388eb"/>
    </g>
  </g>
</svg>
