<svg xmlns="http://www.w3.org/2000/svg" width="416.744" height="257.989" viewBox="0 0 416.744 257.989">
  <g id="Group_398" data-name="Group 398" transform="translate(91.087 -2374.514)">
    <g id="Group_377" data-name="Group 377">
      <g id="Group_365" data-name="Group 365">
        <rect id="Rectangle_214" data-name="Rectangle 214" width="8.755" height="36.247" rx="4.377" transform="translate(213.737 2623.314) rotate(179.633)" fill="#ff8f8e"/>
        <path id="Path_751" data-name="Path 751" d="M214.833,2632.235l-26.982.173a7.361,7.361,0,0,1,.232-2.8c1.006-3.483,4.4-4.822,9.043-8a59.892,59.892,0,0,0,6.861-5.49l10.743-.069Z" fill="#b8f2e5"/>
        <path id="Path_752" data-name="Path 752" d="M187.84,2630.925l26.984-.173.009,1.483-26.984.173a7.663,7.663,0,0,1-.041-.793C187.808,2631.368,187.82,2631.137,187.84,2630.925Z" fill="#fff"/>
        <circle id="Ellipse_42" data-name="Ellipse 42" cx="2.598" cy="2.598" r="2.598" transform="translate(207.598 2623.337)" fill="#fff"/>
        <g id="Group_364" data-name="Group 364">
          <path id="Path_753" data-name="Path 753" d="M210.21,2628.151a2.215,2.215,0,1,1,2.2-2.23A2.218,2.218,0,0,1,210.21,2628.151Zm-.026-4.131a1.916,1.916,0,1,0,1.927,1.9A1.919,1.919,0,0,0,210.184,2624.02Z" fill="#b8f2e5"/>
        </g>
        <path id="Path_754" data-name="Path 754" d="M200.443,2619.154l3.486,3.441,1.042-1.056-3.371-3.328C201.2,2618.541,200.818,2618.857,200.443,2619.154Z" fill="#fff"/>
        <path id="Path_755" data-name="Path 755" d="M201.659,2624.894l1.042-1.055-3.655-3.609c-.425.317-.835.616-1.215.885Z" fill="#fff"/>
        <path id="Path_756" data-name="Path 756" d="M195.175,2622.893l4.284,4.229,1.042-1.055-4.056-4C196.009,2622.354,195.586,2622.629,195.175,2622.893Z" fill="#fff"/>
      </g>
      <g id="Group_367" data-name="Group 367">
        <rect id="Rectangle_215" data-name="Rectangle 215" width="8.755" height="36.247" rx="4.377" transform="translate(149.624 2628.966) rotate(-105.835)" fill="#ff8f8e"/>
        <path id="Path_757" data-name="Path 757" d="M141.319,2632.4l-7.363-25.959a7.37,7.37,0,0,1,2.76-.523c3.625.04,5.821,2.954,10.125,6.581a59.857,59.857,0,0,0,7.121,5.148l2.932,10.335Z" fill="#b8f2e5"/>
        <path id="Path_758" data-name="Path 758" d="M135.382,2606.036l7.364,25.96-1.427.4-7.364-25.96a7.447,7.447,0,0,1,.753-.251C134.947,2606.124,135.173,2606.074,135.382,2606.036Z" fill="#fff"/>
        <circle id="Ellipse_43" data-name="Ellipse 43" cx="2.598" cy="2.598" r="2.598" transform="translate(143.555 2623.653)" fill="#fff"/>
        <g id="Group_366" data-name="Group 366">
          <path id="Path_759" data-name="Path 759" d="M144.022,2626.856a2.216,2.216,0,1,1,2.736,1.527A2.218,2.218,0,0,1,144.022,2626.856Zm3.974-1.127a1.915,1.915,0,1,0-1.32,2.365A1.918,1.918,0,0,0,148,2625.729Z" fill="#b8f2e5"/>
        </g>
        <path id="Path_760" data-name="Path 760" d="M150.088,2615.043l-2.386,4.277,1.295.723,2.308-4.137Q150.669,2615.467,150.088,2615.043Z" fill="#fff"/>
        <path id="Path_761" data-name="Path 761" d="M144.88,2617.746l1.295.722,2.5-4.485c-.418-.325-.816-.64-1.177-.935Z" fill="#fff"/>
        <path id="Path_762" data-name="Path 762" d="M145.079,2610.963l-2.933,5.257,1.295.722,2.777-4.976C145.821,2611.623,145.443,2611.289,145.079,2610.963Z" fill="#fff"/>
      </g>
      <g id="Group_369" data-name="Group 369">
        <rect id="Rectangle_216" data-name="Rectangle 216" width="11.762" height="42.306" rx="5.881" transform="matrix(-0.676, -0.737, 0.737, -0.676, 243.992, 2568.827)" fill="#ff8f8e"/>
        <path id="Path_763" data-name="Path 763" d="M242.034,2554.661l7.365,4.739a5.038,5.038,0,0,0-.361-2.843,6.01,6.01,0,0,0-5.622-3.151Z" fill="#ae324a"/>
        <rect id="Rectangle_217" data-name="Rectangle 217" width="11.762" height="48.698" rx="5.881" transform="translate(249.711 2554.661) rotate(90)" fill="#ff8f8e"/>
        <rect id="Rectangle_218" data-name="Rectangle 218" width="24.175" height="36.262" rx="4.389" transform="matrix(0.676, 0.737, -0.737, 0.676, 277.023, 2513.914)" fill="#b8f2e5"/>
        <g id="Group_368" data-name="Group 368">
          <path id="Path_764" data-name="Path 764" d="M202.035,2554.361a52.063,52.063,0,0,1-6.326.045c-1.277-.348-6.907-1.5-12.54-2.444-2.138-.358-3.336,1.545-.747,2.521,2.132.8,7.843,1.781,10.278,2.632,1.352.473.888,1.024.649,1.068a78.729,78.729,0,0,1-11.21.885c-3.145-.074-3.462,2.548-.324,2.914.779.09,3.868-.117,6.421-.139,2.105-.019,3.513-.137,4.517-.025,1.774.2,2.551.55.9,1.444-2.5,1.351-8.741,3.113-9.485,3.471-3.664,1.766-2.065,3.206.5,2.718,1.248-.237,7.119-2.318,10.506-3.364.533-.165,1.1.165.258.791l2.31-.2,6.772-1.332Z" fill="#ff8f8e"/>
          <path id="Path_765" data-name="Path 765" d="M194.188,2547.458c.6,2.092,4.851,4.721,5.575,5.5.739.792.5,1.473-.674,1.525-2.134.093.922,2.649,1.193,4.184a.542.542,0,0,1-.025.3c.075.318.164.652.264.973a5.01,5.01,0,0,0,1.721,2.453s-2,1.17-5.377,3.479c-1.032.707-3.329,2.369-4.3,3.058a30.211,30.211,0,0,0-4.263,3.394c-.878,1.1-.028,2.6,1.868,1.448,2.588-1.567,6.43-4.159,8.413-5,1.557-.661,4.836-1.112,6.745-1.8a35.465,35.465,0,0,1,5.189-1.545c1.068-.154,5.371-.283,5.371-.283l-.358-6.793-.03-.557-.017-.337-.109-2.065a38.173,38.173,0,0,1-5.109-.124,5.136,5.136,0,0,1-2.8-1.272c-.439-.51-.939-1.154-1.537-1.961a5.541,5.541,0,0,0-3.515-2.489,12.1,12.1,0,0,1-7.236-5.2C194.683,2544.431,193.428,2544.813,194.188,2547.458Z" fill="#ff8f8e"/>
          <path id="Path_766" data-name="Path 766" d="M209.474,2565.286a3,3,0,0,0,.925-1.848c.025-1.024.074-1.571.074-1.571a2.584,2.584,0,0,1,.243,2.1A2.293,2.293,0,0,1,209.474,2565.286Z" fill="#ae324a"/>
          <path id="Path_767" data-name="Path 767" d="M200.108,2566.63s-.948-2.729-1.772-4.929a19.4,19.4,0,0,0-2.628-4.45,6.818,6.818,0,0,1,2.128,2.5,19.279,19.279,0,0,1,1.99,4.365A5.174,5.174,0,0,1,200.108,2566.63Z" fill="#ae324a"/>
          <path id="Path_768" data-name="Path 768" d="M197.671,2556.62a32.257,32.257,0,0,0,2.338,4.273,12.748,12.748,0,0,0,3.886,3.291,36.686,36.686,0,0,1-3.5-3.653C199.511,2559.284,197.671,2556.62,197.671,2556.62Z" fill="#ae324a"/>
        </g>
      </g>
      <g id="Group_370" data-name="Group 370">
        <rect id="Rectangle_219" data-name="Rectangle 219" width="12.765" height="35.946" transform="translate(292.258 2489.027) rotate(26.338)" fill="#ff8f8e"/>
        <path id="Path_769" data-name="Path 769" d="M299.456,2499.632c-.395,4.389-6.722,7.026-10.52,5.464a6.36,6.36,0,0,1-3.127-3.042,6.759,6.759,0,0,1,.307-5.821,7.3,7.3,0,0,1,8.6-3.228C297.561,2494,299.7,2496.875,299.456,2499.632Z" fill="#ae324a"/>
        <path id="Path_770" data-name="Path 770" d="M305.171,2491.9l2.559-5.168a6.316,6.316,0,0,0-2.85-8.438l-6.9-3.416a6.315,6.315,0,0,0-8.437,2.85l-2.538,5.125-1.843,3.722c-3.254,7.823-1.169,15.329,2.762,17.292,4.7,2.35,12.693-2.878,15.427-8.334Z" fill="#ff8f8e"/>
        <path id="Path_771" data-name="Path 771" d="M301.853,2485.847c-.252-1.738-2.282-3.563-4.407-4.207-1.785-.541-2.074.145-3.852-.354a7.354,7.354,0,0,1-4.8-4.186,6.725,6.725,0,0,1,.135-4.582c1.02-2.828,3.93-5.371,6.193-5.079,2.073.267,1.92,2.249,5.223,3.988,2.243,1.182,2.828.538,5.869,1.937a13.3,13.3,0,0,1,4.484,2.941,14.8,14.8,0,0,1,2.735,5.974c2.4,12.127-12.476,25.152-15.287,23.616-1.17-.639-1.227-4.338.189-6.317.478-.669,1.345-1.449,3.5-3.936.266-.306.267-.325.4-.464,1.01-1.03,2.061-1.4,2.44-2.721a2.071,2.071,0,0,0-.169-1.826,1.726,1.726,0,0,0-1.523-.589,2.571,2.571,0,0,0-1.681,1.271c-.573.8-.646,1.487-.788,1.467-.178-.026-.263-1.116-.117-2.306C300.759,2487.618,302.061,2487.277,301.853,2485.847Z" fill="#b8f2e5"/>
        <path id="Path_772" data-name="Path 772" d="M303.741,2492.725c-.038-.012.3-.588.055-.987a.6.6,0,0,0-.377-.256.7.7,0,0,0-.577.24,1.094,1.094,0,0,0-.3.679c-.038.325.085.362.055.679a1.071,1.071,0,0,1-.4.828.691.691,0,0,1-.767.015.435.435,0,0,1-.166-.417c.032-.1.109-.1.308-.283.164-.15.247-.224.273-.327.053-.2-.127-.276-.093-.524a.646.646,0,0,1,.219-.379c.112-.1.155-.063.262-.143.212-.158.124-.349.325-.575a.8.8,0,0,1,.446-.244.809.809,0,0,1,.485.068,1.134,1.134,0,0,1,.543.721A.976.976,0,0,1,303.741,2492.725Z" fill="#ae324a"/>
        <rect id="Rectangle_220" data-name="Rectangle 220" width="2.717" height="2.052" rx="1.026" transform="translate(284.821 2484.2) rotate(26.338)" fill="#ff8f8e"/>
      </g>
      <g id="Group_371" data-name="Group 371">
        <rect id="Rectangle_221" data-name="Rectangle 221" width="24.175" height="18.131" rx="4.417" transform="translate(275.763 2510.332)" fill="#ff8f8e"/>
        <path id="Path_773" data-name="Path 773" d="M280.324,2510.332a18.549,18.549,0,0,0-16.449,9.961,67.8,67.8,0,0,0-3.948,6.961,43.888,43.888,0,0,0-2.3,7.252c-1.218,5.633.919,25.318,7.711,51.243l53.043,14.94a189.313,189.313,0,0,0,6.028-30.876c1.34-12.266,2.063-19.641-.3-29.263-1.531-6.229-5.709-13.518-11.954-22.337a18.605,18.605,0,0,0-15.179-7.881,8.743,8.743,0,0,1-16.655,0Z" fill="#b8f2e5"/>
      </g>
      <g id="Group_373" data-name="Group 373">
        <path id="Path_774" data-name="Path 774" d="M265.343,2585.749c-13.76-18.284-30.529-28.356-41.933-24.026-6.9,2.62-10.805,10.442-15.519,19.7a87.167,87.167,0,0,0-8.674,27.949l17.847-.487c6.691-15.205,12.807-19.139,17.532-19.387,15.578-.819,21.271,38.515,44.923,41.17,14.037,1.575,26.806-10.049,27.493-10.692a40.425,40.425,0,0,0,11.374-19.285Z" fill="#20221d"/>
        <g id="Group_372" data-name="Group 372">
          <path id="Path_775" data-name="Path 775" d="M265.343,2585.749c-6.908.566-16.123,1.508-26.927,3.158a300.02,300.02,0,0,0-31.386,6.15,222.536,222.536,0,0,0-44.314,16.881q2.068,8.543,4.138,17.086c31.275-13.889,53.135-12.633,67.705-8.446,12.161,3.5,24.013,10.4,46,11.729,19.919,1.209,26.543-3.458,29.547-6.267,8.943-8.368,8.524-21.558,8.275-25.351Z" fill="#444"/>
        </g>
      </g>
      <g id="Group_374" data-name="Group 374">
        <rect id="Rectangle_222" data-name="Rectangle 222" width="83.704" height="9.793" rx="4.896" transform="translate(173.169 2554.661)" fill="#ccc"/>
        <rect id="Rectangle_223" data-name="Rectangle 223" width="73.279" height="5.822" rx="2.911" transform="translate(163.612 2491.003) rotate(77.5)" fill="#e6e6e6"/>
      </g>
      <g id="Group_376" data-name="Group 376">
        <rect id="Rectangle_224" data-name="Rectangle 224" width="11.762" height="42.306" rx="5.881" transform="matrix(-0.676, -0.737, 0.737, -0.676, 259.551, 2570.121)" fill="#ff8f8e"/>
        <path id="Path_776" data-name="Path 776" d="M257.594,2555.955l7.365,4.739a5.056,5.056,0,0,0-.361-2.843,6.011,6.011,0,0,0-5.623-3.151Z" fill="#ae324a"/>
        <rect id="Rectangle_225" data-name="Rectangle 225" width="11.762" height="48.698" rx="5.881" transform="translate(265.271 2555.955) rotate(90)" fill="#ff8f8e"/>
        <rect id="Rectangle_226" data-name="Rectangle 226" width="24.175" height="36.262" rx="4.389" transform="matrix(0.676, 0.737, -0.737, 0.676, 292.582, 2515.208)" fill="#b8f2e5"/>
        <g id="Group_375" data-name="Group 375">
          <path id="Path_777" data-name="Path 777" d="M217.594,2555.655a52.059,52.059,0,0,1-6.326.045c-1.277-.348-6.907-1.5-12.539-2.443-2.138-.359-3.337,1.544-.748,2.52,2.133.8,7.843,1.781,10.279,2.632,1.351.473.888,1.024.649,1.068a78.741,78.741,0,0,1-11.21.885c-3.145-.074-3.462,2.548-.324,2.914.779.09,3.867-.117,6.42-.139,2.106-.019,3.514-.137,4.518-.025,1.773.2,2.551.55.9,1.444-2.5,1.351-8.741,3.113-9.484,3.471-3.665,1.766-2.065,3.206.5,2.718,1.247-.237,7.119-2.318,10.5-3.364.534-.165,1.1.165.259.791l2.309-.2,6.773-1.332Z" fill="#ff8f8e"/>
          <path id="Path_778" data-name="Path 778" d="M209.748,2548.752c.6,2.092,4.85,4.721,5.574,5.5.74.792.5,1.473-.674,1.525-2.133.093.923,2.649,1.194,4.184a.532.532,0,0,1-.026.3c.076.318.164.652.265.973a5.012,5.012,0,0,0,1.721,2.453s-2,1.17-5.377,3.479c-1.033.707-3.33,2.369-4.3,3.058a30.194,30.194,0,0,0-4.262,3.394c-.878,1.1-.028,2.6,1.868,1.449,2.587-1.568,6.43-4.16,8.412-5,1.558-.661,4.836-1.112,6.745-1.8a35.5,35.5,0,0,1,5.19-1.545c1.067-.154,5.371-.283,5.371-.283l-.359-6.793-.029-.557-.018-.337-.109-2.065a38.21,38.21,0,0,1-5.109-.124,5.136,5.136,0,0,1-2.8-1.272c-.439-.51-.939-1.154-1.538-1.961a5.539,5.539,0,0,0-3.514-2.489,12.1,12.1,0,0,1-7.237-5.2C210.243,2545.725,208.988,2546.107,209.748,2548.752Z" fill="#ff8f8e"/>
        </g>
      </g>
    </g>
    <g id="Group_391" data-name="Group 391">
      <g id="Group_379" data-name="Group 379">
        <rect id="Rectangle_227" data-name="Rectangle 227" width="8.755" height="36.247" rx="4.377" transform="matrix(1, 0.006, -0.006, 1, 21.064, 2581.955)" fill="#ff8f8e"/>
        <path id="Path_779" data-name="Path 779" d="M19.736,2627.121l26.983.173a7.363,7.363,0,0,0-.232-2.8c-1.006-3.482-4.4-4.822-9.043-8a59.8,59.8,0,0,1-6.861-5.49l-10.743-.069Z" fill="#b8f2e5"/>
        <path id="Path_780" data-name="Path 780" d="M46.73,2625.811l-26.984-.173-.01,1.484,26.985.172a7.662,7.662,0,0,0,.04-.793C46.761,2626.254,46.749,2626.023,46.73,2625.811Z" fill="#fff"/>
        <circle id="Ellipse_44" data-name="Ellipse 44" cx="2.598" cy="2.598" r="2.598" transform="translate(21.776 2618.223)" fill="#fff"/>
        <g id="Group_378" data-name="Group 378">
          <path id="Path_781" data-name="Path 781" d="M24.36,2623.037a2.215,2.215,0,1,0-2.2-2.229A2.218,2.218,0,0,0,24.36,2623.037Zm.026-4.131a1.916,1.916,0,1,1-1.928,1.9A1.918,1.918,0,0,1,24.386,2618.906Z" fill="#b8f2e5"/>
        </g>
        <path id="Path_782" data-name="Path 782" d="M34.126,2614.04l-3.485,3.441-1.042-1.056,3.371-3.328Q33.564,2613.594,34.126,2614.04Z" fill="#fff"/>
        <path id="Path_783" data-name="Path 783" d="M32.911,2619.78l-1.042-1.055,3.655-3.609c.425.317.834.616,1.215.885Z" fill="#fff"/>
        <path id="Path_784" data-name="Path 784" d="M39.4,2617.779l-4.284,4.23-1.042-1.056,4.055-4Q38.78,2617.385,39.4,2617.779Z" fill="#fff"/>
      </g>
      <g id="Group_381" data-name="Group 381">
        <rect id="Rectangle_228" data-name="Rectangle 228" width="8.755" height="36.247" rx="4.377" transform="translate(50.074 2613.961) rotate(-74.165)" fill="#ff8f8e"/>
        <path id="Path_785" data-name="Path 785" d="M93.251,2627.287l7.363-25.958a7.345,7.345,0,0,0-2.76-.523c-3.625.04-5.821,2.954-10.125,6.581a59.922,59.922,0,0,1-7.122,5.147l-2.931,10.336Z" fill="#b8f2e5"/>
        <path id="Path_786" data-name="Path 786" d="M99.188,2600.922l-7.364,25.961,1.427.4,7.364-25.96a7.634,7.634,0,0,0-.754-.251C99.623,2601.01,99.4,2600.96,99.188,2600.922Z" fill="#fff"/>
        <circle id="Ellipse_45" data-name="Ellipse 45" cx="2.598" cy="2.598" r="2.598" transform="translate(85.818 2618.539)" fill="#fff"/>
        <g id="Group_380" data-name="Group 380">
          <path id="Path_787" data-name="Path 787" d="M90.547,2621.742a2.215,2.215,0,1,0-2.735,1.527A2.217,2.217,0,0,0,90.547,2621.742Zm-3.973-1.127a1.915,1.915,0,1,1,1.32,2.365A1.918,1.918,0,0,1,86.574,2620.615Z" fill="#b8f2e5"/>
        </g>
        <path id="Path_788" data-name="Path 788" d="M84.481,2609.93l2.387,4.277-1.295.722-2.309-4.136C83.688,2610.5,84.1,2610.211,84.481,2609.93Z" fill="#fff"/>
        <path id="Path_789" data-name="Path 789" d="M89.69,2612.632l-1.3.723-2.5-4.485c.418-.325.816-.64,1.176-.935Z" fill="#fff"/>
        <path id="Path_790" data-name="Path 790" d="M89.49,2605.849l2.934,5.257-1.3.723-2.777-4.976C88.749,2606.509,89.127,2606.175,89.49,2605.849Z" fill="#fff"/>
      </g>
      <g id="Group_383" data-name="Group 383">
        <rect id="Rectangle_229" data-name="Rectangle 229" width="11.762" height="42.306" rx="5.881" transform="translate(-40.596 2535.114) rotate(-47.467)" fill="#ff8f8e"/>
        <path id="Path_791" data-name="Path 791" d="M-7.464,2549.548l-7.366,4.738a5.049,5.049,0,0,1,.362-2.843,6.007,6.007,0,0,1,5.622-3.15Z" fill="#ae324a"/>
        <rect id="Rectangle_230" data-name="Rectangle 230" width="11.762" height="48.698" rx="5.881" transform="translate(33.556 2549.548) rotate(90)" fill="#ff8f8e"/>
        <rect id="Rectangle_231" data-name="Rectangle 231" width="24.175" height="36.262" rx="4.389" transform="matrix(-0.676, 0.737, -0.737, -0.676, -15.732, 2533.314)" fill="#b8f2e5"/>
        <g id="Group_382" data-name="Group 382">
          <path id="Path_792" data-name="Path 792" d="M32.535,2549.247a51.86,51.86,0,0,0,6.326.045c1.277-.348,6.907-1.5,12.539-2.443,2.138-.359,3.337,1.544.748,2.521-2.132.8-7.843,1.78-10.279,2.632-1.351.472-.887,1.024-.648,1.067a78.867,78.867,0,0,0,11.21.886c3.145-.075,3.461,2.548.324,2.913-.779.09-3.868-.116-6.421-.139-2.1-.019-3.514-.137-4.518-.025-1.773.2-2.551.55-.9,1.444,2.5,1.351,8.741,3.113,9.484,3.471,3.665,1.766,2.066,3.207-.5,2.719-1.248-.238-7.119-2.319-10.506-3.365-.534-.165-1.1.165-.259.792l-2.309-.2-6.772-1.331Z" fill="#ff8f8e"/>
          <path id="Path_793" data-name="Path 793" d="M40.381,2542.344c-.6,2.093-4.85,4.722-5.574,5.5-.739.793-.5,1.473.674,1.525,2.134.094-.922,2.649-1.194,4.184a.554.554,0,0,0,.026.3c-.076.317-.164.651-.265.973a5,5,0,0,1-1.72,2.452s2,1.17,5.377,3.48c1.032.706,3.329,2.368,4.3,3.058a30.139,30.139,0,0,1,4.263,3.394c.877,1.095.028,2.6-1.869,1.448-2.587-1.568-6.429-4.159-8.412-5-1.557-.661-4.836-1.113-6.745-1.8a35.465,35.465,0,0,0-5.189-1.545c-1.068-.154-5.371-.283-5.371-.283l.358-6.793.029-.557.018-.337.109-2.065a38.173,38.173,0,0,0,5.109-.124,5.139,5.139,0,0,0,2.8-1.272c.439-.51.939-1.154,1.537-1.961a5.539,5.539,0,0,1,3.514-2.489,12.1,12.1,0,0,0,7.237-5.2C39.886,2539.317,41.142,2539.7,40.381,2542.344Z" fill="#ff8f8e"/>
          <path id="Path_794" data-name="Path 794" d="M25.1,2560.172a2.988,2.988,0,0,1-.925-1.847c-.025-1.024-.075-1.571-.075-1.571a2.58,2.58,0,0,0-.242,2.1A2.294,2.294,0,0,0,25.1,2560.172Z" fill="#ae324a"/>
          <path id="Path_795" data-name="Path 795" d="M34.462,2561.516s.948-2.728,1.772-4.928a19.393,19.393,0,0,1,2.628-4.451,6.83,6.83,0,0,0-2.128,2.5A19.346,19.346,0,0,0,34.743,2559,5.18,5.18,0,0,0,34.462,2561.516Z" fill="#ae324a"/>
          <path id="Path_796" data-name="Path 796" d="M36.9,2551.506a32.123,32.123,0,0,1-2.339,4.273,12.738,12.738,0,0,1-3.885,3.291,36.685,36.685,0,0,0,3.5-3.653C35.059,2554.171,36.9,2551.506,36.9,2551.506Z" fill="#ae324a"/>
        </g>
      </g>
      <g id="Group_384" data-name="Group 384">
        <rect id="Rectangle_232" data-name="Rectangle 232" width="12.765" height="34.335" transform="translate(-52.478 2520.728) rotate(-158.666)" fill="#ff8f8e"/>
        <path id="Path_797" data-name="Path 797" d="M-52.674,2490.564c-2.978,3.248-.668,9.7,3.044,11.457a6.366,6.366,0,0,0,4.356.264,6.763,6.763,0,0,0,4.1-4.147,7.3,7.3,0,0,0-3.4-8.529C-47.236,2488.175-50.8,2488.525-52.674,2490.564Z" fill="#ae324a"/>
        <path id="Path_798" data-name="Path 798" d="M-50.805,2481.132l2.1-5.372a6.315,6.315,0,0,1,8.157-3.575l7.172,2.8a6.316,6.316,0,0,1,3.575,8.157l-2.081,5.327-1.511,3.869c-3.592,7.673-10.545,11.186-14.643,9.6-4.906-1.9-6.419-11.323-4.227-17.018Z" fill="#ff8f8e"/>
        <path id="Path_799" data-name="Path 799" d="M-44.1,2479.51c1.455-.984,4.171-.712,6.078.425,1.6.955,1.29,1.631,2.856,2.609a7.351,7.351,0,0,0,6.324.728,6.74,6.74,0,0,0,3.3-3.185c1.4-2.659,1.324-6.523-.415-8-1.594-1.353-2.956.1-6.467-1.176-2.383-.863-2.3-1.728-5.383-3.034A13.293,13.293,0,0,0-43,2466.543a14.8,14.8,0,0,0-6.259,2c-10.583,6.39-10.193,26.161-7.165,27.205,1.261.434,4.034-2.015,4.544-4.394.172-.8.165-1.97.55-5.24.047-.4.06-.416.071-.611.081-1.44-.352-2.467.369-3.636a2.068,2.068,0,0,1,1.463-1.1,1.727,1.727,0,0,1,1.462.729,2.576,2.576,0,0,1,.192,2.1c-.207.963-.665,1.477-.554,1.569.139.115,1-.557,1.784-1.466C-44.669,2481.512-45.294,2480.319-44.1,2479.51Z" fill="#b8f2e5"/>
        <path id="Path_800" data-name="Path 800" d="M-50.453,2482.746c.035.02.229-.622.692-.706a.605.605,0,0,1,.444.107.706.706,0,0,1,.211.588,1.088,1.088,0,0,1-.3.678c-.215.247-.325.181-.539.417a1.069,1.069,0,0,0-.341.855.694.694,0,0,0,.506.578.434.434,0,0,0,.42-.159c.053-.092,0-.15,0-.418a.791.791,0,0,1,.057-.422c.113-.175.29-.091.451-.284a.649.649,0,0,0,.133-.417c0-.148-.058-.157-.071-.29-.026-.263.174-.327.205-.628a.8.8,0,0,0-.118-.494.814.814,0,0,0-.378-.312,1.13,1.13,0,0,0-.9.084A.974.974,0,0,0-50.453,2482.746Z" fill="#ae324a"/>
        <rect id="Rectangle_233" data-name="Rectangle 233" width="2.717" height="2.052" rx="1.026" transform="translate(-32.157 2492.905) rotate(-158.666)" fill="#ff8f8e"/>
      </g>
      <g id="Group_385" data-name="Group 385">
        <rect id="Rectangle_234" data-name="Rectangle 234" width="24.175" height="18.131" rx="4.417" transform="translate(-41.193 2523.349) rotate(180)" fill="#ff8f8e"/>
        <path id="Path_801" data-name="Path 801" d="M-45.755,2505.218a18.551,18.551,0,0,1,16.45,9.961,68.106,68.106,0,0,1,3.948,6.961,43.991,43.991,0,0,1,2.3,7.253c1.217,5.633-.919,25.317-7.711,51.242l-53.043,14.941a189.343,189.343,0,0,1-6.028-30.877c-1.34-12.266-2.063-19.641.3-29.263,1.531-6.229,5.709-13.517,11.954-22.337a18.6,18.6,0,0,1,15.179-7.881,8.981,8.981,0,0,0,9.129,6.044A8.915,8.915,0,0,0-45.755,2505.218Z" fill="#b8f2e5"/>
      </g>
      <g id="Group_387" data-name="Group 387">
        <path id="Path_802" data-name="Path 802" d="M-30.773,2580.635c13.759-18.284,30.528-28.355,41.932-24.025,6.9,2.619,10.806,10.441,15.52,19.7a87.164,87.164,0,0,1,8.674,27.95l-17.847-.488c-6.691-15.205-12.808-19.138-17.532-19.387-15.579-.819-21.271,38.515-44.924,41.17-14.036,1.575-26.8-10.049-27.493-10.691a40.426,40.426,0,0,1-11.373-19.285Z" fill="#20221d"/>
        <g id="Group_386" data-name="Group 386">
          <path id="Path_803" data-name="Path 803" d="M-30.773,2580.635c6.907.566,16.123,1.508,26.926,3.159a299.465,299.465,0,0,1,31.387,6.15,222.442,222.442,0,0,1,44.314,16.88q-2.068,8.543-4.138,17.086c-31.275-13.888-53.135-12.633-67.706-8.445-12.161,3.494-24.012,10.394-46,11.728-19.92,1.209-26.543-3.457-29.547-6.267-8.944-8.368-8.525-21.557-8.275-25.35Z" fill="#444"/>
        </g>
      </g>
      <g id="Group_388" data-name="Group 388">
        <rect id="Rectangle_235" data-name="Rectangle 235" width="83.704" height="9.793" rx="4.896" transform="translate(61.401 2559.34) rotate(180)" fill="#ccc"/>
        <rect id="Rectangle_236" data-name="Rectangle 236" width="73.279" height="5.822" rx="2.911" transform="translate(76.641 2487.15) rotate(102.5)" fill="#e6e6e6"/>
      </g>
      <g id="Group_390" data-name="Group 390">
        <rect id="Rectangle_237" data-name="Rectangle 237" width="11.762" height="42.306" rx="5.881" transform="translate(-56.156 2536.408) rotate(-47.467)" fill="#ff8f8e"/>
        <path id="Path_804" data-name="Path 804" d="M-23.024,2550.842l-7.365,4.738a5.048,5.048,0,0,1,.361-2.843,6.01,6.01,0,0,1,5.623-3.15Z" fill="#ae324a"/>
        <rect id="Rectangle_238" data-name="Rectangle 238" width="11.762" height="48.698" rx="5.881" transform="translate(17.997 2550.842) rotate(90)" fill="#ff8f8e"/>
        <rect id="Rectangle_239" data-name="Rectangle 239" width="24.175" height="36.262" rx="4.389" transform="matrix(-0.676, 0.737, -0.737, -0.676, -31.292, 2534.608)" fill="#b8f2e5"/>
        <g id="Group_389" data-name="Group 389">
          <path id="Path_805" data-name="Path 805" d="M16.976,2550.541a51.846,51.846,0,0,0,6.325.045c1.278-.348,6.908-1.5,12.54-2.443,2.138-.359,3.336,1.544.747,2.521-2.132.8-7.843,1.78-10.278,2.632-1.351.472-.888,1.024-.649,1.067a78.89,78.89,0,0,0,11.21.886c3.145-.075,3.462,2.548.324,2.913-.779.09-3.867-.116-6.42-.139-2.106-.019-3.514-.137-4.518-.025-1.774.2-2.551.55-.9,1.444,2.5,1.351,8.741,3.113,9.484,3.471,3.664,1.766,2.065,3.207-.5,2.719-1.248-.237-7.119-2.319-10.506-3.365-.533-.165-1.1.165-.258.792l-2.309-.2L14.5,2561.53Z" fill="#ff8f8e"/>
          <path id="Path_806" data-name="Path 806" d="M24.822,2543.638c-.6,2.093-4.85,4.722-5.574,5.5-.74.793-.5,1.473.673,1.525,2.134.094-.922,2.649-1.193,4.185a.542.542,0,0,0,.025.3c-.075.317-.164.651-.264.973a5.006,5.006,0,0,1-1.721,2.452s2,1.17,5.377,3.48c1.033.706,3.33,2.368,4.3,3.058A30.172,30.172,0,0,1,30.7,2568.5c.878,1.095.028,2.6-1.868,1.448-2.587-1.568-6.43-4.159-8.413-5-1.557-.661-4.836-1.113-6.745-1.8a35.363,35.363,0,0,0-5.189-1.546c-1.068-.154-5.371-.283-5.371-.283l.358-6.793.03-.557.017-.337.109-2.065a38.232,38.232,0,0,0,5.11-.124,5.14,5.14,0,0,0,2.8-1.272c.439-.51.939-1.154,1.537-1.961a5.544,5.544,0,0,1,3.515-2.489,12.1,12.1,0,0,0,7.236-5.2C24.327,2540.611,25.582,2540.994,24.822,2543.638Z" fill="#ff8f8e"/>
        </g>
      </g>
    </g>
    <g id="Group_392" data-name="Group 392">
      <path id="Path_807" data-name="Path 807" d="M51.35,2417.756H44.26v-34.268L33.8,2387.053v-5.976l16.641-6.123h.908Z" fill="#ccc"/>
      <path id="Path_808" data-name="Path 808" d="M93.039,2386.35a9.912,9.912,0,0,1-1.611,5.581,11.18,11.18,0,0,1-4.394,3.853,12.181,12.181,0,0,1,5.141,4.248,10.72,10.72,0,0,1,1.8,6.094,11.189,11.189,0,0,1-3.809,8.92q-3.809,3.3-10.136,3.3-6.358,0-10.181-3.31a11.18,11.18,0,0,1-3.823-8.906,10.842,10.842,0,0,1,1.816-6.153,11.672,11.672,0,0,1,5.1-4.189,11.121,11.121,0,0,1-4.351-3.853,9.981,9.981,0,0,1-1.6-5.581,11.093,11.093,0,0,1,3.516-8.642q3.516-3.192,9.492-3.194,6.006,0,9.522,3.194A11.1,11.1,0,0,1,93.039,2386.35Zm-6.181,19.424a7.031,7.031,0,0,0-1.89-5.112,6.642,6.642,0,0,0-5-1.949,6.572,6.572,0,0,0-4.966,1.934,7.086,7.086,0,0,0-1.86,5.127,6.858,6.858,0,0,0,1.831,5.01,7.8,7.8,0,0,0,10.078.058A6.884,6.884,0,0,0,86.858,2405.774Zm-.908-19.16a6.62,6.62,0,0,0-1.612-4.585,6.19,6.19,0,0,0-8.642-.088,7.644,7.644,0,0,0,.014,9.331,6.265,6.265,0,0,0,8.643,0A6.6,6.6,0,0,0,85.95,2386.614Z" fill="#ccc"/>
      <path id="Path_809" data-name="Path 809" d="M133.528,2394.729a12.53,12.53,0,0,1-2.784,8.423,8.748,8.748,0,0,1-6.943,3.267,9.667,9.667,0,0,1-4-.821,16.7,16.7,0,0,1-4.087-2.827,18.392,18.392,0,0,0-3.237-2.49,4.682,4.682,0,0,0-2.095-.484,3.64,3.64,0,0,0-3.091,1.524,6.53,6.53,0,0,0-1.128,3.984H100.51a12.43,12.43,0,0,1,2.666-8.218,8.663,8.663,0,0,1,7-3.208,10.088,10.088,0,0,1,4.116.861,15.62,15.62,0,0,1,4.073,2.786,17.429,17.429,0,0,0,3.105,2.421,4.647,4.647,0,0,0,2.124.495,3.821,3.821,0,0,0,3.193-1.632,6.582,6.582,0,0,0,1.231-4.081Z" fill="#ccc"/>
      <path id="Path_810" data-name="Path 810" d="M162.3,2374.9v5.889h-.879q-5.976.087-9.551,3.281a13.737,13.737,0,0,0-4.248,9.053,11.562,11.562,0,0,1,8.76-3.6,10.92,10.92,0,0,1,8.921,3.985,15.691,15.691,0,0,1,3.267,10.283,14.669,14.669,0,0,1-3.824,10.532,13.193,13.193,0,0,1-10.034,4.028,12.887,12.887,0,0,1-10.356-4.716q-3.971-4.718-3.97-12.364v-2.431q0-11.221,5.464-17.578t15.718-6.358Zm-7.646,20.361a7.5,7.5,0,0,0-4.292,1.319,7.713,7.713,0,0,0-2.857,3.515v2.168a12.768,12.768,0,0,0,1.992,7.544,6.075,6.075,0,0,0,5.157,2.8,6.008,6.008,0,0,0,5.009-2.373,9.878,9.878,0,0,0,1.846-6.24,10.027,10.027,0,0,0-1.875-6.3A5.977,5.977,0,0,0,154.651,2395.256Z" fill="#ccc"/>
      <path id="Path_811" data-name="Path 811" d="M202.053,2399.8q0,9.2-3.442,13.873t-10.474,4.672q-6.913,0-10.415-4.555t-3.589-13.492v-7.382q0-9.2,3.443-13.8t10.5-4.6q7,0,10.445,4.483t3.53,13.418Zm-7.119-7.968q0-6-1.641-8.8a6.271,6.271,0,0,0-10.342-.147q-1.64,2.654-1.728,8.277v9.668q0,5.976,1.67,8.906a5.609,5.609,0,0,0,5.244,2.93,5.511,5.511,0,0,0,5.068-2.71q1.641-2.709,1.729-8.482Z" fill="#ccc"/>
    </g>
    <g id="Group_393" data-name="Group 393">
      <path id="Path_812" data-name="Path 812" d="M49.218,2511.2a.9.9,0,0,0,.02-.27l-.391-4.714a.915.915,0,0,0-.686-.812l-3.507-.894a17.712,17.712,0,0,0-2.333-4.54l1.31-3.37a.916.916,0,0,0-.264-1.033l-3.6-3.055a.917.917,0,0,0-1.061-.088l-3.109,1.846a17.706,17.706,0,0,0-4.861-1.557l-1.458-3.312a.919.919,0,0,0-.915-.544l-4.712.39a.919.919,0,0,0-.812.686l-.893,3.507a17.72,17.72,0,0,0-4.54,2.334l-3.371-1.311a.912.912,0,0,0-1.032.265l-3.055,3.6a.915.915,0,0,0-.089,1.059l1.846,3.11a17.592,17.592,0,0,0-1.556,4.862l-3.312,1.457a.908.908,0,0,0-.543.917l.388,4.709a.921.921,0,0,0,.686.812l3.508.9a17.693,17.693,0,0,0,2.334,4.539l-1.31,3.372a.92.92,0,0,0,.263,1.031l3.6,3.055a.911.911,0,0,0,1.061.088l3.109-1.846a17.726,17.726,0,0,0,4.862,1.557l1.457,3.312a.917.917,0,0,0,.912.545l4.715-.391a.918.918,0,0,0,.812-.685l.894-3.508a17.7,17.7,0,0,0,4.539-2.334l3.37,1.311a.921.921,0,0,0,1.032-.262l3.056-3.608a.911.911,0,0,0,.089-1.06l-1.846-3.109a17.748,17.748,0,0,0,1.556-4.862l3.313-1.457A.92.92,0,0,0,49.218,2511.2Zm-1.535-4.7.358,4.331-3.732,1.642-.048.323a16.527,16.527,0,0,1-1.638,5.116l-.15.291,2.081,3.5-2.808,3.317-3.8-1.478-.263.195a16.52,16.52,0,0,1-4.775,2.456l-.312.1-1.007,3.95-4.331.359-1.641-3.732-.324-.048a16.581,16.581,0,0,1-5.116-1.638l-.292-.149-3.5,2.081-3.315-2.809,1.477-3.8-.194-.263a16.538,16.538,0,0,1-2.457-4.777l-.1-.311-3.951-1.007-.358-4.331,3.733-1.642.048-.323a16.461,16.461,0,0,1,1.636-5.116l.15-.29-2.081-3.505,2.81-3.315,3.8,1.477.262-.2a16.55,16.55,0,0,1,4.777-2.456l.311-.1,1.008-3.952,4.33-.358,1.642,3.732.323.048a16.546,16.546,0,0,1,5.116,1.638l.29.149,3.5-2.08,3.316,2.809-1.477,3.8.195.263a16.517,16.517,0,0,1,2.454,4.775l.1.312Zm-3,15.061v0Zm2.989-15.253h0Zm-5.066-9.841h0Zm-10.819,33.765h0Zm-4.445.549v0Zm-10.807-3.537h0Zm-3.608-3.057h0Zm.979-28.7,0,0Zm-6.433,14.145v0Zm-.161.268h0Zm32.175,2.938a12,12,0,1,0-17.363,7.98l.556-1.045a10.813,10.813,0,1,1,8.581.691l.382,1.122a12.036,12.036,0,0,0,7.844-8.748Z" fill="#e6e6e6"/>
      <path id="Path_813" data-name="Path 813" d="M32.438,2511.375c.019-.086.036-.171.05-.258a4.791,4.791,0,1,0-8.623,2h0a4.79,4.79,0,0,0,8.573-1.743Zm-8.194-1.825a3.6,3.6,0,1,1,.584,2.879A3.6,3.6,0,0,1,24.244,2509.55Z" fill="#e6e6e6"/>
    </g>
    <g id="Group_394" data-name="Group 394">
      <path id="Path_814" data-name="Path 814" d="M226.427,2477.05a.932.932,0,0,0,.019-.27l-.391-4.714a.916.916,0,0,0-.686-.812l-3.506-.894a17.743,17.743,0,0,0-2.334-4.54l1.31-3.37a.913.913,0,0,0-.264-1.032l-3.6-3.055a.915.915,0,0,0-1.061-.089l-3.109,1.846a17.69,17.69,0,0,0-4.861-1.557l-1.458-3.312a.918.918,0,0,0-.915-.544l-4.712.39a.92.92,0,0,0-.812.686l-.893,3.507a17.712,17.712,0,0,0-4.54,2.334l-3.371-1.31a.912.912,0,0,0-1.032.264l-3.055,3.605a.916.916,0,0,0-.089,1.059l1.846,3.11a17.61,17.61,0,0,0-1.556,4.862l-3.312,1.457a.91.91,0,0,0-.543.917l.388,4.709a.92.92,0,0,0,.686.812l3.508.9a17.779,17.779,0,0,0,2.334,4.54l-1.31,3.371a.92.92,0,0,0,.263,1.031l3.6,3.055a.913.913,0,0,0,1.062.088l3.108-1.845A17.724,17.724,0,0,0,202,2493.8l1.457,3.312a.917.917,0,0,0,.912.545l4.715-.391a.917.917,0,0,0,.812-.685l.894-3.508a17.7,17.7,0,0,0,4.539-2.334l3.37,1.311a.919.919,0,0,0,1.032-.262l3.056-3.608a.911.911,0,0,0,.089-1.06l-1.846-3.108a17.764,17.764,0,0,0,1.556-4.863l3.313-1.457A.921.921,0,0,0,226.427,2477.05Zm-1.536-4.7.358,4.331-3.732,1.642-.048.323a16.528,16.528,0,0,1-1.638,5.116l-.15.291,2.081,3.5-2.808,3.316-3.8-1.477-.263.194a16.526,16.526,0,0,1-4.775,2.456l-.311.1L208.8,2496.1l-4.33.358-1.642-3.732-.324-.048a16.522,16.522,0,0,1-5.116-1.638l-.292-.149-3.5,2.081-3.315-2.809,1.477-3.8-.194-.262a16.553,16.553,0,0,1-2.457-4.778l-.1-.311-3.951-1.007-.358-4.33,3.733-1.643.048-.323a16.463,16.463,0,0,1,1.636-5.116l.15-.29-2.081-3.5,2.81-3.315,3.8,1.477.262-.2a16.55,16.55,0,0,1,4.777-2.456l.311-.1,1.008-3.952,4.33-.357,1.642,3.731.323.048a16.539,16.539,0,0,1,5.116,1.638l.29.149,3.505-2.08,3.316,2.809-1.477,3.8.2.263a16.512,16.512,0,0,1,2.454,4.776l.1.311Zm-3.005,15.061h0Zm2.989-15.253h0Zm-5.066-9.841h0Zm-10.819,33.765h0Zm-4.445.55v0Zm-10.807-3.538h0Zm-3.608-3.057h0Zm.98-28.7v0Zm-6.434,14.144v0Zm-.161.268h0Zm32.175,2.938a12,12,0,1,0-17.363,7.98l.556-1.045a10.812,10.812,0,1,1,8.581.691l.382,1.122a12.035,12.035,0,0,0,7.844-8.748Z" fill="#e6e6e6"/>
      <path id="Path_815" data-name="Path 815" d="M209.647,2477.225c.018-.085.035-.171.049-.257a4.791,4.791,0,1,0-8.623,2h0a4.792,4.792,0,0,0,8.574-1.743Zm-8.2-1.825a3.6,3.6,0,1,1,.584,2.879A3.592,3.592,0,0,1,201.452,2475.4Z" fill="#e6e6e6"/>
    </g>
    <g id="Group_395" data-name="Group 395">
      <path id="Path_816" data-name="Path 816" d="M201.945,2522.444a.521.521,0,0,0,.012-.158l-.229-2.765a.538.538,0,0,0-.4-.476l-2.056-.524a10.353,10.353,0,0,0-1.369-2.663l.769-1.976a.536.536,0,0,0-.155-.6l-2.114-1.792a.536.536,0,0,0-.622-.051l-1.823,1.082a10.363,10.363,0,0,0-2.851-.913l-.855-1.942a.538.538,0,0,0-.536-.319l-2.763.228a.54.54,0,0,0-.476.4l-.524,2.056a10.408,10.408,0,0,0-2.663,1.369l-1.976-.769a.536.536,0,0,0-.606.156l-1.791,2.113a.538.538,0,0,0-.052.622l1.082,1.823a10.329,10.329,0,0,0-.912,2.851l-1.942.855a.533.533,0,0,0-.319.537l.228,2.762a.538.538,0,0,0,.4.476l2.057.525a10.422,10.422,0,0,0,1.369,2.662l-.769,1.977a.54.54,0,0,0,.155.6l2.114,1.792a.535.535,0,0,0,.622.052l1.823-1.083a10.393,10.393,0,0,0,2.851.913l.855,1.942a.538.538,0,0,0,.534.32l2.766-.229a.54.54,0,0,0,.476-.4l.524-2.057a10.372,10.372,0,0,0,2.661-1.369l1.977.769a.54.54,0,0,0,.6-.154l1.792-2.115a.535.535,0,0,0,.052-.622l-1.083-1.823a10.4,10.4,0,0,0,.913-2.851l1.943-.855A.537.537,0,0,0,201.945,2522.444Zm-.9-2.754.21,2.54-2.189.962-.028.19a9.707,9.707,0,0,1-.96,3l-.088.171,1.22,2.054-1.647,1.945-2.228-.867-.153.115a9.7,9.7,0,0,1-2.8,1.44l-.182.059-.591,2.317-2.54.21-.962-2.188-.19-.029a9.7,9.7,0,0,1-3-.96l-.171-.088-2.054,1.22-1.945-1.647.867-2.227-.114-.154a9.7,9.7,0,0,1-1.441-2.8l-.059-.183-2.317-.59-.21-2.54,2.189-.963.028-.189a9.659,9.659,0,0,1,.96-3l.088-.17-1.221-2.055,1.648-1.944,2.227.866.154-.115a9.714,9.714,0,0,1,2.8-1.44l.183-.059.59-2.317,2.54-.21.963,2.189.189.028a9.714,9.714,0,0,1,3,.96l.17.087,2.056-1.219,1.944,1.647-.866,2.227.114.154a9.688,9.688,0,0,1,1.439,2.8l.059.182Zm-1.762,8.832h0Zm1.753-8.945h0Zm-2.971-5.77h0Zm-6.345,19.8h0Zm-2.606.323h0Zm-6.337-2.075h0Zm-2.116-1.792Zm.574-16.829h0Zm-3.772,8.3h0Zm-.1.157h0Zm18.868,1.723a7.04,7.04,0,1,0-10.182,4.679l.326-.612a6.344,6.344,0,1,1,7.083-10.439,6.344,6.344,0,0,1-2.051,10.844l.224.657a7.055,7.055,0,0,0,4.6-5.129Z" fill="#e6e6e6"/>
      <path id="Path_817" data-name="Path 817" d="M192.1,2522.546c.012-.05.021-.1.03-.151a2.81,2.81,0,1,0-5.057,1.173h0a2.809,2.809,0,0,0,5.027-1.022Zm-4.8-1.07a2.114,2.114,0,1,1,.343,1.688A2.108,2.108,0,0,1,187.3,2521.476Z" fill="#e6e6e6"/>
    </g>
    <g id="Group_396" data-name="Group 396">
      <path id="Path_818" data-name="Path 818" d="M178.447,2445.418a.554.554,0,0,0,.011-.158l-.229-2.765a.537.537,0,0,0-.4-.476l-2.057-.524a10.369,10.369,0,0,0-1.368-2.662l.768-1.976a.536.536,0,0,0-.155-.606l-2.113-1.791a.537.537,0,0,0-.623-.052l-1.823,1.082a10.362,10.362,0,0,0-2.85-.912l-.855-1.943a.539.539,0,0,0-.537-.319l-2.763.229a.539.539,0,0,0-.476.4l-.524,2.057a10.391,10.391,0,0,0-2.662,1.368l-1.977-.768a.534.534,0,0,0-.6.155l-1.791,2.114a.536.536,0,0,0-.053.621l1.083,1.824a10.287,10.287,0,0,0-.912,2.851l-1.943.854a.533.533,0,0,0-.318.538l.228,2.761a.54.54,0,0,0,.4.477l2.057.524a10.392,10.392,0,0,0,1.368,2.662l-.768,1.977a.541.541,0,0,0,.154.6l2.115,1.791a.534.534,0,0,0,.622.052l1.822-1.082a10.39,10.39,0,0,0,2.852.912l.854,1.943a.537.537,0,0,0,.535.319l2.765-.229a.537.537,0,0,0,.476-.4l.524-2.057a10.355,10.355,0,0,0,2.662-1.369l1.976.769a.538.538,0,0,0,.6-.153l1.792-2.116a.535.535,0,0,0,.053-.622l-1.083-1.823a10.411,10.411,0,0,0,.913-2.851l1.942-.854A.541.541,0,0,0,178.447,2445.418Zm-.9-2.754.21,2.54-2.188.963-.028.19a9.687,9.687,0,0,1-.961,3l-.088.17,1.221,2.054-1.647,1.945-2.228-.866-.154.114a9.684,9.684,0,0,1-2.8,1.44l-.183.059-.591,2.317-2.539.21-.963-2.188-.189-.028a9.739,9.739,0,0,1-3-.961l-.171-.087-2.054,1.22-1.944-1.647.866-2.228-.114-.153a9.709,9.709,0,0,1-1.44-2.8l-.06-.182-2.317-.59-.209-2.54,2.189-.963.028-.19a9.619,9.619,0,0,1,.959-3l.088-.171-1.22-2.055,1.647-1.944,2.228.866.154-.114a9.66,9.66,0,0,1,2.8-1.44l.183-.059.591-2.317,2.539-.21.963,2.188.19.028a9.678,9.678,0,0,1,3,.961l.171.087,2.055-1.22,1.944,1.648-.866,2.227.115.154a9.692,9.692,0,0,1,1.439,2.8l.059.183Zm-1.762,8.832h0Zm1.753-8.944Zm-2.971-5.771h0Zm-6.344,19.8h0Zm-2.607.322v0Zm-6.337-2.075h0Zm-2.116-1.792h0Zm.575-16.828v0Zm-3.773,8.294h0Zm-.094.158h0Zm18.867,1.722a7.034,7.034,0,1,0-10.182,4.68l.327-.613a6.344,6.344,0,1,1,7.083-10.439,6.346,6.346,0,0,1-2.051,10.844l.223.658a7.059,7.059,0,0,0,4.6-5.13Z" fill="#e6e6e6"/>
      <path id="Path_819" data-name="Path 819" d="M168.607,2445.521c.011-.05.021-.1.029-.151a2.809,2.809,0,1,0-5.057,1.173h0a2.814,2.814,0,0,0,3.92.651A2.784,2.784,0,0,0,168.607,2445.521Zm-4.8-1.071a2.113,2.113,0,1,1,.342,1.689A2.11,2.11,0,0,1,163.8,2444.45Z" fill="#e6e6e6"/>
    </g>
    <g id="Group_397" data-name="Group 397">
      <path id="Path_820" data-name="Path 820" d="M101.127,2450.846a1.216,1.216,0,0,0,.026-.358l-.518-6.257a1.215,1.215,0,0,0-.911-1.077l-4.654-1.187a23.539,23.539,0,0,0-3.1-6.026l1.738-4.472a1.214,1.214,0,0,0-.35-1.371l-4.784-4.054a1.216,1.216,0,0,0-1.409-.117l-4.126,2.449a23.493,23.493,0,0,0-6.452-2.066l-1.934-4.4a1.22,1.22,0,0,0-1.215-.722l-6.253.517a1.222,1.222,0,0,0-1.078.911l-1.186,4.655a23.5,23.5,0,0,0-6.026,3.1l-4.473-1.74a1.212,1.212,0,0,0-1.37.352L49,2433.769a1.216,1.216,0,0,0-.118,1.406l2.45,4.127a23.367,23.367,0,0,0-2.065,6.453l-4.4,1.934a1.205,1.205,0,0,0-.721,1.217l.516,6.25a1.219,1.219,0,0,0,.91,1.078l4.656,1.187a23.549,23.549,0,0,0,3.1,6.025l-1.739,4.474a1.225,1.225,0,0,0,.349,1.369l4.786,4.055a1.211,1.211,0,0,0,1.408.117l4.125-2.45a23.539,23.539,0,0,0,6.454,2.066l1.934,4.4a1.216,1.216,0,0,0,1.21.723l6.258-.518a1.218,1.218,0,0,0,1.078-.91l1.186-4.655a23.521,23.521,0,0,0,6.024-3.1l4.473,1.739a1.22,1.22,0,0,0,1.37-.347l4.055-4.788a1.208,1.208,0,0,0,.119-1.407l-2.451-4.126a23.565,23.565,0,0,0,2.066-6.454l4.4-1.934A1.216,1.216,0,0,0,101.127,2450.846Zm-2.038-6.233.476,5.749-4.954,2.179-.064.429a21.927,21.927,0,0,1-2.173,6.79l-.2.386,2.762,4.65-3.728,4.4-5.042-1.96-.348.258a21.948,21.948,0,0,1-6.338,3.26l-.413.133-1.338,5.244-5.747.476-2.179-4.953-.43-.064a21.979,21.979,0,0,1-6.79-2.174l-.387-.2-4.649,2.762-4.4-3.729,1.961-5.041-.258-.347a21.968,21.968,0,0,1-3.26-6.341l-.135-.413-5.244-1.336-.474-5.748,4.954-2.18.064-.429a21.831,21.831,0,0,1,2.171-6.789l.2-.386-2.762-4.651,3.729-4.4,5.041,1.96.348-.259a21.92,21.92,0,0,1,6.34-3.259l.413-.134,1.337-5.244,5.748-.475,2.179,4.953.429.064a21.944,21.944,0,0,1,6.79,2.174l.385.2,4.652-2.761,4.4,3.729-1.96,5.04.259.349a21.949,21.949,0,0,1,3.257,6.339l.134.413ZM95.1,2464.6l0,0Zm3.967-20.244h0ZM92.345,2431.3h0Zm-14.36,44.813h0Zm-5.9.729v0Zm-14.342-4.7,0,0Zm-4.789-4.057h0Zm1.3-38.088,0,0Zm-8.538,18.773v0Zm-.214.356h0Zm42.7,3.9A15.926,15.926,0,1,0,65.16,2463.62l.738-1.387a14.35,14.35,0,1,1,11.389.917l.507,1.488a15.977,15.977,0,0,0,10.411-11.61Z" fill="#e6e6e6"/>
      <path id="Path_821" data-name="Path 821" d="M78.857,2451.078c.025-.113.046-.226.066-.341a6.359,6.359,0,1,0-11.445,2.655h0a6.36,6.36,0,0,0,11.379-2.314Zm-10.877-2.422a4.784,4.784,0,1,1,.776,3.821A4.771,4.771,0,0,1,67.98,2448.656Z" fill="#e6e6e6"/>
    </g>
  </g>
</svg>
