<svg xmlns="http://www.w3.org/2000/svg" width="403.134" height="324.308" viewBox="0 0 403.134 324.308">
  <g id="Group_164" data-name="Group 164" transform="translate(-1050.848 -1261.888)">
    <g id="Group_130" data-name="Group 130">
      <path id="Path_251" data-name="Path 251" d="M1203.507,1340.178a1.73,1.73,0,0,1-.5-.073l-8.368-2.6a1.7,1.7,0,0,1-1.193-1.566l-.211-6.7a32.8,32.8,0,0,1-7.273-6.039l-6.619,1.018a1.693,1.693,0,0,1-1.761-.891l-4.079-7.743a1.7,1.7,0,0,1,.266-1.954l4.583-4.882a32.733,32.733,0,0,1-.865-9.413l-5.4-3.964a1.7,1.7,0,0,1-.617-1.872l2.593-8.364a1.7,1.7,0,0,1,1.566-1.193l6.7-.21a32.815,32.815,0,0,1,6.04-7.273l-1.018-6.62a1.689,1.689,0,0,1,.892-1.761l7.742-4.078a1.7,1.7,0,0,1,1.952.263l4.882,4.584a32.61,32.61,0,0,1,9.416-.863l3.962-5.405a1.682,1.682,0,0,1,1.875-.615l8.36,2.59a1.7,1.7,0,0,1,1.193,1.566l.211,6.7a32.857,32.857,0,0,1,7.273,6.04l6.621-1.018a1.708,1.708,0,0,1,1.759.889l4.079,7.744a1.691,1.691,0,0,1-.266,1.954l-4.583,4.88a32.851,32.851,0,0,1,.865,9.416l5.405,3.963a1.7,1.7,0,0,1,.619,1.866l-2.6,8.37a1.7,1.7,0,0,1-1.565,1.194l-6.7.21a32.807,32.807,0,0,1-6.04,7.271l1.018,6.619a1.7,1.7,0,0,1-.886,1.761l-7.748,4.079a1.687,1.687,0,0,1-1.953-.263l-4.881-4.585a32.848,32.848,0,0,1-9.416.866l-3.962,5.4A1.7,1.7,0,0,1,1203.507,1340.178Zm-7.876-4.66,7.687,2.385,4.465-6.091.6.043a30.576,30.576,0,0,0,9.907-.911l.586-.154,5.5,5.167,7.122-3.749-1.149-7.461.458-.4a30.634,30.634,0,0,0,6.355-7.65l.306-.523,7.548-.238,2.384-7.686-6.089-4.465.042-.6a30.668,30.668,0,0,0-.911-9.908l-.152-.587,5.166-5.5-3.75-7.121-7.46,1.148-.4-.456a30.613,30.613,0,0,0-7.654-6.357l-.521-.308-.237-7.548-7.687-2.382-4.466,6.091-.6-.043a30.466,30.466,0,0,0-9.905.908l-.586.155-5.5-5.168-7.12,3.751,1.148,7.46-.458.4a30.611,30.611,0,0,0-6.355,7.653l-.306.522-7.549.238-2.383,7.687,6.089,4.465-.042.6a30.615,30.615,0,0,0,.911,9.906l.152.584-5.166,5.5,3.751,7.121,7.459-1.148.4.458a30.637,30.637,0,0,0,7.651,6.352l.523.307Zm28.437.6,0,0Zm-28.778-.709h0Zm-15.763-13.1v0Zm65.389-6.029v0Zm2.775-7.817,0,0Zm-2.065-20.958,0,0Zm-4.08-7.749h0Zm-52.282-9.733-.006,0Zm28.154-5.962,0,0Zm.549-.184v0Zm-7.585,59.355a22.223,22.223,0,1,1,21.39-28.2l-2.113.587a20.024,20.024,0,1,0-2.19,15.793l1.874,1.14a22.3,22.3,0,0,1-18.961,10.677Z" fill="#e6e6e6"/>
      <path id="Path_252" data-name="Path 252" d="M1210.549,1309.907c-.162,0-.323-.005-.485-.013a8.873,8.873,0,1,1,7.074-14.791h0a8.874,8.874,0,0,1-6.589,14.8Zm-.015-15.549a6.676,6.676,0,1,0,4.971,2.211A6.66,6.66,0,0,0,1210.534,1294.358Z" fill="#e6e6e6"/>
    </g>
    <g id="Group_131" data-name="Group 131">
      <path id="Path_253" data-name="Path 253" d="M1176.432,1502.292a2.147,2.147,0,0,1-.621-.092l-10.489-3.254a2.126,2.126,0,0,1-1.495-1.963l-.265-8.4a41.148,41.148,0,0,1-9.117-7.57l-8.3,1.275a2.119,2.119,0,0,1-2.207-1.117l-5.113-9.7a2.125,2.125,0,0,1,.333-2.45l5.745-6.119a41.022,41.022,0,0,1-1.085-11.8l-6.775-4.968a2.133,2.133,0,0,1-.774-2.347l3.251-10.483a2.135,2.135,0,0,1,1.963-1.5l8.4-.263a41.116,41.116,0,0,1,7.572-9.117l-1.277-8.3a2.118,2.118,0,0,1,1.118-2.207l9.705-5.112a2.127,2.127,0,0,1,2.446.33l6.121,5.746a40.856,40.856,0,0,1,11.8-1.082l4.967-6.775a2.108,2.108,0,0,1,2.351-.77l10.478,3.246a2.137,2.137,0,0,1,1.5,1.963l.264,8.4a41.173,41.173,0,0,1,9.117,7.569l8.3-1.275a2.141,2.141,0,0,1,2.2,1.114l5.113,9.708a2.12,2.12,0,0,1-.334,2.449l-5.745,6.117a41.172,41.172,0,0,1,1.085,11.8l6.775,4.968a2.125,2.125,0,0,1,.776,2.339l-3.254,10.492a2.129,2.129,0,0,1-1.962,1.495l-8.4.264a41.139,41.139,0,0,1-7.571,9.114l1.276,8.3a2.134,2.134,0,0,1-1.11,2.207l-9.713,5.113a2.115,2.115,0,0,1-2.448-.33l-6.118-5.747a41.2,41.2,0,0,1-11.8,1.086l-4.967,6.775A2.13,2.13,0,0,1,1176.432,1502.292Zm-9.872-5.841,9.636,2.989,5.6-7.635.758.054a38.353,38.353,0,0,0,12.418-1.141l.735-.193L1202.6,1497l8.927-4.7-1.439-9.353.574-.5a38.416,38.416,0,0,0,7.966-9.59l.384-.655,9.46-.3,2.989-9.635-7.633-5.6.053-.758a38.439,38.439,0,0,0-1.142-12.419l-.191-.736,6.476-6.893-4.7-8.926-9.35,1.439-.5-.572a38.416,38.416,0,0,0-9.593-7.967l-.654-.387-.3-9.461-9.636-2.986-5.6,7.635-.757-.054a38.185,38.185,0,0,0-12.416,1.139l-.734.193-6.9-6.477-8.925,4.7,1.438,9.35-.574.5a38.335,38.335,0,0,0-7.965,9.592l-.385.656-9.461.3-2.987,9.636,7.632,5.6-.053.757a38.379,38.379,0,0,0,1.142,12.417l.191.733-6.476,6.9,4.7,8.926,9.349-1.439.5.574a38.407,38.407,0,0,0,9.591,7.962l.655.384Zm35.645.757,0,0Zm-36.072-.888h0Zm-19.759-16.427v0Zm81.963-7.556v0Zm3.479-9.8.006,0Zm-2.588-26.27,0,.005Zm-5.115-9.714h0Zm-65.534-12.2-.007,0Zm35.291-7.473,0,0Zm.688-.231,0,.005Zm-9.508,74.4a27.859,27.859,0,1,1,26.812-35.345l-2.648.736a25.1,25.1,0,1,0-2.746,19.8l2.35,1.429a27.945,27.945,0,0,1-23.768,13.384Z" fill="#e6e6e6"/>
      <path id="Path_254" data-name="Path 254" d="M1185.259,1464.348c-.2,0-.4-.006-.608-.016a11.122,11.122,0,1,1,8.867-18.54h0a11.123,11.123,0,0,1-8.259,18.556Zm-.018-19.49a8.368,8.368,0,1,0,6.231,2.771A8.347,8.347,0,0,0,1185.241,1444.858Z" fill="#e6e6e6"/>
    </g>
    <g id="Group_132" data-name="Group 132">
      <path id="Path_255" data-name="Path 255" d="M1337.305,1517.714a2.378,2.378,0,0,1-.685-.1l-11.557-3.586a2.342,2.342,0,0,1-1.647-2.162l-.292-9.252a45.342,45.342,0,0,1-10.045-8.341l-9.141,1.405a2.336,2.336,0,0,1-2.432-1.23l-5.633-10.693a2.34,2.34,0,0,1,.367-2.7l6.33-6.742a45.241,45.241,0,0,1-1.195-13l-7.465-5.474a2.347,2.347,0,0,1-.852-2.585l3.581-11.551a2.353,2.353,0,0,1,2.163-1.648l9.253-.29a45.307,45.307,0,0,1,8.342-10.045l-1.407-9.142a2.336,2.336,0,0,1,1.233-2.432l10.692-5.633a2.347,2.347,0,0,1,2.7.363l6.743,6.332a45,45,0,0,1,13-1.193l5.472-7.464a2.324,2.324,0,0,1,2.591-.849l11.544,3.577a2.35,2.35,0,0,1,1.648,2.162l.292,9.255a45.37,45.37,0,0,1,10.045,8.341l9.144-1.406a2.36,2.36,0,0,1,2.429,1.228l5.633,10.7a2.333,2.333,0,0,1-.367,2.7l-6.33,6.74a45.313,45.313,0,0,1,1.195,13l7.465,5.473a2.346,2.346,0,0,1,.855,2.578l-3.586,11.559a2.345,2.345,0,0,1-2.161,1.648l-9.254.29a45.274,45.274,0,0,1-8.341,10.042l1.407,9.142a2.353,2.353,0,0,1-1.224,2.432l-10.7,5.634a2.33,2.33,0,0,1-2.7-.364l-6.742-6.332a45.415,45.415,0,0,1-13,1.2l-5.473,7.464A2.346,2.346,0,0,1,1337.305,1517.714Zm-10.878-6.436,10.618,3.294,6.165-8.412.835.059a42.253,42.253,0,0,0,13.683-1.257l.809-.213,7.6,7.136,9.836-5.178-1.586-10.305.632-.547a42.315,42.315,0,0,0,8.777-10.565l.423-.722,10.424-.329,3.293-10.616-8.41-6.166.059-.834a42.4,42.4,0,0,0-1.259-13.684l-.21-.811,7.135-7.6-5.179-9.834-10.3,1.585-.547-.63a42.308,42.308,0,0,0-10.57-8.778l-.721-.426-.326-10.424-10.617-3.29-6.168,8.412-.834-.06a42.078,42.078,0,0,0-13.68,1.255l-.809.213-7.6-7.136-9.834,5.18,1.585,10.3-.632.548a42.25,42.25,0,0,0-8.777,10.568l-.423.722-10.425.329-3.291,10.616,8.409,6.166-.059.834a42.305,42.305,0,0,0,1.259,13.681l.21.807-7.135,7.6,5.181,9.835,10.3-1.586.548.633a42.276,42.276,0,0,0,10.568,8.773l.721.423Zm39.274.835,0,0Zm-39.744-.979h0Zm-21.77-18.1v0Zm90.306-8.326v0Zm3.834-10.8.006,0Zm-2.852-28.945,0,.006Zm-5.636-10.7h0Zm-72.2-13.441-.007,0Zm38.883-8.234.005,0Zm.759-.254,0,.006ZM1346.8,1494.31a30.692,30.692,0,1,1,29.542-38.942l-2.918.811a27.656,27.656,0,1,0-3.025,21.811l2.589,1.574a30.791,30.791,0,0,1-26.188,14.746Z" fill="#e6e6e6"/>
      <path id="Path_256" data-name="Path 256" d="M1347.03,1475.907c-.223,0-.445-.006-.67-.017a12.255,12.255,0,1,1,9.77-20.427h0a12.255,12.255,0,0,1-9.1,20.444Zm-.02-21.474a9.219,9.219,0,1,0,6.865,3.053A9.2,9.2,0,0,0,1347.01,1454.433Z" fill="#e6e6e6"/>
    </g>
    <g id="Group_133" data-name="Group 133">
      <path id="Path_257" data-name="Path 257" d="M1175.366,1440.555a4.3,4.3,0,0,1-4.137-3.1l-22.651-77.22-22.465,34.32a4.309,4.309,0,1,1-7.21-4.719l27.577-42.132a4.309,4.309,0,0,1,7.74,1.147l22.327,76.119,35.145-65.173a4.309,4.309,0,0,1,7.243-.536l25.935,34.671,42.624-93.909a4.309,4.309,0,0,1,7.971.3l31.815,87.07,35.168-56.463a4.31,4.31,0,0,1,7.316,4.557l-39.84,63.963a4.308,4.308,0,0,1-7.7-.8l-31.232-85.475-41.281,90.948a4.309,4.309,0,0,1-7.374.8l-26.256-35.1-36.92,68.463A4.307,4.307,0,0,1,1175.366,1440.555Z" fill="#b388eb"/>
    </g>
    <g id="Group_145" data-name="Group 145">
      <g id="Group_135" data-name="Group 135">
        <rect id="Rectangle_87" data-name="Rectangle 87" width="11.578" height="41.642" rx="5.789" transform="matrix(-0.676, -0.737, 0.737, -0.676, 1343.704, 1406.343)" fill="#ff8f8e"/>
        <path id="Path_258" data-name="Path 258" d="M1341.777,1392.4l7.25,4.664a4.972,4.972,0,0,0-.356-2.8,5.915,5.915,0,0,0-5.534-3.1Z" fill="#ae324a"/>
        <rect id="Rectangle_88" data-name="Rectangle 88" width="11.578" height="47.933" rx="5.789" transform="translate(1349.333 1392.399) rotate(90)" fill="#ff8f8e"/>
        <rect id="Rectangle_89" data-name="Rectangle 89" width="23.795" height="35.693" rx="4.389" transform="matrix(0.676, 0.737, -0.737, 0.676, 1376.216, 1352.292)" fill="#b388eb"/>
        <g id="Group_134" data-name="Group 134">
          <path id="Path_259" data-name="Path 259" d="M1321.805,1395.227l-.551,8.7s-8.778-.724-10.857-.416-5.281,1.687-7.54,1.924a6.111,6.111,0,0,1-6.335-3.591l-4.146-7.586s12.644-1.549,14.408-1.834,5.481,1.931,6.753,2.149S1321.805,1395.227,1321.805,1395.227Z" fill="#ff8f8e"/>
          <path id="Path_260" data-name="Path 260" d="M1301.424,1393.171s-9.969.968-13.655,1.588-6.743.951-8.183,1.173-3.233,3.019,1.306,2.645c4.675-.386,18.084-1.909,18.084-1.909Z" fill="#ff8f8e"/>
          <path id="Path_261" data-name="Path 261" d="M1297.09,1396.338a57.324,57.324,0,0,0-5.947,1.229c-1.343.491-.886,3.146.674,3.022a16.314,16.314,0,0,0,6.129-1.62C1299.392,1398.109,1299.379,1395.941,1297.09,1396.338Z" fill="#ff8f8e"/>
          <path id="Path_262" data-name="Path 262" d="M1299.378,1399.225a62.559,62.559,0,0,0-6.484,1.256c-1.343.49-.81,3.344,1.211,2.995s4.685-.761,6.13-1.621S1301.229,1398.925,1299.378,1399.225Z" fill="#ff8f8e"/>
          <path id="Path_263" data-name="Path 263" d="M1301.753,1401.715a55.748,55.748,0,0,0-5.814,1.136c-1.227.448-.6,3.022,1.25,2.7a17.476,17.476,0,0,0,5.346-1.437C1303.855,1403.332,1303.843,1401.352,1301.753,1401.715Z" fill="#ff8f8e"/>
          <path id="Path_264" data-name="Path 264" d="M1309.935,1400.178s-4.567-.041-6.426-1.007a14.632,14.632,0,0,1-2.469-1.53s-3.709,1.323-6.129.884c-2.217-.4-2.332-1.557-2.332-1.557s-.22,1.568,2.465,2.1c2.375.467,6.047-.726,6.047-.726a8,8,0,0,0,4.848,2.6A10.119,10.119,0,0,0,1309.935,1400.178Z" fill="#ae324a"/>
          <path id="Path_265" data-name="Path 265" d="M1293.874,1396.253c3.258-.459,6.131-2.491,10.689-3.506-1.307.121-4.537.574-4.537.574S1295.607,1395.371,1293.874,1396.253Z" fill="#ae324a"/>
          <path id="Path_266" data-name="Path 266" d="M1295.238,1403.28s3.767-1.091,4.823-1.265a6.616,6.616,0,0,1,2.859-.21c.756.266.859.831.286,1.652s-3.242,1.575-3.242,1.575,2.78-.02,3.9-1.542c.861-1.167-.071-2.052-1-2.394a4,4,0,0,0-1.732-.067s.416-1.052-.342-1.581a4.742,4.742,0,0,0-2.421-.388,10.859,10.859,0,0,0-2.583.215c-.826.264-2.9,1.206-2.9,1.206s3.787-.764,4.894-.813a3.97,3.97,0,0,1,2.386.319.735.735,0,0,1,.251.877C1300.206,1401.428,1300.027,1401.551,1295.238,1403.28Z" fill="#ae324a"/>
        </g>
      </g>
      <g id="Group_137" data-name="Group 137">
        <rect id="Rectangle_90" data-name="Rectangle 90" width="8.614" height="35.665" rx="4.307" transform="translate(1369.596 1577.411) rotate(-180)" fill="#ff8f8e"/>
        <path id="Path_267" data-name="Path 267" d="M1370.619,1586.2h-26.55a7.257,7.257,0,0,1,.246-2.754c1.011-3.42,4.359-4.717,8.948-7.817a58.876,58.876,0,0,0,6.785-5.359h10.571Z" fill="#b388eb"/>
        <path id="Path_268" data-name="Path 268" d="M1344.067,1584.736h26.552v1.46h-26.552a7.521,7.521,0,0,1-.035-.781C1344.034,1585.172,1344.047,1584.945,1344.067,1584.736Z" fill="#fff"/>
        <circle id="Ellipse_16" data-name="Ellipse 16" cx="2.557" cy="2.557" r="2.557" transform="translate(1363.539 1577.411)" fill="#fff"/>
        <g id="Group_136" data-name="Group 136">
          <path id="Path_269" data-name="Path 269" d="M1366.095,1582.148a2.18,2.18,0,1,1,2.18-2.18A2.183,2.183,0,0,1,1366.095,1582.148Zm0-4.065a1.885,1.885,0,1,0,1.885,1.885A1.888,1.888,0,0,0,1366.095,1578.083Z" fill="#b388eb"/>
        </g>
        <path id="Path_270" data-name="Path 270" d="M1356.542,1573.234l3.408,3.407,1.032-1.032-3.3-3.3C1357.3,1572.636,1356.912,1572.944,1356.542,1573.234Z" fill="#fff"/>
        <path id="Path_271" data-name="Path 271" d="M1357.7,1578.89l1.032-1.032-3.574-3.574c-.42.309-.825.6-1.2.863Z" fill="#fff"/>
        <path id="Path_272" data-name="Path 272" d="M1351.335,1576.88l4.188,4.188,1.032-1.032-3.965-3.965C1352.159,1576.355,1351.741,1576.623,1351.335,1576.88Z" fill="#fff"/>
      </g>
      <g id="Group_139" data-name="Group 139">
        <rect id="Rectangle_91" data-name="Rectangle 91" width="8.614" height="35.665" rx="4.307" transform="translate(1437.582 1570.649) rotate(163.828)" fill="#ff8f8e"/>
        <path id="Path_273" data-name="Path 273" d="M1441.011,1578.8l-25.5,7.394a7.228,7.228,0,0,1-.531-2.713c.018-3.566,2.873-5.744,6.417-10a58.9,58.9,0,0,0,5.024-7.037l10.152-2.944Z" fill="#b388eb"/>
        <path id="Path_274" data-name="Path 274" d="M1415.1,1584.794l25.5-7.395.407,1.4-25.5,7.4a7.6,7.6,0,0,1-.251-.74C1415.192,1585.222,1415.142,1585,1415.1,1584.794Z" fill="#fff"/>
        <circle id="Ellipse_17" data-name="Ellipse 17" cx="2.557" cy="2.557" r="2.557" transform="translate(1432.375 1571.523)" fill="#fff"/>
        <g id="Group_138" data-name="Group 138">
          <path id="Path_275" data-name="Path 275" d="M1435.539,1576.172a2.179,2.179,0,1,1,1.486-2.7A2.182,2.182,0,0,1,1435.539,1576.172Zm-1.132-3.9a1.885,1.885,0,1,0,2.335,1.285A1.887,1.887,0,0,0,1434.407,1572.269Z" fill="#b388eb"/>
        </g>
        <path id="Path_276" data-name="Path 276" d="M1423.881,1570.272l4.222,2.324.7-1.279-4.084-2.247C1424.437,1569.489,1424.156,1569.891,1423.881,1570.272Z" fill="#fff"/>
        <path id="Path_277" data-name="Path 277" d="M1426.57,1575.381l.7-1.278-4.428-2.437c-.317.413-.624.806-.913,1.163Z" fill="#fff"/>
        <path id="Path_278" data-name="Path 278" d="M1419.9,1575.224l5.189,2.856.7-1.278-4.912-2.7C1420.541,1574.49,1420.214,1574.864,1419.9,1575.224Z" fill="#fff"/>
      </g>
      <g id="Group_140" data-name="Group 140">
        <rect id="Rectangle_92" data-name="Rectangle 92" width="12.56" height="20.231" transform="translate(1388.692 1327.953)" fill="#ff8f8e"/>
        <path id="Path_279" data-name="Path 279" d="M1399.669,1334.161c1.568,4.043-2.86,9.131-6.891,9.411a6.265,6.265,0,0,1-4.086-1.317,6.657,6.657,0,0,1-2.271-5.267,7.187,7.187,0,0,1,6.172-6.6C1395.541,1330.026,1398.685,1331.623,1399.669,1334.161Z" fill="#ae324a"/>
        <path id="Path_280" data-name="Path 280" d="M1401.333,1324.848v-5.675a6.216,6.216,0,0,0-6.2-6.2h-7.575a6.216,6.216,0,0,0-6.2,6.2v9.714c.546,8.318,5.661,14.027,9.984,14.042,5.175.018,9.937-8.08,9.965-14.084Z" fill="#ff8f8e"/>
        <path id="Path_281" data-name="Path 281" d="M1395.765,1320.96c-.981-1.423-3.568-2.146-5.723-1.786-1.81.3-1.765,1.033-3.551,1.369a7.231,7.231,0,0,1-6.056-1.6,6.623,6.623,0,0,1-1.882-4.1c-.335-2.939,1.122-6.452,3.244-7.183,1.945-.67,2.675,1.145,6.347,1.237,2.494.062,2.728-.76,6.02-.854a13.082,13.082,0,0,1,5.239.636,14.56,14.56,0,0,1,5.02,4.074c7.412,9.644-.023,27.625-3.171,27.5-1.311-.053-2.976-3.29-2.592-5.653.13-.8.554-1.865,1.372-5,.1-.386.093-.4.153-.585.441-1.35,1.206-2.136.964-3.465a2.04,2.04,0,0,0-.946-1.537,1.7,1.7,0,0,0-1.6.146,2.533,2.533,0,0,0-.927,1.855c-.156.957.08,1.593-.055,1.637-.168.055-.719-.869-1.109-1.983C1395.573,1323,1396.573,1322.13,1395.765,1320.96Z" fill="#b388eb"/>
        <path id="Path_282" data-name="Path 282" d="M1400.432,1326.2c-.039.005.013-.652-.381-.894a.589.589,0,0,0-.445-.062.691.691,0,0,0-.4.464,1.07,1.07,0,0,0,.032.729c.109.3.234.282.345.575a1.05,1.05,0,0,1,.007.906.683.683,0,0,1-.67.348.427.427,0,0,1-.328-.295c-.016-.1.051-.139.147-.385a.766.766,0,0,0,.1-.407c-.041-.2-.233-.187-.311-.422a.631.631,0,0,1,.027-.43c.057-.134.109-.122.169-.24.117-.232-.043-.362.036-.648a.776.776,0,0,1,.744-.562,1.112,1.112,0,0,1,.793.4A.956.956,0,0,1,1400.432,1326.2Z" fill="#ae324a"/>
        <rect id="Rectangle_93" data-name="Rectangle 93" width="2.674" height="2.019" rx="1.009" transform="translate(1380.028 1326.943)" fill="#ff8f8e"/>
      </g>
      <g id="Group_141" data-name="Group 141">
        <rect id="Rectangle_94" data-name="Rectangle 94" width="23.786" height="17.84" rx="4.417" transform="translate(1382.374 1348.184)" fill="#ff8f8e"/>
        <path id="Path_283" data-name="Path 283" d="M1386.862,1348.184a18.253,18.253,0,0,0-16.185,9.8c-1.148,2.2-4.528,6.032-6.143,13.985-4.107,20.232,4.049,47.43,5.947,53.519H1424c3.56-7.64,11.107-26.581,5.947-47.572-1.507-6.129-5.618-13.3-11.762-21.979a18.307,18.307,0,0,0-14.936-7.754,8.6,8.6,0,0,1-16.387,0Z" fill="#b388eb"/>
      </g>
      <g id="Group_143" data-name="Group 143">
        <g id="Group_142" data-name="Group 142">
          <rect id="Rectangle_95" data-name="Rectangle 95" width="11.573" height="41.626" rx="5.787" transform="matrix(-0.701, 0.713, -0.713, -0.701, 1453.982, 1398.092)" fill="#ff8f8e"/>
          <rect id="Rectangle_96" data-name="Rectangle 96" width="11.573" height="47.916" rx="5.787" transform="translate(1450.241 1391.361) rotate(78.078)" fill="#ff8f8e"/>
          <path id="Path_284" data-name="Path 284" d="M1434.085,1394.773l7.482-1.58a14.937,14.937,0,0,0-8.7.389Z" fill="#ae324a"/>
        </g>
        <rect id="Rectangle_97" data-name="Rectangle 97" width="23.786" height="35.68" rx="4.389" transform="translate(1398.331 1368.449) rotate(-45.518)" fill="#b388eb"/>
        <path id="Path_285" data-name="Path 285" d="M1426.782,1408.093s-11.58,2.182-13.788,2.391-5.333,2.741-7.876,3.078a42.819,42.819,0,0,1-8.508.006c-1.084-.031-2.047-.218-2.289-.972a1.656,1.656,0,0,1,.193-1.665s-1.7.151-1.983-.782a2.33,2.33,0,0,1,.56-2.132,1.984,1.984,0,0,1-1.641-1.319c-.229-.8.722-2,.722-2a1.637,1.637,0,0,1-.755-1.659c.07-.692,1.153-1.007,2.287-1.436.7-.265,5.171-1.323,5.857-1.64a3.01,3.01,0,0,0,.866-3.557c-1.248-2.685-1.57-4.427-.559-6.151.772-1.315,1.626-.99,1.626-.99s.189,2.865.776,3.711a21.168,21.168,0,0,1,1.9,3.563,6.918,6.918,0,0,0,3.242,2.769c.684.238,1.56.569,2.486.83a7.548,7.548,0,0,0,3.506.32c3.181-.712,12.041-3.056,12.041-3.056l.254,2.025h0Z" fill="#ff8f8e"/>
      </g>
      <g id="Group_144" data-name="Group 144">
        <path id="Path_286" data-name="Path 286" d="M1370.481,1425.489c4.387,18.873,8.9,34.6,12.554,46.4,5.909,19.07,9.981,32.21,17.7,48.618a259.075,259.075,0,0,0,23.192,39.723l11.41-3.192c-.343-4.66-1.013-11.8-2.442-20.408-3.172-19.11-6.021-21.037-8.52-34.477-5.393-28.994-.353-64.225-.372-70.716,0-.1-.006-1.786,0-4.083,0-.712,0-1.338,0-1.864Z" fill="#20221d"/>
        <path id="Path_287" data-name="Path 287" d="M1370.481,1425.489a383.742,383.742,0,0,0-11.893,136.772h11.893c5.407-30.246,15.727-50.95,24.49-64.531,10.627-16.474,27.94-36.385,29.029-66.294.092-2.511.05-4.581,0-5.947Z" fill="#444"/>
      </g>
    </g>
    <g id="Group_161" data-name="Group 161">
      <g id="Group_147" data-name="Group 147">
        <rect id="Rectangle_98" data-name="Rectangle 98" width="11.578" height="41.642" rx="5.789" transform="translate(1112.11 1377.522) rotate(-47.467)" fill="#ff8f8e"/>
        <rect id="Rectangle_99" data-name="Rectangle 99" width="11.578" height="47.933" rx="5.789" transform="translate(1185.1 1391.729) rotate(90)" fill="#ff8f8e"/>
        <rect id="Rectangle_100" data-name="Rectangle 100" width="23.795" height="35.693" rx="4.389" transform="matrix(-0.676, 0.737, -0.737, -0.676, 1136.585, 1375.75)" fill="#b388eb"/>
        <g id="Group_146" data-name="Group 146">
          <path id="Path_288" data-name="Path 288" d="M1164.694,1394.557l.551,8.7s8.778-.724,10.858-.416,5.281,1.686,7.539,1.924a6.11,6.11,0,0,0,6.335-3.592l4.146-7.585s-12.643-1.549-14.408-1.834-5.481,1.931-6.752,2.149S1164.694,1394.557,1164.694,1394.557Z" fill="#ff8f8e"/>
          <path id="Path_289" data-name="Path 289" d="M1185.076,1392.5s9.969.968,13.655,1.588,6.742.951,8.183,1.173,3.233,3.019-1.307,2.645c-4.674-.386-18.084-1.909-18.084-1.909Z" fill="#ff8f8e"/>
          <path id="Path_290" data-name="Path 290" d="M1189.41,1395.668a57.054,57.054,0,0,1,5.946,1.229c1.343.491.886,3.146-.673,3.022a16.317,16.317,0,0,1-6.13-1.62C1187.108,1397.439,1187.121,1395.271,1189.41,1395.668Z" fill="#ff8f8e"/>
          <path id="Path_291" data-name="Path 291" d="M1187.121,1398.555a62.534,62.534,0,0,1,6.485,1.256c1.343.49.81,3.344-1.212,2.994s-4.684-.76-6.129-1.62S1185.271,1398.255,1187.121,1398.555Z" fill="#ff8f8e"/>
          <path id="Path_292" data-name="Path 292" d="M1184.746,1401.045a55.7,55.7,0,0,1,5.814,1.136c1.227.448.6,3.022-1.249,2.7a17.486,17.486,0,0,1-5.347-1.436C1182.644,1402.661,1182.656,1400.682,1184.746,1401.045Z" fill="#ff8f8e"/>
          <path id="Path_293" data-name="Path 293" d="M1176.564,1399.507s4.568-.04,6.427-1.006a14.632,14.632,0,0,0,2.469-1.53s3.709,1.323,6.128.884c2.217-.4,2.332-1.557,2.332-1.557s.22,1.568-2.464,2.1c-2.376.467-6.047-.727-6.047-.727a8.007,8.007,0,0,1-4.848,2.6A10.13,10.13,0,0,1,1176.564,1399.507Z" fill="#ae324a"/>
          <path id="Path_294" data-name="Path 294" d="M1192.625,1395.583c-3.258-.459-6.131-2.492-10.688-3.506,1.306.121,4.536.574,4.536.574S1190.892,1394.7,1192.625,1395.583Z" fill="#ae324a"/>
          <path id="Path_295" data-name="Path 295" d="M1191.261,1402.61s-3.767-1.092-4.823-1.265a6.618,6.618,0,0,0-2.859-.21c-.755.265-.859.831-.285,1.651s3.242,1.576,3.242,1.576-2.781-.02-3.9-1.542c-.861-1.168.072-2.052,1-2.394a4,4,0,0,1,1.733-.067s-.417-1.052.342-1.581a4.743,4.743,0,0,1,2.421-.388,10.859,10.859,0,0,1,2.583.215c.825.264,2.9,1.206,2.9,1.206s-3.788-.764-4.894-.813a3.984,3.984,0,0,0-2.387.318.739.739,0,0,0-.251.878C1186.293,1400.758,1186.472,1400.881,1191.261,1402.61Z" fill="#ae324a"/>
        </g>
      </g>
      <path id="Path_303" data-name="Path 303" d="M1144.723,1391.729l-7.25,4.664a4.969,4.969,0,0,1,.355-2.8,5.916,5.916,0,0,1,5.535-3.1Z" fill="#ae324a"/>
      <g id="Group_152" data-name="Group 152">
        <rect id="Rectangle_103" data-name="Rectangle 103" width="12.565" height="20.239" transform="translate(1105.203 1348.095) rotate(180)" fill="#ff8f8e"/>
        <path id="Path_310" data-name="Path 310" d="M1094.222,1334.067c-1.569,4.045,2.861,9.134,6.893,9.415a6.268,6.268,0,0,0,4.088-1.318,6.658,6.658,0,0,0,2.271-5.269,7.188,7.188,0,0,0-6.174-6.6C1098.352,1329.93,1095.206,1331.528,1094.222,1334.067Z" fill="#ae324a"/>
        <path id="Path_311" data-name="Path 311" d="M1092.557,1324.75v-5.677a6.217,6.217,0,0,1,6.2-6.2h7.579a6.216,6.216,0,0,1,6.2,6.2v9.718c-.545,8.321-5.663,14.032-9.988,14.047-5.176.018-9.939-8.082-9.968-14.089Z" fill="#ff8f8e"/>
        <path id="Path_312" data-name="Path 312" d="M1098.127,1320.861c.982-1.423,3.569-2.147,5.725-1.787,1.811.3,1.766,1.034,3.552,1.37a7.238,7.238,0,0,0,6.059-1.6,6.629,6.629,0,0,0,1.882-4.1c.335-2.941-1.121-6.455-3.244-7.186-1.946-.67-2.677,1.146-6.35,1.238-2.495.062-2.729-.761-6.023-.854a13.086,13.086,0,0,0-5.24.635,14.574,14.574,0,0,0-5.022,4.076c-7.415,9.648.023,27.635,3.172,27.508,1.312-.053,2.977-3.291,2.593-5.655-.13-.8-.554-1.866-1.372-5-.1-.386-.094-.4-.153-.585-.442-1.35-1.206-2.136-.965-3.466a2.041,2.041,0,0,1,.947-1.538,1.7,1.7,0,0,1,1.6.146,2.535,2.535,0,0,1,.928,1.856c.155.957-.08,1.593.054,1.637.168.056.719-.869,1.11-1.983C1098.319,1322.9,1097.319,1322.031,1098.127,1320.861Z" fill="#b388eb"/>
        <path id="Path_313" data-name="Path 313" d="M1093.458,1326.1c.039.006-.013-.652.382-.9a.6.6,0,0,1,.445-.061.69.69,0,0,1,.4.464,1.069,1.069,0,0,1-.033.729c-.108.3-.233.282-.345.575a1.053,1.053,0,0,0-.006.907.683.683,0,0,0,.67.348.43.43,0,0,0,.329-.3c.015-.1-.052-.138-.148-.384a.768.768,0,0,1-.1-.408c.041-.2.233-.187.312-.421a.639.639,0,0,0-.028-.431c-.057-.134-.109-.122-.169-.24-.117-.232.043-.362-.036-.649a.785.785,0,0,0-.286-.41.808.808,0,0,0-.458-.152,1.117,1.117,0,0,0-.793.4A.957.957,0,0,0,1093.458,1326.1Z" fill="#ae324a"/>
        <rect id="Rectangle_104" data-name="Rectangle 104" width="2.675" height="2.02" rx="1.01" transform="translate(1113.87 1328.866) rotate(-180)" fill="#ff8f8e"/>
      </g>
      <g id="Group_153" data-name="Group 153">
        <rect id="Rectangle_105" data-name="Rectangle 105" width="23.795" height="17.846" rx="4.417" transform="translate(1111.523 1365.941) rotate(180)" fill="#ff8f8e"/>
        <path id="Path_314" data-name="Path 314" d="M1107.033,1348.095a18.259,18.259,0,0,1,16.192,9.805c1.148,2.2,4.53,6.034,6.145,13.99,4.108,20.239-4.051,47.448-5.949,53.539h-53.54c-3.561-7.643-11.11-26.591-5.948-47.59,1.507-6.131,5.619-13.3,11.766-21.987a18.315,18.315,0,0,1,14.941-7.757,8.6,8.6,0,0,0,16.393,0Z" fill="#b388eb"/>
      </g>
      <g id="Group_603" data-name="Group 603">
        <g id="Group_149" data-name="Group 149">
          <rect id="Rectangle_101" data-name="Rectangle 101" width="8.618" height="35.678" rx="4.309" transform="translate(1088.413 1541.73)" fill="#ff8f8e"/>
          <path id="Path_296" data-name="Path 296" d="M1087.39,1586.2h26.559a7.217,7.217,0,0,0-.246-2.755c-1.011-3.421-4.361-4.719-8.951-7.82a58.932,58.932,0,0,1-6.787-5.361H1087.39Z" fill="#b388eb"/>
          <path id="Path_297" data-name="Path 297" d="M1113.951,1584.736H1087.39v1.46h26.561c.023-.237.037-.5.036-.781C1113.985,1585.171,1113.972,1584.944,1113.951,1584.736Z" fill="#fff"/>
          <circle id="Ellipse_18" data-name="Ellipse 18" cx="2.558" cy="2.558" r="2.558" transform="translate(1089.357 1577.408)" fill="#fff"/>
          <g id="Group_148" data-name="Group 148">
            <path id="Path_298" data-name="Path 298" d="M1091.915,1582.146a2.18,2.18,0,1,0-2.181-2.18A2.183,2.183,0,0,0,1091.915,1582.146Zm0-4.066a1.885,1.885,0,1,1-1.885,1.886A1.887,1.887,0,0,1,1091.915,1578.08Z" fill="#b388eb"/>
          </g>
          <path id="Path_299" data-name="Path 299" d="M1101.472,1573.229l-3.409,3.409-1.033-1.032,3.3-3.3Q1100.915,1572.792,1101.472,1573.229Z" fill="#fff"/>
          <path id="Path_300" data-name="Path 300" d="M1100.312,1578.887l-1.033-1.033,3.575-3.574c.42.309.825.6,1.2.863Z" fill="#fff"/>
          <path id="Path_301" data-name="Path 301" d="M1106.681,1576.876l-4.19,4.19-1.032-1.032,3.966-3.966C1105.857,1576.351,1106.275,1576.619,1106.681,1576.876Z" fill="#fff"/>
        </g>
        <path id="Path_302" data-name="Path 302" d="M1114.3,1425.429c-.206,18.487-1.162,38.386-3.206,59.489a697.91,697.91,0,0,1-11.9,77.334h-11.9c-7.777-50.016-13.48-85.378-16.658-99.147a85.616,85.616,0,0,1-2.2-28.2,81.438,81.438,0,0,1,1.442-9.475Z" fill="#20221d"/>
        <g id="Group_151" data-name="Group 151">
          <rect id="Rectangle_102" data-name="Rectangle 102" width="8.618" height="35.678" rx="4.309" transform="translate(1097.443 1541.73)" fill="#ff8f8e"/>
          <path id="Path_304" data-name="Path 304" d="M1096.42,1586.2h26.559a7.222,7.222,0,0,0-.246-2.755c-1.011-3.421-4.361-4.719-8.951-7.82a58.922,58.922,0,0,1-6.787-5.361H1096.42Z" fill="#b388eb"/>
          <path id="Path_305" data-name="Path 305" d="M1122.981,1584.736H1096.42v1.46h26.561a7.786,7.786,0,0,0,.036-.781C1123.015,1585.171,1123,1584.944,1122.981,1584.736Z" fill="#fff"/>
          <circle id="Ellipse_19" data-name="Ellipse 19" cx="2.558" cy="2.558" r="2.558" transform="translate(1098.387 1577.408)" fill="#fff"/>
          <g id="Group_150" data-name="Group 150">
            <path id="Path_306" data-name="Path 306" d="M1100.945,1582.146a2.18,2.18,0,1,0-2.181-2.18A2.183,2.183,0,0,0,1100.945,1582.146Zm0-4.066a1.885,1.885,0,1,1-1.885,1.886A1.887,1.887,0,0,1,1100.945,1578.08Z" fill="#b388eb"/>
          </g>
          <path id="Path_307" data-name="Path 307" d="M1110.5,1573.229l-3.408,3.409-1.033-1.032,3.3-3.3Q1109.945,1572.792,1110.5,1573.229Z" fill="#fff"/>
          <path id="Path_308" data-name="Path 308" d="M1109.342,1578.887l-1.033-1.033,3.575-3.574c.42.309.825.6,1.2.863Z" fill="#fff"/>
          <path id="Path_309" data-name="Path 309" d="M1115.711,1576.876l-4.19,4.19-1.032-1.032,3.966-3.966C1114.887,1576.351,1115.305,1576.619,1115.711,1576.876Z" fill="#fff"/>
        </g>
        <path id="Path_315" data-name="Path 315" d="M1123.421,1425.429c-.206,18.487-1.162,38.386-3.206,59.489a697.91,697.91,0,0,1-11.9,77.334h-11.9c-12.868-55.637-21.692-96.561-23.8-107.078a133.857,133.857,0,0,1-2.744-23.8c-.061-2.69-.026-4.837,0-5.949Z" fill="#444"/>
      </g>
      <g id="Group_160" data-name="Group 160">
        <g id="Group_154" data-name="Group 154">
          <rect id="Rectangle_106" data-name="Rectangle 106" width="11.578" height="41.642" rx="5.789" transform="matrix(0.939, 0.343, -0.343, 0.939, 1068.542, 1372.148)" fill="#ff8f8e"/>
          <path id="Path_316" data-name="Path 316" d="M1063.815,1403.726a4.564,4.564,0,0,1,2.52,1.126,4.649,4.649,0,0,1,1.48,3.018q-.355,1.024-.709,2.049Z" fill="#ae324a"/>
          <rect id="Rectangle_107" data-name="Rectangle 107" width="11.578" height="47.933" rx="5.789" transform="translate(1064.088 1451.438) rotate(-175.808)" fill="#ff8f8e"/>
        </g>
        <g id="Group_159" data-name="Group 159">
          <g id="Group_158" data-name="Group 158">
            <g id="Group_155" data-name="Group 155">
              <path id="Path_317" data-name="Path 317" d="M1057.082,1467.484s4.225,1.039,5.8,1.532a5.312,5.312,0,0,0,1.99.408,2.685,2.685,0,0,0-1.849-2.514c-1.905-.673-5.068-2.187-5.068-2.187l-2.707-4.716S1054.381,1465.9,1057.082,1467.484Z" fill="#ae324a"/>
            </g>
            <g id="Group_156" data-name="Group 156">
              <path id="Path_318" data-name="Path 318" d="M1056.832,1464.337s4.47.478,6.149.764a5.487,5.487,0,0,0,2.094.142,2.777,2.777,0,0,0-2.243-2.319c-2.043-.424-5.492-1.535-5.492-1.535l-3.428-4.453S1053.846,1463.09,1056.832,1464.337Z" fill="#ae324a"/>
            </g>
            <path id="Path_319" data-name="Path 319" d="M1053.569,1466.409s2.569,3.087,4.069,3.889,6.108,2.839,6.108,2.839,1.011-.6-.494-2.143a47.085,47.085,0,0,0-5.74-4.243l-2.121-4.933Z" fill="#ff8f8e"/>
            <g id="Group_157" data-name="Group 157">
              <path id="Path_320" data-name="Path 320" d="M1058.347,1432.845c-1.847,2.43-3.427,4.249-4.022,6.352-.9,3.173-2.139,8.68-3.133,12.983a16.822,16.822,0,0,0-.229,5.369c.358,2.817.427,5.477,1.038,10.3a44.982,44.982,0,0,0,2.781,9.388,3.082,3.082,0,0,0,1.515-3.776c-.67-2.807-.83-13.334.476-16.46.217-.519,1.987-1.441,1.987-1.441s3.216,4.282,4.526,6c2.715,3.561,4.348,2.573,4.975,2.215,1.47-.84-1.249-2.905-1.991-4.255-1.17-2.129-2.1-4.839-1.355-11.194.267-2.291-1.588-6.226-1.225-8.389a20.018,20.018,0,0,1,1.485-3.088Z" fill="#ff8f8e"/>
            </g>
          </g>
        </g>
        <rect id="Rectangle_108" data-name="Rectangle 108" width="23.795" height="35.693" rx="4.389" transform="matrix(-0.875, -0.485, 0.485, -0.875, 1079.127, 1398.225)" fill="#b388eb"/>
      </g>
    </g>
    <g id="Group_162" data-name="Group 162">
      <path id="Path_321" data-name="Path 321" d="M1158.527,1552.885c-4.283-.258-4.356,7.349-4.32,9.85.1,6.7,1.174,13.39,1.629,20.076-.051.415-.1.832-.151,1.248a.809.809,0,0,0,1,.9.759.759,0,0,0,1.02-.774c-.023-.416-.054-.832-.08-1.249.9-7.117,1.954-14.262,2.621-21.429C1160.415,1559.646,1161.722,1553.078,1158.527,1552.885Z" fill="#b388eb"/>
      <path id="Path_322" data-name="Path 322" d="M1178.135,1570.227c-2.986-2.925-8.194-.466-10.712,1.68-3.529,3.007-5.848,7.722-7.228,12.069a.833.833,0,0,0,0,.534c-.171.889,1.14,1.549,1.632.628,2.472-4.628,8.149-6.644,12.531-9.038C1176.1,1575.145,1180.6,1572.64,1178.135,1570.227Z" fill="#b388eb"/>
      <path id="Path_323" data-name="Path 323" d="M1168.386,1561.289c-4.85-4.018-6.759,9.657-6.8,11.994a.891.891,0,0,0,1.765.144,1,1,0,0,0,.132-.169C1164.93,1570.914,1171.819,1564.135,1168.386,1561.289Z" fill="#b388eb"/>
      <path id="Path_324" data-name="Path 324" d="M1180.425,1581.006c-1.5-4.568-11.352,1.089-13.881,2.2a.7.7,0,0,0-.465.669.9.9,0,0,0,.914,1.435,11.959,11.959,0,0,1,3.2-.067,39.781,39.781,0,0,0,5.5-.256C1177.52,1584.747,1181.31,1583.7,1180.425,1581.006Z" fill="#b388eb"/>
      <path id="Path_325" data-name="Path 325" d="M1138.794,1576.1c4.384,2.394,10.06,4.41,12.532,9.038.492.921,1.8.261,1.632-.628a.827.827,0,0,0,0-.534c-1.381-4.347-3.7-9.062-7.227-12.069-2.519-2.146-7.728-4.6-10.714-1.68C1132.551,1572.64,1137.046,1575.145,1138.794,1576.1Z" fill="#b388eb"/>
      <path id="Path_326" data-name="Path 326" d="M1144.764,1561.289c4.849-4.018,6.757,9.657,6.8,11.994a.892.892,0,0,1-1.766.144,1,1,0,0,1-.132-.169C1148.218,1570.914,1141.33,1564.135,1144.764,1561.289Z" fill="#b388eb"/>
      <path id="Path_327" data-name="Path 327" d="M1132.724,1581.006c1.5-4.568,11.352,1.089,13.881,2.2a.7.7,0,0,1,.465.669.9.9,0,0,1-.914,1.435,11.953,11.953,0,0,0-3.2-.067,39.794,39.794,0,0,1-5.5-.256C1135.628,1584.747,1131.839,1583.7,1132.724,1581.006Z" fill="#b388eb"/>
    </g>
    <g id="Group_163" data-name="Group 163">
      <path id="Path_328" data-name="Path 328" d="M1283.023,1541.047c-5.914-.356-6.014,10.148-5.964,13.6.133,9.25,1.621,18.489,2.248,27.721-.069.573-.137,1.149-.208,1.723a1.117,1.117,0,0,0,1.376,1.236,1.047,1.047,0,0,0,1.407-1.068c-.031-.575-.074-1.15-.11-1.725,1.241-9.827,2.7-19.693,3.619-29.59C1285.63,1550.382,1287.435,1541.313,1283.023,1541.047Z" fill="#b388eb"/>
      <path id="Path_329" data-name="Path 329" d="M1310.1,1564.993c-4.124-4.039-11.315-.643-14.793,2.32-4.871,4.152-8.074,10.662-9.98,16.664a1.148,1.148,0,0,0-.005.738c-.237,1.227,1.574,2.139,2.253.867,3.413-6.391,11.253-9.173,17.3-12.479C1307.293,1571.784,1313.5,1568.325,1310.1,1564.993Z" fill="#b388eb"/>
      <path id="Path_330" data-name="Path 330" d="M1296.636,1552.651c-6.7-5.547-9.332,13.335-9.385,16.562a1.231,1.231,0,0,0,2.437.2,1.372,1.372,0,0,0,.182-.234C1291.865,1565.941,1301.376,1556.581,1296.636,1552.651Z" fill="#b388eb"/>
      <path id="Path_331" data-name="Path 331" d="M1313.26,1579.876c-2.068-6.306-15.674,1.505-19.166,3.038a.972.972,0,0,0-.644.924,1.242,1.242,0,0,0,1.263,1.982,16.521,16.521,0,0,1,4.418-.093,54.887,54.887,0,0,0,7.593-.353C1309.249,1585.043,1314.482,1583.6,1313.26,1579.876Z" fill="#b388eb"/>
      <path id="Path_332" data-name="Path 332" d="M1255.776,1573.1c6.053,3.306,13.891,6.088,17.3,12.479.68,1.272,2.489.36,2.253-.867a1.136,1.136,0,0,0-.005-.738c-1.906-6-5.106-12.512-9.979-16.664-3.478-2.963-10.671-6.359-14.794-2.32C1247.155,1568.325,1253.362,1571.784,1255.776,1573.1Z" fill="#b388eb"/>
      <path id="Path_333" data-name="Path 333" d="M1264.02,1552.651c6.695-5.547,9.33,13.335,9.384,16.562a1.231,1.231,0,0,1-2.437.2,1.323,1.323,0,0,1-.183-.234C1268.789,1565.941,1259.278,1556.581,1264.02,1552.651Z" fill="#b388eb"/>
      <path id="Path_334" data-name="Path 334" d="M1247.394,1579.876c2.068-6.306,15.676,1.505,19.168,3.038a.966.966,0,0,1,.641.924,1.242,1.242,0,0,1-1.262,1.982,16.508,16.508,0,0,0-4.416-.093,54.908,54.908,0,0,1-7.595-.353C1251.4,1585.043,1246.172,1583.6,1247.394,1579.876Z" fill="#b388eb"/>
    </g>
  </g>
</svg>
