<svg xmlns="http://www.w3.org/2000/svg" width="177.543" height="163.853" viewBox="0 0 177.543 163.853">
  <g id="Group_635" data-name="Group 635" transform="translate(-2572.131 -1257.289)">
    <g id="Group_626" data-name="Group 626" transform="translate(2430.835 -161.683)">
      <path id="Path_566" data-name="Path 566" d="M288.418,1537.675c-5.913-.355-6.013,10.148-5.964,13.6.133,9.25,1.621,18.49,2.248,27.721-.069.574-.136,1.15-.207,1.723a1.116,1.116,0,0,0,1.375,1.237,1.049,1.049,0,0,0,1.408-1.069c-.031-.575-.074-1.15-.11-1.725,1.241-9.826,2.7-19.692,3.618-29.589C291.025,1547.011,292.831,1537.942,288.418,1537.675Z" fill="#b388eb"/>
      <path id="Path_567" data-name="Path 567" d="M315.494,1561.621c-4.123-4.039-11.315-.643-14.792,2.32-4.872,4.153-8.074,10.663-9.98,16.665a1.143,1.143,0,0,0,0,.738c-.237,1.227,1.574,2.138,2.253.867,3.413-6.391,11.252-9.174,17.3-12.48C312.689,1568.412,318.895,1564.954,315.494,1561.621Z" fill="#b388eb"/>
      <path id="Path_568" data-name="Path 568" d="M302.032,1549.28c-6.7-5.548-9.332,13.335-9.385,16.562a1.231,1.231,0,0,0,2.437.2,1.365,1.365,0,0,0,.182-.233C297.26,1562.569,306.772,1553.209,302.032,1549.28Z" fill="#b388eb"/>
      <path id="Path_569" data-name="Path 569" d="M318.656,1576.505c-2.069-6.307-15.675,1.5-19.167,3.038a.97.97,0,0,0-.643.924,1.242,1.242,0,0,0,1.263,1.982,16.474,16.474,0,0,1,4.417-.094,54.551,54.551,0,0,0,7.593-.353C314.645,1581.671,319.878,1580.23,318.656,1576.505Z" fill="#b388eb"/>
      <path id="Path_570" data-name="Path 570" d="M261.171,1569.731c6.053,3.306,13.891,6.089,17.3,12.48.681,1.271,2.49.36,2.254-.867a1.143,1.143,0,0,0-.005-.738c-1.907-6-5.107-12.512-9.98-16.665-3.478-2.963-10.67-6.359-14.794-2.32C252.551,1564.954,258.757,1568.412,261.171,1569.731Z" fill="#b388eb"/>
      <path id="Path_571" data-name="Path 571" d="M269.415,1549.28c6.7-5.548,9.331,13.335,9.385,16.562a1.231,1.231,0,0,1-2.438.2,1.317,1.317,0,0,1-.182-.233C274.185,1562.569,264.673,1553.209,269.415,1549.28Z" fill="#b388eb"/>
      <path id="Path_572" data-name="Path 572" d="M252.79,1576.505c2.068-6.307,15.675,1.5,19.167,3.038a.965.965,0,0,1,.642.924,1.242,1.242,0,0,1-1.262,1.982,16.47,16.47,0,0,0-4.416-.094,54.587,54.587,0,0,1-7.6-.353C256.8,1581.671,251.568,1580.23,252.79,1576.505Z" fill="#b388eb"/>
    </g>
    <g id="Group_627" data-name="Group 627" transform="translate(2604.394 -161.683)">
      <path id="Path_573" data-name="Path 573" d="M-6.328,1550.127c-4.283-.258-4.356,7.349-4.32,9.85.1,6.7,1.174,13.39,1.629,20.075-.051.416-.1.833-.151,1.248a.809.809,0,0,0,1,.9.759.759,0,0,0,1.02-.774c-.023-.416-.054-.833-.08-1.249.9-7.117,1.954-14.262,2.621-21.429C-4.44,1556.887-3.133,1550.319-6.328,1550.127Z" fill="#b388eb"/>
      <path id="Path_574" data-name="Path 574" d="M13.28,1567.469c-2.986-2.925-8.194-.466-10.712,1.68-3.529,3.007-5.848,7.722-7.228,12.069a.833.833,0,0,0,0,.534c-.171.889,1.14,1.549,1.632.628,2.472-4.629,8.149-6.644,12.531-9.038C11.249,1572.387,15.743,1569.882,13.28,1567.469Z" fill="#b388eb"/>
      <path id="Path_575" data-name="Path 575" d="M3.531,1558.531c-4.85-4.018-6.759,9.657-6.8,11.994a.891.891,0,0,0,1.765.144,1,1,0,0,0,.132-.169C.075,1568.155,6.964,1561.376,3.531,1558.531Z" fill="#b388eb"/>
      <path id="Path_576" data-name="Path 576" d="M15.57,1578.248c-1.5-4.568-11.352,1.089-13.881,2.2a.7.7,0,0,0-.465.669.9.9,0,0,0,.914,1.435,11.924,11.924,0,0,1,3.2-.067,39.761,39.761,0,0,0,5.5-.256C12.666,1581.989,16.455,1580.945,15.57,1578.248Z" fill="#b388eb"/>
      <path id="Path_577" data-name="Path 577" d="M-26.061,1573.342c4.384,2.394,10.06,4.409,12.532,9.038.492.921,1.8.261,1.632-.628a.826.826,0,0,0,0-.534c-1.381-4.347-3.7-9.062-7.227-12.069-2.519-2.146-7.728-4.605-10.714-1.68C-32.3,1569.882-27.809,1572.387-26.061,1573.342Z" fill="#b388eb"/>
      <path id="Path_578" data-name="Path 578" d="M-20.091,1558.531c4.849-4.018,6.757,9.657,6.8,11.994a.892.892,0,0,1-1.766.144,1,1,0,0,1-.132-.169C-16.637,1568.155-23.525,1561.376-20.091,1558.531Z" fill="#b388eb"/>
      <path id="Path_579" data-name="Path 579" d="M-32.131,1578.248c1.5-4.568,11.352,1.089,13.881,2.2a.7.7,0,0,1,.465.669.9.9,0,0,1-.914,1.435,11.918,11.918,0,0,0-3.2-.067,39.776,39.776,0,0,1-5.5-.256C-29.227,1581.989-33.016,1580.945-32.131,1578.248Z" fill="#b388eb"/>
    </g>
    <g id="Group_630" data-name="Group 630" transform="translate(2473.847 -16.028)">
      <g id="Group_251" data-name="Group 251" transform="translate(122.271 1273.317)">
        <path id="Path_498" data-name="Path 498" d="M122.273,1329.073a59.425,59.425,0,0,1,59.237-55.756A55.681,55.681,0,0,1,196.4,1275.2l-17.5,53.869Z" transform="translate(-122.273 -1273.317)" fill="#b388eb"/>
      </g>
      <g id="Group_252" data-name="Group 252" transform="translate(166.615 1277.432)">
        <path id="Path_499" data-name="Path 499" d="M186.425,1391.948l17.5-53.86,19.111-58.817a59.347,59.347,0,0,1-36.611,112.677Z" transform="translate(-186.425 -1279.27)" fill="#b388eb"/>
      </g>
      <g id="Group_253" data-name="Group 253" transform="translate(122.266 1336.249)">
        <path id="Path_500" data-name="Path 500" d="M122.266,1364.36h54.3L159.786,1416A58.275,58.275,0,0,1,122.266,1364.36Z" transform="translate(-122.266 -1364.36)" fill="#b388eb"/>
      </g>
    </g>
  </g>
</svg>
