<svg xmlns="http://www.w3.org/2000/svg" width="140.324" height="196.514" viewBox="0 0 140.324 196.514">
  <g id="Group_578" data-name="Group 578" transform="translate(-329.907 -206.595)">
    <g id="Group_574" data-name="Group 574" transform="translate(1.614 37.833)">
      <rect id="Rectangle_364" data-name="Rectangle 364" width="27.269" height="20" transform="translate(339.767 345.276)" fill="#ff8f8e"/>
      <ellipse id="Ellipse_66" data-name="Ellipse 66" cx="13.635" cy="12.444" rx="13.635" ry="12.444" transform="translate(339.767 332.831)" fill="#ae324a"/>
      <path id="Path_1169" data-name="Path 1169" d="M375.468,323.692a3.888,3.888,0,0,0-3.067-3.8V309.1A11.826,11.826,0,0,0,360.61,297.3H346.193A11.827,11.827,0,0,0,334.4,309.1V319.8a3.889,3.889,0,1,0,0,7.778c.014,0,.027,0,.041,0C335.053,342.49,343.3,354.3,353.4,354.3c10.113,0,18.378-11.853,18.964-26.8A3.891,3.891,0,0,0,375.468,323.692Z" fill="#ff8f8e"/>
      <path id="Path_1170" data-name="Path 1170" d="M353.29,325.053c-.255,1.109-.609,2.49-1.094,4.061-.9,2.909-1.543,4.174-.906,5.162a2.619,2.619,0,0,0,2,1.027" fill="#ae324a"/>
      <path id="Path_1171" data-name="Path 1171" d="M364.179,294c-5.834-2.252-13.342-1.379-16.553,1.3a12.611,12.611,0,0,0-8.113.806c-5.729,2.721-7.468,9.267-7.767,10.4l-.011.044c-2.073,7.883,1.489,14.751,2.765,16.967a25.045,25.045,0,0,1,4.9-17.411,24.147,24.147,0,0,1,6.926-6.116c.961,2.937,4.221,6.214,7.519,8.005,6.334,3.438,10.919.487,15,3.777,3.36,2.71,3.716,7.866,3.506,11.745a19.088,19.088,0,0,0,3.988-9.607A19.839,19.839,0,0,0,364.179,294Z" fill="#b388eb"/>
    </g>
    <g id="Group_575" data-name="Group 575">
      <rect id="Rectangle_365" data-name="Rectangle 365" width="29.146" height="21.376" transform="translate(341.177 267.949)" fill="#ff8f8e"/>
      <ellipse id="Ellipse_67" data-name="Ellipse 67" cx="14.573" cy="13.301" rx="14.573" ry="13.301" transform="translate(341.177 254.648)" fill="#ae324a"/>
      <path id="Path_1172" data-name="Path 1172" d="M379.334,244.88a4.156,4.156,0,0,0-3.277-4.059V229.278a12.64,12.64,0,0,0-12.6-12.6H348.045a12.641,12.641,0,0,0-12.6,12.6v11.445a4.156,4.156,0,0,0,0,8.313c.015,0,.029,0,.043,0,.653,15.94,9.474,28.566,20.265,28.566,10.809,0,19.642-12.669,20.268-28.647A4.158,4.158,0,0,0,379.334,244.88Z" fill="#ff8f8e"/>
      <path id="Path_1173" data-name="Path 1173" d="M355.631,246.335c-.274,1.184-.651,2.66-1.17,4.34-.961,3.109-1.649,4.461-.968,5.517a2.8,2.8,0,0,0,2.138,1.1" fill="#ae324a"/>
      <path id="Path_1174" data-name="Path 1174" d="M377.9,225.246a8.392,8.392,0,0,0,1.432-4.691v-1.24a8.483,8.483,0,0,0-8.458-8.458h-1.837a8.411,8.411,0,0,0-5.634,2.176c-.488-.55-2.136-2.26-6.456-3.941-3.472-1.351-9.742-3.792-16.917-1.653-2.47.736-5.87,1.749-8.14,5.087a12.47,12.47,0,0,0-1.908,8.236,12.334,12.334,0,0,0,2.41,6.777,20.094,20.094,0,0,0-1.108,6.891c0,5.67,1.908,10.267,4.261,10.267V230.126a18.933,18.933,0,0,0,5.312,1.511c2.334.386,17.373,2.879,22.59-3.195.276-.322.52-.645.751-.967a8.4,8.4,0,0,0,4.839,1.538h1.837A8.4,8.4,0,0,0,376,227.258V244.7c2.354,0,4.262-4.6,4.262-10.267C380.266,230.4,379.3,226.929,377.9,225.246Z" fill="#b388eb"/>
    </g>
    <g id="Group_576" data-name="Group 576" transform="translate(22.085 -0.149)">
      <rect id="Rectangle_366" data-name="Rectangle 366" width="24.912" height="40.127" transform="translate(410.631 248.313)" fill="#ff8f8e"/>
      <path id="Path_1175" data-name="Path 1175" d="M432.4,260.628c3.109,8.018-5.674,18.109-13.668,18.666a12.425,12.425,0,0,1-8.1-2.613c-4.727-3.807-4.534-9.832-4.5-10.447a14.253,14.253,0,0,1,12.241-13.089C424.215,252.424,430.451,255.592,432.4,260.628Z" fill="#ae324a"/>
      <path id="Path_1176" data-name="Path 1176" d="M435.7,242.154V230.9a12.327,12.327,0,0,0-12.29-12.29H408.387A12.327,12.327,0,0,0,396.1,230.9v19.267c1.082,16.5,11.228,27.823,19.8,27.852,10.264.036,19.708-16.025,19.765-27.935Z" fill="#ff8f8e"/>
      <path id="Path_1177" data-name="Path 1177" d="M424.66,234.443c-1.947-2.821-7.077-4.256-11.35-3.543-3.59.6-3.5,2.049-7.044,2.716-.759.143-7.387,1.283-12.013-3.167a13.137,13.137,0,0,1-3.732-8.131c-.664-5.829,2.225-12.8,6.433-14.246,3.859-1.329,5.307,2.271,12.59,2.453,4.946.124,5.411-1.507,11.941-1.693a25.962,25.962,0,0,1,10.39,1.26,28.882,28.882,0,0,1,9.957,8.081c14.7,19.129-.044,54.792-6.289,54.541-2.6-.1-5.9-6.527-5.141-11.213.258-1.584,1.1-3.7,2.72-9.917.2-.765.186-.8.3-1.16.876-2.677,2.392-4.236,1.912-6.872a4.041,4.041,0,0,0-1.876-3.049,3.367,3.367,0,0,0-3.174.289c-1.388.892-1.665,2.6-1.84,3.679-.308,1.9.159,3.159-.108,3.247-.333.11-1.426-1.723-2.2-3.932C424.28,238.488,426.262,236.764,424.66,234.443Z" fill="#b388eb"/>
      <path id="Path_1178" data-name="Path 1178" d="M433.917,244.838c-.078.011.026-1.292-.757-1.774a1.168,1.168,0,0,0-.882-.121,1.376,1.376,0,0,0-.8.919,2.137,2.137,0,0,0,.065,1.446c.216.6.463.559.684,1.14a2.088,2.088,0,0,1,.013,1.8,1.35,1.35,0,0,1-1.328.69.847.847,0,0,1-.652-.586c-.031-.2.1-.274.293-.762a1.531,1.531,0,0,0,.2-.808c-.082-.4-.463-.371-.618-.836a1.264,1.264,0,0,1,.055-.853c.112-.266.217-.242.335-.476.233-.46-.086-.718.071-1.287a1.541,1.541,0,0,1,1.476-1.114,2.214,2.214,0,0,1,1.573.792A1.9,1.9,0,0,1,433.917,244.838Z" fill="#ae324a"/>
      <rect id="Rectangle_367" data-name="Rectangle 367" width="5.303" height="4.004" rx="1.528" transform="translate(393.446 246.311)" fill="#ff8f8e"/>
    </g>
    <g id="Group_577" data-name="Group 577" transform="translate(23.963 35.873)">
      <rect id="Rectangle_368" data-name="Rectangle 368" width="24.912" height="40.127" transform="translate(410.631 327.109)" fill="#ff8f8e"/>
      <path id="Path_1179" data-name="Path 1179" d="M432.4,339.424c3.109,8.018-5.674,18.109-13.668,18.666a12.425,12.425,0,0,1-8.1-2.613c-4.727-3.807-4.534-9.832-4.5-10.447a14.252,14.252,0,0,1,12.241-13.089C424.215,331.22,430.451,334.388,432.4,339.424Z" fill="#ae324a"/>
      <path id="Path_1180" data-name="Path 1180" d="M435.7,320.95V309.694a12.327,12.327,0,0,0-12.29-12.29H408.387a12.327,12.327,0,0,0-12.29,12.29v19.267c1.082,16.5,11.228,27.823,19.8,27.852,10.264.036,19.708-16.025,19.765-27.935Z" fill="#ff8f8e"/>
      <path id="Path_1181" data-name="Path 1181" d="M408.167,318.268a49.9,49.9,0,0,1-7.5-4.25c-1.988-1.322-3.589-2.554-4.75-3.5A16.37,16.37,0,0,1,399,301.185c2.9-3.9,6.8-5.136,10.583-6.333,3.555-1.125,10.551-3.34,16.834.166a15.27,15.27,0,0,1,4,3.25,6.516,6.516,0,0,1,3.629-.221c2.528.62,3.907,2.8,4.537,3.8,3.139,4.976,3.767,14.641,1.167,25.833a71.856,71.856,0,0,1-4.083,12.333c-.395-.41-3.03-3.2-3.282-5.96a15.54,15.54,0,0,1,.393-4.679c.838-3.481,2.543-4.5,2.56-7.031,0-.261-.014-2.984-1.671-3.746a3.144,3.144,0,0,0-2.917.416,3.741,3.741,0,0,0-1.25,1.584,5.081,5.081,0,0,0-.5,2.333,85.781,85.781,0,0,1-10.417-1.583A47.736,47.736,0,0,1,408.167,318.268Z" fill="#b388eb"/>
      <path id="Path_1182" data-name="Path 1182" d="M433.917,323.634c-.078.011.026-1.292-.757-1.774a1.168,1.168,0,0,0-.882-.121,1.376,1.376,0,0,0-.8.919,2.137,2.137,0,0,0,.065,1.446c.216.6.463.559.684,1.14a2.088,2.088,0,0,1,.013,1.8,1.35,1.35,0,0,1-1.328.69.849.849,0,0,1-.652-.586c-.031-.2.1-.274.293-.762a1.533,1.533,0,0,0,.2-.808c-.082-.4-.463-.371-.618-.836a1.264,1.264,0,0,1,.055-.853c.112-.266.217-.243.335-.476.233-.461-.086-.718.071-1.287a1.541,1.541,0,0,1,1.476-1.114,2.214,2.214,0,0,1,1.573.792A1.9,1.9,0,0,1,433.917,323.634Z" fill="#ae324a"/>
      <rect id="Rectangle_369" data-name="Rectangle 369" width="5.303" height="4.004" rx="1.528" transform="translate(393.446 325.107)" fill="#ff8f8e"/>
    </g>
  </g>
</svg>
