<svg xmlns="http://www.w3.org/2000/svg" width="441.443" height="184.876" viewBox="0 0 441.443 184.876">
  <g id="Group_537" data-name="Group 537" transform="translate(-1491.902 -2766.51)">
    <g id="Group_505" data-name="Group 505">
      <g id="Group_493" data-name="Group 493">
        <rect id="Rectangle_305" data-name="Rectangle 305" width="8.755" height="36.247" rx="4.377" transform="translate(1821.426 2942.197) rotate(179.633)" fill="#ff8f8e"/>
        <path id="Path_1008" data-name="Path 1008" d="M1822.522,2951.118l-26.982.172a7.352,7.352,0,0,1,.231-2.8c1.006-3.483,4.4-4.823,9.044-8a59.818,59.818,0,0,0,6.86-5.491l10.743-.069Z" fill="#b388eb"/>
        <path id="Path_1009" data-name="Path 1009" d="M1795.528,2949.807l26.984-.173.01,1.484-26.984.172a7.638,7.638,0,0,1-.041-.792C1795.5,2950.25,1795.509,2950.019,1795.528,2949.807Z" fill="#fff"/>
        <circle id="Ellipse_58" data-name="Ellipse 58" cx="2.598" cy="2.598" r="2.598" transform="translate(1815.286 2942.22)" fill="#fff"/>
        <g id="Group_492" data-name="Group 492">
          <path id="Path_1010" data-name="Path 1010" d="M1817.9,2947.033a2.215,2.215,0,1,1,2.2-2.229A2.217,2.217,0,0,1,1817.9,2947.033Zm-.026-4.13a1.915,1.915,0,1,0,1.928,1.9A1.916,1.916,0,0,0,1817.872,2942.9Z" fill="#b388eb"/>
        </g>
        <path id="Path_1011" data-name="Path 1011" d="M1808.132,2938.036l3.485,3.441,1.042-1.055-3.371-3.329Q1808.694,2937.59,1808.132,2938.036Z" fill="#fff"/>
        <path id="Path_1012" data-name="Path 1012" d="M1809.347,2943.777l1.042-1.056-3.655-3.609c-.425.317-.834.616-1.215.885Z" fill="#fff"/>
        <path id="Path_1013" data-name="Path 1013" d="M1802.863,2941.775l4.284,4.23,1.042-1.056-4.055-4Q1803.479,2941.381,1802.863,2941.775Z" fill="#fff"/>
      </g>
      <g id="Group_495" data-name="Group 495">
        <rect id="Rectangle_306" data-name="Rectangle 306" width="8.755" height="36.247" rx="4.377" transform="matrix(-0.273, -0.962, 0.962, -0.273, 1757.312, 2947.848)" fill="#ff8f8e"/>
        <path id="Path_1014" data-name="Path 1014" d="M1749.007,2951.284l-7.363-25.959a7.35,7.35,0,0,1,2.76-.523c3.625.04,5.822,2.954,10.125,6.581a59.7,59.7,0,0,0,7.122,5.147l2.931,10.336Z" fill="#b388eb"/>
        <path id="Path_1015" data-name="Path 1015" d="M1743.071,2924.918l7.363,25.961-1.427.405-7.363-25.961a7.716,7.716,0,0,1,.753-.251C1742.635,2925.006,1742.861,2924.956,1743.071,2924.918Z" fill="#fff"/>
        <circle id="Ellipse_59" data-name="Ellipse 59" cx="2.598" cy="2.598" r="2.598" transform="translate(1751.243 2942.536)" fill="#fff"/>
        <g id="Group_494" data-name="Group 494">
          <path id="Path_1016" data-name="Path 1016" d="M1751.711,2945.738a2.215,2.215,0,1,1,2.735,1.527A2.216,2.216,0,0,1,1751.711,2945.738Zm3.973-1.127a1.915,1.915,0,1,0-1.32,2.366A1.917,1.917,0,0,0,1755.684,2944.611Z" fill="#b388eb"/>
        </g>
        <path id="Path_1017" data-name="Path 1017" d="M1757.777,2933.926l-2.387,4.277,1.3.723,2.309-4.137C1758.57,2934.5,1758.163,2934.207,1757.777,2933.926Z" fill="#fff"/>
        <path id="Path_1018" data-name="Path 1018" d="M1752.568,2936.628l1.3.723,2.5-4.485c-.419-.325-.816-.64-1.177-.935Z" fill="#fff"/>
        <path id="Path_1019" data-name="Path 1019" d="M1752.768,2929.845l-2.934,5.257,1.3.723,2.777-4.976Q1753.312,2930.335,1752.768,2929.845Z" fill="#fff"/>
      </g>
      <g id="Group_497" data-name="Group 497">
        <rect id="Rectangle_307" data-name="Rectangle 307" width="11.762" height="42.306" rx="5.881" transform="translate(1851.68 2887.71) rotate(-132.533)" fill="#ff8f8e"/>
        <path id="Path_1020" data-name="Path 1020" d="M1849.722,2873.544l7.366,4.738a5.053,5.053,0,0,0-.361-2.842,6.01,6.01,0,0,0-5.623-3.151Z" fill="#ae324a"/>
        <rect id="Rectangle_308" data-name="Rectangle 308" width="11.762" height="48.698" rx="5.881" transform="translate(1857.399 2873.544) rotate(90)" fill="#ff8f8e"/>
        <rect id="Rectangle_309" data-name="Rectangle 309" width="24.175" height="36.262" rx="4.389" transform="matrix(0.676, 0.737, -0.737, 0.676, 1884.711, 2832.797)" fill="#b388eb"/>
        <g id="Group_496" data-name="Group 496">
          <path id="Path_1021" data-name="Path 1021" d="M1809.723,2873.244a51.932,51.932,0,0,1-6.326.044c-1.277-.348-6.907-1.5-12.539-2.443-2.138-.359-3.337,1.544-.748,2.521,2.132.8,7.843,1.78,10.279,2.632,1.351.472.887,1.024.648,1.068a78.933,78.933,0,0,1-11.21.885c-3.145-.075-3.461,2.548-.324,2.913.78.091,3.868-.116,6.421-.139,2.106-.019,3.514-.137,4.518-.024,1.773.2,2.551.549.9,1.443-2.5,1.351-8.741,3.113-9.484,3.471-3.665,1.766-2.066,3.207.5,2.719,1.248-.237,7.119-2.319,10.506-3.365.534-.164,1.1.166.259.792l2.309-.2,6.772-1.331Z" fill="#ff8f8e"/>
          <path id="Path_1022" data-name="Path 1022" d="M1801.877,2866.341c.6,2.092,4.85,4.721,5.574,5.5.74.793.5,1.474-.674,1.525-2.134.094.922,2.649,1.194,4.185a.54.54,0,0,1-.026.3c.076.317.164.651.265.973a5.006,5.006,0,0,0,1.721,2.452s-2,1.17-5.378,3.48c-1.032.706-3.329,2.368-4.3,3.058a30.032,30.032,0,0,0-4.262,3.394c-.878,1.095-.029,2.6,1.868,1.448,2.587-1.568,6.429-4.159,8.412-5,1.558-.661,4.836-1.113,6.745-1.8a35.378,35.378,0,0,1,5.189-1.545c1.068-.155,5.371-.284,5.371-.284l-.358-6.793-.029-.556-.018-.338-.109-2.065a38.008,38.008,0,0,1-5.109-.124,5.13,5.13,0,0,1-2.8-1.272c-.44-.51-.939-1.154-1.538-1.96a5.539,5.539,0,0,0-3.514-2.49,12.1,12.1,0,0,1-7.237-5.2C1802.372,2863.313,1801.116,2863.7,1801.877,2866.341Z" fill="#ff8f8e"/>
          <path id="Path_1023" data-name="Path 1023" d="M1817.162,2884.168a2.988,2.988,0,0,0,.925-1.847c.025-1.024.075-1.571.075-1.571a2.58,2.58,0,0,1,.242,2.1A2.289,2.289,0,0,1,1817.162,2884.168Z" fill="#ae324a"/>
          <path id="Path_1024" data-name="Path 1024" d="M1807.8,2885.512s-.948-2.728-1.772-4.928a19.4,19.4,0,0,0-2.628-4.451,6.818,6.818,0,0,1,2.128,2.5,19.332,19.332,0,0,1,1.991,4.364A5.181,5.181,0,0,1,1807.8,2885.512Z" fill="#ae324a"/>
          <path id="Path_1025" data-name="Path 1025" d="M1805.359,2875.5a32.108,32.108,0,0,0,2.339,4.273,12.728,12.728,0,0,0,3.885,3.292,36.745,36.745,0,0,1-3.5-3.654C1807.2,2878.167,1805.359,2875.5,1805.359,2875.5Z" fill="#ae324a"/>
        </g>
      </g>
      <g id="Group_498" data-name="Group 498">
        <rect id="Rectangle_310" data-name="Rectangle 310" width="12.765" height="20.561" transform="translate(1889.872 2808.653)" fill="#ff8f8e"/>
        <path id="Path_1026" data-name="Path 1026" d="M1901.029,2814.963c1.593,4.109-2.908,9.28-7,9.565a6.367,6.367,0,0,1-4.153-1.339,6.761,6.761,0,0,1-2.307-5.353,7.3,7.3,0,0,1,6.272-6.707C1896.833,2810.76,1900.028,2812.383,1901.029,2814.963Z" fill="#ae324a"/>
        <path id="Path_1027" data-name="Path 1027" d="M1902.719,2805.5v-5.767a6.316,6.316,0,0,0-6.3-6.3h-7.7a6.316,6.316,0,0,0-6.3,6.3v9.872c.554,8.455,5.753,14.256,10.147,14.272,5.259.018,10.1-8.212,10.128-14.314Z" fill="#ff8f8e"/>
        <path id="Path_1028" data-name="Path 1028" d="M1897.061,2801.546c-1-1.446-3.626-2.181-5.816-1.815-1.84.307-1.8,1.05-3.609,1.391a7.349,7.349,0,0,1-6.156-1.622,6.733,6.733,0,0,1-1.912-4.167c-.34-2.987,1.14-6.557,3.3-7.3,1.977-.68,2.72,1.164,6.452,1.257,2.534.064,2.772-.772,6.118-.867a13.28,13.28,0,0,1,5.324.646,14.8,14.8,0,0,1,5.1,4.14c7.533,9.8-.023,28.076-3.223,27.947-1.332-.054-3.024-3.344-2.634-5.745.132-.812.563-1.9,1.394-5.082.1-.392.095-.41.156-.594.448-1.372,1.225-2.171.979-3.522a2.07,2.07,0,0,0-.961-1.562,1.73,1.73,0,0,0-1.627.148,2.574,2.574,0,0,0-.942,1.886c-.158.972.081,1.618-.056,1.663-.17.056-.73-.883-1.127-2.015C1896.866,2803.619,1897.881,2802.735,1897.061,2801.546Z" fill="#b388eb"/>
        <path id="Path_1029" data-name="Path 1029" d="M1901.8,2806.872c-.04.006.013-.662-.388-.908a.6.6,0,0,0-.452-.063.709.709,0,0,0-.411.471,1.089,1.089,0,0,0,.034.741c.11.309.237.287.35.584a1.071,1.071,0,0,1,.007.922.691.691,0,0,1-.681.353.435.435,0,0,1-.334-.3c-.016-.105.053-.14.151-.39a.8.8,0,0,0,.1-.414c-.042-.2-.237-.191-.317-.429a.648.648,0,0,1,.028-.437c.058-.136.111-.124.172-.244.119-.236-.044-.368.037-.659a.788.788,0,0,1,.755-.571,1.13,1.13,0,0,1,.807.406A.971.971,0,0,1,1901.8,2806.872Z" fill="#ae324a"/>
        <rect id="Rectangle_311" data-name="Rectangle 311" width="2.717" height="2.052" rx="1.026" transform="translate(1881.066 2807.627)" fill="#ff8f8e"/>
      </g>
      <g id="Group_499" data-name="Group 499">
        <rect id="Rectangle_312" data-name="Rectangle 312" width="24.175" height="18.131" rx="4.417" transform="translate(1883.451 2829.214)" fill="#ff8f8e"/>
        <path id="Path_1030" data-name="Path 1030" d="M1888.013,2829.214a18.55,18.55,0,0,0-16.45,9.962,67.856,67.856,0,0,0-3.948,6.961,43.955,43.955,0,0,0-2.3,7.252c-1.217,5.633.919,25.318,7.711,51.242l53.043,14.941a189.234,189.234,0,0,0,6.028-30.877c1.34-12.265,2.064-19.64-.3-29.263-1.531-6.229-5.709-13.517-11.954-22.337a18.6,18.6,0,0,0-15.179-7.881,8.742,8.742,0,0,1-16.654,0Z" fill="#b388eb"/>
      </g>
      <g id="Group_501" data-name="Group 501">
        <path id="Path_1031" data-name="Path 1031" d="M1873.031,2904.631c-13.759-18.284-30.528-28.355-41.932-24.025-6.9,2.62-10.806,10.442-15.52,19.7a87.165,87.165,0,0,0-8.674,27.949l17.847-.488c6.691-15.2,12.808-19.138,17.532-19.386,15.579-.82,21.271,38.514,44.924,41.169,14.037,1.576,26.8-10.049,27.493-10.691a40.42,40.42,0,0,0,11.373-19.285Z" fill="#20221d"/>
        <g id="Group_500" data-name="Group 500">
          <path id="Path_1032" data-name="Path 1032" d="M1873.031,2904.631c-6.907.566-16.123,1.508-26.926,3.159a299.454,299.454,0,0,0-31.387,6.15,222.519,222.519,0,0,0-44.314,16.88q2.068,8.544,4.138,17.087c31.275-13.889,53.135-12.633,67.706-8.446,12.161,3.5,24.012,10.394,46,11.729,19.92,1.208,26.544-3.458,29.547-6.268,8.944-8.368,8.525-21.557,8.275-25.35Z" fill="#444"/>
        </g>
      </g>
      <g id="Group_502" data-name="Group 502">
        <rect id="Rectangle_313" data-name="Rectangle 313" width="83.704" height="9.793" rx="4.896" transform="translate(1780.857 2873.544)" fill="#ccc"/>
        <rect id="Rectangle_314" data-name="Rectangle 314" width="73.279" height="5.822" rx="2.911" transform="translate(1771.3 2809.886) rotate(77.5)" fill="#e6e6e6"/>
      </g>
      <g id="Group_504" data-name="Group 504">
        <rect id="Rectangle_315" data-name="Rectangle 315" width="11.762" height="42.306" rx="5.881" transform="translate(1867.24 2889.004) rotate(-132.533)" fill="#ff8f8e"/>
        <path id="Path_1033" data-name="Path 1033" d="M1865.282,2874.838l7.365,4.738a5.034,5.034,0,0,0-.361-2.842,6.008,6.008,0,0,0-5.622-3.151Z" fill="#ae324a"/>
        <rect id="Rectangle_316" data-name="Rectangle 316" width="11.762" height="48.698" rx="5.881" transform="translate(1872.959 2874.838) rotate(90)" fill="#ff8f8e"/>
        <rect id="Rectangle_317" data-name="Rectangle 317" width="24.175" height="36.262" rx="4.389" transform="matrix(0.676, 0.737, -0.737, 0.676, 1900.271, 2834.091)" fill="#b388eb"/>
        <g id="Group_503" data-name="Group 503">
          <path id="Path_1034" data-name="Path 1034" d="M1825.283,2874.538a51.89,51.89,0,0,1-6.326.044c-1.278-.348-6.908-1.5-12.54-2.443-2.138-.359-3.336,1.544-.747,2.521,2.132.8,7.843,1.78,10.278,2.632,1.352.472.888,1.024.649,1.068a79.016,79.016,0,0,1-11.21.885c-3.145-.075-3.462,2.548-.324,2.913.779.091,3.867-.116,6.421-.139,2.1-.019,3.513-.137,4.517-.024,1.774.2,2.551.549.9,1.443-2.5,1.351-8.741,3.113-9.485,3.471-3.664,1.766-2.065,3.207.5,2.719,1.248-.237,7.119-2.319,10.506-3.365.533-.164,1.1.166.258.792l2.309-.2,6.773-1.331Z" fill="#ff8f8e"/>
          <path id="Path_1035" data-name="Path 1035" d="M1817.436,2867.635c.6,2.092,4.851,4.721,5.575,5.5.739.793.5,1.474-.674,1.525-2.134.094.922,2.649,1.193,4.185a.543.543,0,0,1-.025.3c.075.317.164.651.264.973a5,5,0,0,0,1.721,2.452s-2,1.17-5.377,3.48c-1.032.706-3.329,2.368-4.3,3.058a30.174,30.174,0,0,0-4.262,3.394c-.878,1.095-.028,2.6,1.868,1.448,2.588-1.568,6.43-4.159,8.413-5,1.557-.661,4.836-1.113,6.745-1.8a35.346,35.346,0,0,1,5.189-1.545c1.068-.155,5.371-.284,5.371-.284l-.358-6.793-.03-.556-.017-.338-.109-2.065a38.025,38.025,0,0,1-5.11-.124,5.137,5.137,0,0,1-2.8-1.271c-.439-.511-.939-1.155-1.537-1.961a5.542,5.542,0,0,0-3.515-2.49,12.1,12.1,0,0,1-7.236-5.2C1817.931,2864.607,1816.676,2864.99,1817.436,2867.635Z" fill="#ff8f8e"/>
        </g>
      </g>
    </g>
    <g id="Group_519" data-name="Group 519">
      <g id="Group_506" data-name="Group 506">
        <path id="Path_1036" data-name="Path 1036" d="M1674.26,2848.513c-.05,0-.1,0-.152-.008a1.448,1.448,0,0,1-1.237-1.032l-7.6-25.927-7.543,11.523a1.447,1.447,0,1,1-2.421-1.585l9.259-14.146a1.447,1.447,0,0,1,2.6.386l7.5,25.557,11.8-21.882a1.446,1.446,0,0,1,2.432-.18l8.707,11.641,14.312-31.531a1.446,1.446,0,0,1,2.676.1l10.683,29.234,11.808-18.958a1.447,1.447,0,0,1,2.456,1.53l-13.377,21.477a1.447,1.447,0,0,1-2.587-.269l-10.486-28.7-13.861,30.537a1.446,1.446,0,0,1-2.475.268l-8.816-11.785-12.4,22.986A1.447,1.447,0,0,1,1674.26,2848.513Z" fill="#e6e6e6"/>
      </g>
      <g id="Group_510" data-name="Group 510">
        <g id="Group_507" data-name="Group 507">
          <path id="Path_1037" data-name="Path 1037" d="M1622.223,2778.721a18.262,18.262,0,0,1,22.189-11.517,17.125,17.125,0,0,1,4.245,1.807l-9.691,14.459Z" fill="#e6e6e6"/>
        </g>
        <g id="Group_508" data-name="Group 508">
          <path id="Path_1038" data-name="Path 1038" d="M1630.214,2800.485l9.691-14.456,10.582-15.787a18.238,18.238,0,0,1-20.273,30.243Z" fill="#e6e6e6"/>
        </g>
        <g id="Group_509" data-name="Group 509">
          <path id="Path_1039" data-name="Path 1039" d="M1621.619,2780.842l16.054,4.554-9.292,13.861A17.909,17.909,0,0,1,1621.619,2780.842Z" fill="#e6e6e6"/>
        </g>
      </g>
      <g id="Group_514" data-name="Group 514">
        <g id="Group_511" data-name="Group 511">
          <path id="Path_1040" data-name="Path 1040" d="M1678.532,2866.639a8.361,8.361,0,0,1,9.821,5.877,7.844,7.844,0,0,1,.316,2.088l-7.963-.3Z" fill="#e6e6e6"/>
        </g>
        <g id="Group_512" data-name="Group 512">
          <path id="Path_1041" data-name="Path 1041" d="M1671.974,2874.984l7.961.3,8.694.329a8.362,8.362,0,0,1-6.021,7.214,8.358,8.358,0,0,1-10.634-7.843Z" fill="#e6e6e6"/>
        </g>
        <g id="Group_513" data-name="Group 513">
          <path id="Path_1042" data-name="Path 1042" d="M1677.561,2866.914l2.084,7.349-7.634-.289A8.2,8.2,0,0,1,1677.561,2866.914Z" fill="#e6e6e6"/>
        </g>
      </g>
      <g id="Group_518" data-name="Group 518">
        <g id="Group_515" data-name="Group 515">
          <path id="Path_1043" data-name="Path 1043" d="M1693.68,2776.4a8.359,8.359,0,0,1,9.82,5.877,7.841,7.841,0,0,1,.317,2.088l-7.963-.3Z" fill="#e6e6e6"/>
        </g>
        <g id="Group_516" data-name="Group 516">
          <path id="Path_1044" data-name="Path 1044" d="M1687.121,2784.746l7.962.3,8.694.329a8.364,8.364,0,0,1-6.022,7.214,8.359,8.359,0,0,1-10.634-7.843Z" fill="#e6e6e6"/>
        </g>
        <g id="Group_517" data-name="Group 517">
          <path id="Path_1045" data-name="Path 1045" d="M1692.708,2776.676l2.085,7.349-7.634-.289A8.2,8.2,0,0,1,1692.708,2776.676Z" fill="#e6e6e6"/>
        </g>
      </g>
    </g>
    <g id="Group_533" data-name="Group 533">
      <g id="Group_520" data-name="Group 520">
        <rect id="Rectangle_318" data-name="Rectangle 318" width="12.765" height="27.845" transform="translate(1546.749 2847.758) rotate(180)" fill="#ff8f8e"/>
        <path id="Path_1046" data-name="Path 1046" d="M1535.593,2826.223c-1.593,4.109,2.907,9.28,7,9.565a6.367,6.367,0,0,0,4.153-1.339,6.766,6.766,0,0,0,2.308-5.353,7.3,7.3,0,0,0-6.273-6.707C1539.789,2822.02,1536.593,2823.643,1535.593,2826.223Z" fill="#ae324a"/>
        <path id="Path_1047" data-name="Path 1047" d="M1533.9,2816.757v-5.767a6.315,6.315,0,0,1,6.3-6.3h7.7a6.315,6.315,0,0,1,6.3,6.3v9.872c-.554,8.455-5.753,14.257-10.147,14.272-5.259.018-10.1-8.212-10.127-14.314Z" fill="#ff8f8e"/>
        <path id="Path_1048" data-name="Path 1048" d="M1539.561,2812.806c1-1.445,3.626-2.181,5.816-1.815,1.839.307,1.794,1.05,3.609,1.392.389.073,3.785.657,6.155-1.623a6.731,6.731,0,0,0,1.912-4.166c.341-2.988-1.139-6.558-3.3-7.3-1.977-.681-2.719,1.163-6.451,1.257-2.534.063-2.772-.773-6.119-.868a13.292,13.292,0,0,0-5.323.646,14.788,14.788,0,0,0-5.1,4.14c-7.534,9.8.022,28.076,3.222,27.947,1.333-.054,3.025-3.344,2.634-5.745-.132-.812-.563-1.9-1.394-5.082-.1-.392-.095-.409-.155-.594-.449-1.372-1.226-2.171-.98-3.522a2.069,2.069,0,0,1,.961-1.561,1.726,1.726,0,0,1,1.627.147,2.579,2.579,0,0,1,.943,1.886c.158.972-.082,1.618.055,1.663.171.057.731-.883,1.128-2.014C1539.755,2814.879,1538.74,2814,1539.561,2812.806Z" fill="#b388eb"/>
        <path id="Path_1049" data-name="Path 1049" d="M1534.817,2818.132c.04.006-.013-.662.388-.908a.6.6,0,0,1,.452-.062.7.7,0,0,1,.411.471,1.1,1.1,0,0,1-.033.741c-.111.308-.237.286-.351.584a1.069,1.069,0,0,0-.007.921.693.693,0,0,0,.681.354.436.436,0,0,0,.334-.3c.016-.1-.052-.14-.15-.39a.775.775,0,0,1-.1-.414c.042-.2.237-.19.316-.429a.649.649,0,0,0-.028-.437c-.058-.136-.111-.124-.172-.244-.119-.236.044-.368-.036-.659a.8.8,0,0,0-.291-.417.818.818,0,0,0-.465-.154,1.133,1.133,0,0,0-.806.406A.97.97,0,0,0,1534.817,2818.132Z" fill="#ae324a"/>
        <rect id="Rectangle_319" data-name="Rectangle 319" width="2.717" height="2.052" rx="1.026" transform="translate(1555.555 2820.939) rotate(-180)" fill="#ff8f8e"/>
      </g>
      <g id="Group_522" data-name="Group 522">
        <rect id="Rectangle_320" data-name="Rectangle 320" width="11.762" height="42.306" rx="5.881" transform="translate(1565.509 2862.87) rotate(-47.467)" fill="#ff8f8e"/>
        <path id="Path_1050" data-name="Path 1050" d="M1598.642,2877.3l-7.366,4.738a5.057,5.057,0,0,1,.361-2.843,6.009,6.009,0,0,1,5.623-3.15Z" fill="#ae324a"/>
        <rect id="Rectangle_321" data-name="Rectangle 321" width="11.762" height="48.698" rx="5.881" transform="translate(1639.662 2877.303) rotate(90)" fill="#ff8f8e"/>
        <rect id="Rectangle_322" data-name="Rectangle 322" width="24.175" height="36.262" rx="4.389" transform="matrix(-0.676, 0.737, -0.737, -0.676, 1590.374, 2861.07)" fill="#b388eb"/>
        <g id="Group_521" data-name="Group 521">
          <path id="Path_1051" data-name="Path 1051" d="M1638.641,2877a51.9,51.9,0,0,0,6.326.045c1.277-.348,6.907-1.5,12.539-2.443,2.138-.359,3.337,1.544.748,2.521-2.132.8-7.843,1.78-10.279,2.631-1.351.473-.887,1.025-.648,1.068a78.8,78.8,0,0,0,11.21.886c3.145-.075,3.461,2.548.324,2.913-.78.09-3.868-.116-6.421-.139-2.106-.019-3.514-.137-4.518-.025-1.773.2-2.551.55-.9,1.444,2.5,1.351,8.741,3.113,9.484,3.471,3.665,1.766,2.066,3.207-.5,2.719-1.248-.238-7.119-2.319-10.506-3.365-.534-.165-1.1.165-.259.792l-2.309-.2-6.772-1.331Z" fill="#ff8f8e"/>
          <path id="Path_1052" data-name="Path 1052" d="M1646.487,2870.1c-.6,2.093-4.85,4.722-5.574,5.5-.74.793-.5,1.473.674,1.525,2.134.094-.922,2.649-1.194,4.184a.545.545,0,0,0,.026.3c-.076.317-.164.651-.265.973a5.006,5.006,0,0,1-1.721,2.452s2,1.17,5.378,3.48c1.032.706,3.329,2.368,4.3,3.058a30.04,30.04,0,0,1,4.262,3.394c.878,1.095.029,2.6-1.868,1.448-2.587-1.568-6.429-4.159-8.412-5-1.558-.661-4.836-1.113-6.745-1.8a35.5,35.5,0,0,0-5.189-1.545c-1.068-.154-5.371-.283-5.371-.283l.358-6.793.029-.557.018-.337.109-2.065a38.173,38.173,0,0,0,5.109-.124,5.137,5.137,0,0,0,2.8-1.272c.439-.51.939-1.154,1.538-1.961a5.538,5.538,0,0,1,3.514-2.489,12.1,12.1,0,0,0,7.237-5.2C1645.992,2867.073,1647.248,2867.456,1646.487,2870.1Z" fill="#ff8f8e"/>
          <path id="Path_1053" data-name="Path 1053" d="M1631.2,2887.928a2.988,2.988,0,0,1-.925-1.847c-.025-1.024-.075-1.571-.075-1.571a2.58,2.58,0,0,0-.242,2.1A2.294,2.294,0,0,0,1631.2,2887.928Z" fill="#ae324a"/>
          <path id="Path_1054" data-name="Path 1054" d="M1640.568,2889.272s.948-2.728,1.772-4.929a19.4,19.4,0,0,1,2.628-4.45,6.816,6.816,0,0,0-2.128,2.5,19.358,19.358,0,0,0-1.991,4.365A5.181,5.181,0,0,0,1640.568,2889.272Z" fill="#ae324a"/>
          <path id="Path_1055" data-name="Path 1055" d="M1643.005,2879.262a32.108,32.108,0,0,1-2.339,4.273,12.737,12.737,0,0,1-3.885,3.291,36.815,36.815,0,0,0,3.5-3.653C1641.165,2881.927,1643.005,2879.262,1643.005,2879.262Z" fill="#ae324a"/>
        </g>
      </g>
      <g id="Group_523" data-name="Group 523">
        <rect id="Rectangle_323" data-name="Rectangle 323" width="23.002" height="17.252" rx="4.417" transform="matrix(-0.888, 0.46, -0.46, -0.888, 1559.165, 2849.994)" fill="#ff8f8e"/>
        <path id="Path_1056" data-name="Path 1056" d="M1547.374,2836.673a17.652,17.652,0,0,1,18.258,1.215c1.964,1.377,6.571,3.164,11.5,9.275,12.527,15.544,17.626,42.525,18.7,48.6l-45.952,23.811c-6.456-4.976-21.363-17.882-26.272-38.2-1.433-5.933-1.094-13.919.321-24.1a17.7,17.7,0,0,1,9.374-13.3,8.318,8.318,0,0,0,14.07-7.291Z" fill="#b388eb"/>
      </g>
      <g id="Group_525" data-name="Group 525">
        <rect id="Rectangle_324" data-name="Rectangle 324" width="8.755" height="36.247" rx="4.377" transform="translate(1654.761 2905.951) rotate(0.367)" fill="#ff8f8e"/>
        <path id="Path_1057" data-name="Path 1057" d="M1653.433,2951.118l26.982.172a7.339,7.339,0,0,0-.232-2.8c-1.005-3.483-4.4-4.823-9.043-8a59.724,59.724,0,0,1-6.86-5.491l-10.743-.069Z" fill="#b388eb"/>
        <path id="Path_1058" data-name="Path 1058" d="M1680.427,2949.807l-26.984-.173-.01,1.484,26.984.172a7.638,7.638,0,0,0,.041-.792C1680.458,2950.25,1680.446,2950.019,1680.427,2949.807Z" fill="#fff"/>
        <circle id="Ellipse_60" data-name="Ellipse 60" cx="2.598" cy="2.598" r="2.598" transform="translate(1655.472 2942.22)" fill="#fff"/>
        <g id="Group_524" data-name="Group 524">
          <path id="Path_1059" data-name="Path 1059" d="M1658.056,2947.033a2.215,2.215,0,1,0-2.2-2.229A2.218,2.218,0,0,0,1658.056,2947.033Zm.027-4.13a1.915,1.915,0,1,1-1.928,1.9A1.916,1.916,0,0,1,1658.083,2942.9Z" fill="#b388eb"/>
        </g>
        <path id="Path_1060" data-name="Path 1060" d="M1667.823,2938.036l-3.485,3.441-1.043-1.055,3.372-3.329C1667.062,2937.424,1667.449,2937.739,1667.823,2938.036Z" fill="#fff"/>
        <path id="Path_1061" data-name="Path 1061" d="M1666.608,2943.777l-1.042-1.056,3.655-3.609c.424.317.834.616,1.215.885Z" fill="#fff"/>
        <path id="Path_1062" data-name="Path 1062" d="M1673.092,2941.775l-4.284,4.23-1.042-1.056,4.055-4Q1672.477,2941.381,1673.092,2941.775Z" fill="#fff"/>
      </g>
      <g id="Group_527" data-name="Group 527">
        <rect id="Rectangle_325" data-name="Rectangle 325" width="8.755" height="36.247" rx="4.377" transform="matrix(0.273, -0.962, 0.962, 0.273, 1683.771, 2937.957)" fill="#ff8f8e"/>
        <path id="Path_1063" data-name="Path 1063" d="M1726.948,2951.284l7.363-25.959a7.356,7.356,0,0,0-2.761-.523c-3.624.04-5.821,2.954-10.125,6.581a59.767,59.767,0,0,1-7.121,5.147l-2.932,10.336Z" fill="#b388eb"/>
        <path id="Path_1064" data-name="Path 1064" d="M1732.884,2924.918l-7.363,25.961,1.427.405,7.363-25.961a7.808,7.808,0,0,0-.753-.251C1733.319,2925.006,1733.094,2924.956,1732.884,2924.918Z" fill="#fff"/>
        <circle id="Ellipse_61" data-name="Ellipse 61" cx="2.598" cy="2.598" r="2.598" transform="translate(1719.515 2942.536)" fill="#fff"/>
        <g id="Group_526" data-name="Group 526">
          <path id="Path_1065" data-name="Path 1065" d="M1724.244,2945.738a2.215,2.215,0,1,0-2.736,1.527A2.217,2.217,0,0,0,1724.244,2945.738Zm-3.974-1.127a1.916,1.916,0,1,1,1.32,2.366A1.918,1.918,0,0,1,1720.27,2944.611Z" fill="#b388eb"/>
        </g>
        <path id="Path_1066" data-name="Path 1066" d="M1718.178,2933.926l2.387,4.277-1.295.723-2.309-4.137C1717.385,2934.5,1717.792,2934.207,1718.178,2933.926Z" fill="#fff"/>
        <path id="Path_1067" data-name="Path 1067" d="M1723.386,2936.628l-1.3.723-2.5-4.485c.419-.325.816-.64,1.177-.935Z" fill="#fff"/>
        <path id="Path_1068" data-name="Path 1068" d="M1723.187,2929.845l2.934,5.257-1.295.723-2.778-4.976C1722.445,2930.506,1722.823,2930.171,1723.187,2929.845Z" fill="#fff"/>
      </g>
      <g id="Group_529" data-name="Group 529">
        <path id="Path_1069" data-name="Path 1069" d="M1602.923,2904.631c13.76-18.284,30.529-28.355,41.933-24.025,6.9,2.62,10.805,10.442,15.52,19.7a87.191,87.191,0,0,1,8.674,27.949l-17.847-.488c-6.692-15.2-12.808-19.138-17.532-19.386-15.579-.82-21.271,38.514-44.924,41.169-14.037,1.576-26.8-10.049-27.493-10.691a40.411,40.411,0,0,1-11.373-19.285Z" fill="#20221d"/>
        <g id="Group_528" data-name="Group 528">
          <path id="Path_1070" data-name="Path 1070" d="M1595.833,2895.761a200.937,200.937,0,0,0,34.017,12.029c13.526,3.454,20.245,3.241,31.387,6.15a222.525,222.525,0,0,1,44.314,16.88q-2.07,8.544-4.138,17.087c-31.276-13.889-53.135-12.633-67.706-8.446-12.161,3.494-24.013,10.394-46,11.729-19.92,1.208-26.544-3.458-29.547-6.268-8.944-8.368-8.525-21.557-8.275-25.35Z" fill="#444"/>
        </g>
      </g>
      <g id="Group_532" data-name="Group 532">
        <g id="Group_530" data-name="Group 530">
          <path id="Path_1071" data-name="Path 1071" d="M1548.5,2947.325s2.578.746,4.84,1.189a18.943,18.943,0,0,1,4.785,1.606c1.492.6,6.263,2.127,7.032.306.72-1.7-12.516-5.166-12.516-5.166Z" fill="#ae324a"/>
          <path id="Path_1072" data-name="Path 1072" d="M1535.883,2940.623s7.808-.632,10.416-.585c2.051.038,4.924,2.537,8.058,3.88s7.461,3.432,9.252,3.731a17.275,17.275,0,0,1,3.731,1.194s-.485,1.614-2.873,1.641a20.8,20.8,0,0,1-7.479-1.641c-.442-.219-10.839-2.472-10.839-2.472Z" fill="#ff8f8e"/>
          <path id="Path_1073" data-name="Path 1073" d="M1539.3,2942.538a4.626,4.626,0,0,1,3.041.056c2.35,1.035,6.659.718,7.611,1.175,3.441,1.651.6,3.556.6,3.556a61.235,61.235,0,0,0-6.527-.954C1541.561,2946.231,1539.3,2942.538,1539.3,2942.538Z" fill="#ae324a"/>
          <path id="Path_1074" data-name="Path 1074" d="M1548.985,2947.835c-2.388.448-4.216-.074-7.462-.037-2.653.031-4.937,1.343-8.132,1.054a10.928,10.928,0,0,1-2.557-.764,14.259,14.259,0,0,1-6.038-5.057,18.3,18.3,0,0,1-3.216-11.282l7.669-.067,3.965-.325a19.047,19.047,0,0,0,.477,2.614c.586,2.282.921,3.588,1.889,4.444,1.186,1.049,2.381.595,6.428.989,1.828.178,3.314.439,4.291.634,0,0-4.525.448-8.028.733l2.357,1.8a16,16,0,0,0,7.536,1.782c1.94-.038,3.043.508,3.031,1.573C1551.188,2946.567,1551.372,2947.388,1548.985,2947.835Z" fill="#ff8f8e"/>
        </g>
        <g id="Group_531" data-name="Group 531">
          <rect id="Rectangle_326" data-name="Rectangle 326" width="11.578" height="41.642" rx="5.789" transform="translate(1524.071 2862.987) rotate(9.391)" fill="#ff8f8e"/>
          <path id="Path_1075" data-name="Path 1075" d="M1525.28,2894.894a4.558,4.558,0,0,1,2.685.639,4.643,4.643,0,0,1,2.013,2.691q-.157,1.072-.316,2.145Z" fill="#ae324a"/>
          <rect id="Rectangle_327" data-name="Rectangle 327" width="11.578" height="47.933" rx="5.789" transform="translate(1534.394 2941.728) rotate(173.508)" fill="#ff8f8e"/>
        </g>
        <rect id="Rectangle_328" data-name="Rectangle 328" width="23.795" height="35.693" rx="4.389" transform="translate(1539.307 2886.649) rotate(-161.672)" fill="#b388eb"/>
      </g>
    </g>
    <g id="Group_534" data-name="Group 534">
      <path id="Path_1076" data-name="Path 1076" d="M1517.837,2918.688c-4.283-.258-4.356,7.349-4.32,9.85.1,6.7,1.174,13.39,1.628,20.076-.05.415-.1.832-.15,1.248a.808.808,0,0,0,1,.9.758.758,0,0,0,1.019-.774c-.022-.416-.053-.832-.079-1.249.9-7.116,1.953-14.262,2.62-21.429C1519.724,2925.449,1521.032,2918.881,1517.837,2918.688Z" fill="#b388eb"/>
      <path id="Path_1077" data-name="Path 1077" d="M1537.445,2936.03c-2.986-2.925-8.194-.466-10.713,1.68-3.528,3.007-5.847,7.722-7.228,12.069a.825.825,0,0,0,0,.534c-.171.889,1.14,1.549,1.632.628,2.471-4.628,8.149-6.644,12.531-9.038C1535.413,2940.948,1539.908,2938.444,1537.445,2936.03Z" fill="#b388eb"/>
      <path id="Path_1078" data-name="Path 1078" d="M1527.695,2927.092c-4.849-4.018-6.758,9.658-6.8,11.995a.891.891,0,0,0,1.765.143.95.95,0,0,0,.131-.169C1524.24,2936.717,1531.128,2929.938,1527.695,2927.092Z" fill="#b388eb"/>
      <path id="Path_1079" data-name="Path 1079" d="M1539.735,2946.809c-1.5-4.568-11.352,1.089-13.881,2.2a.7.7,0,0,0-.466.669.9.9,0,0,0,.915,1.436,11.928,11.928,0,0,1,3.2-.068,39.441,39.441,0,0,0,5.5-.256C1536.83,2950.551,1540.62,2949.507,1539.735,2946.809Z" fill="#b388eb"/>
      <path id="Path_1080" data-name="Path 1080" d="M1498.1,2941.9c4.383,2.394,10.06,4.41,12.532,9.038.492.921,1.8.261,1.632-.628a.826.826,0,0,0,0-.534c-1.381-4.347-3.7-9.062-7.227-12.069-2.519-2.146-7.728-4.6-10.715-1.68C1491.86,2938.444,1496.355,2940.948,1498.1,2941.9Z" fill="#b388eb"/>
      <path id="Path_1081" data-name="Path 1081" d="M1504.074,2927.092c4.849-4.018,6.757,9.658,6.8,11.995a.892.892,0,0,1-1.766.143,1,1,0,0,1-.132-.169C1507.528,2936.717,1500.64,2929.938,1504.074,2927.092Z" fill="#b388eb"/>
      <path id="Path_1082" data-name="Path 1082" d="M1492.034,2946.809c1.5-4.568,11.352,1.089,13.881,2.2a.7.7,0,0,1,.465.669.9.9,0,0,1-.914,1.436,11.929,11.929,0,0,0-3.2-.068,39.462,39.462,0,0,1-5.5-.256C1494.938,2950.551,1491.148,2949.507,1492.034,2946.809Z" fill="#b388eb"/>
    </g>
    <g id="Group_535" data-name="Group 535">
      <path id="Path_1083" data-name="Path 1083" d="M1866.514,2918.688c-4.283-.258-4.356,7.349-4.32,9.85.1,6.7,1.174,13.39,1.629,20.076-.051.415-.1.832-.151,1.248a.808.808,0,0,0,1,.9.759.759,0,0,0,1.02-.774c-.023-.416-.054-.832-.08-1.249.9-7.116,1.954-14.262,2.621-21.429C1868.4,2925.449,1869.709,2918.881,1866.514,2918.688Z" fill="#b388eb"/>
      <path id="Path_1084" data-name="Path 1084" d="M1886.122,2936.03c-2.986-2.925-8.194-.466-10.712,1.68-3.529,3.007-5.848,7.722-7.228,12.069a.833.833,0,0,0,0,.534c-.171.889,1.14,1.549,1.632.628,2.472-4.628,8.149-6.644,12.531-9.038C1884.091,2940.948,1888.585,2938.444,1886.122,2936.03Z" fill="#b388eb"/>
      <path id="Path_1085" data-name="Path 1085" d="M1876.373,2927.092c-4.85-4.018-6.759,9.658-6.8,11.995a.891.891,0,0,0,1.765.143,1.007,1.007,0,0,0,.132-.169C1872.917,2936.717,1879.806,2929.938,1876.373,2927.092Z" fill="#b388eb"/>
      <path id="Path_1086" data-name="Path 1086" d="M1888.412,2946.809c-1.5-4.568-11.352,1.089-13.881,2.2a.7.7,0,0,0-.465.669.9.9,0,0,0,.914,1.436,11.929,11.929,0,0,1,3.2-.068,39.441,39.441,0,0,0,5.5-.256C1885.508,2950.551,1889.3,2949.507,1888.412,2946.809Z" fill="#b388eb"/>
      <path id="Path_1087" data-name="Path 1087" d="M1846.781,2941.9c4.384,2.394,10.06,4.41,12.532,9.038.492.921,1.8.261,1.632-.628a.826.826,0,0,0,0-.534c-1.381-4.347-3.7-9.062-7.227-12.069-2.519-2.146-7.728-4.6-10.714-1.68C1840.538,2938.444,1845.033,2940.948,1846.781,2941.9Z" fill="#b388eb"/>
      <path id="Path_1088" data-name="Path 1088" d="M1852.751,2927.092c4.849-4.018,6.757,9.658,6.8,11.995a.892.892,0,0,1-1.766.143,1,1,0,0,1-.132-.169C1856.2,2936.717,1849.317,2929.938,1852.751,2927.092Z" fill="#b388eb"/>
      <path id="Path_1089" data-name="Path 1089" d="M1840.711,2946.809c1.5-4.568,11.352,1.089,13.881,2.2a.7.7,0,0,1,.465.669.9.9,0,0,1-.914,1.436,11.923,11.923,0,0,0-3.2-.068,39.456,39.456,0,0,1-5.5-.256C1843.615,2950.551,1839.826,2949.507,1840.711,2946.809Z" fill="#b388eb"/>
    </g>
    <g id="Group_536" data-name="Group 536">
      <path id="Path_1090" data-name="Path 1090" d="M1617.646,2906.237c-5.914-.356-6.014,10.148-5.964,13.6.132,9.25,1.621,18.489,2.248,27.72-.07.574-.137,1.15-.208,1.723a1.117,1.117,0,0,0,1.375,1.237,1.048,1.048,0,0,0,1.408-1.069c-.031-.575-.074-1.149-.11-1.724,1.241-9.827,2.7-19.693,3.619-29.59C1620.253,2915.572,1622.058,2906.5,1617.646,2906.237Z" fill="#b388eb"/>
      <path id="Path_1091" data-name="Path 1091" d="M1644.721,2930.182c-4.123-4.038-11.314-.642-14.792,2.32-4.872,4.153-8.074,10.663-9.98,16.665a1.143,1.143,0,0,0-.005.738c-.237,1.227,1.574,2.139,2.253.867,3.413-6.391,11.253-9.174,17.3-12.479C1641.916,2936.974,1648.122,2933.515,1644.721,2930.182Z" fill="#b388eb"/>
      <path id="Path_1092" data-name="Path 1092" d="M1631.259,2917.841c-6.7-5.547-9.332,13.335-9.385,16.562a1.231,1.231,0,0,0,2.437.2,1.38,1.38,0,0,0,.182-.234C1626.488,2931.131,1636,2921.771,1631.259,2917.841Z" fill="#b388eb"/>
      <path id="Path_1093" data-name="Path 1093" d="M1647.883,2945.066c-2.069-6.307-15.674,1.505-19.166,3.038a.972.972,0,0,0-.644.924,1.242,1.242,0,0,0,1.263,1.982,16.474,16.474,0,0,1,4.417-.093,54.724,54.724,0,0,0,7.594-.354C1643.872,2950.233,1649.1,2948.791,1647.883,2945.066Z" fill="#b388eb"/>
      <path id="Path_1094" data-name="Path 1094" d="M1590.4,2938.293c6.053,3.3,13.891,6.088,17.3,12.479.68,1.272,2.489.36,2.253-.867a1.136,1.136,0,0,0-.005-.738c-1.906-6-5.106-12.512-9.979-16.665-3.478-2.962-10.671-6.358-14.794-2.32C1581.778,2933.515,1587.985,2936.974,1590.4,2938.293Z" fill="#b388eb"/>
      <path id="Path_1095" data-name="Path 1095" d="M1598.642,2917.841c6.7-5.547,9.331,13.335,9.385,16.562a1.231,1.231,0,0,1-2.437.2,1.336,1.336,0,0,1-.183-.234C1603.412,2931.131,1593.9,2921.771,1598.642,2917.841Z" fill="#b388eb"/>
      <path id="Path_1096" data-name="Path 1096" d="M1582.017,2945.066c2.068-6.307,15.675,1.505,19.168,3.038a.966.966,0,0,1,.641.924,1.242,1.242,0,0,1-1.262,1.982,16.469,16.469,0,0,0-4.416-.093,54.738,54.738,0,0,1-7.595-.354C1586.027,2950.233,1580.8,2948.791,1582.017,2945.066Z" fill="#b388eb"/>
    </g>
  </g>
</svg>
