<svg xmlns="http://www.w3.org/2000/svg" width="389.907" height="321.647" viewBox="0 0 389.907 321.647">
  <g id="Group_326" data-name="Group 326" transform="translate(-503.717 -1262.638)">
    <g id="Group_291" data-name="Group 291">
      <path id="Path_580" data-name="Path 580" d="M566.034,1550.127c-4.283-.258-4.355,7.349-4.319,9.85.1,6.7,1.174,13.39,1.628,20.075-.05.416-.1.833-.15,1.248a.809.809,0,0,0,1,.9.759.759,0,0,0,1.019-.774c-.023-.416-.054-.833-.08-1.249.9-7.117,1.954-14.262,2.621-21.429C567.922,1556.887,569.23,1550.319,566.034,1550.127Z" fill="#b388eb"/>
      <path id="Path_581" data-name="Path 581" d="M585.643,1567.469c-2.986-2.925-8.194-.466-10.713,1.68-3.528,3.007-5.847,7.722-7.228,12.069a.826.826,0,0,0,0,.534c-.172.889,1.139,1.549,1.631.628,2.472-4.629,8.15-6.644,12.532-9.038C583.611,1572.387,588.106,1569.882,585.643,1567.469Z" fill="#b388eb"/>
      <path id="Path_582" data-name="Path 582" d="M575.893,1558.531c-4.85-4.018-6.758,9.657-6.8,11.994a.891.891,0,0,0,1.764.144,1,1,0,0,0,.132-.169C572.438,1568.155,579.326,1561.376,575.893,1558.531Z" fill="#b388eb"/>
      <path id="Path_583" data-name="Path 583" d="M587.933,1578.248c-1.5-4.568-11.352,1.089-13.881,2.2a.7.7,0,0,0-.466.669.9.9,0,0,0,.915,1.435,11.923,11.923,0,0,1,3.2-.067,39.775,39.775,0,0,0,5.5-.256C585.028,1581.989,588.818,1580.945,587.933,1578.248Z" fill="#b388eb"/>
      <path id="Path_584" data-name="Path 584" d="M546.3,1573.342c4.384,2.394,10.061,4.409,12.532,9.038.493.921,1.8.261,1.632-.628a.819.819,0,0,0,0-.534c-1.381-4.347-3.7-9.062-7.228-12.069-2.519-2.146-7.727-4.605-10.714-1.68C540.058,1569.882,544.553,1572.387,546.3,1573.342Z" fill="#b388eb"/>
      <path id="Path_585" data-name="Path 585" d="M552.272,1558.531c4.849-4.018,6.757,9.657,6.8,11.994a.891.891,0,0,1-1.765.144.951.951,0,0,1-.132-.169C555.726,1568.155,548.837,1561.376,552.272,1558.531Z" fill="#b388eb"/>
      <path id="Path_586" data-name="Path 586" d="M540.231,1578.248c1.5-4.568,11.353,1.089,13.882,2.2a.7.7,0,0,1,.464.669.9.9,0,0,1-.914,1.435,11.918,11.918,0,0,0-3.2-.067,39.783,39.783,0,0,1-5.5-.256C543.136,1581.989,539.346,1580.945,540.231,1578.248Z" fill="#b388eb"/>
    </g>
    <g id="Group_292" data-name="Group 292">
      <path id="Path_587" data-name="Path 587" d="M640.667,1563.408a2.146,2.146,0,0,1-.621-.091l-10.489-3.254a2.129,2.129,0,0,1-1.5-1.963l-.264-8.4a41.125,41.125,0,0,1-9.117-7.571l-8.3,1.276a2.124,2.124,0,0,1-2.208-1.117l-5.112-9.7a2.122,2.122,0,0,1,.333-2.449l5.745-6.12a41.009,41.009,0,0,1-1.085-11.8l-6.775-4.968a2.133,2.133,0,0,1-.774-2.347l3.251-10.484a2.136,2.136,0,0,1,1.963-1.495l8.4-.263a41.117,41.117,0,0,1,7.572-9.117l-1.277-8.3a2.118,2.118,0,0,1,1.118-2.207l9.7-5.113a2.129,2.129,0,0,1,2.446.33L639.8,1474a40.823,40.823,0,0,1,11.8-1.082l4.967-6.775a2.11,2.11,0,0,1,2.351-.771l10.478,3.246a2.135,2.135,0,0,1,1.495,1.964l.265,8.4a41.2,41.2,0,0,1,9.117,7.57l8.3-1.275a2.142,2.142,0,0,1,2.205,1.114l5.112,9.707a2.12,2.12,0,0,1-.333,2.45l-5.745,6.117a41.169,41.169,0,0,1,1.085,11.8l6.775,4.968a2.128,2.128,0,0,1,.776,2.339l-3.255,10.491a2.127,2.127,0,0,1-1.961,1.5l-8.4.263a41.056,41.056,0,0,1-7.571,9.114l1.277,8.3a2.135,2.135,0,0,1-1.11,2.207l-9.713,5.113a2.115,2.115,0,0,1-2.448-.33l-6.118-5.747a41.2,41.2,0,0,1-11.8,1.085l-4.967,6.775A2.131,2.131,0,0,1,640.667,1563.408Zm-9.872-5.84,9.636,2.989,5.6-7.635.758.054a38.347,38.347,0,0,0,12.418-1.141l.734-.194,6.895,6.477,8.927-4.7-1.439-9.353.574-.5a38.4,38.4,0,0,0,7.965-9.589l.384-.655,9.461-.3,2.989-9.635-7.633-5.6.053-.757a38.432,38.432,0,0,0-1.142-12.419l-.191-.736,6.476-6.894-4.7-8.926-9.35,1.44-.5-.572a38.4,38.4,0,0,0-9.594-7.968l-.653-.386-.3-9.461-9.636-2.986-5.6,7.634-.757-.053a38.211,38.211,0,0,0-12.416,1.138l-.734.194-6.9-6.477-8.925,4.7,1.438,9.35-.574.5a38.36,38.36,0,0,0-7.966,9.592l-.384.655-9.462.3-2.987,9.635,7.633,5.6-.053.758a38.386,38.386,0,0,0,1.142,12.417l.191.733-6.476,6.9,4.7,8.926,9.349-1.439.5.574a38.39,38.39,0,0,0,9.591,7.963l.655.384Zm35.645.757,0,0Zm-36.072-.889h0Zm-19.759-16.426v0Zm81.963-7.557v0Zm3.479-9.8.005,0Zm-2.588-26.271,0,.005Zm-5.115-9.713h0Zm-65.534-12.2-.007,0ZM658.1,1468l0,0Zm.688-.231,0,.006Zm-9.508,74.4a27.861,27.861,0,1,1,26.811-35.344l-2.647.736a25.1,25.1,0,1,0-2.746,19.8l2.35,1.429a27.95,27.95,0,0,1-23.768,13.383Z" fill="#e6e6e6"/>
      <path id="Path_588" data-name="Path 588" d="M649.494,1525.465c-.2,0-.4-.006-.608-.016a11.123,11.123,0,1,1,8.867-18.54h0a11.123,11.123,0,0,1-8.259,18.556Zm-.019-19.49a8.367,8.367,0,1,0,6.232,2.771A8.345,8.345,0,0,0,649.475,1505.975Z" fill="#e6e6e6"/>
    </g>
    <g id="Group_293" data-name="Group 293">
      <path id="Path_589" data-name="Path 589" d="M770.068,1482.389a2.378,2.378,0,0,1-.685-.1l-11.557-3.586a2.342,2.342,0,0,1-1.647-2.163l-.292-9.251a45.343,45.343,0,0,1-10.045-8.341l-9.141,1.405a2.337,2.337,0,0,1-2.432-1.23l-5.633-10.693a2.34,2.34,0,0,1,.367-2.7l6.33-6.742a45.235,45.235,0,0,1-1.2-13l-7.465-5.474a2.347,2.347,0,0,1-.852-2.585l3.581-11.551a2.353,2.353,0,0,1,2.163-1.648l9.253-.29a45.306,45.306,0,0,1,8.342-10.045l-1.407-9.143a2.335,2.335,0,0,1,1.233-2.431l10.692-5.634a2.349,2.349,0,0,1,2.7.364l6.743,6.332a45.008,45.008,0,0,1,13-1.193l5.472-7.464a2.325,2.325,0,0,1,2.591-.849l11.544,3.576a2.352,2.352,0,0,1,1.648,2.163l.292,9.255a45.367,45.367,0,0,1,10.045,8.341l9.144-1.406a2.36,2.36,0,0,1,2.429,1.228l5.633,10.7a2.334,2.334,0,0,1-.367,2.7l-6.33,6.74a45.319,45.319,0,0,1,1.2,13l7.465,5.473a2.345,2.345,0,0,1,.855,2.577l-3.586,11.56a2.345,2.345,0,0,1-2.161,1.648l-9.254.29a45.3,45.3,0,0,1-8.341,10.042l1.407,9.142a2.354,2.354,0,0,1-1.224,2.432l-10.7,5.633a2.328,2.328,0,0,1-2.7-.363l-6.742-6.332a45.373,45.373,0,0,1-13,1.2l-5.473,7.465A2.345,2.345,0,0,1,770.068,1482.389Zm-10.877-6.436,10.617,3.293,6.165-8.411.835.059a42.254,42.254,0,0,0,13.683-1.257l.809-.213,7.6,7.136,9.836-5.178-1.586-10.3.632-.547a42.3,42.3,0,0,0,8.777-10.566l.423-.722,10.424-.328L830.7,1438.3l-8.41-6.166.059-.834a42.394,42.394,0,0,0-1.259-13.684l-.21-.811,7.135-7.595-5.179-9.834-10.3,1.585-.547-.63a42.311,42.311,0,0,0-10.57-8.778l-.721-.426-.326-10.424-10.617-3.29-6.168,8.412-.834-.06a42.085,42.085,0,0,0-13.68,1.255l-.809.213-7.6-7.137-9.834,5.181,1.585,10.3-.632.548A42.226,42.226,0,0,0,743,1406.693l-.423.722-10.425.328-3.291,10.616,8.409,6.166-.059.835a42.309,42.309,0,0,0,1.259,13.681l.21.807-7.135,7.6,5.181,9.835,10.3-1.586.548.633a42.3,42.3,0,0,0,10.568,8.773l.721.423Zm39.273.835,0,0Zm-39.744-.979h0Zm-21.77-18.1v0Zm90.306-8.326v0Zm3.834-10.8.006,0Zm-2.852-28.945,0,.006Zm-5.635-10.7h0ZM750.4,1385.5l-.007,0Zm38.883-8.234,0,0Zm.759-.255,0,.007Zm-10.477,81.974a30.692,30.692,0,1,1,29.542-38.942l-2.918.81a27.656,27.656,0,1,0-3.025,21.812l2.589,1.574a30.791,30.791,0,0,1-26.188,14.746Z" fill="#e6e6e6"/>
      <path id="Path_590" data-name="Path 590" d="M779.793,1440.582c-.223,0-.445-.006-.67-.018a12.254,12.254,0,1,1,9.77-20.426h0a12.255,12.255,0,0,1-9.1,20.444Zm-.02-21.474a9.219,9.219,0,1,0,6.865,3.053A9.2,9.2,0,0,0,779.773,1419.108Z" fill="#e6e6e6"/>
    </g>
    <g id="Group_297" data-name="Group 297">
      <g id="Group_294" data-name="Group 294">
        <path id="Path_591" data-name="Path 591" d="M610.264,1410.884a85.97,85.97,0,0,1,85.7-80.661,80.56,80.56,0,0,1,21.547,2.73l-25.317,77.931Z" fill="#b388eb"/>
      </g>
      <g id="Group_295" data-name="Group 295">
        <path id="Path_592" data-name="Path 592" d="M674.417,1499.185l25.316-77.918,27.648-85.091a85.856,85.856,0,0,1-52.964,163.009Z" fill="#b388eb"/>
      </g>
      <g id="Group_296" data-name="Group 296">
        <path id="Path_593" data-name="Path 593" d="M610.258,1421.267h78.556l-24.277,74.714A84.305,84.305,0,0,1,610.258,1421.267Z" fill="#b388eb"/>
      </g>
    </g>
    <g id="Group_307" data-name="Group 307">
      <g id="Group_300" data-name="Group 300">
        <rect id="Rectangle_163" data-name="Rectangle 163" width="8.448" height="34.975" rx="3.332" transform="translate(602.848 1540.606)" fill="#ff8f8e"/>
        <path id="Path_597" data-name="Path 597" d="M601.845,1584.2h26.036a7.08,7.08,0,0,0-.241-2.7c-.991-3.354-4.275-4.626-8.775-7.666a57.706,57.706,0,0,1-6.653-5.256H601.845Z" fill="#b388eb"/>
        <path id="Path_598" data-name="Path 598" d="M627.883,1582.765H601.845v1.431h26.038a7.234,7.234,0,0,0,.035-.765C627.916,1583.192,627.9,1582.969,627.883,1582.765Z" fill="#fff"/>
        <circle id="Ellipse_31" data-name="Ellipse 31" cx="2.507" cy="2.507" r="2.507" transform="translate(603.774 1575.582)" fill="#fff"/>
        <g id="Group_299" data-name="Group 299">
          <path id="Path_599" data-name="Path 599" d="M606.281,1580.226a2.137,2.137,0,1,0-2.138-2.137A2.14,2.14,0,0,0,606.281,1580.226Zm0-3.985a1.848,1.848,0,1,1-1.848,1.848A1.85,1.85,0,0,1,606.281,1576.241Z" fill="#b388eb"/>
        </g>
        <path id="Path_600" data-name="Path 600" d="M615.649,1571.485l-3.341,3.342-1.013-1.012,3.233-3.233Q615.1,1571.058,615.649,1571.485Z" fill="#fff"/>
        <path id="Path_601" data-name="Path 601" d="M614.512,1577.031l-1.012-1.012,3.505-3.5c.412.3.809.589,1.178.846Z" fill="#fff"/>
        <path id="Path_602" data-name="Path 602" d="M620.756,1575.06l-4.107,4.108-1.012-1.012,3.888-3.888Q620.159,1574.684,620.756,1575.06Z" fill="#fff"/>
      </g>
      <path id="Path_603" data-name="Path 603" d="M575.606,1499.387c13.658-7.982,26.835-9.908,33.594-4.071,3.174,2.742,4.125,6.5,5.759,12.96,1.905,7.527,2.263,14.681,1.08,29.806-.547,7-1.45,16.033-3.024,26.566H601.352c-2.629-31.651-11.265-42.041-19.223-45.285-12.645-5.155-26.673,6.477-39.093-1.368-6.957-4.394-9.722-12.569-10.975-18.608Z" fill="#20221d"/>
      <g id="Group_587" data-name="Group 587">
        <g id="Group_298" data-name="Group 298">
          <path id="Path_594" data-name="Path 594" d="M639.936,1451.662s4.606.556,5.963.793,1.142.541,1.223,1.658a26.005,26.005,0,0,1-.207,2.677,7.131,7.131,0,0,1-.8,3.152c-.537.533-5.09.956-6.266-.3S639.06,1453.706,639.936,1451.662Z" fill="#ff8f8e"/>
          <path id="Path_595" data-name="Path 595" d="M640.6,1457.256l.823-2.266a5.508,5.508,0,0,0,2.608.14c-.322,1.089-.447,2.263.013,2.852a11.5,11.5,0,0,0-2.072.693Z" fill="#ae324a"/>
          <path id="Path_596" data-name="Path 596" d="M654.268,1441.747s-.086,1.983-1.372,2.464a7.14,7.14,0,0,1-3.6.53,21.9,21.9,0,0,1-5.042,2.521,9.718,9.718,0,0,1-1.885,2.843c-.986.813-1.915,1.756-1.915,1.756s-.184,2.706-.161,3.509,1.875,2.851,3.011,3.338,6.45.254,8.713.7c1.665.326,2.493.739,3.125,1.954a3.442,3.442,0,0,1-.162,2.224,32,32,0,0,0-5.168-.8c-2.246-.088-4.372-.081-5.535.771a13.883,13.883,0,0,1-6.14,2.785c-2.235.276-13.1,4.582-13.1,4.582l-1.737-10.282a45.4,45.4,0,0,0,6.237-1.038c1-.459,3.522-5.993,4.293-7.766a7.655,7.655,0,0,1,2.961-3.592c1.917-1.061,3.557-2.933,4.894-3.741,1.916-1.159,4.581-2.538,6.272-2.577C650.625,1441.864,654.268,1441.747,654.268,1441.747Z" fill="#ff8f8e"/>
        </g>
        <rect id="Rectangle_164" data-name="Rectangle 164" width="11.35" height="40.822" rx="4.477" transform="matrix(0.676, -0.737, 0.737, 0.676, 573.459, 1452.423)" fill="#ff8f8e"/>
        <path id="Path_604" data-name="Path 604" d="M605.429,1466.35l-7.107,4.572a4.866,4.866,0,0,1,.348-2.743,5.8,5.8,0,0,1,5.426-3.04Z" fill="#ae324a"/>
        <rect id="Rectangle_165" data-name="Rectangle 165" width="11.35" height="46.989" rx="4.477" transform="translate(640.808 1453.884) rotate(72.067)" fill="#ff8f8e"/>
        <rect id="Rectangle_166" data-name="Rectangle 166" width="23.327" height="34.99" rx="4.389" transform="matrix(-0.676, 0.737, -0.737, -0.676, 597.451, 1450.686)" fill="#b388eb"/>
      </g>
      <g id="Group_302" data-name="Group 302">
        <rect id="Rectangle_167" data-name="Rectangle 167" width="8.448" height="34.975" rx="3.332" transform="matrix(0.203, 0.979, -0.979, 0.203, 547.086, 1549.862)" fill="#ff8f8e"/>
        <path id="Path_605" data-name="Path 605" d="M504.2,1557.717l5.279,25.5a7.114,7.114,0,0,0,2.6-.784c3.083-1.651,3.663-5.124,5.728-10.147a57.729,57.729,0,0,1,3.8-7.581l-2.1-10.151Z" fill="#b388eb"/>
        <path id="Path_606" data-name="Path 606" d="M510.879,1582.924l-5.279-25.5-1.4.29,5.279,25.5a7.4,7.4,0,0,0,.756-.121C510.467,1583.043,510.682,1582.985,510.879,1582.924Z" fill="#fff"/>
        <circle id="Ellipse_32" data-name="Ellipse 32" cx="2.507" cy="2.507" r="2.507" transform="translate(508.571 1558.315)" fill="#fff"/>
        <g id="Group_301" data-name="Group 301">
          <path id="Path_607" data-name="Path 607" d="M508.985,1561.256a2.137,2.137,0,1,0,1.66-2.527A2.14,2.14,0,0,0,508.985,1561.256Zm3.9-.808a1.848,1.848,0,1,1-2.184-1.435A1.849,1.849,0,0,1,512.888,1560.448Z" fill="#b388eb"/>
        </g>
        <path id="Path_608" data-name="Path 608" d="M519.444,1568.657l-3.95-2.594.786-1.2,3.821,2.51Q519.753,1568.036,519.444,1568.657Z" fill="#fff"/>
        <path id="Path_609" data-name="Path 609" d="M513.782,1568.668l.786-1.2,4.143,2.722c-.214.464-.413.911-.59,1.324Z" fill="#fff"/>
        <path id="Path_610" data-name="Path 610" d="M516.978,1574.383l-4.855-3.189.786-1.2,4.6,3.019Q517.226,1573.722,516.978,1574.383Z" fill="#fff"/>
      </g>
      <g id="Group_303" data-name="Group 303">
        <rect id="Rectangle_168" data-name="Rectangle 168" width="12.317" height="19.84" transform="translate(566.687 1423.575) rotate(180)" fill="#ff8f8e"/>
        <path id="Path_611" data-name="Path 611" d="M555.922,1409.824c-1.537,3.964,2.8,8.954,6.758,9.229a6.137,6.137,0,0,0,4.007-1.292,6.523,6.523,0,0,0,2.227-5.165,7.048,7.048,0,0,0-6.053-6.472C559.971,1405.768,556.888,1407.334,555.922,1409.824Z" fill="#ae324a"/>
        <path id="Path_612" data-name="Path 612" d="M554.291,1400.69v-5.565a6.094,6.094,0,0,1,6.076-6.077h7.43a6.094,6.094,0,0,1,6.076,6.077v9.526c-.535,8.158-5.551,13.756-9.791,13.771-5.075.017-9.744-7.923-9.772-13.812Z" fill="#ff8f8e"/>
        <path id="Path_613" data-name="Path 613" d="M559.751,1396.877c.962-1.395,3.5-2.1,5.612-1.751,1.775.3,1.731,1.013,3.482,1.343a7.1,7.1,0,0,0,5.94-1.566,6.5,6.5,0,0,0,1.845-4.02c.328-2.883-1.1-6.328-3.181-7.044-1.907-.657-2.624,1.123-6.225,1.213-2.445.061-2.675-.746-5.9-.837a12.8,12.8,0,0,0-5.136.623,14.272,14.272,0,0,0-4.923,3.995c-7.27,9.458.021,27.091,3.109,26.967,1.286-.052,2.918-3.227,2.542-5.544-.128-.783-.543-1.829-1.345-4.9-.1-.379-.092-.4-.15-.574-.433-1.324-1.183-2.094-.946-3.4a2,2,0,0,1,.928-1.507,1.664,1.664,0,0,1,1.569.143,2.485,2.485,0,0,1,.91,1.819c.152.938-.079,1.562.054,1.6.164.054.7-.852,1.087-1.944C559.939,1398.878,558.959,1398.025,559.751,1396.877Z" fill="#b388eb"/>
        <path id="Path_614" data-name="Path 614" d="M555.174,1402.017c.038.006-.013-.639.374-.877a.58.58,0,0,1,.436-.06.681.681,0,0,1,.4.455,1.049,1.049,0,0,1-.033.715c-.106.3-.228.276-.338.563a1.031,1.031,0,0,0-.006.889.667.667,0,0,0,.657.341.418.418,0,0,0,.322-.289c.015-.1-.051-.136-.145-.377a.762.762,0,0,1-.1-.4c.041-.2.229-.183.306-.413a.634.634,0,0,0-.027-.422c-.056-.131-.108-.12-.166-.235-.115-.228.042-.355-.035-.636a.762.762,0,0,0-.73-.551,1.094,1.094,0,0,0-.778.391A.937.937,0,0,0,555.174,1402.017Z" fill="#ae324a"/>
        <rect id="Rectangle_169" data-name="Rectangle 169" width="2.622" height="1.98" rx="0.781" transform="translate(575.184 1404.725) rotate(180)" fill="#ff8f8e"/>
      </g>
      <g id="Group_304" data-name="Group 304">
        <rect id="Rectangle_170" data-name="Rectangle 170" width="23.327" height="17.495" rx="4.417" transform="translate(572.883 1441.07) rotate(180)" fill="#ff8f8e"/>
        <path id="Path_615" data-name="Path 615" d="M568.481,1423.575a17.9,17.9,0,0,1,15.873,9.612c1.126,2.157,4.441,5.915,6.024,13.715,4.027,19.84-3.971,46.513-5.832,52.485H532.061c-3.491-7.493-10.892-26.068-5.831-46.654,1.477-6.01,5.509-13.043,11.534-21.553a17.953,17.953,0,0,1,14.647-7.605,8.435,8.435,0,0,0,16.07,0Z" fill="#b388eb"/>
      </g>
      <path id="Path_616" data-name="Path 616" d="M584.564,1499.387a47.857,47.857,0,0,1,18.516,20.768c2.163,4.813,5.313,11.821,3.24,19.007-.66,2.286-3.584,10.609-24.9,18.541-10.8,4.02-29.781,9.226-55.88,6.945v-11.663l46.653-17.495c-3.44-.877-37.155-9.872-40.115-30.272a20.6,20.6,0,0,1,0-5.831Z" fill="#444"/>
      <g id="Group_306" data-name="Group 306">
        <g id="Group_305" data-name="Group 305">
          <rect id="Rectangle_171" data-name="Rectangle 171" width="11.35" height="40.822" rx="4.477" transform="translate(532.842 1444.639) rotate(45.518)" fill="#ff8f8e"/>
          <rect id="Rectangle_172" data-name="Rectangle 172" width="11.35" height="46.989" rx="4.477" transform="matrix(-0.207, 0.978, -0.978, -0.207, 553.361, 1476.348)" fill="#ff8f8e"/>
          <path id="Path_617" data-name="Path 617" d="M523.229,1469.987l-7.338-1.55a14.644,14.644,0,0,1,8.527.382Z" fill="#ae324a"/>
        </g>
        <rect id="Rectangle_173" data-name="Rectangle 173" width="23.327" height="34.99" rx="4.389" transform="translate(533.327 1468.689) rotate(-134.482)" fill="#b388eb"/>
        <path id="Path_618" data-name="Path 618" d="M530.391,1483.049s11.357,2.141,13.521,2.346,5.231,2.687,7.725,3.018a42.015,42.015,0,0,0,8.343.006c1.062-.03,2.007-.214,2.245-.954a1.624,1.624,0,0,0-.189-1.632s1.663.148,1.944-.767a2.284,2.284,0,0,0-.549-2.091,1.945,1.945,0,0,0,1.609-1.293c.225-.788-.708-1.962-.708-1.962a1.609,1.609,0,0,0,.741-1.628c-.07-.679-1.132-.987-2.243-1.408-.686-.26-5.071-1.3-5.744-1.608a2.951,2.951,0,0,1-.849-3.488c1.224-2.634,1.54-4.342.548-6.032-.758-1.29-1.595-.972-1.595-.972s-.185,2.81-.761,3.64a20.782,20.782,0,0,0-1.858,3.494,6.779,6.779,0,0,1-3.179,2.715c-.671.234-1.531.558-2.439.814a7.4,7.4,0,0,1-3.438.314c-3.119-.7-11.808-3-11.808-3l-.249,1.986h0Z" fill="#ff8f8e"/>
      </g>
    </g>
    <g id="Group_308" data-name="Group 308">
      <path id="Path_619" data-name="Path 619" d="M616.263,1340.927a1.7,1.7,0,0,1-.5-.073l-8.368-2.6a1.7,1.7,0,0,1-1.193-1.566l-.211-6.7a32.8,32.8,0,0,1-7.273-6.04l-6.619,1.018a1.691,1.691,0,0,1-1.761-.891l-4.079-7.742a1.7,1.7,0,0,1,.266-1.954l4.583-4.882a32.772,32.772,0,0,1-.865-9.414l-5.405-3.963a1.7,1.7,0,0,1-.617-1.872l2.593-8.364a1.7,1.7,0,0,1,1.566-1.193l6.7-.21a32.791,32.791,0,0,1,6.04-7.273l-1.018-6.62a1.689,1.689,0,0,1,.892-1.761l7.742-4.079a1.7,1.7,0,0,1,1.952.263l4.883,4.585a32.566,32.566,0,0,1,9.415-.863l3.962-5.405a1.683,1.683,0,0,1,1.876-.615l8.359,2.59a1.7,1.7,0,0,1,1.193,1.566l.211,6.7a32.832,32.832,0,0,1,7.273,6.039l6.621-1.017a1.706,1.706,0,0,1,1.759.889l4.079,7.744a1.689,1.689,0,0,1-.266,1.954l-4.583,4.88a32.849,32.849,0,0,1,.865,9.416l5.405,3.963a1.7,1.7,0,0,1,.62,1.866l-2.6,8.37a1.7,1.7,0,0,1-1.565,1.193l-6.7.21a32.788,32.788,0,0,1-6.04,7.271l1.019,6.62a1.706,1.706,0,0,1-.886,1.761l-7.749,4.079a1.687,1.687,0,0,1-1.953-.264l-4.881-4.584a32.878,32.878,0,0,1-9.416.865l-3.962,5.405A1.7,1.7,0,0,1,616.263,1340.927Zm-7.876-4.659,7.688,2.384,4.464-6.091.6.043a30.585,30.585,0,0,0,9.908-.91l.585-.154,5.5,5.167,7.122-3.749-1.148-7.462.457-.4a30.613,30.613,0,0,0,6.355-7.65l.307-.523,7.547-.238,2.384-7.687-6.089-4.464.043-.6a30.692,30.692,0,0,0-.912-9.908l-.152-.587,5.166-5.5-3.75-7.121-7.46,1.148-.4-.456a30.622,30.622,0,0,0-7.653-6.356l-.522-.309-.237-7.547-7.687-2.382-4.466,6.09-.6-.043a30.466,30.466,0,0,0-9.905.909l-.586.154-5.5-5.167-7.121,3.751,1.148,7.459-.458.4a30.6,30.6,0,0,0-6.355,7.652l-.306.523-7.549.238-2.383,7.686,6.09,4.465-.043.6a30.609,30.609,0,0,0,.911,9.906l.152.585-5.166,5.5,3.751,7.121,7.459-1.149.4.459a30.634,30.634,0,0,0,7.651,6.352l.523.306Zm28.437.6,0,0Zm-28.778-.709h0Zm-15.763-13.1v0Zm65.389-6.028v0Zm2.775-7.818.005,0Zm-2.065-20.958,0,0Zm-4.08-7.749h0Zm-52.282-9.732-.005,0Zm28.154-5.962,0,0Zm.55-.185,0,.005Zm-7.586,59.355a22.226,22.226,0,1,1,21.39-28.2l-2.113.587a20.027,20.027,0,1,0-2.19,15.793l1.875,1.14a22.292,22.292,0,0,1-18.962,10.677Z" fill="#e6e6e6"/>
      <path id="Path_620" data-name="Path 620" d="M623.3,1310.656c-.162,0-.323,0-.485-.013a8.873,8.873,0,1,1,7.074-14.79h0a8.874,8.874,0,0,1-6.589,14.8Zm-.015-15.549a6.676,6.676,0,1,0,4.971,2.211A6.656,6.656,0,0,0,623.29,1295.107Z" fill="#e6e6e6"/>
    </g>
    <g id="Group_324" data-name="Group 324">
      <g id="Group_310" data-name="Group 310">
        <rect id="Rectangle_174" data-name="Rectangle 174" width="11.578" height="41.642" rx="5.789" transform="matrix(-0.676, -0.737, 0.737, -0.676, 801.675, 1403.762)" fill="#ff8f8e"/>
        <rect id="Rectangle_175" data-name="Rectangle 175" width="11.578" height="47.933" rx="5.789" transform="translate(807.305 1389.818) rotate(90)" fill="#ff8f8e"/>
        <rect id="Rectangle_176" data-name="Rectangle 176" width="23.795" height="35.693" rx="4.389" transform="matrix(0.676, 0.737, -0.737, 0.676, 834.188, 1349.71)" fill="#b388eb"/>
        <g id="Group_309" data-name="Group 309">
          <path id="Path_621" data-name="Path 621" d="M779.777,1392.646l-.551,8.7s-8.778-.724-10.858-.416-5.281,1.686-7.539,1.924a6.11,6.11,0,0,1-6.335-3.592l-4.146-7.585s12.644-1.549,14.408-1.834,5.481,1.931,6.752,2.149S779.777,1392.646,779.777,1392.646Z" fill="#ff8f8e"/>
          <path id="Path_622" data-name="Path 622" d="M759.4,1390.59s-9.969.968-13.655,1.588-6.742.951-8.183,1.173-3.233,3.019,1.307,2.645c4.675-.386,18.084-1.909,18.084-1.909Z" fill="#ff8f8e"/>
          <path id="Path_623" data-name="Path 623" d="M755.061,1393.757a57.055,57.055,0,0,0-5.946,1.229c-1.343.491-.886,3.146.674,3.022a16.319,16.319,0,0,0,6.129-1.62C757.363,1395.528,757.35,1393.36,755.061,1393.757Z" fill="#ff8f8e"/>
          <path id="Path_624" data-name="Path 624" d="M757.35,1396.644a62.567,62.567,0,0,0-6.485,1.256c-1.343.49-.809,3.344,1.212,2.994s4.684-.76,6.129-1.62S759.2,1396.344,757.35,1396.644Z" fill="#ff8f8e"/>
          <path id="Path_625" data-name="Path 625" d="M759.725,1399.134a55.7,55.7,0,0,0-5.814,1.136c-1.227.448-.6,3.022,1.249,2.7a17.486,17.486,0,0,0,5.347-1.436C761.827,1400.75,761.815,1398.771,759.725,1399.134Z" fill="#ff8f8e"/>
          <path id="Path_626" data-name="Path 626" d="M767.907,1397.6s-4.567-.04-6.427-1.006a14.641,14.641,0,0,1-2.469-1.53s-3.709,1.323-6.128.884c-2.217-.4-2.332-1.557-2.332-1.557s-.22,1.568,2.465,2.1c2.375.467,6.046-.727,6.046-.727a8.007,8.007,0,0,0,4.848,2.6A10.13,10.13,0,0,0,767.907,1397.6Z" fill="#ae324a"/>
          <path id="Path_627" data-name="Path 627" d="M751.846,1393.672c3.258-.459,6.131-2.492,10.688-3.506-1.306.121-4.536.574-4.536.574S753.579,1392.79,751.846,1393.672Z" fill="#ae324a"/>
          <path id="Path_628" data-name="Path 628" d="M753.21,1400.7s3.767-1.092,4.823-1.265a6.617,6.617,0,0,1,2.859-.21c.756.265.859.831.285,1.651s-3.242,1.576-3.242,1.576,2.781-.02,3.9-1.542c.861-1.168-.071-2.052-1-2.394a4.007,4.007,0,0,0-1.733-.067s.417-1.052-.341-1.581a4.747,4.747,0,0,0-2.422-.388,10.866,10.866,0,0,0-2.583.215c-.825.264-2.9,1.206-2.9,1.206s3.788-.764,4.9-.813a3.981,3.981,0,0,1,2.386.318.739.739,0,0,1,.251.878C758.178,1398.847,758,1398.97,753.21,1400.7Z" fill="#ae324a"/>
        </g>
      </g>
      <g id="Group_312" data-name="Group 312">
        <rect id="Rectangle_177" data-name="Rectangle 177" width="8.618" height="35.678" rx="4.309" transform="translate(856.058 1575.497) rotate(180)" fill="#ff8f8e"/>
        <path id="Path_629" data-name="Path 629" d="M857.081,1584.285H830.522a7.22,7.22,0,0,1,.246-2.755c1.011-3.421,4.361-4.719,8.951-7.82a58.993,58.993,0,0,0,6.788-5.361h10.574Z" fill="#b388eb"/>
        <path id="Path_630" data-name="Path 630" d="M830.52,1582.825h26.561v1.46H830.52a7.521,7.521,0,0,1-.035-.781C830.486,1583.26,830.5,1583.033,830.52,1582.825Z" fill="#fff"/>
        <circle id="Ellipse_33" data-name="Ellipse 33" cx="2.558" cy="2.558" r="2.558" transform="translate(849.999 1575.497)" fill="#fff"/>
        <g id="Group_311" data-name="Group 311">
          <path id="Path_631" data-name="Path 631" d="M852.556,1580.235a2.18,2.18,0,1,1,2.181-2.18A2.183,2.183,0,0,1,852.556,1580.235Zm0-4.066a1.885,1.885,0,1,0,1.886,1.886A1.887,1.887,0,0,0,852.556,1576.169Z" fill="#b388eb"/>
        </g>
        <path id="Path_632" data-name="Path 632" d="M843,1571.318l3.409,3.409,1.032-1.032-3.3-3.3Q843.556,1570.881,843,1571.318Z" fill="#fff"/>
        <path id="Path_633" data-name="Path 633" d="M844.16,1576.976l1.032-1.032-3.575-3.575c-.42.309-.825.6-1.2.863Z" fill="#fff"/>
        <path id="Path_634" data-name="Path 634" d="M837.79,1574.965l4.19,4.19,1.032-1.032-3.966-3.966C838.615,1574.44,838.2,1574.708,837.79,1574.965Z" fill="#fff"/>
      </g>
      <path id="Path_635" data-name="Path 635" d="M830.17,1423.519c.206,18.486,1.162,38.385,3.206,59.488a697.668,697.668,0,0,0,11.9,77.334h11.9c7.777-50.016,13.48-85.378,16.658-99.147a85.635,85.635,0,0,0,2.2-28.2,81.322,81.322,0,0,0-1.443-9.474Z" fill="#20221d"/>
      <path id="Path_636" data-name="Path 636" d="M799.748,1389.818l7.25,4.664a4.97,4.97,0,0,0-.355-2.8,5.915,5.915,0,0,0-5.535-3.1Z" fill="#ae324a"/>
      <g id="Group_314" data-name="Group 314">
        <rect id="Rectangle_178" data-name="Rectangle 178" width="8.618" height="35.678" rx="4.309" transform="translate(847.029 1575.497) rotate(180)" fill="#ff8f8e"/>
        <path id="Path_637" data-name="Path 637" d="M848.051,1584.285H821.492a7.22,7.22,0,0,1,.246-2.755c1.011-3.421,4.361-4.719,8.951-7.82a58.993,58.993,0,0,0,6.788-5.361h10.574Z" fill="#b388eb"/>
        <path id="Path_638" data-name="Path 638" d="M821.49,1582.825h26.561v1.46H821.49a7.522,7.522,0,0,1-.035-.781C821.456,1583.26,821.47,1583.033,821.49,1582.825Z" fill="#fff"/>
        <circle id="Ellipse_34" data-name="Ellipse 34" cx="2.558" cy="2.558" r="2.558" transform="translate(840.969 1575.497)" fill="#fff"/>
        <g id="Group_313" data-name="Group 313">
          <path id="Path_639" data-name="Path 639" d="M843.526,1580.235a2.18,2.18,0,1,1,2.181-2.18A2.183,2.183,0,0,1,843.526,1580.235Zm0-4.066a1.885,1.885,0,1,0,1.886,1.886A1.888,1.888,0,0,0,843.526,1576.169Z" fill="#b388eb"/>
        </g>
        <path id="Path_640" data-name="Path 640" d="M833.97,1571.318l3.409,3.409,1.032-1.032-3.3-3.3Q834.526,1570.881,833.97,1571.318Z" fill="#fff"/>
        <path id="Path_641" data-name="Path 641" d="M835.13,1576.976l1.032-1.032-3.575-3.575c-.42.309-.825.6-1.2.863Z" fill="#fff"/>
        <path id="Path_642" data-name="Path 642" d="M828.76,1574.965l4.19,4.19,1.033-1.032-3.967-3.966C829.585,1574.44,829.166,1574.708,828.76,1574.965Z" fill="#fff"/>
      </g>
      <g id="Group_315" data-name="Group 315">
        <rect id="Rectangle_179" data-name="Rectangle 179" width="12.565" height="20.239" transform="translate(839.268 1325.945)" fill="#ff8f8e"/>
        <path id="Path_643" data-name="Path 643" d="M850.25,1332.157c1.568,4.044-2.862,9.133-6.894,9.414a6.263,6.263,0,0,1-4.088-1.318,6.658,6.658,0,0,1-2.271-5.269,7.188,7.188,0,0,1,6.174-6.6C846.12,1328.019,849.265,1329.617,850.25,1332.157Z" fill="#ae324a"/>
        <path id="Path_644" data-name="Path 644" d="M851.914,1322.839v-5.677a6.217,6.217,0,0,0-6.2-6.2h-7.578a6.216,6.216,0,0,0-6.2,6.2v9.718c.546,8.322,5.663,14.032,9.988,14.047,5.176.018,9.94-8.082,9.968-14.089Z" fill="#ff8f8e"/>
        <path id="Path_645" data-name="Path 645" d="M846.344,1318.95c-.982-1.423-3.569-2.147-5.725-1.787-1.81.3-1.766,1.034-3.552,1.37a7.237,7.237,0,0,1-6.059-1.6,6.629,6.629,0,0,1-1.882-4.1c-.335-2.941,1.122-6.455,3.244-7.186,1.946-.67,2.677,1.146,6.35,1.238,2.5.062,2.729-.761,6.023-.854a13.086,13.086,0,0,1,5.24.635,14.564,14.564,0,0,1,5.022,4.076c7.415,9.648-.023,27.635-3.172,27.508-1.312-.053-2.977-3.291-2.593-5.655.13-.8.554-1.866,1.372-5,.1-.386.094-.4.153-.585.442-1.35,1.207-2.136.965-3.466a2.038,2.038,0,0,0-.946-1.537,1.7,1.7,0,0,0-1.6.145,2.536,2.536,0,0,0-.928,1.856c-.155.957.081,1.593-.054,1.637-.168.056-.719-.869-1.11-1.983C846.152,1320.99,847.152,1320.121,846.344,1318.95Z" fill="#b388eb"/>
        <path id="Path_646" data-name="Path 646" d="M851.013,1324.193c-.039.006.013-.652-.382-.9a.6.6,0,0,0-.445-.061.69.69,0,0,0-.4.464,1.076,1.076,0,0,0,.033.729c.108.3.233.282.345.575a1.053,1.053,0,0,1,.006.907.683.683,0,0,1-.67.348.427.427,0,0,1-.328-.3c-.016-.1.051-.138.147-.384a.768.768,0,0,0,.1-.408c-.041-.2-.233-.187-.311-.421a.634.634,0,0,1,.027-.431c.057-.134.109-.122.169-.24.118-.232-.043-.362.036-.649a.785.785,0,0,1,.286-.41.8.8,0,0,1,.458-.151,1.114,1.114,0,0,1,.794.4A.959.959,0,0,1,851.013,1324.193Z" fill="#ae324a"/>
        <rect id="Rectangle_180" data-name="Rectangle 180" width="2.675" height="2.02" rx="1.01" transform="translate(830.601 1324.936)" fill="#ff8f8e"/>
      </g>
      <g id="Group_316" data-name="Group 316">
        <rect id="Rectangle_181" data-name="Rectangle 181" width="23.795" height="17.846" rx="4.417" transform="translate(832.948 1346.184)" fill="#ff8f8e"/>
        <path id="Path_647" data-name="Path 647" d="M837.438,1346.184a18.26,18.26,0,0,0-16.192,9.805c-1.148,2.2-4.529,6.034-6.144,13.99-4.109,20.239,4.05,47.448,5.948,53.54h53.54c3.561-7.644,11.111-26.592,5.949-47.591-1.508-6.131-5.62-13.3-11.767-21.987a18.313,18.313,0,0,0-14.941-7.757,8.6,8.6,0,0,1-16.393,0Z" fill="#b388eb"/>
      </g>
      <path id="Path_648" data-name="Path 648" d="M821.05,1423.519c.206,18.486,1.162,38.385,3.206,59.488a697.909,697.909,0,0,0,11.9,77.334h11.9c12.868-55.637,21.693-96.561,23.795-107.078a133.845,133.845,0,0,0,2.744-23.8c.062-2.69.026-4.837,0-5.948Z" fill="#444"/>
      <g id="Group_323" data-name="Group 323">
        <g id="Group_317" data-name="Group 317">
          <rect id="Rectangle_182" data-name="Rectangle 182" width="11.578" height="41.642" rx="5.789" transform="translate(890.222 1409.349) rotate(159.925)" fill="#ff8f8e"/>
          <path id="Path_649" data-name="Path 649" d="M880.656,1401.815a4.565,4.565,0,0,0-2.52,1.126,4.641,4.641,0,0,0-1.479,3.018l.708,2.049Z" fill="#ae324a"/>
          <rect id="Rectangle_183" data-name="Rectangle 183" width="11.578" height="47.933" rx="5.789" transform="translate(876.879 1401.722) rotate(-4.192)" fill="#ff8f8e"/>
        </g>
        <g id="Group_322" data-name="Group 322">
          <g id="Group_321" data-name="Group 321">
            <g id="Group_318" data-name="Group 318">
              <path id="Path_650" data-name="Path 650" d="M887.389,1465.573s-4.224,1.039-5.8,1.532a5.309,5.309,0,0,1-1.99.408,2.685,2.685,0,0,1,1.849-2.514c1.905-.673,5.068-2.187,5.068-2.187l2.707-4.716S890.09,1463.989,887.389,1465.573Z" fill="#ae324a"/>
            </g>
            <g id="Group_319" data-name="Group 319">
              <path id="Path_651" data-name="Path 651" d="M887.64,1462.426s-4.471.478-6.15.764a5.487,5.487,0,0,1-2.094.142,2.777,2.777,0,0,1,2.243-2.319c2.044-.424,5.492-1.535,5.492-1.535l3.428-4.453S890.625,1461.179,887.64,1462.426Z" fill="#ae324a"/>
            </g>
            <path id="Path_652" data-name="Path 652" d="M890.9,1464.5s-2.569,3.087-4.069,3.889-6.108,2.839-6.108,2.839-1.011-.6.495-2.143a47.02,47.02,0,0,1,5.739-4.243l2.121-4.933Z" fill="#ff8f8e"/>
            <g id="Group_320" data-name="Group 320">
              <path id="Path_653" data-name="Path 653" d="M886.124,1430.934c1.847,2.43,3.427,4.249,4.022,6.352.9,3.173,2.139,8.68,3.133,12.983a16.822,16.822,0,0,1,.229,5.369c-.358,2.817-.427,5.477-1.038,10.3a44.916,44.916,0,0,1-2.781,9.388,3.082,3.082,0,0,1-1.514-3.776c.67-2.806.829-13.334-.477-16.46-.217-.519-1.986-1.441-1.986-1.441s-3.217,4.282-4.526,6c-2.715,3.561-4.349,2.573-4.976,2.215-1.47-.84,1.249-2.9,1.991-4.254,1.17-2.13,2.1-4.84,1.355-11.2-.267-2.291,1.588-6.226,1.225-8.389a20.027,20.027,0,0,0-1.485-3.088Z" fill="#ff8f8e"/>
            </g>
          </g>
        </g>
        <rect id="Rectangle_184" data-name="Rectangle 184" width="23.795" height="35.693" rx="4.389" transform="matrix(0.875, -0.485, 0.485, 0.875, 848.034, 1365.1)" fill="#b388eb"/>
      </g>
    </g>
    <g id="Group_325" data-name="Group 325">
      <path id="Path_654" data-name="Path 654" d="M773.253,1537.675c-5.914-.355-6.014,10.148-5.964,13.6.132,9.25,1.621,18.49,2.248,27.721-.069.574-.137,1.15-.208,1.723a1.117,1.117,0,0,0,1.376,1.237,1.048,1.048,0,0,0,1.407-1.069c-.031-.575-.074-1.15-.11-1.725,1.241-9.826,2.7-19.692,3.619-29.589C775.86,1547.011,777.665,1537.942,773.253,1537.675Z" fill="#b388eb"/>
      <path id="Path_655" data-name="Path 655" d="M800.329,1561.621c-4.124-4.039-11.315-.643-14.793,2.32-4.871,4.153-8.074,10.663-9.98,16.665a1.149,1.149,0,0,0-.005.738c-.237,1.227,1.574,2.138,2.253.867,3.413-6.391,11.253-9.174,17.3-12.48C797.523,1568.412,803.729,1564.954,800.329,1561.621Z" fill="#b388eb"/>
      <path id="Path_656" data-name="Path 656" d="M786.866,1549.28c-6.7-5.548-9.332,13.335-9.385,16.562a1.231,1.231,0,0,0,2.437.2,1.367,1.367,0,0,0,.182-.233C782.095,1562.569,791.606,1553.209,786.866,1549.28Z" fill="#b388eb"/>
      <path id="Path_657" data-name="Path 657" d="M803.49,1576.505c-2.068-6.307-15.674,1.5-19.166,3.038a.971.971,0,0,0-.644.924,1.242,1.242,0,0,0,1.263,1.982,16.481,16.481,0,0,1,4.418-.094,54.565,54.565,0,0,0,7.593-.353C799.479,1581.671,804.712,1580.23,803.49,1576.505Z" fill="#b388eb"/>
      <path id="Path_658" data-name="Path 658" d="M746.006,1569.731c6.053,3.306,13.891,6.089,17.3,12.48.68,1.271,2.489.36,2.253-.867a1.136,1.136,0,0,0-.005-.738c-1.906-6-5.106-12.512-9.979-16.665-3.478-2.963-10.671-6.359-14.794-2.32C737.385,1564.954,743.592,1568.412,746.006,1569.731Z" fill="#b388eb"/>
      <path id="Path_659" data-name="Path 659" d="M754.249,1549.28c6.7-5.548,9.331,13.335,9.385,16.562a1.231,1.231,0,0,1-2.437.2,1.318,1.318,0,0,1-.183-.233C759.019,1562.569,749.508,1553.209,754.249,1549.28Z" fill="#b388eb"/>
      <path id="Path_660" data-name="Path 660" d="M737.624,1576.505c2.068-6.307,15.676,1.5,19.168,3.038a.965.965,0,0,1,.641.924,1.242,1.242,0,0,1-1.262,1.982,16.469,16.469,0,0,0-4.416-.094,54.588,54.588,0,0,1-7.6-.353C741.634,1581.671,736.4,1580.23,737.624,1576.505Z" fill="#b388eb"/>
    </g>
  </g>
</svg>
