<svg xmlns="http://www.w3.org/2000/svg" width="441.052" height="333.744" viewBox="0 0 441.052 333.744">
  <g id="Group_290" data-name="Group 290" transform="translate(32.263 -1250.541)">
    <g id="Group_248" data-name="Group 248">
      <path id="Path_492" data-name="Path 492" d="M115.243,1328.83a1.732,1.732,0,0,1-.5-.072l-8.368-2.6a1.7,1.7,0,0,1-1.193-1.566l-.211-6.7a32.8,32.8,0,0,1-7.274-6.039l-6.618,1.017a1.69,1.69,0,0,1-1.761-.891l-4.079-7.742a1.693,1.693,0,0,1,.266-1.954l4.583-4.882a32.773,32.773,0,0,1-.866-9.414l-5.4-3.963a1.7,1.7,0,0,1-.617-1.872l2.594-8.364a1.7,1.7,0,0,1,1.566-1.193l6.7-.21a32.811,32.811,0,0,1,6.04-7.273l-1.019-6.62a1.692,1.692,0,0,1,.893-1.761l7.742-4.079a1.7,1.7,0,0,1,1.952.264l4.882,4.584a32.569,32.569,0,0,1,9.415-.863l3.963-5.405a1.682,1.682,0,0,1,1.875-.615l8.359,2.59a1.7,1.7,0,0,1,1.194,1.566l.211,6.7a32.853,32.853,0,0,1,7.273,6.039l6.621-1.017a1.707,1.707,0,0,1,1.759.889l4.079,7.744a1.692,1.692,0,0,1-.266,1.954l-4.583,4.88a32.85,32.85,0,0,1,.865,9.416l5.4,3.963a1.7,1.7,0,0,1,.619,1.866l-2.6,8.37a1.7,1.7,0,0,1-1.565,1.193l-6.7.21a32.785,32.785,0,0,1-6.04,7.271l1.018,6.62a1.7,1.7,0,0,1-.886,1.761l-7.749,4.079a1.686,1.686,0,0,1-1.952-.263l-4.881-4.585a32.922,32.922,0,0,1-9.416.866l-3.962,5.405A1.7,1.7,0,0,1,115.243,1328.83Zm-7.876-4.659,7.687,2.384,4.465-6.09.6.043a30.61,30.61,0,0,0,9.907-.911l.586-.154,5.5,5.167,7.122-3.749-1.148-7.462.458-.4a30.639,30.639,0,0,0,6.355-7.65l.306-.523,7.548-.238,2.384-7.686-6.09-4.465.043-.6a30.666,30.666,0,0,0-.911-9.908l-.152-.587,5.166-5.5-3.75-7.121-7.46,1.149-.4-.457a30.668,30.668,0,0,0-7.654-6.356l-.521-.308-.237-7.548-7.688-2.382-4.465,6.091-.6-.043a30.445,30.445,0,0,0-9.906.908l-.585.154-5.5-5.167-7.12,3.751,1.147,7.46-.457.4a30.561,30.561,0,0,0-6.355,7.652l-.307.523-7.548.238-2.383,7.687,6.089,4.464-.043.6a30.617,30.617,0,0,0,.912,9.907l.152.584-5.166,5.5,3.751,7.121,7.458-1.148.4.458a30.633,30.633,0,0,0,7.651,6.352l.523.307Zm28.436.6,0,0Zm-28.777-.709h0Zm-15.763-13.1v0Zm65.388-6.028v0Zm2.776-7.817,0,0Zm-2.065-20.959,0,.005Zm-4.08-7.749h0ZM101,1258.676l0,0Zm28.155-5.962,0,0Zm.549-.184,0,0Zm-7.586,59.355a22.226,22.226,0,1,1,21.39-28.2l-2.112.587a20.024,20.024,0,1,0-2.19,15.794l1.874,1.139a22.293,22.293,0,0,1-18.962,10.678Z" fill="#e6e6e6"/>
      <path id="Path_493" data-name="Path 493" d="M122.284,1298.56c-.161,0-.322-.005-.485-.013a8.873,8.873,0,1,1,7.074-14.791h0a8.874,8.874,0,0,1-6.589,14.8Zm-.014-15.549a6.675,6.675,0,1,0,4.971,2.211A6.659,6.659,0,0,0,122.27,1283.011Z" fill="#e6e6e6"/>
    </g>
    <g id="Group_249" data-name="Group 249">
      <path id="Path_494" data-name="Path 494" d="M155.833,1563.408a2.141,2.141,0,0,1-.621-.091l-10.49-3.254a2.127,2.127,0,0,1-1.495-1.963l-.265-8.4a41.148,41.148,0,0,1-9.117-7.571l-8.3,1.276a2.121,2.121,0,0,1-2.207-1.117l-5.113-9.7a2.125,2.125,0,0,1,.333-2.449l5.745-6.12a41.082,41.082,0,0,1-1.085-11.8l-6.775-4.968a2.133,2.133,0,0,1-.773-2.347l3.251-10.484a2.135,2.135,0,0,1,1.963-1.495l8.4-.263a41.113,41.113,0,0,1,7.571-9.117l-1.277-8.3a2.12,2.12,0,0,1,1.119-2.207l9.7-5.113a2.13,2.13,0,0,1,2.447.33l6.12,5.747a40.823,40.823,0,0,1,11.8-1.082l4.966-6.775a2.11,2.11,0,0,1,2.351-.771l10.478,3.246a2.134,2.134,0,0,1,1.5,1.964l.265,8.4a41.2,41.2,0,0,1,9.116,7.57l8.3-1.275a2.14,2.14,0,0,1,2.205,1.114l5.113,9.707a2.12,2.12,0,0,1-.333,2.45l-5.745,6.117a41.167,41.167,0,0,1,1.085,11.8l6.775,4.968a2.128,2.128,0,0,1,.776,2.339l-3.255,10.491a2.128,2.128,0,0,1-1.962,1.5l-8.4.263a41.109,41.109,0,0,1-7.571,9.114l1.277,8.3a2.136,2.136,0,0,1-1.111,2.207l-9.713,5.113a2.113,2.113,0,0,1-2.447-.33l-6.119-5.747a41.2,41.2,0,0,1-11.8,1.085l-4.966,6.775A2.131,2.131,0,0,1,155.833,1563.408Zm-9.872-5.84,9.636,2.989,5.6-7.635.758.054a38.349,38.349,0,0,0,12.418-1.141l.734-.194,6.9,6.477,8.927-4.7-1.439-9.353.573-.5a38.388,38.388,0,0,0,7.966-9.589l.384-.655,9.461-.3,2.988-9.635-7.633-5.6.054-.757a38.461,38.461,0,0,0-1.143-12.419l-.19-.736,6.475-6.894-4.7-8.926-9.351,1.44-.5-.572a38.4,38.4,0,0,0-9.594-7.968l-.654-.386-.3-9.461-9.637-2.986-5.6,7.634-.758-.053a38.2,38.2,0,0,0-12.415,1.138l-.734.194-6.9-6.477-8.925,4.7,1.438,9.35-.573.5a38.36,38.36,0,0,0-7.966,9.592l-.384.655-9.462.3-2.987,9.635,7.633,5.6-.054.758a38.386,38.386,0,0,0,1.143,12.417l.19.733-6.475,6.9,4.7,8.926,9.349-1.439.5.574a38.373,38.373,0,0,0,9.591,7.963l.655.384Zm35.644.757,0,0Zm-36.072-.889h0Zm-19.758-16.426v0Zm81.963-7.557v0Zm3.479-9.8.005,0Zm-2.589-26.271,0,.005Zm-5.114-9.713h0Zm-65.535-12.2-.006,0ZM173.27,1468l0,0Zm.689-.231,0,.006Zm-9.509,74.4a27.858,27.858,0,1,1,26.812-35.344l-2.648.736a25.1,25.1,0,1,0-2.745,19.8l2.349,1.429a27.947,27.947,0,0,1-23.768,13.383Z" fill="#e6e6e6"/>
      <path id="Path_495" data-name="Path 495" d="M164.66,1525.465c-.2,0-.4-.006-.608-.016a11.123,11.123,0,1,1,8.867-18.54h0a11.124,11.124,0,0,1-8.259,18.556Zm-.019-19.49a8.367,8.367,0,1,0,6.231,2.771A8.344,8.344,0,0,0,164.641,1505.975Z" fill="#e6e6e6"/>
    </g>
    <g id="Group_250" data-name="Group 250">
      <path id="Path_496" data-name="Path 496" d="M285.233,1482.389a2.376,2.376,0,0,1-.684-.1l-11.557-3.586a2.345,2.345,0,0,1-1.648-2.163l-.291-9.251a45.3,45.3,0,0,1-10.045-8.341l-9.141,1.405a2.336,2.336,0,0,1-2.432-1.23l-5.633-10.693a2.34,2.34,0,0,1,.367-2.7l6.329-6.742a45.237,45.237,0,0,1-1.2-13l-7.465-5.474a2.35,2.35,0,0,1-.852-2.585l3.582-11.551a2.352,2.352,0,0,1,2.163-1.648l9.253-.29a45.307,45.307,0,0,1,8.342-10.045l-1.407-9.143a2.333,2.333,0,0,1,1.233-2.431l10.692-5.634a2.347,2.347,0,0,1,2.7.364l6.744,6.332a45.006,45.006,0,0,1,13-1.193l5.472-7.464a2.323,2.323,0,0,1,2.59-.849l11.545,3.576a2.352,2.352,0,0,1,1.648,2.163l.291,9.255a45.323,45.323,0,0,1,10.045,8.341l9.144-1.406a2.359,2.359,0,0,1,2.429,1.228l5.634,10.7a2.335,2.335,0,0,1-.367,2.7l-6.33,6.74a45.389,45.389,0,0,1,1.2,13l7.465,5.473a2.345,2.345,0,0,1,.855,2.577l-3.586,11.56a2.347,2.347,0,0,1-2.162,1.648l-9.253.29a45.273,45.273,0,0,1-8.342,10.042l1.407,9.142a2.353,2.353,0,0,1-1.223,2.432l-10.7,5.633a2.33,2.33,0,0,1-2.7-.363l-6.741-6.332a45.38,45.38,0,0,1-13,1.2l-5.472,7.465A2.347,2.347,0,0,1,285.233,1482.389Zm-10.877-6.436,10.617,3.293,6.166-8.411.835.059a42.25,42.25,0,0,0,13.682-1.257l.809-.213,7.6,7.136,9.836-5.178-1.586-10.3.632-.547a42.323,42.323,0,0,0,8.777-10.566l.423-.722,10.423-.328,3.293-10.616-8.41-6.166.059-.834a42.338,42.338,0,0,0-1.259-13.684l-.209-.811,7.134-7.595L338,1399.374l-10.3,1.585-.547-.63a42.315,42.315,0,0,0-10.571-8.778l-.72-.426-.327-10.424-10.617-3.29-6.167,8.412-.835-.06a42.088,42.088,0,0,0-13.68,1.255l-.808.213-7.6-7.137-9.833,5.181,1.584,10.3-.632.548a42.223,42.223,0,0,0-8.776,10.568l-.424.722-10.425.328-3.291,10.616,8.41,6.166-.059.835a42.282,42.282,0,0,0,1.259,13.681l.21.807-7.135,7.6,5.181,9.835,10.3-1.586.549.633a42.316,42.316,0,0,0,10.567,8.773l.722.423Zm39.274.835-.005,0Zm-39.745-.979h0Zm-21.77-18.1,0,0Zm90.307-8.326v0Zm3.833-10.8.006,0Zm-2.852-28.945,0,.006Zm-5.635-10.7h0ZM265.563,1385.5l-.008,0Zm38.883-8.234,0,0Zm.759-.255,0,.007Zm-10.477,81.974a30.695,30.695,0,1,1,29.541-38.942l-2.917.81a27.655,27.655,0,1,0-3.025,21.812l2.589,1.574a30.791,30.791,0,0,1-26.188,14.746Z" fill="#e6e6e6"/>
      <path id="Path_497" data-name="Path 497" d="M294.959,1440.582c-.224,0-.445-.006-.67-.018a12.254,12.254,0,1,1,9.769-20.426h0a12.254,12.254,0,0,1-9.1,20.444Zm-.021-21.474a9.219,9.219,0,1,0,6.866,3.053A9.193,9.193,0,0,0,294.938,1419.108Z" fill="#e6e6e6"/>
    </g>
    <g id="Group_254" data-name="Group 254">
      <g id="Group_251" data-name="Group 251">
        <path id="Path_498" data-name="Path 498" d="M122.273,1353.978a85.969,85.969,0,0,1,85.7-80.661,80.555,80.555,0,0,1,21.547,2.729L204.2,1353.978Z" fill="#b388eb"/>
      </g>
      <g id="Group_252" data-name="Group 252">
        <path id="Path_499" data-name="Path 499" d="M186.425,1442.279l25.317-77.919,27.647-85.09a85.856,85.856,0,0,1-52.964,163.009Z" fill="#b388eb"/>
      </g>
      <g id="Group_253" data-name="Group 253">
        <path id="Path_500" data-name="Path 500" d="M122.266,1364.36h78.556l-24.276,74.714A84.305,84.305,0,0,1,122.266,1364.36Z" fill="#b388eb"/>
      </g>
    </g>
    <g id="Group_271" data-name="Group 271">
      <g id="Group_256" data-name="Group 256">
        <rect id="Rectangle_143" data-name="Rectangle 143" width="8.621" height="35.691" rx="4.31" transform="translate(51.185 1575.494) rotate(-180)" fill="#ff8f8e"/>
        <path id="Path_501" data-name="Path 501" d="M52.208,1584.285H25.639a7.245,7.245,0,0,1,.246-2.756c1.012-3.423,4.363-4.72,8.955-7.823a58.86,58.86,0,0,0,6.79-5.363H52.208Z" fill="#b388eb"/>
        <path id="Path_502" data-name="Path 502" d="M25.637,1582.824H52.208v1.461H25.637a7.529,7.529,0,0,1-.035-.781C25.6,1583.26,25.617,1583.033,25.637,1582.824Z" fill="#fff"/>
        <circle id="Ellipse_27" data-name="Ellipse 27" cx="2.559" cy="2.559" r="2.559" transform="translate(45.123 1575.494)" fill="#fff"/>
        <g id="Group_255" data-name="Group 255">
          <path id="Path_503" data-name="Path 503" d="M47.682,1580.234a2.182,2.182,0,1,1,2.181-2.182A2.185,2.185,0,0,1,47.682,1580.234Zm0-4.068a1.886,1.886,0,1,0,1.886,1.886A1.889,1.889,0,0,0,47.682,1576.166Z" fill="#b388eb"/>
        </g>
        <path id="Path_504" data-name="Path 504" d="M38.122,1571.313l3.41,3.41,1.032-1.032-3.3-3.3Q38.678,1570.876,38.122,1571.313Z" fill="#fff"/>
        <path id="Path_505" data-name="Path 505" d="M39.282,1576.973l1.033-1.033-3.577-3.576c-.42.309-.825.6-1.2.864Z" fill="#fff"/>
        <path id="Path_506" data-name="Path 506" d="M32.91,1574.962l4.192,4.191,1.032-1.032-3.967-3.968Q33.519,1574.578,32.91,1574.962Z" fill="#fff"/>
      </g>
      <g id="Group_258" data-name="Group 258">
        <rect id="Rectangle_144" data-name="Rectangle 144" width="8.621" height="35.691" rx="4.31" transform="translate(87.774 1575.494) rotate(-180)" fill="#ff8f8e"/>
        <path id="Path_507" data-name="Path 507" d="M78.221,1584.285H104.79a7.225,7.225,0,0,0-.246-2.756c-1.012-3.423-4.362-4.72-8.955-7.823a58.951,58.951,0,0,1-6.789-5.363H78.221Z" fill="#b388eb"/>
        <path id="Path_508" data-name="Path 508" d="M104.792,1582.824H78.221v1.461h26.571a7.528,7.528,0,0,0,.035-.781C104.826,1583.26,104.812,1583.033,104.792,1582.824Z" fill="#fff"/>
        <circle id="Ellipse_28" data-name="Ellipse 28" cx="2.559" cy="2.559" r="2.559" transform="translate(80.189 1575.494)" fill="#fff"/>
        <g id="Group_257" data-name="Group 257">
          <path id="Path_509" data-name="Path 509" d="M82.748,1580.234a2.182,2.182,0,1,0-2.182-2.182A2.184,2.184,0,0,0,82.748,1580.234Zm0-4.068a1.886,1.886,0,1,1-1.886,1.886A1.888,1.888,0,0,1,82.748,1576.166Z" fill="#b388eb"/>
        </g>
        <path id="Path_510" data-name="Path 510" d="M92.308,1571.313l-3.41,3.41-1.033-1.032,3.3-3.3Q91.751,1570.876,92.308,1571.313Z" fill="#fff"/>
        <path id="Path_511" data-name="Path 511" d="M91.147,1576.973l-1.032-1.033,3.576-3.576c.42.309.825.6,1.2.864Z" fill="#fff"/>
        <path id="Path_512" data-name="Path 512" d="M97.519,1574.962l-4.191,4.191-1.033-1.032,3.968-3.968Q96.91,1574.578,97.519,1574.962Z" fill="#fff"/>
      </g>
      <g id="Group_260" data-name="Group 260">
        <path id="Path_513" data-name="Path 513" d="M83.234,1359.174H53.478V1346.1H83.234Z" fill="#ff8f8e"/>
        <g id="Group_259" data-name="Group 259">
          <path id="Path_514" data-name="Path 514" d="M107.038,1423.459H29.674c-.4-31.3,2.23-54.816,6.022-63.067a28.558,28.558,0,0,1,5.88-8.345,25.4,25.4,0,0,1,11.9-5.951c.565.714,6.271,7.682,15.715,7.266a19.56,19.56,0,0,0,14.041-7.266,24.345,24.345,0,0,1,11.9,5.951,27.077,27.077,0,0,1,5.6,8.345C104.268,1368.7,106.925,1392.173,107.038,1423.459Z" fill="#b388eb"/>
        </g>
      </g>
      <path id="Path_515" data-name="Path 515" d="M29.674,1423.459a417.854,417.854,0,0,0,11.9,136.873h11.9c.9-18.211,2.556-43.8,5.812-74.512,2.723-25.684,4.125-38.527,6.09-38.557,2.49-.037,6.287,20.242,11.9,113.069h11.9l17.853-136.873Z" fill="#20221d"/>
      <g id="Group_262" data-name="Group 262">
        <rect id="Rectangle_145" data-name="Rectangle 145" width="11.582" height="80.19" rx="5.791" transform="matrix(0.485, 0.875, -0.875, 0.485, 156.98, 1313.83)" fill="#ff8f8e"/>
        <g id="Group_261" data-name="Group 261">
          <path id="Path_516" data-name="Path 516" d="M141.243,1325.566l4.6,7.4s7.39-4.792,9.368-5.5,5.45-1.014,7.552-1.873a6.111,6.111,0,0,0,3.882-6.162l.063-8.644s-11.872,4.618-13.561,5.2-3.914,4.3-4.932,5.088S141.243,1325.566,141.243,1325.566Z" fill="#ff8f8e"/>
          <path id="Path_517" data-name="Path 517" d="M158.225,1314.11s9.24-3.864,12.781-5.062,6.39-2.354,7.764-2.84,4.276,1.13.1,2.949c-4.3,1.872-16.834,6.876-16.834,6.876Z" fill="#ff8f8e"/>
          <path id="Path_518" data-name="Path 518" d="M163.542,1314.85a57.305,57.305,0,0,1,5.82-1.732c1.415-.2,2.269,2.353.836,2.981a16.311,16.311,0,0,1-6.166,1.473C162.352,1317.5,161.338,1315.583,163.542,1314.85Z" fill="#ff8f8e"/>
          <path id="Path_519" data-name="Path 519" d="M162.892,1318.475a62.812,62.812,0,0,1,6.307-1.962c1.415-.2,2.295,2.563.349,3.212s-4.486,1.547-6.166,1.473S161.12,1319.087,162.892,1318.475Z" fill="#ff8f8e"/>
          <path id="Path_520" data-name="Path 520" d="M161.978,1321.793a55.8,55.8,0,0,1,5.659-1.751c1.293-.185,1.956,2.38.178,2.972a17.433,17.433,0,0,1-5.39,1.265C160.891,1324.212,159.965,1322.462,161.978,1321.793Z" fill="#ff8f8e"/>
          <path id="Path_521" data-name="Path 521" d="M154.042,1324.31s4-2.2,5.186-3.927a14.617,14.617,0,0,0,1.45-2.517s3.894-.589,5.817-2.121c1.763-1.4,1.319-2.475,1.319-2.475s.935,1.277-1.18,3.013c-1.872,1.535-5.671,2.221-5.671,2.221a8,8,0,0,1-3.041,4.582A10.123,10.123,0,0,1,154.042,1324.31Z" fill="#ae324a"/>
          <path id="Path_522" data-name="Path 522" d="M166.334,1313.253c-3.087,1.137-6.58.706-11.075,1.969,1.208-.512,4.268-1.64,4.268-1.64S164.39,1313.3,166.334,1313.253Z" fill="#ae324a"/>
          <path id="Path_523" data-name="Path 523" d="M168.458,1320.089s-3.835.821-4.848,1.167a6.614,6.614,0,0,0-2.618,1.169c-.54.591-.363,1.138.53,1.589s3.6-.146,3.6-.146-2.459,1.3-4.167.489c-1.312-.621-.909-1.842-.254-2.582a4,4,0,0,1,1.494-.879s-.864-.729-.447-1.554a4.74,4.74,0,0,1,1.949-1.488,10.859,10.859,0,0,1,2.378-1.032c.852-.158,3.122-.309,3.122-.309s-3.7,1.12-4.7,1.6-1.779.938-1.952,1.409a.738.738,0,0,0,.194.892C163.205,1320.808,163.421,1320.832,168.458,1320.089Z" fill="#ae324a"/>
        </g>
        <rect id="Rectangle_146" data-name="Rectangle 146" width="23.804" height="35.706" rx="4.389" transform="matrix(-0.485, -0.875, 0.875, -0.485, 89.073, 1371.722)" fill="#b388eb"/>
      </g>
      <g id="Group_269" data-name="Group 269">
        <g id="Group_263" data-name="Group 263">
          <rect id="Rectangle_147" data-name="Rectangle 147" width="11.582" height="41.657" rx="5.791" transform="translate(29.136 1362.107) rotate(20.075)" fill="#ff8f8e"/>
          <path id="Path_524" data-name="Path 524" d="M24.408,1393.7a4.569,4.569,0,0,1,2.52,1.126,4.648,4.648,0,0,1,1.48,3.019q-.354,1.026-.709,2.051Z" fill="#ae324a"/>
          <rect id="Rectangle_148" data-name="Rectangle 148" width="11.582" height="47.951" rx="5.791" transform="translate(24.68 1441.426) rotate(-175.808)" fill="#ff8f8e"/>
        </g>
        <g id="Group_268" data-name="Group 268">
          <g id="Group_267" data-name="Group 267">
            <g id="Group_264" data-name="Group 264">
              <path id="Path_525" data-name="Path 525" d="M17.671,1457.478s4.227,1.039,5.8,1.532a5.341,5.341,0,0,0,1.99.409,2.686,2.686,0,0,0-1.85-2.516c-1.905-.673-5.069-2.188-5.069-2.188L15.834,1450S14.969,1455.893,17.671,1457.478Z" fill="#ae324a"/>
            </g>
            <g id="Group_265" data-name="Group 265">
              <path id="Path_526" data-name="Path 526" d="M17.421,1454.33s4.472.478,6.151.763a5.514,5.514,0,0,0,2.095.143,2.777,2.777,0,0,0-2.243-2.32c-2.044-.424-5.495-1.536-5.495-1.536l-3.428-4.455S14.434,1453.082,17.421,1454.33Z" fill="#ae324a"/>
            </g>
            <path id="Path_527" data-name="Path 527" d="M14.158,1456.4s2.569,3.088,4.07,3.89,6.11,2.84,6.11,2.84,1.011-.6-.495-2.143a46.965,46.965,0,0,0-5.741-4.245l-2.122-4.935Z" fill="#ff8f8e"/>
            <g id="Group_266" data-name="Group 266">
              <path id="Path_528" data-name="Path 528" d="M18.937,1422.826c-1.847,2.43-3.429,4.25-4.024,6.354-.9,3.174-2.139,8.683-3.133,12.988a16.836,16.836,0,0,0-.23,5.371c.358,2.818.428,5.478,1.039,10.307a44.923,44.923,0,0,0,2.782,9.391,3.084,3.084,0,0,0,1.515-3.777c-.67-2.808-.83-13.34.477-16.466.217-.52,1.987-1.442,1.987-1.442s3.218,4.283,4.527,6c2.716,3.563,4.351,2.574,4.978,2.216,1.47-.84-1.25-2.906-1.992-4.256-1.17-2.131-2.1-4.842-1.356-11.2.268-2.291-1.588-6.228-1.225-8.391a19.906,19.906,0,0,1,1.486-3.09Z" fill="#ff8f8e"/>
            </g>
          </g>
        </g>
        <rect id="Rectangle_149" data-name="Rectangle 149" width="23.804" height="35.706" rx="4.389" transform="translate(35.244 1392.256) rotate(-135)" fill="#b388eb"/>
      </g>
      <g id="Group_270" data-name="Group 270">
        <rect id="Rectangle_150" data-name="Rectangle 150" width="12.569" height="20.246" transform="translate(74.3 1346.199) rotate(180)" fill="#ff8f8e"/>
        <path id="Path_529" data-name="Path 529" d="M63.315,1332.166c-1.569,4.046,2.862,9.138,6.9,9.418a6.269,6.269,0,0,0,4.089-1.318,6.657,6.657,0,0,0,2.272-5.271,7.192,7.192,0,0,0-6.176-6.6C67.446,1328.027,64.3,1329.625,63.315,1332.166Z" fill="#ae324a"/>
        <path id="Path_530" data-name="Path 530" d="M61.65,1322.845v-5.679a6.219,6.219,0,0,1,6.2-6.2h7.581a6.218,6.218,0,0,1,6.2,6.2v9.722c-.546,8.324-5.665,14.037-9.991,14.052-5.179.018-9.944-8.085-9.973-14.094Z" fill="#ff8f8e"/>
        <path id="Path_531" data-name="Path 531" d="M67.222,1318.955c.982-1.424,3.57-2.148,5.727-1.788,1.811.3,1.767,1.034,3.554,1.371a7.24,7.24,0,0,0,6.061-1.6,6.639,6.639,0,0,0,1.883-4.1c.335-2.942-1.123-6.457-3.246-7.189-1.947-.67-2.678,1.146-6.353,1.238-2.5.063-2.729-.76-6.024-.854a13.079,13.079,0,0,0-5.242.636,14.565,14.565,0,0,0-5.024,4.077c-7.418,9.651.022,27.645,3.173,27.518,1.312-.053,2.978-3.292,2.594-5.657-.13-.8-.555-1.866-1.373-5-.1-.387-.094-.4-.153-.586-.442-1.351-1.207-2.137-.965-3.467a2.039,2.039,0,0,1,.947-1.538,1.7,1.7,0,0,1,1.6.145,2.535,2.535,0,0,1,.929,1.857c.155.957-.08,1.594.054,1.638.168.055.72-.87,1.111-1.984C67.414,1321,66.414,1320.126,67.222,1318.955Z" fill="#b388eb"/>
        <path id="Path_532" data-name="Path 532" d="M62.551,1324.2c.039.005-.013-.652.382-.895a.589.589,0,0,1,.445-.062.7.7,0,0,1,.405.464,1.078,1.078,0,0,1-.033.73c-.109.3-.233.282-.345.575a1.053,1.053,0,0,0-.007.907.683.683,0,0,0,.671.349.427.427,0,0,0,.328-.3c.016-.1-.051-.138-.148-.385a.771.771,0,0,1-.1-.407c.041-.2.233-.188.311-.422a.647.647,0,0,0-.027-.431c-.057-.134-.11-.122-.169-.24-.118-.232.043-.362-.036-.649a.776.776,0,0,0-.745-.562,1.112,1.112,0,0,0-.793.4A.959.959,0,0,0,62.551,1324.2Z" fill="#ae324a"/>
        <rect id="Rectangle_151" data-name="Rectangle 151" width="2.676" height="2.02" rx="1.01" transform="translate(82.971 1326.963) rotate(180)" fill="#ff8f8e"/>
      </g>
    </g>
    <g id="Group_287" data-name="Group 287">
      <g id="Group_273" data-name="Group 273">
        <rect id="Rectangle_152" data-name="Rectangle 152" width="11.578" height="41.642" rx="5.789" transform="matrix(-0.676, -0.737, 0.737, -0.676, 316.841, 1403.762)" fill="#ff8f8e"/>
        <rect id="Rectangle_153" data-name="Rectangle 153" width="11.578" height="47.933" rx="5.789" transform="translate(322.471 1389.818) rotate(90)" fill="#ff8f8e"/>
        <rect id="Rectangle_154" data-name="Rectangle 154" width="23.795" height="35.693" rx="4.389" transform="matrix(0.676, 0.737, -0.737, 0.676, 349.354, 1349.71)" fill="#b388eb"/>
        <g id="Group_272" data-name="Group 272">
          <path id="Path_533" data-name="Path 533" d="M294.943,1392.646l-.551,8.7s-8.778-.724-10.858-.416-5.281,1.686-7.539,1.924a6.112,6.112,0,0,1-6.336-3.592l-4.146-7.585s12.644-1.549,14.409-1.834,5.48,1.931,6.752,2.149S294.943,1392.646,294.943,1392.646Z" fill="#ff8f8e"/>
          <path id="Path_534" data-name="Path 534" d="M274.561,1390.59s-9.969.968-13.655,1.588-6.743.951-8.183,1.173-3.233,3.019,1.307,2.645c4.674-.386,18.084-1.909,18.084-1.909Z" fill="#ff8f8e"/>
          <path id="Path_535" data-name="Path 535" d="M270.227,1393.757a57.112,57.112,0,0,0-5.947,1.229c-1.343.491-.886,3.146.674,3.022a16.324,16.324,0,0,0,6.13-1.62C272.529,1395.528,272.516,1393.36,270.227,1393.757Z" fill="#ff8f8e"/>
          <path id="Path_536" data-name="Path 536" d="M272.515,1396.644a62.558,62.558,0,0,0-6.484,1.256c-1.343.49-.81,3.344,1.212,2.994s4.684-.76,6.129-1.62S274.366,1396.344,272.515,1396.644Z" fill="#ff8f8e"/>
          <path id="Path_537" data-name="Path 537" d="M274.89,1399.134a55.746,55.746,0,0,0-5.814,1.136c-1.226.448-.6,3.022,1.25,2.7a17.486,17.486,0,0,0,5.347-1.436C276.993,1400.75,276.98,1398.771,274.89,1399.134Z" fill="#ff8f8e"/>
          <path id="Path_538" data-name="Path 538" d="M283.073,1397.6s-4.568-.04-6.427-1.006a14.641,14.641,0,0,1-2.469-1.53s-3.709,1.323-6.128.884c-2.218-.4-2.333-1.557-2.333-1.557s-.22,1.568,2.465,2.1c2.376.467,6.047-.727,6.047-.727a8,8,0,0,0,4.848,2.6A10.13,10.13,0,0,0,283.073,1397.6Z" fill="#ae324a"/>
          <path id="Path_539" data-name="Path 539" d="M267.012,1393.672c3.257-.459,6.13-2.492,10.688-3.506-1.307.121-4.536.574-4.536.574S268.744,1392.79,267.012,1393.672Z" fill="#ae324a"/>
          <path id="Path_540" data-name="Path 540" d="M268.376,1400.7s3.766-1.092,4.822-1.265a6.618,6.618,0,0,1,2.859-.21c.756.265.86.831.286,1.651s-3.242,1.576-3.242,1.576,2.78-.02,3.9-1.542c.862-1.168-.071-2.052-1-2.394a4,4,0,0,0-1.732-.067s.416-1.052-.342-1.581a4.744,4.744,0,0,0-2.421-.388,10.866,10.866,0,0,0-2.583.215c-.826.264-2.9,1.206-2.9,1.206s3.788-.764,4.894-.813a3.985,3.985,0,0,1,2.387.318.737.737,0,0,1,.25.878C273.344,1398.847,273.164,1398.97,268.376,1400.7Z" fill="#ae324a"/>
        </g>
      </g>
      <g id="Group_275" data-name="Group 275">
        <rect id="Rectangle_155" data-name="Rectangle 155" width="8.618" height="35.678" rx="4.309" transform="translate(371.224 1575.497) rotate(180)" fill="#ff8f8e"/>
        <path id="Path_541" data-name="Path 541" d="M372.247,1584.285h-26.56a7.26,7.26,0,0,1,.246-2.755c1.012-3.421,4.361-4.719,8.952-7.82a58.911,58.911,0,0,0,6.787-5.361h10.575Z" fill="#b388eb"/>
        <path id="Path_542" data-name="Path 542" d="M345.685,1582.825h26.562v1.46H345.685a7.53,7.53,0,0,1-.035-.781C345.652,1583.26,345.665,1583.033,345.685,1582.825Z" fill="#fff"/>
        <circle id="Ellipse_29" data-name="Ellipse 29" cx="2.558" cy="2.558" r="2.558" transform="translate(365.164 1575.497)" fill="#fff"/>
        <g id="Group_274" data-name="Group 274">
          <path id="Path_543" data-name="Path 543" d="M367.722,1580.235a2.18,2.18,0,1,1,2.18-2.18A2.183,2.183,0,0,1,367.722,1580.235Zm0-4.066a1.885,1.885,0,1,0,1.885,1.886A1.888,1.888,0,0,0,367.722,1576.169Z" fill="#b388eb"/>
        </g>
        <path id="Path_544" data-name="Path 544" d="M358.165,1571.318l3.409,3.409,1.033-1.032-3.3-3.3C358.918,1570.72,358.535,1571.028,358.165,1571.318Z" fill="#fff"/>
        <path id="Path_545" data-name="Path 545" d="M359.325,1576.976l1.033-1.032-3.575-3.575c-.42.309-.825.6-1.2.863Z" fill="#fff"/>
        <path id="Path_546" data-name="Path 546" d="M352.956,1574.965l4.19,4.19,1.032-1.032-3.966-3.966C353.78,1574.44,353.362,1574.708,352.956,1574.965Z" fill="#fff"/>
      </g>
      <path id="Path_547" data-name="Path 547" d="M345.336,1423.519c.206,18.486,1.162,38.385,3.2,59.488a698.143,698.143,0,0,0,11.9,77.334h11.9c7.777-50.016,13.48-85.378,16.658-99.147a85.616,85.616,0,0,0,2.2-28.2,81.309,81.309,0,0,0-1.443-9.474Z" fill="#20221d"/>
      <path id="Path_548" data-name="Path 548" d="M314.914,1389.818l7.25,4.664a4.964,4.964,0,0,0-.356-2.8,5.915,5.915,0,0,0-5.534-3.1Z" fill="#ae324a"/>
      <g id="Group_277" data-name="Group 277">
        <rect id="Rectangle_156" data-name="Rectangle 156" width="8.618" height="35.678" rx="4.309" transform="translate(362.194 1575.497) rotate(180)" fill="#ff8f8e"/>
        <path id="Path_549" data-name="Path 549" d="M363.217,1584.285h-26.56a7.26,7.26,0,0,1,.246-2.755c1.012-3.421,4.361-4.719,8.952-7.82a58.911,58.911,0,0,0,6.787-5.361h10.575Z" fill="#b388eb"/>
        <path id="Path_550" data-name="Path 550" d="M336.656,1582.825h26.561v1.46H336.656a7.246,7.246,0,0,1-.036-.781C336.622,1583.26,336.635,1583.033,336.656,1582.825Z" fill="#fff"/>
        <circle id="Ellipse_30" data-name="Ellipse 30" cx="2.558" cy="2.558" r="2.558" transform="translate(356.134 1575.497)" fill="#fff"/>
        <g id="Group_276" data-name="Group 276">
          <path id="Path_551" data-name="Path 551" d="M358.692,1580.235a2.18,2.18,0,1,1,2.18-2.18A2.183,2.183,0,0,1,358.692,1580.235Zm0-4.066a1.885,1.885,0,1,0,1.885,1.886A1.888,1.888,0,0,0,358.692,1576.169Z" fill="#b388eb"/>
        </g>
        <path id="Path_552" data-name="Path 552" d="M349.135,1571.318l3.409,3.409,1.033-1.032-3.3-3.3Q349.693,1570.881,349.135,1571.318Z" fill="#fff"/>
        <path id="Path_553" data-name="Path 553" d="M350.3,1576.976l1.033-1.032-3.575-3.575c-.42.309-.825.6-1.2.863Z" fill="#fff"/>
        <path id="Path_554" data-name="Path 554" d="M343.926,1574.965l4.19,4.19,1.032-1.032-3.966-3.966C344.75,1574.44,344.332,1574.708,343.926,1574.965Z" fill="#fff"/>
      </g>
      <g id="Group_278" data-name="Group 278">
        <rect id="Rectangle_157" data-name="Rectangle 157" width="12.565" height="20.239" transform="translate(354.434 1325.945)" fill="#ff8f8e"/>
        <path id="Path_555" data-name="Path 555" d="M365.415,1332.157c1.568,4.044-2.861,9.133-6.893,9.414a6.263,6.263,0,0,1-4.088-1.318,6.655,6.655,0,0,1-2.271-5.269,7.187,7.187,0,0,1,6.174-6.6C361.285,1328.019,364.43,1329.617,365.415,1332.157Z" fill="#ae324a"/>
        <path id="Path_556" data-name="Path 556" d="M367.079,1322.839v-5.677a6.216,6.216,0,0,0-6.2-6.2H353.3a6.216,6.216,0,0,0-6.2,6.2v9.718c.545,8.322,5.662,14.032,9.987,14.047,5.177.018,9.94-8.082,9.969-14.089Z" fill="#ff8f8e"/>
        <path id="Path_557" data-name="Path 557" d="M361.51,1318.95c-.982-1.423-3.57-2.147-5.725-1.787-1.811.3-1.766,1.034-3.553,1.37a7.238,7.238,0,0,1-6.059-1.6,6.629,6.629,0,0,1-1.882-4.1c-.335-2.941,1.122-6.455,3.245-7.186,1.946-.67,2.677,1.146,6.35,1.238,2.494.062,2.729-.761,6.022-.854a13.091,13.091,0,0,1,5.241.635,14.562,14.562,0,0,1,5.021,4.076c7.416,9.648-.022,27.635-3.171,27.508-1.312-.053-2.978-3.291-2.593-5.655.13-.8.554-1.866,1.372-5,.1-.386.093-.4.153-.585.442-1.35,1.206-2.136.964-3.466a2.036,2.036,0,0,0-.946-1.537,1.7,1.7,0,0,0-1.6.145,2.536,2.536,0,0,0-.928,1.856c-.155.957.08,1.593-.055,1.637-.167.056-.719-.869-1.109-1.983C361.318,1320.99,362.317,1320.121,361.51,1318.95Z" fill="#b388eb"/>
        <path id="Path_558" data-name="Path 558" d="M366.179,1324.193c-.04.006.013-.652-.382-.9a.6.6,0,0,0-.445-.061.69.69,0,0,0-.4.464,1.071,1.071,0,0,0,.032.729c.109.3.234.282.345.575a1.053,1.053,0,0,1,.007.907.683.683,0,0,1-.67.348.428.428,0,0,1-.329-.3c-.016-.1.052-.138.148-.384a.768.768,0,0,0,.1-.408c-.042-.2-.234-.187-.312-.421a.639.639,0,0,1,.028-.431c.056-.134.109-.122.169-.24.117-.232-.044-.362.036-.649a.785.785,0,0,1,.286-.41.8.8,0,0,1,.458-.151,1.111,1.111,0,0,1,.793.4A.96.96,0,0,1,366.179,1324.193Z" fill="#ae324a"/>
        <rect id="Rectangle_158" data-name="Rectangle 158" width="2.675" height="2.02" rx="1.01" transform="translate(345.766 1324.936)" fill="#ff8f8e"/>
      </g>
      <g id="Group_279" data-name="Group 279">
        <rect id="Rectangle_159" data-name="Rectangle 159" width="23.795" height="17.846" rx="4.417" transform="translate(348.114 1346.184)" fill="#ff8f8e"/>
        <path id="Path_559" data-name="Path 559" d="M352.6,1346.184a18.259,18.259,0,0,0-16.192,9.805c-1.148,2.2-4.53,6.034-6.145,13.99-4.108,20.239,4.051,47.448,5.949,53.54h53.539c3.561-7.644,11.111-26.592,5.949-47.591-1.507-6.131-5.619-13.3-11.766-21.987A18.315,18.315,0,0,0,369,1346.184a8.6,8.6,0,0,1-16.392,0Z" fill="#b388eb"/>
      </g>
      <path id="Path_560" data-name="Path 560" d="M336.216,1423.519c.206,18.486,1.162,38.385,3.2,59.488a698.136,698.136,0,0,0,11.9,77.334h11.9c12.868-55.637,21.692-96.561,23.795-107.078a133.865,133.865,0,0,0,2.743-23.8c.062-2.69.026-4.837,0-5.948Z" fill="#444"/>
      <g id="Group_286" data-name="Group 286">
        <g id="Group_280" data-name="Group 280">
          <rect id="Rectangle_160" data-name="Rectangle 160" width="11.578" height="41.642" rx="5.789" transform="translate(405.388 1409.349) rotate(159.925)" fill="#ff8f8e"/>
          <path id="Path_561" data-name="Path 561" d="M395.821,1401.815a4.571,4.571,0,0,0-2.52,1.126,4.646,4.646,0,0,0-1.479,3.018q.354,1.024.709,2.049Q394.176,1404.912,395.821,1401.815Z" fill="#ae324a"/>
          <rect id="Rectangle_161" data-name="Rectangle 161" width="11.578" height="47.933" rx="5.789" transform="translate(392.045 1401.722) rotate(-4.192)" fill="#ff8f8e"/>
        </g>
        <g id="Group_285" data-name="Group 285">
          <g id="Group_284" data-name="Group 284">
            <g id="Group_281" data-name="Group 281">
              <path id="Path_562" data-name="Path 562" d="M402.555,1465.573s-4.225,1.039-5.8,1.532a5.312,5.312,0,0,1-1.99.408,2.683,2.683,0,0,1,1.849-2.514c1.9-.673,5.067-2.187,5.067-2.187l2.708-4.716S405.256,1463.989,402.555,1465.573Z" fill="#ae324a"/>
            </g>
            <g id="Group_282" data-name="Group 282">
              <path id="Path_563" data-name="Path 563" d="M402.8,1462.426s-4.47.478-6.149.764a5.487,5.487,0,0,1-2.094.142,2.776,2.776,0,0,1,2.242-2.319c2.044-.424,5.493-1.535,5.493-1.535l3.427-4.453S405.791,1461.179,402.8,1462.426Z" fill="#ae324a"/>
            </g>
            <path id="Path_564" data-name="Path 564" d="M406.067,1464.5s-2.568,3.087-4.069,3.889-6.108,2.839-6.108,2.839-1.01-.6.495-2.143a47.085,47.085,0,0,1,5.74-4.243l2.121-4.933Z" fill="#ff8f8e"/>
            <g id="Group_283" data-name="Group 283">
              <path id="Path_565" data-name="Path 565" d="M401.29,1430.934c1.846,2.43,3.427,4.249,4.022,6.352.9,3.173,2.139,8.68,3.133,12.983a16.824,16.824,0,0,1,.229,5.369c-.358,2.817-.427,5.477-1.038,10.3a44.957,44.957,0,0,1-2.782,9.388,3.082,3.082,0,0,1-1.514-3.776c.67-2.806.83-13.334-.477-16.46-.217-.519-1.986-1.441-1.986-1.441s-3.216,4.282-4.526,6c-2.715,3.561-4.348,2.573-4.975,2.215-1.47-.84,1.249-2.9,1.99-4.254,1.171-2.13,2.1-4.84,1.356-11.2-.268-2.291,1.588-6.226,1.224-8.389a19.934,19.934,0,0,0-1.485-3.088Z" fill="#ff8f8e"/>
            </g>
          </g>
        </g>
        <rect id="Rectangle_162" data-name="Rectangle 162" width="23.795" height="35.693" rx="4.389" transform="matrix(0.875, -0.485, 0.485, 0.875, 363.199, 1365.1)" fill="#b388eb"/>
      </g>
    </g>
    <g id="Group_288" data-name="Group 288">
      <path id="Path_566" data-name="Path 566" d="M288.418,1537.675c-5.913-.355-6.013,10.148-5.964,13.6.133,9.25,1.621,18.49,2.248,27.721-.069.574-.136,1.15-.207,1.723a1.116,1.116,0,0,0,1.375,1.237,1.049,1.049,0,0,0,1.408-1.069c-.031-.575-.074-1.15-.11-1.725,1.241-9.826,2.7-19.692,3.618-29.589C291.025,1547.011,292.831,1537.942,288.418,1537.675Z" fill="#b388eb"/>
      <path id="Path_567" data-name="Path 567" d="M315.494,1561.621c-4.123-4.039-11.315-.643-14.792,2.32-4.872,4.153-8.074,10.663-9.98,16.665a1.143,1.143,0,0,0,0,.738c-.237,1.227,1.574,2.138,2.253.867,3.413-6.391,11.252-9.174,17.3-12.48C312.689,1568.412,318.895,1564.954,315.494,1561.621Z" fill="#b388eb"/>
      <path id="Path_568" data-name="Path 568" d="M302.032,1549.28c-6.7-5.548-9.332,13.335-9.385,16.562a1.231,1.231,0,0,0,2.437.2,1.365,1.365,0,0,0,.182-.233C297.26,1562.569,306.772,1553.209,302.032,1549.28Z" fill="#b388eb"/>
      <path id="Path_569" data-name="Path 569" d="M318.656,1576.505c-2.069-6.307-15.675,1.5-19.167,3.038a.97.97,0,0,0-.643.924,1.242,1.242,0,0,0,1.263,1.982,16.474,16.474,0,0,1,4.417-.094,54.551,54.551,0,0,0,7.593-.353C314.645,1581.671,319.878,1580.23,318.656,1576.505Z" fill="#b388eb"/>
      <path id="Path_570" data-name="Path 570" d="M261.171,1569.731c6.053,3.306,13.891,6.089,17.3,12.48.681,1.271,2.49.36,2.254-.867a1.143,1.143,0,0,0-.005-.738c-1.907-6-5.107-12.512-9.98-16.665-3.478-2.963-10.67-6.359-14.794-2.32C252.551,1564.954,258.757,1568.412,261.171,1569.731Z" fill="#b388eb"/>
      <path id="Path_571" data-name="Path 571" d="M269.415,1549.28c6.7-5.548,9.331,13.335,9.385,16.562a1.231,1.231,0,0,1-2.438.2,1.317,1.317,0,0,1-.182-.233C274.185,1562.569,264.673,1553.209,269.415,1549.28Z" fill="#b388eb"/>
      <path id="Path_572" data-name="Path 572" d="M252.79,1576.505c2.068-6.307,15.675,1.5,19.167,3.038a.965.965,0,0,1,.642.924,1.242,1.242,0,0,1-1.262,1.982,16.47,16.47,0,0,0-4.416-.094,54.587,54.587,0,0,1-7.6-.353C256.8,1581.671,251.568,1580.23,252.79,1576.505Z" fill="#b388eb"/>
    </g>
    <g id="Group_289" data-name="Group 289">
      <path id="Path_573" data-name="Path 573" d="M-6.328,1550.127c-4.283-.258-4.356,7.349-4.32,9.85.1,6.7,1.174,13.39,1.629,20.075-.051.416-.1.833-.151,1.248a.809.809,0,0,0,1,.9.759.759,0,0,0,1.02-.774c-.023-.416-.054-.833-.08-1.249.9-7.117,1.954-14.262,2.621-21.429C-4.44,1556.887-3.133,1550.319-6.328,1550.127Z" fill="#b388eb"/>
      <path id="Path_574" data-name="Path 574" d="M13.28,1567.469c-2.986-2.925-8.194-.466-10.712,1.68-3.529,3.007-5.848,7.722-7.228,12.069a.833.833,0,0,0,0,.534c-.171.889,1.14,1.549,1.632.628,2.472-4.629,8.149-6.644,12.531-9.038C11.249,1572.387,15.743,1569.882,13.28,1567.469Z" fill="#b388eb"/>
      <path id="Path_575" data-name="Path 575" d="M3.531,1558.531c-4.85-4.018-6.759,9.657-6.8,11.994a.891.891,0,0,0,1.765.144,1,1,0,0,0,.132-.169C.075,1568.155,6.964,1561.376,3.531,1558.531Z" fill="#b388eb"/>
      <path id="Path_576" data-name="Path 576" d="M15.57,1578.248c-1.5-4.568-11.352,1.089-13.881,2.2a.7.7,0,0,0-.465.669.9.9,0,0,0,.914,1.435,11.924,11.924,0,0,1,3.2-.067,39.761,39.761,0,0,0,5.5-.256C12.666,1581.989,16.455,1580.945,15.57,1578.248Z" fill="#b388eb"/>
      <path id="Path_577" data-name="Path 577" d="M-26.061,1573.342c4.384,2.394,10.06,4.409,12.532,9.038.492.921,1.8.261,1.632-.628a.826.826,0,0,0,0-.534c-1.381-4.347-3.7-9.062-7.227-12.069-2.519-2.146-7.728-4.605-10.714-1.68C-32.3,1569.882-27.809,1572.387-26.061,1573.342Z" fill="#b388eb"/>
      <path id="Path_578" data-name="Path 578" d="M-20.091,1558.531c4.849-4.018,6.757,9.657,6.8,11.994a.892.892,0,0,1-1.766.144,1,1,0,0,1-.132-.169C-16.637,1568.155-23.525,1561.376-20.091,1558.531Z" fill="#b388eb"/>
      <path id="Path_579" data-name="Path 579" d="M-32.131,1578.248c1.5-4.568,11.352,1.089,13.881,2.2a.7.7,0,0,1,.465.669.9.9,0,0,1-.914,1.435,11.918,11.918,0,0,0-3.2-.067,39.776,39.776,0,0,1-5.5-.256C-29.227,1581.989-33.016,1580.945-32.131,1578.248Z" fill="#b388eb"/>
    </g>
  </g>
</svg>
