<svg xmlns="http://www.w3.org/2000/svg" width="324.669" height="242.056" viewBox="0 0 324.669 242.056">
  <g id="Group_573" data-name="Group 573" transform="translate(-2560.829 -2714.106)">
    <g id="Group_553" data-name="Group 553">
      <g id="Group_544" data-name="Group 544">
        <g id="Group_538" data-name="Group 538">
          <rect id="Rectangle_329" data-name="Rectangle 329" width="11.578" height="41.642" rx="5.789" transform="translate(2800.479 2821.378) rotate(9.391)" fill="#ff8f8e"/>
          <path id="Path_1097" data-name="Path 1097" d="M2801.688,2853.285a4.573,4.573,0,0,1,2.685.64,4.642,4.642,0,0,1,2.013,2.691q-.159,1.073-.317,2.145Q2803.879,2856.024,2801.688,2853.285Z" fill="#ae324a"/>
          <rect id="Rectangle_330" data-name="Rectangle 330" width="11.578" height="47.933" rx="5.789" transform="translate(2810.801 2900.12) rotate(173.508)" fill="#ff8f8e"/>
        </g>
        <g id="Group_543" data-name="Group 543">
          <g id="Group_542" data-name="Group 542">
            <g id="Group_539" data-name="Group 539">
              <path id="Path_1098" data-name="Path 1098" d="M2806.891,2917.186s4.344.238,5.981.431a5.307,5.307,0,0,0,2.031.032,2.686,2.686,0,0,0-2.283-2.128c-2-.308-5.385-1.209-5.385-1.209l-3.535-4.133S2803.943,2916.13,2806.891,2917.186Z" fill="#ae324a"/>
            </g>
            <g id="Group_540" data-name="Group 540">
              <path id="Path_1099" data-name="Path 1099" d="M2806.062,2914.141s4.482-.36,6.184-.39a5.506,5.506,0,0,0,2.084-.249,2.776,2.776,0,0,0-2.633-1.862c-2.087-.038-5.682-.491-5.682-.491l-4.194-3.74S2802.9,2913.468,2806.062,2914.141Z" fill="#ae324a"/>
            </g>
            <path id="Path_1100" data-name="Path 1100" d="M2803.24,2916.781s3.1,2.557,4.72,3.067,6.528,1.657,6.528,1.657.881-.779-.883-2.014a47.074,47.074,0,0,0-6.427-3.1l-3-4.455Z" fill="#ff8f8e"/>
            <g id="Group_541" data-name="Group 541">
              <path id="Path_1101" data-name="Path 1101" d="M2801.713,2882.913c-1.364,2.73-2.581,4.811-2.775,6.988-.294,3.284-.493,8.925-.672,13.339a16.823,16.823,0,0,0,.77,5.318c.874,2.7,1.435,5.3,2.931,9.932a44.9,44.9,0,0,0,4.473,8.71,3.083,3.083,0,0,0,.788-3.992c-1.179-2.634-3.287-12.949-2.583-16.263.117-.55,1.685-1.784,1.685-1.784s3.954,3.611,5.559,5.056c3.329,3,4.751,1.722,5.3,1.254,1.289-1.1-1.766-2.623-2.745-3.812-1.544-1.876-2.958-4.367-3.407-10.749-.162-2.3-2.715-5.824-2.758-8.016a19.961,19.961,0,0,1,.886-3.31Z" fill="#ff8f8e"/>
            </g>
          </g>
        </g>
        <rect id="Rectangle_331" data-name="Rectangle 331" width="23.795" height="35.693" rx="4.389" transform="translate(2815.714 2845.041) rotate(-161.672)" fill="#b388eb"/>
      </g>
      <g id="Group_546" data-name="Group 546">
        <rect id="Rectangle_332" data-name="Rectangle 332" width="8.448" height="34.975" rx="3.332" transform="matrix(-0.988, -0.153, 0.153, -0.988, 2764.451, 2946.706)" fill="#ff8f8e"/>
        <path id="Path_1102" data-name="Path 1102" d="M2764.119,2955.372l-25.728-4a7.1,7.1,0,0,1,.653-2.631c1.5-3.162,4.935-3.915,9.848-6.228a57.909,57.909,0,0,0,7.382-4.172l10.243,1.591Z" fill="#b388eb"/>
        <path id="Path_1103" data-name="Path 1103" d="M2738.609,2949.961l25.73,4-.22,1.415-25.729-4a7.2,7.2,0,0,1,.083-.761C2738.511,2950.378,2738.558,2950.16,2738.609,2949.961Z" fill="#fff"/>
        <circle id="Ellipse_62" data-name="Ellipse 62" cx="2.507" cy="2.507" r="2.507" transform="translate(2758.166 2946.149)" fill="#fff"/>
        <g id="Group_545" data-name="Group 545">
          <path id="Path_1104" data-name="Path 1104" d="M2760.345,2950.768a2.137,2.137,0,1,1,2.441-1.784A2.14,2.14,0,0,1,2760.345,2950.768Zm.612-3.938a1.848,1.848,0,1,0,1.543,2.11A1.849,1.849,0,0,0,2760.957,2946.83Z" fill="#b388eb"/>
        </g>
        <path id="Path_1105" data-name="Path 1105" d="M2752.43,2940.692l2.789,3.815,1.155-.844-2.7-3.69C2753.249,2940.226,2752.832,2940.467,2752.43,2940.692Z" fill="#fff"/>
        <path id="Path_1106" data-name="Path 1106" d="M2752.7,2946.348l1.155-.845-2.925-4c-.453.236-.889.458-1.293.655Z" fill="#fff"/>
        <path id="Path_1107" data-name="Path 1107" d="M2746.834,2943.441l3.429,4.69,1.155-.845-3.245-4.439C2747.712,2943.057,2747.267,2943.254,2746.834,2943.441Z" fill="#fff"/>
      </g>
      <g id="Group_547" data-name="Group 547">
        <rect id="Rectangle_333" data-name="Rectangle 333" width="12.591" height="20.281" transform="translate(2821.804 2775.26)" fill="#ff8f8e"/>
        <path id="Path_1108" data-name="Path 1108" d="M2832.808,2781.484c1.572,4.053-2.867,9.153-6.908,9.434a6.278,6.278,0,0,1-4.1-1.32,6.673,6.673,0,0,1-2.276-5.281,7.2,7.2,0,0,1,6.187-6.615C2828.67,2777.338,2831.821,2778.939,2832.808,2781.484Z" fill="#ae324a"/>
        <path id="Path_1109" data-name="Path 1109" d="M2834.476,2772.147v-5.689a6.23,6.23,0,0,0-6.212-6.211h-7.594a6.23,6.23,0,0,0-6.212,6.211v9.738c.547,8.339,5.675,14.062,10.009,14.077,5.188.018,9.961-8.1,9.99-14.119Z" fill="#ff8f8e"/>
        <path id="Path_1110" data-name="Path 1110" d="M2820.558,2770.792a25.347,25.347,0,0,1-3.79-2.148c-1.005-.669-1.814-1.291-2.4-1.769a8.28,8.28,0,0,1,1.558-4.718c1.466-1.971,3.438-2.6,5.349-3.2,1.8-.568,5.333-1.688,8.508.085a7.7,7.7,0,0,1,2.022,1.642,3.3,3.3,0,0,1,1.834-.112,3.974,3.974,0,0,1,2.294,1.923c1.586,2.515,1.9,7.4.589,13.057a36.289,36.289,0,0,1-2.063,6.234,6.034,6.034,0,0,1-1.659-3.013,7.684,7.684,0,0,1,.028-1.389,8.018,8.018,0,0,1,.17-.976c.424-1.759,1.286-2.273,1.295-3.554,0-.131-.007-1.507-.845-1.893a1.586,1.586,0,0,0-1.474.211,1.889,1.889,0,0,0-.632.8,2.566,2.566,0,0,0-.253,1.179,43.255,43.255,0,0,1-5.265-.8A24.175,24.175,0,0,1,2820.558,2770.792Z" fill="#b388eb"/>
        <path id="Path_1111" data-name="Path 1111" d="M2833.573,2773.5c-.039.006.013-.653-.382-.9a.589.589,0,0,0-.446-.061.69.69,0,0,0-.405.464,1.068,1.068,0,0,0,.033.731c.108.3.233.283.345.576a1.058,1.058,0,0,1,.007.909.682.682,0,0,1-.672.349.428.428,0,0,1-.329-.3c-.016-.1.052-.139.148-.385a.773.773,0,0,0,.1-.409c-.041-.2-.234-.188-.312-.422a.644.644,0,0,1,.027-.431c.057-.135.11-.123.17-.241.118-.233-.043-.363.036-.651a.779.779,0,0,1,.746-.562,1.117,1.117,0,0,1,.8.4A.958.958,0,0,1,2833.573,2773.5Z" fill="#ae324a"/>
        <rect id="Rectangle_334" data-name="Rectangle 334" width="2.68" height="2.024" rx="0.998" transform="translate(2813.118 2774.248)" fill="#ff8f8e"/>
      </g>
      <g id="Group_549" data-name="Group 549">
        <rect id="Rectangle_335" data-name="Rectangle 335" width="8.448" height="34.975" rx="3.332" transform="translate(2786.367 2947.547) rotate(-180)" fill="#ff8f8e"/>
        <path id="Path_1112" data-name="Path 1112" d="M2787.37,2956.162h-26.036a7.085,7.085,0,0,1,.241-2.7c.991-3.354,4.275-4.626,8.775-7.666a57.806,57.806,0,0,0,6.654-5.256h10.366Z" fill="#b388eb"/>
        <path id="Path_1113" data-name="Path 1113" d="M2761.332,2954.731h26.038v1.431h-26.038a7.19,7.19,0,0,1-.035-.765C2761.3,2955.158,2761.312,2954.935,2761.332,2954.731Z" fill="#fff"/>
        <circle id="Ellipse_63" data-name="Ellipse 63" cx="2.507" cy="2.507" r="2.507" transform="translate(2780.427 2947.547)" fill="#fff"/>
        <g id="Group_548" data-name="Group 548">
          <path id="Path_1114" data-name="Path 1114" d="M2782.934,2952.192a2.137,2.137,0,1,1,2.138-2.137A2.141,2.141,0,0,1,2782.934,2952.192Zm0-3.986a1.849,1.849,0,1,0,1.848,1.849A1.851,1.851,0,0,0,2782.934,2948.206Z" fill="#b388eb"/>
        </g>
        <path id="Path_1115" data-name="Path 1115" d="M2773.566,2943.451l3.342,3.341,1.012-1.012-3.233-3.232Q2774.111,2943.022,2773.566,2943.451Z" fill="#fff"/>
        <path id="Path_1116" data-name="Path 1116" d="M2774.7,2949l1.012-1.012-3.505-3.505c-.411.3-.808.59-1.177.847Z" fill="#fff"/>
        <path id="Path_1117" data-name="Path 1117" d="M2768.459,2947.026l4.107,4.108,1.012-1.012-3.888-3.889C2769.267,2946.511,2768.857,2946.774,2768.459,2947.026Z" fill="#fff"/>
      </g>
      <path id="Path_1118" data-name="Path 1118" d="M2802.7,2871.048c-12.562-9.616-25.4-13.163-32.829-8.21-3.491,2.327-4.9,5.936-7.324,12.144-2.824,7.233-4.068,14.286-4.772,29.442-.326,7.016-.551,16.089-.3,26.736l11.573,1.448c6.538-31.08,16.4-40.318,24.7-42.548,13.187-3.545,25.662,9.738,38.961,3.5,7.448-3.5,11.206-11.264,13.2-17.1Z" fill="#20221d"/>
      <g id="Group_550" data-name="Group 550">
        <rect id="Rectangle_336" data-name="Rectangle 336" width="23.327" height="17.495" rx="4.417" transform="translate(2816.332 2795.541)" fill="#ff8f8e"/>
        <path id="Path_1119" data-name="Path 1119" d="M2820.734,2795.541a17.9,17.9,0,0,0-15.873,9.612c-1.126,2.156-4.441,5.915-6.024,13.715-4.027,19.84,3.971,46.513,5.832,52.484h52.485c3.491-7.492,10.892-26.067,5.831-46.653-1.477-6.01-5.508-13.043-11.534-21.553a17.95,17.95,0,0,0-14.647-7.6,8.435,8.435,0,0,1-16.07,0Z" fill="#b388eb"/>
      </g>
      <path id="Path_1120" data-name="Path 1120" d="M2803.226,2866.4c-2.9-1.3-12.98-5.4-20.771-.744-7.649,4.566-8.731,14.957-9.819,25.405-.692,6.641-.116,12.805,1.063,24.862.84,8.576,1.788,15.682,2.518,20.687h11.663a79.606,79.606,0,0,1,5.369-28.013,77.887,77.887,0,0,1,5.238-10.868c27.89,6.508,49.819.337,54.167-7a36.56,36.56,0,0,0,4.5-13.549,31.243,31.243,0,0,0,0-5.832Z" fill="#444"/>
      <g id="Group_552" data-name="Group 552">
        <g id="Group_551" data-name="Group 551">
          <rect id="Rectangle_337" data-name="Rectangle 337" width="11.35" height="40.822" rx="4.477" transform="translate(2885.498 2845.207) rotate(134.482)" fill="#ff8f8e"/>
          <rect id="Rectangle_338" data-name="Rectangle 338" width="11.35" height="46.989" rx="4.477" transform="matrix(0.207, 0.978, -0.978, 0.207, 2881.83, 2838.607)" fill="#ff8f8e"/>
          <path id="Path_1121" data-name="Path 1121" d="M2865.986,2841.952l7.338-1.549a14.642,14.642,0,0,0-8.527.382Z" fill="#ae324a"/>
        </g>
        <rect id="Rectangle_339" data-name="Rectangle 339" width="23.327" height="34.99" rx="4.389" transform="translate(2830.923 2816.138) rotate(-45.518)" fill="#b388eb"/>
        <path id="Path_1122" data-name="Path 1122" d="M2858.824,2855.015s-11.356,2.141-13.521,2.345-5.231,2.688-7.725,3.019a42.015,42.015,0,0,1-8.343.006c-1.062-.03-2.007-.215-2.245-.954a1.627,1.627,0,0,1,.189-1.632s-1.663.148-1.944-.767a2.287,2.287,0,0,1,.549-2.092,1.945,1.945,0,0,1-1.609-1.292c-.225-.788.708-1.963.708-1.963a1.606,1.606,0,0,1-.741-1.627c.07-.679,1.132-.987,2.243-1.408.686-.26,5.071-1.3,5.744-1.608a2.951,2.951,0,0,0,.849-3.488c-1.224-2.634-1.54-4.342-.548-6.033.758-1.29,1.595-.971,1.595-.971s.185,2.81.761,3.64a20.775,20.775,0,0,1,1.858,3.494,6.788,6.788,0,0,0,3.179,2.715c.671.234,1.531.558,2.439.814a7.4,7.4,0,0,0,3.438.314c3.119-.7,11.808-3,11.808-3l.249,1.986h0Z" fill="#ff8f8e"/>
      </g>
    </g>
    <g id="Group_554" data-name="Group 554">
      <path id="Path_1123" data-name="Path 1123" d="M2634.248,2923.465c-4.283-.258-4.355,7.349-4.319,9.849.1,6.7,1.174,13.391,1.628,20.076-.05.416-.1.833-.15,1.248a.809.809,0,0,0,1,.9.759.759,0,0,0,1.019-.774c-.022-.417-.053-.833-.079-1.249.9-7.117,1.953-14.262,2.62-21.429C2636.136,2930.225,2637.444,2923.657,2634.248,2923.465Z" fill="#b388eb"/>
      <path id="Path_1124" data-name="Path 1124" d="M2653.857,2940.806c-2.986-2.925-8.194-.465-10.713,1.68-3.528,3.008-5.847,7.722-7.228,12.069a.828.828,0,0,0,0,.535c-.172.888,1.14,1.549,1.632.628,2.471-4.629,8.149-6.644,12.531-9.038C2651.825,2945.725,2656.32,2943.22,2653.857,2940.806Z" fill="#b388eb"/>
      <path id="Path_1125" data-name="Path 1125" d="M2644.107,2931.869c-4.849-4.018-6.758,9.657-6.8,11.994a.891.891,0,0,0,1.765.144,1.085,1.085,0,0,0,.131-.169C2640.652,2941.493,2647.54,2934.714,2644.107,2931.869Z" fill="#b388eb"/>
      <path id="Path_1126" data-name="Path 1126" d="M2656.147,2951.585c-1.5-4.567-11.352,1.09-13.881,2.2a.7.7,0,0,0-.466.669.9.9,0,0,0,.915,1.435,11.967,11.967,0,0,1,3.2-.068,39.631,39.631,0,0,0,5.5-.255C2653.242,2955.327,2657.032,2954.283,2656.147,2951.585Z" fill="#b388eb"/>
      <path id="Path_1127" data-name="Path 1127" d="M2614.515,2946.68c4.384,2.394,10.061,4.409,12.532,9.038.493.921,1.8.26,1.632-.628a.823.823,0,0,0,0-.535c-1.381-4.347-3.7-9.061-7.227-12.069-2.519-2.145-7.728-4.6-10.715-1.68C2608.272,2943.22,2612.767,2945.725,2614.515,2946.68Z" fill="#b388eb"/>
      <path id="Path_1128" data-name="Path 1128" d="M2620.486,2931.869c4.849-4.018,6.757,9.657,6.8,11.994a.892.892,0,0,1-1.766.144.983.983,0,0,1-.132-.169C2623.94,2941.493,2617.052,2934.714,2620.486,2931.869Z" fill="#b388eb"/>
      <path id="Path_1129" data-name="Path 1129" d="M2608.445,2951.585c1.5-4.567,11.353,1.09,13.882,2.2a.7.7,0,0,1,.465.669.9.9,0,0,1-.914,1.435,11.97,11.97,0,0,0-3.2-.068,39.65,39.65,0,0,1-5.5-.255C2611.35,2955.327,2607.56,2954.283,2608.445,2951.585Z" fill="#b388eb"/>
    </g>
    <g id="Group_555" data-name="Group 555">
      <path id="Path_1130" data-name="Path 1130" d="M2848.6,2911.013c-5.914-.355-6.014,10.148-5.964,13.6.133,9.25,1.621,18.49,2.248,27.721-.069.574-.137,1.15-.208,1.723a1.116,1.116,0,0,0,1.376,1.236,1.047,1.047,0,0,0,1.407-1.068c-.031-.575-.074-1.15-.11-1.725,1.241-9.827,2.7-19.693,3.619-29.589C2851.206,2920.349,2853.011,2911.279,2848.6,2911.013Z" fill="#b388eb"/>
      <path id="Path_1131" data-name="Path 1131" d="M2875.675,2934.959c-4.124-4.039-11.315-.643-14.793,2.32-4.871,4.152-8.074,10.662-9.98,16.665a1.148,1.148,0,0,0-.005.738c-.236,1.226,1.574,2.138,2.253.867,3.413-6.392,11.253-9.174,17.3-12.48C2872.869,2941.75,2879.075,2938.292,2875.675,2934.959Z" fill="#b388eb"/>
      <path id="Path_1132" data-name="Path 1132" d="M2862.212,2922.618c-6.7-5.548-9.332,13.335-9.385,16.562a1.231,1.231,0,0,0,2.437.2,1.323,1.323,0,0,0,.182-.234C2857.441,2935.907,2866.952,2926.547,2862.212,2922.618Z" fill="#b388eb"/>
      <path id="Path_1133" data-name="Path 1133" d="M2878.836,2949.843c-2.068-6.307-15.674,1.5-19.166,3.038a.97.97,0,0,0-.644.923,1.243,1.243,0,0,0,1.263,1.983,16.47,16.47,0,0,1,4.418-.094,54.6,54.6,0,0,0,7.593-.353C2874.825,2955.009,2880.058,2953.568,2878.836,2949.843Z" fill="#b388eb"/>
      <path id="Path_1134" data-name="Path 1134" d="M2821.352,2943.069c6.053,3.306,13.891,6.088,17.3,12.48.68,1.271,2.489.359,2.253-.867a1.128,1.128,0,0,0,0-.738c-1.906-6-5.106-12.513-9.979-16.665-3.478-2.963-10.671-6.359-14.794-2.32C2812.731,2938.292,2818.938,2941.75,2821.352,2943.069Z" fill="#b388eb"/>
      <path id="Path_1135" data-name="Path 1135" d="M2829.6,2922.618c6.7-5.548,9.33,13.335,9.384,16.562a1.231,1.231,0,0,1-2.437.2,1.292,1.292,0,0,1-.183-.234C2834.365,2935.907,2824.854,2926.547,2829.6,2922.618Z" fill="#b388eb"/>
      <path id="Path_1136" data-name="Path 1136" d="M2812.97,2949.843c2.068-6.307,15.676,1.5,19.168,3.038a.964.964,0,0,1,.641.923,1.243,1.243,0,0,1-1.262,1.983,16.458,16.458,0,0,0-4.416-.094,54.6,54.6,0,0,1-7.594-.353C2816.98,2955.009,2811.748,2953.568,2812.97,2949.843Z" fill="#b388eb"/>
    </g>
    <g id="Group_557" data-name="Group 557">
      <rect id="Rectangle_340" data-name="Rectangle 340" width="76.687" height="5.942" transform="translate(2792.866 2901.381)" fill="#b388eb"/>
      <g id="Group_556" data-name="Group 556">
        <path id="Path_1137" data-name="Path 1137" d="M2858.286,2902.927l14.3,51.04c.285,1.017-.794,1.987-2.41,2.166h0c-1.616.18-3.157-.5-3.442-1.517l-14.3-51.04c-.285-1.017.794-1.987,2.41-2.166h0C2856.46,2901.23,2858,2901.91,2858.286,2902.927Z" fill="#b388eb"/>
        <path id="Path_1138" data-name="Path 1138" d="M2804.134,2902.927l-14.3,51.04c-.285,1.017.794,1.987,2.41,2.166h0c1.616.18,3.157-.5,3.442-1.517l14.3-51.04c.285-1.017-.794-1.987-2.41-2.166h0C2805.96,2901.23,2804.419,2901.91,2804.134,2902.927Z" fill="#b388eb"/>
      </g>
    </g>
    <rect id="Rectangle_341" data-name="Rectangle 341" width="46.348" height="39.925" rx="5.046" transform="translate(2688.31 2823.57)" fill="#b3b3b3"/>
    <g id="Group_568" data-name="Group 568">
      <g id="Group_559" data-name="Group 559">
        <rect id="Rectangle_342" data-name="Rectangle 342" width="11.762" height="42.306" rx="5.881" transform="matrix(0.676, -0.737, 0.737, 0.676, 2634.25, 2822.426)" fill="#ff8f8e"/>
        <path id="Path_1139" data-name="Path 1139" d="M2667.382,2836.859l-7.366,4.739a5.047,5.047,0,0,1,.362-2.843A6.01,6.01,0,0,1,2666,2835.6Z" fill="#ae324a"/>
        <rect id="Rectangle_343" data-name="Rectangle 343" width="11.762" height="48.698" rx="5.881" transform="translate(2708.402 2836.859) rotate(90)" fill="#ff8f8e"/>
        <rect id="Rectangle_344" data-name="Rectangle 344" width="24.175" height="36.262" rx="4.389" transform="matrix(-0.676, 0.737, -0.737, -0.676, 2659.114, 2820.626)" fill="#b388eb"/>
        <g id="Group_558" data-name="Group 558">
          <path id="Path_1140" data-name="Path 1140" d="M2707.381,2836.559a52.059,52.059,0,0,0,6.326.045c1.277-.348,6.907-1.5,12.54-2.444,2.138-.358,3.336,1.545.747,2.521-2.132.8-7.843,1.781-10.278,2.632-1.352.473-.888,1.024-.649,1.068a78.73,78.73,0,0,0,11.21.885c3.145-.074,3.461,2.548.324,2.913-.779.091-3.868-.116-6.421-.138-2.1-.019-3.513-.137-4.517-.025-1.774.2-2.551.55-.9,1.444,2.5,1.351,8.741,3.113,9.485,3.471,3.664,1.766,2.065,3.206-.5,2.718-1.248-.237-7.119-2.318-10.506-3.364-.533-.165-1.1.165-.258.791l-2.31-.2-6.772-1.332Z" fill="#ff8f8e"/>
          <path id="Path_1141" data-name="Path 1141" d="M2715.228,2829.656c-.6,2.092-4.851,4.721-5.575,5.5-.739.792-.5,1.473.674,1.525,2.134.093-.922,2.649-1.193,4.184a.542.542,0,0,0,.025.3c-.076.318-.164.652-.264.973a5.01,5.01,0,0,1-1.721,2.453s2,1.17,5.377,3.479c1.032.706,3.329,2.369,4.3,3.058a30.21,30.21,0,0,1,4.263,3.394c.877,1.1.028,2.6-1.868,1.448-2.588-1.567-6.43-4.159-8.413-5-1.557-.661-4.836-1.112-6.745-1.8a35.467,35.467,0,0,0-5.189-1.545c-1.068-.154-5.371-.283-5.371-.283l.358-6.793.029-.557.018-.337.109-2.065a38.171,38.171,0,0,0,5.109-.124,5.139,5.139,0,0,0,2.8-1.272c.439-.51.939-1.154,1.537-1.961a5.541,5.541,0,0,1,3.514-2.489,12.1,12.1,0,0,0,7.237-5.2C2714.732,2826.629,2715.988,2827.011,2715.228,2829.656Z" fill="#ff8f8e"/>
          <path id="Path_1142" data-name="Path 1142" d="M2699.942,2847.484a3,3,0,0,1-.925-1.848c-.025-1.024-.075-1.571-.075-1.571a2.585,2.585,0,0,0-.242,2.1A2.294,2.294,0,0,0,2699.942,2847.484Z" fill="#ae324a"/>
          <path id="Path_1143" data-name="Path 1143" d="M2709.308,2848.828s.948-2.729,1.772-4.929a19.4,19.4,0,0,1,2.628-4.45,6.817,6.817,0,0,0-2.128,2.5,19.271,19.271,0,0,0-1.99,4.365A5.171,5.171,0,0,0,2709.308,2848.828Z" fill="#ae324a"/>
          <path id="Path_1144" data-name="Path 1144" d="M2711.745,2838.818a32.179,32.179,0,0,1-2.339,4.273,12.737,12.737,0,0,1-3.885,3.291,36.679,36.679,0,0,0,3.5-3.653C2709.905,2841.482,2711.745,2838.818,2711.745,2838.818Z" fill="#ae324a"/>
        </g>
      </g>
      <g id="Group_561" data-name="Group 561">
        <rect id="Rectangle_345" data-name="Rectangle 345" width="8.448" height="34.975" rx="3.332" transform="translate(2659.96 2912.572)" fill="#ff8f8e"/>
        <path id="Path_1145" data-name="Path 1145" d="M2658.957,2956.162h26.037a7.1,7.1,0,0,0-.242-2.7c-.991-3.354-4.275-4.626-8.775-7.666a57.83,57.83,0,0,1-6.653-5.256h-10.367Z" fill="#b388eb"/>
        <path id="Path_1146" data-name="Path 1146" d="M2685,2954.731h-26.038v1.431H2685a7.255,7.255,0,0,0,.035-.765C2685.028,2955.158,2685.015,2954.935,2685,2954.731Z" fill="#fff"/>
        <circle id="Ellipse_64" data-name="Ellipse 64" cx="2.507" cy="2.507" r="2.507" transform="translate(2660.886 2947.547)" fill="#fff"/>
        <g id="Group_560" data-name="Group 560">
          <path id="Path_1147" data-name="Path 1147" d="M2663.393,2952.192a2.137,2.137,0,1,0-2.138-2.137A2.14,2.14,0,0,0,2663.393,2952.192Zm0-3.986a1.849,1.849,0,1,1-1.848,1.849A1.851,1.851,0,0,1,2663.393,2948.206Z" fill="#b388eb"/>
        </g>
        <path id="Path_1148" data-name="Path 1148" d="M2672.761,2943.451l-3.341,3.341-1.012-1.012,3.232-3.232Q2672.216,2943.022,2672.761,2943.451Z" fill="#fff"/>
        <path id="Path_1149" data-name="Path 1149" d="M2671.624,2949l-1.012-1.012,3.5-3.505c.412.3.809.59,1.178.847Z" fill="#fff"/>
        <path id="Path_1150" data-name="Path 1150" d="M2677.868,2947.026l-4.107,4.108-1.012-1.012,3.888-3.889C2677.06,2946.511,2677.47,2946.774,2677.868,2947.026Z" fill="#fff"/>
      </g>
      <path id="Path_1151" data-name="Path 1151" d="M2632.718,2871.352c13.658-7.981,26.835-9.908,33.594-4.07,3.175,2.742,4.125,6.5,5.759,12.959,1.905,7.528,2.263,14.681,1.08,29.807-.547,7-1.45,16.033-3.023,26.566h-11.664c-2.629-31.651-11.265-42.042-19.223-45.285-12.645-5.155-26.673,6.476-39.093-1.368-6.957-4.394-9.722-12.569-10.975-18.609Z" fill="#20221d"/>
      <g id="Group_563" data-name="Group 563">
        <rect id="Rectangle_346" data-name="Rectangle 346" width="8.448" height="34.975" rx="3.332" transform="matrix(0.203, 0.979, -0.979, 0.203, 2604.198, 2921.827)" fill="#ff8f8e"/>
        <path id="Path_1152" data-name="Path 1152" d="M2561.31,2929.683l5.279,25.495a7.091,7.091,0,0,0,2.595-.783c3.083-1.651,3.663-5.124,5.728-10.147a57.7,57.7,0,0,1,3.8-7.581l-2.1-10.151Z" fill="#b388eb"/>
        <path id="Path_1153" data-name="Path 1153" d="M2567.991,2954.89l-5.279-25.5-1.4.291,5.279,25.5a7.4,7.4,0,0,0,.756-.121C2567.579,2955.009,2567.795,2954.951,2567.991,2954.89Z" fill="#fff"/>
        <circle id="Ellipse_65" data-name="Ellipse 65" cx="2.507" cy="2.507" r="2.507" transform="translate(2565.683 2930.281)" fill="#fff"/>
        <g id="Group_562" data-name="Group 562">
          <path id="Path_1154" data-name="Path 1154" d="M2566.1,2933.221a2.137,2.137,0,1,0,1.66-2.526A2.14,2.14,0,0,0,2566.1,2933.221Zm3.9-.808a1.848,1.848,0,1,1-2.184-1.435A1.849,1.849,0,0,1,2570,2932.413Z" fill="#b388eb"/>
        </g>
        <path id="Path_1155" data-name="Path 1155" d="M2576.556,2940.623l-3.95-2.595.786-1.2,3.821,2.51Q2576.865,2940,2576.556,2940.623Z" fill="#fff"/>
        <path id="Path_1156" data-name="Path 1156" d="M2570.894,2940.634l.786-1.2,4.143,2.721c-.214.465-.413.912-.59,1.325Z" fill="#fff"/>
        <path id="Path_1157" data-name="Path 1157" d="M2574.09,2946.349l-4.855-3.19.786-1.2,4.6,3.019Q2574.338,2945.688,2574.09,2946.349Z" fill="#fff"/>
      </g>
      <g id="Group_564" data-name="Group 564">
        <rect id="Rectangle_347" data-name="Rectangle 347" width="12.317" height="19.84" transform="translate(2623.799 2795.541) rotate(180)" fill="#ff8f8e"/>
        <path id="Path_1158" data-name="Path 1158" d="M2613.034,2781.79c-1.537,3.964,2.805,8.954,6.758,9.229a6.145,6.145,0,0,0,4.007-1.292,6.523,6.523,0,0,0,2.227-5.165,7.047,7.047,0,0,0-6.053-6.472C2617.083,2777.734,2614,2779.3,2613.034,2781.79Z" fill="#ae324a"/>
        <path id="Path_1159" data-name="Path 1159" d="M2611.4,2772.656v-5.565a6.094,6.094,0,0,1,6.076-6.077h7.43a6.1,6.1,0,0,1,6.076,6.077v9.526c-.535,8.158-5.551,13.756-9.791,13.771-5.075.017-9.744-7.924-9.772-13.812Z" fill="#ff8f8e"/>
        <path id="Path_1160" data-name="Path 1160" d="M2616.863,2768.843c.962-1.4,3.5-2.1,5.612-1.751,1.775.3,1.731,1.013,3.482,1.342a7.092,7.092,0,0,0,5.94-1.565,6.5,6.5,0,0,0,1.845-4.02c.328-2.883-1.1-6.328-3.181-7.044-1.907-.657-2.624,1.122-6.225,1.212-2.445.062-2.675-.745-5.9-.837a12.842,12.842,0,0,0-5.137.623,14.29,14.29,0,0,0-4.923,4c-7.27,9.458.022,27.091,3.109,26.966,1.286-.051,2.918-3.226,2.542-5.543-.128-.784-.543-1.829-1.345-4.9-.1-.378-.092-.4-.15-.573-.433-1.324-1.183-2.1-.946-3.4a2,2,0,0,1,.928-1.507,1.662,1.662,0,0,1,1.569.142,2.487,2.487,0,0,1,.91,1.82c.152.938-.079,1.561.054,1.6.164.054.7-.852,1.088-1.944C2617.051,2770.843,2616.071,2769.991,2616.863,2768.843Z" fill="#b388eb"/>
        <path id="Path_1161" data-name="Path 1161" d="M2612.286,2773.983c.038.005-.013-.639.374-.877a.576.576,0,0,1,.436-.06.678.678,0,0,1,.4.454,1.048,1.048,0,0,1-.033.715c-.106.3-.228.277-.338.564a1.03,1.03,0,0,0-.006.889.668.668,0,0,0,.657.341.419.419,0,0,0,.322-.29c.015-.1-.05-.135-.145-.376a.765.765,0,0,1-.1-.4c.041-.2.229-.184.306-.413a.634.634,0,0,0-.027-.422c-.056-.132-.107-.12-.166-.236-.115-.227.042-.355-.035-.636a.763.763,0,0,0-.73-.55,1.093,1.093,0,0,0-.778.391A.938.938,0,0,0,2612.286,2773.983Z" fill="#ae324a"/>
        <rect id="Rectangle_348" data-name="Rectangle 348" width="2.622" height="1.98" rx="0.781" transform="translate(2632.296 2776.691) rotate(180)" fill="#ff8f8e"/>
      </g>
      <g id="Group_565" data-name="Group 565">
        <rect id="Rectangle_349" data-name="Rectangle 349" width="23.327" height="17.495" rx="4.417" transform="translate(2629.995 2813.036) rotate(180)" fill="#ff8f8e"/>
        <path id="Path_1162" data-name="Path 1162" d="M2625.593,2795.541a17.9,17.9,0,0,1,15.873,9.612c1.126,2.156,4.441,5.915,6.024,13.715,4.028,19.84-3.971,46.513-5.832,52.484h-52.485c-3.49-7.492-10.892-26.067-5.831-46.653,1.477-6.01,5.509-13.043,11.534-21.553a17.952,17.952,0,0,1,14.648-7.6,8.435,8.435,0,0,0,16.069,0Z" fill="#b388eb"/>
      </g>
      <path id="Path_1163" data-name="Path 1163" d="M2641.676,2871.352a47.859,47.859,0,0,1,18.516,20.769c2.163,4.813,5.313,11.821,3.24,19.007-.66,2.286-3.584,10.609-24.9,18.541-10.8,4.02-29.781,9.225-55.88,6.945v-11.663l46.653-17.495c-3.44-.877-37.155-9.873-40.115-30.272a20.613,20.613,0,0,1,0-5.832Z" fill="#444"/>
      <g id="Group_567" data-name="Group 567">
        <g id="Group_566" data-name="Group 566">
          <rect id="Rectangle_350" data-name="Rectangle 350" width="11.35" height="40.822" rx="4.477" transform="translate(2589.954 2816.604) rotate(45.518)" fill="#ff8f8e"/>
          <rect id="Rectangle_351" data-name="Rectangle 351" width="11.35" height="46.989" rx="4.477" transform="matrix(-0.207, 0.978, -0.978, -0.207, 2610.473, 2848.314)" fill="#ff8f8e"/>
          <path id="Path_1164" data-name="Path 1164" d="M2580.341,2841.952,2573,2840.4a14.643,14.643,0,0,1,8.527.382Z" fill="#ae324a"/>
        </g>
        <rect id="Rectangle_352" data-name="Rectangle 352" width="23.327" height="34.99" rx="4.389" transform="translate(2590.439 2840.655) rotate(-134.482)" fill="#b388eb"/>
        <path id="Path_1165" data-name="Path 1165" d="M2587.5,2855.015s11.357,2.141,13.521,2.345,5.231,2.688,7.725,3.019a42.018,42.018,0,0,0,8.343.006c1.062-.03,2.007-.215,2.245-.954a1.623,1.623,0,0,0-.189-1.632s1.663.148,1.944-.767a2.287,2.287,0,0,0-.549-2.092,1.946,1.946,0,0,0,1.609-1.292c.225-.788-.708-1.963-.708-1.963a1.607,1.607,0,0,0,.741-1.627c-.07-.679-1.132-.987-2.243-1.408-.685-.26-5.071-1.3-5.744-1.608a2.95,2.95,0,0,1-.849-3.488c1.224-2.634,1.54-4.342.548-6.033-.758-1.29-1.595-.971-1.595-.971s-.185,2.81-.761,3.64a20.774,20.774,0,0,0-1.858,3.494,6.779,6.779,0,0,1-3.179,2.715c-.671.234-1.531.558-2.439.814a7.4,7.4,0,0,1-3.438.314c-3.119-.7-11.808-3-11.808-3l-.249,1.986h0Z" fill="#ff8f8e"/>
      </g>
    </g>
    <rect id="Rectangle_353" data-name="Rectangle 353" width="46.348" height="106.782" rx="5.046" transform="translate(2693.524 2823.57)" fill="#e6e6e6"/>
    <g id="Group_569" data-name="Group 569">
      <rect id="Rectangle_354" data-name="Rectangle 354" width="31.366" height="2.317" rx="1.158" transform="translate(2701.015 2832.954)" fill="#b3b3b3"/>
      <rect id="Rectangle_355" data-name="Rectangle 355" width="31.366" height="2.317" rx="1.158" transform="translate(2701.015 2842.132)" fill="#b3b3b3"/>
      <rect id="Rectangle_356" data-name="Rectangle 356" width="31.366" height="2.317" rx="1.158" transform="translate(2701.015 2851.311)" fill="#b3b3b3"/>
      <rect id="Rectangle_357" data-name="Rectangle 357" width="31.366" height="2.317" rx="1.158" transform="translate(2701.015 2860.489)" fill="#b3b3b3"/>
      <rect id="Rectangle_358" data-name="Rectangle 358" width="31.366" height="2.317" rx="1.158" transform="translate(2701.015 2869.668)" fill="#b3b3b3"/>
      <rect id="Rectangle_359" data-name="Rectangle 359" width="31.366" height="2.317" rx="1.158" transform="translate(2701.015 2878.846)" fill="#b3b3b3"/>
      <rect id="Rectangle_360" data-name="Rectangle 360" width="31.366" height="2.317" rx="1.158" transform="translate(2701.015 2888.025)" fill="#b3b3b3"/>
      <rect id="Rectangle_361" data-name="Rectangle 361" width="31.366" height="2.317" rx="1.158" transform="translate(2701.015 2897.203)" fill="#b3b3b3"/>
      <rect id="Rectangle_362" data-name="Rectangle 362" width="31.366" height="2.317" rx="1.158" transform="translate(2701.015 2906.382)" fill="#b3b3b3"/>
      <rect id="Rectangle_363" data-name="Rectangle 363" width="31.366" height="2.317" rx="1.158" transform="translate(2701.015 2915.56)" fill="#b3b3b3"/>
    </g>
    <g id="Group_570" data-name="Group 570">
      <path id="Path_1166" data-name="Path 1166" d="M2758.358,2792.949a8.874,8.874,0,0,1,4.384-2.325,11.534,11.534,0,0,1,5.9.233,13.773,13.773,0,0,1,5.889,3.578,14.325,14.325,0,0,1,3.566,5.346,10.2,10.2,0,0,1,.5,5.5,8.766,8.766,0,0,1-2.383,4.548,7.6,7.6,0,0,1-3.17,2.018,11.211,11.211,0,0,1-3.34.525q-1.634,0-5.684-.191a16.927,16.927,0,0,0-1.894.017,5.43,5.43,0,0,0-1.275.228,5.216,5.216,0,0,0-.943.417q-.433.248-1.469.917a2.734,2.734,0,0,1-3.877-.226,2.989,2.989,0,0,1-.949-2.1,3.288,3.288,0,0,1,1.117-2.382,9.133,9.133,0,0,1,2.961-2.1,9.038,9.038,0,0,1,3.069-.7,39.114,39.114,0,0,1,3.936.059q2.087.12,3.077.112a7.064,7.064,0,0,0,1.935-.287,3.77,3.77,0,0,0,1.651-1,4.342,4.342,0,0,0,1.28-3.391,5.336,5.336,0,0,0-1.743-3.607,5.218,5.218,0,0,0-3.8-1.817,10.863,10.863,0,0,0-4.357,1.352q-2.543,1.4-4.207-.24a3.113,3.113,0,0,1-.977-2.32A2.965,2.965,0,0,1,2758.358,2792.949Zm-10.315,27.617a3.869,3.869,0,0,1-1.187-2.526,3.4,3.4,0,0,1,1.1-2.721,3.5,3.5,0,0,1,2.6-1.1,3.652,3.652,0,0,1,2.634,1.106,3.608,3.608,0,0,1,.047,5.177,3.429,3.429,0,0,1-2.683,1.154A3.731,3.731,0,0,1,2748.043,2820.566Z" fill="#e6e6e6"/>
    </g>
    <g id="Group_571" data-name="Group 571">
      <path id="Path_1167" data-name="Path 1167" d="M2681.1,2787.531a11.883,11.883,0,0,1-3.059-5.9,15.45,15.45,0,0,1,.384-7.9,18.435,18.435,0,0,1,4.86-7.837,19.161,19.161,0,0,1,7.2-4.709,13.652,13.652,0,0,1,7.372-.605,11.742,11.742,0,0,1,6.058,3.244,10.166,10.166,0,0,1,2.662,4.268,14.969,14.969,0,0,1,.663,4.477q-.023,2.186-.325,7.6a23.138,23.138,0,0,0,0,2.535,7.273,7.273,0,0,0,.291,1.709,6.885,6.885,0,0,0,.546,1.267q.326.583,1.21,1.977,1.977,2.862-.35,5.187a4,4,0,0,1-2.825,1.244,4.392,4.392,0,0,1-3.174-1.523,11.65,11.65,0,0,1-3.686-8.1,51.876,51.876,0,0,1,.127-5.268q.186-2.79.187-4.116a9.457,9.457,0,0,0-.361-2.594,5.052,5.052,0,0,0-1.314-2.221,5.811,5.811,0,0,0-4.524-1.755,7.146,7.146,0,0,0-4.849,2.29q-2.559,2.559-2.476,5.059a14.558,14.558,0,0,0,1.755,5.849q1.839,3.419-.371,5.628a4.174,4.174,0,0,1-3.117,1.279A3.972,3.972,0,0,1,2681.1,2787.531Zm36.838,14.14a5.171,5.171,0,0,1-3.4,1.558,4.554,4.554,0,0,1-3.629-1.511,4.689,4.689,0,0,1-1.442-3.489,4.892,4.892,0,0,1,1.512-3.512,4.831,4.831,0,0,1,6.931,0,4.593,4.593,0,0,1,1.511,3.6A5,5,0,0,1,2717.934,2801.671Z" fill="#e6e6e6"/>
    </g>
    <g id="Group_572" data-name="Group 572">
      <path id="Path_1168" data-name="Path 1168" d="M2715.649,2731.7a15.21,15.21,0,0,1,2.566-8.1,19.76,19.76,0,0,1,7.491-6.8,23.569,23.569,0,0,1,11.488-2.693,24.531,24.531,0,0,1,10.773,2.252,17.473,17.473,0,0,1,7.217,6.122,15.023,15.023,0,0,1,2.546,8.416,13.007,13.007,0,0,1-1.452,6.27,19.19,19.19,0,0,1-3.451,4.65q-2,1.958-7.175,6.586a29.266,29.266,0,0,0-2.293,2.293,9.331,9.331,0,0,0-1.284,1.81,8.913,8.913,0,0,0-.652,1.641q-.233.822-.694,2.883-.8,4.377-5.008,4.376a5.118,5.118,0,0,1-3.682-1.43,5.621,5.621,0,0,1-1.494-4.25,14.915,14.915,0,0,1,4-10.668,66.729,66.729,0,0,1,4.881-4.65q2.692-2.358,3.893-3.556a12.067,12.067,0,0,0,2.02-2.672,6.463,6.463,0,0,0,.821-3.2,7.438,7.438,0,0,0-2.5-5.68,9.14,9.14,0,0,0-6.459-2.315q-4.631,0-6.817,2.336a18.616,18.616,0,0,0-3.7,6.88q-1.43,4.755-5.427,4.755a5.332,5.332,0,0,1-3.977-1.663A5.075,5.075,0,0,1,2715.649,2731.7Zm20.535,46.121a6.62,6.62,0,0,1-4.481-1.662,5.824,5.824,0,0,1-1.915-4.65,5.992,5.992,0,0,1,1.851-4.461,6.255,6.255,0,0,1,4.545-1.809,6.179,6.179,0,0,1,6.27,6.27,5.879,5.879,0,0,1-1.893,4.629A6.392,6.392,0,0,1,2736.184,2777.817Z" fill="#e6e6e6"/>
    </g>
  </g>
</svg>
