<svg xmlns="http://www.w3.org/2000/svg" width="296.023" height="196.112" viewBox="0 0 296.023 196.112">
  <g id="Group_634" data-name="Group 634" transform="translate(-3063.829 -1232.603)">
    <g id="Group_628" data-name="Group 628" transform="translate(1569.951 -1533.907)">
      <g id="Group_506" data-name="Group 506" transform="translate(1669.403 2814.846)">
        <path id="Path_1036" data-name="Path 1036" d="M1682.378,2868.827a2.159,2.159,0,0,1-.216-.011,2.06,2.06,0,0,1-1.76-1.469l-10.821-36.892-10.733,16.4a2.059,2.059,0,1,1-3.445-2.256l13.175-20.129a2.059,2.059,0,0,1,3.7.55l10.667,36.366,16.791-31.137a2.057,2.057,0,0,1,3.46-.256l12.389,16.565,20.365-44.866a2.058,2.058,0,0,1,3.808.145l15.2,41.6,16.8-26.976a2.059,2.059,0,0,1,3.495,2.177l-19.034,30.56a2.059,2.059,0,0,1-3.681-.383l-14.921-40.836-19.723,43.452a2.057,2.057,0,0,1-3.522.381l-12.544-16.769-17.639,32.707A2.058,2.058,0,0,1,1682.378,2868.827Z" transform="translate(-1655.066 -2800.479)" fill="#e6e6e6"/>
      </g>
      <g id="Group_510" data-name="Group 510" transform="translate(1621.166 2766.51)">
        <g id="Group_507" data-name="Group 507" transform="translate(1.504)">
          <path id="Path_1037" data-name="Path 1037" d="M1622.223,2783.885A25.986,25.986,0,0,1,1653.8,2767.5a24.353,24.353,0,0,1,6.04,2.571l-13.79,20.574Z" transform="translate(-1622.223 -2766.51)" fill="#e6e6e6"/>
        </g>
        <g id="Group_508" data-name="Group 508" transform="translate(12.874 5.31)">
          <path id="Path_1038" data-name="Path 1038" d="M1630.214,2813.276l13.79-20.57,15.058-22.464a25.952,25.952,0,0,1-28.847,43.034Z" transform="translate(-1630.214 -2770.242)" fill="#e6e6e6"/>
        </g>
        <g id="Group_509" data-name="Group 509" transform="translate(0 20.393)">
          <path id="Path_1039" data-name="Path 1039" d="M1621.811,2780.842l22.844,6.48-13.222,19.723A25.483,25.483,0,0,1,1621.811,2780.842Z" transform="translate(-1621.167 -2780.842)" fill="#e6e6e6"/>
        </g>
      </g>
      <g id="Group_514" data-name="Group 514" transform="translate(1693.462 2908.71)">
        <g id="Group_511" data-name="Group 511" transform="translate(9.332)">
          <path id="Path_1040" data-name="Path 1040" d="M1678.532,2866.721a11.9,11.9,0,0,1,13.975,8.363,11.157,11.157,0,0,1,.45,2.971l-11.331-.428Z" transform="translate(-1678.532 -2866.444)" fill="#e6e6e6"/>
        </g>
        <g id="Group_512" data-name="Group 512" transform="translate(0 12.151)">
          <path id="Path_1041" data-name="Path 1041" d="M1671.974,2874.984l11.328.427,12.371.468a11.9,11.9,0,0,1-8.567,10.265,11.894,11.894,0,0,1-15.132-11.16Z" transform="translate(-1671.974 -2874.984)" fill="#e6e6e6"/>
        </g>
        <g id="Group_513" data-name="Group 513" transform="translate(0.053 0.668)">
          <path id="Path_1042" data-name="Path 1042" d="M1679.908,2866.914l2.965,10.457-10.863-.411A11.663,11.663,0,0,1,1679.908,2866.914Z" transform="translate(-1672.011 -2866.914)" fill="#e6e6e6"/>
        </g>
      </g>
      <g id="Group_518" data-name="Group 518" transform="translate(1715.015 2780.307)">
        <g id="Group_515" data-name="Group 515" transform="translate(9.333)">
          <path id="Path_1043" data-name="Path 1043" d="M1693.68,2776.483a11.9,11.9,0,0,1,13.973,8.363,11.148,11.148,0,0,1,.451,2.971l-11.331-.427Z" transform="translate(-1693.68 -2776.206)" fill="#e6e6e6"/>
        </g>
        <g id="Group_516" data-name="Group 516" transform="translate(0 12.151)">
          <path id="Path_1044" data-name="Path 1044" d="M1687.121,2784.746l11.329.426,12.371.468a11.9,11.9,0,0,1-8.569,10.265,11.894,11.894,0,0,1-15.131-11.16Z" transform="translate(-1687.121 -2784.746)" fill="#e6e6e6"/>
        </g>
        <g id="Group_517" data-name="Group 517" transform="translate(0.054 0.668)">
          <path id="Path_1045" data-name="Path 1045" d="M1695.055,2776.676l2.967,10.457-10.862-.411A11.663,11.663,0,0,1,1695.055,2776.676Z" transform="translate(-1687.159 -2776.676)" fill="#e6e6e6"/>
        </g>
      </g>
    </g>
    <g id="Group_629" data-name="Group 629" transform="translate(3232.427 1343.318)">
      <rect id="Rectangle_118" data-name="Rectangle 118" width="97.318" height="11.386" rx="4.896" transform="translate(97.318 85.397) rotate(-180)" fill="#ccc"/>
      <rect id="Rectangle_119" data-name="Rectangle 119" width="85.197" height="6.768" rx="2.911" transform="translate(115.037 1.465) rotate(102.5)" fill="#e6e6e6"/>
    </g>
    <g id="Group_631" data-name="Group 631" transform="translate(3094.343 1336.87)">
      <path id="Path_937" data-name="Path 937" d="M1142.4,2512.439a2.014,2.014,0,0,0,.581-.085l9.817-3.046a1.989,1.989,0,0,0,1.4-1.837l.249-7.859a38.489,38.489,0,0,0,8.532-7.084l7.764,1.194a1.986,1.986,0,0,0,2.066-1.045l4.785-9.083a1.988,1.988,0,0,0-.311-2.292l-5.378-5.727a38.441,38.441,0,0,0,1.016-11.043l6.341-4.65a2,2,0,0,0,.724-2.2l-3.043-9.812a2,2,0,0,0-1.837-1.4l-7.86-.247a38.511,38.511,0,0,0-7.086-8.532l1.2-7.766a1.986,1.986,0,0,0-1.048-2.066l-9.082-4.784a1.991,1.991,0,0,0-2.289.309l-5.728,5.378a38.23,38.23,0,0,0-11.045-1.012l-4.648-6.341a1.975,1.975,0,0,0-2.2-.722l-9.806,3.038a2,2,0,0,0-1.4,1.837l-.248,7.861a38.536,38.536,0,0,0-8.532,7.085l-7.767-1.194a2,2,0,0,0-2.062,1.043l-4.786,9.085a1.985,1.985,0,0,0,.312,2.292l5.378,5.725a38.543,38.543,0,0,0-1.016,11.046l-6.341,4.649a1.993,1.993,0,0,0-.726,2.189l3.047,9.819a1.992,1.992,0,0,0,1.835,1.4l7.861.246a38.456,38.456,0,0,0,7.086,8.53l-1.2,7.765a2,2,0,0,0,1.039,2.066l9.091,4.785a1.977,1.977,0,0,0,2.29-.309l5.727-5.379a38.525,38.525,0,0,0,11.045,1.016l4.648,6.341A2,2,0,0,0,1142.4,2512.439Zm9.24-5.466-9.019,2.8-5.237-7.146-.71.051a35.874,35.874,0,0,1-11.622-1.069l-.687-.181-6.452,6.062-8.355-4.4,1.347-8.753-.537-.466a35.928,35.928,0,0,1-7.455-8.975l-.359-.613L1093.7,2484l-2.8-9.017,7.144-5.238-.05-.708a35.978,35.978,0,0,1,1.07-11.624l.177-.688-6.06-6.451,4.4-8.354,8.752,1.347.465-.535a35.949,35.949,0,0,1,8.979-7.458l.612-.362.277-8.855,9.019-2.794,5.238,7.146.71-.051a35.749,35.749,0,0,1,11.62,1.065l.687.182,6.455-6.062,8.353,4.4-1.345,8.751.536.465a35.86,35.86,0,0,1,7.455,8.978l.36.612,8.855.279,2.8,9.018-7.143,5.238.05.708a35.908,35.908,0,0,1-1.07,11.621l-.178.686,6.06,6.457-4.4,8.354-8.749-1.347-.467.538a35.933,35.933,0,0,1-8.976,7.451l-.612.36Zm-33.361.708,0,0Zm33.759-.832h0Zm18.492-15.373v0Zm-76.709-7.073v0Zm-3.257-9.17,0,0Zm2.422-24.586,0,0Zm4.788-9.091h0Zm61.334-11.418.006,0Zm-33.03-6.994,0,0Zm-.644-.216,0,0Zm8.9,69.632a26.073,26.073,0,1,0-25.094-33.079l2.478.688a23.493,23.493,0,1,1,2.57,18.528l-2.2,1.337a26.156,26.156,0,0,0,22.245,12.525Z" transform="translate(-1088.234 -2420.594)" fill="#e6e6e6"/>
      <path id="Path_938" data-name="Path 938" d="M1128.9,2471.685c.19,0,.378-.006.569-.015a10.409,10.409,0,1,0-8.3-17.352h0a10.41,10.41,0,0,0,7.73,17.367Zm.018-18.241a7.831,7.831,0,1,1-5.833,2.594A7.813,7.813,0,0,1,1128.918,2453.443Z" transform="translate(-1082.992 -2415.351)" fill="#e6e6e6"/>
    </g>
    <g id="Group_632" data-name="Group 632" transform="translate(3063.829 1264.208)">
      <path id="Path_939" data-name="Path 939" d="M1033.411,2399.639a1.5,1.5,0,0,0-.27.354l-3.727,6.854a1.512,1.512,0,0,0,.212,1.741l4.026,4.4a29.268,29.268,0,0,0-.889,8.371l-4.854,3.462a1.508,1.508,0,0,0-.57,1.662l2.208,7.473a1.508,1.508,0,0,0,1.383,1.081l5.956.268a29.188,29.188,0,0,0,5.3,6.544l-.987,5.885a1.515,1.515,0,0,0,.77,1.578l6.849,3.724a1.519,1.519,0,0,0,1.741-.211l4.4-4.029a29.17,29.17,0,0,0,8.372.888l3.462,4.857a1.506,1.506,0,0,0,1.663.569l7.473-2.207a1.513,1.513,0,0,0,1.082-1.381l.268-5.957a29.047,29.047,0,0,0,6.543-5.3l5.886.988a1.5,1.5,0,0,0,1.578-.773l3.725-6.845a1.516,1.516,0,0,0-.212-1.74l-4.027-4.406a29.2,29.2,0,0,0,.889-8.37l4.855-3.464a1.519,1.519,0,0,0,.57-1.659l-2.208-7.475a1.5,1.5,0,0,0-1.383-1.08l-5.956-.268a29.272,29.272,0,0,0-5.3-6.544l.985-5.885a1.512,1.512,0,0,0-.764-1.576l-6.856-3.727a1.51,1.51,0,0,0-1.739.211l-4.405,4.027a29.224,29.224,0,0,0-8.37-.887l-3.462-4.855a1.516,1.516,0,0,0-1.659-.574l-7.478,2.211a1.5,1.5,0,0,0-1.082,1.381l-.266,5.957a29.282,29.282,0,0,0-6.545,5.3l-5.886-.986A1.512,1.512,0,0,0,1033.411,2399.639Zm-2.129,7.865,3.423-6.3,6.63,1.112.359-.4a27.26,27.26,0,0,1,6.886-5.573l.469-.265.3-6.712,6.872-2.033,3.9,5.474.538-.032a27.283,27.283,0,0,1,8.806.934l.521.143,4.962-4.536,6.3,3.423-1.112,6.631.4.359a27.307,27.307,0,0,1,5.573,6.887l.268.468,6.711.3,2.031,6.872-5.473,3.9.032.537a27.279,27.279,0,0,1-.935,8.809l-.141.521,4.537,4.962-3.424,6.295-6.633-1.112-.359.4a27.1,27.1,0,0,1-6.883,5.574l-.469.265-.3,6.715-6.872,2.03-3.9-5.473-.537.031a27.254,27.254,0,0,1-8.808-.934l-.521-.145-4.964,4.538-6.294-3.423,1.111-6.632-.4-.358a27.284,27.284,0,0,1-5.571-6.886l-.266-.468-6.715-.3-2.03-6.874,5.472-3.9-.032-.538a27.287,27.287,0,0,1,.936-8.805l.143-.52Zm17.766-18.049h0Zm-17.918,18.327h0Zm-1.917,18.152v0Zm45.461-36.77h0Zm6.626,3.262v0Zm11.7,14.654v0Zm2.21,7.479h0Zm-27.309,38.683,0,0Zm21.666-13.684v0Zm.465-.224h0Zm-41.708-33.155a19.79,19.79,0,1,0,31.161,4.7l-1.713.937a17.84,17.84,0,1,1-32.759,13.62,17.844,17.844,0,0,1,21.552-22.335l.488-1.891a19.846,19.846,0,0,0-18.729,4.966Z" transform="translate(-1027.275 -2385.309)" fill="#e6e6e6"/>
      <path id="Path_940" data-name="Path 940" d="M1052.717,2410.586c-.1.1-.2.2-.3.31a7.9,7.9,0,1,0,13.7,5.042h0a7.9,7.9,0,0,0-13.4-5.352Zm9.648,9.929a5.944,5.944,0,1,1,1.8-4.5A5.924,5.924,0,0,1,1062.365,2420.516Z" transform="translate(-1023.285 -2381.319)" fill="#e6e6e6"/>
    </g>
    <g id="Group_633" data-name="Group 633" transform="translate(3146.493 1284.188)">
      <path id="Path_941" data-name="Path 941" d="M1138.449,2374.263a1.224,1.224,0,0,0,.026-.353l-.51-6.155a1.2,1.2,0,0,0-.9-1.06l-4.578-1.167a23.108,23.108,0,0,0-3.047-5.927l1.71-4.4a1.192,1.192,0,0,0-.345-1.348l-4.705-3.988a1.194,1.194,0,0,0-1.386-.115l-4.059,2.409a23.072,23.072,0,0,0-6.347-2.032l-1.9-4.325a1.2,1.2,0,0,0-1.195-.71l-6.152.509a1.2,1.2,0,0,0-1.059.9l-1.167,4.579a23.1,23.1,0,0,0-5.927,3.047l-4.4-1.711a1.191,1.191,0,0,0-1.348.346l-3.988,4.705a1.2,1.2,0,0,0-.117,1.384l2.41,4.059a22.985,22.985,0,0,0-2.03,6.349l-4.325,1.9a1.184,1.184,0,0,0-.708,1.2l.506,6.149a1.2,1.2,0,0,0,.9,1.06l4.58,1.167a23.174,23.174,0,0,0,3.047,5.927l-1.71,4.4a1.2,1.2,0,0,0,.343,1.346l4.708,3.989a1.192,1.192,0,0,0,1.385.115l4.058-2.41a23.133,23.133,0,0,0,6.348,2.033l1.9,4.324a1.2,1.2,0,0,0,1.189.711l6.157-.51a1.2,1.2,0,0,0,1.06-.895l1.166-4.58a23.137,23.137,0,0,0,5.926-3.048l4.4,1.711a1.2,1.2,0,0,0,1.347-.341l3.99-4.71a1.188,1.188,0,0,0,.117-1.384l-2.411-4.06a23.18,23.18,0,0,0,2.033-6.348l4.324-1.9A1.2,1.2,0,0,0,1138.449,2374.263Zm-2.005-6.132.468,5.654-4.873,2.144-.063.422a21.547,21.547,0,0,1-2.138,6.68l-.2.379,2.718,4.574-3.667,4.33-4.961-1.929-.342.254a21.585,21.585,0,0,1-6.235,3.206l-.407.132-1.315,5.158-5.654.468-2.143-4.872-.422-.063a21.609,21.609,0,0,1-6.68-2.139l-.381-.194-4.573,2.715-4.329-3.667,1.929-4.958-.253-.342a21.587,21.587,0,0,1-3.208-6.237l-.133-.407-5.158-1.314-.467-5.654,4.873-2.144.063-.422a21.485,21.485,0,0,1,2.136-6.679l.2-.379-2.716-4.576,3.668-4.328,4.959,1.927.343-.254a21.571,21.571,0,0,1,6.237-3.207l.407-.13,1.314-5.159,5.654-.468,2.143,4.873.422.062a21.591,21.591,0,0,1,6.679,2.139l.379.194,4.576-2.716,4.329,3.668-1.929,4.958.255.344a21.6,21.6,0,0,1,3.2,6.234l.131.407Zm-3.923,19.663,0,0Zm3.9-19.914h0Zm-6.614-12.849h0Zm-14.126,44.083h0Zm-5.8.718v0Zm-14.109-4.619,0,0Zm-4.711-3.99Zm1.279-37.468,0,0Zm-8.4,18.467v0Zm-.21.35h0Zm42.008,3.834a15.667,15.667,0,1,0-22.67,10.419l.727-1.364a14.116,14.116,0,1,1,11.2.9l.5,1.464a15.72,15.72,0,0,0,10.242-11.422Z" transform="translate(-1082.395 -2345.087)" fill="#e6e6e6"/>
      <path id="Path_942" data-name="Path 942" d="M1118.59,2376.54c.025-.111.046-.222.065-.335a6.255,6.255,0,1,0-11.258,2.611h0a6.255,6.255,0,0,0,11.193-2.276Zm-10.7-2.383a4.705,4.705,0,1,1,.762,3.76A4.7,4.7,0,0,1,1107.891,2374.156Z" transform="translate(-1084.444 -2347.136)" fill="#e6e6e6"/>
    </g>
  </g>
</svg>
