<svg xmlns="http://www.w3.org/2000/svg" width="333.971" height="406.741" viewBox="0 0 333.971 406.741">
  <g id="Group_439" data-name="Group 439" transform="translate(-447.435 -2228.944)">
    <path id="accept_cr" d="M630.418,2357.6a9.081,9.081,0,1,1,9.081,9.081A9.092,9.092,0,0,1,630.418,2357.6Zm2.272,0a6.81,6.81,0,1,0,6.809-6.81A6.811,6.811,0,0,0,632.689,2357.6Zm4.873,3.073-2.271-2.271a1.135,1.135,0,0,1,1.6-1.606l1.468,1.468,3.739-3.738a1.135,1.135,0,0,1,1.6,1.6l-4.54,4.541a1.136,1.136,0,0,1-1.606,0Z" fill="#ccc"/>
    <g id="Group_399" data-name="Group 399">
      <path id="Path_824" data-name="Path 824" d="M580.364,2272.577l38.165,66.513-66.513,38.166-38.165-66.513,66.513-38.166m.991-3.661-71.165,40.835,40.835,71.166,71.165-40.835-40.835-71.166Z" fill="#ccc"/>
      <path id="pic_big_1" d="M562.653,2333.136l-5.344-9.314a1.788,1.788,0,0,1,.662-2.442l9.313-5.345a1.79,1.79,0,0,1,2.443.662l5.344,9.313a1.789,1.789,0,0,1-.661,2.443L565.1,2333.8a1.789,1.789,0,0,1-2.443-.662Zm-3.792-10.2,5.343,9.313,9.314-5.344-5.343-9.312Zm4.886,1.323,4.109,1.768.661-2.442,2.888,1.437-7.761,4.454Zm2.328-1.336a.9.9,0,1,1,.777.45A.9.9,0,0,1,566.076,2322.919Z" fill="#ccc"/>
    </g>
    <path id="accept_cr-2" data-name="accept_cr" d="M587.917,2238.025a9.081,9.081,0,1,1,9.08,9.081A9.091,9.091,0,0,1,587.917,2238.025Zm2.27,0a6.811,6.811,0,1,0,6.81-6.809A6.81,6.81,0,0,0,590.187,2238.025Zm4.874,3.073-2.27-2.271a1.135,1.135,0,0,1,1.6-1.6l1.467,1.468,3.738-3.738a1.135,1.135,0,0,1,1.606,1.606l-4.541,4.54a1.133,1.133,0,0,1-1.6,0Z" fill="#ccc"/>
    <g id="Group_400" data-name="Group 400">
      <path id="Path_830" data-name="Path 830" d="M710.873,2244.159v76.685H634.188v-76.685h76.685m2.682-2.682H631.506v82.049h82.049v-82.049Z" fill="#ccc"/>
      <path id="pic_big_1-2" data-name="pic_big_1" d="M667.162,2289.66a1.79,1.79,0,0,1-1.79-1.789v-10.738a1.789,1.789,0,0,1,1.79-1.79H677.9a1.789,1.789,0,0,1,1.79,1.79v10.738a1.79,1.79,0,0,1-1.79,1.789Zm0-1.789H677.9v-10.738H667.162Zm.895-2.685,2.685-4.474,2.684,3.579,1.79-1.79,1.789,2.685Zm5.368-4.475a.9.9,0,1,1,.895.9A.9.9,0,0,1,673.425,2280.712Z" fill="#ccc"/>
    </g>
    <g id="Group_421" data-name="Group 421">
      <g id="Group_402" data-name="Group 402">
        <rect id="Rectangle_240" data-name="Rectangle 240" width="8.637" height="35.758" rx="4.318" transform="translate(546.134 2626.877) rotate(180)" fill="#ff8f8e"/>
        <path id="Path_834" data-name="Path 834" d="M547.159,2635.684H520.54a7.246,7.246,0,0,1,.246-2.76c1.014-3.43,4.371-4.73,8.972-7.838a59,59,0,0,0,6.8-5.373h10.6Z" fill="#b8f2e5"/>
        <path id="Path_835" data-name="Path 835" d="M520.538,2634.221h26.621v1.463H520.538a7.807,7.807,0,0,1-.036-.782C520.5,2634.658,520.518,2634.43,520.538,2634.221Z" fill="#fff"/>
        <circle id="Ellipse_46" data-name="Ellipse 46" cx="2.563" cy="2.563" r="2.563" transform="translate(540.06 2626.877)" fill="#fff"/>
        <g id="Group_401" data-name="Group 401">
          <path id="Path_836" data-name="Path 836" d="M542.624,2631.625a2.185,2.185,0,1,1,2.185-2.185A2.188,2.188,0,0,1,542.624,2631.625Zm0-4.074a1.89,1.89,0,1,0,1.889,1.889A1.891,1.891,0,0,0,542.624,2627.551Z" fill="#b8f2e5"/>
        </g>
        <path id="Path_837" data-name="Path 837" d="M533.046,2622.688l3.416,3.417,1.035-1.035-3.3-3.3C533.8,2622.089,533.417,2622.4,533.046,2622.688Z" fill="#fff"/>
        <path id="Path_838" data-name="Path 838" d="M534.208,2628.359l1.035-1.035-3.583-3.583c-.421.31-.827.6-1.2.866Z" fill="#fff"/>
        <path id="Path_839" data-name="Path 839" d="M527.824,2626.344l4.2,4.2,1.034-1.034-3.975-3.976C528.651,2625.817,528.232,2626.086,527.824,2626.344Z" fill="#fff"/>
      </g>
      <g id="Group_404" data-name="Group 404">
        <rect id="Rectangle_241" data-name="Rectangle 241" width="8.637" height="35.758" rx="4.318" transform="translate(582.791 2626.877) rotate(-180)" fill="#ff8f8e"/>
        <path id="Path_840" data-name="Path 840" d="M573.22,2635.684h26.619a7.269,7.269,0,0,0-.247-2.76c-1.014-3.43-4.371-4.73-8.971-7.838a59,59,0,0,1-6.8-5.373h-10.6Z" fill="#b8f2e5"/>
        <path id="Path_841" data-name="Path 841" d="M599.841,2634.221H573.22v1.463h26.621a7.542,7.542,0,0,0,.035-.782C599.874,2634.658,599.861,2634.43,599.841,2634.221Z" fill="#fff"/>
        <circle id="Ellipse_47" data-name="Ellipse 47" cx="2.563" cy="2.563" r="2.563" transform="translate(575.192 2626.877)" fill="#fff"/>
        <g id="Group_403" data-name="Group 403">
          <path id="Path_842" data-name="Path 842" d="M577.755,2631.625a2.185,2.185,0,1,0-2.185-2.185A2.188,2.188,0,0,0,577.755,2631.625Zm0-4.074a1.89,1.89,0,1,1-1.89,1.889A1.891,1.891,0,0,1,577.755,2627.551Z" fill="#b8f2e5"/>
        </g>
        <path id="Path_843" data-name="Path 843" d="M587.333,2622.688l-3.417,3.417-1.034-1.035,3.3-3.3C586.579,2622.089,586.962,2622.4,587.333,2622.688Z" fill="#fff"/>
        <path id="Path_844" data-name="Path 844" d="M586.17,2628.359l-1.034-1.035,3.583-3.583c.421.31.826.6,1.2.866Z" fill="#fff"/>
        <path id="Path_845" data-name="Path 845" d="M592.554,2626.344l-4.2,4.2-1.035-1.034,3.975-3.976C591.728,2625.817,592.147,2626.086,592.554,2626.344Z" fill="#fff"/>
      </g>
      <g id="Group_406" data-name="Group 406">
        <path id="Path_846" data-name="Path 846" d="M578.242,2410.153H548.431v-13.1h29.811Z" fill="#ff8f8e"/>
        <g id="Group_405" data-name="Group 405">
          <path id="Path_847" data-name="Path 847" d="M602.09,2474.558H524.583c-.4-31.357,2.234-54.919,6.032-63.185a28.6,28.6,0,0,1,5.892-8.36,25.429,25.429,0,0,1,11.924-5.962c.565.715,6.283,7.7,15.744,7.279a19.6,19.6,0,0,0,14.067-7.279,24.377,24.377,0,0,1,11.924,5.962,27.123,27.123,0,0,1,5.612,8.36C599.315,2419.7,601.977,2443.213,602.09,2474.558Z" fill="#b8f2e5"/>
        </g>
      </g>
      <path id="Path_848" data-name="Path 848" d="M524.583,2474.558a418.64,418.64,0,0,0,11.924,137.129h11.924c.906-18.245,2.56-43.882,5.822-74.651,2.729-25.733,4.133-38.6,6.1-38.629,2.495-.037,6.3,20.279,11.925,113.28H584.2l9.285-71.189,8.6-65.94Z" fill="#20221d"/>
      <g id="Group_412" data-name="Group 412">
        <g id="Group_407" data-name="Group 407">
          <rect id="Rectangle_242" data-name="Rectangle 242" width="11.604" height="41.735" rx="5.802" transform="matrix(0.745, -0.667, 0.667, 0.745, 589.042, 2422.453)" fill="#ff8f8e"/>
          <rect id="Rectangle_243" data-name="Rectangle 243" width="11.604" height="48.041" rx="5.802" transform="translate(622.395 2402.993) rotate(14.567)" fill="#ff8f8e"/>
          <path id="Path_849" data-name="Path 849" d="M614.476,2433.466l-1.928,7.421a14.967,14.967,0,0,1,.792-8.69Z" fill="#ae324a"/>
        </g>
        <g id="Group_411" data-name="Group 411">
          <g id="Group_410" data-name="Group 410">
            <g id="Group_408" data-name="Group 408">
              <path id="Path_850" data-name="Path 850" d="M642.621,2394.134a30.031,30.031,0,0,0-4.3,3.324c-.585.5-1.7,1.453-2.664,2.286h0c-.806.664-.992.039-.705-.439,1.816-3.033,5.226-8.227,5.751-9.379,1.082-2.37.065-4.261-2.515-1.129-.523.635-3.71,6.262-5.612,8.364-1.259,1.391-1.414.555-1.186-1.21.129-1,.578-2.336,1.1-4.371.628-2.468,1.561-5.411,1.658-6.187.391-3.127-2.225-3.442-2.9-.378a78.544,78.544,0,0,1-3.517,10.65c-.1.221-.744.54-.881-.881-.247-2.562.162-8.326-.111-10.582-.332-2.741-2.46-2.031-2.62.126-.42,5.68-.641,11.407-.607,12.727a20.107,20.107,0,0,1-.731,3.294c-.328,1.12-1.045,1.193-1.637.289-.579-.885-2.118-5.625-4-6.7-2.382-1.364-3.051-.239-3.258.218a12.074,12.074,0,0,1,3.325,8.246,5.523,5.523,0,0,0,1.578,4c.639.771,1.144,1.408,1.534,1.955a5.121,5.121,0,0,1,.568,3.016,38.144,38.144,0,0,1-1.092,4.979l1.974.6.323.1.532.16,6.5,1.959s1.146-4.138,1.549-5.136a35.254,35.254,0,0,1,2.728-4.661c1.119-1.686,2.334-4.755,3.344-6.107,1.286-1.721,4.708-4.829,6.841-6.964C645.144,2394.723,643.89,2393.544,642.621,2394.134Z" fill="#ff8f8e"/>
            </g>
            <g id="Group_409" data-name="Group 409">
              <path id="Path_851" data-name="Path 851" d="M621.361,2400.923a2.7,2.7,0,0,0,.278.364c.618.683,1.183.594,1.848,1.19a2.824,2.824,0,0,1,.667.879,9.914,9.914,0,0,0,.53,1.372c.161.262.4.559.462.526s-.04-.329-.144-.607c-.465-1.636-1.1-2.243-1.608-2.483a7.46,7.46,0,0,1-1.689-.958C621.556,2401.092,621.439,2400.991,621.361,2400.923Z" fill="#ae324a"/>
            </g>
          </g>
        </g>
        <rect id="Rectangle_244" data-name="Rectangle 244" width="23.848" height="35.773" rx="4.389" transform="translate(571.52 2418.001) rotate(-45)" fill="#b8f2e5"/>
      </g>
      <g id="Group_419" data-name="Group 419">
        <g id="Group_413" data-name="Group 413">
          <rect id="Rectangle_245" data-name="Rectangle 245" width="11.604" height="41.735" rx="5.802" transform="translate(524.044 2413.091) rotate(20.075)" fill="#ff8f8e"/>
          <path id="Path_852" data-name="Path 852" d="M519.306,2444.74a4.57,4.57,0,0,1,2.525,1.128,4.654,4.654,0,0,1,1.483,3.024q-.355,1.027-.71,2.055Q520.954,2447.843,519.306,2444.74Z" fill="#ae324a"/>
          <rect id="Rectangle_246" data-name="Rectangle 246" width="11.604" height="48.041" rx="5.802" transform="matrix(-0.997, -0.073, 0.073, -0.997, 519.579, 2492.559)" fill="#ff8f8e"/>
        </g>
        <g id="Group_418" data-name="Group 418">
          <g id="Group_417" data-name="Group 417">
            <g id="Group_414" data-name="Group 414">
              <path id="Path_853" data-name="Path 853" d="M512.557,2508.64s4.235,1.042,5.811,1.535a5.325,5.325,0,0,0,1.994.41,2.692,2.692,0,0,0-1.854-2.52c-1.908-.675-5.078-2.192-5.078-2.192l-2.714-4.727S509.85,2507.052,512.557,2508.64Z" fill="#ae324a"/>
            </g>
            <g id="Group_415" data-name="Group 415">
              <path id="Path_854" data-name="Path 854" d="M512.306,2505.486s4.481.479,6.163.765a5.5,5.5,0,0,0,2.1.143,2.781,2.781,0,0,0-2.247-2.324c-2.049-.425-5.505-1.538-5.505-1.538l-3.435-4.464S509.314,2504.236,512.306,2505.486Z" fill="#ae324a"/>
            </g>
            <path id="Path_855" data-name="Path 855" d="M509.037,2507.563s2.574,3.094,4.078,3.9,6.122,2.845,6.122,2.845,1.012-.6-.5-2.147a47.087,47.087,0,0,0-5.753-4.252l-2.125-4.945Z" fill="#ff8f8e"/>
            <g id="Group_416" data-name="Group 416">
              <path id="Path_856" data-name="Path 856" d="M513.825,2473.924c-1.85,2.435-3.435,4.258-4.031,6.366-.9,3.179-2.144,8.7-3.139,13.012a16.842,16.842,0,0,0-.23,5.381c.358,2.823.428,5.489,1.04,10.326a45.052,45.052,0,0,0,2.788,9.409,3.089,3.089,0,0,0,1.517-3.784c-.671-2.813-.831-13.365.478-16.5.218-.521,1.991-1.445,1.991-1.445s3.224,4.292,4.536,6.013c2.721,3.569,4.358,2.579,4.987,2.22,1.473-.842-1.252-2.912-2-4.264-1.172-2.135-2.1-4.851-1.358-11.22.268-2.295-1.592-6.24-1.228-8.407a19.992,19.992,0,0,1,1.489-3.095Z" fill="#ff8f8e"/>
            </g>
          </g>
        </g>
        <rect id="Rectangle_247" data-name="Rectangle 247" width="23.848" height="35.773" rx="4.389" transform="translate(530.163 2443.297) rotate(-135)" fill="#b8f2e5"/>
      </g>
      <g id="Group_420" data-name="Group 420">
        <rect id="Rectangle_248" data-name="Rectangle 248" width="12.56" height="20.231" transform="translate(569.225 2397.051) rotate(180)" fill="#ff8f8e"/>
        <path id="Path_857" data-name="Path 857" d="M558.248,2383.029c-1.568,4.042,2.86,9.13,6.891,9.411a6.269,6.269,0,0,0,4.086-1.318,6.654,6.654,0,0,0,2.271-5.267,7.187,7.187,0,0,0-6.172-6.6C562.376,2378.893,559.232,2380.49,558.248,2383.029Z" fill="#ae324a"/>
        <path id="Path_858" data-name="Path 858" d="M556.584,2373.715v-5.675a6.215,6.215,0,0,1,6.2-6.2h7.575a6.215,6.215,0,0,1,6.2,6.2v9.714c-.546,8.318-5.661,14.027-9.984,14.042-5.175.018-9.936-8.079-9.965-14.084Z" fill="#ff8f8e"/>
        <path id="Path_859" data-name="Path 859" d="M562.152,2369.827c.981-1.423,3.568-2.146,5.723-1.786,1.81.3,1.765,1.033,3.551,1.369a7.234,7.234,0,0,0,6.057-1.6,6.625,6.625,0,0,0,1.881-4.1c.335-2.939-1.121-6.452-3.243-7.183-1.946-.67-2.676,1.145-6.348,1.237-2.494.062-2.728-.76-6.02-.854a13.1,13.1,0,0,0-5.239.636,14.547,14.547,0,0,0-5.019,4.074c-7.413,9.644.022,27.625,3.17,27.5,1.311-.053,2.976-3.29,2.592-5.653-.13-.8-.554-1.865-1.371-5-.1-.386-.094-.4-.154-.585-.441-1.35-1.205-2.135-.964-3.465a2.04,2.04,0,0,1,.946-1.537,1.7,1.7,0,0,1,1.6.146,2.534,2.534,0,0,1,.927,1.855c.156.957-.08,1.593.055,1.637.168.055.719-.869,1.109-1.983C562.344,2371.866,561.345,2371,562.152,2369.827Z" fill="#b8f2e5"/>
        <path id="Path_860" data-name="Path 860" d="M557.485,2375.068c.039.006-.013-.652.382-.894a.584.584,0,0,1,.444-.062.692.692,0,0,1,.4.464,1.071,1.071,0,0,1-.032.729c-.109.3-.234.282-.345.575a1.054,1.054,0,0,0-.007.906.682.682,0,0,0,.67.348.43.43,0,0,0,.329-.295c.015-.1-.052-.139-.148-.385a.766.766,0,0,1-.1-.407c.042-.2.233-.187.312-.422a.635.635,0,0,0-.028-.43c-.057-.134-.109-.122-.169-.24-.117-.232.043-.362-.036-.648a.776.776,0,0,0-.744-.562,1.111,1.111,0,0,0-.793.4A.956.956,0,0,0,557.485,2375.068Z" fill="#ae324a"/>
        <rect id="Rectangle_249" data-name="Rectangle 249" width="2.674" height="2.019" rx="1.009" transform="translate(577.89 2377.829) rotate(180)" fill="#ff8f8e"/>
      </g>
    </g>
    <g id="Group_422" data-name="Group 422">
      <path id="Path_861" data-name="Path 861" d="M477.843,2602.987c-4.283-.258-4.355,7.349-4.319,9.85.1,6.7,1.174,13.39,1.628,20.075-.05.416-.1.833-.15,1.248a.808.808,0,0,0,1,.9.759.759,0,0,0,1.019-.774c-.023-.417-.054-.833-.08-1.249.9-7.117,1.954-14.262,2.621-21.429C479.731,2609.747,481.039,2603.179,477.843,2602.987Z" fill="#add9e0"/>
      <path id="Path_862" data-name="Path 862" d="M497.452,2620.329c-2.986-2.925-8.194-.466-10.713,1.68-3.528,3.007-5.847,7.722-7.228,12.069a.827.827,0,0,0,0,.534c-.172.889,1.139,1.549,1.631.628,2.472-4.629,8.15-6.644,12.532-9.038C495.42,2625.247,499.915,2622.742,497.452,2620.329Z" fill="#add9e0"/>
      <path id="Path_863" data-name="Path 863" d="M487.7,2611.391c-4.85-4.018-6.758,9.657-6.8,11.994a.891.891,0,0,0,1.765.144,1,1,0,0,0,.132-.169C484.247,2621.015,491.135,2614.236,487.7,2611.391Z" fill="#add9e0"/>
      <path id="Path_864" data-name="Path 864" d="M499.742,2631.108c-1.5-4.568-11.352,1.089-13.881,2.2a.7.7,0,0,0-.466.669.9.9,0,0,0,.914,1.435,11.926,11.926,0,0,1,3.2-.067,39.8,39.8,0,0,0,5.5-.256C496.837,2634.849,500.627,2633.8,499.742,2631.108Z" fill="#add9e0"/>
      <path id="Path_865" data-name="Path 865" d="M458.11,2626.2c4.384,2.394,10.06,4.409,12.532,9.038.493.921,1.8.261,1.632-.628a.82.82,0,0,0,0-.534c-1.381-4.347-3.7-9.062-7.228-12.069-2.519-2.146-7.727-4.6-10.714-1.68C451.867,2622.742,456.362,2625.247,458.11,2626.2Z" fill="#add9e0"/>
      <path id="Path_866" data-name="Path 866" d="M464.081,2611.391c4.849-4.018,6.757,9.657,6.8,11.994a.891.891,0,0,1-1.765.144.956.956,0,0,1-.132-.169C467.535,2621.015,460.646,2614.236,464.081,2611.391Z" fill="#add9e0"/>
      <path id="Path_867" data-name="Path 867" d="M452.04,2631.108c1.5-4.568,11.353,1.089,13.882,2.2a.7.7,0,0,1,.464.669.9.9,0,0,1-.914,1.435,11.913,11.913,0,0,0-3.2-.067,39.8,39.8,0,0,1-5.5-.256C454.944,2634.849,451.155,2633.8,452.04,2631.108Z" fill="#add9e0"/>
    </g>
    <g id="Group_423" data-name="Group 423">
      <path id="Path_868" data-name="Path 868" d="M750.987,2590.535c-5.914-.355-6.014,10.148-5.964,13.6.132,9.25,1.621,18.49,2.248,27.721-.07.574-.137,1.15-.208,1.723a1.117,1.117,0,0,0,1.375,1.237,1.049,1.049,0,0,0,1.408-1.069c-.031-.575-.074-1.15-.11-1.725,1.241-9.826,2.7-19.692,3.618-29.589C753.594,2599.871,755.4,2590.8,750.987,2590.535Z" fill="#add9e0"/>
      <path id="Path_869" data-name="Path 869" d="M778.062,2614.481c-4.123-4.039-11.314-.643-14.792,2.32-4.872,4.153-8.074,10.663-9.98,16.665a1.143,1.143,0,0,0-.005.738c-.237,1.227,1.574,2.138,2.253.867,3.413-6.391,11.253-9.174,17.3-12.48C775.257,2621.272,781.463,2617.814,778.062,2614.481Z" fill="#add9e0"/>
      <path id="Path_870" data-name="Path 870" d="M764.6,2602.14c-6.7-5.548-9.332,13.335-9.385,16.562a1.231,1.231,0,0,0,2.437.2,1.353,1.353,0,0,0,.182-.233C759.829,2615.429,769.34,2606.069,764.6,2602.14Z" fill="#add9e0"/>
      <path id="Path_871" data-name="Path 871" d="M781.224,2629.365c-2.069-6.307-15.675,1.5-19.166,3.038a.969.969,0,0,0-.644.924,1.243,1.243,0,0,0,1.263,1.982,16.474,16.474,0,0,1,4.417-.094,54.572,54.572,0,0,0,7.594-.353C777.213,2634.531,782.446,2633.09,781.224,2629.365Z" fill="#add9e0"/>
      <path id="Path_872" data-name="Path 872" d="M723.739,2622.591c6.054,3.306,13.892,6.089,17.3,12.48.68,1.271,2.489.36,2.253-.867a1.136,1.136,0,0,0-.005-.738c-1.906-6-5.106-12.512-9.979-16.665-3.479-2.963-10.671-6.359-14.795-2.32C715.119,2617.814,721.326,2621.272,723.739,2622.591Z" fill="#add9e0"/>
      <path id="Path_873" data-name="Path 873" d="M731.983,2602.14c6.7-5.548,9.331,13.335,9.385,16.562a1.231,1.231,0,0,1-2.437.2,1.308,1.308,0,0,1-.183-.233C736.753,2615.429,727.241,2606.069,731.983,2602.14Z" fill="#add9e0"/>
      <path id="Path_874" data-name="Path 874" d="M715.358,2629.365c2.068-6.307,15.675,1.5,19.168,3.038a.965.965,0,0,1,.641.924,1.242,1.242,0,0,1-1.262,1.982,16.469,16.469,0,0,0-4.416-.094,54.587,54.587,0,0,1-7.6-.353C719.368,2634.531,714.136,2633.09,715.358,2629.365Z" fill="#add9e0"/>
    </g>
    <g id="Group_424" data-name="Group 424">
      <path id="Path_875" data-name="Path 875" d="M479.549,2420.061a1.728,1.728,0,0,1-.5-.072l-8.368-2.6a1.7,1.7,0,0,1-1.193-1.566l-.211-6.7a32.813,32.813,0,0,1-7.273-6.039l-6.619,1.017a1.689,1.689,0,0,1-1.76-.891l-4.079-7.742a1.694,1.694,0,0,1,.265-1.954l4.584-4.882a32.739,32.739,0,0,1-.866-9.414l-5.4-3.963a1.7,1.7,0,0,1-.617-1.872l2.593-8.364a1.7,1.7,0,0,1,1.566-1.193l6.7-.21a32.817,32.817,0,0,1,6.041-7.273l-1.019-6.62a1.691,1.691,0,0,1,.892-1.761l7.743-4.079a1.7,1.7,0,0,1,1.951.264l4.883,4.584a32.558,32.558,0,0,1,9.415-.863l3.962-5.405a1.683,1.683,0,0,1,1.876-.615l8.359,2.59a1.7,1.7,0,0,1,1.193,1.566l.211,6.7a32.833,32.833,0,0,1,7.274,6.039l6.62-1.017a1.706,1.706,0,0,1,1.759.889l4.079,7.744a1.691,1.691,0,0,1-.265,1.954l-4.584,4.88a32.852,32.852,0,0,1,.866,9.416l5.405,3.963a1.7,1.7,0,0,1,.619,1.866l-2.6,8.37a1.7,1.7,0,0,1-1.565,1.193l-6.7.21a32.789,32.789,0,0,1-6.04,7.271l1.019,6.62a1.7,1.7,0,0,1-.886,1.761l-7.749,4.079a1.686,1.686,0,0,1-1.952-.263L494.3,2413.1a32.916,32.916,0,0,1-9.415.866l-3.963,5.405A1.7,1.7,0,0,1,479.549,2420.061Zm-7.876-4.659,7.688,2.384,4.464-6.09.6.043a30.606,30.606,0,0,0,9.907-.911l.586-.154,5.5,5.167,7.122-3.749-1.148-7.462.457-.4a30.589,30.589,0,0,0,6.355-7.65l.307-.523,7.547-.238,2.385-7.686-6.09-4.465.043-.6a30.666,30.666,0,0,0-.912-9.908l-.152-.587,5.166-5.5-3.749-7.121-7.46,1.149-.4-.457a30.668,30.668,0,0,0-7.654-6.356l-.522-.308-.236-7.548-7.688-2.382-4.466,6.091-.6-.043a30.468,30.468,0,0,0-9.9.908l-.586.154-5.5-5.167-7.12,3.751,1.147,7.46-.458.4a30.6,30.6,0,0,0-6.355,7.652l-.306.523-7.549.238-2.383,7.687,6.09,4.464-.043.6a30.617,30.617,0,0,0,.912,9.907l.151.584-5.166,5.5,3.752,7.121,7.458-1.148.4.458a30.655,30.655,0,0,0,7.652,6.352l.522.307Zm28.437.6,0,0Zm-28.778-.709h0Zm-15.763-13.105v0Zm65.389-6.028v0Zm2.776-7.817,0,0Zm-2.065-20.959v0Zm-4.081-7.749h0Zm-52.282-9.732-.005,0Zm28.155-5.962,0,0Zm.549-.184,0,0Zm-7.586,59.355a22.226,22.226,0,1,1,21.39-28.2l-2.112.587a20.035,20.035,0,1,0-37.03,14.706,20.04,20.04,0,0,0,34.839,1.088l1.875,1.139a22.3,22.3,0,0,1-18.962,10.678Z" fill="#e6e6e6"/>
      <path id="Path_876" data-name="Path 876" d="M486.591,2389.791c-.162,0-.322-.005-.485-.013a8.873,8.873,0,1,1,7.074-14.791h0a8.874,8.874,0,0,1-6.589,14.8Zm-.015-15.549a6.675,6.675,0,1,0,4.972,2.211A6.655,6.655,0,0,0,486.576,2374.242Z" fill="#e6e6e6"/>
    </g>
    <g id="Group_425" data-name="Group 425">
      <path id="Path_877" data-name="Path 877" d="M701.879,2494.35a2.9,2.9,0,0,1-.837-.123l-14.137-4.386a2.867,2.867,0,0,1-2.015-2.646l-.357-11.317a55.427,55.427,0,0,1-12.287-10.2l-11.181,1.72a2.859,2.859,0,0,1-2.975-1.505l-6.891-13.08a2.867,2.867,0,0,1,.449-3.3l7.743-8.247a55.312,55.312,0,0,1-1.462-15.9l-9.131-6.695a2.875,2.875,0,0,1-1.042-3.163l4.381-14.129a2.878,2.878,0,0,1,2.645-2.016L666.1,2399a55.429,55.429,0,0,1,10.2-12.286l-1.721-11.184a2.856,2.856,0,0,1,1.508-2.974l13.079-6.891a2.87,2.87,0,0,1,3.3.445l8.248,7.745a55.056,55.056,0,0,1,15.906-1.459l6.693-9.131a2.845,2.845,0,0,1,3.169-1.038L740.6,2366.6a2.878,2.878,0,0,1,2.016,2.646l.357,11.32a55.524,55.524,0,0,1,12.286,10.2l11.185-1.719a2.887,2.887,0,0,1,2.972,1.5l6.89,13.083a2.855,2.855,0,0,1-.449,3.3l-7.742,8.244a55.536,55.536,0,0,1,1.462,15.906l9.13,6.7a2.867,2.867,0,0,1,1.047,3.152l-4.387,14.14a2.868,2.868,0,0,1-2.644,2.015l-11.318.355a55.385,55.385,0,0,1-10.2,12.283l1.721,11.183a2.879,2.879,0,0,1-1.5,2.975l-13.09,6.891a2.85,2.85,0,0,1-3.3-.445l-8.246-7.745a55.516,55.516,0,0,1-15.906,1.462l-6.694,9.131A2.871,2.871,0,0,1,701.879,2494.35Zm-13.305-7.872,12.987,4.028,7.542-10.289,1.021.073a51.671,51.671,0,0,0,16.736-1.538l.99-.261,9.292,8.729,12.031-6.333-1.939-12.6.773-.67a51.739,51.739,0,0,0,10.735-12.923l.518-.884,12.75-.4,4.028-12.985-10.287-7.542.072-1.021a51.819,51.819,0,0,0-1.54-16.738l-.256-.991,8.727-9.291-6.335-12.029-12.6,1.939-.669-.77a51.783,51.783,0,0,0-12.93-10.739l-.881-.521-.4-12.75-12.987-4.024-7.544,10.289-1.021-.073a51.481,51.481,0,0,0-16.733,1.535l-.989.261-9.3-8.73-12.028,6.337,1.938,12.6-.773.67a51.675,51.675,0,0,0-10.736,12.927l-.517.883-12.752.4-4.026,12.985,10.287,7.542-.072,1.021a51.68,51.68,0,0,0,1.54,16.735l.256.987-8.727,9.3,6.337,12.03,12.6-1.94.671.774a51.722,51.722,0,0,0,12.926,10.731l.883.518Zm48.039,1.021-.005,0ZM688,2486.3h0Zm-26.629-22.138v0Zm110.463-10.184v0Zm4.689-13.206.007,0Zm-3.488-35.406,0,.008Zm-6.893-13.09h0Zm-88.322-16.442-.009,0Zm47.562-10.072.005,0Zm.928-.311,0,.008Zm-12.815,100.271a37.546,37.546,0,1,1,36.135-47.635l-3.569.992a33.828,33.828,0,1,0-3.7,26.68l3.167,1.925a37.669,37.669,0,0,1-32.033,18.038Z" fill="#e6e6e6"/>
      <path id="Path_878" data-name="Path 878" d="M713.775,2443.212c-.273,0-.544-.007-.819-.022a14.99,14.99,0,1,1,11.95-24.986h0a14.99,14.99,0,0,1-11.131,25.008Zm-.025-26.267a11.277,11.277,0,1,0,8.4,3.735A11.245,11.245,0,0,0,713.75,2416.945Z" fill="#e6e6e6"/>
    </g>
    <g id="Group_438" data-name="Group 438">
      <g id="Group_427" data-name="Group 427">
        <rect id="Rectangle_250" data-name="Rectangle 250" width="8.637" height="35.758" rx="4.318" transform="translate(653.59 2626.877) rotate(-180)" fill="#ff8f8e"/>
        <path id="Path_879" data-name="Path 879" d="M654.615,2635.684H628a7.248,7.248,0,0,1,.246-2.76c1.014-3.43,4.371-4.73,8.972-7.838a59,59,0,0,0,6.8-5.373h10.6Z" fill="#b8f2e5"/>
        <path id="Path_880" data-name="Path 880" d="M627.994,2634.221h26.621v1.463H627.994a7.541,7.541,0,0,1-.035-.782C627.96,2634.658,627.974,2634.43,627.994,2634.221Z" fill="#fff"/>
        <circle id="Ellipse_48" data-name="Ellipse 48" cx="2.563" cy="2.563" r="2.563" transform="translate(647.516 2626.877)" fill="#fff"/>
        <g id="Group_426" data-name="Group 426">
          <path id="Path_881" data-name="Path 881" d="M650.08,2631.625a2.185,2.185,0,1,1,2.185-2.185A2.188,2.188,0,0,1,650.08,2631.625Zm0-4.074a1.89,1.89,0,1,0,1.889,1.889A1.891,1.891,0,0,0,650.08,2627.551Z" fill="#b8f2e5"/>
        </g>
        <path id="Path_882" data-name="Path 882" d="M640.5,2622.688l3.416,3.417,1.035-1.035-3.3-3.3C641.256,2622.089,640.873,2622.4,640.5,2622.688Z" fill="#fff"/>
        <path id="Path_883" data-name="Path 883" d="M641.664,2628.359l1.035-1.035-3.583-3.583c-.421.31-.827.6-1.2.866Z" fill="#fff"/>
        <path id="Path_884" data-name="Path 884" d="M635.28,2626.344l4.2,4.2,1.034-1.034-3.975-3.976C636.107,2625.817,635.688,2626.086,635.28,2626.344Z" fill="#fff"/>
      </g>
      <g id="Group_429" data-name="Group 429">
        <rect id="Rectangle_251" data-name="Rectangle 251" width="8.637" height="35.758" rx="4.318" transform="translate(690.247 2626.877) rotate(180)" fill="#ff8f8e"/>
        <path id="Path_885" data-name="Path 885" d="M680.676,2635.684h26.619a7.269,7.269,0,0,0-.247-2.76c-1.014-3.43-4.37-4.73-8.971-7.838a59,59,0,0,1-6.8-5.373h-10.6Z" fill="#b8f2e5"/>
        <path id="Path_886" data-name="Path 886" d="M707.3,2634.221H680.676v1.463H707.3a7.542,7.542,0,0,0,.035-.782C707.33,2634.658,707.317,2634.43,707.3,2634.221Z" fill="#fff"/>
        <circle id="Ellipse_49" data-name="Ellipse 49" cx="2.563" cy="2.563" r="2.563" transform="translate(682.648 2626.877)" fill="#fff"/>
        <g id="Group_428" data-name="Group 428">
          <path id="Path_887" data-name="Path 887" d="M685.211,2631.625a2.185,2.185,0,1,0-2.185-2.185A2.188,2.188,0,0,0,685.211,2631.625Zm0-4.074a1.89,1.89,0,1,1-1.89,1.889A1.891,1.891,0,0,1,685.211,2627.551Z" fill="#b8f2e5"/>
        </g>
        <path id="Path_888" data-name="Path 888" d="M694.789,2622.688l-3.417,3.417-1.034-1.035,3.3-3.3C694.035,2622.089,694.418,2622.4,694.789,2622.688Z" fill="#fff"/>
        <path id="Path_889" data-name="Path 889" d="M693.626,2628.359l-1.034-1.035,3.583-3.583c.421.31.827.6,1.2.866Z" fill="#fff"/>
        <path id="Path_890" data-name="Path 890" d="M700.01,2626.344l-4.2,4.2-1.035-1.034,3.975-3.976C699.184,2625.817,699.6,2626.086,700.01,2626.344Z" fill="#fff"/>
      </g>
      <g id="Group_430" data-name="Group 430">
        <rect id="Rectangle_252" data-name="Rectangle 252" width="14.498" height="10.633" transform="translate(663.853 2386.782)" fill="#ff8f8e"/>
        <ellipse id="Ellipse_50" data-name="Ellipse 50" cx="7.249" cy="6.616" rx="7.249" ry="6.616" transform="translate(663.853 2380.166)" fill="#ae324a"/>
        <path id="Path_891" data-name="Path 891" d="M682.834,2375.307a2.067,2.067,0,0,0-1.63-2.019v-5.741a6.288,6.288,0,0,0-6.27-6.269H667.27a6.287,6.287,0,0,0-6.269,6.269v5.693a2.068,2.068,0,1,0,0,4.135l.021,0c.325,7.928,4.713,14.209,10.08,14.209s9.771-6.3,10.082-14.25A2.068,2.068,0,0,0,682.834,2375.307Z" fill="#ff8f8e"/>
        <path id="Path_892" data-name="Path 892" d="M671.043,2376.031c-.136.589-.324,1.323-.582,2.159-.478,1.547-.82,2.219-.481,2.744a1.393,1.393,0,0,0,1.063.546" fill="#ae324a"/>
        <path id="Path_893" data-name="Path 893" d="M682.121,2365.541a4.175,4.175,0,0,0,.713-2.333v-.617a4.221,4.221,0,0,0-4.208-4.208h-.913a4.184,4.184,0,0,0-2.8,1.083,7.969,7.969,0,0,0-3.211-1.96,12.6,12.6,0,0,0-8.415-.823,6.762,6.762,0,0,0-4.049,2.531,6.2,6.2,0,0,0-.949,4.1,6.134,6.134,0,0,0,1.2,3.372,9.97,9.97,0,0,0-.552,3.427c0,2.821.949,5.107,2.12,5.107v-7.248a9.417,9.417,0,0,0,2.642.752c1.161.192,8.642,1.432,11.237-1.589.137-.16.259-.321.374-.481a4.175,4.175,0,0,0,2.407.765h.913a4.173,4.173,0,0,0,2.551-.873v8.674c1.171,0,2.12-2.286,2.12-5.107A7.694,7.694,0,0,0,682.121,2365.541Z" fill="#b8f2e5"/>
      </g>
      <g id="Group_432" data-name="Group 432">
        <path id="Path_894" data-name="Path 894" d="M685.7,2410.153H655.887v-13.1H685.7Z" fill="#ff8f8e"/>
        <g id="Group_431" data-name="Group 431">
          <path id="Path_895" data-name="Path 895" d="M709.546,2474.558H632.039c-.4-31.357,2.234-54.919,6.032-63.185a28.6,28.6,0,0,1,5.892-8.36,25.429,25.429,0,0,1,11.924-5.962c.565.715,6.283,7.7,15.744,7.279a19.6,19.6,0,0,0,14.067-7.279,24.377,24.377,0,0,1,11.924,5.962,27.123,27.123,0,0,1,5.612,8.36C706.771,2419.7,709.433,2443.213,709.546,2474.558Z" fill="#b8f2e5"/>
        </g>
      </g>
      <path id="Path_896" data-name="Path 896" d="M632.039,2474.558a418.64,418.64,0,0,0,11.924,137.129h11.924c.906-18.245,2.56-43.882,5.822-74.651,2.729-25.733,4.133-38.6,6.1-38.629,2.5-.037,6.3,20.279,11.925,113.28H691.66l9.285-71.189,8.6-65.94Z" fill="#20221d"/>
      <g id="Group_434" data-name="Group 434">
        <g id="Group_433" data-name="Group 433">
          <path id="Path_897" data-name="Path 897" d="M682.508,2474.9a4.606,4.606,0,0,1,3.245-1.143,6.354,6.354,0,0,0,3.31-.558,7.578,7.578,0,0,0,1.73-1.68,10.15,10.15,0,0,1,6.461-3.132c3.658-.161,4.213.767,4.213.767s-7.1,7.656-10.956,7.8S682.508,2474.9,682.508,2474.9Z" fill="#ae324a"/>
          <path id="Path_898" data-name="Path 898" d="M674.576,2475.773c-.623.16-1.022,1.113-1.022,1.113s6.363,1.638,7.437,1.887c2.4.555,5.527,1.434,6.384,1.752a4.633,4.633,0,0,0,2.86.476,10.36,10.36,0,0,0,2.377-1.278S679.044,2474.622,674.576,2475.773Z" fill="#ae324a"/>
          <path id="Path_899" data-name="Path 899" d="M706.93,2477.888c-.192.1-1.594.446-4.4,1.137-5.66,1.394-3.76.733-5.606,1.285a10.347,10.347,0,0,1-4.7.68c-.189-.026-.652-.133-1.571-.347-1.474-.343-2.99-.582-4.12-.983-1.7-.6-4.313-1.19-5.586-1.623s-7.529-1.953-7.529-1.953a1.838,1.838,0,0,1,1.728-1.444c1.379.044,2.072.088,2.072.088a3.122,3.122,0,0,1,2.653-.885c.976.049,3.028.277,5.136.466,2,.178,3.829.276,4.961-.287,2.279-1.135,4.371-5.035,8.407-6s11.737-2.033,11.737-2.033C710.573,2475.17,708.1,2477.271,706.93,2477.888Z" fill="#ff8f8e"/>
          <path id="Path_900" data-name="Path 900" d="M677.219,2474.728a1.684,1.684,0,0,0-.414.936c1.022.05,1.749.309,3.657.538a70.5,70.5,0,0,1,7.806,1.663,1.164,1.164,0,0,1,.743.994,23.837,23.837,0,0,0-2.49-.764c-1.35-.331-6.7-1.431-7.991-1.784-.332-.092-1.941-.4-2.311-.484a3.356,3.356,0,0,1,.478-1.127Z" fill="#ae324a"/>
        </g>
        <rect id="Rectangle_253" data-name="Rectangle 253" width="11.604" height="41.735" rx="5.802" transform="translate(691.665 2422.575) rotate(-20.662)" fill="#ff8f8e"/>
        <rect id="Rectangle_254" data-name="Rectangle 254" width="11.604" height="30.372" rx="5.802" transform="translate(705.82 2447.373) rotate(16.075)" fill="#ff8f8e"/>
        <path id="Path_901" data-name="Path 901" d="M701.877,2449.654l8.023-1.241a12.7,12.7,0,0,0-8.862-.985Q701.458,2448.541,701.877,2449.654Z" fill="#ae324a"/>
        <rect id="Rectangle_255" data-name="Rectangle 255" width="23.848" height="35.773" rx="4.389" transform="translate(676.934 2412.095) rotate(-23.825)" fill="#b8f2e5"/>
      </g>
      <g id="Group_436" data-name="Group 436">
        <g id="Group_435" data-name="Group 435">
          <path id="Path_902" data-name="Path 902" d="M658.874,2474.9a4.6,4.6,0,0,0-3.244-1.143,6.354,6.354,0,0,1-3.31-.558,7.557,7.557,0,0,1-1.73-1.68,10.151,10.151,0,0,0-6.461-3.132c-3.659-.161-4.213.767-4.213.767s7.1,7.656,10.955,7.8S658.874,2474.9,658.874,2474.9Z" fill="#ae324a"/>
          <path id="Path_903" data-name="Path 903" d="M666.807,2475.773c.623.16,1.021,1.113,1.021,1.113s-6.362,1.638-7.436,1.887c-2.4.555-5.528,1.434-6.384,1.752a4.633,4.633,0,0,1-2.86.476,10.339,10.339,0,0,1-2.377-1.278S662.338,2474.622,666.807,2475.773Z" fill="#ae324a"/>
          <path id="Path_904" data-name="Path 904" d="M634.453,2477.888c.191.1,1.594.446,4.4,1.137,5.659,1.394,3.759.733,5.606,1.285a10.347,10.347,0,0,0,4.7.68c.188-.026.652-.133,1.57-.347,1.474-.343,2.991-.582,4.121-.983,1.7-.6,4.313-1.19,5.586-1.623s7.528-1.953,7.528-1.953a1.838,1.838,0,0,0-1.727-1.444c-1.379.044-2.072.088-2.072.088a3.123,3.123,0,0,0-2.654-.885c-.975.049-3.027.277-5.136.466-2,.178-3.828.276-4.961-.287-2.278-1.135-4.37-5.035-8.407-6s-11.737-2.033-11.737-2.033C630.809,2475.17,633.277,2477.271,634.453,2477.888Z" fill="#ff8f8e"/>
          <path id="Path_905" data-name="Path 905" d="M664.164,2474.728a1.686,1.686,0,0,1,.413.936c-1.021.05-1.748.309-3.656.538a70.577,70.577,0,0,0-7.807,1.663,1.162,1.162,0,0,0-.742.994,23.863,23.863,0,0,1,2.489-.764c1.35-.331,6.7-1.431,7.991-1.784.332-.092,1.941-.4,2.311-.484a3.335,3.335,0,0,0-.478-1.127Z" fill="#ae324a"/>
        </g>
        <rect id="Rectangle_256" data-name="Rectangle 256" width="11.604" height="41.735" rx="5.802" transform="matrix(-0.936, -0.353, 0.353, -0.936, 634.991, 2461.625)" fill="#ff8f8e"/>
        <rect id="Rectangle_257" data-name="Rectangle 257" width="11.604" height="30.372" rx="5.802" transform="translate(643.973 2476.558) rotate(163.925)" fill="#ff8f8e"/>
        <path id="Path_906" data-name="Path 906" d="M639.505,2449.654l-8.022-1.241a12.7,12.7,0,0,1,8.862-.985Z" fill="#ae324a"/>
        <rect id="Rectangle_258" data-name="Rectangle 258" width="23.848" height="35.773" rx="4.389" transform="translate(649.998 2444.819) rotate(-156.175)" fill="#b8f2e5"/>
      </g>
      <g id="Group_437" data-name="Group 437">
        <rect id="Rectangle_259" data-name="Rectangle 259" width="90.222" height="56.889" rx="6.444" transform="translate(618.732 2414.358)" fill="#e6e6e6"/>
        <rect id="Rectangle_260" data-name="Rectangle 260" width="90.222" height="5.111" rx="2" transform="translate(618.732 2471.247)" fill="#ccc"/>
        <path id="lock_1" d="M655.843,2442.8a8,8,0,1,1,8,8A8.009,8.009,0,0,1,655.843,2442.8Zm2,0a6,6,0,1,0,6-6A6,6,0,0,0,657.843,2442.8Zm5,3v-2.278a2,2,0,1,1,2,0v2.278Z" fill="#ccc"/>
      </g>
    </g>
  </g>
</svg>
