<svg xmlns="http://www.w3.org/2000/svg" width="497.564" height="325.437" viewBox="0 0 497.564 325.437">
  <g id="Group_363" data-name="Group 363" transform="translate(-504.777 -1800.994)">
    <g id="Group_327" data-name="Group 327">
      <rect id="Rectangle_185" data-name="Rectangle 185" width="12.146" height="19.564" transform="matrix(0.888, 0.46, -0.46, 0.888, 981.87, 1916.144)" fill="#ff8f8e"/>
      <path id="Path_661" data-name="Path 661" d="M988.533,1926.358c-.453,4.169-6.518,6.567-10.1,5.015a6.057,6.057,0,0,1-2.922-2.949,6.435,6.435,0,0,1,.394-5.533,6.95,6.95,0,0,1,8.235-2.92C986.828,1920.97,988.817,1923.74,988.533,1926.358Z" fill="#ae324a"/>
      <path id="Path_662" data-name="Path 662" d="M994.1,1919.1l2.525-4.872a6.01,6.01,0,0,0-2.564-8.077l-6.5-3.371a6.01,6.01,0,0,0-8.077,2.564l-2.5,4.831-1.818,3.509c-3.233,7.386-1.38,14.563,2.325,16.5,4.435,2.318,12.126-2.516,14.822-7.659Z" fill="#ff8f8e"/>
      <path id="Path_663" data-name="Path 663" d="M991.054,1913.286c-.21-1.658-2.108-3.43-4.119-4.079-1.688-.546-1.975.1-3.658-.405a6.993,6.993,0,0,1-4.49-4.065,6.409,6.409,0,0,1,.209-4.357c1.02-2.673,3.833-5.041,5.98-4.724,1.968.29,1.788,2.173,4.9,3.886,2.113,1.163,2.68.561,5.549,1.945a12.654,12.654,0,0,1,4.215,2.876,14.085,14.085,0,0,1,2.5,5.732c2.074,11.579-12.309,23.709-14.956,22.2-1.1-.628-1.091-4.149.29-6.006.467-.628,1.3-1.355,3.4-3.683.258-.287.259-.3.391-.434.98-.963,1.986-1.3,2.37-2.546a1.972,1.972,0,0,0-.129-1.741,1.641,1.641,0,0,0-1.439-.587,2.45,2.45,0,0,0-1.622,1.18c-.559.753-.639,1.4-.775,1.381-.168-.027-.23-1.066-.07-2.2C989.982,1914.952,991.227,1914.65,991.054,1913.286Z" fill="#b388eb"/>
      <path id="Path_664" data-name="Path 664" d="M992.73,1919.863c-.036-.013.3-.554.07-.938a.57.57,0,0,0-.355-.25.667.667,0,0,0-.553.218,1.037,1.037,0,0,0-.3.64c-.042.309.075.346.04.647a1.014,1.014,0,0,1-.4.781.658.658,0,0,1-.73,0,.415.415,0,0,1-.151-.4c.032-.095.106-.095.3-.264.159-.139.238-.209.266-.306.054-.19-.117-.264-.08-.5a.617.617,0,0,1,.215-.357c.109-.09.148-.057.252-.131.2-.147.124-.33.319-.541a.753.753,0,0,1,.889-.151,1.075,1.075,0,0,1,.5.695A.929.929,0,0,1,992.73,1919.863Z" fill="#ae324a"/>
      <rect id="Rectangle_186" data-name="Rectangle 186" width="2.586" height="1.952" rx="0.976" transform="translate(974.88 1911.422) rotate(27.392)" fill="#ff8f8e"/>
    </g>
    <g id="Group_329" data-name="Group 329">
      <rect id="Rectangle_187" data-name="Rectangle 187" width="11.192" height="40.254" rx="5.596" transform="matrix(-0.676, -0.737, 0.737, -0.676, 921.637, 1986.222)" fill="#ff8f8e"/>
      <path id="Path_665" data-name="Path 665" d="M919.774,1972.743l7.009,4.509a4.808,4.808,0,0,0-.344-2.7,5.718,5.718,0,0,0-5.35-3Z" fill="#ae324a"/>
      <rect id="Rectangle_188" data-name="Rectangle 188" width="11.192" height="46.336" rx="5.596" transform="translate(927.079 1972.743) rotate(90)" fill="#ff8f8e"/>
      <rect id="Rectangle_189" data-name="Rectangle 189" width="23.002" height="34.503" rx="4.389" transform="matrix(0.676, 0.737, -0.737, 0.676, 953.066, 1933.972)" fill="#b388eb"/>
      <g id="Group_328" data-name="Group 328">
        <path id="Path_666" data-name="Path 666" d="M881.714,1972.458a49.374,49.374,0,0,1-6.019.042c-1.215-.331-6.572-1.425-11.931-2.325-2.034-.341-3.175,1.47-.711,2.4,2.029.765,7.462,1.694,9.78,2.5,1.286.45.844.975.617,1.016a74.987,74.987,0,0,1-10.666.843c-2.993-.071-3.294,2.424-.309,2.772.742.086,3.68-.111,6.11-.133,2-.017,3.343-.13,4.3-.023,1.688.189,2.428.523.853,1.374-2.38,1.285-8.317,2.962-9.024,3.3-3.487,1.681-1.965,3.051.475,2.587,1.187-.226,6.774-2.206,10-3.2.507-.157,1.044.157.246.753l2.2-.188,6.444-1.267Z" fill="#ff8f8e"/>
        <path id="Path_667" data-name="Path 667" d="M874.249,1965.889c.572,1.991,4.615,4.493,5.3,5.231.7.754.473,1.4-.641,1.45-2.031.09.877,2.521,1.135,3.982a.521.521,0,0,1-.024.286c.072.3.156.62.252.926a4.764,4.764,0,0,0,1.637,2.333s-1.9,1.113-5.116,3.311c-.983.672-3.168,2.253-4.089,2.91a28.61,28.61,0,0,0-4.055,3.229c-.835,1.042-.027,2.471,1.777,1.378,2.462-1.492,6.118-3.958,8.005-4.759,1.482-.629,4.6-1.058,6.418-1.713a33.77,33.77,0,0,1,4.937-1.47c1.016-.147,5.111-.269,5.111-.269l-.341-6.464-.028-.53-.017-.321-.1-1.965a36.191,36.191,0,0,1-4.862-.118,4.875,4.875,0,0,1-2.666-1.21c-.418-.485-.894-1.1-1.463-1.865a5.271,5.271,0,0,0-3.344-2.369,11.512,11.512,0,0,1-6.886-4.952C874.72,1963.009,873.525,1963.373,874.249,1965.889Z" fill="#ff8f8e"/>
        <path id="Path_668" data-name="Path 668" d="M888.793,1982.853a2.848,2.848,0,0,0,.88-1.758c.024-.975.071-1.495.071-1.495a2.457,2.457,0,0,1,.231,2A2.186,2.186,0,0,1,888.793,1982.853Z" fill="#ae324a"/>
        <path id="Path_669" data-name="Path 669" d="M879.881,1984.131s-.9-2.6-1.686-4.689a18.462,18.462,0,0,0-2.5-4.235,6.5,6.5,0,0,1,2.024,2.375,18.359,18.359,0,0,1,1.894,4.154A4.926,4.926,0,0,1,879.881,1984.131Z" fill="#ae324a"/>
        <path id="Path_670" data-name="Path 670" d="M877.562,1974.607a30.637,30.637,0,0,0,2.226,4.066,12.118,12.118,0,0,0,3.7,3.131,34.851,34.851,0,0,1-3.328-3.476C879.313,1977.142,877.562,1974.607,877.562,1974.607Z" fill="#ae324a"/>
      </g>
    </g>
    <g id="Group_330" data-name="Group 330">
      <path id="Path_671" data-name="Path 671" d="M638.92,2093.733c-4.283-.258-4.355,7.349-4.319,9.85.1,6.7,1.174,13.39,1.628,20.075-.05.416-.1.833-.15,1.248a.808.808,0,0,0,.995.9.759.759,0,0,0,1.02-.774c-.023-.416-.054-.833-.08-1.249.9-7.117,1.954-14.262,2.621-21.429C640.808,2100.493,642.116,2093.925,638.92,2093.733Z" fill="#b388eb"/>
      <path id="Path_672" data-name="Path 672" d="M658.529,2111.075c-2.986-2.925-8.2-.466-10.713,1.68-3.528,3.007-5.848,7.722-7.228,12.069a.833.833,0,0,0,0,.534c-.171.889,1.14,1.549,1.632.628,2.472-4.629,8.149-6.644,12.531-9.038C656.5,2115.993,660.992,2113.488,658.529,2111.075Z" fill="#b388eb"/>
      <path id="Path_673" data-name="Path 673" d="M648.779,2102.137c-4.85-4.018-6.759,9.657-6.8,11.994a.891.891,0,0,0,1.765.144,1,1,0,0,0,.132-.169C645.323,2111.761,652.212,2104.983,648.779,2102.137Z" fill="#b388eb"/>
      <path id="Path_674" data-name="Path 674" d="M660.818,2121.854c-1.5-4.568-11.351,1.089-13.88,2.2a.7.7,0,0,0-.466.669.9.9,0,0,0,.914,1.435,11.96,11.96,0,0,1,3.2-.067,39.8,39.8,0,0,0,5.5-.256C657.914,2125.595,661.7,2124.551,660.818,2121.854Z" fill="#b388eb"/>
      <path id="Path_675" data-name="Path 675" d="M619.187,2116.948c4.384,2.394,10.06,4.409,12.532,9.038.493.921,1.8.261,1.632-.628a.82.82,0,0,0,0-.534c-1.38-4.347-3.7-9.062-7.227-12.069-2.519-2.146-7.728-4.6-10.714-1.68C612.944,2113.488,617.439,2115.993,619.187,2116.948Z" fill="#b388eb"/>
      <path id="Path_676" data-name="Path 676" d="M625.157,2102.137c4.849-4.018,6.758,9.657,6.8,11.994a.891.891,0,0,1-1.765.144.9.9,0,0,1-.132-.169C628.612,2111.761,621.723,2104.983,625.157,2102.137Z" fill="#b388eb"/>
      <path id="Path_677" data-name="Path 677" d="M613.117,2121.854c1.5-4.568,11.352,1.089,13.882,2.2a.7.7,0,0,1,.464.669.9.9,0,0,1-.914,1.435,11.953,11.953,0,0,0-3.2-.067,39.8,39.8,0,0,1-5.5-.256C616.021,2125.595,612.232,2124.551,613.117,2121.854Z" fill="#b388eb"/>
    </g>
    <g id="Group_331" data-name="Group 331">
      <path id="Path_678" data-name="Path 678" d="M794.948,2081.282c-5.914-.356-6.014,10.147-5.964,13.6.133,9.25,1.621,18.49,2.248,27.721-.069.574-.137,1.15-.207,1.723a1.116,1.116,0,0,0,1.375,1.237,1.048,1.048,0,0,0,1.407-1.069c-.031-.575-.074-1.15-.11-1.725,1.242-9.826,2.7-19.692,3.619-29.589C797.555,2090.617,799.361,2081.548,794.948,2081.282Z" fill="#b388eb"/>
      <path id="Path_679" data-name="Path 679" d="M822.024,2105.227c-4.123-4.039-11.315-.643-14.793,2.32-4.871,4.153-8.074,10.663-9.98,16.665a1.15,1.15,0,0,0-.005.738c-.236,1.227,1.574,2.138,2.253.867,3.413-6.391,11.253-9.174,17.3-12.48C819.218,2112.018,825.425,2108.56,822.024,2105.227Z" fill="#b388eb"/>
      <path id="Path_680" data-name="Path 680" d="M808.561,2092.886c-6.7-5.548-9.332,13.335-9.385,16.562a1.231,1.231,0,0,0,2.437.2,1.363,1.363,0,0,0,.182-.233C803.79,2106.175,813.3,2096.815,808.561,2092.886Z" fill="#b388eb"/>
      <path id="Path_681" data-name="Path 681" d="M825.185,2120.111c-2.068-6.307-15.674,1.5-19.166,3.038a.969.969,0,0,0-.643.924,1.242,1.242,0,0,0,1.262,1.982,16.481,16.481,0,0,1,4.418-.094,54.565,54.565,0,0,0,7.593-.353C821.175,2125.277,826.408,2123.836,825.185,2120.111Z" fill="#b388eb"/>
      <path id="Path_682" data-name="Path 682" d="M767.7,2113.337c6.053,3.306,13.891,6.089,17.3,12.48.68,1.271,2.49.36,2.253-.867a1.136,1.136,0,0,0,0-.738c-1.907-6-5.107-12.512-9.98-16.665-3.478-2.963-10.67-6.359-14.794-2.32C759.08,2108.56,765.287,2112.018,767.7,2113.337Z" fill="#b388eb"/>
      <path id="Path_683" data-name="Path 683" d="M775.945,2092.886c6.7-5.548,9.33,13.335,9.385,16.562a1.231,1.231,0,0,1-2.438.2,1.367,1.367,0,0,1-.183-.233C780.714,2106.175,771.2,2096.815,775.945,2092.886Z" fill="#b388eb"/>
      <path id="Path_684" data-name="Path 684" d="M759.319,2120.111c2.068-6.307,15.676,1.5,19.168,3.038a.966.966,0,0,1,.642.924,1.243,1.243,0,0,1-1.263,1.982,16.468,16.468,0,0,0-4.416-.094,54.565,54.565,0,0,1-7.594-.353C763.329,2125.277,758.1,2123.836,759.319,2120.111Z" fill="#b388eb"/>
    </g>
    <g id="Group_332" data-name="Group 332">
      <path id="Path_685" data-name="Path 685" d="M536.891,1879.283a1.7,1.7,0,0,1-.5-.073l-8.368-2.6a1.7,1.7,0,0,1-1.193-1.566l-.211-6.7a32.8,32.8,0,0,1-7.273-6.04l-6.619,1.018a1.692,1.692,0,0,1-1.761-.891l-4.079-7.742a1.7,1.7,0,0,1,.266-1.954l4.583-4.882a32.773,32.773,0,0,1-.865-9.414l-5.4-3.963a1.7,1.7,0,0,1-.617-1.872l2.593-8.364a1.7,1.7,0,0,1,1.566-1.193l6.7-.21a32.8,32.8,0,0,1,6.041-7.273l-1.019-6.62a1.691,1.691,0,0,1,.892-1.761l7.742-4.079a1.7,1.7,0,0,1,1.952.263l4.883,4.585a32.566,32.566,0,0,1,9.415-.863l3.962-5.405a1.683,1.683,0,0,1,1.876-.615l8.359,2.59a1.7,1.7,0,0,1,1.193,1.566l.211,6.7a32.831,32.831,0,0,1,7.273,6.039l6.621-1.017a1.706,1.706,0,0,1,1.759.889l4.079,7.744a1.689,1.689,0,0,1-.266,1.954l-4.583,4.88a32.852,32.852,0,0,1,.866,9.416l5.4,3.963a1.7,1.7,0,0,1,.619,1.866l-2.6,8.37a1.7,1.7,0,0,1-1.565,1.193l-6.7.21a32.787,32.787,0,0,1-6.04,7.271l1.019,6.62a1.706,1.706,0,0,1-.886,1.761l-7.749,4.079a1.687,1.687,0,0,1-1.953-.264l-4.881-4.584a32.877,32.877,0,0,1-9.415.865l-3.963,5.4A1.7,1.7,0,0,1,536.891,1879.283Zm-7.876-4.659,7.688,2.384,4.464-6.091.6.043a30.582,30.582,0,0,0,9.907-.91l.585-.154,5.5,5.167,7.122-3.749-1.148-7.462.457-.4a30.6,30.6,0,0,0,6.355-7.65l.307-.523,7.547-.238,2.385-7.687-6.09-4.464.043-.6a30.69,30.69,0,0,0-.912-9.908l-.152-.587,5.166-5.5-3.75-7.121-7.459,1.148-.4-.456a30.647,30.647,0,0,0-7.654-6.356l-.522-.309-.236-7.547-7.688-2.382-4.466,6.09-.6-.043a30.466,30.466,0,0,0-9.905.909l-.586.154-5.5-5.167-7.12,3.751,1.147,7.459-.458.4a30.6,30.6,0,0,0-6.355,7.652l-.306.523-7.549.238-2.383,7.686,6.09,4.465-.043.6a30.636,30.636,0,0,0,.911,9.906l.152.585-5.166,5.5,3.751,7.121,7.459-1.148.4.458a30.638,30.638,0,0,0,7.652,6.352l.522.306Zm28.437.6,0,0Zm-28.778-.709h0Zm-15.763-13.105v0Zm65.389-6.028v0Zm2.776-7.818,0,0Zm-2.066-20.958,0,0Zm-4.08-7.749h0Zm-52.282-9.732-.005,0Zm28.154-5.962,0,0Zm.55-.185,0,.005Zm-7.586,59.355a22.226,22.226,0,1,1,21.39-28.2l-2.113.587a20.026,20.026,0,1,0-2.19,15.793l1.875,1.14a22.293,22.293,0,0,1-18.962,10.677Z" fill="#e6e6e6"/>
      <path id="Path_686" data-name="Path 686" d="M543.933,1849.012c-.162,0-.322,0-.485-.013a8.873,8.873,0,1,1,7.074-14.79h0a8.874,8.874,0,0,1-6.589,14.8Zm-.015-15.549a6.676,6.676,0,1,0,4.971,2.211A6.656,6.656,0,0,0,543.918,1833.463Z" fill="#e6e6e6"/>
    </g>
    <g id="Group_333" data-name="Group 333">
      <path id="Path_687" data-name="Path 687" d="M713.422,2083.112a1.738,1.738,0,0,1-.5-.073l-8.368-2.6a1.7,1.7,0,0,1-1.193-1.566l-.211-6.7a32.814,32.814,0,0,1-7.273-6.039l-6.619,1.017a1.69,1.69,0,0,1-1.761-.891l-4.079-7.742a1.7,1.7,0,0,1,.266-1.954l4.583-4.882a32.773,32.773,0,0,1-.865-9.414L682,2038.309a1.7,1.7,0,0,1-.617-1.872l2.593-8.364a1.705,1.705,0,0,1,1.566-1.193l6.7-.21a32.839,32.839,0,0,1,6.04-7.273l-1.018-6.62a1.691,1.691,0,0,1,.892-1.761l7.742-4.079a1.7,1.7,0,0,1,1.952.264l4.883,4.584a32.566,32.566,0,0,1,9.415-.863l3.962-5.405a1.683,1.683,0,0,1,1.876-.615l8.359,2.59a1.7,1.7,0,0,1,1.193,1.566l.211,6.7a32.858,32.858,0,0,1,7.273,6.039l6.621-1.017a1.706,1.706,0,0,1,1.759.889l4.079,7.744a1.689,1.689,0,0,1-.266,1.954l-4.583,4.88a32.814,32.814,0,0,1,.865,9.416l5.406,3.963a1.7,1.7,0,0,1,.619,1.866l-2.6,8.37a1.7,1.7,0,0,1-1.565,1.193l-6.7.21a32.772,32.772,0,0,1-6.04,7.271l1.019,6.62a1.7,1.7,0,0,1-.886,1.761L735.005,2081a1.687,1.687,0,0,1-1.953-.263l-4.881-4.585a32.877,32.877,0,0,1-9.415.866l-3.963,5.405A1.7,1.7,0,0,1,713.422,2083.112Zm-7.876-4.66,7.688,2.384,4.464-6.09.6.043a30.613,30.613,0,0,0,9.907-.911l.585-.154,5.5,5.167,7.122-3.749-1.148-7.462.457-.4a30.615,30.615,0,0,0,6.355-7.65l.307-.523,7.547-.238,2.384-7.686-6.089-4.465.043-.6a30.7,30.7,0,0,0-.912-9.908l-.152-.587,5.166-5.5-3.75-7.121-7.459,1.148-.4-.456a30.628,30.628,0,0,0-7.653-6.357l-.522-.308-.236-7.548-7.688-2.382-4.466,6.091-.6-.043a30.466,30.466,0,0,0-9.905.908l-.586.154-5.5-5.167-7.12,3.751,1.147,7.46-.458.4a30.6,30.6,0,0,0-6.355,7.652l-.306.523-7.549.238-2.383,7.687,6.09,4.464-.043.6a30.643,30.643,0,0,0,.911,9.907l.152.584-5.166,5.5,3.751,7.121,7.459-1.148.4.458a30.638,30.638,0,0,0,7.652,6.352l.522.307Zm28.437.6,0,0Zm-28.778-.709h0Zm-15.763-13.1v0Zm65.389-6.028v0Zm2.776-7.817,0,0Zm-2.066-20.959,0,.005Zm-4.08-7.749h0Zm-52.282-9.732-.005,0Zm28.154-5.962,0,0Zm.55-.184,0,0Zm-7.586,59.355a22.227,22.227,0,1,1,21.39-28.2l-2.113.587a20.024,20.024,0,1,0-2.19,15.793l1.875,1.14a22.3,22.3,0,0,1-18.962,10.677Z" fill="#e6e6e6"/>
      <path id="Path_688" data-name="Path 688" d="M720.464,2052.841c-.162,0-.322-.005-.485-.013a8.873,8.873,0,1,1,7.074-14.791h0a8.874,8.874,0,0,1-6.589,14.8Zm-.015-15.549a6.676,6.676,0,1,0,4.971,2.211A6.655,6.655,0,0,0,720.449,2037.292Z" fill="#e6e6e6"/>
    </g>
    <g id="Group_337" data-name="Group 337">
      <rect id="Rectangle_190" data-name="Rectangle 190" width="271.694" height="207" rx="9.089" transform="translate(646.505 1819.54)" fill="#e6e6e6"/>
      <circle id="Ellipse_35" data-name="Ellipse 35" cx="2.667" cy="2.667" r="2.667" transform="translate(882.373 1828.044)" fill="#ccc"/>
      <circle id="Ellipse_36" data-name="Ellipse 36" cx="2.667" cy="2.667" r="2.667" transform="translate(892.108 1828.044)" fill="#ccc"/>
      <circle id="Ellipse_37" data-name="Ellipse 37" cx="2.667" cy="2.667" r="2.667" transform="translate(901.97 1828.044)" fill="#ccc"/>
      <g id="Group_336" data-name="Group 336">
        <g id="Group_334" data-name="Group 334">
          <rect id="Rectangle_191" data-name="Rectangle 191" width="97.882" height="3.199" rx="1.6" transform="translate(677.768 2002.741)" fill="#ccc"/>
          <rect id="Rectangle_192" data-name="Rectangle 192" width="89.007" height="3.199" rx="1.6" transform="translate(677.768 1994.408)" fill="#ccc"/>
          <rect id="Rectangle_193" data-name="Rectangle 193" width="83.034" height="3.199" rx="1.6" transform="translate(677.768 1977.741)" fill="#ccc"/>
          <rect id="Rectangle_194" data-name="Rectangle 194" width="94.368" height="3.199" rx="1.6" transform="translate(677.768 1986.075)" fill="#ccc"/>
        </g>
        <path id="Path_689" data-name="Path 689" d="M772.451,1843.338v91.483H680.968v-91.483h91.483m3.2-3.2H677.768v97.883H775.65v-97.883Z" fill="#ccc"/>
        <path id="accept_cr" d="M715.876,1959.093a10.833,10.833,0,1,1,10.832,10.833A10.846,10.846,0,0,1,715.876,1959.093Zm2.708,0a8.125,8.125,0,1,0,8.124-8.125A8.126,8.126,0,0,0,718.584,1959.093Zm5.814,3.666-2.709-2.709a1.354,1.354,0,0,1,1.914-1.914l1.751,1.75,4.459-4.459a1.354,1.354,0,0,1,1.915,1.914l-5.416,5.417a1.355,1.355,0,0,1-1.914,0Z" fill="#ccc"/>
        <path id="pic_big_1" d="M720.3,1897.62a2.135,2.135,0,0,1-2.135-2.136v-12.81a2.134,2.134,0,0,1,2.135-2.134h12.81a2.134,2.134,0,0,1,2.135,2.134v12.81a2.135,2.135,0,0,1-2.135,2.136Zm0-2.136h12.81v-12.81H720.3Zm1.067-3.2,3.2-5.337,3.2,4.27,2.135-2.135,2.135,3.2Zm6.405-5.338a1.067,1.067,0,1,1,1.067,1.068A1.067,1.067,0,0,1,727.777,1886.944Z" fill="#ccc"/>
        <g id="Group_335" data-name="Group 335">
          <rect id="Rectangle_195" data-name="Rectangle 195" width="97.882" height="3.199" rx="1.6" transform="translate(789.053 2002.741)" fill="#ccc"/>
          <rect id="Rectangle_196" data-name="Rectangle 196" width="89.007" height="3.199" rx="1.6" transform="translate(789.053 1994.408)" fill="#ccc"/>
          <rect id="Rectangle_197" data-name="Rectangle 197" width="83.034" height="3.199" rx="1.6" transform="translate(789.053 1977.741)" fill="#ccc"/>
          <rect id="Rectangle_198" data-name="Rectangle 198" width="94.368" height="3.199" rx="1.6" transform="translate(789.053 1986.075)" fill="#ccc"/>
        </g>
        <path id="Path_695" data-name="Path 695" d="M883.736,1843.338v91.483H792.252v-91.483h91.484m3.2-3.2H789.053v97.883h97.882v-97.883Z" fill="#ccc"/>
        <path id="accept_cr-2" data-name="accept_cr" d="M827.161,1959.093a10.833,10.833,0,1,1,10.832,10.833A10.845,10.845,0,0,1,827.161,1959.093Zm2.708,0a8.125,8.125,0,1,0,8.124-8.125A8.126,8.126,0,0,0,829.869,1959.093Zm5.813,3.666-2.708-2.709a1.354,1.354,0,0,1,1.914-1.914l1.751,1.75,4.459-4.459a1.354,1.354,0,0,1,1.915,1.914l-5.417,5.417a1.355,1.355,0,0,1-1.914,0Z" fill="#ccc"/>
        <path id="pic_big_1-2" data-name="pic_big_1" d="M831.589,1897.62a2.135,2.135,0,0,1-2.135-2.136v-12.81a2.134,2.134,0,0,1,2.135-2.134H844.4a2.134,2.134,0,0,1,2.135,2.134v12.81a2.135,2.135,0,0,1-2.135,2.136Zm0-2.136H844.4v-12.81h-12.81Zm1.067-3.2,3.2-5.337,3.2,4.27,2.135-2.135,2.135,3.2Zm6.405-5.338a1.067,1.067,0,1,1,1.067,1.068A1.067,1.067,0,0,1,839.062,1886.944Z" fill="#ccc"/>
      </g>
    </g>
    <g id="Group_339" data-name="Group 339">
      <rect id="Rectangle_199" data-name="Rectangle 199" width="8.33" height="34.489" rx="4.165" transform="translate(882.979 2117.362) rotate(-161.246)" fill="#ff8f8e"/>
      <path id="Path_701" data-name="Path 701" d="M881.184,2125.723l-24.311-8.254a7,7,0,0,1,1.081-2.445c1.989-2.818,5.459-2.964,10.624-4.376a56.979,56.979,0,0,0,7.879-2.8l9.68,3.286Z" fill="#b388eb"/>
      <path id="Path_702" data-name="Path 702" d="M857.325,2116.132l24.313,8.255-.454,1.336-24.313-8.255c.053-.224.121-.467.21-.725C857.159,2116.52,857.242,2116.316,857.325,2116.132Z" fill="#fff"/>
      <circle id="Ellipse_38" data-name="Ellipse 38" cx="2.472" cy="2.472" r="2.472" transform="translate(876.506 2116.142)" fill="#fff"/>
      <g id="Group_338" data-name="Group 338">
        <path id="Path_703" data-name="Path 703" d="M878.3,2120.61a2.108,2.108,0,1,1,2.673-1.318A2.111,2.111,0,0,1,878.3,2120.61Zm1.263-3.722a1.823,1.823,0,1,0,1.14,2.312A1.826,1.826,0,0,0,879.564,2116.888Z" fill="#b388eb"/>
      </g>
      <path id="Path_704" data-name="Path 704" d="M872.324,2109.478l2.061,4.179,1.266-.624-1.993-4.043Q872.969,2109.251,872.324,2109.478Z" fill="#fff"/>
      <path id="Path_705" data-name="Path 705" d="M871.628,2115.017l1.266-.624-2.162-4.383c-.48.152-.942.293-1.368.416Z" fill="#fff"/>
      <path id="Path_706" data-name="Path 706" d="M866.422,2111.2l2.533,5.138,1.266-.624-2.4-4.864C867.34,2110.973,866.874,2111.088,866.422,2111.2Z" fill="#fff"/>
    </g>
    <g id="Group_341" data-name="Group 341">
      <rect id="Rectangle_200" data-name="Rectangle 200" width="8.33" height="34.489" rx="4.165" transform="translate(948.038 2114.415) rotate(154.257)" fill="#ff8f8e"/>
      <path id="Path_707" data-name="Path 707" d="M947.061,2126.43H921.387a6.971,6.971,0,0,1,.238-2.662c.977-3.308,4.215-4.562,8.653-7.56a56.918,56.918,0,0,0,6.561-5.182h10.222Z" fill="#b388eb"/>
      <path id="Path_708" data-name="Path 708" d="M921.385,2125.019h25.676v1.411H921.385a7.292,7.292,0,0,1-.034-.754C921.353,2125.44,921.365,2125.22,921.385,2125.019Z" fill="#fff"/>
      <circle id="Ellipse_39" data-name="Ellipse 39" cx="2.472" cy="2.472" r="2.472" transform="translate(940.215 2117.935)" fill="#fff"/>
      <g id="Group_340" data-name="Group 340">
        <path id="Path_709" data-name="Path 709" d="M942.687,2122.515a2.107,2.107,0,1,1,2.108-2.107A2.11,2.11,0,0,1,942.687,2122.515Zm0-3.93a1.823,1.823,0,1,0,1.823,1.823A1.825,1.825,0,0,0,942.687,2118.585Z" fill="#b388eb"/>
      </g>
      <path id="Path_710" data-name="Path 710" d="M933.449,2113.9l3.3,3.295,1-1-3.187-3.187C934.176,2113.317,933.807,2113.615,933.449,2113.9Z" fill="#fff"/>
      <path id="Path_711" data-name="Path 711" d="M934.57,2119.365l1-1-3.456-3.456c-.406.3-.8.581-1.161.835Z" fill="#fff"/>
      <path id="Path_712" data-name="Path 712" d="M928.413,2117.421l4.05,4.051,1-1-3.834-3.834C929.21,2116.914,928.806,2117.173,928.413,2117.421Z" fill="#fff"/>
    </g>
    <g id="Group_342" data-name="Group 342">
      <path id="Path_713" data-name="Path 713" d="M923.369,1991.455c-7.348,4.14-13.269,8-17.571,10.96-13.8,9.5-16.574,13.652-17.606,15.335-2.379,3.88-3.255,7.284-4.827,17.583-2.549,16.7-3.609,29.772-4.261,36.657-.685,7.242-1.859,17.575-3.975,30.1l15.334,1.136a261.271,261.271,0,0,0,8.236-27.262c5.365-22.047,5.372-34.658,13.728-38.249,2.041-.878,2.351-.259,11.83.2,14.966.717,22.45,1.075,28.444-1.331,3.648-1.465,11.551-5.845,16.9-21.273Z" fill="#20221d"/>
    </g>
    <g id="Group_343" data-name="Group 343">
      <rect id="Rectangle_201" data-name="Rectangle 201" width="23.002" height="17.252" rx="4.417" transform="matrix(0.888, 0.46, -0.46, 0.888, 967.975, 1930.371)" fill="#ff8f8e"/>
      <path id="Path_714" data-name="Path 714" d="M971.829,1932.368a17.65,17.65,0,0,0-18.258,1.214c-1.964,1.378-6.572,3.165-11.5,9.275-12.528,15.544-17.626,42.526-18.706,48.6l45.953,23.811c6.456-4.976,21.363-17.882,26.271-38.2,1.433-5.932,1.094-13.919-.32-24.1a17.7,17.7,0,0,0-9.374-13.3,8.318,8.318,0,0,1-14.07-7.29Z" fill="#b388eb"/>
    </g>
    <path id="Path_715" data-name="Path 715" d="M923.369,1991.455a190.591,190.591,0,0,0-13.879,22.6c-6.683,12.823-10.011,19.4-9.371,27.546.343,4.367,2.5,9.112,6.815,18.6,3.274,7.2,6.4,13.119,10.224,19.879,4.175,7.378,9.881,17.04,17.18,28.255l12.613-.361a184.97,184.97,0,0,0-18.292-57.712,114.5,114.5,0,0,0,33.651-26.126,110.381,110.381,0,0,0,7.012-8.874Z" fill="#444"/>
    <g id="Group_345" data-name="Group 345">
      <rect id="Rectangle_202" data-name="Rectangle 202" width="11.192" height="40.254" rx="5.596" transform="translate(944.936 2000.431) rotate(-132.533)" fill="#ff8f8e"/>
      <path id="Path_716" data-name="Path 716" d="M943.073,1986.952l7.008,4.509a4.8,4.8,0,0,0-.343-2.705,5.719,5.719,0,0,0-5.35-3Z" fill="#ae324a"/>
      <rect id="Rectangle_203" data-name="Rectangle 203" width="11.192" height="46.336" rx="5.596" transform="translate(950.378 1986.952) rotate(90)" fill="#ff8f8e"/>
      <rect id="Rectangle_204" data-name="Rectangle 204" width="23.002" height="34.503" rx="4.389" transform="matrix(0.676, 0.737, -0.737, 0.676, 976.365, 1948.181)" fill="#b388eb"/>
      <g id="Group_344" data-name="Group 344">
        <path id="Path_717" data-name="Path 717" d="M905.013,1986.667a49.374,49.374,0,0,1-6.019.042c-1.215-.331-6.572-1.426-11.931-2.325-2.035-.341-3.175,1.47-.711,2.4,2.028.765,7.462,1.694,9.78,2.5,1.285.45.844.975.617,1.016a75.006,75.006,0,0,1-10.667.842c-2.992-.07-3.293,2.425-.308,2.772.742.087,3.68-.11,6.109-.132,2-.018,3.344-.13,4.3-.023,1.688.189,2.427.523.853,1.374-2.38,1.285-8.317,2.962-9.024,3.3-3.487,1.681-1.966,3.051.475,2.587,1.187-.226,6.774-2.206,10-3.2.508-.157,1.044.157.246.753l2.2-.188,6.445-1.267Z" fill="#ff8f8e"/>
        <path id="Path_718" data-name="Path 718" d="M897.547,1980.1c.573,1.991,4.616,4.493,5.3,5.23.7.755.473,1.4-.641,1.451-2.03.09.878,2.521,1.136,3.982a.52.52,0,0,1-.024.286c.072.3.156.62.251.926a4.77,4.77,0,0,0,1.638,2.333s-1.9,1.113-5.117,3.311c-.982.672-3.168,2.253-4.088,2.909a28.666,28.666,0,0,0-4.055,3.23c-.836,1.042-.027,2.471,1.777,1.378,2.462-1.492,6.118-3.958,8-4.759,1.482-.629,4.6-1.059,6.418-1.713a33.783,33.783,0,0,1,4.937-1.47c1.016-.147,5.111-.269,5.111-.269l-.341-6.464-.028-.53-.017-.321-.1-1.965a36.176,36.176,0,0,1-4.861-.118,4.888,4.888,0,0,1-2.667-1.21c-.417-.485-.893-1.1-1.463-1.865a5.269,5.269,0,0,0-3.343-2.369,11.512,11.512,0,0,1-6.886-4.952C898.019,1977.218,896.824,1977.582,897.547,1980.1Z" fill="#ff8f8e"/>
      </g>
    </g>
    <g id="Group_362" data-name="Group 362">
      <g id="Group_347" data-name="Group 347">
        <rect id="Rectangle_205" data-name="Rectangle 205" width="8.603" height="35.617" rx="4.301" transform="translate(545.241 2117.185) rotate(-180)" fill="#ff8f8e"/>
        <path id="Path_719" data-name="Path 719" d="M546.262,2125.957H519.748a7.212,7.212,0,0,1,.245-2.75c1.01-3.415,4.354-4.711,8.936-7.806a58.834,58.834,0,0,0,6.776-5.352h10.557Z" fill="#b388eb"/>
        <path id="Path_720" data-name="Path 720" d="M519.746,2124.5h26.516v1.457H519.746a7.485,7.485,0,0,1-.036-.779C519.712,2124.935,519.725,2124.708,519.746,2124.5Z" fill="#fff"/>
        <circle id="Ellipse_40" data-name="Ellipse 40" cx="2.553" cy="2.553" r="2.553" transform="translate(539.191 2117.185)" fill="#fff"/>
        <g id="Group_346" data-name="Group 346">
          <path id="Path_721" data-name="Path 721" d="M541.745,2121.914a2.177,2.177,0,1,1,2.176-2.176A2.179,2.179,0,0,1,541.745,2121.914Zm0-4.058a1.882,1.882,0,1,0,1.882,1.882A1.885,1.885,0,0,0,541.745,2117.856Z" fill="#b388eb"/>
        </g>
        <path id="Path_722" data-name="Path 722" d="M532.2,2113.012l3.4,3.4,1.031-1.031-3.292-3.292Q532.76,2112.578,532.2,2113.012Z" fill="#fff"/>
        <path id="Path_723" data-name="Path 723" d="M533.362,2118.661l1.031-1.031-3.569-3.569c-.419.309-.824.6-1.2.862Z" fill="#fff"/>
        <path id="Path_724" data-name="Path 724" d="M527,2116.654l4.183,4.182,1.031-1.03-3.96-3.96C527.827,2116.129,527.409,2116.4,527,2116.654Z" fill="#fff"/>
      </g>
      <g id="Group_349" data-name="Group 349">
        <rect id="Rectangle_206" data-name="Rectangle 206" width="8.603" height="35.617" rx="4.301" transform="translate(581.754 2117.185) rotate(-180)" fill="#ff8f8e"/>
        <path id="Path_725" data-name="Path 725" d="M572.221,2125.957h26.514a7.235,7.235,0,0,0-.246-2.75c-1.01-3.415-4.353-4.711-8.936-7.806a58.834,58.834,0,0,1-6.776-5.352H572.221Z" fill="#b388eb"/>
        <path id="Path_726" data-name="Path 726" d="M598.737,2124.5H572.221v1.457h26.516a7.483,7.483,0,0,0,.035-.779C598.77,2124.935,598.757,2124.708,598.737,2124.5Z" fill="#fff"/>
        <circle id="Ellipse_41" data-name="Ellipse 41" cx="2.553" cy="2.553" r="2.553" transform="translate(574.185 2117.185)" fill="#fff"/>
        <g id="Group_348" data-name="Group 348">
          <path id="Path_727" data-name="Path 727" d="M576.738,2121.914a2.177,2.177,0,1,0-2.177-2.176A2.179,2.179,0,0,0,576.738,2121.914Zm0-4.058a1.882,1.882,0,1,1-1.882,1.882A1.884,1.884,0,0,1,576.738,2117.856Z" fill="#b388eb"/>
        </g>
        <path id="Path_728" data-name="Path 728" d="M586.278,2113.012l-3.4,3.4-1.031-1.031,3.292-3.292C585.527,2112.416,585.909,2112.723,586.278,2113.012Z" fill="#fff"/>
        <path id="Path_729" data-name="Path 729" d="M585.12,2118.661l-1.03-1.031,3.568-3.569c.42.309.824.6,1.2.862Z" fill="#fff"/>
        <path id="Path_730" data-name="Path 730" d="M591.479,2116.654l-4.183,4.182-1.031-1.03,3.96-3.96C590.656,2116.129,591.073,2116.4,591.479,2116.654Z" fill="#fff"/>
      </g>
      <g id="Group_351" data-name="Group 351">
        <path id="Path_731" data-name="Path 731" d="M577.223,1901.313H547.529v-13.051h29.694Z" fill="#ff8f8e"/>
        <g id="Group_350" data-name="Group 350">
          <path id="Path_732" data-name="Path 732" d="M600.978,1965.465h-77.2c-.4-31.235,2.225-54.7,6.009-62.937a28.489,28.489,0,0,1,5.868-8.328,25.327,25.327,0,0,1,11.877-5.938c.563.712,6.258,7.665,15.682,7.25a19.522,19.522,0,0,0,14.012-7.25A24.284,24.284,0,0,1,589.1,1894.2a27.016,27.016,0,0,1,5.59,8.328C598.213,1910.823,600.865,1934.243,600.978,1965.465Z" fill="#b388eb"/>
        </g>
      </g>
      <path id="Path_733" data-name="Path 733" d="M523.775,1965.465a417,417,0,0,0,11.877,136.589h11.877c.9-18.173,2.55-43.71,5.8-74.357,2.717-25.632,4.116-38.448,6.078-38.478,2.484-.037,6.274,20.2,11.877,112.835h11.877l17.817-136.589Z" fill="#20221d"/>
      <g id="Group_353" data-name="Group 353">
        <rect id="Rectangle_207" data-name="Rectangle 207" width="11.558" height="80.024" rx="5.779" transform="translate(662.908 1894.463) rotate(90)" fill="#ff8f8e"/>
        <g id="Group_352" data-name="Group 352">
          <path id="Path_734" data-name="Path 734" d="M643.494,1897.088l.433,8.688s8.769-.6,10.84-.269,5.247,1.753,7.5,2.021a6.1,6.1,0,0,0,6.37-3.5l4.238-7.514s-12.6-1.715-14.352-2.022-5.495,1.853-6.767,2.053S643.494,1897.088,643.494,1897.088Z" fill="#ff8f8e"/>
          <path id="Path_735" data-name="Path 735" d="M663.859,1895.309s9.934,1.1,13.6,1.768,6.715,1.039,8.15,1.28,3.185,3.056-1.34,2.621c-4.659-.447-18.019-2.146-18.019-2.146Z" fill="#ff8f8e"/>
          <path id="Path_736" data-name="Path 736" d="M668.141,1898.528a56.9,56.9,0,0,1,5.917,1.306c1.334.507.842,3.151-.713,3.006a16.269,16.269,0,0,1-6.094-1.7C665.82,1900.264,665.862,1898.1,668.141,1898.528Z" fill="#ff8f8e"/>
          <path id="Path_737" data-name="Path 737" d="M665.819,1901.378a62.611,62.611,0,0,1,6.454,1.339c1.333.508.763,3.349-1.25,2.973s-4.664-.822-6.094-1.7S663.976,1901.054,665.819,1901.378Z" fill="#ff8f8e"/>
          <path id="Path_738" data-name="Path 738" d="M663.416,1903.83a55.51,55.51,0,0,1,5.786,1.212c1.218.463.554,3.023-1.283,2.68a17.44,17.44,0,0,1-5.316-1.505C661.3,1905.415,661.335,1903.44,663.416,1903.83Z" fill="#ff8f8e"/>
          <path id="Path_739" data-name="Path 739" d="M655.272,1902.187s4.558.02,6.426-.918a14.579,14.579,0,0,0,2.484-1.494s3.683,1.37,6.1.964c2.218-.372,2.348-1.522,2.348-1.522s.2,1.567-2.487,2.058c-2.377.434-6.024-.806-6.024-.806A7.99,7.99,0,0,1,659.25,1903,10.094,10.094,0,0,1,655.272,1902.187Z" fill="#ae324a"/>
          <path id="Path_740" data-name="Path 740" d="M671.351,1898.486c-3.245-.5-6.085-2.568-10.619-3.642,1.3.138,4.519.634,4.519.634S669.633,1897.583,671.351,1898.486Z" fill="#ae324a"/>
          <path id="Path_741" data-name="Path 741" d="M669.9,1905.48s-3.744-1.14-4.8-1.328a6.6,6.6,0,0,0-2.85-.247c-.758.255-.869.818-.307,1.644s3.214,1.615,3.214,1.615-2.774-.057-3.874-1.59c-.843-1.177.1-2.047,1.028-2.376a3.983,3.983,0,0,1,1.73-.044s-.4-1.055.362-1.573a4.731,4.731,0,0,1,2.421-.355,10.838,10.838,0,0,1,2.575.25c.82.274,2.874,1.241,2.874,1.241s-3.77-.812-4.873-.876a3.967,3.967,0,0,0-2.386.286.736.736,0,0,0-.262.872C664.963,1903.565,665.14,1903.69,669.9,1905.48Z" fill="#ae324a"/>
        </g>
        <rect id="Rectangle_208" data-name="Rectangle 208" width="23.755" height="35.632" rx="4.389" transform="translate(575.626 1912.119) rotate(-90)" fill="#b388eb"/>
      </g>
      <g id="Group_360" data-name="Group 360">
        <g id="Group_354" data-name="Group 354">
          <rect id="Rectangle_209" data-name="Rectangle 209" width="11.558" height="41.571" rx="5.779" transform="translate(523.237 1904.239) rotate(20.075)" fill="#ff8f8e"/>
          <path id="Path_742" data-name="Path 742" d="M518.519,1935.763a4.555,4.555,0,0,1,2.515,1.124,4.639,4.639,0,0,1,1.477,3.012l-.708,2.047Q520.161,1938.854,518.519,1935.763Z" fill="#ae324a"/>
          <rect id="Rectangle_210" data-name="Rectangle 210" width="11.558" height="47.852" rx="5.779" transform="translate(518.791 1983.394) rotate(-175.808)" fill="#ff8f8e"/>
        </g>
        <g id="Group_359" data-name="Group 359">
          <g id="Group_358" data-name="Group 358">
            <g id="Group_355" data-name="Group 355">
              <path id="Path_743" data-name="Path 743" d="M511.8,1999.412s4.218,1.038,5.788,1.53a5.3,5.3,0,0,0,1.986.407,2.679,2.679,0,0,0-1.846-2.51c-1.9-.671-5.058-2.183-5.058-2.183l-2.7-4.708S509.1,1997.831,511.8,1999.412Z" fill="#ae324a"/>
            </g>
            <g id="Group_356" data-name="Group 356">
              <path id="Path_744" data-name="Path 744" d="M511.547,1996.271s4.463.477,6.138.762a5.5,5.5,0,0,0,2.091.142,2.77,2.77,0,0,0-2.239-2.314c-2.04-.424-5.483-1.533-5.483-1.533l-3.422-4.446S508.566,1995.026,511.547,1996.271Z" fill="#ae324a"/>
            </g>
            <path id="Path_745" data-name="Path 745" d="M508.29,1998.339s2.564,3.082,4.062,3.882,6.1,2.834,6.1,2.834,1.008-.6-.494-2.139a46.987,46.987,0,0,0-5.73-4.235l-2.118-4.925Z" fill="#ff8f8e"/>
            <g id="Group_357" data-name="Group 357">
              <path id="Path_746" data-name="Path 746" d="M513.059,1964.833c-1.843,2.425-3.421,4.241-4.015,6.341-.9,3.167-2.135,8.664-3.127,12.961a16.761,16.761,0,0,0-.229,5.359c.357,2.812.426,5.468,1.036,10.286a44.88,44.88,0,0,0,2.777,9.372,3.077,3.077,0,0,0,1.511-3.77c-.668-2.8-.828-13.311.477-16.432.216-.518,1.982-1.438,1.982-1.438s3.211,4.274,4.519,5.988c2.71,3.556,4.341,2.569,4.967,2.212,1.467-.839-1.247-2.9-1.988-4.248-1.168-2.126-2.094-4.831-1.353-11.175.267-2.287-1.585-6.216-1.222-8.374a19.811,19.811,0,0,1,1.482-3.084Z" fill="#ff8f8e"/>
            </g>
          </g>
        </g>
        <rect id="Rectangle_211" data-name="Rectangle 211" width="23.755" height="35.632" rx="4.389" transform="translate(529.332 1934.326) rotate(-135)" fill="#b388eb"/>
      </g>
      <g id="Group_361" data-name="Group 361">
        <rect id="Rectangle_212" data-name="Rectangle 212" width="12.543" height="20.204" transform="translate(568.308 1888.364) rotate(180)" fill="#ff8f8e"/>
        <path id="Path_747" data-name="Path 747" d="M557.345,1874.361c-1.565,4.037,2.857,9.118,6.882,9.4a6.25,6.25,0,0,0,4.081-1.316,6.641,6.641,0,0,0,2.267-5.26,7.175,7.175,0,0,0-6.163-6.59C561.468,1870.23,558.329,1871.825,557.345,1874.361Z" fill="#ae324a"/>
        <path id="Path_748" data-name="Path 748" d="M555.684,1865.059v-5.667a6.206,6.206,0,0,1,6.188-6.188h7.566a6.206,6.206,0,0,1,6.188,6.188v9.7c-.545,8.307-5.653,14.008-9.971,14.023-5.168.018-9.923-8.068-9.952-14.065Z" fill="#ff8f8e"/>
        <path id="Path_749" data-name="Path 749" d="M561.244,1861.176c.98-1.42,3.563-2.143,5.715-1.783,1.808.3,1.764,1.031,3.547,1.367a7.224,7.224,0,0,0,6.048-1.594,6.613,6.613,0,0,0,1.879-4.094c.335-2.936-1.12-6.444-3.239-7.173-1.943-.669-2.672,1.143-6.339,1.235-2.49.062-2.724-.759-6.012-.853a13.058,13.058,0,0,0-5.231.635,14.537,14.537,0,0,0-5.014,4.068c-7.4,9.632.023,27.589,3.167,27.462,1.309-.053,2.972-3.286,2.588-5.646-.13-.8-.553-1.862-1.37-4.993-.1-.385-.093-.4-.153-.584-.44-1.348-1.2-2.133-.962-3.46a2.035,2.035,0,0,1,.944-1.535,1.7,1.7,0,0,1,1.6.145,2.53,2.53,0,0,1,.926,1.853c.155.956-.08,1.59.055,1.635.167.055.717-.868,1.108-1.98C561.436,1863.213,560.438,1862.345,561.244,1861.176Z" fill="#b388eb"/>
        <path id="Path_750" data-name="Path 750" d="M556.583,1866.41c.039.006-.013-.65.381-.893a.6.6,0,0,1,.445-.061.69.69,0,0,1,.4.463,1.067,1.067,0,0,1-.033.728c-.108.3-.232.282-.344.574a1.049,1.049,0,0,0-.006.905.68.68,0,0,0,.669.348.429.429,0,0,0,.328-.3c.015-.1-.052-.138-.148-.384a.762.762,0,0,1-.1-.407c.041-.2.232-.187.31-.421a.634.634,0,0,0-.027-.429c-.057-.134-.109-.122-.169-.24-.117-.232.043-.362-.036-.648a.791.791,0,0,0-.285-.41.808.808,0,0,0-.458-.151,1.121,1.121,0,0,0-.792.4A.958.958,0,0,0,556.583,1866.41Z" fill="#ae324a"/>
        <rect id="Rectangle_213" data-name="Rectangle 213" width="2.67" height="2.016" rx="1.008" transform="translate(576.961 1869.168) rotate(180)" fill="#ff8f8e"/>
      </g>
    </g>
  </g>
</svg>
