<svg xmlns="http://www.w3.org/2000/svg" width="175.765" height="90.357" viewBox="0 0 175.765 90.357">
  <g id="Group_622" data-name="Group 622" transform="translate(-1356.99 -1271.257)">
    <g id="Group_615" data-name="Group 615" transform="translate(1099.682 -1239.075)">
      <rect id="Rectangle_221" data-name="Rectangle 221" width="24.175" height="18.131" rx="4.417" transform="translate(275.763 2510.332)" fill="#ff8f8e"/>
      <path id="Path_773" data-name="Path 773" d="M280.324,2510.332a18.549,18.549,0,0,0-16.449,9.961,67.8,67.8,0,0,0-3.948,6.961,43.888,43.888,0,0,0-2.3,7.252c-1.218,5.633.919,25.318,7.711,51.243l53.043,14.94a189.313,189.313,0,0,0,6.028-30.876c1.34-12.266,2.063-19.641-.3-29.263-1.531-6.229-5.709-13.518-11.954-22.337a18.605,18.605,0,0,0-15.179-7.881,8.743,8.743,0,0,1-16.655,0Z" fill="#b388eb"/>
    </g>
    <g id="Group_621" data-name="Group 621" transform="translate(931.776 -610.428)">
      <path id="Path_731" data-name="Path 731" d="M577.223,1901.313H547.529v-13.051h29.694Z" fill="#ff8f8e"/>
      <g id="Group_350" data-name="Group 350">
        <path id="Path_732" data-name="Path 732" d="M600.978,1965.465h-77.2c-.4-31.235,2.225-54.7,6.009-62.937a28.489,28.489,0,0,1,5.868-8.328,25.327,25.327,0,0,1,11.877-5.938c.563.712,6.258,7.665,15.682,7.25a19.522,19.522,0,0,0,14.012-7.25A24.284,24.284,0,0,1,589.1,1894.2a27.016,27.016,0,0,1,5.59,8.328C598.213,1910.823,600.865,1934.243,600.978,1965.465Z" fill="#b388eb"/>
      </g>
    </g>
  </g>
</svg>
