<svg xmlns="http://www.w3.org/2000/svg" width="285.476" height="284.651" viewBox="0 0 285.476 284.651">
  <g id="Group_455" data-name="Group 455" transform="translate(-897.956 -2345.088)">
    <g id="Group_441" data-name="Group 441">
      <rect id="Rectangle_261" data-name="Rectangle 261" width="13.038" height="53.978" rx="6.519" transform="translate(1064.968 2562.079) rotate(0.367)" fill="#ff8f8e"/>
      <path id="Path_909" data-name="Path 909" d="M1062.99,2629.341l40.181.257a10.967,10.967,0,0,0-.345-4.17c-1.5-5.186-6.552-7.181-13.467-11.917a89.2,89.2,0,0,1-10.217-8.177l-16-.1Z" fill="#b8f2e5"/>
      <path id="Path_910" data-name="Path 910" d="M1103.188,2627.389l-40.184-.257-.014,2.209,40.184.257a11.445,11.445,0,0,0,.061-1.181C1103.235,2628.049,1103.217,2627.705,1103.188,2627.389Z" fill="#fff"/>
      <circle id="Ellipse_51" data-name="Ellipse 51" cx="3.869" cy="3.869" r="3.869" transform="translate(1066.027 2616.09)" fill="#fff"/>
      <g id="Group_440" data-name="Group 440">
        <path id="Path_911" data-name="Path 911" d="M1069.875,2623.258a3.3,3.3,0,1,0-3.278-3.32A3.3,3.3,0,0,0,1069.875,2623.258Zm.039-6.151a2.852,2.852,0,1,1-2.87,2.834A2.856,2.856,0,0,1,1069.914,2617.107Z" fill="#b8f2e5"/>
      </g>
      <path id="Path_912" data-name="Path 912" d="M1084.419,2609.86l-5.19,5.124-1.552-1.572,5.02-4.956C1083.287,2608.948,1083.862,2609.418,1084.419,2609.86Z" fill="#fff"/>
      <path id="Path_913" data-name="Path 913" d="M1082.61,2618.408l-1.552-1.571,5.443-5.374c.632.472,1.242.917,1.809,1.318Z" fill="#fff"/>
      <path id="Path_914" data-name="Path 914" d="M1092.265,2615.428l-6.379,6.3-1.552-1.572,6.039-5.962Q1091.348,2614.842,1092.265,2615.428Z" fill="#fff"/>
    </g>
    <g id="Group_443" data-name="Group 443">
      <rect id="Rectangle_262" data-name="Rectangle 262" width="13.038" height="53.978" rx="6.519" transform="translate(1108.169 2609.742) rotate(-74.165)" fill="#ff8f8e"/>
      <path id="Path_915" data-name="Path 915" d="M1172.466,2629.588l10.964-38.657a10.937,10.937,0,0,0-4.11-.779c-5.4.059-8.669,4.4-15.078,9.8a89.081,89.081,0,0,1-10.6,7.666l-4.365,15.391Z" fill="#b8f2e5"/>
      <path id="Path_916" data-name="Path 916" d="M1181.306,2590.325l-10.965,38.66,2.125.6,10.965-38.66a11.432,11.432,0,0,0-1.121-.374C1181.954,2590.456,1181.618,2590.382,1181.306,2590.325Z" fill="#fff"/>
      <circle id="Ellipse_52" data-name="Ellipse 52" cx="3.869" cy="3.869" r="3.869" transform="translate(1161.397 2616.56)" fill="#fff"/>
      <g id="Group_442" data-name="Group 442">
        <path id="Path_917" data-name="Path 917" d="M1168.44,2621.33a3.3,3.3,0,1,0-4.074,2.273A3.3,3.3,0,0,0,1168.44,2621.33Zm-5.918-1.679a2.852,2.852,0,1,1,1.966,3.523A2.857,2.857,0,0,1,1162.522,2619.651Z" fill="#b8f2e5"/>
      </g>
      <path id="Path_918" data-name="Path 918" d="M1159.406,2603.739l3.555,6.369-1.929,1.077-3.438-6.161C1158.225,2604.587,1158.831,2604.158,1159.406,2603.739Z" fill="#fff"/>
      <path id="Path_919" data-name="Path 919" d="M1167.163,2607.763l-1.929,1.077-3.728-6.68c.624-.483,1.215-.952,1.753-1.392Z" fill="#fff"/>
      <path id="Path_920" data-name="Path 920" d="M1166.866,2597.662l4.368,7.829-1.928,1.076-4.136-7.41C1165.761,2598.646,1166.324,2598.148,1166.866,2597.662Z" fill="#fff"/>
    </g>
    <g id="Group_445" data-name="Group 445">
      <rect id="Rectangle_263" data-name="Rectangle 263" width="17.516" height="63" rx="8.758" transform="matrix(0.676, -0.737, 0.737, 0.676, 973.145, 2492.326)" fill="#ff8f8e"/>
      <path id="Path_921" data-name="Path 921" d="M1022.484,2513.82l-10.969,7.057a7.529,7.529,0,0,1,.538-4.234c1.318-2.88,4.6-4.69,8.373-4.692Z" fill="#ae324a"/>
      <rect id="Rectangle_264" data-name="Rectangle 264" width="17.516" height="72.519" rx="8.758" transform="translate(1083.57 2513.82) rotate(90)" fill="#ff8f8e"/>
      <rect id="Rectangle_265" data-name="Rectangle 265" width="36" height="54" rx="4.389" transform="matrix(-0.676, 0.737, -0.737, -0.676, 1010.172, 2489.646)" fill="#b8f2e5"/>
      <g id="Group_444" data-name="Group 444">
        <path id="Path_922" data-name="Path 922" d="M1082.05,2513.373s8.067.435,9.42.066c1.9-.518,10.286-2.231,18.673-3.638,3.184-.534,4.969,2.3,1.113,3.754-3.175,1.2-11.679,2.651-15.306,3.919-2.012.7-1.322,1.526-.966,1.591a117.41,117.41,0,0,0,16.694,1.318c4.683-.111,5.154,3.794.482,4.338-1.16.135-5.759-.173-9.561-.207-3.136-.028-5.233-.2-6.728-.036-2.641.3-3.8.818-1.335,2.149,3.725,2.013,13.017,4.637,14.124,5.17,5.457,2.629,3.076,4.775-.744,4.048-1.858-.353-10.6-3.453-15.645-5.011-.8-.245-1.634.247-.385,1.179l-3.439-.294-10.085-1.982Z" fill="#ff8f8e"/>
        <path id="Path_923" data-name="Path 923" d="M1093.734,2503.093c-.9,3.116-7.223,7.031-8.3,8.186-1.1,1.18-.74,2.194,1,2.27,3.178.14-1.373,3.945-1.777,6.232a.81.81,0,0,0,.038.447c-.113.472-.244.97-.394,1.449a7.455,7.455,0,0,1-2.563,3.652s2.977,1.742,8.008,5.182c1.538,1.051,4.958,3.527,6.4,4.554a44.925,44.925,0,0,1,6.348,5.054c1.307,1.631.041,3.867-2.782,2.156-3.853-2.334-9.575-6.193-12.528-7.447-2.319-.984-7.2-1.657-10.044-2.681a52.74,52.74,0,0,0-7.728-2.3c-1.59-.23-8-.422-8-.422l.533-10.116.044-.829.026-.5.162-3.075s6.279.182,7.609-.185c.889-.245,2.969-.493,4.173-1.894.654-.76,1.4-1.718,2.29-2.92a8.249,8.249,0,0,1,5.233-3.707,18.02,18.02,0,0,0,10.777-7.749C1093,2498.585,1094.866,2499.155,1093.734,2503.093Z" fill="#ff8f8e"/>
        <path id="Path_924" data-name="Path 924" d="M1070.972,2529.642a4.453,4.453,0,0,1-1.378-2.751c-.037-1.525-.111-2.34-.111-2.34a3.846,3.846,0,0,0-.361,3.135A3.417,3.417,0,0,0,1070.972,2529.642Z" fill="#ae324a"/>
        <path id="Path_925" data-name="Path 925" d="M1084.919,2531.643s1.412-4.063,2.639-7.339a28.9,28.9,0,0,1,3.913-6.628s-1.458.8-3.168,3.717a28.781,28.781,0,0,0-2.965,6.5A7.714,7.714,0,0,0,1084.919,2531.643Z" fill="#ae324a"/>
        <path id="Path_926" data-name="Path 926" d="M1088.548,2516.736a47.854,47.854,0,0,1-3.483,6.364,18.972,18.972,0,0,1-5.786,4.9,54.6,54.6,0,0,0,5.208-5.44C1085.808,2520.705,1088.548,2516.736,1088.548,2516.736Z" fill="#ae324a"/>
      </g>
    </g>
    <g id="Group_446" data-name="Group 446">
      <rect id="Rectangle_266" data-name="Rectangle 266" width="19.009" height="30.619" transform="translate(962.694 2447.806) rotate(180)" fill="#ff8f8e"/>
      <path id="Path_927" data-name="Path 927" d="M946.08,2426.584c-2.372,6.118,4.329,13.818,10.429,14.243a9.476,9.476,0,0,0,6.185-1.994,10.071,10.071,0,0,0,3.436-7.972,10.876,10.876,0,0,0-9.341-9.987C952.329,2420.324,947.57,2422.741,946.08,2426.584Z" fill="#ae324a"/>
      <path id="Path_928" data-name="Path 928" d="M943.563,2412.487V2403.9a9.4,9.4,0,0,1,9.378-9.377h11.465a9.4,9.4,0,0,1,9.378,9.377v14.7c-.825,12.59-8.567,21.23-15.111,21.253-7.831.027-15.038-12.228-15.081-21.316Z" fill="#ff8f8e"/>
      <path id="Path_929" data-name="Path 929" d="M951.989,2406.6c1.485-2.153,5.4-3.248,8.661-2.7,2.739.457,2.672,1.563,5.375,2.072.579.109,5.636.979,9.166-2.416a10.03,10.03,0,0,0,2.848-6.2c.507-4.449-1.7-9.766-4.909-10.871-2.944-1.014-4.05,1.732-9.607,1.871-3.774.095-4.128-1.15-9.111-1.291a19.779,19.779,0,0,0-7.928.961,22.038,22.038,0,0,0-7.6,6.166c-11.219,14.6.034,41.81,4.8,41.618,1.984-.08,4.5-4.98,3.922-8.556-.2-1.209-.838-2.823-2.075-7.567-.153-.584-.142-.61-.232-.886-.668-2.042-1.825-3.232-1.459-5.243a3.083,3.083,0,0,1,1.431-2.326,2.569,2.569,0,0,1,2.423.22,3.833,3.833,0,0,1,1.4,2.807c.235,1.449-.122,2.411.082,2.478.254.084,1.088-1.315,1.679-3C952.279,2409.69,950.767,2408.374,951.989,2406.6Z" fill="#b8f2e5"/>
      <path id="Path_930" data-name="Path 930" d="M944.925,2414.535c.06.009-.019-.986.578-1.353a.893.893,0,0,1,.673-.093,1.049,1.049,0,0,1,.612.7,1.622,1.622,0,0,1-.05,1.1c-.164.459-.353.427-.522.87a1.594,1.594,0,0,0-.01,1.372,1.03,1.03,0,0,0,1.014.526.645.645,0,0,0,.5-.447c.024-.156-.078-.209-.223-.581a1.157,1.157,0,0,1-.149-.617c.062-.3.352-.283.471-.638a.965.965,0,0,0-.042-.651c-.086-.2-.165-.185-.256-.363-.177-.351.066-.548-.054-.982a1.177,1.177,0,0,0-1.126-.85,1.684,1.684,0,0,0-1.2.6A1.45,1.45,0,0,0,944.925,2414.535Z" fill="#ae324a"/>
      <rect id="Rectangle_267" data-name="Rectangle 267" width="4.046" height="3.056" rx="1.528" transform="translate(975.807 2418.714) rotate(180)" fill="#ff8f8e"/>
    </g>
    <g id="Group_447" data-name="Group 447">
      <rect id="Rectangle_268" data-name="Rectangle 268" width="36" height="27" rx="4.417" transform="translate(972.256 2474.806) rotate(180)" fill="#ff8f8e"/>
      <path id="Path_931" data-name="Path 931" d="M965.463,2447.806a27.624,27.624,0,0,1,24.5,14.834c1.109,2.123,3.592,5.253,5.879,10.366a65.41,65.41,0,0,1,3.418,10.8c1.813,8.388-1.368,37.7-11.483,76.308l-78.989,22.25a281.614,281.614,0,0,1-8.977-45.981c-2-18.266-3.073-29.248.449-43.577,2.28-9.277,8.5-20.13,17.8-33.264a27.708,27.708,0,0,1,22.6-11.736,13.019,13.019,0,0,0,24.8,0Z" fill="#b8f2e5"/>
    </g>
    <g id="Group_449" data-name="Group 449">
      <path id="Path_932" data-name="Path 932" d="M987.773,2560.114c20.49-27.228,45.462-42.225,62.445-35.778,10.276,3.9,16.09,15.55,23.111,29.334a129.792,129.792,0,0,1,12.917,41.621l-26.577-.726c-9.965-22.643-19.073-28.5-26.108-28.87-23.2-1.22-31.676,57.355-66.9,61.308-20.9,2.346-39.918-14.964-40.942-15.921a60.189,60.189,0,0,1-16.936-28.718Z" fill="#20221d"/>
      <g id="Group_448" data-name="Group 448">
        <path id="Path_933" data-name="Path 933" d="M987.773,2560.114c10.286.843,24.01,2.246,40.1,4.7a446.225,446.225,0,0,1,46.74,9.159,331.317,331.317,0,0,1,65.991,25.137l-6.162,25.445c-46.574-20.683-79.127-18.813-100.825-12.578-18.11,5.205-35.759,15.48-68.508,17.466-29.664,1.8-39.528-5.148-44-9.333-13.319-12.461-12.7-32.1-12.323-37.75Z" fill="#444"/>
      </g>
    </g>
    <rect id="Rectangle_269" data-name="Rectangle 269" width="124.65" height="11.404" rx="5.702" transform="translate(1159.891 2526.37) rotate(-180)" fill="#ccc"/>
    <g id="Group_451" data-name="Group 451">
      <rect id="Rectangle_270" data-name="Rectangle 270" width="17.516" height="63" rx="8.758" transform="matrix(0.676, -0.737, 0.737, 0.676, 949.974, 2494.254)" fill="#ff8f8e"/>
      <path id="Path_934" data-name="Path 934" d="M999.313,2515.747l-10.968,7.057a7.519,7.519,0,0,1,.537-4.234c1.319-2.88,4.6-4.69,8.374-4.692Z" fill="#ae324a"/>
      <rect id="Rectangle_271" data-name="Rectangle 271" width="17.516" height="72.519" rx="8.758" transform="translate(1060.4 2515.747) rotate(90)" fill="#ff8f8e"/>
      <rect id="Rectangle_272" data-name="Rectangle 272" width="36" height="54" rx="4.389" transform="matrix(-0.676, 0.737, -0.737, -0.676, 987.001, 2491.573)" fill="#b8f2e5"/>
      <g id="Group_450" data-name="Group 450">
        <path id="Path_935" data-name="Path 935" d="M1058.879,2515.3s8.067.435,9.42.066c1.9-.518,10.286-2.231,18.673-3.638,3.184-.534,4.969,2.3,1.114,3.754-3.176,1.2-11.68,2.651-15.307,3.919-2.012.7-1.322,1.526-.966,1.591a117.41,117.41,0,0,0,16.694,1.318c4.683-.111,5.154,3.794.482,4.338-1.16.135-5.759-.173-9.561-.207-3.136-.028-5.233-.2-6.728-.036-2.641.3-3.8.818-1.334,2.149,3.724,2.013,13.016,4.637,14.123,5.17,5.457,2.629,3.076,4.775-.744,4.048-1.858-.353-10.6-3.453-15.645-5.011-.794-.245-1.634.247-.385,1.179l-3.439-.294-10.085-1.982Z" fill="#ff8f8e"/>
        <path id="Path_936" data-name="Path 936" d="M1070.563,2505.02c-.9,3.116-7.223,7.031-8.3,8.186-1.1,1.18-.74,2.194,1,2.27,3.177.14-1.374,3.945-1.778,6.232a.811.811,0,0,0,.038.447c-.112.472-.244.97-.394,1.449a7.456,7.456,0,0,1-2.562,3.652s2.977,1.742,8.007,5.182c1.538,1.051,4.958,3.527,6.4,4.554a44.925,44.925,0,0,1,6.348,5.054c1.307,1.631.042,3.867-2.782,2.156-3.853-2.334-9.575-6.193-12.528-7.447-2.319-.984-7.2-1.657-10.044-2.681a52.7,52.7,0,0,0-7.728-2.3c-1.59-.23-8-.422-8-.422l.533-10.116.044-.829.026-.5.163-3.075s6.278.182,7.608-.185c.889-.245,2.969-.493,4.173-1.894.654-.76,1.4-1.718,2.29-2.92a8.249,8.249,0,0,1,5.233-3.707,18.02,18.02,0,0,0,10.777-7.749C1069.826,2500.512,1071.7,2501.082,1070.563,2505.02Z" fill="#ff8f8e"/>
      </g>
    </g>
    <g id="Group_452" data-name="Group 452">
      <path id="Path_937" data-name="Path 937" d="M1134.409,2498.884a1.719,1.719,0,0,0,.495-.073l8.368-2.6a1.7,1.7,0,0,0,1.193-1.566l.212-6.7a32.811,32.811,0,0,0,7.273-6.039l6.618,1.018a1.693,1.693,0,0,0,1.761-.891l4.079-7.743a1.694,1.694,0,0,0-.265-1.954l-4.584-4.882a32.765,32.765,0,0,0,.866-9.413l5.4-3.964a1.7,1.7,0,0,0,.617-1.872l-2.594-8.364a1.7,1.7,0,0,0-1.566-1.193l-6.7-.21a32.817,32.817,0,0,0-6.04-7.273l1.019-6.62a1.692,1.692,0,0,0-.893-1.761l-7.742-4.078a1.7,1.7,0,0,0-1.951.263l-4.883,4.584a32.6,32.6,0,0,0-9.415-.863l-3.962-5.405a1.684,1.684,0,0,0-1.876-.615l-8.359,2.59a1.7,1.7,0,0,0-1.194,1.566l-.211,6.7a32.856,32.856,0,0,0-7.273,6.04l-6.621-1.018a1.707,1.707,0,0,0-1.758.889l-4.08,7.744a1.692,1.692,0,0,0,.266,1.954l4.584,4.88a32.852,32.852,0,0,0-.866,9.416l-5.405,3.963a1.7,1.7,0,0,0-.619,1.866l2.6,8.37a1.7,1.7,0,0,0,1.564,1.194l6.7.21a32.783,32.783,0,0,0,6.04,7.271l-1.019,6.619a1.7,1.7,0,0,0,.886,1.761l7.749,4.079a1.685,1.685,0,0,0,1.952-.263l4.882-4.585a32.838,32.838,0,0,0,9.415.866l3.962,5.4A1.7,1.7,0,0,0,1134.409,2498.884Zm7.876-4.66-7.688,2.385-4.464-6.091-.605.043a30.579,30.579,0,0,1-9.907-.911l-.586-.154-5.5,5.167-7.122-3.749,1.148-7.461-.458-.4a30.631,30.631,0,0,1-6.355-7.65l-.306-.523-7.547-.238-2.385-7.686,6.09-4.465-.043-.6a30.669,30.669,0,0,1,.912-9.908l.151-.587-5.166-5.5,3.75-7.121,7.46,1.148.4-.456a30.645,30.645,0,0,1,7.654-6.357l.522-.308.236-7.548,7.688-2.382,4.465,6.091.6-.043a30.475,30.475,0,0,1,9.905.908l.586.155,5.5-5.168,7.12,3.751-1.147,7.46.457.4a30.566,30.566,0,0,1,6.355,7.653l.307.522,7.548.238,2.383,7.687-6.089,4.465.043.6a30.608,30.608,0,0,1-.912,9.906l-.152.584,5.166,5.5-3.751,7.121-7.458-1.148-.4.458a30.635,30.635,0,0,1-7.651,6.352l-.522.307Zm-28.437.6,0,0Zm28.777-.709h0Zm15.763-13.1v0ZM1093,2474.986v0Zm-2.776-7.817,0,0Zm2.065-20.958,0,0Zm4.081-7.749h0Zm52.282-9.733.005,0Zm-28.155-5.962,0,0Zm-.549-.184,0,0Zm7.586,59.355a22.226,22.226,0,1,0-21.39-28.2l2.112.587a20.026,20.026,0,1,1,2.191,15.793l-1.875,1.14a22.3,22.3,0,0,0,18.962,10.677Z" fill="#e6e6e6"/>
      <path id="Path_938" data-name="Path 938" d="M1127.367,2468.613c.162,0,.322-.005.485-.013a8.873,8.873,0,1,0-7.074-14.791h0a8.873,8.873,0,0,0,6.589,14.8Zm.015-15.549a6.675,6.675,0,1,1-4.972,2.211A6.658,6.658,0,0,1,1127.382,2453.064Z" fill="#e6e6e6"/>
    </g>
    <g id="Group_453" data-name="Group 453">
      <path id="Path_939" data-name="Path 939" d="M1032.505,2397.524a1.28,1.28,0,0,0-.23.3l-3.177,5.842a1.289,1.289,0,0,0,.181,1.484l3.432,3.754a24.948,24.948,0,0,0-.758,7.136l-4.138,2.951a1.286,1.286,0,0,0-.486,1.417l1.882,6.37a1.286,1.286,0,0,0,1.179.922l5.077.228a24.878,24.878,0,0,0,4.514,5.578l-.841,5.017a1.291,1.291,0,0,0,.656,1.345l5.838,3.175a1.294,1.294,0,0,0,1.484-.18l3.754-3.434a24.87,24.87,0,0,0,7.136.757l2.951,4.14a1.284,1.284,0,0,0,1.418.485l6.37-1.881a1.289,1.289,0,0,0,.922-1.177l.228-5.078a24.762,24.762,0,0,0,5.577-4.516l5.017.842a1.278,1.278,0,0,0,1.345-.659l3.175-5.835a1.292,1.292,0,0,0-.181-1.483l-3.433-3.756a24.9,24.9,0,0,0,.758-7.135l4.139-2.953a1.294,1.294,0,0,0,.486-1.414l-1.882-6.372a1.283,1.283,0,0,0-1.179-.921l-5.077-.228a24.949,24.949,0,0,0-4.514-5.578l.84-5.017a1.289,1.289,0,0,0-.651-1.343l-5.844-3.177a1.287,1.287,0,0,0-1.482.18l-3.755,3.433a24.9,24.9,0,0,0-7.135-.756l-2.951-4.139a1.293,1.293,0,0,0-1.414-.489l-6.374,1.885a1.28,1.28,0,0,0-.922,1.177l-.227,5.078a24.961,24.961,0,0,0-5.579,4.514l-5.017-.841A1.289,1.289,0,0,0,1032.505,2397.524Zm-1.815,6.7,2.918-5.367,5.652.948.306-.343a23.235,23.235,0,0,1,5.87-4.751l.4-.226.256-5.722,5.858-1.733,3.326,4.666.459-.027a23.251,23.251,0,0,1,7.506.8l.444.122,4.23-3.867,5.367,2.918-.948,5.652.343.306a23.28,23.28,0,0,1,4.751,5.871l.228.4,5.721.256,1.731,5.858-4.665,3.325.027.458a23.257,23.257,0,0,1-.8,7.509l-.12.444,3.867,4.23-2.919,5.366-5.654-.948-.306.343a23.1,23.1,0,0,1-5.867,4.751l-.4.226-.257,5.724-5.858,1.73-3.326-4.665-.458.027a23.234,23.234,0,0,1-7.508-.8l-.444-.123-4.231,3.868-5.365-2.918.947-5.653-.343-.305a23.255,23.255,0,0,1-4.749-5.87l-.227-.4-5.724-.257-1.73-5.859,4.664-3.325-.027-.459a23.258,23.258,0,0,1,.8-7.506l.122-.443Zm15.144-15.385h0Zm-15.274,15.622h0Zm-1.634,15.473v0Zm38.752-31.343h0Zm5.648,2.781v0Zm9.974,12.491v0Zm1.884,6.375h0Zm-23.279,32.974,0,0Zm18.468-11.664v0Zm.4-.191h0Zm-35.552-28.262a16.87,16.87,0,1,0,26.562,4.009l-1.46.8a15.207,15.207,0,1,1-27.924,11.61,15.211,15.211,0,0,1,18.371-19.039l.416-1.612a16.918,16.918,0,0,0-15.965,4.233Z" fill="#e6e6e6"/>
      <path id="Path_940" data-name="Path 940" d="M1052.363,2410.257c-.088.086-.173.173-.257.264a6.735,6.735,0,1,0,11.678,4.3h0a6.735,6.735,0,0,0-11.421-4.562Zm8.224,8.464a5.067,5.067,0,1,1,1.533-3.835A5.049,5.049,0,0,1,1060.587,2418.721Z" fill="#e6e6e6"/>
    </g>
    <g id="Group_454" data-name="Group 454">
      <path id="Path_941" data-name="Path 941" d="M1143.72,2377.007a1.34,1.34,0,0,0,.028-.386l-.558-6.734a1.31,1.31,0,0,0-.98-1.16l-5.009-1.277a25.275,25.275,0,0,0-3.334-6.484l1.871-4.814a1.3,1.3,0,0,0-.377-1.475l-5.148-4.363a1.306,1.306,0,0,0-1.516-.126l-4.441,2.636a25.222,25.222,0,0,0-6.944-2.223l-2.081-4.732a1.313,1.313,0,0,0-1.307-.777l-6.731.557a1.313,1.313,0,0,0-1.159.98l-1.277,5.01a25.259,25.259,0,0,0-6.484,3.334l-4.815-1.872a1.3,1.3,0,0,0-1.475.378l-4.363,5.148a1.312,1.312,0,0,0-.128,1.514l2.637,4.441a25.139,25.139,0,0,0-2.221,6.946l-4.732,2.081a1.3,1.3,0,0,0-.775,1.309l.554,6.727a1.314,1.314,0,0,0,.98,1.16l5.011,1.277a25.349,25.349,0,0,0,3.333,6.485l-1.871,4.815a1.316,1.316,0,0,0,.375,1.473l5.151,4.364a1.3,1.3,0,0,0,1.515.126l4.44-2.637a25.309,25.309,0,0,0,6.945,2.224l2.082,4.731a1.311,1.311,0,0,0,1.3.778l6.736-.558a1.311,1.311,0,0,0,1.16-.979l1.276-5.01a25.314,25.314,0,0,0,6.483-3.335l4.814,1.872a1.311,1.311,0,0,0,1.474-.373l4.365-5.153a1.3,1.3,0,0,0,.128-1.514l-2.638-4.441a25.358,25.358,0,0,0,2.224-6.945l4.731-2.081A1.314,1.314,0,0,0,1143.72,2377.007Zm-2.194-6.708.512,6.186-5.331,2.345-.069.462a23.575,23.575,0,0,1-2.339,7.308l-.214.415,2.973,5-4.012,4.737-5.427-2.11-.374.278a23.611,23.611,0,0,1-6.821,3.508l-.445.144-1.439,5.643-6.186.512-2.345-5.33-.462-.069a23.653,23.653,0,0,1-7.308-2.34l-.417-.212-5,2.971-4.736-4.012,2.11-5.425-.277-.374a23.619,23.619,0,0,1-3.509-6.824l-.145-.445-5.643-1.438-.511-6.186,5.331-2.345.069-.462a23.5,23.5,0,0,1,2.337-7.307l.214-.415-2.972-5.006,4.013-4.735,5.425,2.109.375-.278a23.6,23.6,0,0,1,6.823-3.508l.445-.143,1.438-5.644,6.186-.512,2.345,5.331.462.068a23.62,23.62,0,0,1,7.307,2.34l.415.212,5.006-2.971,4.736,4.013-2.11,5.424.279.376a23.636,23.636,0,0,1,3.506,6.821l.143.445Zm-4.292,21.512,0,0Zm4.27-21.786h0Zm-7.236-14.057h0Zm-15.454,48.229h0Zm-6.349.785v0Zm-15.436-5.054,0,0Zm-5.154-4.365Zm1.4-40.991,0,0Zm-9.189,20.2v0Zm-.23.383h0Zm45.958,4.2a17.14,17.14,0,1,0-24.8,11.4l.8-1.492a15.443,15.443,0,1,1,12.257.987l.545,1.6a17.2,17.2,0,0,0,11.2-12.5Z" fill="#e6e6e6"/>
      <path id="Path_942" data-name="Path 942" d="M1119.752,2377.256c.027-.122.05-.243.071-.367a6.843,6.843,0,1,0-12.317,2.857h0a6.844,6.844,0,0,0,12.246-2.49Zm-11.7-2.607a5.148,5.148,0,1,1,.834,4.113A5.135,5.135,0,0,1,1108.047,2374.649Z" fill="#e6e6e6"/>
    </g>
  </g>
</svg>
