<svg xmlns="http://www.w3.org/2000/svg" width="378.686" height="324.987" viewBox="0 0 378.686 324.987">
  <g id="Group_45" data-name="Group 45" transform="translate(-2080.471 -2665.051)">
    <g id="Group_3" data-name="Group 3" transform="translate(2123.441 2665.051)">
      <path id="accept_cr" d="M0,10.06A10.06,10.06,0,1,1,10.06,20.119,10.071,10.071,0,0,1,0,10.06Zm2.514,0A7.545,7.545,0,1,0,10.06,2.514,7.544,7.544,0,0,0,2.514,10.06Zm5.4,3.4L5.4,10.949A1.257,1.257,0,0,1,7.177,9.17L8.8,10.8l4.141-4.141a1.258,1.258,0,1,1,1.779,1.78l-5.03,5.029a1.255,1.255,0,0,1-1.778,0Z" transform="translate(133.19 132.462)" fill="#ccc"/>
      <g id="Group_1" data-name="Group 1" transform="translate(0 44.281)">
        <path id="Path_3" data-name="Path 3" d="M2197,2709.078l42.281,73.683-73.683,42.281-42.281-73.683L2197,2709.078m1.1-4.055-78.838,45.237L2164.5,2829.1l78.838-45.237-45.237-78.837Z" transform="translate(-2119.26 -2705.023)" fill="#ccc"/>
        <path id="pic_big_1" d="M6.185,19.206.263,8.89A1.983,1.983,0,0,1,1,6.183L11.314.264A1.982,1.982,0,0,1,14.021,1l5.92,10.318a1.982,1.982,0,0,1-.733,2.706L8.89,19.94a1.979,1.979,0,0,1-2.7-.734ZM1.983,7.9,7.9,18.221,18.221,12.3,12.3,1.982ZM7.4,9.368l4.552,1.959.733-2.707,3.2,1.593-8.6,4.933Zm2.58-1.481a.988.988,0,1,1,.86.5A.989.989,0,0,1,9.976,7.888Z" transform="translate(51.935 51.935)" fill="#ccc"/>
      </g>
      <path id="accept_cr-2" data-name="accept_cr" d="M0,10.06A10.06,10.06,0,1,1,10.06,20.12,10.07,10.07,0,0,1,0,10.06Zm2.514,0A7.545,7.545,0,1,0,10.06,2.514,7.544,7.544,0,0,0,2.514,10.06Zm5.4,3.4L5.4,10.948A1.257,1.257,0,0,1,7.176,9.17L8.8,10.8l4.141-4.142a1.257,1.257,0,0,1,1.778,1.779l-5.03,5.029a1.257,1.257,0,0,1-1.779,0Z" transform="translate(86.106)" fill="#ccc"/>
      <g id="Group_2" data-name="Group 2" transform="translate(134.395 13.884)">
        <path id="Path_9" data-name="Path 9" d="M2328.5,2680.555v84.951h-84.952v-84.951H2328.5m2.971-2.971h-90.893v90.893h90.893v-90.893Z" transform="translate(-2240.577 -2677.584)" fill="#ccc"/>
        <path id="pic_big_1-2" data-name="pic_big_1" d="M1.983,15.861A1.984,1.984,0,0,1,0,13.878V1.982A1.983,1.983,0,0,1,1.983,0h11.9a1.982,1.982,0,0,1,1.982,1.982v11.9a1.983,1.983,0,0,1-1.982,1.983Zm0-1.983h11.9V1.982H1.983ZM2.974,10.9,5.948,5.947,8.921,9.912,10.9,7.929,12.886,10.9ZM8.922,5.947a.991.991,0,1,1,.991.991A.99.99,0,0,1,8.922,5.947Z" transform="translate(37.516 37.517)" fill="#ccc"/>
      </g>
    </g>
    <g id="Group_19" data-name="Group 19" transform="translate(2296.191 2770.604)">
      <g id="Group_10" data-name="Group 10" transform="translate(60.637 50.51)">
        <g id="Group_4" data-name="Group 4" transform="translate(0.618 19.611)">
          <rect id="Rectangle_1" data-name="Rectangle 1" width="12.826" height="46.131" rx="5.789" transform="translate(7.527 0) rotate(9.391)" fill="#ff8f8e"/>
          <path id="Path_13" data-name="Path 13" d="M2338.5,2855.538a5.049,5.049,0,0,1,2.974.708,5.145,5.145,0,0,1,2.23,2.981q-.175,1.188-.35,2.376Z" transform="translate(-2329.63 -2820.191)" fill="#ae324a"/>
          <rect id="Rectangle_2" data-name="Rectangle 2" width="12.826" height="53.101" rx="5.789" transform="translate(18.963 87.23) rotate(173.508)" fill="#ff8f8e"/>
        </g>
        <g id="Group_9" data-name="Group 9" transform="translate(5.686 87.779)">
          <g id="Group_8" data-name="Group 8">
            <g id="Group_5" data-name="Group 5" transform="translate(6.028 30.204)">
              <path id="Path_14" data-name="Path 14" d="M2344.044,2920.194s4.813.264,6.626.476a5.9,5.9,0,0,0,2.25.037,2.975,2.975,0,0,0-2.529-2.358c-2.211-.34-5.965-1.339-5.965-1.339l-3.916-4.579S2340.779,2919.024,2344.044,2920.194Z" transform="translate(-2340.509 -2912.43)" fill="#ae324a"/>
            </g>
            <g id="Group_6" data-name="Group 6" transform="translate(3.947 27.135)">
              <path id="Path_15" data-name="Path 15" d="M2343.328,2917.118s4.965-.4,6.85-.432a6.09,6.09,0,0,0,2.309-.275,3.073,3.073,0,0,0-2.917-2.064c-2.312-.042-6.295-.543-6.295-.543l-4.646-4.144S2339.822,2916.373,2343.328,2917.118Z" transform="translate(-2338.63 -2909.66)" fill="#ae324a"/>
            </g>
            <path id="Path_16" data-name="Path 16" d="M2340.049,2919.556s3.431,2.833,5.229,3.4,7.232,1.837,7.232,1.837.977-.864-.978-2.231a52.153,52.153,0,0,0-7.12-3.44l-3.322-4.935Z" transform="translate(-2334.53 -2882.037)" fill="#ff8f8e"/>
            <g id="Group_7" data-name="Group 7">
              <path id="Path_17" data-name="Path 17" d="M2338.894,2885.165c-1.511,3.023-2.858,5.329-3.074,7.74-.326,3.638-.546,9.888-.743,14.777a18.63,18.63,0,0,0,.853,5.891c.968,2.993,1.59,5.875,3.246,11a49.8,49.8,0,0,0,4.957,9.649,3.415,3.415,0,0,0,.872-4.421c-1.305-2.918-3.642-14.346-2.861-18.017.129-.609,1.865-1.976,1.865-1.976s4.381,4,6.159,5.6c3.687,3.319,5.262,1.907,5.871,1.389,1.428-1.215-1.957-2.906-3.041-4.222-1.711-2.078-3.278-4.838-3.775-11.909-.178-2.548-3.007-6.451-3.055-8.88a22.031,22.031,0,0,1,.983-3.667Z" transform="translate(-2335.067 -2885.165)" fill="#ff8f8e"/>
            </g>
          </g>
        </g>
        <rect id="Rectangle_3" data-name="Rectangle 3" width="26.36" height="39.541" rx="4.389" transform="translate(25.023 45.824) rotate(-161.672)" fill="#b388eb"/>
      </g>
      <g id="Group_12" data-name="Group 12" transform="translate(0 169.234)">
        <rect id="Rectangle_4" data-name="Rectangle 4" width="9.359" height="38.746" rx="3.332" transform="matrix(-0.988, -0.153, 0.153, -0.988, 28.871, 39.723)" fill="#ff8f8e"/>
        <path id="Path_18" data-name="Path 18" d="M2303.7,2959.458l-28.5-4.427a7.859,7.859,0,0,1,.722-2.915c1.656-3.5,5.467-4.337,10.909-6.9a63.793,63.793,0,0,0,8.178-4.622l11.347,1.763Z" transform="translate(-2275.199 -2910.135)" fill="#b388eb"/>
        <path id="Path_19" data-name="Path 19" d="M2275.443,2952.212l28.5,4.428-.243,1.566-28.5-4.427a8.2,8.2,0,0,1,.092-.844C2275.333,2952.674,2275.386,2952.432,2275.443,2952.212Z" transform="translate(-2275.199 -2908.883)" fill="#fff"/>
        <circle id="Ellipse_1" data-name="Ellipse 1" cx="2.777" cy="2.777" r="2.777" transform="translate(21.909 39.106)" fill="#fff"/>
        <g id="Group_11" data-name="Group 11" transform="translate(22.317 39.516)">
          <path id="Path_20" data-name="Path 20" d="M2297.35,2953.477a2.368,2.368,0,1,1,2.7-1.976A2.37,2.37,0,0,1,2297.35,2953.477Zm.677-4.363a2.048,2.048,0,1,0,1.709,2.337A2.051,2.051,0,0,0,2298.027,2949.115Z" transform="translate(-2295.345 -2948.769)" fill="#b388eb"/>
        </g>
        <path id="Path_21" data-name="Path 21" d="M2289.239,2943.022l3.09,4.226,1.281-.936-2.989-4.088C2290.146,2942.505,2289.685,2942.771,2289.239,2943.022Z" transform="translate(-2273.686 -2909.959)" fill="#fff"/>
        <path id="Path_22" data-name="Path 22" d="M2289.841,2949.122l1.281-.937-3.24-4.432c-.5.263-.986.507-1.433.727Z" transform="translate(-2273.986 -2909.795)" fill="#fff"/>
        <path id="Path_23" data-name="Path 23" d="M2283.644,2945.757l3.8,5.194,1.281-.936-3.6-4.917C2284.615,2945.331,2284.123,2945.549,2283.644,2945.757Z" transform="translate(-2274.289 -2909.649)" fill="#fff"/>
      </g>
      <g id="Group_13" data-name="Group 13" transform="translate(82.784)">
        <rect id="Rectangle_5" data-name="Rectangle 5" width="13.948" height="22.467" transform="translate(9.622 19.03)" fill="#ff8f8e"/>
        <path id="Path_24" data-name="Path 24" d="M2371.05,2784.148c1.74,4.49-3.177,10.139-7.653,10.452a6.959,6.959,0,0,1-4.539-1.463,7.393,7.393,0,0,1-2.521-5.849,7.979,7.979,0,0,1,6.854-7.328C2366.465,2779.555,2369.957,2781.329,2371.05,2784.148Z" transform="translate(-2349.237 -2758.224)" fill="#ae324a"/>
        <path id="Path_25" data-name="Path 25" d="M2373.443,2775.681v-6.3a6.9,6.9,0,0,0-6.881-6.881h-8.414a6.9,6.9,0,0,0-6.881,6.881v10.788c.6,9.238,6.286,15.578,11.087,15.593,5.748.02,11.035-8.972,11.067-15.64Z" transform="translate(-2349.783 -2760.1)" fill="#ff8f8e"/>
        <path id="Path_26" data-name="Path 26" d="M2358.035,2774.413a27.926,27.926,0,0,1-4.2-2.379c-1.113-.74-2.01-1.43-2.66-1.96a9.166,9.166,0,0,1,1.727-5.226c1.623-2.184,3.808-2.875,5.926-3.546,1.99-.63,5.907-1.87,9.425.093a8.512,8.512,0,0,1,2.239,1.82,3.644,3.644,0,0,1,2.033-.124,4.392,4.392,0,0,1,2.54,2.13c1.758,2.786,2.109,8.2.654,14.464a40.2,40.2,0,0,1-2.286,6.905,6.69,6.69,0,0,1-1.838-3.338,8.578,8.578,0,0,1,.032-1.539,8.477,8.477,0,0,1,.188-1.081c.469-1.95,1.424-2.518,1.434-3.937,0-.146-.008-1.67-.936-2.1a1.761,1.761,0,0,0-1.633.233,2.09,2.09,0,0,0-.7.886,2.862,2.862,0,0,0-.28,1.307,48.078,48.078,0,0,1-5.831-.886A26.778,26.778,0,0,1,2358.035,2774.413Z" transform="translate(-2349.793 -2760.333)" fill="#b388eb"/>
        <path id="Path_27" data-name="Path 27" d="M2370.593,2775.9c-.044.007.014-.723-.424-.993a.657.657,0,0,0-.494-.068.774.774,0,0,0-.449.515,1.2,1.2,0,0,0,.036.81c.121.337.26.313.384.638a1.17,1.17,0,0,1,.007,1.006.756.756,0,0,1-.743.386.474.474,0,0,1-.365-.328c-.017-.114.058-.153.164-.427a.854.854,0,0,0,.11-.452c-.045-.223-.258-.208-.346-.469a.707.707,0,0,1,.031-.477c.063-.15.121-.136.187-.267.131-.257-.048-.4.04-.72a.866.866,0,0,1,.826-.624,1.234,1.234,0,0,1,.881.443A1.065,1.065,0,0,1,2370.593,2775.9Z" transform="translate(-2347.932 -2758.813)" fill="#ae324a"/>
        <rect id="Rectangle_6" data-name="Rectangle 6" width="2.969" height="2.242" rx="0.998" transform="translate(0 17.909)" fill="#ff8f8e"/>
      </g>
      <g id="Group_15" data-name="Group 15" transform="translate(25.376 171.145)">
        <rect id="Rectangle_7" data-name="Rectangle 7" width="9.359" height="38.746" rx="3.332" transform="translate(27.773 38.746) rotate(-180)" fill="#ff8f8e"/>
        <path id="Path_28" data-name="Path 28" d="M2326.99,2960.1h-28.843a7.863,7.863,0,0,1,.267-2.991c1.1-3.716,4.736-5.125,9.721-8.492a64,64,0,0,0,7.371-5.822h11.483Z" transform="translate(-2298.106 -2911.808)" fill="#b388eb"/>
        <path id="Path_29" data-name="Path 29" d="M2298.145,2956.982h28.845v1.585h-28.845a8.233,8.233,0,0,1-.039-.848C2298.108,2957.455,2298.123,2957.208,2298.145,2956.982Z" transform="translate(-2298.106 -2910.279)" fill="#fff"/>
        <circle id="Ellipse_2" data-name="Ellipse 2" cx="2.777" cy="2.777" r="2.777" transform="translate(21.192 38.746)" fill="#fff"/>
        <g id="Group_14" data-name="Group 14" transform="translate(21.602 39.155)">
          <path id="Path_30" data-name="Path 30" d="M2319.973,2954.9a2.368,2.368,0,1,1,2.369-2.368A2.37,2.37,0,0,1,2319.973,2954.9Zm0-4.415a2.047,2.047,0,1,0,2.049,2.047A2.05,2.05,0,0,0,2319.973,2950.489Z" transform="translate(-2317.606 -2950.168)" fill="#b388eb"/>
        </g>
        <path id="Path_31" data-name="Path 31" d="M2310.375,2945.8l3.7,3.7,1.121-1.121-3.581-3.58C2311.193,2945.15,2310.777,2945.485,2310.375,2945.8Z" transform="translate(-2296.783 -2911.592)" fill="#fff"/>
        <path id="Path_32" data-name="Path 32" d="M2311.907,2951.736l1.121-1.122-3.882-3.882c-.457.336-.9.653-1.3.937Z" transform="translate(-2297.056 -2911.384)" fill="#fff"/>
        <path id="Path_33" data-name="Path 33" d="M2305.268,2949.363l4.551,4.551,1.121-1.121-4.308-4.307Q2305.929,2948.947,2305.268,2949.363Z" transform="translate(-2297.334 -2911.195)" fill="#fff"/>
      </g>
      <path id="Path_34" data-name="Path 34" d="M2344.392,2874.424c-13.916-10.652-28.135-14.582-36.368-9.094-3.866,2.577-5.428,6.576-8.114,13.452-3.128,8.014-4.507,15.827-5.286,32.616-.361,7.772-.611,17.823-.33,29.618l12.821,1.6c7.243-34.429,18.166-44.663,27.359-47.135,14.61-3.926,28.43,10.789,43.161,3.874,8.252-3.874,12.415-12.479,14.623-18.946Z" transform="translate(-2273.154 -2749.28)" fill="#20221d"/>
      <g id="Group_16" data-name="Group 16" transform="translate(65.724 41.497)">
        <rect id="Rectangle_8" data-name="Rectangle 8" width="25.841" height="19.381" rx="4.417" transform="translate(20.621 0)" fill="#ff8f8e"/>
        <path id="Path_35" data-name="Path 35" d="M2360.024,2797.792a19.829,19.829,0,0,0-17.584,10.648c-1.246,2.389-4.918,6.554-6.673,15.193-4.461,21.98,4.4,51.527,6.461,58.143h58.143c3.868-8.3,12.066-28.878,6.461-51.682-1.637-6.659-6.1-14.45-12.778-23.877a19.888,19.888,0,0,0-16.226-8.425,9.345,9.345,0,0,1-17.8,0Z" transform="translate(-2334.527 -2797.792)" fill="#b388eb"/>
      </g>
      <path id="Path_36" data-name="Path 36" d="M2343.366,2868.969c-3.216-1.438-14.38-5.977-23.011-.823-8.472,5.058-9.672,16.568-10.877,28.144-.767,7.356-.128,14.184,1.179,27.541.929,9.5,1.979,17.374,2.788,22.917h12.921a88.18,88.18,0,0,1,5.947-31.033,86.365,86.365,0,0,1,5.8-12.038c30.9,7.208,55.188.372,60-7.755a40.48,40.48,0,0,0,4.985-15.01,34.485,34.485,0,0,0,0-6.461Z" transform="translate(-2271.539 -2748.969)" fill="#444"/>
      <g id="Group_18" data-name="Group 18" transform="translate(94.984 45.877)">
        <g id="Group_17" data-name="Group 17" transform="translate(12.987 18.954)">
          <rect id="Rectangle_9" data-name="Rectangle 9" width="12.573" height="45.222" rx="4.477" transform="translate(54.996 31.686) rotate(134.482)" fill="#ff8f8e"/>
          <rect id="Rectangle_10" data-name="Rectangle 10" width="12.573" height="52.055" rx="4.477" transform="matrix(0.207, 0.978, -0.978, 0.207, 50.932, 24.375)" fill="#ff8f8e"/>
          <path id="Path_37" data-name="Path 37" d="M2402.923,2844.421l8.129-1.716a16.207,16.207,0,0,0-9.446.422Z" transform="translate(-2369.543 -2816.339)" fill="#ae324a"/>
        </g>
        <rect id="Rectangle_11" data-name="Rectangle 11" width="25.841" height="38.762" rx="4.389" transform="translate(7.525 18.437) rotate(-45.518)" fill="#b388eb"/>
        <path id="Path_38" data-name="Path 38" d="M2399.373,2859.261s-12.58,2.371-14.979,2.6-5.794,2.978-8.557,3.343a46.577,46.577,0,0,1-9.243.007c-1.177-.033-2.223-.237-2.486-1.056a1.8,1.8,0,0,1,.209-1.809s-1.843.164-2.154-.85a2.528,2.528,0,0,1,.608-2.316,2.156,2.156,0,0,1-1.784-1.432c-.248-.873.784-2.173.784-2.173a1.78,1.78,0,0,1-.82-1.8c.077-.752,1.253-1.094,2.484-1.56.76-.288,5.617-1.439,6.363-1.782a3.269,3.269,0,0,0,.942-3.864c-1.356-2.918-1.706-4.81-.607-6.682.839-1.429,1.766-1.077,1.766-1.077s.2,3.113.844,4.032a23.012,23.012,0,0,1,2.057,3.871,7.522,7.522,0,0,0,3.522,3.009c.744.26,1.7.618,2.7.9a8.2,8.2,0,0,0,3.809.347c3.456-.773,13.081-3.32,13.081-3.32l.277,2.2h0Z" transform="translate(-2360.94 -2797.755)" fill="#ff8f8e"/>
      </g>
    </g>
    <g id="Group_20" data-name="Group 20" transform="translate(2152.093 2953.809)">
      <path id="Path_39" data-name="Path 39" d="M2171.524,2925.717c-4.745-.286-4.826,8.141-4.786,10.912.107,7.421,1.3,14.833,1.8,22.24-.056.459-.111.922-.167,1.382a.9.9,0,0,0,1.1.992.841.841,0,0,0,1.13-.857c-.025-.461-.06-.922-.089-1.384,1-7.884,2.165-15.8,2.9-23.739C2173.616,2933.207,2175.063,2925.93,2171.524,2925.717Z" transform="translate(-2142.793 -2925.71)" fill="#b388eb"/>
      <path id="Path_40" data-name="Path 40" d="M2192.6,2943.2c-3.308-3.24-9.077-.516-11.866,1.861-3.91,3.331-6.479,8.554-8.007,13.37a.925.925,0,0,0,0,.592c-.189.985,1.263,1.716,1.808.7,2.738-5.127,9.027-7.36,13.882-10.012C2190.355,2948.651,2195.333,2945.875,2192.6,2943.2Z" transform="translate(-2142.152 -2923.984)" fill="#b388eb"/>
      <path id="Path_41" data-name="Path 41" d="M2181.65,2934.2c-5.373-4.451-7.488,10.7-7.53,13.287a.987.987,0,0,0,1.955.16,1.136,1.136,0,0,0,.146-.187C2177.821,2944.862,2185.453,2937.352,2181.65,2934.2Z" transform="translate(-2141.997 -2924.882)" fill="#b388eb"/>
      <path id="Path_42" data-name="Path 42" d="M2194.523,2954.026c-1.66-5.06-12.576,1.207-15.378,2.438a.776.776,0,0,0-.515.741,1,1,0,0,0,1.012,1.59,13.251,13.251,0,0,1,3.544-.074,44.033,44.033,0,0,0,6.092-.283C2191.305,2958.172,2195.5,2957.015,2194.523,2954.026Z" transform="translate(-2141.533 -2922.867)" fill="#b388eb"/>
      <path id="Path_43" data-name="Path 43" d="M2151.81,2949.708c4.857,2.652,11.145,4.885,13.883,10.012.545,1.02,2,.289,1.808-.7a.917.917,0,0,0,0-.592c-1.53-4.816-4.1-10.039-8.006-13.37-2.791-2.377-8.561-5.1-11.869-1.861C2144.894,2945.875,2149.874,2948.651,2151.81,2949.708Z" transform="translate(-2144.94 -2923.984)" fill="#b388eb"/>
      <path id="Path_44" data-name="Path 44" d="M2157.4,2934.2c5.372-4.451,7.486,10.7,7.53,13.287a.988.988,0,0,1-1.957.16,1.1,1.1,0,0,1-.146-.187C2161.223,2944.862,2153.593,2937.352,2157.4,2934.2Z" transform="translate(-2143.913 -2924.882)" fill="#b388eb"/>
      <path id="Path_45" data-name="Path 45" d="M2145.269,2954.026c1.659-5.06,12.576,1.207,15.377,2.438a.776.776,0,0,1,.515.741,1,1,0,0,1-1.013,1.59,13.245,13.245,0,0,0-3.543-.074,44.051,44.051,0,0,1-6.093-.283C2148.486,2958.172,2144.289,2957.015,2145.269,2954.026Z" transform="translate(-2145.123 -2922.867)" fill="#b388eb"/>
    </g>
    <g id="Group_21" data-name="Group 21" transform="translate(2378.61 2940.013)">
      <path id="Path_46" data-name="Path 46" d="M2386.052,2913.266c-6.552-.394-6.662,11.241-6.607,15.066.147,10.248,1.8,20.483,2.49,30.709-.076.636-.152,1.274-.229,1.909a1.236,1.236,0,0,0,1.523,1.37,1.16,1.16,0,0,0,1.559-1.184c-.034-.637-.082-1.273-.122-1.911,1.376-10.885,2.989-21.815,4.009-32.779C2388.939,2923.607,2390.94,2913.561,2386.052,2913.266Z" transform="translate(-2346.381 -2913.256)" fill="#b388eb"/>
      <path id="Path_47" data-name="Path 47" d="M2415.161,2937.41c-4.567-4.473-12.535-.711-16.386,2.57-5.4,4.6-8.944,11.813-11.057,18.462a1.266,1.266,0,0,0,0,.818c-.263,1.359,1.743,2.369,2.5.96,3.78-7.08,12.465-10.163,19.168-13.825C2412.054,2944.933,2418.929,2941.1,2415.161,2937.41Z" transform="translate(-2345.496 -2910.874)" fill="#b388eb"/>
      <path id="Path_48" data-name="Path 48" d="M2400.033,2924.978c-7.418-6.145-10.338,14.773-10.4,18.347a1.363,1.363,0,0,0,2.7.22,1.687,1.687,0,0,0,.2-.259C2394.747,2939.7,2405.285,2929.331,2400.033,2924.978Z" transform="translate(-2345.281 -2912.114)" fill="#b388eb"/>
      <path id="Path_49" data-name="Path 49" d="M2417.809,2952.355c-2.292-6.987-17.365,1.666-21.233,3.365a1.074,1.074,0,0,0-.712,1.023,1.376,1.376,0,0,0,1.4,2.2c1.477-.427,3.375-.116,4.894-.1a60.591,60.591,0,0,0,8.411-.392C2413.366,2958.079,2419.163,2956.482,2417.809,2952.355Z" transform="translate(-2344.641 -2909.331)" fill="#b388eb"/>
      <path id="Path_50" data-name="Path 50" d="M2358.831,2946.394c6.706,3.662,15.389,6.745,19.17,13.825.753,1.409,2.758.4,2.5-.96a1.268,1.268,0,0,0-.005-.818c-2.113-6.649-5.658-13.861-11.056-18.462-3.853-3.281-11.82-7.043-16.389-2.57C2349.281,2941.1,2356.157,2944.933,2358.831,2946.394Z" transform="translate(-2349.345 -2910.874)" fill="#b388eb"/>
      <path id="Path_51" data-name="Path 51" d="M2366.546,2924.978c7.417-6.145,10.336,14.773,10.4,18.347a1.364,1.364,0,0,1-2.7.22,1.511,1.511,0,0,1-.2-.259C2371.829,2939.7,2361.293,2929.331,2366.546,2924.978Z" transform="translate(-2347.927 -2912.114)" fill="#b388eb"/>
      <path id="Path_52" data-name="Path 52" d="M2349.8,2952.355c2.291-6.987,17.365,1.666,21.233,3.365a1.071,1.071,0,0,1,.711,1.023,1.376,1.376,0,0,1-1.4,2.2c-1.477-.427-3.376-.116-4.893-.1a60.6,60.6,0,0,1-8.413-.392C2354.242,2958.079,2348.445,2956.482,2349.8,2952.355Z" transform="translate(-2349.597 -2909.331)" fill="#b388eb"/>
    </g>
    <g id="Group_23" data-name="Group 23" transform="translate(2353.133 2929.352)">
      <rect id="Rectangle_12" data-name="Rectangle 12" width="84.954" height="6.583" transform="translate(3.407 0)" fill="#b388eb"/>
      <g id="Group_22" data-name="Group 22">
        <path id="Path_53" data-name="Path 53" d="M2395.731,2905.345l15.838,56.542c.316,1.127-.88,2.2-2.67,2.4h0c-1.79.2-3.5-.554-3.813-1.681l-15.838-56.542c-.316-1.126.88-2.2,2.67-2.4h0C2393.708,2903.466,2395.415,2904.218,2395.731,2905.345Z" transform="translate(-2319.852 -2903.632)" fill="#b388eb"/>
        <path id="Path_54" data-name="Path 54" d="M2342.49,2905.345l-15.84,56.542c-.315,1.127.88,2.2,2.67,2.4h0c1.79.2,3.5-.554,3.813-1.681l15.839-56.542c.315-1.126-.881-2.2-2.671-2.4h0C2344.512,2903.466,2342.8,2904.218,2342.49,2905.345Z" transform="translate(-2326.6 -2903.632)" fill="#b388eb"/>
      </g>
    </g>
    <g id="Group_39" data-name="Group 39" transform="translate(2102.064 2770.604)">
      <g id="Group_30" data-name="Group 30" transform="translate(41.835 50.51)">
        <g id="Group_24" data-name="Group 24" transform="translate(16.658 19.611)">
          <rect id="Rectangle_13" data-name="Rectangle 13" width="12.826" height="46.131" rx="5.789" transform="translate(20.181 45.512) rotate(170.609)" fill="#ff8f8e"/>
          <path id="Path_55" data-name="Path 55" d="M2163.483,2855.538a5.051,5.051,0,0,0-2.974.708,5.143,5.143,0,0,0-2.23,2.981q.176,1.188.35,2.376Z" transform="translate(-2152.169 -2820.192)" fill="#ae324a"/>
          <rect id="Rectangle_14" data-name="Rectangle 14" width="12.826" height="53.101" rx="5.789" transform="matrix(0.994, 0.113, -0.113, 0.994, 7.222, 34.469)" fill="#ff8f8e"/>
        </g>
        <g id="Group_29" data-name="Group 29" transform="translate(10.453 87.779)">
          <g id="Group_28" data-name="Group 28">
            <g id="Group_25" data-name="Group 25" transform="translate(2.879 30.204)">
              <path id="Path_56" data-name="Path 56" d="M2158.638,2920.194s-4.812.264-6.626.476a5.909,5.909,0,0,1-2.25.037,2.976,2.976,0,0,1,2.529-2.358c2.212-.34,5.966-1.339,5.966-1.339l3.916-4.579S2161.9,2919.024,2158.638,2920.194Z" transform="translate(-2149.762 -2912.43)" fill="#ae324a"/>
            </g>
            <g id="Group_26" data-name="Group 26" transform="translate(3.514 27.135)">
              <path id="Path_57" data-name="Path 57" d="M2159.494,2917.118s-4.965-.4-6.851-.432a6.094,6.094,0,0,1-2.309-.275,3.075,3.075,0,0,1,2.917-2.064c2.312-.042,6.294-.543,6.294-.543l4.646-4.144S2163,2916.373,2159.494,2917.118Z" transform="translate(-2150.335 -2909.66)" fill="#ae324a"/>
            </g>
            <path id="Path_58" data-name="Path 58" d="M2162.661,2919.556s-3.431,2.833-5.229,3.4-7.232,1.837-7.232,1.837-.976-.864.978-2.231a52.153,52.153,0,0,1,7.12-3.44l3.322-4.935Z" transform="translate(-2146.862 -2882.037)" fill="#ff8f8e"/>
            <g id="Group_27" data-name="Group 27">
              <path id="Path_59" data-name="Path 59" d="M2164.654,2885.165c1.511,3.023,2.859,5.329,3.074,7.74.325,3.638.546,9.888.743,14.777a18.623,18.623,0,0,1-.852,5.891c-.968,2.993-1.591,5.875-3.247,11a49.745,49.745,0,0,1-4.955,9.649,3.414,3.414,0,0,1-.873-4.421c1.3-2.918,3.641-14.346,2.862-18.017-.13-.609-1.867-1.976-1.867-1.976s-4.38,4-6.158,5.6c-3.688,3.319-5.263,1.907-5.872,1.389-1.427-1.215,1.958-2.906,3.042-4.222,1.71-2.078,3.277-4.838,3.774-11.909.18-2.548,3.008-6.451,3.055-8.88a22.154,22.154,0,0,0-.981-3.667Z" transform="translate(-2147.163 -2885.165)" fill="#ff8f8e"/>
            </g>
          </g>
        </g>
        <rect id="Rectangle_15" data-name="Rectangle 15" width="26.36" height="39.541" rx="4.389" transform="translate(0 8.289) rotate(-18.328)" fill="#b388eb"/>
      </g>
      <g id="Group_32" data-name="Group 32" transform="translate(105.111 169.234)">
        <rect id="Rectangle_16" data-name="Rectangle 16" width="9.359" height="38.746" rx="3.332" transform="matrix(0.988, -0.153, 0.153, 0.988, 0, 1.436)" fill="#ff8f8e"/>
        <path id="Path_60" data-name="Path 60" d="M2200.8,2959.458l28.5-4.427a7.838,7.838,0,0,0-.722-2.915c-1.656-3.5-5.467-4.337-10.91-6.9a63.876,63.876,0,0,1-8.177-4.622l-11.347,1.763Z" transform="translate(-2194.49 -2910.135)" fill="#b388eb"/>
        <path id="Path_61" data-name="Path 61" d="M2228.83,2952.212l-28.5,4.428.244,1.566,28.5-4.427a8.2,8.2,0,0,0-.092-.844C2228.938,2952.674,2228.886,2952.432,2228.83,2952.212Z" transform="translate(-2194.255 -2908.883)" fill="#fff"/>
        <circle id="Ellipse_3" data-name="Ellipse 3" cx="2.777" cy="2.777" r="2.777" transform="translate(7.355 39.106)" fill="#fff"/>
        <g id="Group_31" data-name="Group 31" transform="translate(7.764 39.516)">
          <path id="Path_62" data-name="Path 62" d="M2204.586,2953.477a2.368,2.368,0,1,0-2.7-1.976A2.37,2.37,0,0,0,2204.586,2953.477Zm-.678-4.363a2.048,2.048,0,1,1-1.709,2.337A2.05,2.05,0,0,1,2203.908,2949.115Z" transform="translate(-2201.853 -2948.769)" fill="#b388eb"/>
        </g>
        <path id="Path_63" data-name="Path 63" d="M2212.66,2943.022l-3.09,4.226-1.28-.936,2.988-4.088C2211.753,2942.505,2212.215,2942.771,2212.66,2943.022Z" transform="translate(-2193.396 -2909.959)" fill="#fff"/>
        <path id="Path_64" data-name="Path 64" d="M2212.087,2949.122l-1.279-.937,3.24-4.432c.5.263.985.507,1.432.727Z" transform="translate(-2193.125 -2909.795)" fill="#fff"/>
        <path id="Path_65" data-name="Path 65" d="M2218.325,2945.757l-3.8,5.194-1.28-.936,3.595-4.917C2217.352,2945.331,2217.845,2945.549,2218.325,2945.757Z" transform="translate(-2192.862 -2909.649)" fill="#fff"/>
      </g>
      <g id="Group_33" data-name="Group 33" transform="translate(30.311)">
        <rect id="Rectangle_17" data-name="Rectangle 17" width="13.948" height="22.467" transform="translate(17.211 41.498) rotate(180)" fill="#ff8f8e"/>
        <path id="Path_66" data-name="Path 66" d="M2131.892,2784.148c-1.741,4.49,3.176,10.139,7.652,10.452a6.957,6.957,0,0,0,4.539-1.463,7.391,7.391,0,0,0,2.521-5.849,7.98,7.98,0,0,0-6.854-7.328C2136.476,2779.555,2132.984,2781.329,2131.892,2784.148Z" transform="translate(-2126.871 -2758.224)" fill="#ae324a"/>
        <path id="Path_67" data-name="Path 67" d="M2130.189,2775.681v-6.3a6.9,6.9,0,0,1,6.882-6.881h8.413a6.9,6.9,0,0,1,6.882,6.881v10.788c-.606,9.238-6.287,15.578-11.088,15.593-5.747.02-11.035-8.972-11.067-15.64Z" transform="translate(-2127.016 -2760.1)" fill="#ff8f8e"/>
        <path id="Path_68" data-name="Path 68" d="M2145.915,2774.413a27.864,27.864,0,0,0,4.2-2.379c1.113-.74,2.01-1.43,2.66-1.96a9.167,9.167,0,0,0-1.727-5.226c-1.623-2.184-3.807-2.875-5.926-3.546-1.99-.63-5.907-1.87-9.424.093a8.5,8.5,0,0,0-2.24,1.82,3.646,3.646,0,0,0-2.033-.124,4.4,4.4,0,0,0-2.54,2.13c-1.757,2.786-2.108,8.2-.652,14.464a40.159,40.159,0,0,0,2.285,6.905,6.688,6.688,0,0,0,1.838-3.338,8.706,8.706,0,0,0-.22-2.619c-.469-1.95-1.423-2.518-1.433-3.937,0-.146.008-1.67.936-2.1a1.76,1.76,0,0,1,1.633.233,2.09,2.09,0,0,1,.7.886,2.845,2.845,0,0,1,.28,1.307,48.15,48.15,0,0,0,5.833-.886A26.764,26.764,0,0,0,2145.915,2774.413Z" transform="translate(-2127.325 -2760.333)" fill="#b388eb"/>
        <path id="Path_69" data-name="Path 69" d="M2131.1,2775.9c.043.007-.014-.723.423-.993a.657.657,0,0,1,.494-.068.768.768,0,0,1,.449.515,1.185,1.185,0,0,1-.037.81c-.121.337-.258.313-.382.638a1.168,1.168,0,0,0-.008,1.006.756.756,0,0,0,.745.386.473.473,0,0,0,.364-.328c.018-.114-.058-.153-.164-.427a.852.852,0,0,1-.109-.452c.045-.223.259-.208.346-.469a.706.706,0,0,0-.031-.477c-.062-.15-.121-.136-.187-.267-.131-.257.048-.4-.04-.72a.865.865,0,0,0-.826-.624,1.237,1.237,0,0,0-.881.443A1.063,1.063,0,0,0,2131.1,2775.9Z" transform="translate(-2126.925 -2758.813)" fill="#ae324a"/>
        <rect id="Rectangle_18" data-name="Rectangle 18" width="2.969" height="2.242" rx="0.998" transform="translate(26.833 20.151) rotate(180)" fill="#ff8f8e"/>
      </g>
      <g id="Group_35" data-name="Group 35" transform="translate(85.668 171.145)">
        <rect id="Rectangle_19" data-name="Rectangle 19" width="9.359" height="38.746" rx="3.332" transform="translate(1.111)" fill="#ff8f8e"/>
        <path id="Path_70" data-name="Path 70" d="M2177.295,2960.1h28.843a7.849,7.849,0,0,0-.267-2.991c-1.1-3.716-4.736-5.125-9.721-8.492a64.017,64.017,0,0,1-7.372-5.822h-11.483Z" transform="translate(-2177.295 -2911.808)" fill="#b388eb"/>
        <path id="Path_71" data-name="Path 71" d="M2206.14,2956.982h-28.845v1.585h28.845a7.9,7.9,0,0,0,.039-.848C2206.177,2957.455,2206.162,2957.208,2206.14,2956.982Z" transform="translate(-2177.295 -2910.279)" fill="#fff"/>
        <circle id="Ellipse_4" data-name="Ellipse 4" cx="2.777" cy="2.777" r="2.777" transform="translate(2.137 38.746)" fill="#fff"/>
        <g id="Group_34" data-name="Group 34" transform="translate(2.546 39.155)">
          <path id="Path_72" data-name="Path 72" d="M2181.961,2954.9a2.368,2.368,0,1,0-2.368-2.368A2.371,2.371,0,0,0,2181.961,2954.9Zm0-4.415a2.047,2.047,0,1,1-2.047,2.047A2.05,2.05,0,0,1,2181.961,2950.489Z" transform="translate(-2179.593 -2950.168)" fill="#b388eb"/>
        </g>
        <path id="Path_73" data-name="Path 73" d="M2191.569,2945.8l-3.7,3.7-1.121-1.121,3.582-3.58C2190.752,2945.15,2191.166,2945.485,2191.569,2945.8Z" transform="translate(-2176.276 -2911.592)" fill="#fff"/>
        <path id="Path_74" data-name="Path 74" d="M2190.071,2951.736l-1.121-1.122,3.883-3.882c.455.336.9.653,1.3.937Z" transform="translate(-2176.039 -2911.384)" fill="#fff"/>
        <path id="Path_75" data-name="Path 75" d="M2196.758,2949.363l-4.55,4.551-1.121-1.121,4.307-4.307Q2196.1,2948.947,2196.758,2949.363Z" transform="translate(-2175.808 -2911.195)" fill="#fff"/>
      </g>
      <path id="Path_76" data-name="Path 76" d="M2166.627,2874.424c13.916-10.652,28.135-14.582,36.368-9.094,3.866,2.577,5.428,6.576,8.114,13.452,3.128,8.014,4.506,15.827,5.286,32.616.361,7.772.61,17.823.33,29.618l-12.821,1.6c-7.242-34.429-18.166-44.663-27.359-47.135-14.608-3.926-28.428,10.789-43.161,3.874-8.251-3.874-12.415-12.479-14.622-18.946Z" transform="translate(-2097.937 -2749.28)" fill="#20221d"/>
      <g id="Group_36" data-name="Group 36" transform="translate(0 41.497)">
        <rect id="Rectangle_20" data-name="Rectangle 20" width="25.841" height="19.381" rx="4.417" transform="translate(53.584 19.381) rotate(180)" fill="#ff8f8e"/>
        <path id="Path_77" data-name="Path 77" d="M2148.671,2797.792a19.829,19.829,0,0,1,17.584,10.648c1.247,2.389,4.92,6.554,6.673,15.193,4.461,21.98-4.4,51.527-6.46,58.143h-58.143c-3.867-8.3-12.066-28.878-6.46-51.682,1.636-6.659,6.1-14.45,12.778-23.877a19.888,19.888,0,0,1,16.226-8.425,9.344,9.344,0,0,0,17.8,0Z" transform="translate(-2099.963 -2797.792)" fill="#b388eb"/>
      </g>
      <path id="Path_78" data-name="Path 78" d="M2167.267,2868.969c3.215-1.438,14.379-5.977,23.01-.823,8.473,5.058,9.672,16.568,10.877,28.144.767,7.356.128,14.184-1.177,27.541-.931,9.5-1.981,17.374-2.79,22.917h-12.92a88.213,88.213,0,0,0-5.948-31.033,86.367,86.367,0,0,0-5.8-12.038c-30.9,7.208-55.19.372-60.006-7.755a40.512,40.512,0,0,1-4.985-15.01,34.485,34.485,0,0,1,0-6.461Z" transform="translate(-2099.164 -2748.969)" fill="#444"/>
      <g id="Group_38" data-name="Group 38" transform="translate(1.863 55.063)">
        <rect id="Rectangle_21" data-name="Rectangle 21" width="13.03" height="46.866" rx="5.881" transform="translate(20.161 29.151) rotate(-47.467)" fill="#ff8f8e"/>
        <path id="Path_79" data-name="Path 79" d="M2153.777,2850.92l-8.16,5.25a5.6,5.6,0,0,1,.4-3.149,6.657,6.657,0,0,1,6.229-3.49Z" transform="translate(-2096.912 -2805.781)" fill="#ae324a"/>
        <rect id="Rectangle_22" data-name="Rectangle 22" width="13.03" height="53.947" rx="5.881" transform="translate(102.307 45.14) rotate(90)" fill="#ff8f8e"/>
        <rect id="Rectangle_23" data-name="Rectangle 23" width="26.781" height="40.171" rx="4.389" transform="matrix(-0.676, 0.737, -0.737, -0.676, 47.705, 27.156)" fill="#b388eb"/>
        <g id="Group_37" data-name="Group 37" transform="translate(85.825 33.704)">
          <path id="Path_80" data-name="Path 80" d="M2193.242,2850.749s6,.323,7.008.049c1.415-.385,7.652-1.66,13.891-2.707,2.368-.4,3.7,1.71.828,2.792-2.362.891-8.688,1.972-11.387,2.916-1.5.524-.982,1.134-.718,1.183a87.189,87.189,0,0,0,12.419.98c3.484-.082,3.834,2.823.358,3.227-.863.1-4.284-.128-7.112-.154-2.333-.02-3.893-.152-5-.027-1.964.221-2.826.608-.993,1.6,2.771,1.5,9.683,3.45,10.506,3.846,4.06,1.956,2.289,3.552-.553,3.011-1.383-.262-7.886-2.569-11.638-3.728-.592-.182-1.217.184-.287.877L2198,2864.4l-7.5-1.476Z" transform="translate(-2177.891 -2839.645)" fill="#ff8f8e"/>
          <path id="Path_81" data-name="Path 81" d="M2203.161,2843.918c-.666,2.318-5.373,5.23-6.175,6.09-.82.877-.551,1.632.747,1.688,2.364.1-1.021,2.935-1.323,4.636a.6.6,0,0,0,.029.332c-.084.351-.181.722-.293,1.078a5.549,5.549,0,0,1-1.906,2.717s2.215,1.3,5.958,3.854c1.143.782,3.688,2.623,4.759,3.388a33.238,33.238,0,0,1,4.721,3.76c.973,1.213.032,2.877-2.069,1.6-2.866-1.736-7.122-4.608-9.319-5.54-1.726-.732-5.357-1.233-7.472-1.994a39.156,39.156,0,0,0-5.748-1.711c-1.183-.171-5.95-.315-5.95-.315l.4-7.525.032-.616.02-.375.121-2.288a42.1,42.1,0,0,0,5.66-.137,5.688,5.688,0,0,0,3.1-1.408c.486-.566,1.04-1.278,1.7-2.172a6.132,6.132,0,0,1,3.893-2.757,13.407,13.407,0,0,0,8.017-5.765C2202.612,2840.565,2204,2840.988,2203.161,2843.918Z" transform="translate(-2179.118 -2840.462)" fill="#ff8f8e"/>
        </g>
      </g>
    </g>
    <g id="Group_41" data-name="Group 41" transform="translate(2080.471 2929.352)">
      <rect id="Rectangle_24" data-name="Rectangle 24" width="84.954" height="6.583" transform="translate(3.406 0)" fill="#b388eb"/>
      <g id="Group_40" data-name="Group 40">
        <path id="Path_82" data-name="Path 82" d="M2149.6,2905.345l15.838,56.542c.316,1.127-.879,2.2-2.67,2.4h0c-1.79.2-3.5-.554-3.813-1.681l-15.838-56.542c-.316-1.126.879-2.2,2.67-2.4h0C2147.579,2903.466,2149.286,2904.218,2149.6,2905.345Z" transform="translate(-2073.723 -2903.632)" fill="#b388eb"/>
        <path id="Path_83" data-name="Path 83" d="M2096.36,2905.345l-15.838,56.542c-.316,1.127.88,2.2,2.67,2.4h0c1.79.2,3.5-.554,3.813-1.681l15.838-56.542c.316-1.126-.88-2.2-2.67-2.4h0C2098.383,2903.466,2096.676,2904.218,2096.36,2905.345Z" transform="translate(-2080.471 -2903.632)" fill="#b388eb"/>
      </g>
    </g>
    <g id="Group_42" data-name="Group 42" transform="translate(2224.777 2851.196)">
      <rect id="Rectangle_25" data-name="Rectangle 25" width="84.954" height="6.583" fill="#b388eb"/>
      <rect id="Rectangle_26" data-name="Rectangle 26" width="8.862" height="132.259" transform="translate(38.046 6.583)" fill="#b388eb"/>
    </g>
    <g id="Group_43" data-name="Group 43" transform="translate(2225.332 2825.429)">
      <rect id="Rectangle_27" data-name="Rectangle 27" width="21.588" height="25.767" transform="translate(7.86)" fill="#e6e6e6"/>
      <path id="Path_84" data-name="Path 84" d="M2218.942,2827.693a5.491,5.491,0,0,1,0-10.982V2814.5a7.707,7.707,0,0,0,0,15.414Z" transform="translate(-2211.235 -2809.319)" fill="#e6e6e6"/>
    </g>
    <g id="Group_44" data-name="Group 44" transform="translate(2277.405 2825.429)">
      <rect id="Rectangle_28" data-name="Rectangle 28" width="21.588" height="25.767" fill="#b3b3b3"/>
      <path id="Path_85" data-name="Path 85" d="M2277.728,2824.812a5.491,5.491,0,1,0,0-10.983v-2.216a7.707,7.707,0,1,1,0,15.414Z" transform="translate(-2256.141 -2809.629)" fill="#b3b3b3"/>
    </g>
  </g>
</svg>
