<svg xmlns="http://www.w3.org/2000/svg" width="360.524" height="279.583" viewBox="0 0 360.524 279.583">
  <g id="Group_98" data-name="Group 98" transform="translate(-1110.633 -1840.683)">
    <g id="Group_46" data-name="Group 46">
      <path id="Path_86" data-name="Path 86" d="M1136.568,2087.568c-4.283-.258-4.355,7.349-4.319,9.85.1,6.7,1.174,13.39,1.628,20.076-.05.415-.1.832-.15,1.248a.808.808,0,0,0,.995.9.759.759,0,0,0,1.02-.774c-.023-.416-.054-.832-.08-1.249.9-7.116,1.954-14.262,2.621-21.429C1138.456,2094.329,1139.764,2087.761,1136.568,2087.568Z" fill="#b388eb"/>
      <path id="Path_87" data-name="Path 87" d="M1156.177,2104.91c-2.986-2.925-8.195-.466-10.713,1.68-3.528,3.007-5.848,7.722-7.228,12.069a.833.833,0,0,0,0,.534c-.171.889,1.14,1.549,1.632.628,2.472-4.628,8.149-6.644,12.532-9.038C1154.145,2109.828,1158.64,2107.323,1156.177,2104.91Z" fill="#b388eb"/>
      <path id="Path_88" data-name="Path 88" d="M1146.427,2095.972c-4.85-4.018-6.759,9.658-6.8,12a.891.891,0,0,0,1.765.143.993.993,0,0,0,.132-.169C1142.971,2105.6,1149.86,2098.818,1146.427,2095.972Z" fill="#b388eb"/>
      <path id="Path_89" data-name="Path 89" d="M1158.466,2115.689c-1.5-4.568-11.351,1.089-13.88,2.2a.7.7,0,0,0-.466.669.9.9,0,0,0,.914,1.436,11.929,11.929,0,0,1,3.2-.068,39.5,39.5,0,0,0,5.5-.256C1155.562,2119.431,1159.352,2118.387,1158.466,2115.689Z" fill="#b388eb"/>
      <path id="Path_90" data-name="Path 90" d="M1116.835,2110.783c4.384,2.394,10.06,4.41,12.532,9.038.493.921,1.8.261,1.632-.628a.826.826,0,0,0,0-.534c-1.381-4.347-3.7-9.062-7.228-12.069-2.519-2.146-7.728-4.6-10.714-1.68C1110.592,2107.323,1115.087,2109.828,1116.835,2110.783Z" fill="#b388eb"/>
      <path id="Path_91" data-name="Path 91" d="M1122.805,2095.972c4.849-4.018,6.758,9.658,6.8,12a.891.891,0,0,1-1.765.143.9.9,0,0,1-.132-.169C1126.26,2105.6,1119.371,2098.818,1122.805,2095.972Z" fill="#b388eb"/>
      <path id="Path_92" data-name="Path 92" d="M1110.765,2115.689c1.5-4.568,11.352,1.089,13.882,2.2a.7.7,0,0,1,.464.669.9.9,0,0,1-.914,1.436,11.923,11.923,0,0,0-3.2-.068,39.492,39.492,0,0,1-5.5-.256C1113.669,2119.431,1109.88,2118.387,1110.765,2115.689Z" fill="#b388eb"/>
    </g>
    <g id="Group_47" data-name="Group 47">
      <path id="Path_93" data-name="Path 93" d="M1296.948,2075.117c-5.913-.356-6.013,10.147-5.964,13.6.133,9.25,1.621,18.489,2.248,27.72-.069.574-.136,1.15-.207,1.723a1.116,1.116,0,0,0,1.375,1.237,1.048,1.048,0,0,0,1.408-1.069c-.032-.575-.074-1.149-.11-1.725,1.241-9.826,2.7-19.692,3.618-29.589C1299.555,2084.452,1301.361,2075.383,1296.948,2075.117Z" fill="#b388eb"/>
      <path id="Path_94" data-name="Path 94" d="M1324.024,2099.062c-4.123-4.038-11.315-.642-14.792,2.32-4.872,4.153-8.074,10.663-9.98,16.665a1.142,1.142,0,0,0-.005.738c-.237,1.227,1.574,2.139,2.253.867,3.413-6.391,11.252-9.174,17.3-12.479C1321.219,2105.853,1327.425,2102.4,1324.024,2099.062Z" fill="#b388eb"/>
      <path id="Path_95" data-name="Path 95" d="M1310.562,2086.721c-6.7-5.547-9.332,13.335-9.385,16.562a1.231,1.231,0,0,0,2.437.2,1.417,1.417,0,0,0,.182-.234C1305.79,2100.011,1315.3,2090.651,1310.562,2086.721Z" fill="#b388eb"/>
      <path id="Path_96" data-name="Path 96" d="M1327.186,2113.946c-2.069-6.307-15.675,1.5-19.167,3.038a.971.971,0,0,0-.643.924,1.242,1.242,0,0,0,1.263,1.982,16.424,16.424,0,0,1,4.417-.093,54.741,54.741,0,0,0,7.593-.354C1323.175,2119.113,1328.408,2117.671,1327.186,2113.946Z" fill="#b388eb"/>
      <path id="Path_97" data-name="Path 97" d="M1269.7,2107.173c6.053,3.3,13.891,6.088,17.3,12.479.681,1.272,2.49.36,2.254-.867a1.142,1.142,0,0,0-.005-.738c-1.907-6-5.107-12.512-9.98-16.665-3.478-2.962-10.67-6.358-14.794-2.32C1261.081,2102.4,1267.287,2105.853,1269.7,2107.173Z" fill="#b388eb"/>
      <path id="Path_98" data-name="Path 98" d="M1277.945,2086.721c6.7-5.547,9.331,13.335,9.385,16.562a1.231,1.231,0,0,1-2.438.2,1.367,1.367,0,0,1-.182-.234C1282.715,2100.011,1273.2,2090.651,1277.945,2086.721Z" fill="#b388eb"/>
      <path id="Path_99" data-name="Path 99" d="M1261.32,2113.946c2.068-6.307,15.675,1.5,19.167,3.038a.966.966,0,0,1,.642.924,1.242,1.242,0,0,1-1.262,1.982,16.419,16.419,0,0,0-4.416-.093,54.777,54.777,0,0,1-7.6-.354C1265.33,2119.113,1260.1,2117.671,1261.32,2113.946Z" fill="#b388eb"/>
    </g>
    <g id="Group_61" data-name="Group 61">
      <g id="Group_49" data-name="Group 49">
        <rect id="Rectangle_29" data-name="Rectangle 29" width="8.755" height="36.247" rx="4.377" transform="translate(1359.238 2111.077) rotate(179.633)" fill="#ff8f8e"/>
        <path id="Path_100" data-name="Path 100" d="M1360.334,2120l-26.982.172a7.35,7.35,0,0,1,.231-2.8c1.006-3.483,4.4-4.823,9.044-8a59.734,59.734,0,0,0,6.86-5.491l10.743-.069Z" fill="#b388eb"/>
        <path id="Path_101" data-name="Path 101" d="M1333.34,2118.687l26.984-.173.01,1.484-26.984.172a7.634,7.634,0,0,1-.041-.792C1333.309,2119.13,1333.321,2118.9,1333.34,2118.687Z" fill="#fff"/>
        <circle id="Ellipse_5" data-name="Ellipse 5" cx="2.598" cy="2.598" r="2.598" transform="translate(1353.098 2111.1)" fill="#fff"/>
        <g id="Group_48" data-name="Group 48">
          <path id="Path_102" data-name="Path 102" d="M1355.711,2115.913a2.215,2.215,0,1,1,2.2-2.229A2.218,2.218,0,0,1,1355.711,2115.913Zm-.027-4.13a1.915,1.915,0,1,0,1.928,1.9A1.917,1.917,0,0,0,1355.684,2111.783Z" fill="#b388eb"/>
        </g>
        <path id="Path_103" data-name="Path 103" d="M1345.944,2106.916l3.485,3.441,1.042-1.055-3.371-3.329Q1346.506,2106.469,1345.944,2106.916Z" fill="#fff"/>
        <path id="Path_104" data-name="Path 104" d="M1347.159,2112.657l1.042-1.056-3.655-3.609c-.425.317-.834.616-1.215.885Z" fill="#fff"/>
        <path id="Path_105" data-name="Path 105" d="M1340.675,2110.655l4.284,4.23,1.042-1.056-4.055-4Q1341.291,2110.261,1340.675,2110.655Z" fill="#fff"/>
      </g>
      <g id="Group_51" data-name="Group 51">
        <rect id="Rectangle_30" data-name="Rectangle 30" width="8.755" height="36.247" rx="4.377" transform="translate(1295.124 2116.728) rotate(-105.835)" fill="#ff8f8e"/>
        <path id="Path_106" data-name="Path 106" d="M1286.819,2120.164l-7.363-25.959a7.349,7.349,0,0,1,2.76-.523c3.625.04,5.822,2.954,10.125,6.581a59.683,59.683,0,0,0,7.122,5.147l2.931,10.336Z" fill="#b388eb"/>
        <path id="Path_107" data-name="Path 107" d="M1280.883,2093.8l7.363,25.961-1.427.405-7.363-25.961a7.782,7.782,0,0,1,.753-.251C1280.447,2093.886,1280.673,2093.836,1280.883,2093.8Z" fill="#fff"/>
        <circle id="Ellipse_6" data-name="Ellipse 6" cx="2.598" cy="2.598" r="2.598" transform="translate(1289.055 2111.416)" fill="#fff"/>
        <g id="Group_50" data-name="Group 50">
          <path id="Path_108" data-name="Path 108" d="M1289.523,2114.618a2.215,2.215,0,1,1,2.735,1.527A2.216,2.216,0,0,1,1289.523,2114.618Zm3.974-1.127a1.916,1.916,0,1,0-1.32,2.366A1.919,1.919,0,0,0,1293.5,2113.491Z" fill="#b388eb"/>
        </g>
        <path id="Path_109" data-name="Path 109" d="M1295.589,2102.806l-2.387,4.277,1.295.723,2.309-4.137C1296.382,2103.376,1295.975,2103.087,1295.589,2102.806Z" fill="#fff"/>
        <path id="Path_110" data-name="Path 110" d="M1290.38,2105.508l1.3.723,2.5-4.485c-.419-.325-.816-.64-1.177-.935Z" fill="#fff"/>
        <path id="Path_111" data-name="Path 111" d="M1290.58,2098.725l-2.934,5.257,1.3.723,2.777-4.976Q1291.124,2099.214,1290.58,2098.725Z" fill="#fff"/>
      </g>
      <g id="Group_53" data-name="Group 53">
        <rect id="Rectangle_31" data-name="Rectangle 31" width="11.762" height="42.306" rx="5.881" transform="matrix(-0.676, -0.737, 0.737, -0.676, 1389.492, 2056.59)" fill="#ff8f8e"/>
        <path id="Path_112" data-name="Path 112" d="M1387.534,2042.424l7.366,4.738a5.057,5.057,0,0,0-.361-2.843,6.01,6.01,0,0,0-5.623-3.15Z" fill="#ae324a"/>
        <rect id="Rectangle_32" data-name="Rectangle 32" width="11.762" height="48.698" rx="5.881" transform="translate(1395.211 2042.424) rotate(90)" fill="#ff8f8e"/>
        <rect id="Rectangle_33" data-name="Rectangle 33" width="24.175" height="36.262" rx="4.389" transform="matrix(0.676, 0.737, -0.737, 0.676, 1422.523, 2001.677)" fill="#b388eb"/>
        <g id="Group_52" data-name="Group 52">
          <path id="Path_113" data-name="Path 113" d="M1347.535,2042.124a51.889,51.889,0,0,1-6.326.044c-1.277-.348-6.907-1.5-12.539-2.443-2.138-.359-3.337,1.544-.748,2.521,2.132.8,7.843,1.78,10.279,2.632,1.351.472.887,1.024.648,1.068a79,79,0,0,1-11.21.885c-3.145-.075-3.461,2.548-.323,2.913.779.091,3.867-.116,6.42-.139,2.106-.019,3.514-.137,4.518-.024,1.773.2,2.551.549.9,1.443-2.5,1.351-8.741,3.113-9.484,3.471-3.665,1.766-2.066,3.207.5,2.719,1.247-.237,7.118-2.319,10.505-3.365.534-.164,1.1.165.259.792l2.309-.2,6.772-1.331Z" fill="#ff8f8e"/>
          <path id="Path_114" data-name="Path 114" d="M1339.689,2035.221c.6,2.092,4.85,4.721,5.574,5.5.74.793.5,1.473-.674,1.525-2.134.094.922,2.649,1.194,4.185a.541.541,0,0,1-.026.3c.076.317.164.651.265.973a5.006,5.006,0,0,0,1.721,2.452s-2,1.17-5.378,3.48c-1.032.706-3.329,2.368-4.3,3.058a30.05,30.05,0,0,0-4.262,3.394c-.878,1.095-.028,2.6,1.868,1.448,2.587-1.568,6.429-4.159,8.412-5,1.558-.661,4.836-1.113,6.745-1.8a35.519,35.519,0,0,1,5.189-1.546c1.068-.154,5.372-.283,5.372-.283l-.359-6.793-.029-.557-.018-.337-.109-2.065a38.028,38.028,0,0,1-5.109-.124,5.129,5.129,0,0,1-2.8-1.272c-.439-.51-.939-1.154-1.538-1.96a5.539,5.539,0,0,0-3.514-2.49,12.1,12.1,0,0,1-7.237-5.2C1340.184,2032.193,1338.928,2032.576,1339.689,2035.221Z" fill="#ff8f8e"/>
          <path id="Path_115" data-name="Path 115" d="M1354.974,2053.048a2.989,2.989,0,0,0,.925-1.847c.025-1.024.075-1.571.075-1.571a2.58,2.58,0,0,1,.242,2.105A2.29,2.29,0,0,1,1354.974,2053.048Z" fill="#ae324a"/>
          <path id="Path_116" data-name="Path 116" d="M1345.608,2054.392s-.948-2.728-1.772-4.928a19.4,19.4,0,0,0-2.628-4.451,6.819,6.819,0,0,1,2.128,2.5,19.354,19.354,0,0,1,1.991,4.365A5.181,5.181,0,0,1,1345.608,2054.392Z" fill="#ae324a"/>
          <path id="Path_117" data-name="Path 117" d="M1343.171,2044.382a32.114,32.114,0,0,0,2.339,4.273,12.732,12.732,0,0,0,3.885,3.292,36.739,36.739,0,0,1-3.5-3.654C1345.011,2047.047,1343.171,2044.382,1343.171,2044.382Z" fill="#ae324a"/>
        </g>
      </g>
      <g id="Group_54" data-name="Group 54">
        <rect id="Rectangle_34" data-name="Rectangle 34" width="12.765" height="20.561" transform="translate(1427.684 1977.533)" fill="#ff8f8e"/>
        <path id="Path_118" data-name="Path 118" d="M1438.841,1983.843c1.593,4.109-2.907,9.28-7,9.565a6.367,6.367,0,0,1-4.153-1.339,6.761,6.761,0,0,1-2.307-5.353,7.3,7.3,0,0,1,6.272-6.707C1434.645,1979.64,1437.84,1981.263,1438.841,1983.843Z" fill="#ae324a"/>
        <path id="Path_119" data-name="Path 119" d="M1440.531,1974.377v-5.767a6.316,6.316,0,0,0-6.3-6.3h-7.7a6.316,6.316,0,0,0-6.3,6.3v9.872c.554,8.455,5.753,14.256,10.147,14.272,5.259.018,10.1-8.212,10.128-14.314Z" fill="#ff8f8e"/>
        <path id="Path_120" data-name="Path 120" d="M1434.873,1970.426c-1-1.446-3.626-2.181-5.816-1.815-1.84.307-1.8,1.05-3.609,1.391a7.349,7.349,0,0,1-6.156-1.622,6.733,6.733,0,0,1-1.912-4.167c-.34-2.987,1.14-6.557,3.3-7.3,1.977-.68,2.72,1.164,6.452,1.257,2.534.064,2.772-.772,6.118-.867a13.288,13.288,0,0,1,5.324.646,14.8,14.8,0,0,1,5.1,4.14c7.534,9.8-.023,28.076-3.223,27.947-1.332-.054-3.024-3.344-2.634-5.745.132-.812.563-1.9,1.394-5.082.1-.392.095-.41.156-.594.448-1.372,1.225-2.171.979-3.522a2.07,2.07,0,0,0-.961-1.562,1.729,1.729,0,0,0-1.627.148,2.575,2.575,0,0,0-.942,1.886c-.158.972.081,1.618-.056,1.663-.17.056-.73-.883-1.127-2.015C1434.678,1972.5,1435.694,1971.615,1434.873,1970.426Z" fill="#b388eb"/>
        <path id="Path_121" data-name="Path 121" d="M1439.616,1975.752c-.04.006.013-.662-.388-.908a.6.6,0,0,0-.452-.063.7.7,0,0,0-.41.471,1.092,1.092,0,0,0,.033.741c.11.309.237.287.35.584a1.071,1.071,0,0,1,.007.922.693.693,0,0,1-.681.353.435.435,0,0,1-.334-.3c-.016-.1.053-.14.151-.39a.785.785,0,0,0,.1-.414c-.042-.2-.237-.191-.317-.429a.648.648,0,0,1,.028-.437c.058-.136.111-.124.172-.244.119-.236-.044-.368.037-.659a.789.789,0,0,1,.756-.571,1.131,1.131,0,0,1,.806.406A.971.971,0,0,1,1439.616,1975.752Z" fill="#ae324a"/>
        <rect id="Rectangle_35" data-name="Rectangle 35" width="2.717" height="2.052" rx="1.026" transform="translate(1418.878 1976.507)" fill="#ff8f8e"/>
      </g>
      <g id="Group_55" data-name="Group 55">
        <rect id="Rectangle_36" data-name="Rectangle 36" width="24.175" height="18.131" rx="4.417" transform="translate(1421.263 1998.094)" fill="#ff8f8e"/>
        <path id="Path_122" data-name="Path 122" d="M1425.825,1998.094a18.551,18.551,0,0,0-16.45,9.962,67.856,67.856,0,0,0-3.948,6.961,43.959,43.959,0,0,0-2.3,7.252c-1.217,5.633.919,25.318,7.711,51.242l53.043,14.941a189.126,189.126,0,0,0,6.028-30.877c1.34-12.265,2.064-19.64-.3-29.263-1.531-6.229-5.709-13.517-11.953-22.337a18.607,18.607,0,0,0-15.18-7.881,8.742,8.742,0,0,1-16.654,0Z" fill="#b388eb"/>
      </g>
      <g id="Group_57" data-name="Group 57">
        <path id="Path_123" data-name="Path 123" d="M1410.843,2073.511c-13.759-18.284-30.528-28.355-41.932-24.025-6.9,2.62-10.806,10.442-15.52,19.7a87.163,87.163,0,0,0-8.674,27.949l17.847-.488c6.691-15.205,12.808-19.138,17.532-19.386,15.579-.82,21.271,38.514,44.924,41.169,14.037,1.576,26.8-10.049,27.493-10.691a40.421,40.421,0,0,0,11.373-19.285Z" fill="#20221d"/>
        <g id="Group_56" data-name="Group 56">
          <path id="Path_124" data-name="Path 124" d="M1410.843,2073.511c-6.907.566-16.123,1.508-26.926,3.159a299.46,299.46,0,0,0-31.387,6.15,222.5,222.5,0,0,0-44.314,16.88q2.069,8.544,4.138,17.087c31.275-13.889,53.135-12.633,67.706-8.446,12.161,3.494,24.013,10.394,46,11.729,19.92,1.208,26.544-3.458,29.547-6.268,8.944-8.368,8.525-21.557,8.275-25.35Z" fill="#444"/>
        </g>
      </g>
      <g id="Group_58" data-name="Group 58">
        <rect id="Rectangle_37" data-name="Rectangle 37" width="83.704" height="9.793" rx="4.896" transform="translate(1318.669 2042.424)" fill="#ccc"/>
        <rect id="Rectangle_38" data-name="Rectangle 38" width="73.279" height="5.822" rx="2.911" transform="translate(1309.112 1978.766) rotate(77.5)" fill="#e6e6e6"/>
      </g>
      <g id="Group_60" data-name="Group 60">
        <rect id="Rectangle_39" data-name="Rectangle 39" width="11.762" height="42.306" rx="5.881" transform="translate(1405.052 2057.884) rotate(-132.533)" fill="#ff8f8e"/>
        <path id="Path_125" data-name="Path 125" d="M1403.094,2043.718l7.365,4.738a5.034,5.034,0,0,0-.361-2.842,6.008,6.008,0,0,0-5.622-3.151Z" fill="#ae324a"/>
        <rect id="Rectangle_40" data-name="Rectangle 40" width="11.762" height="48.698" rx="5.881" transform="translate(1410.771 2043.718) rotate(90)" fill="#ff8f8e"/>
        <rect id="Rectangle_41" data-name="Rectangle 41" width="24.175" height="36.262" rx="4.389" transform="matrix(0.676, 0.737, -0.737, 0.676, 1438.083, 2002.971)" fill="#b388eb"/>
        <g id="Group_59" data-name="Group 59">
          <path id="Path_126" data-name="Path 126" d="M1363.095,2043.418a51.912,51.912,0,0,1-6.326.044c-1.277-.348-6.907-1.5-12.54-2.443-2.138-.359-3.336,1.544-.747,2.521,2.132.8,7.843,1.78,10.278,2.632,1.352.472.888,1.024.649,1.068a79,79,0,0,1-11.21.885c-3.145-.075-3.462,2.548-.324,2.913.779.091,3.868-.116,6.421-.139,2.1-.019,3.513-.137,4.517-.024,1.774.2,2.551.549.9,1.443-2.5,1.351-8.741,3.113-9.485,3.471-3.664,1.766-2.065,3.207.5,2.719,1.248-.237,7.119-2.319,10.506-3.365.533-.164,1.1.166.258.792l2.31-.2,6.772-1.331Z" fill="#ff8f8e"/>
          <path id="Path_127" data-name="Path 127" d="M1355.248,2036.515c.6,2.092,4.851,4.721,5.575,5.5.739.793.5,1.474-.674,1.525-2.134.094.922,2.649,1.193,4.185a.543.543,0,0,1-.025.3c.075.317.164.651.264.973a5.006,5.006,0,0,0,1.721,2.452s-2,1.17-5.377,3.48c-1.032.706-3.329,2.368-4.3,3.058a30.16,30.16,0,0,0-4.263,3.394c-.878,1.095-.028,2.6,1.868,1.448,2.588-1.568,6.43-4.159,8.413-5,1.557-.661,4.836-1.113,6.745-1.8a35.372,35.372,0,0,1,5.189-1.545c1.068-.155,5.371-.284,5.371-.284l-.358-6.793-.03-.556-.017-.338-.109-2.065a38.008,38.008,0,0,1-5.109-.124,5.13,5.13,0,0,1-2.8-1.272c-.439-.51-.939-1.154-1.537-1.96a5.542,5.542,0,0,0-3.515-2.49,12.1,12.1,0,0,1-7.236-5.2C1355.743,2033.487,1354.488,2033.87,1355.248,2036.515Z" fill="#ff8f8e"/>
        </g>
      </g>
    </g>
    <g id="Group_75" data-name="Group 75">
      <g id="Group_62" data-name="Group 62">
        <path id="Path_128" data-name="Path 128" d="M1335.147,1969.907c-.05,0-.1,0-.152-.007a1.448,1.448,0,0,1-1.237-1.032l-7.605-25.928-7.543,11.524a1.447,1.447,0,0,1-2.421-1.585l9.259-14.146a1.447,1.447,0,0,1,2.6.385l7.5,25.558,11.8-21.882a1.446,1.446,0,0,1,2.432-.18l8.707,11.641,14.312-31.531a1.446,1.446,0,0,1,2.676.1l10.683,29.234,11.808-18.958a1.447,1.447,0,0,1,2.456,1.53l-13.377,21.477a1.447,1.447,0,0,1-2.587-.269l-10.486-28.7-13.861,30.537a1.446,1.446,0,0,1-2.475.268l-8.816-11.785-12.4,22.986A1.446,1.446,0,0,1,1335.147,1969.907Z" fill="#e6e6e6"/>
      </g>
      <g id="Group_66" data-name="Group 66">
        <g id="Group_63" data-name="Group 63">
          <path id="Path_129" data-name="Path 129" d="M1283.11,1900.116A18.261,18.261,0,0,1,1305.3,1888.6a17.128,17.128,0,0,1,4.245,1.807l-9.691,14.459Z" fill="#e6e6e6"/>
        </g>
        <g id="Group_64" data-name="Group 64">
          <path id="Path_130" data-name="Path 130" d="M1291.1,1921.88l9.691-14.456,10.582-15.787a18.238,18.238,0,0,1-20.273,30.243Z" fill="#e6e6e6"/>
        </g>
        <g id="Group_65" data-name="Group 65">
          <path id="Path_131" data-name="Path 131" d="M1282.506,1902.237l16.054,4.554-9.292,13.861A17.909,17.909,0,0,1,1282.506,1902.237Z" fill="#e6e6e6"/>
        </g>
      </g>
      <g id="Group_70" data-name="Group 70">
        <g id="Group_67" data-name="Group 67">
          <path id="Path_132" data-name="Path 132" d="M1339.419,1988.034a8.36,8.36,0,0,1,9.821,5.877,7.84,7.84,0,0,1,.316,2.088l-7.963-.3Z" fill="#e6e6e6"/>
        </g>
        <g id="Group_68" data-name="Group 68">
          <path id="Path_133" data-name="Path 133" d="M1332.861,1996.378l7.961.3,8.694.329a8.349,8.349,0,0,1-16.655-.63Z" fill="#e6e6e6"/>
        </g>
        <g id="Group_69" data-name="Group 69">
          <path id="Path_134" data-name="Path 134" d="M1338.448,1988.308l2.084,7.35-7.634-.289A8.2,8.2,0,0,1,1338.448,1988.308Z" fill="#e6e6e6"/>
        </g>
      </g>
      <g id="Group_74" data-name="Group 74">
        <g id="Group_71" data-name="Group 71">
          <path id="Path_135" data-name="Path 135" d="M1354.567,1897.8a8.359,8.359,0,0,1,9.82,5.877,7.843,7.843,0,0,1,.317,2.088l-7.963-.3Z" fill="#e6e6e6"/>
        </g>
        <g id="Group_72" data-name="Group 72">
          <path id="Path_136" data-name="Path 136" d="M1348.008,1906.141l7.962.3,8.694.329a8.364,8.364,0,0,1-6.022,7.214,8.359,8.359,0,0,1-10.634-7.843Z" fill="#e6e6e6"/>
        </g>
        <g id="Group_73" data-name="Group 73">
          <path id="Path_137" data-name="Path 137" d="M1353.595,1898.071l2.085,7.349-7.634-.289A8.2,8.2,0,0,1,1353.595,1898.071Z" fill="#e6e6e6"/>
        </g>
      </g>
    </g>
    <g id="Group_97" data-name="Group 97">
      <g id="Group_76" data-name="Group 76">
        <rect id="Rectangle_42" data-name="Rectangle 42" width="12.765" height="30.941" transform="translate(1197.735 1890.553) rotate(-152.608)" fill="#ff8f8e"/>
        <path id="Path_138" data-name="Path 138" d="M1199.161,1863.551c-3.3,2.915-1.688,9.576,1.818,11.714a6.365,6.365,0,0,0,4.3.722,6.762,6.762,0,0,0,4.512-3.691,7.3,7.3,0,0,0-2.484-8.841C1204.821,1861.749,1201.237,1861.72,1199.161,1863.551Z" fill="#ae324a"/>
        <path id="Path_139" data-name="Path 139" d="M1202.015,1854.368l2.654-5.12a6.314,6.314,0,0,1,8.488-2.694l6.836,3.542a6.314,6.314,0,0,1,2.694,8.488l-2.631,5.078-1.911,3.688c-4.381,7.252-11.667,10.011-15.575,8-4.678-2.4-5.188-11.937-2.406-17.369Z" fill="#ff8f8e"/>
        <path id="Path_140" data-name="Path 140" d="M1208.857,1853.463c1.551-.824,4.223-.268,6,1.065,1.492,1.119,1.11,1.757,2.564,2.9.312.244,3.059,2.325,6.212,1.391a6.731,6.731,0,0,0,3.615-2.82c1.676-2.495,2.005-6.346.432-8-1.443-1.514-2.95-.218-6.307-1.852-2.279-1.109-2.106-1.961-5.033-3.585a13.313,13.313,0,0,0-5.024-1.876,14.8,14.8,0,0,0-6.435,1.329c-11.2,5.237-12.9,24.939-10,26.3,1.208.566,4.224-1.577,4.982-3.889.256-.781.372-1.942,1.1-5.153.09-.4.1-.408.136-.6.232-1.425-.09-2.491.75-3.578a2.069,2.069,0,0,1,1.572-.944,1.723,1.723,0,0,1,1.376.879,2.577,2.577,0,0,1-.03,2.108c-.308.936-.817,1.4-.716,1.5.125.128,1.054-.448,1.928-1.27C1208.076,1855.394,1207.581,1854.142,1208.857,1853.463Z" fill="#b388eb"/>
        <path id="Path_141" data-name="Path 141" d="M1202.195,1856.01c.033.024.293-.594.763-.628a.6.6,0,0,1,.43.153.7.7,0,0,1,.147.607,1.092,1.092,0,0,1-.37.643c-.24.222-.342.145-.58.357a1.072,1.072,0,0,0-.43.815.694.694,0,0,0,.442.627.434.434,0,0,0,.435-.113c.062-.086.018-.149.046-.416a.783.783,0,0,1,.1-.413c.131-.162.3-.06.479-.235a.654.654,0,0,0,.176-.4c.011-.148-.042-.162-.04-.3,0-.264.208-.306.27-.6a.8.8,0,0,0-.066-.5.815.815,0,0,0-.342-.351,1.136,1.136,0,0,0-.9-.01A.97.97,0,0,0,1202.195,1856.01Z" fill="#ae324a"/>
        <rect id="Rectangle_43" data-name="Rectangle 43" width="2.717" height="2.052" rx="1.026" transform="translate(1219.317 1868.043) rotate(-152.608)" fill="#ff8f8e"/>
      </g>
      <g id="Group_78" data-name="Group 78">
        <rect id="Rectangle_44" data-name="Rectangle 44" width="8.755" height="36.247" rx="4.377" transform="translate(1178.984 2111.338) rotate(-180)" fill="#ff8f8e"/>
        <path id="Path_142" data-name="Path 142" d="M1180.022,2120.265H1153.04a7.352,7.352,0,0,1,.249-2.8c1.028-3.476,4.431-4.794,9.1-7.945a59.688,59.688,0,0,0,6.9-5.446h10.743Z" fill="#b388eb"/>
        <path id="Path_143" data-name="Path 143" d="M1153.038,2118.782h26.984v1.483h-26.984a7.483,7.483,0,0,1-.036-.793C1153,2119.225,1153.017,2118.994,1153.038,2118.782Z" fill="#fff"/>
        <circle id="Ellipse_7" data-name="Ellipse 7" cx="2.598" cy="2.598" r="2.598" transform="translate(1172.827 2111.338)" fill="#fff"/>
        <g id="Group_77" data-name="Group 77">
          <path id="Path_144" data-name="Path 144" d="M1175.425,2116.151a2.215,2.215,0,1,1,2.216-2.215A2.217,2.217,0,0,1,1175.425,2116.151Zm0-4.13a1.915,1.915,0,1,0,1.916,1.915A1.917,1.917,0,0,0,1175.425,2112.021Z" fill="#b388eb"/>
        </g>
        <path id="Path_145" data-name="Path 145" d="M1165.716,2107.092l3.464,3.463,1.049-1.049-3.35-3.349C1166.481,2106.484,1166.093,2106.8,1165.716,2107.092Z" fill="#fff"/>
        <path id="Path_146" data-name="Path 146" d="M1166.9,2112.84l1.049-1.049-3.632-3.632c-.427.314-.838.611-1.221.877Z" fill="#fff"/>
        <path id="Path_147" data-name="Path 147" d="M1160.424,2110.8l4.257,4.257,1.048-1.049-4.029-4.029C1161.261,2110.264,1160.837,2110.536,1160.424,2110.8Z" fill="#fff"/>
      </g>
      <g id="Group_80" data-name="Group 80">
        <rect id="Rectangle_45" data-name="Rectangle 45" width="8.755" height="36.247" rx="4.377" transform="translate(1216.142 2111.338) rotate(180)" fill="#ff8f8e"/>
        <path id="Path_148" data-name="Path 148" d="M1206.44,2120.265h26.983a7.334,7.334,0,0,0-.25-2.8c-1.028-3.476-4.43-4.794-9.094-7.945a59.768,59.768,0,0,1-6.9-5.446H1206.44Z" fill="#b388eb"/>
        <path id="Path_149" data-name="Path 149" d="M1233.425,2118.782H1206.44v1.483h26.985a7.752,7.752,0,0,0,.036-.793C1233.459,2119.225,1233.445,2118.994,1233.425,2118.782Z" fill="#fff"/>
        <circle id="Ellipse_8" data-name="Ellipse 8" cx="2.598" cy="2.598" r="2.598" transform="translate(1208.439 2111.338)" fill="#fff"/>
        <g id="Group_79" data-name="Group 79">
          <path id="Path_150" data-name="Path 150" d="M1211.037,2116.151a2.215,2.215,0,1,0-2.215-2.215A2.217,2.217,0,0,0,1211.037,2116.151Zm0-4.13a1.915,1.915,0,1,1-1.915,1.915A1.917,1.917,0,0,1,1211.037,2112.021Z" fill="#b388eb"/>
        </g>
        <path id="Path_151" data-name="Path 151" d="M1220.746,2107.092l-3.463,3.463-1.049-1.049,3.35-3.349C1219.982,2106.484,1220.37,2106.8,1220.746,2107.092Z" fill="#fff"/>
        <path id="Path_152" data-name="Path 152" d="M1219.568,2112.84l-1.049-1.049,3.632-3.632c.427.314.838.611,1.22.877Z" fill="#fff"/>
        <path id="Path_153" data-name="Path 153" d="M1226.039,2110.8l-4.257,4.257-1.049-1.049,4.03-4.029C1225.2,2110.264,1225.626,2110.536,1226.039,2110.8Z" fill="#fff"/>
      </g>
      <g id="Group_82" data-name="Group 82">
        <path id="Path_154" data-name="Path 154" d="M1211.531,1891.651h-30.219v-13.282h30.219Z" fill="#ff8f8e"/>
        <g id="Group_81" data-name="Group 81">
          <path id="Path_155" data-name="Path 155" d="M1235.7,1956.936h-78.567c-.4-31.786,2.264-55.67,6.115-64.049a28.986,28.986,0,0,1,5.972-8.474,25.778,25.778,0,0,1,12.087-6.044c.573.725,6.369,7.8,15.959,7.379a19.866,19.866,0,0,0,14.26-7.379,24.721,24.721,0,0,1,12.087,6.044,27.483,27.483,0,0,1,5.688,8.474C1232.892,1901.329,1235.591,1925.163,1235.7,1956.936Z" fill="#b388eb"/>
        </g>
      </g>
      <path id="Path_156" data-name="Path 156" d="M1157.138,1956.936a424.363,424.363,0,0,0,12.087,139h12.087c.918-18.495,2.6-44.482,5.9-75.672,2.766-26.084,4.189-39.127,6.186-39.157,2.528-.038,6.384,20.557,12.087,114.829h12.087q4.707-36.081,9.413-72.162l8.718-66.842Z" fill="#20221d"/>
      <g id="Group_89" data-name="Group 89">
        <g id="Group_83" data-name="Group 83">
          <rect id="Rectangle_46" data-name="Rectangle 46" width="11.762" height="42.306" rx="5.881" transform="translate(1156.591 1894.629) rotate(20.075)" fill="#ff8f8e"/>
          <path id="Path_157" data-name="Path 157" d="M1151.789,1926.71a4.643,4.643,0,0,1,2.56,1.144,4.72,4.72,0,0,1,1.5,3.066l-.72,2.082Z" fill="#ae324a"/>
          <rect id="Rectangle_47" data-name="Rectangle 47" width="11.762" height="48.698" rx="5.881" transform="translate(1152.066 1975.183) rotate(-175.808)" fill="#ff8f8e"/>
        </g>
        <g id="Group_88" data-name="Group 88">
          <g id="Group_87" data-name="Group 87">
            <g id="Group_84" data-name="Group 84">
              <path id="Path_158" data-name="Path 158" d="M1144.948,1991.484s4.292,1.056,5.89,1.557a5.4,5.4,0,0,0,2.021.415,2.727,2.727,0,0,0-1.878-2.555c-1.935-.683-5.148-2.222-5.148-2.222l-2.751-4.791S1142.2,1989.875,1144.948,1991.484Z" fill="#ae324a"/>
            </g>
            <g id="Group_85" data-name="Group 85">
              <path id="Path_159" data-name="Path 159" d="M1144.694,1988.287s4.542.486,6.247.776a5.58,5.58,0,0,0,2.127.144,2.819,2.819,0,0,0-2.278-2.355c-2.076-.431-5.58-1.56-5.58-1.56l-3.482-4.524S1141.661,1987.02,1144.694,1988.287Z" fill="#ae324a"/>
            </g>
            <path id="Path_160" data-name="Path 160" d="M1141.379,1990.392s2.61,3.136,4.135,3.951,6.2,2.884,6.2,2.884,1.026-.612-.5-2.177a47.789,47.789,0,0,0-5.831-4.31l-2.155-5.013Z" fill="#ff8f8e"/>
            <g id="Group_86" data-name="Group 86">
              <path id="Path_161" data-name="Path 161" d="M1146.233,1956.293c-1.876,2.468-3.482,4.316-4.086,6.454-.912,3.222-2.173,8.817-3.182,13.19a17.069,17.069,0,0,0-.234,5.454c.364,2.862.434,5.564,1.055,10.467a45.671,45.671,0,0,0,2.826,9.538,3.132,3.132,0,0,0,1.538-3.836c-.68-2.852-.842-13.547.485-16.723.22-.527,2.017-1.464,2.017-1.464s3.268,4.35,4.6,6.095c2.758,3.618,4.418,2.614,5.055,2.25,1.493-.853-1.27-2.951-2.023-4.322-1.189-2.164-2.131-4.917-1.377-11.373.272-2.327-1.614-6.325-1.244-8.522a20.146,20.146,0,0,1,1.509-3.138Z" fill="#ff8f8e"/>
            </g>
          </g>
        </g>
        <rect id="Rectangle_48" data-name="Rectangle 48" width="24.175" height="36.262" rx="4.389" transform="translate(1162.794 1925.247) rotate(-135)" fill="#b388eb"/>
      </g>
      <g id="Group_96" data-name="Group 96">
        <g id="Group_90" data-name="Group 90">
          <rect id="Rectangle_49" data-name="Rectangle 49" width="11.762" height="42.306" rx="5.881" transform="matrix(-0.655, 0.756, -0.756, -0.655, 1265.541, 1921.332)" fill="#ff8f8e"/>
          <path id="Path_162" data-name="Path 162" d="M1253.329,1919.352a4.641,4.641,0,0,0-1.684,2.242,4.713,4.713,0,0,0,.173,3.409l1.639,1.472Q1253.394,1922.914,1253.329,1919.352Z" fill="#ae324a"/>
          <rect id="Rectangle_50" data-name="Rectangle 50" width="11.762" height="48.698" rx="5.881" transform="translate(1249.928 1921.13) rotate(-33.204)" fill="#ff8f8e"/>
        </g>
        <g id="Group_95" data-name="Group 95">
          <g id="Group_94" data-name="Group 94">
            <g id="Group_91" data-name="Group 91">
              <path id="Path_163" data-name="Path 163" d="M1290.727,1972.68s-3.242,3.005-4.4,4.218-1.567,1.343-1.567,1.343a2.728,2.728,0,0,1,.4-3.145c1.361-1.536,3.425-4.44,3.425-4.44l.081-5.524S1292.346,1969.942,1290.727,1972.68Z" fill="#ae324a"/>
            </g>
            <g id="Group_92" data-name="Group 92">
              <path id="Path_164" data-name="Path 164" d="M1289.4,1969.761s-3.736,2.628-5.087,3.708a5.573,5.573,0,0,1-1.79,1.158,2.817,2.817,0,0,1,.85-3.164c1.607-1.384,4.123-4.071,4.123-4.071l.851-5.645S1291.436,1967.182,1289.4,1969.761Z" fill="#ae324a"/>
            </g>
            <path id="Path_165" data-name="Path 165" d="M1293.318,1969.995s-.761,4.008-1.7,5.459-4.027,5.532-4.027,5.532-1.195-.038-.617-2.147a47.83,47.83,0,0,1,3.009-6.6l-.546-5.428Z" fill="#ff8f8e"/>
            <g id="Group_93" data-name="Group 93">
              <path id="Path_166" data-name="Path 166" d="M1272.535,1942.529c2.838,1.248,5.139,2.085,6.7,3.661,2.36,2.376,6.176,6.657,9.18,9.992a17.07,17.07,0,0,1,2.849,4.657c1.07,2.679,2.319,5.076,4.154,9.665a45.643,45.643,0,0,1,2.155,9.711,3.131,3.131,0,0,1-3.206-2.609c-.788-2.823-5.833-12.255-8.534-14.389a6.88,6.88,0,0,0-2.475-.3s-.748,5.388-1.065,7.56c-.658,4.5-2.6,4.428-3.329,4.419-1.72-.022-.322-3.2-.328-4.761-.01-2.469-.521-5.333-4.311-10.614-1.367-1.9-1.657-6.314-3.046-8.056a20.2,20.2,0,0,0-2.841-2.012Z" fill="#ff8f8e"/>
            </g>
          </g>
        </g>
        <rect id="Rectangle_51" data-name="Rectangle 51" width="24.175" height="36.262" rx="4.389" transform="matrix(0.53, -0.848, 0.848, 0.53, 1206.255, 1902.805)" fill="#b388eb"/>
      </g>
    </g>
  </g>
</svg>
