<svg xmlns="http://www.w3.org/2000/svg" width="477.03" height="289.572" viewBox="0 0 477.03 289.572">
  <g id="Group_129" data-name="Group 129" transform="translate(100.998 -1836.859)">
    <g id="Group_99" data-name="Group 99">
      <path id="Path_167" data-name="Path 167" d="M-31.992,2093.733c-4.283-.258-4.355,7.349-4.319,9.85.1,6.7,1.173,13.39,1.628,20.075-.051.416-.1.833-.151,1.248a.809.809,0,0,0,1,.9.759.759,0,0,0,1.02-.774c-.023-.416-.054-.833-.08-1.249.9-7.117,1.954-14.262,2.621-21.429C-30.1,2100.493-28.8,2093.925-31.992,2093.733Z" fill="#b388eb"/>
      <path id="Path_168" data-name="Path 168" d="M-12.383,2111.075c-2.987-2.925-8.195-.466-10.713,1.68-3.528,3.007-5.848,7.722-7.228,12.069a.833.833,0,0,0,0,.534c-.171.889,1.14,1.549,1.632.628,2.472-4.629,8.149-6.644,12.531-9.038C-14.415,2115.993-9.921,2113.488-12.383,2111.075Z" fill="#b388eb"/>
      <path id="Path_169" data-name="Path 169" d="M-22.133,2102.137c-4.85-4.018-6.759,9.657-6.8,11.994a.891.891,0,0,0,1.765.144,1,1,0,0,0,.132-.169C-25.589,2111.761-18.7,2104.983-22.133,2102.137Z" fill="#b388eb"/>
      <path id="Path_170" data-name="Path 170" d="M-10.094,2121.854c-1.5-4.568-11.352,1.089-13.88,2.2a.7.7,0,0,0-.466.669.9.9,0,0,0,.914,1.435,11.96,11.96,0,0,1,3.2-.067,39.8,39.8,0,0,0,5.5-.256C-13,2125.595-9.209,2124.551-10.094,2121.854Z" fill="#b388eb"/>
      <path id="Path_171" data-name="Path 171" d="M-51.725,2116.948c4.384,2.394,10.06,4.409,12.532,9.038.493.921,1.8.261,1.632-.628a.826.826,0,0,0,0-.534c-1.38-4.347-3.7-9.062-7.227-12.069-2.519-2.146-7.728-4.6-10.714-1.68C-57.968,2113.488-53.473,2115.993-51.725,2116.948Z" fill="#b388eb"/>
      <path id="Path_172" data-name="Path 172" d="M-45.755,2102.137c4.849-4.018,6.758,9.657,6.8,11.994a.891.891,0,0,1-1.765.144.95.95,0,0,1-.133-.169C-42.3,2111.761-49.189,2104.983-45.755,2102.137Z" fill="#b388eb"/>
      <path id="Path_173" data-name="Path 173" d="M-57.795,2121.854c1.5-4.568,11.352,1.089,13.882,2.2a.7.7,0,0,1,.464.669.9.9,0,0,1-.914,1.435,11.953,11.953,0,0,0-3.2-.067,39.8,39.8,0,0,1-5.5-.256C-54.891,2125.595-58.68,2124.551-57.795,2121.854Z" fill="#b388eb"/>
    </g>
    <g id="Group_100" data-name="Group 100">
      <path id="Path_174" data-name="Path 174" d="M210.229,2081.282c-5.914-.356-6.014,10.147-5.964,13.6.132,9.25,1.62,18.49,2.248,27.721-.07.574-.137,1.15-.208,1.723a1.117,1.117,0,0,0,1.375,1.237,1.049,1.049,0,0,0,1.408-1.069c-.031-.575-.074-1.15-.11-1.725,1.241-9.826,2.7-19.692,3.618-29.589C212.836,2090.617,214.641,2081.548,210.229,2081.282Z" fill="#b388eb"/>
      <path id="Path_175" data-name="Path 175" d="M237.3,2105.227c-4.123-4.039-11.314-.643-14.792,2.32-4.872,4.153-8.074,10.663-9.98,16.665a1.143,1.143,0,0,0-.005.738c-.237,1.227,1.574,2.138,2.253.867,3.413-6.391,11.253-9.174,17.3-12.48C234.5,2112.018,240.705,2108.56,237.3,2105.227Z" fill="#b388eb"/>
      <path id="Path_176" data-name="Path 176" d="M223.842,2092.886c-6.7-5.548-9.332,13.335-9.385,16.562a1.231,1.231,0,0,0,2.437.2,1.364,1.364,0,0,0,.182-.233C219.071,2106.175,228.582,2096.815,223.842,2092.886Z" fill="#b388eb"/>
      <path id="Path_177" data-name="Path 177" d="M240.466,2120.111c-2.069-6.307-15.675,1.5-19.166,3.038a.97.97,0,0,0-.644.924,1.242,1.242,0,0,0,1.263,1.982,16.474,16.474,0,0,1,4.417-.094,54.573,54.573,0,0,0,7.594-.353C236.455,2125.277,241.688,2123.836,240.466,2120.111Z" fill="#b388eb"/>
      <path id="Path_178" data-name="Path 178" d="M182.981,2113.337c6.054,3.306,13.892,6.089,17.3,12.48.68,1.271,2.489.36,2.253-.867a1.136,1.136,0,0,0-.005-.738c-1.906-6-5.106-12.512-9.979-16.665-3.479-2.963-10.671-6.359-14.795-2.32C174.361,2108.56,180.568,2112.018,182.981,2113.337Z" fill="#b388eb"/>
      <path id="Path_179" data-name="Path 179" d="M191.225,2092.886c6.7-5.548,9.331,13.335,9.385,16.562a1.231,1.231,0,0,1-2.437.2,1.318,1.318,0,0,1-.183-.233C195.995,2106.175,186.483,2096.815,191.225,2092.886Z" fill="#b388eb"/>
      <path id="Path_180" data-name="Path 180" d="M174.6,2120.111c2.068-6.307,15.675,1.5,19.168,3.038a.965.965,0,0,1,.641.924,1.242,1.242,0,0,1-1.262,1.982,16.469,16.469,0,0,0-4.416-.094,54.587,54.587,0,0,1-7.6-.353C178.61,2125.277,173.378,2123.836,174.6,2120.111Z" fill="#b388eb"/>
    </g>
    <g id="Group_101" data-name="Group 101">
      <path id="Path_181" data-name="Path 181" d="M93.432,2113.675a1.736,1.736,0,0,1-.5-.073l-8.368-2.6a1.7,1.7,0,0,1-1.193-1.566l-.211-6.7a32.8,32.8,0,0,1-7.274-6.039l-6.618,1.018a1.693,1.693,0,0,1-1.761-.891l-4.079-7.743a1.693,1.693,0,0,1,.266-1.954l4.583-4.882a32.767,32.767,0,0,1-.866-9.413l-5.4-3.964a1.7,1.7,0,0,1-.617-1.872l2.594-8.364a1.7,1.7,0,0,1,1.566-1.193l6.7-.21a32.817,32.817,0,0,1,6.04-7.273l-1.019-6.62a1.692,1.692,0,0,1,.893-1.761l7.742-4.079a1.7,1.7,0,0,1,1.951.264l4.883,4.584a32.608,32.608,0,0,1,9.415-.863l3.962-5.405a1.684,1.684,0,0,1,1.876-.615l8.359,2.59a1.7,1.7,0,0,1,1.194,1.566l.211,6.7a32.877,32.877,0,0,1,7.273,6.039l6.621-1.017a1.707,1.707,0,0,1,1.759.889l4.079,7.744a1.692,1.692,0,0,1-.266,1.954l-4.583,4.88a32.885,32.885,0,0,1,.865,9.416l5.4,3.963a1.7,1.7,0,0,1,.619,1.866l-2.6,8.37a1.7,1.7,0,0,1-1.565,1.194l-6.7.21a32.734,32.734,0,0,1-6.04,7.27l1.019,6.62a1.7,1.7,0,0,1-.886,1.761l-7.749,4.079a1.686,1.686,0,0,1-1.952-.263l-4.881-4.585a32.883,32.883,0,0,1-9.416.866l-3.962,5.405A1.7,1.7,0,0,1,93.432,2113.675Zm-7.875-4.66,7.687,2.384,4.465-6.09.6.043a30.579,30.579,0,0,0,9.907-.911l.586-.154,5.5,5.167,7.122-3.749-1.148-7.461.458-.4a30.632,30.632,0,0,0,6.355-7.65l.306-.523,7.548-.238,2.384-7.686-6.09-4.465.043-.6a30.665,30.665,0,0,0-.911-9.908l-.152-.587,5.166-5.5-3.75-7.121-7.46,1.148-.4-.456a30.648,30.648,0,0,0-7.654-6.357l-.521-.308-.237-7.548-7.688-2.382-4.465,6.091-.605-.043a30.468,30.468,0,0,0-9.9.908l-.585.155-5.5-5.168-7.12,3.751,1.147,7.46-.457.4a30.549,30.549,0,0,0-6.355,7.653l-.307.522-7.548.238-2.383,7.687,6.089,4.464-.043.6a30.615,30.615,0,0,0,.912,9.907l.152.584-5.166,5.5,3.751,7.121,7.458-1.148.4.458a30.633,30.633,0,0,0,7.651,6.352l.523.307Zm28.436.6,0,0Zm-28.777-.709h0Zm-15.763-13.1v0Zm65.388-6.029v0Zm2.776-7.817,0,0ZM135.552,2061l0,0Zm-4.081-7.75h0Zm-52.282-9.732-.005,0Zm28.155-5.962,0,0Zm.549-.184,0,0Zm-7.586,59.355a22.226,22.226,0,1,1,21.39-28.2l-2.112.587a20.027,20.027,0,1,0-2.191,15.793l1.875,1.14a22.3,22.3,0,0,1-18.962,10.677Z" fill="#e6e6e6"/>
      <path id="Path_182" data-name="Path 182" d="M100.474,2083.4c-.161,0-.322-.005-.485-.013a8.873,8.873,0,1,1,7.074-14.791h0a8.873,8.873,0,0,1-6.589,14.8Zm-.015-15.549a6.675,6.675,0,1,0,4.972,2.211A6.658,6.658,0,0,0,100.459,2067.855Z" fill="#e6e6e6"/>
    </g>
    <g id="Group_106" data-name="Group 106">
      <rect id="Rectangle_52" data-name="Rectangle 52" width="373.015" height="207" rx="9.089" transform="translate(-83.054 1836.859)" fill="#e6e6e6"/>
      <circle id="Ellipse_9" data-name="Ellipse 9" cx="2.667" cy="2.667" r="2.667" transform="translate(256.755 1845.363)" fill="#ccc"/>
      <circle id="Ellipse_10" data-name="Ellipse 10" cx="2.667" cy="2.667" r="2.667" transform="translate(266.491 1845.363)" fill="#ccc"/>
      <circle id="Ellipse_11" data-name="Ellipse 11" cx="2.667" cy="2.667" r="2.667" transform="translate(276.353 1845.363)" fill="#ccc"/>
      <g id="Group_105" data-name="Group 105">
        <g id="Group_102" data-name="Group 102">
          <rect id="Rectangle_53" data-name="Rectangle 53" width="97.882" height="3.199" rx="1.6" transform="translate(-57.029 2020.06)" fill="#ccc"/>
          <rect id="Rectangle_54" data-name="Rectangle 54" width="89.007" height="3.199" rx="1.6" transform="translate(-57.029 2011.727)" fill="#ccc"/>
          <rect id="Rectangle_55" data-name="Rectangle 55" width="83.034" height="3.199" rx="1.6" transform="translate(-57.029 1995.06)" fill="#ccc"/>
          <rect id="Rectangle_56" data-name="Rectangle 56" width="94.368" height="3.199" rx="1.6" transform="translate(-57.029 2003.394)" fill="#ccc"/>
        </g>
        <path id="Path_183" data-name="Path 183" d="M37.654,1860.657v91.483H-53.83v-91.483H37.654m3.2-3.2H-57.029v97.883H40.853v-97.883Z" fill="#ccc"/>
        <path id="accept_cr" d="M-18.921,1976.412a10.844,10.844,0,0,1,10.832-10.833,10.845,10.845,0,0,1,10.833,10.833,10.845,10.845,0,0,1-10.833,10.833A10.845,10.845,0,0,1-18.921,1976.412Zm2.708,0a8.125,8.125,0,0,0,8.124,8.125,8.125,8.125,0,0,0,8.125-8.125,8.126,8.126,0,0,0-8.125-8.125A8.126,8.126,0,0,0-16.213,1976.412Zm5.812,3.667-2.707-2.709a1.354,1.354,0,0,1,0-1.915,1.353,1.353,0,0,1,1.914,0l1.751,1.75,4.459-4.458a1.353,1.353,0,0,1,1.915,0,1.354,1.354,0,0,1,0,1.915l-5.417,5.417a1.351,1.351,0,0,1-.957.4A1.355,1.355,0,0,1-10.4,1980.078Z" fill="#ccc"/>
        <path id="pic_big_1" d="M-14.493,1914.938a2.135,2.135,0,0,1-2.136-2.135v-12.811a2.135,2.135,0,0,1,2.136-2.134h12.81a2.134,2.134,0,0,1,2.135,2.134V1912.8a2.134,2.134,0,0,1-2.135,2.135Zm0-2.135h12.81v-12.811h-12.81Zm1.067-3.2,3.2-5.338,3.2,4.27,2.136-2.136,2.135,3.2Zm6.405-5.338a1.067,1.067,0,0,1,1.067-1.068,1.067,1.067,0,0,1,1.067,1.068,1.067,1.067,0,0,1-1.067,1.067A1.067,1.067,0,0,1-7.02,1904.263Z" fill="#ccc"/>
        <g id="Group_103" data-name="Group 103">
          <rect id="Rectangle_57" data-name="Rectangle 57" width="97.882" height="3.199" rx="1.6" transform="translate(54.77 2020.06)" fill="#ccc"/>
          <rect id="Rectangle_58" data-name="Rectangle 58" width="89.007" height="3.199" rx="1.6" transform="translate(54.77 2011.727)" fill="#ccc"/>
          <rect id="Rectangle_59" data-name="Rectangle 59" width="83.034" height="3.199" rx="1.6" transform="translate(54.77 1995.06)" fill="#ccc"/>
          <rect id="Rectangle_60" data-name="Rectangle 60" width="94.368" height="3.199" rx="1.6" transform="translate(54.77 2003.394)" fill="#ccc"/>
        </g>
        <path id="Path_189" data-name="Path 189" d="M149.453,1860.657v91.483H57.97v-91.483h91.483m3.2-3.2H54.77v97.883h97.883v-97.883Z" fill="#ccc"/>
        <path id="accept_cr-2" data-name="accept_cr" d="M92.878,1976.412a10.833,10.833,0,1,1,10.832,10.833A10.845,10.845,0,0,1,92.878,1976.412Zm2.708,0a8.125,8.125,0,1,0,8.124-8.125A8.125,8.125,0,0,0,95.586,1976.412Zm5.814,3.667-2.709-2.709a1.354,1.354,0,0,1,1.914-1.915l1.751,1.75,4.459-4.458a1.354,1.354,0,0,1,1.915,1.915l-5.416,5.417a1.355,1.355,0,0,1-1.914,0Z" fill="#ccc"/>
        <path id="pic_big_1-2" data-name="pic_big_1" d="M97.306,1914.938a2.134,2.134,0,0,1-2.135-2.135v-12.811a2.134,2.134,0,0,1,2.135-2.134h12.81a2.133,2.133,0,0,1,2.135,2.134V1912.8a2.134,2.134,0,0,1-2.135,2.135Zm0-2.135h12.81v-12.811H97.306Zm1.067-3.2,3.2-5.338,3.2,4.27,2.135-2.136,2.135,3.2Zm6.405-5.338a1.067,1.067,0,1,1,1.067,1.067A1.067,1.067,0,0,1,104.779,1904.263Z" fill="#ccc"/>
        <g id="Group_104" data-name="Group 104">
          <rect id="Rectangle_61" data-name="Rectangle 61" width="97.882" height="3.199" rx="1.6" transform="translate(166.055 2020.06)" fill="#ccc"/>
          <rect id="Rectangle_62" data-name="Rectangle 62" width="89.007" height="3.199" rx="1.6" transform="translate(166.055 2011.727)" fill="#ccc"/>
          <rect id="Rectangle_63" data-name="Rectangle 63" width="83.034" height="3.199" rx="1.6" transform="translate(166.055 1995.06)" fill="#ccc"/>
          <rect id="Rectangle_64" data-name="Rectangle 64" width="94.368" height="3.199" rx="1.6" transform="translate(166.055 2003.394)" fill="#ccc"/>
        </g>
        <path id="Path_195" data-name="Path 195" d="M260.738,1860.657v91.483H169.254v-91.483h91.484m3.2-3.2H166.055v97.883h97.882v-97.883Z" fill="#ccc"/>
        <path id="accept_cr-3" data-name="accept_cr" d="M204.163,1976.412A10.833,10.833,0,1,1,215,1987.245,10.845,10.845,0,0,1,204.163,1976.412Zm2.708,0a8.125,8.125,0,1,0,8.124-8.125A8.125,8.125,0,0,0,206.871,1976.412Zm5.814,3.667-2.709-2.709a1.354,1.354,0,1,1,1.914-1.915l1.751,1.75,4.459-4.458a1.354,1.354,0,1,1,1.915,1.915l-5.417,5.417a1.354,1.354,0,0,1-1.913,0Z" fill="#ccc"/>
        <path id="pic_big_1-3" data-name="pic_big_1" d="M208.591,1914.938a2.134,2.134,0,0,1-2.135-2.135v-12.811a2.134,2.134,0,0,1,2.135-2.134H221.4a2.134,2.134,0,0,1,2.135,2.134V1912.8a2.134,2.134,0,0,1-2.135,2.135Zm0-2.135H221.4v-12.811h-12.81Zm1.067-3.2,3.2-5.338,3.2,4.27,2.135-2.136,2.135,3.2Zm6.405-5.338a1.067,1.067,0,1,1,1.067,1.067A1.067,1.067,0,0,1,216.064,1904.263Z" fill="#ccc"/>
      </g>
    </g>
    <g id="Group_118" data-name="Group 118">
      <g id="Group_108" data-name="Group 108">
        <g id="Group_107" data-name="Group 107">
          <path id="Path_201" data-name="Path 201" d="M223.1,1930.645s-4.16,2.054-5.362,2.728-.9.889-.6,1.969a25.75,25.75,0,0,0,1.083,2.457,7.138,7.138,0,0,0,1.8,2.707c.682.324,5.118-.789,5.811-2.363S224.6,1932.282,223.1,1930.645Z" fill="#ff8f8e"/>
          <path id="Path_202" data-name="Path 202" d="M224.328,1936.142l-1.529-1.864a5.506,5.506,0,0,1-2.413,1c.665.921,1.173,1.987.934,2.695a11.515,11.515,0,0,1,2.185-.034Z" fill="#ae324a"/>
          <path id="Path_203" data-name="Path 203" d="M206.287,1926.051s.74,1.842,2.113,1.868a7.146,7.146,0,0,0,3.577-.7,21.868,21.868,0,0,0,5.592.7,9.732,9.732,0,0,0,2.722,2.056c1.2.44,2.39,1.021,2.39,1.021s1.072,2.492,1.317,3.257-.822,3.311-1.732,4.148-6,2.38-7.987,3.55c-1.463.86-2.107,1.525-2.3,2.881-.124.876.891,2.044.891,2.044a32.1,32.1,0,0,1,4.61-2.47c2.089-.828,4.1-1.528,5.477-1.11a13.883,13.883,0,0,0,6.716.588c2.2-.482,13.881-.028,13.881-.028l-1.776-10.275a45.47,45.47,0,0,1-6.229,1.091c-1.092-.1-5.311-4.483-6.627-5.9a7.654,7.654,0,0,0-3.986-2.405c-2.161-.364-4.329-1.585-5.858-1.9-2.193-.457-5.165-.872-6.772-.348C209.763,1924.952,206.287,1926.051,206.287,1926.051Z" fill="#ff8f8e"/>
        </g>
        <rect id="Rectangle_65" data-name="Rectangle 65" width="11.578" height="41.642" rx="5.789" transform="matrix(-0.676, -0.737, 0.737, -0.676, 265.755, 1946.577)" fill="#ff8f8e"/>
        <path id="Path_204" data-name="Path 204" d="M263.828,1932.634l7.25,4.664a4.971,4.971,0,0,0-.356-2.8,5.913,5.913,0,0,0-5.534-3.1Q264.507,1932.016,263.828,1932.634Z" fill="#ae324a"/>
        <rect id="Rectangle_66" data-name="Rectangle 66" width="11.578" height="47.933" rx="5.789" transform="translate(271.384 1932.634) rotate(90)" fill="#ff8f8e"/>
        <rect id="Rectangle_67" data-name="Rectangle 67" width="23.795" height="35.693" rx="4.389" transform="matrix(0.676, 0.737, -0.737, 0.676, 298.267, 1892.526)" fill="#b388eb"/>
      </g>
      <g id="Group_110" data-name="Group 110">
        <rect id="Rectangle_68" data-name="Rectangle 68" width="8.614" height="35.665" rx="4.307" transform="translate(291.647 2117.646) rotate(-180)" fill="#ff8f8e"/>
        <path id="Path_205" data-name="Path 205" d="M292.669,2126.43H266.12a7.23,7.23,0,0,1,.246-2.753c1.011-3.42,4.359-4.717,8.948-7.817a58.92,58.92,0,0,0,6.785-5.36h10.57Z" fill="#b388eb"/>
        <path id="Path_206" data-name="Path 206" d="M266.118,2124.971h26.551v1.459H266.118a7.5,7.5,0,0,1-.035-.78C266.084,2125.406,266.1,2125.179,266.118,2124.971Z" fill="#fff"/>
        <circle id="Ellipse_12" data-name="Ellipse 12" cx="2.557" cy="2.557" r="2.557" transform="translate(285.59 2117.646)" fill="#fff"/>
        <g id="Group_109" data-name="Group 109">
          <path id="Path_207" data-name="Path 207" d="M288.146,2122.382a2.18,2.18,0,1,1,2.18-2.18A2.183,2.183,0,0,1,288.146,2122.382Zm0-4.064a1.884,1.884,0,1,0,1.885,1.884A1.887,1.887,0,0,0,288.146,2118.318Z" fill="#b388eb"/>
        </g>
        <path id="Path_208" data-name="Path 208" d="M278.593,2113.468l3.408,3.408,1.032-1.032-3.3-3.3Q279.149,2113.033,278.593,2113.468Z" fill="#fff"/>
        <path id="Path_209" data-name="Path 209" d="M279.753,2119.124l1.032-1.032-3.574-3.574c-.42.31-.825.6-1.2.864Z" fill="#fff"/>
        <path id="Path_210" data-name="Path 210" d="M273.385,2117.114l4.189,4.189,1.032-1.032-3.965-3.965C274.21,2116.589,273.792,2116.857,273.385,2117.114Z" fill="#fff"/>
      </g>
      <g id="Group_112" data-name="Group 112">
        <rect id="Rectangle_69" data-name="Rectangle 69" width="8.614" height="35.665" rx="4.307" transform="translate(359.633 2110.883) rotate(163.828)" fill="#ff8f8e"/>
        <path id="Path_211" data-name="Path 211" d="M363.061,2119.035l-25.5,7.4a7.226,7.226,0,0,1-.531-2.713c.018-3.567,2.873-5.745,6.417-10a58.868,58.868,0,0,0,5.023-7.037l10.153-2.944Z" fill="#b388eb"/>
        <path id="Path_212" data-name="Path 212" d="M337.154,2125.028l25.5-7.4.406,1.4-25.5,7.4a7.637,7.637,0,0,1-.252-.739C337.243,2125.456,337.193,2125.234,337.154,2125.028Z" fill="#fff"/>
        <circle id="Ellipse_13" data-name="Ellipse 13" cx="2.557" cy="2.557" r="2.557" transform="translate(354.426 2111.757)" fill="#fff"/>
        <g id="Group_111" data-name="Group 111">
          <path id="Path_213" data-name="Path 213" d="M357.59,2116.407a2.18,2.18,0,1,1,1.486-2.7A2.182,2.182,0,0,1,357.59,2116.407Zm-1.132-3.9a1.885,1.885,0,1,0,2.335,1.285A1.888,1.888,0,0,0,356.458,2112.5Z" fill="#b388eb"/>
        </g>
        <path id="Path_214" data-name="Path 214" d="M345.932,2110.507l4.222,2.323.7-1.278-4.084-2.248Q346.345,2109.932,345.932,2110.507Z" fill="#fff"/>
        <path id="Path_215" data-name="Path 215" d="M348.621,2115.616l.7-1.279L344.9,2111.9c-.317.414-.625.807-.913,1.164Z" fill="#fff"/>
        <path id="Path_216" data-name="Path 216" d="M341.946,2115.459l5.189,2.856.7-1.279-4.912-2.7C342.591,2114.725,342.265,2115.1,341.946,2115.459Z" fill="#fff"/>
      </g>
      <g id="Group_113" data-name="Group 113">
        <rect id="Rectangle_70" data-name="Rectangle 70" width="12.56" height="20.231" transform="translate(310.743 1868.187)" fill="#ff8f8e"/>
        <path id="Path_217" data-name="Path 217" d="M321.72,1874.4c1.567,4.043-2.86,9.13-6.891,9.411a6.264,6.264,0,0,1-4.086-1.317,6.657,6.657,0,0,1-2.271-5.268,7.186,7.186,0,0,1,6.172-6.6C317.592,1870.26,320.736,1871.857,321.72,1874.4Z" fill="#ae324a"/>
        <path id="Path_218" data-name="Path 218" d="M323.383,1865.082v-5.675a6.214,6.214,0,0,0-6.2-6.2h-7.576a6.215,6.215,0,0,0-6.2,6.2v9.714c.546,8.319,5.661,14.027,9.984,14.042,5.175.018,9.936-8.079,9.965-14.084Z" fill="#ff8f8e"/>
        <path id="Path_219" data-name="Path 219" d="M317.816,1861.194c-.982-1.422-3.568-2.146-5.723-1.786-1.81.3-1.765,1.033-3.551,1.37a7.237,7.237,0,0,1-6.057-1.6,6.625,6.625,0,0,1-1.881-4.1c-.335-2.939,1.121-6.452,3.243-7.182,1.946-.67,2.676,1.145,6.348,1.237,2.494.062,2.728-.761,6.02-.854a13.073,13.073,0,0,1,5.238.635,14.566,14.566,0,0,1,5.02,4.074c7.413,9.645-.022,27.625-3.17,27.5-1.311-.052-2.976-3.29-2.592-5.653.13-.8.554-1.865,1.371-5,.1-.386.094-.4.154-.585.441-1.35,1.205-2.136.964-3.465a2.038,2.038,0,0,0-.946-1.537,1.7,1.7,0,0,0-1.6.145,2.534,2.534,0,0,0-.927,1.855c-.156.957.08,1.593-.055,1.637-.168.056-.719-.869-1.109-1.982C317.624,1863.234,318.623,1862.364,317.816,1861.194Z" fill="#b388eb"/>
        <path id="Path_220" data-name="Path 220" d="M322.483,1866.435c-.039.006.013-.651-.382-.894a.582.582,0,0,0-.444-.061.7.7,0,0,0-.4.463,1.076,1.076,0,0,0,.033.729c.109.3.233.282.345.575a1.054,1.054,0,0,1,.007.906.682.682,0,0,1-.67.349.43.43,0,0,1-.329-.3c-.015-.1.052-.138.148-.384a.767.767,0,0,0,.1-.407c-.042-.2-.233-.188-.312-.422a.634.634,0,0,1,.028-.43c.057-.134.109-.122.169-.24.117-.232-.043-.362.036-.649a.785.785,0,0,1,.286-.41.8.8,0,0,1,.458-.152,1.12,1.12,0,0,1,.793.4A.959.959,0,0,1,322.483,1866.435Z" fill="#ae324a"/>
        <rect id="Rectangle_71" data-name="Rectangle 71" width="2.674" height="2.019" rx="1.009" transform="translate(302.078 1867.178)" fill="#ff8f8e"/>
      </g>
      <g id="Group_114" data-name="Group 114">
        <rect id="Rectangle_72" data-name="Rectangle 72" width="23.786" height="17.84" rx="4.417" transform="translate(304.425 1888.418)" fill="#ff8f8e"/>
        <path id="Path_221" data-name="Path 221" d="M308.913,1888.418a18.252,18.252,0,0,0-16.185,9.8c-1.148,2.2-4.528,6.032-6.143,13.985-4.107,20.231,4.049,47.43,5.947,53.519h53.519c3.56-7.64,11.107-26.582,5.947-47.573-1.507-6.129-5.618-13.3-11.762-21.978a18.308,18.308,0,0,0-14.936-7.755,8.6,8.6,0,0,1-16.387,0Z" fill="#b388eb"/>
      </g>
      <g id="Group_116" data-name="Group 116">
        <g id="Group_115" data-name="Group 115">
          <rect id="Rectangle_73" data-name="Rectangle 73" width="11.573" height="41.626" rx="5.787" transform="matrix(-0.701, 0.713, -0.713, -0.701, 376.033, 1938.326)" fill="#ff8f8e"/>
          <rect id="Rectangle_74" data-name="Rectangle 74" width="11.573" height="47.916" rx="5.787" transform="matrix(0.207, 0.978, -0.978, 0.207, 372.292, 1931.596)" fill="#ff8f8e"/>
          <path id="Path_222" data-name="Path 222" d="M356.136,1935.007l7.482-1.58a14.937,14.937,0,0,0-8.7.389Z" fill="#ae324a"/>
        </g>
        <rect id="Rectangle_75" data-name="Rectangle 75" width="23.786" height="35.68" rx="4.389" transform="translate(320.382 1908.684) rotate(-45.518)" fill="#b388eb"/>
        <path id="Path_223" data-name="Path 223" d="M348.833,1948.327s-11.581,2.183-13.788,2.392-5.334,2.74-7.877,3.077a42.846,42.846,0,0,1-8.508.007c-1.083-.031-2.046-.219-2.288-.973a1.658,1.658,0,0,1,.192-1.665s-1.7.152-1.982-.781a2.331,2.331,0,0,1,.56-2.133,1.984,1.984,0,0,1-1.641-1.318c-.229-.8.721-2,.721-2a1.64,1.64,0,0,1-.754-1.66c.07-.692,1.153-1.006,2.286-1.435.7-.265,5.171-1.324,5.858-1.641a3.008,3.008,0,0,0,.866-3.556c-1.249-2.686-1.571-4.428-.559-6.151.772-1.316,1.626-.991,1.626-.991s.189,2.865.776,3.711a21.246,21.246,0,0,1,1.895,3.564,6.918,6.918,0,0,0,3.241,2.769c.685.238,1.561.568,2.487.829a7.533,7.533,0,0,0,3.506.32c3.181-.711,12.04-3.056,12.04-3.056l.255,2.025h0Z" fill="#ff8f8e"/>
      </g>
      <g id="Group_117" data-name="Group 117">
        <path id="Path_224" data-name="Path 224" d="M292.532,1965.724c4.386,18.872,8.9,34.6,12.554,46.4,5.909,19.07,9.981,32.211,17.7,48.618a259.122,259.122,0,0,0,23.191,39.723l11.411-3.192c-.343-4.66-1.014-11.8-2.442-20.407-3.172-19.111-6.021-21.038-8.52-34.477-5.393-28.994-.353-64.225-.372-70.716,0-.1-.006-1.787,0-4.084,0-.711,0-1.337,0-1.863Z" fill="#20221d"/>
        <path id="Path_225" data-name="Path 225" d="M292.532,1965.724A383.735,383.735,0,0,0,280.639,2102.5h11.893c5.407-30.247,15.727-50.95,24.489-64.532,10.628-16.473,27.941-36.385,29.03-66.293.092-2.511.05-4.582,0-5.947Z" fill="#444"/>
      </g>
    </g>
    <g id="Group_128" data-name="Group 128">
      <g id="Group_119" data-name="Group 119">
        <path id="Path_226" data-name="Path 226" d="M35.222,1993.9s4.606.556,5.963.793,1.141.541,1.222,1.658a25.729,25.729,0,0,1-.207,2.677,7.131,7.131,0,0,1-.8,3.152c-.536.533-5.089.956-6.266-.3S34.346,1995.94,35.222,1993.9Z" fill="#ff8f8e"/>
        <path id="Path_227" data-name="Path 227" d="M35.887,1999.49l.824-2.266a5.5,5.5,0,0,0,2.607.14c-.322,1.089-.447,2.263.014,2.852a11.49,11.49,0,0,0-2.073.693Z" fill="#ae324a"/>
        <path id="Path_228" data-name="Path 228" d="M49.554,1983.981s-.087,1.983-1.373,2.464a7.136,7.136,0,0,1-3.6.53,21.9,21.9,0,0,1-5.042,2.521,9.729,9.729,0,0,1-1.884,2.843c-.987.813-1.916,1.756-1.916,1.756s-.183,2.706-.16,3.509,1.875,2.851,3.01,3.338,6.45.254,8.713.7c1.666.326,2.494.739,3.126,1.954a3.442,3.442,0,0,1-.162,2.224,32.031,32.031,0,0,0-5.169-.8c-2.246-.088-4.371-.081-5.535.771a13.884,13.884,0,0,1-6.139,2.785c-2.235.276-13.1,4.582-13.1,4.582l-1.737-10.282a45.411,45.411,0,0,0,6.238-1.038c1-.459,3.521-5.993,4.292-7.766a7.655,7.655,0,0,1,2.961-3.592c1.918-1.061,3.557-2.933,4.894-3.741,1.917-1.159,4.582-2.538,6.273-2.577C45.91,1984.1,49.554,1983.981,49.554,1983.981Z" fill="#ff8f8e"/>
      </g>
      <g id="Group_121" data-name="Group 121">
        <rect id="Rectangle_76" data-name="Rectangle 76" width="8.448" height="34.975" rx="3.332" transform="translate(-1.867 2082.84)" fill="#ff8f8e"/>
        <path id="Path_229" data-name="Path 229" d="M-2.869,2126.43H23.167a7.1,7.1,0,0,0-.241-2.7c-.992-3.354-4.275-4.626-8.775-7.666a57.7,57.7,0,0,1-6.654-5.256H-2.869Z" fill="#b388eb"/>
        <path id="Path_230" data-name="Path 230" d="M23.169,2125H-2.869v1.431H23.169a7.515,7.515,0,0,0,.034-.765C23.2,2125.426,23.189,2125.2,23.169,2125Z" fill="#fff"/>
        <circle id="Ellipse_14" data-name="Ellipse 14" cx="2.507" cy="2.507" r="2.507" transform="translate(-0.941 2117.816)" fill="#fff"/>
        <g id="Group_120" data-name="Group 120">
          <path id="Path_231" data-name="Path 231" d="M1.566,2122.46a2.137,2.137,0,1,0-2.137-2.137A2.14,2.14,0,0,0,1.566,2122.46Zm0-3.985a1.848,1.848,0,1,1-1.848,1.848A1.85,1.85,0,0,1,1.566,2118.475Z" fill="#b388eb"/>
        </g>
        <path id="Path_232" data-name="Path 232" d="M10.935,2113.719l-3.342,3.342-1.012-1.012,3.232-3.233Q10.389,2113.292,10.935,2113.719Z" fill="#fff"/>
        <path id="Path_233" data-name="Path 233" d="M9.8,2119.265l-1.012-1.012,3.5-3.5c.412.3.809.589,1.178.846Z" fill="#fff"/>
        <path id="Path_234" data-name="Path 234" d="M16.042,2117.294l-4.108,4.108-1.012-1.012,3.888-3.888Q15.444,2116.918,16.042,2117.294Z" fill="#fff"/>
      </g>
      <path id="Path_235" data-name="Path 235" d="M-29.109,2041.621c13.659-7.982,26.835-9.908,33.594-4.071,3.175,2.742,4.125,6.5,5.76,12.96,1.9,7.527,2.263,14.681,1.08,29.806-.548,7-1.451,16.033-3.024,26.566H-3.362c-2.629-31.651-11.266-42.041-19.223-45.285-12.646-5.155-26.674,6.477-39.094-1.368-6.957-4.394-9.722-12.569-10.974-18.608Z" fill="#20221d"/>
      <rect id="Rectangle_77" data-name="Rectangle 77" width="11.35" height="40.822" rx="4.477" transform="matrix(0.676, -0.737, 0.737, 0.676, -31.256, 1994.657)" fill="#ff8f8e"/>
      <path id="Path_236" data-name="Path 236" d="M.714,2008.584l-7.107,4.572a4.868,4.868,0,0,1,.349-2.743,5.8,5.8,0,0,1,5.425-3.04Z" fill="#ae324a"/>
      <rect id="Rectangle_78" data-name="Rectangle 78" width="11.35" height="46.989" rx="4.477" transform="translate(36.093 1996.118) rotate(72.067)" fill="#ff8f8e"/>
      <rect id="Rectangle_79" data-name="Rectangle 79" width="23.327" height="34.99" rx="4.389" transform="matrix(-0.676, 0.737, -0.737, -0.676, -7.264, 1992.92)" fill="#b388eb"/>
      <g id="Group_123" data-name="Group 123">
        <rect id="Rectangle_80" data-name="Rectangle 80" width="8.448" height="34.975" rx="3.332" transform="matrix(0.203, 0.979, -0.979, 0.203, -57.628, 2092.096)" fill="#ff8f8e"/>
        <path id="Path_237" data-name="Path 237" d="M-100.516,2099.951l5.278,25.5a7.09,7.09,0,0,0,2.6-.783c3.084-1.651,3.664-5.124,5.728-10.147a57.625,57.625,0,0,1,3.8-7.581l-2.1-10.151Z" fill="#b388eb"/>
        <path id="Path_238" data-name="Path 238" d="M-93.836,2125.158l-5.279-25.5-1.4.29,5.278,25.5a7.349,7.349,0,0,0,.757-.121C-94.248,2125.277-94.032,2125.219-93.836,2125.158Z" fill="#fff"/>
        <circle id="Ellipse_15" data-name="Ellipse 15" cx="2.507" cy="2.507" r="2.507" transform="translate(-96.144 2100.549)" fill="#fff"/>
        <g id="Group_122" data-name="Group 122">
          <path id="Path_239" data-name="Path 239" d="M-95.73,2103.49a2.141,2.141,0,0,0,2.527,1.66,2.141,2.141,0,0,0,1.66-2.527,2.141,2.141,0,0,0-2.527-1.66A2.141,2.141,0,0,0-95.73,2103.49Zm3.9-.808a1.849,1.849,0,0,1-1.435,2.184,1.849,1.849,0,0,1-2.184-1.435,1.849,1.849,0,0,1,1.435-2.184A1.849,1.849,0,0,1-91.827,2102.682Z" fill="#b388eb"/>
        </g>
        <path id="Path_240" data-name="Path 240" d="M-85.27,2110.891l-3.95-2.6.786-1.2,3.82,2.51C-84.846,2110.05-85.066,2110.478-85.27,2110.891Z" fill="#fff"/>
        <path id="Path_241" data-name="Path 241" d="M-90.932,2110.9l.786-1.2,4.142,2.721c-.213.465-.413.912-.59,1.325Z" fill="#fff"/>
        <path id="Path_242" data-name="Path 242" d="M-87.736,2116.617l-4.855-3.189.786-1.2,4.6,3.02C-87.4,2115.721-87.57,2116.176-87.736,2116.617Z" fill="#fff"/>
      </g>
      <g id="Group_124" data-name="Group 124">
        <rect id="Rectangle_81" data-name="Rectangle 81" width="12.317" height="19.84" transform="translate(-38.028 1965.809) rotate(180)" fill="#ff8f8e"/>
        <path id="Path_243" data-name="Path 243" d="M-48.793,1952.058c-1.537,3.964,2.806,8.954,6.758,9.229a6.141,6.141,0,0,0,4.007-1.292,6.523,6.523,0,0,0,2.227-5.165,7.048,7.048,0,0,0-6.053-6.472C-44.744,1948-47.827,1949.568-48.793,1952.058Z" fill="#ae324a"/>
        <path id="Path_244" data-name="Path 244" d="M-50.424,1942.924v-5.565a6.1,6.1,0,0,1,6.077-6.077h7.429a6.094,6.094,0,0,1,6.076,6.077v9.526c-.534,8.158-5.551,13.756-9.791,13.771-5.074.017-9.744-7.923-9.772-13.812Z" fill="#ff8f8e"/>
        <path id="Path_245" data-name="Path 245" d="M-44.964,1939.111c.963-1.4,3.5-2.1,5.612-1.751,1.775.3,1.732,1.013,3.483,1.343a7.1,7.1,0,0,0,5.939-1.566,6.489,6.489,0,0,0,1.845-4.02c.329-2.883-1.1-6.328-3.18-7.044-1.908-.657-2.624,1.122-6.225,1.213-2.446.061-2.675-.746-5.9-.837a12.806,12.806,0,0,0-5.137.623,14.272,14.272,0,0,0-4.923,3.995c-7.27,9.458.022,27.091,3.109,26.967,1.286-.052,2.919-3.227,2.542-5.544-.127-.783-.543-1.829-1.345-4.9-.1-.379-.092-.4-.15-.574-.433-1.324-1.183-2.094-.945-3.4a1.994,1.994,0,0,1,.927-1.507,1.666,1.666,0,0,1,1.57.143,2.48,2.48,0,0,1,.909,1.819c.153.938-.078,1.562.054,1.605.164.054.705-.852,1.088-1.944C-44.776,1941.112-45.756,1940.259-44.964,1939.111Z" fill="#b388eb"/>
        <path id="Path_246" data-name="Path 246" d="M-49.541,1944.251c.039.006-.013-.639.374-.877a.583.583,0,0,1,.437-.06.682.682,0,0,1,.4.455,1.056,1.056,0,0,1-.032.715c-.107.3-.229.276-.338.563a1.031,1.031,0,0,0-.007.889.667.667,0,0,0,.657.341.418.418,0,0,0,.322-.289c.016-.1-.05-.136-.145-.377a.751.751,0,0,1-.1-.4c.04-.2.228-.183.305-.413a.627.627,0,0,0-.027-.422c-.056-.131-.107-.12-.166-.235-.115-.228.043-.355-.035-.636a.776.776,0,0,0-.28-.4.784.784,0,0,0-.449-.148,1.092,1.092,0,0,0-.778.391A.939.939,0,0,0-49.541,1944.251Z" fill="#ae324a"/>
        <rect id="Rectangle_82" data-name="Rectangle 82" width="2.622" height="1.98" rx="0.781" transform="translate(-29.531 1946.959) rotate(180)" fill="#ff8f8e"/>
      </g>
      <g id="Group_125" data-name="Group 125">
        <rect id="Rectangle_83" data-name="Rectangle 83" width="23.327" height="17.495" rx="4.417" transform="translate(-31.832 1983.304) rotate(180)" fill="#ff8f8e"/>
        <path id="Path_247" data-name="Path 247" d="M-36.233,1965.809a17.9,17.9,0,0,1,15.872,9.612c1.126,2.157,4.441,5.915,6.024,13.715,4.028,19.84-3.97,46.513-5.831,52.485H-72.653c-3.491-7.493-10.892-26.068-5.832-46.654,1.478-6.01,5.509-13.043,11.535-21.553a17.953,17.953,0,0,1,14.647-7.6,8.663,8.663,0,0,0,8.808,5.832A8.6,8.6,0,0,0-36.233,1965.809Z" fill="#b388eb"/>
      </g>
      <path id="Path_248" data-name="Path 248" d="M-20.151,2041.621a47.85,47.85,0,0,1,18.516,20.768c2.163,4.813,5.313,11.821,3.24,19.007-.659,2.286-3.583,10.609-24.9,18.541-10.8,4.02-29.782,9.225-55.881,6.945v-11.663l46.653-17.495c-3.44-.877-37.155-9.872-40.115-30.272a20.6,20.6,0,0,1,0-5.831Z" fill="#444"/>
      <g id="Group_127" data-name="Group 127">
        <g id="Group_126" data-name="Group 126">
          <rect id="Rectangle_84" data-name="Rectangle 84" width="11.35" height="40.822" rx="4.477" transform="translate(-71.873 1986.873) rotate(45.518)" fill="#ff8f8e"/>
          <rect id="Rectangle_85" data-name="Rectangle 85" width="11.35" height="46.989" rx="4.477" transform="matrix(-0.207, 0.978, -0.978, -0.207, -51.354, 2018.582)" fill="#ff8f8e"/>
          <path id="Path_249" data-name="Path 249" d="M-81.485,2012.221l-7.338-1.55a14.66,14.66,0,0,1,4.111-.451,14.678,14.678,0,0,1,4.416.833Z" fill="#ae324a"/>
        </g>
        <rect id="Rectangle_86" data-name="Rectangle 86" width="23.327" height="34.99" rx="4.389" transform="translate(-71.387 2010.923) rotate(-134.482)" fill="#b388eb"/>
        <path id="Path_250" data-name="Path 250" d="M-74.324,2025.283s11.357,2.141,13.521,2.345,5.231,2.688,7.725,3.019a42.024,42.024,0,0,0,8.344.006c1.062-.03,2.007-.214,2.244-.954a1.624,1.624,0,0,0-.189-1.632s1.664.148,1.944-.767a2.284,2.284,0,0,0-.549-2.091,1.946,1.946,0,0,0,1.61-1.293c.224-.788-.708-1.963-.708-1.963a1.6,1.6,0,0,0,.74-1.627c-.069-.679-1.131-.987-2.243-1.408-.685-.26-5.071-1.3-5.744-1.608a2.951,2.951,0,0,1-.849-3.488c1.224-2.634,1.54-4.342.548-6.032-.757-1.29-1.594-.972-1.594-.972s-.186,2.81-.762,3.64a20.85,20.85,0,0,0-1.858,3.494,6.779,6.779,0,0,1-3.179,2.715c-.671.234-1.53.558-2.438.814a7.4,7.4,0,0,1-3.438.314c-3.12-.7-11.808-3-11.808-3l-.25,1.986h0Z" fill="#ff8f8e"/>
      </g>
    </g>
  </g>
</svg>
