<svg id="Group_1008" data-name="Group 1008" xmlns="http://www.w3.org/2000/svg" width="108.141" height="302.047" viewBox="0 0 108.141 302.047">
  <path id="Path_2144" data-name="Path 2144" d="M-853.281-48.205c-3.951-6.065-13.31-15.714-13.047-19.839s2.967-13.227-1.08-18.725c-3.894-5.291-9.72-6.747-11.3-10.872-1.531-3.994-2.978-13.192-17.405-14-14.427.807-15.874,10.076-17.4,14.07-1.582,4.125-7.92,5.2-12.4,10.058s-.247,15.414.015,19.539-10.887,13.587-13.852,20.145c-3.269,7.231,12.536,19.883,12.536,19.883s17.341,2.2,31.1,4.016c13.763-1.813,31.1-4.087,31.1-4.087S-849.329-42.14-853.281-48.205Z" transform="translate(940.196 111.639)" fill="#4b525e"/>
  <path id="Path_2145" data-name="Path 2145" d="M-936.052-56.786c6.553,8.094,11.8,9.227,19.427,8.732l-4.083-37.575c-3.482.9-5.216,3.391-7.383,7.134C-931.209-73.1-933.805-64.26-936.052-56.786Z" transform="translate(945.262 143.43)" fill="#00c6b3"/>
  <path id="Path_2146" data-name="Path 2146" d="M-892.77-57.689c-6.614,8.047-13.872,9.654-21.494,9.1l3.493-37.6c3.478.922,5.349,3.4,7.771,6.96A86.623,86.623,0,0,1-892.77-57.689Z" transform="translate(971.894 142.753)" fill="#00c6b3"/>
  <path id="Path_2147" data-name="Path 2147" d="M-891.771-84.883c-10.549-2.956-22.156-3.693-36.357,1.033,0,0-2.111,28.443-1.6,31.135.355,1.865,3.349,4.474,5.154,5.9l2.191,22.834,30.059.224s.293-20.6.784-21.9,5-5.765,5.027-9.023S-891.771-84.883-891.771-84.883Z" transform="translate(952.894 141.452)" fill="#00c6b3"/>
  <path id="Path_2148" data-name="Path 2148" d="M-922.077,125.443c0-1.182-13.485-142.389-10.876-151.818,2.687-9.714,15.03-32.335,15.03-32.335h30.057s8.669,20.988,10.234,26.026c3.251,10.478,38.484,159.294,37.093,158.127-.749-.629-33.575,0-33.575,0L-901.182-4.508l11.718,129.95Z" transform="translate(948.641 176.335)" fill="#f9716e"/>
  <path id="Path_2149" data-name="Path 2149" d="M-892.343-53.048c-1.418-3.3-2.456-5.662-2.456-5.662h-30.057s-1.12,2.287-2.76,5.662Z" transform="translate(955.573 176.335)" fill="#b85042"/>
  <rect id="Rectangle_507" data-name="Rectangle 507" width="10.027" height="5.662" transform="translate(40.912 117.625)" fill="#455a75"/>
  <path id="Path_2150" data-name="Path 2150" d="M-906.435-78.1c-1.5-3.387-3.062-15.514-3.062-15.514l-11.625.469s-1.462,10.8-2.587,15.045C-918.355-71.82-912.526-72.933-906.435-78.1Z" transform="translate(960.349 133.674)" fill="#f79e86"/>
  <g id="Group_1005" data-name="Group 1005" transform="translate(33.257 11.325)">
    <g id="Group_1004" data-name="Group 1004">
      <path id="Path_2151" data-name="Path 2151" d="M-909.679-88.026l-.835-5.358-11.674.356-.687,4.669C-919.386-85.986-913.619-86.368-909.679-88.026Z" transform="translate(928.111 122.627)" fill="#edb1a1" style="mix-blend-mode: multiply;isolation: isolate"/>
      <path id="Path_2152" data-name="Path 2152" d="M-913.63-106.543c-17.354,0-10.349,20.436-9.445,24.121.864,3.522,4.865,10.72,9.445,10.72s8.556-6.936,9.445-10.72C-903.316-86.115-896.276-106.543-913.63-106.543Z" transform="translate(925.231 106.543)" fill="#f79e86"/>
    </g>
  </g>
  <path id="Path_2153" data-name="Path 2153" d="M-926.722-93.449c1.3-1.309,30.521-.947,30.177-.073,0,0-2.964-15.47-15.536-14.976S-926.722-93.449-926.722-93.449Z" transform="translate(956.666 115.463)" fill="#4b525e"/>
  <path id="Path_2154" data-name="Path 2154" d="M-923.291-90.614l2.568-12.628-5.993.963Z" transform="translate(956.674 121.903)" fill="#4b525e"/>
  <path id="Path_2155" data-name="Path 2155" d="M-913.3-90.677l-2.568-12.628,5.993.963Z" transform="translate(969.933 121.826)" fill="#4b525e"/>
  <path id="Path_2156" data-name="Path 2156" d="M-924.564-67.514c.4-2.356,21.057-2.165,21.245-.153Z" transform="translate(959.304 163.478)" fill="#c2b9b1" style="mix-blend-mode: multiply;isolation: isolate"/>
  <g id="Group_1006" data-name="Group 1006" transform="translate(29.795 88.498)">
    <path id="Path_2157" data-name="Path 2157" d="M-896.985-26.592l-29.8-3.16,4.46-42.065,29.807,2.933Z" transform="translate(926.789 71.817)" fill="#b0cbdb"/>
  </g>
  <g id="Group_1007" data-name="Group 1007" transform="translate(31.386 98.446)">
    <rect id="Rectangle_508" data-name="Rectangle 508" width="27.156" height="38.327" transform="translate(0.285 0) rotate(0.426)" fill="#626d85"/>
  </g>
  <path id="Path_2158" data-name="Path 2158" d="M-921.424-41.818l24.172-12.445L-899.085-66.1a22.774,22.774,0,0,0,12.227-5.936s4.389,20.885,1.713,23.588c-3.66,3.693-30.279,14.39-30.279,14.39Z" transform="translate(963.142 160.05)" fill="#f79e86"/>
  <path id="Path_2159" data-name="Path 2159" d="M-905.575,26.972c-.349-2.738-4.678-4.9-9.983-4.9s-9.634,2.165-9.983,4.9Z" transform="translate(958.111 275.074)" fill="#5b6a82"/>
  <path id="Path_2160" data-name="Path 2160" d="M-884.065,26.972c-.349-2.738-4.68-4.9-9.983-4.9s-9.634,2.165-9.985,4.9Z" transform="translate(984.399 275.074)" fill="#5b6a82"/>
  <path id="Path_2161" data-name="Path 2161" d="M-910.885-48.653l4.48-4.134-7.28-5.285s-3.78-.769-4.909-.273-6,3.487-6,3.487,1.12,1.3,2.042,1.089,5.518-2.036,5.518-2.036-9.282,5.207-9.469,5.862.407,1.565.893,1.482,7.178-3.562,7.178-3.562-7.756,5.271-7.914,5.776.053,1.607.72,1.538,8.732-5.629,8.732-5.629-7.24,5.265-7.607,5.9a.942.942,0,0,0,.831,1.353c.584-.038,7.925-5.3,7.925-5.3s-5.676,4.462-5.907,5.058a.779.779,0,0,0,.913,1.018C-920.13-42.4-910.885-48.653-910.885-48.653Z" transform="translate(956.895 176.579)" fill="#f79e86"/>
  <path id="Path_2162" data-name="Path 2162" d="M-907.475-52.786l-7.28-5.285s-3.78-.769-4.909-.273-6,3.487-6,3.487,1.118,1.3,2.042,1.089S-918.1-55.8-918.1-55.8s-3.538,1.858-6.307,3.7l2.289,1.438a28.216,28.216,0,0,1,2.62-1.36s-1.02.682-2.335,1.58l2.138,1.289c1.018-.691,1.736-1.185,1.736-1.185s-.7.507-1.669,1.224l2.08,1.256c.453-.322.738-.527.738-.527l-.7.551,2.278,1.373c1.8-1.2,3.274-2.193,3.274-2.193Z" transform="translate(957.964 176.579)" fill="#edb1a1" style="mix-blend-mode: multiply;isolation: isolate"/>
  <path id="Path_2163" data-name="Path 2163" d="M-922.818-54.246l4.589,7.4s4.756-2.047,11.263-4.814L-916.1-56.7l3-3.233Z" transform="translate(961.438 174.835)" fill="#edb1a1" style="mix-blend-mode: multiply;isolation: isolate"/>
  <path id="Path_2164" data-name="Path 2164" d="M-904.794-42.839l-17.348-12.485,1.154-10.325a19.13,19.13,0,0,1-13.065-5.516s-2.776,19.376-.1,22.079c3.66,3.691,26.092,13.854,26.092,13.854Z" transform="translate(946.161 161.111)" fill="#f79e86"/>
  <path id="Path_2165" data-name="Path 2165" d="M-919.729-47.009l-5.127-3.3,3.98-6.743s5.209-2.3,6.156-2.718a10.561,10.561,0,0,1,4.042-.769c.607.062.876.571.44,1a2.945,2.945,0,0,1-.949.671,20.125,20.125,0,0,0-4.153,2.616s10.036,5.051,10.334,5.665-.711,1.513-1.4,1.336c-.475-.124-6.48-2.376-6.48-2.376s4.634,2.116,4.878,2.585-.46,1.407-1.129,1.453-4.974-2.116-4.974-2.116a29.742,29.742,0,0,1,3.5,2.4.939.939,0,0,1-.584,1.476c-.582.064-3.711-1.749-3.711-1.749a14.784,14.784,0,0,1,2.32,1.96.78.78,0,0,1-.724,1.16A66.2,66.2,0,0,1-919.729-47.009Z" transform="translate(958.947 174.079)" fill="#f79e86"/>
</svg>
