<svg id="Group_1056" data-name="Group 1056" xmlns="http://www.w3.org/2000/svg" width="663.01" height="367.269" viewBox="0 0 663.01 367.269">
  <g id="Group_1053" data-name="Group 1053">
    <g id="Group_1052" data-name="Group 1052">
      <path id="Path_2384" data-name="Path 2384" d="M-1049.911-129.1l609.056-.182s81.459-87.459,13.774-182.148c-27.732-38.8-65.252-68.945-113.054-67.539-24.643.678-48.187,9.96-68.381,23.359-21.881,14.521-84.957,1.791-138.646-83.7-27.037-43.035-78.175-59.974-128.492-56.658a194.6,194.6,0,0,0-78.125,22.183c-42.693,22.81-73.155,60.785-78.768,109.3-4.156,35.8,5.9,56.429,7.794,75.914,7.107,70.414-68.025,78.848-25.157,159.465Z" transform="translate(1063.207 496.37)" fill="#fcecdb"/>
      <path id="Path_2385" data-name="Path 2385" d="M-796.342-473.009c-27.09-18.152-61.545-25.2-95.626-22.957a194.6,194.6,0,0,0-78.125,22.183c-42.693,22.81-73.155,60.785-78.768,109.3-3.091,26.635,1.682,44.871,5.109,60.487h247.411Z" transform="translate(1079.521 496.37)" fill="#e1fff8"/>
      <path id="Path_2386" data-name="Path 2386" d="M-1011.816-374.02c20.71-10.572,32.67-14.647,35.455-37.584,1.218-10.023,10.925-13.812,23.345-16.923,3.5-.88,7.2-1.7,11-2.6,13.576-3.2,28.259-7.311,38.126-18.016,14.465-15.7,14.043-35.2,11.923-47.046A194.6,194.6,0,0,0-970.094-474c-42.693,22.81-73.155,60.785-78.768,109.3a140.907,140.907,0,0,0-.169,31.995c.018.1.033.2.044.291C-1034.193-337.27-1028.137-365.689-1011.816-374.02Z" transform="translate(1079.521 496.592)" fill="#aed9e0"/>
      <path id="Path_2387" data-name="Path 2387" d="M-1033.32-372.341v32.305h216.76V-441.224h-19.326v30.751h-22.038v-50.112H-882.24v32.53h-5.545v-38.828H-912.1v72.809h-30.748v42.458h-11.489v-18.9h-26.395v11.181h-15.153v-50.048H-1014.6v37.046Z" transform="translate(1099.738 532.411)" fill="#b8f2e6"/>
      <path id="Path_2388" data-name="Path 2388" d="M-771.2-409.8h-275.917a132.01,132.01,0,0,1,2.685,15.427H-771.2Z" transform="translate(1082.88 602.181)" fill="#f9ddbf"/>
      <path id="Path_2389" data-name="Path 2389" d="M-929.854-482.311a124.134,124.134,0,0,0-10.78-6.451v176.343h11V-482.166Z" transform="translate(1213.03 505.669)" fill="#f9ddbf"/>
      <path id="Path_2390" data-name="Path 2390" d="M-1006.282-487.551v178.695h11V-491.674q-5.563,1.89-11,4.122Z" transform="translate(1132.787 502.109)" fill="#f9ddbf"/>
      <path id="Path_2391" data-name="Path 2391" d="M-827.418-443.416c.838-.047,1.671-.08,2.509-.1,28.319-.833,58.167,9.467,86.775,36.833q1.257,1.2,2.509,2.449c.94.933,1.882,1.887,2.813,2.856v28.019h-97.418v-69.87q1.4-.113,2.811-.187Z" transform="translate(1347.98 560.917)" fill="#f9ddbf"/>
      <path id="Path_2392" data-name="Path 2392" d="M-826.453-443.516c28.317-.836,58.163,9.467,86.773,36.833q1.257,1.2,2.509,2.449V-376.9h-91.793v-66.518c.838-.042,1.673-.076,2.511-.1Z" transform="translate(1349.527 560.917)" fill="#ffead7"/>
      <path id="Path_2393" data-name="Path 2393" d="M-827.834-443.516v63.456h86.773v-26.623c-28.61-27.366-58.456-37.668-86.773-36.833Z" transform="translate(1350.908 560.917)" fill="#f4e0ce"/>
      <path id="Path_2394" data-name="Path 2394" d="M-1001.006-362.83l3.553,13.463.009,0,14.79,56.02h1.558l-8.554-46.475c-.007-.047-.018-.091-.027-.142l-4.231-22.985Z" transform="translate(1139.236 659.454)" fill="#e8c6a7"/>
      <path id="Path_2395" data-name="Path 2395" d="M-1032.443-293.345h1.553l12.056-45.633v-.009l2.738-10.378.009,0,3.553-13.463-7.1-.118-2.415,13.143-1.813,9.843c-.007.047-.022.1-.029.142Z" transform="translate(1100.81 659.454)" fill="#e8c6a7"/>
      <path id="Path_2396" data-name="Path 2396" d="M-1035.948-354.619H-919.53a2.873,2.873,0,0,0,2.867-2.865v-8.331a2.875,2.875,0,0,0-2.867-2.865h-116.418a2.873,2.873,0,0,0-2.865,2.865v8.331a2.871,2.871,0,0,0,2.865,2.865Z" transform="translate(1093.024 652.448)" fill="#efcbab"/>
    </g>
  </g>
  <g id="Group_1055" data-name="Group 1055" transform="translate(252.241 149.194)">
    <g id="Group_1054" data-name="Group 1054">
      <path id="Path_2397" data-name="Path 2397" d="M-940.332-386.88v-1.171a2.692,2.692,0,0,1,2.271-2.658l27.6-4.358a2.69,2.69,0,0,1,3.109,2.658v5.529Z" transform="translate(961.158 470.96)" fill="#bcbec0"/>
      <path id="Path_2398" data-name="Path 2398" d="M-904.145-369.1H-892l-20.827-43.39-1.736,8.678Z" transform="translate(992.661 449.707)" fill="#9d9fa1"/>
      <path id="Path_2399" data-name="Path 2399" d="M-876.2-388.537h-39.919v-1.951a3.255,3.255,0,0,1,3.254-3.256h33.41a3.256,3.256,0,0,1,3.256,3.256Z" transform="translate(990.752 472.617)" fill="#bcbec0"/>
      <path id="Path_2400" data-name="Path 2400" d="M-916.354-359.52a2.36,2.36,0,0,1-1.867-2.789l13.6-65.056a2.349,2.349,0,0,1,2.78-1.82,2.361,2.361,0,0,1,1.865,2.789l-13.594,65.058A2.35,2.35,0,0,1-916.354-359.52Z" transform="translate(988.125 429.235)" fill="#bcbec0"/>
      <rect id="Rectangle_516" data-name="Rectangle 516" width="5.207" height="126.699" transform="translate(121.493 91.023)" fill="#efcbab"/>
      <rect id="Rectangle_517" data-name="Rectangle 517" width="5.207" height="126.699" transform="translate(17.356 91.023)" fill="#efcbab"/>
      <rect id="Rectangle_518" data-name="Rectangle 518" width="5.207" height="5.207" transform="translate(17.356 91.023)" fill="#8a6266"/>
      <rect id="Rectangle_519" data-name="Rectangle 519" width="5.207" height="5.207" transform="translate(121.493 91.023)" fill="#8a6266"/>
      <rect id="Rectangle_520" data-name="Rectangle 520" width="145.791" height="8.678" rx="1.933" transform="translate(0 84.081)" fill="#efcbab"/>
    </g>
  </g>
</svg>
