<svg id="Group_977" data-name="Group 977" xmlns="http://www.w3.org/2000/svg" width="128.846" height="276.708" viewBox="0 0 128.846 276.708">
  <path id="Path_1968" data-name="Path 1968" d="M-1051.07-232.661l-2.193,4.387a49.54,49.54,0,0,0,3.914,3.422c.075-2.58.38-4.431,1.433-6.089C-1049.018-231.514-1050.085-232.09-1051.07-232.661Z" transform="translate(1096.958 329.338)" fill="#454b4d"/>
  <path id="Path_1969" data-name="Path 1969" d="M-1050.482-237.179c-3.625-1.867-5.165-1.591-5.9-1.011-.638.5-.484,1.071-1.182,3.2-1.062,3.251-1.958,3.558-2.191,5.565-.193,1.647.1,4.1,1.011,4.387C-1057.792-224.732-1055.683-226.628-1050.482-237.179Z" transform="translate(1088.949 322.05)" fill="#f09f86"/>
  <path id="Path_1970" data-name="Path 1970" d="M-1024.763-232.392q.643,3.347,1.284,6.711.724,3.784,1.427,7.554c-.145,3.876-.178,7.923-.064,12.129a188.938,188.938,0,0,0,3.4,30.946,6.707,6.707,0,0,0,2.836,1.433,7.07,7.07,0,0,0,5.053-.838c1.129-4.671,2.118-9.685,2.876-15.021a161.649,161.649,0,0,0,.173-43.831Z" transform="translate(1131.795 328.547)" fill="#fcb6a1"/>
  <path id="Path_1971" data-name="Path 1971" d="M-1009.42-207.935a32.5,32.5,0,0,1,.711,3.211c.236,1.389.267,2.125.438,4.089.324,3.7.458,3.869.562,6.078.129,2.736-.02,3.651-.4,4.554a7.145,7.145,0,0,1-1.635,2.38,3.31,3.31,0,0,1-.9,2.042c-.507.489-.8.369-1.371.918-.711.687-.571,1.189-1.233,1.891a3.5,3.5,0,0,1-1.442.9,4.851,4.851,0,0,1-1.153,1.549c-.413.367-.733.644-1.154.6a1.4,1.4,0,0,1-.978-.8,2.072,2.072,0,0,1,.662-2.242q-.3-4.06-.6-8.118-.647-1.453-1.289-2.909c-.4.449-.735.842-.991,1.151-.507.611-.76.951-1.309,1.587a5.929,5.929,0,0,1-1.042,1.064,2.252,2.252,0,0,1-1.431.542c-.478-.024-1.189-.264-1.351-.747-.227-.673.751-1.409,1.567-2.4,1.222-1.48,1.434-2.74,2.058-4.534a77.031,77.031,0,0,1,5.065-10.66,5.927,5.927,0,0,1,2.978-1.276A6.1,6.1,0,0,1-1009.42-207.935Z" transform="translate(1131.063 358.137)" fill="#fcb6a1"/>
  <path id="Path_1972" data-name="Path 1972" d="M-1039.32-221.667a14.106,14.106,0,0,1-6.607,8.18c-1.289.68-5.369,2.847-9.445.9-2.467-1.18-4.862-3.785-4.949-6.747-.06-2.118,1.085-3.736,3.374-6.974a34.016,34.016,0,0,1,3.149-3.822l4.493-7.74c4.376-3.071,9.416-4.12,12.116-2.193C-1033.642-237.532-1032.991-229.062-1039.32-221.667Z" transform="translate(1088.329 319.104)" fill="#fcb6a1"/>
  <path id="Path_1973" data-name="Path 1973" d="M-1020.828-254.342c-2.669-.669-7.553-1.44-12.145.9a16.459,16.459,0,0,0-6.522,6.523c-4.489,7.3-10.023,16.4-16.272,27.139a14.448,14.448,0,0,0,6.3,6.971,14.407,14.407,0,0,0,8.4,1.651q4.644-8.677,9.223-18.219C-1027.737-237.976-1024.081-246.321-1020.828-254.342Z" transform="translate(1093.898 302.008)" fill="#f9716e"/>
  <path id="Path_1974" data-name="Path 1974" d="M-1046.279-156.914q-.8,3.954-1.591,7.907a27.876,27.876,0,0,1-4.573.9,39.037,39.037,0,0,1-4.573.149c-4.08.056-4.707.471-9.943.747-1.193.062-2.976.138-5.169.149q-.4-.82-.8-1.64a48.864,48.864,0,0,0,7.158-1.493,31.082,31.082,0,0,0,10.738-4.925,19.7,19.7,0,0,0,3.38-3.282Z" transform="translate(1072.925 420.1)" fill="#361d22"/>
  <path id="Path_1975" data-name="Path 1975" d="M-1024.089-155.317q.4,3.654.793,7.311a17.4,17.4,0,0,1-3.578.747,18.571,18.571,0,0,1-7.756-.9,17.439,17.439,0,0,0,2.387-2.836,14.544,14.544,0,0,0,1.989-4.327Z" transform="translate(1119.734 423.877)" fill="#361d22"/>
  <path id="Path_1976" data-name="Path 1976" d="M-1050.322-135.485c3.969-13.77,7.029-24.412,10.536-38.875q4.6-18.958,7.96-36.9l1.518.191c.135-.276.271-.553.407-.829,6.991-.5,14.545-.822,22.6-.873,10.745-.071,20.656.356,29.59,1.049l-.071,1.636q.643-.313,1.289-.622.336,5.017.482,10.189a262.569,262.569,0,0,1-3.745,51.907,184.992,184.992,0,0,1,.7,19.521,143.11,143.11,0,0,1-1.1,17.2,110.337,110.337,0,0,1-7.62,27.85,8.79,8.79,0,0,1-3.038.418,8.719,8.719,0,0,1-3.262-.776q-1.816-22.758-4.54-46.769-3.36-29.365-7.683-56.64a299.79,299.79,0,0,1-19.381,39.548,158.12,158.12,0,0,1-14.127,35.162,157.832,157.832,0,0,1-17.654,25.726,8.706,8.706,0,0,1-3.567-.238,8.743,8.743,0,0,1-3.329-1.782C-1058.438-107.848-1053.762-123.542-1050.322-135.485Z" transform="translate(1083.391 353.641)" fill="#fcb6a1"/>
  <path id="Path_1977" data-name="Path 1977" d="M-983.537-123.42a34.51,34.51,0,0,1-7.22,2.258,35.421,35.421,0,0,1-15.347-.451q-1.917-11.134-3.609-22.794-2.583-17.877-4.289-34.753c-1.149,3-3,7.745-5.416,13.541-4.5,10.812-6.943,15.685-11.509,26.4-1.682,3.951-4.142,9.843-7,17.15a42.674,42.674,0,0,1-6.318-1.578A43.965,43.965,0,0,1-1058.912-132q3.393-11.184,6.545-23.017c4.936-18.579,8.856-36.459,11.961-53.485a94.631,94.631,0,0,1,32.724-5.642,94.224,94.224,0,0,1,24.372,3.387,38.84,38.84,0,0,1,3.582,12.976,39.022,39.022,0,0,1-2.025,16.532Q-982.643-152.334-983.537-123.42Z" transform="translate(1090.053 351.975)" fill="#00c6b3"/>
  <path id="Path_1978" data-name="Path 1978" d="M-989.735-248.74a49.371,49.371,0,0,0-17.6-6.32A50.57,50.57,0,0,0-1035.772-251a243.4,243.4,0,0,0-10.154,34.3,244.533,244.533,0,0,0-5.416,60.48,72.247,72.247,0,0,0,17.827,5.642c19.465,3.456,35.528-2.065,43.328-5.418q-.386-5.484-.677-11.056A621.048,621.048,0,0,1-989.735-248.74Z" transform="translate(1099.125 301.273)" fill="#f9716e"/>
  <path id="Path_1979" data-name="Path 1979" d="M-1022.228-246.832q.827-7.507,1.658-15.012l-18,2.518a75.049,75.049,0,0,0,.2,13.612c.615,5.831.987,9,2.86,9.7C-1031.711-234.609-1024.173-244.272-1022.228-246.832Z" transform="translate(1114.65 293.667)" fill="#fcb6a1"/>
  <path id="Path_1980" data-name="Path 1980" d="M-1029.52-254.509a29.6,29.6,0,0,1,14.843,3.6,24.9,24.9,0,0,1,8.1,6.747c3.24,4.262,3.929,8.4,4.947,13.945.907,4.929,2.349,12.463,4.5,22.49a21.954,21.954,0,0,1-7.2,4.949,23.4,23.4,0,0,1-16.194.449c-1.636-5.747-3.165-11.9-4.5-18.443A248.983,248.983,0,0,1-1029.52-254.509Z" transform="translate(1125.98 302.626)" fill="#f9716e"/>
  <path id="Path_1981" data-name="Path 1981" d="M-1040.2-271.265a46.208,46.208,0,0,0-1.1,5.565,46.607,46.607,0,0,0-.085,11.641,32.768,32.768,0,0,0-.506,5.9,32.987,32.987,0,0,0,1.427,9.367,3.145,3.145,0,0,0,2.878,2.213,30.193,30.193,0,0,0,3.456-.024,27.1,27.1,0,0,0,12.538-3.74,26.094,26.094,0,0,0,7.585-6.976,60.334,60.334,0,0,0,1.158-7.818,60.461,60.461,0,0,0-.662-15,27.918,27.918,0,0,0-9.256-3.509A29.048,29.048,0,0,0-1040.2-271.265Z" transform="translate(1110.863 278.696)" fill="#fcb6a1"/>
  <path id="Path_1982" data-name="Path 1982" d="M-1039.314-272.275a12.375,12.375,0,0,0-2.7,7.647,23.913,23.913,0,0,0,1.011,5.171c.573,2.24,1.154,4.056,1.576,5.285l1.573.227c.813-1.618,1.564-1.851,1.94-1.885,1.738-.151,4.015,3.258,3.711,6.409a6.7,6.7,0,0,1-1.855,3.88,14.53,14.53,0,0,0,1.18,2.616,15.25,15.25,0,0,0,5.6,5.509,1.516,1.516,0,0,0,.225,1.238c.829,1.022,3.678.376,7.2-1.462,1.916,1.727,3.949,2,4.722,1.238a2.3,2.3,0,0,0,.338-1.913,12.675,12.675,0,0,0,3.149-1.911c4.318-3.587,5.007-9.191,5.623-14.843a50.384,50.384,0,0,0-.451-13.945,26.7,26.7,0,0,0-9.445-5.736C-1027.115-278.624-1037.191-273.431-1039.314-272.275Z" transform="translate(1110.708 276.164)" fill="#3a434a"/>
  <path id="Path_1983" data-name="Path 1983" d="M-1041.919-228.209a78.546,78.546,0,0,1-8.15-3.678c-1.053,1.658-1.358,3.509-1.433,6.089,1.125.887,2.333,1.78,3.678,2.649a48.978,48.978,0,0,0,14.17,6.242q.083-4.3.169-8.6A78.037,78.037,0,0,1-1041.919-228.209Z" transform="translate(1099.111 330.284)" fill="#454b4d"/>
  <path id="Path_1984" data-name="Path 1984" d="M-1023.713-252.721a17.013,17.013,0,0,0-9.783-3.318,17.1,17.1,0,0,0-8.1,2.025,18.619,18.619,0,0,0-5.622,4.442,19.536,19.536,0,0,1,8.547-2.7,19.669,19.669,0,0,1,10.572,2.249Q-1025.907-251.373-1023.713-252.721Z" transform="translate(1104.35 300.762)" fill="#454b4d"/>
  <path id="Path_1985" data-name="Path 1985" d="M-1030.654-251.9c8.622-5.963,19.129-4.889,23.694-4.422,5.367.549,14.863,1.518,20.916,8.434,5.931,6.774,5.151,15.361,3.745,30.848-1.52,16.73-2.6,28.566-12.145,36.435-6.465,5.329-13.729,6.3-17.094,6.749-2.344.313-19.552,2.611-28.788-7.874-6.136-6.965-5.32-15.681-3.823-31.71C-1042.494-231.147-1041.237-244.581-1030.654-251.9Z" transform="translate(1106.793 299.943)" fill="#e2e0e5"/>
</svg>
