<svg id="Group_971" data-name="Group 971" xmlns="http://www.w3.org/2000/svg" width="98.435" height="276.708" viewBox="0 0 98.435 276.708">
  <path id="Path_1846" data-name="Path 1846" d="M-559.762-157.9a5.757,5.757,0,0,1,1.662,1.816,5.716,5.716,0,0,1,.755,2.418,13.874,13.874,0,0,1-1.36,3.325c-.729,1.28-2.082,3.66-4.685,4.687-2.065.813-4.514.616-4.687,0-.145-.522,1.411-1.073,2.722-2.269,1.447-1.32,2.887-3.7,3.022-8.311Z" transform="translate(655.78 420.716)" fill="#5eadc4"/>
  <path id="Path_1847" data-name="Path 1847" d="M-590.54-154.715a5.283,5.283,0,0,1,.309,2.707,5.314,5.314,0,0,1-1.209,2.645,21.4,21.4,0,0,1-3.4,1.409c-5.814,1.838-12.123,1.062-12.267-.044-.069-.52,1.26-.918,3.96-2.2a62.235,62.235,0,0,0,9.225-5.38Q-592.229-155.147-590.54-154.715Z" transform="translate(608.078 423.56)" fill="#5eadc4"/>
  <path id="Path_1848" data-name="Path 1848" d="M-580.815-272.32l-6.123,6.125a104.531,104.531,0,0,0-1.5,14.672,104.581,104.581,0,0,0,.578,14.79l3.351,1.387q.057.81.116,1.618.857.127,1.731.231a72.284,72.284,0,0,0,24.728-1.387l.347-1.965a14.191,14.191,0,0,0,2.425-.231,14.346,14.346,0,0,0,2.2-.578c.1-.873.207-2.151.231-3.7a39.453,39.453,0,0,0-3.12-16.292C-559.492-265.266-569.264-270.875-580.815-272.32Z" transform="translate(630.835 280.863)" fill="#0a0b0c"/>
  <path id="Path_1849" data-name="Path 1849" d="M-599.533-235.379a4.577,4.577,0,0,0-2.658,1.86,4.139,4.139,0,0,0-.709,2.48,4.537,4.537,0,0,0,1.064,2.478c2.274,3.087,4.378,5.945,4.78,5.669.125-.084.111-.473-.531-1.86-.013-.922-.069-1.9-.176-2.922A33.145,33.145,0,0,0-599.533-235.379Z" transform="translate(613.218 326.016)" fill="#fcb6a1"/>
  <path id="Path_1850" data-name="Path 1850" d="M-589.263-208.551c.144,2.727.431,6.651,1.062,11.336.658,4.871,3.578,24.666,18.774,54.549A271.757,271.757,0,0,0-536.39-92.488a15.42,15.42,0,0,1-.509,2.576c-.638,2.207-1.524,3.4-1.36,3.513.209.144,1.88-1.62,3.287-3.853a22.392,22.392,0,0,0,2.125-4.36,138.092,138.092,0,0,0-6.469-23.965,138.321,138.321,0,0,0-16.3-31.17c-1.073-4.091-2.042-8.465-2.833-13.107a154.01,154.01,0,0,1-1.771-36.839Q-574.738-204.122-589.263-208.551Z" transform="translate(629.894 358.809)" fill="#fcb6a1"/>
  <path id="Path_1851" data-name="Path 1851" d="M-534.257-208.194a152.986,152.986,0,0,1-5.342,24.083,154.224,154.224,0,0,1-19.625,40.88,100.359,100.359,0,0,1-7.8,24.581,102.009,102.009,0,0,1-26.508,34.564,17.085,17.085,0,0,1-6.323,3.245c-2.422.642-5.025.727-5.131.3-.084-.347,1.516-.818,3.951-2.349a27.919,27.919,0,0,0,3.34-2.465c3.038-7.365,7.149-17.645,11.7-30.061,5.271-14.387,10.089-27.115,14.2-42.693a394.169,394.169,0,0,0,9.832-50.6,26.293,26.293,0,0,1,15.043-3.711A26.123,26.123,0,0,1-534.257-208.194Z" transform="translate(610.676 354.014)" fill="#fcb6a1"/>
  <path id="Path_1852" data-name="Path 1852" d="M-542.88-248.9a37.821,37.821,0,0,0-17.712-5.667,38.789,38.789,0,0,0-24.819,7.5,69.037,69.037,0,0,1-3.189,18.183c-1.911,5.951-3.34,7.451-3.542,11.807-.293,6.374,2.507,8.789,4.016,15.585,1.333,6,.342,9.492-.709,18.183a222.406,222.406,0,0,0-1.536,29.284,84.358,84.358,0,0,0,11,1.12,85.973,85.973,0,0,0,29.495-4.189,238.969,238.969,0,0,1-1.653-28.81A240.919,240.919,0,0,1-542.88-248.9Z" transform="translate(626.348 302.488)" fill="#6b46b2"/>
  <path id="Path_1853" data-name="Path 1853" d="M-583.083-217.256a26.385,26.385,0,0,1,.709-7.438c2.7-11.1,11.967-17.061,14.876-18.774Q-575.288-230.364-583.083-217.256Z" transform="translate(637.414 316.129)" fill="#3f2189"/>
  <path id="Path_1854" data-name="Path 1854" d="M-589.792-201.492a28.269,28.269,0,0,0,8.972,5.431,28.125,28.125,0,0,0,7.323,1.651q.943-3.07,1.889-6.138a9.515,9.515,0,0,0,5.667-.238c3.787-1.476,5.422-5.487,6.325-7.791,4.794-12.265,10.4-31.515,10.914-33.3a290.452,290.452,0,0,1-20.308,21.961C-576.167-212.933-583.174-206.819-589.792-201.492Z" transform="translate(629.247 318.077)" fill="#3f2189"/>
  <path id="Path_1855" data-name="Path 1855" d="M-568.892-245.584q-.013-7.86-.029-15.721l-14.625,2.091.353,13.814.353,12.872Q-575.866-239.058-568.892-245.584Z" transform="translate(636.882 294.326)" fill="#fcab92"/>
  <path id="Path_1856" data-name="Path 1856" d="M-585.623-268.85a88.037,88.037,0,0,0-1.669,13.325c-.131,2.673-.131,5.2-.044,7.576a14.9,14.9,0,0,0,2.833,5.467,15.87,15.87,0,0,0,6.92,4.822,22.665,22.665,0,0,0,8.043-2.929,21.784,21.784,0,0,0,7.282-7.176,55.274,55.274,0,0,0,1.062-7.174A55.373,55.373,0,0,0-561.8-268.7a22.147,22.147,0,0,0-8.5-3.222A23.528,23.528,0,0,0-585.623-268.85Z" transform="translate(632.174 281.028)" fill="#fcb6a1"/>
  <path id="Path_1857" data-name="Path 1857" d="M-603.5-239.936a38.8,38.8,0,0,1,14.167-8.147c13.734-4.345,25.632.567,29.048,2.125a146.865,146.865,0,0,1,2.478,15.941,148.429,148.429,0,0,1-1.416,39.673,44.547,44.547,0,0,1-14.17,4.6,46.3,46.3,0,0,1-26.566-4.249q1.77-5.494,3.542-10.983Q-599.959-220.453-603.5-239.936Z" transform="translate(612.491 308.346)" fill="#f2e3c7"/>
  <path id="Path_1858" data-name="Path 1858" d="M-595.9-230.717c-1.062-1.48-2.6-3.718-4.251-6.554-3.729-6.394-9.331-15.672-6.729-18.6,1.184-1.331,3.669-.9,4.782-.709,11.083,1.92,16.8,18.961,17.71,21.785a20.224,20.224,0,0,1-3.9,2.3A20.6,20.6,0,0,1-595.9-230.717Z" transform="translate(607.546 299.836)" fill="#e8a274"/>
  <path id="Path_1859" data-name="Path 1859" d="M-592.828-240.57a5.853,5.853,0,0,0,1.653-3.662c.062-2.28-1.653-3.967-.944-4.84.513-.631,1.627-.011,2.362-.827.673-.747.251-1.838.709-2.007.542-.2,1.1,1.353,2.242,1.418,1.078.058,1.551-1.269,2.362-1.064.767.193.518,1.422,1.533,2.009.964.556,1.867-.156,2.48.471.493.5.1,1.156.591,1.536.6.467,1.429-.329,2.125.118.645.413.273,1.313.944,1.771s1.453-.191,1.889.236-.258,1.187,0,2.48c.233,1.162.967,1.416.827,2.007-.173.731-1.458,1.04-2.951,1.3a29.78,29.78,0,0,1-5.785.589,70.718,70.718,0,0,0-10.509.356Q-593.062-239.628-592.828-240.57Z" transform="translate(624.96 305.793)" fill="#97bd37"/>
  <path id="Path_1860" data-name="Path 1860" d="M-599.233-238.385c-.06-.956-.1-1.94-.118-2.953a63.779,63.779,0,0,1,.471-8.854,32.61,32.61,0,0,1,4.016-.473,33.915,33.915,0,0,1,12.4,1.653,20.778,20.778,0,0,0-1.182,4.6,20.9,20.9,0,0,0-.118,4.6c-1.753.371-3.647.7-5.667.944A66.752,66.752,0,0,1-599.233-238.385Z" transform="translate(617.552 307.268)" fill="#7a2950"/>
  <path id="Path_1861" data-name="Path 1861" d="M-556.789-252.952c1.614.344,5.851,1.482,7.918,5.136,1.7,3.007,1.109,6.26.456,9.031a93.431,93.431,0,0,1-11.561,27.1A145.213,145.213,0,0,1-571.665-196.1a10.37,10.37,0,0,1-7.616-.533,10.747,10.747,0,0,1-5.491-7.616,88.794,88.794,0,0,0,7.262-9.918,90.35,90.35,0,0,0,11.167-26.179Z" transform="translate(635.383 304.536)" fill="#6b46b2"/>
  <path id="Path_1862" data-name="Path 1862" d="M-575.612-265.354a3.663,3.663,0,0,1,3.7-.116,3.755,3.755,0,0,1,1.618,3.7c-.287,2.129-2.669,4-5.891,4.158Q-575.9-261.484-575.612-265.354Z" transform="translate(645.875 288.69)" fill="#fcb6a1"/>
  <path id="Path_1863" data-name="Path 1863" d="M-586.732-231.2l-.887-1.062a4.058,4.058,0,0,0,0-2.3c-.34-1.069-.944-1.162-2.125-2.569a11.589,11.589,0,0,1-2.48-4.16c-.207-.684-.329-1.4-.62-1.418s-.591.7-.707,1.151a3.723,3.723,0,0,0,0,1.682,10.832,10.832,0,0,0,.8,2.569c-.929.111-1.9.2-2.922.264-1.569.1-3.049.12-4.427.089q-.527-.44-1.062-.884c-.476-.393-.949-.776-1.418-1.151a2.768,2.768,0,0,0-.353,1.151,2.873,2.873,0,0,0,.531,1.858,15.091,15.091,0,0,0,.353,2.48,15.256,15.256,0,0,0,1.24,3.453,18.81,18.81,0,0,0,1.682.887,21.47,21.47,0,0,0,5.136,1.593,31.283,31.283,0,0,1,6.885,2.3Z" transform="translate(613.169 317.054)" fill="#fcb6a1"/>
  <path id="Path_1864" data-name="Path 1864" d="M-556.313-227.1q-5.044-1.017-10.278-2.267a289.449,289.449,0,0,1-28.6-8.44q-1.153,2.213-2.3,4.429A96.73,96.73,0,0,0-587-226.2a98.449,98.449,0,0,0,28.29,11.234,8.06,8.06,0,0,0,3.9-4.431C-553.413-223.449-556.136-226.885-556.313-227.1Z" transform="translate(619.834 323.045)" fill="#fcb6a1"/>
  <path id="Path_1865" data-name="Path 1865" d="M-599.9-239.535q-1.387-2.243-2.776-4.487a14.4,14.4,0,0,1,2.54-2.362,16.581,16.581,0,0,1,11.216-2.773l2.48,7.556q-2.073.48-4.311.887C-593.983-240.133-597.048-239.76-599.9-239.535Z" transform="translate(613.497 309.067)" fill="#de4e5a"/>
  <path id="Path_1866" data-name="Path 1866" d="M-602.942-240.841c.267-2.42.673-3.138,1.062-3.189.54-.069.96,1.162,1.593,1.065.689-.109.691-1.642,1.418-1.771.625-.113.978.962,1.682.884.76-.084.818-1.384,1.593-1.5s1.091,1.069,2.038,1.062c.887-.007,1.08-1.06,1.947-1.062.969,0,1.26,1.3,2.127,1.24.811-.06.876-1.231,1.858-1.418.811-.153,1.047.587,2.038.531,1.051-.058,1.209-.913,2.125-.885.993.029,1.211,1.049,2.038.973.889-.082,1-1.3,1.947-1.418.747-.093.882.631,1.86.8,1.347.227,1.838-1.018,3.1-.8,1.145.2,1.318,1.327,2.213,1.24.849-.08.909-1.107,1.949-1.329.876-.184,1.113.484,2.036.356,1.251-.176,1.5-1.5,2.391-1.418.847.082,1.016,1.336,1.771,1.329.818-.007,1.085-1.476,1.771-1.418.62.053,1.038,1.3,1.151,2.038a3.934,3.934,0,0,1-.089,1.593,86.689,86.689,0,0,1-28.957,4.34A85.468,85.468,0,0,1-602.942-240.841Z" transform="translate(613.173 311.11)" fill="#f2e3c7"/>
  <path id="Path_1867" data-name="Path 1867" d="M-548.6-141.785c-2.036,1.556-5.067,3.809-8.856,6.376-7.447,5.042-11.172,7.565-14.523,8.147-6.407,1.113-12.65-1.442-17-3.187a46.388,46.388,0,0,1-4.6-2.145c1.384-5.047,2.709-10.367,3.929-15.947,1.427-6.523,2.578-12.787,3.5-18.747a94.218,94.218,0,0,1-3.187-14.17,95.894,95.894,0,0,1,.707-31.526c2.9-.684,5.969-1.289,9.212-1.771a112.151,112.151,0,0,1,30.108-.353,35.717,35.717,0,0,1,3.9,9.918c2.9,12.761-2.2,23.474-4.249,27.275Z" transform="translate(624.609 349.759)" fill="#6b46b2"/>
  <path id="Path_1868" data-name="Path 1868" d="M-578.123-265.31a23.541,23.541,0,0,0,2.7,2.182,25.458,25.458,0,0,0,13.149,4.307,39.6,39.6,0,0,1,5.291,13.5,39.425,39.425,0,0,1,.578,10.4,18.019,18.019,0,0,0,2.887.578,18.06,18.06,0,0,0,4.969-.118,106.93,106.93,0,0,0,.347-11.207c-.255-12.023-.384-18.034-3.929-22.645-5.442-7.083-16.581-9.625-24.494-6.587a15.382,15.382,0,0,0-8.087,6.356,14.781,14.781,0,0,0-1.964,8.665c-.611,2.522-1.162,5.222-1.618,8.089a103.109,103.109,0,0,0-1.271,16.061,6.1,6.1,0,0,0,2.08.925,6.1,6.1,0,0,0,2.08.115c-.211-2.849-.338-5.858-.347-9.014a128.591,128.591,0,0,1,1.04-16.754,37.339,37.339,0,0,0,4.851-3.349Q-578.933-264.561-578.123-265.31Z" transform="translate(629.529 276.164)" fill="#3f424a"/>
  <path id="Path_1869" data-name="Path 1869" d="M-584.88-271.675a9.9,9.9,0,0,0,.567,3.4c1.849,5.16,7.783,7.5,8.049,7.143.16-.216-1.765-1.4-4.649-4.876A42.214,42.214,0,0,1-584.88-271.675Z" transform="translate(635.251 281.651)" fill="#3f424a"/>
</svg>
