<svg id="Group_974" data-name="Group 974" xmlns="http://www.w3.org/2000/svg" width="127.37" height="276.708" viewBox="0 0 127.37 276.708">
  <path id="Path_1916" data-name="Path 1916" d="M-957.719-255.838a60.719,60.719,0,0,1,17.674,1.333c11.052,2.2,17.792,3.551,20.677,8.336,3.309,5.489-1.1,11.12-4.333,22.345-8.041,27.879,4.171,45.084-6.338,53.358-2.276,1.793-6.3,2.2-14.338,3-16.728,1.676-28.8,2.885-36.686-2-21.865-13.543-12.554-74.486,8-83.039A55.224,55.224,0,0,1-957.719-255.838Z" transform="translate(1038.734 300.798)" fill="#6b46b2"/>
  <path id="Path_1917" data-name="Path 1917" d="M-982.811-220.789a16.426,16.426,0,0,1-3.169,4.585c-1.135,1.156-4.96,5.045-8.338,4.169-3.736-.969-4.965-7.263-5.085-10.5-.278-7.454,4.782-12.814,6.336-14.341,4.265-3.045,9.236-4.067,11.978-2.167C-977.444-236.526-976.609-228.07-982.811-220.789Z" transform="translate(1031.644 320.358)" fill="#fcb6a1"/>
  <path id="Path_1918" data-name="Path 1918" d="M-961.848-253.162c-2.638-.662-7.467-1.427-12,.889a16.255,16.255,0,0,0-6.447,6.447c-4.267,6.914-10.06,15.95-17.121,27.123a13.2,13.2,0,0,1,6.116,0c6.247,1.529,9.029,7.318,9.447,8.227q4.587-8.577,9.116-18.01C-968.677-236.986-965.064-245.235-961.848-253.162Z" transform="translate(1034.08 303.458)" fill="#f9716e"/>
  <path id="Path_1919" data-name="Path 1919" d="M-987.576-156.853l-1.573,7.816a27.919,27.919,0,0,1-4.521.887,39.144,39.144,0,0,1-4.522.147c-4.033.056-4.651.464-9.827.738-1.18.062-2.942.136-5.111.147l-.787-1.622a48.527,48.527,0,0,0,7.078-1.476,30.7,30.7,0,0,0,10.614-4.867,19.4,19.4,0,0,0,3.34-3.245Q-990.231-157.592-987.576-156.853Z" transform="translate(1013.917 420.196)" fill="#361d22"/>
  <path id="Path_1920" data-name="Path 1920" d="M-965.644-155.275l.787,7.227a17.079,17.079,0,0,1-3.538.738,18.334,18.334,0,0,1-7.665-.884A17.422,17.422,0,0,0-973.7-151a14.349,14.349,0,0,0,1.965-4.278Z" transform="translate(1060.19 423.929)" fill="#361d22"/>
  <path id="Path_1921" data-name="Path 1921" d="M-991.572-135.671c3.922-13.612,6.949-24.132,10.414-38.428q4.544-18.741,7.872-36.475l1.5.187c.135-.271.269-.544.4-.818,6.912-.491,14.381-.813,22.341-.864,10.623-.071,20.423.351,29.252,1.036l-.071,1.618q.636-.307,1.273-.616.334,4.964.478,10.074a259.449,259.449,0,0,1-3.7,51.311,183.2,183.2,0,0,1,.689,19.3,141.734,141.734,0,0,1-1.089,17.007,109.144,109.144,0,0,1-7.531,27.528,8.621,8.621,0,0,1-3,.416,8.661,8.661,0,0,1-3.227-.767q-1.794-22.5-4.487-46.233-3.323-29.028-7.6-55.989A296.027,296.027,0,0,1-967.22-148.3a156.21,156.21,0,0,1-13.963,34.759,156.089,156.089,0,0,1-17.452,25.43,8.584,8.584,0,0,1-3.527-.236,8.618,8.618,0,0,1-3.291-1.762C-999.595-108.352-994.973-123.866-991.572-135.671Z" transform="translate(1024.263 354.499)" fill="#fcb6a1"/>
  <path id="Path_1922" data-name="Path 1922" d="M-925.554-123.743a34.161,34.161,0,0,1-7.138,2.231,35.008,35.008,0,0,1-15.17-.447q-1.9-11-3.569-22.532-2.553-17.671-4.24-34.355c-1.135,2.962-2.971,7.658-5.354,13.385-4.445,10.687-6.863,15.505-11.376,26.1-1.665,3.907-4.1,9.729-6.916,16.954a42.16,42.16,0,0,1-6.247-1.562,43.413,43.413,0,0,1-14.5-8.254q3.354-11.057,6.469-22.754c4.88-18.365,8.754-36.039,11.823-52.869a93.477,93.477,0,0,1,32.348-5.578,93.068,93.068,0,0,1,24.092,3.347c.707,3.7,1.311,7.571,1.784,11.6a167.917,167.917,0,0,1-1.338,47.962Q-925.218-137.13-925.554-123.743Z" transform="translate(1030.85 352.852)" fill="#00c6b3"/>
  <path id="Path_1923" data-name="Path 1923" d="M-972.145-269.448c-.111-.633-.673-4.1,1.256-5.8,2.513-2.209,7.816-.131,10.343,3.136,1.891,2.442,3.387,7.047.784,10.187-2.556,3.085-7.111,2.393-7.367,2.351Q-969.636-264.511-972.145-269.448Z" transform="translate(1064.778 276.164)" fill="#2c373b"/>
  <path id="Path_1924" data-name="Path 1924" d="M-966.307-231.466q.636,3.307,1.271,6.634.713,3.743,1.409,7.467c-.142,3.831-.176,7.834-.064,11.992a186.9,186.9,0,0,0,3.365,30.59,6.667,6.667,0,0,0,2.8,1.418,6.982,6.982,0,0,0,5-.829c1.116-4.618,2.094-9.574,2.842-14.847a159.662,159.662,0,0,0,.171-43.329Z" transform="translate(1072.111 329.693)" fill="#fcb6a1"/>
  <path id="Path_1925" data-name="Path 1925" d="M-951.142-207.29a31.456,31.456,0,0,1,.7,3.173c.233,1.373.264,2.1.433,4.045.32,3.658.451,3.822.553,6.007.129,2.7-.018,3.609-.389,4.5a7.063,7.063,0,0,1-1.616,2.353,3.278,3.278,0,0,1-.9,2.018c-.5.484-.8.364-1.356.909-.7.678-.564,1.176-1.22,1.869a3.441,3.441,0,0,1-1.425.893,4.8,4.8,0,0,1-1.14,1.529c-.409.364-.725.638-1.142.6-.62-.06-.951-.767-.965-.8a2.051,2.051,0,0,1,.654-2.218q-.3-4.013-.594-8.025l-1.273-2.876c-.4.444-.727.831-.98,1.138-.5.6-.749.94-1.293,1.567a5.892,5.892,0,0,1-1.031,1.056,2.215,2.215,0,0,1-1.414.533c-.473-.022-1.176-.26-1.335-.736-.225-.667.742-1.393,1.549-2.371,1.209-1.462,1.416-2.707,2.033-4.48a75.848,75.848,0,0,1,5.007-10.538,5.86,5.86,0,0,1,2.942-1.26A6.026,6.026,0,0,1-951.142-207.29Z" transform="translate(1071.389 358.943)" fill="#fcb6a1"/>
  <path id="Path_1926" data-name="Path 1926" d="M-982.456-256.53a11.932,11.932,0,0,1-1.422-3.658,11.748,11.748,0,0,1,.778-7.078c1.956-4.24,7.869-7.151,14.736-6.96Q-975.408-265.379-982.456-256.53Z" transform="translate(1050.35 278.522)" fill="#2c373b"/>
  <path id="Path_1927" data-name="Path 1927" d="M-931.68-247.626a48.794,48.794,0,0,0-17.4-6.247,49.964,49.964,0,0,0-28.108,4.016,240.265,240.265,0,0,0-10.038,33.908,241.836,241.836,0,0,0-5.356,59.785,71.385,71.385,0,0,0,17.625,5.578c19.243,3.416,35.119-2.04,42.831-5.354q-.38-5.424-.669-10.932A613.8,613.8,0,0,1-931.68-247.626Z" transform="translate(1039.816 302.731)" fill="#f9716e"/>
  <path id="Path_1928" data-name="Path 1928" d="M-963.8-245.742l1.64-14.838q-8.9,1.247-17.8,2.489a74.272,74.272,0,0,0,.2,13.456c.609,5.765.976,8.9,2.829,9.585C-973.176-233.659-965.724-243.21-963.8-245.742Z" transform="translate(1055.164 295.213)" fill="#f7a88f"/>
  <path id="Path_1929" data-name="Path 1929" d="M-981.832-268.185a86.307,86.307,0,0,0-1.947,14.172c-.151,2.842-.151,5.536-.049,8.058a15.367,15.367,0,0,0,3.3,5.814,18.686,18.686,0,0,0,8.065,5.129,28.046,28.046,0,0,0,9.372-3.116,24.342,24.342,0,0,0,8.487-7.631,53.561,53.561,0,0,0,1.238-7.629,53.8,53.8,0,0,0-.707-14.641,27.365,27.365,0,0,0-9.9-3.427A29.543,29.543,0,0,0-981.832-268.185Z" transform="translate(1050.608 281.582)" fill="#fcb6a1"/>
  <path id="Path_1930" data-name="Path 1930" d="M-983.142-262.625a8.154,8.154,0,0,1,.129-3.067,10.289,10.289,0,0,1,4.138-5.662c5.94-4.507,14.759-2.673,15.643-2.478,2.449.542,9.058,2,12.152,7.787,3.782,7.071-1.118,14.2-1.422,14.627q-1.293.357-2.587.709a51.421,51.421,0,0,1-2.067-4.72,50.814,50.814,0,0,1-2.587-9.438q-4.614.66-9.567,1.18C-974.12-263.185-978.738-262.842-983.142-262.625Z" transform="translate(1051.426 278.363)" fill="#2c373b"/>
  <path id="Path_1931" data-name="Path 1931" d="M-971.091-264.163a5.069,5.069,0,0,1,5.145-.073,4.019,4.019,0,0,1,1.885,3.931c-.336,2.265-3.111,4.26-6.867,4.425Z" transform="translate(1066.264 289.931)" fill="#fcb6a1"/>
  <path id="Path_1932" data-name="Path 1932" d="M-971.009-253.329a29.26,29.26,0,0,1,14.674,3.556,24.652,24.652,0,0,1,8,6.671c3.2,4.211,3.885,8.3,4.891,13.783.9,4.874,2.322,12.321,4.447,22.234a21.734,21.734,0,0,1-7.116,4.891,23.133,23.133,0,0,1-16.007.444c-1.618-5.682-3.129-11.767-4.445-18.232A245.961,245.961,0,0,1-971.009-253.329Z" transform="translate(1066.364 304.069)" fill="#f9716e"/>
  <path id="Path_1933" data-name="Path 1933" d="M-971.123-253.912a96.854,96.854,0,0,0-1.889,14.007c-1.649,27.059,8.507,48.951,16.007,61.585a50.375,50.375,0,0,0,.667-6,50.3,50.3,0,0,0,0-5.114,89.67,89.67,0,0,1-5.336-14.007c-5.736-19.948-3.293-37.724-.667-48.689a11.651,11.651,0,0,0-4-1.724A11.713,11.713,0,0,0-971.123-253.912Z" transform="translate(1063.698 303.095)" fill="#6b46b2"/>
  <path id="Path_1934" data-name="Path 1934" d="M-963.681-253.906c-2.249,2.52-4.509,5.276-6.727,8.283-5.776,7.838-13.632,18.525-17.118,33.626a70.228,70.228,0,0,0-1.751,13.507q-.957,11.174-1.918,22.343a51.787,51.787,0,0,1-2-8c-.471-2.827-1.431-10.047,1-22.177a112.605,112.605,0,0,1,10.838-29.348,129.618,129.618,0,0,1,11.172-17.676,9.647,9.647,0,0,1,2.28-.722A9.793,9.793,0,0,1-963.681-253.906Z" transform="translate(1038.526 302.977)" fill="#6b46b2"/>
  <path id="Path_1935" data-name="Path 1935" d="M-985.6-236.135a10.029,10.029,0,0,0-3.584-1.584c-1.349-.3-2.6-.571-3.42.167-1.036.929-.633,2.778-.582,3a3.387,3.387,0,0,0-1.08,1.8,3.493,3.493,0,0,0,.58,2.7,4.534,4.534,0,0,0-.078,1.967,4.485,4.485,0,0,0,.667,1.667,3.005,3.005,0,0,0,.333,2.167,3.488,3.488,0,0,0,1.911,1.287c1.156.469,2.671,1.084,3.585.333a2.077,2.077,0,0,0,.669-1.585,2.67,2.67,0,0,0,1.333-1.333,2.8,2.8,0,0,0-.167-2.418,2.384,2.384,0,0,0,1.751-1.667,2.417,2.417,0,0,0-1.169-2.669,2.538,2.538,0,0,0,.584-2.167A2.524,2.524,0,0,0-985.6-236.135Z" transform="translate(1037.848 322.781)" fill="#fcb6a1"/>
</svg>
