<svg id="Group_973" data-name="Group 973" xmlns="http://www.w3.org/2000/svg" width="103.128" height="276.707" viewBox="0 0 103.128 276.707">
  <path id="Path_1892" data-name="Path 1892" d="M-657.88-177.417q-6.907-13.434-14.174-27.061-12.981-24.324-26.094-47.358l2.738-1.289q5.04,7.03,9.987,14.821a309.843,309.843,0,0,1,28.992,58.954Z" transform="translate(755.073 304.325)" fill="#543037"/>
  <path id="Path_1893" data-name="Path 1893" d="M-667.678-271.151a63.327,63.327,0,0,1,4.425,5.982c1.736,2.673,21.836,34.55-1.265,44.564-8.156,3.536-22.152,4.547-31.395,1.409-17.565-5.965-19.514-27.443-.209-53.362a70.639,70.639,0,0,1,10.323-.82A69.739,69.739,0,0,1-667.678-271.151Z" transform="translate(740.764 279.567)" fill="#3f424a"/>
  <path id="Path_1894" data-name="Path 1894" d="M-675.594-254.486a88.487,88.487,0,0,1-3.262,13.276c-1.671,5.051-3.662,9.512-14.034,28.581-3.216,5.914-4.822,8.872-5.394,9.838A172.571,172.571,0,0,1-717-176.949a3.292,3.292,0,0,1-2.391-.453,3.43,3.43,0,0,1-1.458-2.611c2.571-5.714,5.516-11.738,8.891-17.987,3.271-6.054,6.589-11.656,9.858-16.8a221.332,221.332,0,0,0,9.456-21.454c2.956-7.831,4.72-13.918,10.414-16.765A14.624,14.624,0,0,1-675.594-254.486Z" transform="translate(727.322 302.661)" fill="#fcb6a1"/>
  <path id="Path_1895" data-name="Path 1895" d="M-701.748-220.592a12.363,12.363,0,0,1-5.042-1.576,12.384,12.384,0,0,1-3.627-3.153c.656-1.4,1.633-3.582,2.68-6.3,2.607-6.765,2.627-9.018,5.045-13.714,1.7-3.294,2.98-5.711,5.831-7.407a12.936,12.936,0,0,1,6.463-1.736q-1.84,6.277-3.94,12.769Q-697.912-230.692-701.748-220.592Z" transform="translate(740.077 302.666)" fill="#6b46b2"/>
  <path id="Path_1896" data-name="Path 1896" d="M-678.333-154.492a8.1,8.1,0,0,1-.449,3.262c-.793,2.18-2.362,3.358-1.914,4.162.167.3.516.373,1.125.5a4.223,4.223,0,0,0,3.265-.673,4.933,4.933,0,0,0,1.573-2.476,9.177,9.177,0,0,0,.62-3.093,2.777,2.777,0,0,0,.055-1.745,2.805,2.805,0,0,0-1.238-1.573Z" transform="translate(776.309 422.892)" fill="#307da1"/>
  <path id="Path_1897" data-name="Path 1897" d="M-713.792-153.618c-.609.284-1.542.707-2.7,1.182-3.02,1.238-4.707,1.658-4.669,2.193.022.316.631.509,1.182.676,1.542.469,3.4.518,7.874-.507.642-.147,1.151-.273,1.407-.338q.153-.583.28-1.238c.133-.676.222-1.318.282-1.911Z" transform="translate(726.943 425.954)" fill="#307da1"/>
  <path id="Path_1898" data-name="Path 1898" d="M-700.792-207.908l12.656,63.789,17.494-2.591q-.707-33.141-1.414-66.279Z" transform="translate(751.842 353.385)" fill="#e2e0e5"/>
  <path id="Path_1899" data-name="Path 1899" d="M-694.594-176.7l32.748,57.78a5.277,5.277,0,0,1,.213,2.718c-.24,1.193-.869,1.891-.584,2.251s1.347.093,1.942-.2c2.422-1.209,2.589-5.42,2.607-6.489a153.672,153.672,0,0,0-11.818-45.893,151.3,151.3,0,0,0-9.211-17.916Q-686.648-180.576-694.594-176.7Z" transform="translate(759.418 388.264)" fill="#e2e0e5"/>
  <path id="Path_1900" data-name="Path 1900" d="M-712.92-180.746a8.94,8.94,0,0,0,5.12,11.558,8.94,8.94,0,0,0,11.561-5.12,8.94,8.94,0,0,0-5.12-11.558A8.94,8.94,0,0,0-712.92-180.746Z" transform="translate(736.282 385.799)" fill="#81a9bd"/>
  <path id="Path_1901" data-name="Path 1901" d="M-701.435-212.917q-6.037,33.528-12.074,67.054,8.627,1.943,17.254,3.882,11.594-31.125,23.188-62.254Z" transform="translate(736.297 353.472)" fill="#e2e0e5"/>
  <path id="Path_1902" data-name="Path 1902" d="M-705.352-182.744q-5.164,32.561-10.325,65.123-4.657,1.953-4.5,2.473.2.663,8.2-.993A146.976,146.976,0,0,0-692.1-159.116a144.839,144.839,0,0,0,4-19.745Q-696.725-180.8-705.352-182.744Z" transform="translate(728.14 390.353)" fill="#e2e0e5"/>
  <path id="Path_1903" data-name="Path 1903" d="M-697.9-251.937a44.216,44.216,0,0,1,18.225-3.711,44.075,44.075,0,0,1,15.065,2.856q.507,11.814,1.014,23.625A72.638,72.638,0,0,0-671.8-197.6a71.231,71.231,0,0,0,2.025,18.674,57.552,57.552,0,0,1-20.817,2.407,57.09,57.09,0,0,1-13.609-2.631q-.28-8.337-.451-16.876-.17-8.647-.224-17.1a18.88,18.88,0,0,1-3.149-10.352c.08-4.278,1.862-7.163,3.718-10.912A88.4,88.4,0,0,0-697.9-251.937Z" transform="translate(742.993 301.236)" fill="#6b46b2"/>
  <path id="Path_1904" data-name="Path 1904" d="M-699.928-259.37q.157,7.19.315,14.378a32.362,32.362,0,0,0,.158,4.582,31.721,31.721,0,0,0,.791,4.425q2.84-2.287,5.736-4.582,3.33-2.64,6.636-5.214l.475-17.856Z" transform="translate(752.898 291.476)" fill="#fcab92"/>
  <path id="Path_1905" data-name="Path 1905" d="M-702.158-270.127a92.987,92.987,0,0,0-1.631,13.5c-.127,2.707-.127,5.271-.04,7.671a15.3,15.3,0,0,0,2.769,5.538,15.489,15.489,0,0,0,6.765,4.885,21.634,21.634,0,0,0,7.86-2.967,21.726,21.726,0,0,0,7.118-7.267,57.692,57.692,0,0,0,1.04-7.269,58.2,58.2,0,0,0-.594-13.941,21.256,21.256,0,0,0-8.307-3.262A22.359,22.359,0,0,0-702.158-270.127Z" transform="translate(748.055 279.416)" fill="#fcb6a1"/>
  <path id="Path_1906" data-name="Path 1906" d="M-668.775-255.35a72.613,72.613,0,0,1-16.594-4.267,72.634,72.634,0,0,1-13.274-6.8,33.223,33.223,0,0,1-3,6,33.316,33.316,0,0,1-3.634,4.74,27.693,27.693,0,0,1-.315-4.425,27.638,27.638,0,0,1,.447-4.718,11.635,11.635,0,0,1,4.553-7.358,20.816,20.816,0,0,1,6.811-3.3c6.627-1.8,12.578.207,16.521,2.309a15.189,15.189,0,0,1,7.358,8.729l.022.067A25.072,25.072,0,0,1-668.775-255.35Z" transform="translate(745.97 276.164)" fill="#3f424a"/>
  <path id="Path_1907" data-name="Path 1907" d="M-694.88-175.623A8.938,8.938,0,0,0-683.66-169.8a8.94,8.94,0,0,0,5.825-11.22,8.939,8.939,0,0,0-11.22-5.825A8.939,8.939,0,0,0-694.88-175.623Z" transform="translate(758.555 384.829)" fill="#e2e0e5"/>
  <path id="Path_1908" data-name="Path 1908" d="M-716.013-221.824c-.638.562-1.531,1.384-2.547,2.438A18.712,18.712,0,0,0-722.12-215a17.243,17.243,0,0,0-1.416,4,5.265,5.265,0,0,0-.224,1.667,5.027,5.027,0,0,0,.3,1.54,1.633,1.633,0,0,0-.122,1.249,1.626,1.626,0,0,0,.778.924c.073.913.327,1.578.64,1.609.362.036.742-.782.773-.849a2.793,2.793,0,0,0,.238-1.1,6.442,6.442,0,0,1,.809-2.511,7.9,7.9,0,0,1,1.793-2.42l1.991-2.047c-.245.7-.453,1.273-.6,1.676-.571,1.542-.8,2.049-.618,2.693.111.38.393.9.7.891.427-.011.687-1.022.975-1.873.673-1.98,1.178-2.116,2.167-4.2a22.454,22.454,0,0,0,1.758-5.514Z" transform="translate(723.763 342.584)" fill="#fcb6a1"/>
  <path id="Path_1909" data-name="Path 1909" d="M-661.056-174.6a68.385,68.385,0,0,0,1.576-14.5,71.263,71.263,0,0,0-8.551-33.495,59,59,0,0,1-16.55,3.191,59.015,59.015,0,0,1-17.379-1.773q-1.193,5.387-2.287,10.956c-2.48,12.654-4.331,24.868-5.673,36.568Z" transform="translate(740.684 341.637)" fill="#e2e0e5"/>
  <path id="Path_1910" data-name="Path 1910" d="M-668.466-212.851a46.319,46.319,0,0,1-6.738,3.073c-13.043,4.718-25.255,2.42-32.039.471a43.074,43.074,0,0,0,1.42-6.618,43.239,43.239,0,0,0,.353-7.211c1.9.356,3.918.64,6.029.827a66.268,66.268,0,0,0,27.192-3.429,36.418,36.418,0,0,0,.591,3.782A37.317,37.317,0,0,0-668.466-212.851Z" transform="translate(743.956 337.8)" fill="#678a9c"/>
  <path id="Path_1911" data-name="Path 1911" d="M-661.3-219.717a43.537,43.537,0,0,0-10.39-.724,45.524,45.524,0,0,0-22.47,7.489,28.266,28.266,0,0,0,1.449,8.7,28.337,28.337,0,0,0,5.558,9.665,56.325,56.325,0,0,0,10.632-.24,56.955,56.955,0,0,0,18.121-5.316,21.09,21.09,0,0,0,1.209-7.731A21.688,21.688,0,0,0-661.3-219.717Z" transform="translate(759.946 344.206)" fill="#73424b"/>
  <path id="Path_1912" data-name="Path 1912" d="M-681.682-163.7q-1.837-10.3-3.745-20.659-6.61-35.868-13.772-70.792l-2.9.967q1.513,11.914,3.625,24.4a581.047,581.047,0,0,0,15.705,67.53Z" transform="translate(750.244 301.844)" fill="#73424b"/>
  <path id="Path_1913" data-name="Path 1913" d="M-686.158-254.334a26.309,26.309,0,0,1,3.038,4.725,26.353,26.353,0,0,1,2.193,6.245q4.807,15.271,9.618,30.544c1.085,3.425,2.109,7.025,3.038,10.8a172.767,172.767,0,0,1,4.725,31.557,3.319,3.319,0,0,1-2.025,1.351,3.429,3.429,0,0,1-2.869-.845c-2.165-5.882-4.28-12.245-6.245-19.07-1.9-6.614-3.456-12.936-4.725-18.9-3.4-9.578-6.256-16.919-8.269-21.937-1.68-4.189-3.114-7.611-2.869-12.321A23.614,23.614,0,0,1-686.158-254.334Z" transform="translate(764.331 302.847)" fill="#fcb6a1"/>
  <path id="Path_1914" data-name="Path 1914" d="M-683.234-218.5a15.659,15.659,0,0,0,4.571-.787,16.038,16.038,0,0,0,6.463-4.1,49.164,49.164,0,0,1-3.627-8.514c-1.6-5.047-1.72-8.356-4.1-15.132-.978-2.787-1.784-4.591-3.625-5.989a10,10,0,0,0-5.834-1.891,40.227,40.227,0,0,0-1.734,6.778,40.383,40.383,0,0,0-.158,11.978Z" transform="translate(763.021 302.146)" fill="#6b46b2"/>
  <path id="Path_1915" data-name="Path 1915" d="M-675.618-217.492c.336.778.8,1.9,1.267,3.289A18.764,18.764,0,0,1-673-208.718a17.17,17.17,0,0,1-.422,4.22,5.3,5.3,0,0,1-.5,1.6,5.117,5.117,0,0,1-.929,1.267,1.633,1.633,0,0,1-.422,1.18,1.627,1.627,0,0,1-1.1.507c-.456.793-.969,1.287-1.265,1.18-.342-.122-.338-1.02-.338-1.1a2.815,2.815,0,0,1,.253-1.1,6.413,6.413,0,0,0,.338-2.616,7.9,7.9,0,0,0-.591-2.953q-.463-1.35-.929-2.7c-.075.738-.131,1.347-.169,1.773-.14,1.638-.144,2.2-.589,2.7-.262.3-.738.642-1.013.507-.38-.191-.184-1.218-.084-2.111.235-2.078-.162-2.416-.169-4.725a22.492,22.492,0,0,1,.76-5.738Z" transform="translate(776.115 347.88)" fill="#fcb6a1"/>
</svg>
