<svg id="Group_1051" data-name="Group 1051" xmlns="http://www.w3.org/2000/svg" width="663.01" height="367.269" viewBox="0 0 663.01 367.269">
  <g id="Group_1046" data-name="Group 1046">
    <g id="Group_1045" data-name="Group 1045">
      <path id="Path_2328" data-name="Path 2328" d="M-1386.182,211.346l609.056-.182S-695.67,123.7-763.353,29.015c-27.732-38.8-65.252-68.947-113.054-67.539-24.643.676-48.189,9.958-68.381,23.359-21.883,14.521-84.957,1.791-138.646-83.7-27.037-43.035-78.175-59.976-128.492-56.658a194.561,194.561,0,0,0-78.126,22.183c-42.7,22.81-73.154,60.785-78.77,109.3-4.154,35.8,5.9,56.429,7.8,75.914,7.1,70.414-68.027,78.848-25.156,159.465Z" transform="translate(1399.479 155.924)" fill="#fcecdb"/>
      <path id="Path_2329" data-name="Path 2329" d="M-1132.616-132.563c-27.09-18.152-61.543-25.2-95.624-22.957a194.561,194.561,0,0,0-78.126,22.183c-42.7,22.81-73.154,60.785-78.77,109.3-3.091,26.634,1.684,44.871,5.111,60.487h247.409Z" transform="translate(1415.793 155.924)" fill="#e1fff8"/>
      <path id="Path_2330" data-name="Path 2330" d="M-1348.088-33.574c20.708-10.572,32.67-14.647,35.455-37.584,1.218-10.023,10.925-13.812,23.343-16.923,3.5-.88,7.2-1.7,11-2.6,13.576-3.2,28.257-7.311,38.124-18.016,14.467-15.7,14.045-35.2,11.923-47.047a194.587,194.587,0,0,0-78.121,22.183c-42.7,22.81-73.154,60.785-78.77,109.3a140.88,140.88,0,0,0-.167,31.995c.018.1.033.2.042.291C-1370.466,3.174-1364.411-25.243-1348.088-33.574Z" transform="translate(1415.794 156.146)" fill="#aed9e0"/>
      <path id="Path_2331" data-name="Path 2331" d="M-1369.593-31.895V.41h216.76V-100.778h-19.326v30.751H-1194.2v-50.112h-24.315v32.53h-5.545v-38.828h-24.315v72.809h-30.748v42.458h-11.489v-18.9h-26.4v11.181h-15.153V-68.941h-18.717v37.046Z" transform="translate(1436.01 191.966)" fill="#b8f2e6"/>
      <path id="Path_2332" data-name="Path 2332" d="M-1107.467-69.358h-275.917a131.962,131.962,0,0,1,2.685,15.427h273.232Z" transform="translate(1419.153 261.735)" fill="#f9ddbf"/>
      <path id="Path_2333" data-name="Path 2333" d="M-1266.125-141.865a123.586,123.586,0,0,0-10.78-6.451V28.027h11V-141.72Z" transform="translate(1549.303 165.223)" fill="#f9ddbf"/>
      <path id="Path_2334" data-name="Path 2334" d="M-1342.555-147.1V31.588h11V-151.229q-5.564,1.893-11,4.125Z" transform="translate(1469.059 161.663)" fill="#f9ddbf"/>
      <path id="Path_2335" data-name="Path 2335" d="M-1163.69-102.97q1.254-.07,2.509-.1c28.317-.833,58.167,9.467,86.773,36.833q1.257,1.2,2.511,2.449,1.41,1.4,2.813,2.856v28.017H-1166.5v-69.868c.933-.078,1.869-.138,2.811-.187Z" transform="translate(1684.254 220.471)" fill="#f9ddbf"/>
      <path id="Path_2336" data-name="Path 2336" d="M-1162.727-103.071c28.319-.833,58.163,9.467,86.775,36.835q1.257,1.2,2.509,2.447v27.337h-91.793v-66.518c.838-.042,1.671-.076,2.509-.1Z" transform="translate(1685.8 220.47)" fill="#ffead7"/>
      <path id="Path_2337" data-name="Path 2337" d="M-1164.107-103.071v63.458h86.775V-66.236c-28.612-27.368-58.456-37.668-86.775-36.835Z" transform="translate(1687.18 220.47)" fill="#f4e0ce"/>
      <path id="Path_2338" data-name="Path 2338" d="M-1337.278-22.384l3.553,13.461.006,0,14.792,56.018h1.558L-1325.922.623c-.009-.044-.02-.091-.027-.14L-1330.18-22.5Z" transform="translate(1475.509 319.008)" fill="#e8c6a7"/>
      <path id="Path_2339" data-name="Path 2339" d="M-1368.716,47.1h1.553L-1355.1,1.466V1.459l2.738-10.378.007,0,3.553-13.463-7.1-.118-2.413,13.141-1.813,9.845c-.007.047-.022.1-.031.142Z" transform="translate(1437.082 319.008)" fill="#e8c6a7"/>
      <path id="Path_2340" data-name="Path 2340" d="M-1372.22-14.173H-1255.8a2.873,2.873,0,0,0,2.867-2.865v-8.331a2.873,2.873,0,0,0-2.867-2.865H-1372.22a2.87,2.87,0,0,0-2.864,2.865v8.331a2.87,2.87,0,0,0,2.864,2.865Z" transform="translate(1429.297 312.002)" fill="#efcbab"/>
    </g>
  </g>
  <g id="Group_1050" data-name="Group 1050" transform="translate(154.979 90.208)">
    <g id="Group_1047" data-name="Group 1047" transform="translate(264.449 0.001)">
      <path id="Path_2341" data-name="Path 2341" d="M-1144.861-16.585q-6.9-13.434-14.174-27.061Q-1172.013-67.971-1185.13-91l2.738-1.289q5.043,7.03,9.987,14.821a309.839,309.839,0,0,1,28.995,58.954Z" transform="translate(1242.055 143.492)" fill="#543037"/>
      <path id="Path_2342" data-name="Path 2342" d="M-1154.66-110.319a62.888,62.888,0,0,1,4.425,5.982c1.738,2.673,21.836,34.55-1.265,44.564-8.156,3.536-22.152,4.547-31.392,1.409-17.565-5.965-19.516-27.441-.211-53.362a70.956,70.956,0,0,1,10.325-.82A69.728,69.728,0,0,1-1154.66-110.319Z" transform="translate(1227.746 118.734)" fill="#3f424a"/>
      <path id="Path_2343" data-name="Path 2343" d="M-1162.576-93.654a88.129,88.129,0,0,1-3.262,13.276c-1.671,5.051-3.662,9.512-14.034,28.583-3.216,5.911-4.82,8.872-5.391,9.838a172.8,172.8,0,0,1-18.721,25.841,3.309,3.309,0,0,1-2.391-.456,3.436,3.436,0,0,1-1.458-2.609c2.573-5.716,5.518-11.741,8.894-17.987,3.271-6.056,6.589-11.658,9.858-16.805a221.13,221.13,0,0,0,9.454-21.454c2.958-7.831,4.72-13.918,10.414-16.765A14.625,14.625,0,0,1-1162.576-93.654Z" transform="translate(1214.304 141.828)" fill="#fcb6a1"/>
      <path id="Path_2344" data-name="Path 2344" d="M-1188.729-59.761a12.326,12.326,0,0,1-5.045-1.576,12.333,12.333,0,0,1-3.625-3.153c.655-1.4,1.631-3.582,2.68-6.3,2.6-6.765,2.625-9.018,5.042-13.714,1.7-3.293,2.982-5.711,5.833-7.407a12.925,12.925,0,0,1,6.463-1.733q-1.84,6.274-3.942,12.767Q-1184.892-69.861-1188.729-59.761Z" transform="translate(1227.06 141.834)" fill="#6b46b2"/>
      <path id="Path_2345" data-name="Path 2345" d="M-1165.314,6.34a8.108,8.108,0,0,1-.451,3.262c-.791,2.18-2.362,3.358-1.911,4.162.167.3.515.373,1.125.507a4.233,4.233,0,0,0,3.262-.676,4.937,4.937,0,0,0,1.575-2.476,9.156,9.156,0,0,0,.618-3.093,2.773,2.773,0,0,0,.056-1.745,2.8,2.8,0,0,0-1.236-1.573Q-1163.8,5.522-1165.314,6.34Z" transform="translate(1263.292 262.059)" fill="#307da1"/>
      <path id="Path_2346" data-name="Path 2346" d="M-1200.774,7.215c-.609.282-1.542.7-2.7,1.18-3.018,1.238-4.7,1.658-4.669,2.193.022.316.631.509,1.182.676,1.543.469,3.4.518,7.876-.507.64-.147,1.149-.273,1.4-.338.1-.389.2-.8.282-1.238.131-.676.222-1.316.282-1.911Q-1198.946,7.241-1200.774,7.215Z" transform="translate(1213.925 265.122)" fill="#307da1"/>
      <path id="Path_2347" data-name="Path 2347" d="M-1187.774-47.074l12.656,63.787q8.747-1.293,17.494-2.591-.706-33.138-1.413-66.278Q-1173.4-49.616-1187.774-47.074Z" transform="translate(1238.824 192.552)" fill="#e2e0e5"/>
      <path id="Path_2348" data-name="Path 2348" d="M-1181.576-15.87l32.748,57.78a5.248,5.248,0,0,1,.216,2.718c-.24,1.193-.869,1.893-.587,2.251s1.349.093,1.942-.2c2.425-1.209,2.589-5.418,2.607-6.489A153.631,153.631,0,0,0-1156.468-5.7a151.337,151.337,0,0,0-9.212-17.916Q-1173.627-19.744-1181.576-15.87Z" transform="translate(1246.4 227.431)" fill="#e2e0e5"/>
      <path id="Path_2349" data-name="Path 2349" d="M-1199.9-19.915a8.938,8.938,0,0,0,5.12,11.558,8.937,8.937,0,0,0,11.558-5.118,8.94,8.94,0,0,0-5.12-11.561A8.94,8.94,0,0,0-1199.9-19.915Z" transform="translate(1223.265 224.967)" fill="#81a9bd"/>
      <path id="Path_2350" data-name="Path 2350" d="M-1188.417-52.085l-12.074,67.054,17.254,3.885q11.594-31.128,23.19-62.256Q-1174.231-47.743-1188.417-52.085Z" transform="translate(1223.279 192.639)" fill="#e2e0e5"/>
      <path id="Path_2351" data-name="Path 2351" d="M-1192.334-21.912q-5.164,32.561-10.325,65.123-4.653,1.953-4.5,2.473.2.667,8.2-.993a147.035,147.035,0,0,0,19.876-42.975,144.424,144.424,0,0,0,4-19.743Z" transform="translate(1215.123 229.52)" fill="#e2e0e5"/>
      <path id="Path_2352" data-name="Path 2352" d="M-1184.879-91.1a44.262,44.262,0,0,1,18.225-3.711,44.1,44.1,0,0,1,15.067,2.856q.507,11.814,1.011,23.625a72.67,72.67,0,0,0-8.209,31.57,71.329,71.329,0,0,0,2.025,18.674,57.545,57.545,0,0,1-20.814,2.407,57.113,57.113,0,0,1-13.612-2.631q-.277-8.337-.449-16.874-.174-8.65-.224-17.1a18.881,18.881,0,0,1-3.151-10.352c.08-4.278,1.865-7.163,3.718-10.912A88.2,88.2,0,0,0-1184.879-91.1Z" transform="translate(1229.975 140.403)" fill="#6b46b2"/>
      <path id="Path_2353" data-name="Path 2353" d="M-1186.909-98.538q.157,7.19.316,14.378a31.722,31.722,0,0,0,.158,4.585,32.148,32.148,0,0,0,.789,4.425q2.843-2.29,5.736-4.585,3.333-2.64,6.638-5.214l.473-17.856Z" transform="translate(1239.881 130.643)" fill="#fcab92"/>
      <path id="Path_2354" data-name="Path 2354" d="M-1189.139-109.3a92.712,92.712,0,0,0-1.631,13.5c-.127,2.707-.129,5.271-.042,7.671a15.276,15.276,0,0,0,2.769,5.538,15.5,15.5,0,0,0,6.764,4.885,21.577,21.577,0,0,0,7.861-2.967,21.74,21.74,0,0,0,7.12-7.267,58.058,58.058,0,0,0,1.038-7.267,58.209,58.209,0,0,0-.593-13.943,21.242,21.242,0,0,0-8.3-3.262A22.367,22.367,0,0,0-1189.139-109.3Z" transform="translate(1235.037 118.583)" fill="#fcb6a1"/>
      <path id="Path_2355" data-name="Path 2355" d="M-1155.757-94.519a72.622,72.622,0,0,1-16.592-4.267,72.494,72.494,0,0,1-13.274-6.8,33.367,33.367,0,0,1-3,6,33.482,33.482,0,0,1-3.636,4.742,27.713,27.713,0,0,1-.315-4.425,27.67,27.67,0,0,1,.449-4.72,11.638,11.638,0,0,1,4.551-7.358,20.805,20.805,0,0,1,6.814-3.3c6.625-1.8,12.578.207,16.521,2.309a15.185,15.185,0,0,1,7.356,8.729l.022.069A25.01,25.01,0,0,1-1155.757-94.519Z" transform="translate(1232.952 115.331)" fill="#3f424a"/>
      <path id="Path_2356" data-name="Path 2356" d="M-1181.862-14.791a8.939,8.939,0,0,0,11.221,5.825,8.938,8.938,0,0,0,5.824-11.22,8.94,8.94,0,0,0-11.221-5.825A8.941,8.941,0,0,0-1181.862-14.791Z" transform="translate(1245.537 223.997)" fill="#e2e0e5"/>
      <path id="Path_2357" data-name="Path 2357" d="M-1203-60.992c-.635.562-1.531,1.385-2.547,2.438a18.744,18.744,0,0,0-3.558,4.387,17.345,17.345,0,0,0-1.418,4,5.333,5.333,0,0,0-.225,1.667,5.031,5.031,0,0,0,.3,1.54,1.633,1.633,0,0,0-.122,1.249,1.625,1.625,0,0,0,.778.924c.075.913.329,1.578.642,1.609.36.036.74-.78.771-.849a2.811,2.811,0,0,0,.24-1.1,6.364,6.364,0,0,1,.809-2.511,7.851,7.851,0,0,1,1.791-2.418l1.991-2.049c-.244.7-.453,1.273-.6,1.676-.571,1.542-.8,2.051-.615,2.693.109.38.393.9.7.891.425-.011.685-1.022.976-1.873.673-1.98,1.176-2.116,2.165-4.2a22.446,22.446,0,0,0,1.758-5.514Z" transform="translate(1210.745 181.751)" fill="#fcb6a1"/>
      <path id="Path_2358" data-name="Path 2358" d="M-1148.037-13.769a68.4,68.4,0,0,0,1.576-14.5,71.284,71.284,0,0,0-8.549-33.495,59.043,59.043,0,0,1-16.552,3.191,58.947,58.947,0,0,1-17.378-1.773q-1.19,5.387-2.285,10.956c-2.482,12.654-4.331,24.868-5.676,36.568Z" transform="translate(1227.666 180.804)" fill="#e2e0e5"/>
      <path id="Path_2359" data-name="Path 2359" d="M-1155.449-52.019a46.222,46.222,0,0,1-6.738,3.073c-13.041,4.718-25.252,2.42-32.037.473a43.445,43.445,0,0,0,1.418-6.62,43.279,43.279,0,0,0,.356-7.211c1.9.356,3.916.64,6.029.827a66.258,66.258,0,0,0,27.19-3.429,36.612,36.612,0,0,0,.591,3.785A37.3,37.3,0,0,0-1155.449-52.019Z" transform="translate(1230.94 176.967)" fill="#678a9c"/>
      <path id="Path_2360" data-name="Path 2360" d="M-1148.283-58.885a43.555,43.555,0,0,0-10.389-.724,45.5,45.5,0,0,0-22.472,7.491,28.234,28.234,0,0,0,1.451,8.7,28.3,28.3,0,0,0,5.556,9.663,56.326,56.326,0,0,0,10.631-.24,56.956,56.956,0,0,0,18.121-5.316,21.08,21.08,0,0,0,1.209-7.731A21.669,21.669,0,0,0-1148.283-58.885Z" transform="translate(1246.927 183.373)" fill="#73424b"/>
      <path id="Path_2361" data-name="Path 2361" d="M-1168.663-2.871q-1.837-10.3-3.745-20.659-6.61-35.868-13.774-70.792l-2.9.967q1.51,11.914,3.625,24.4a580.124,580.124,0,0,0,15.705,67.53Q-1169.207-2.146-1168.663-2.871Z" transform="translate(1237.227 141.012)" fill="#73424b"/>
      <path id="Path_2362" data-name="Path 2362" d="M-1173.141-93.5a26.31,26.31,0,0,1,3.038,4.725,26.273,26.273,0,0,1,2.194,6.245q4.81,15.271,9.618,30.544c1.087,3.425,2.109,7.025,3.038,10.8a172.374,172.374,0,0,1,4.725,31.557,3.3,3.3,0,0,1-2.024,1.351,3.435,3.435,0,0,1-2.869-.844c-2.165-5.882-4.28-12.245-6.243-19.07-1.9-6.614-3.456-12.936-4.727-18.9-3.4-9.578-6.256-16.919-8.267-21.937-1.68-4.189-3.116-7.611-2.869-12.321A23.6,23.6,0,0,1-1173.141-93.5Z" transform="translate(1251.314 142.014)" fill="#fcb6a1"/>
      <path id="Path_2363" data-name="Path 2363" d="M-1170.217-57.665a15.659,15.659,0,0,0,4.571-.787,16.02,16.02,0,0,0,6.462-4.1,49.125,49.125,0,0,1-3.625-8.514c-1.6-5.047-1.722-8.356-4.1-15.132-.978-2.787-1.787-4.589-3.627-5.989a10.01,10.01,0,0,0-5.831-1.891A40.03,40.03,0,0,0-1178.1-87.3a40.309,40.309,0,0,0-.158,11.978Q-1174.239-66.492-1170.217-57.665Z" transform="translate(1250.004 141.313)" fill="#6b46b2"/>
      <path id="Path_2364" data-name="Path 2364" d="M-1162.6-56.66c.335.778.793,1.9,1.264,3.289a18.876,18.876,0,0,1,1.351,5.485,17.394,17.394,0,0,1-.422,4.22,5.293,5.293,0,0,1-.507,1.6,5.053,5.053,0,0,1-.929,1.267,1.621,1.621,0,0,1-.422,1.18,1.616,1.616,0,0,1-1.1.507c-.458.793-.969,1.287-1.267,1.182-.342-.122-.338-1.022-.335-1.1a2.788,2.788,0,0,1,.251-1.1,6.375,6.375,0,0,0,.338-2.616,7.855,7.855,0,0,0-.589-2.951c-.311-.9-.62-1.8-.929-2.7-.078.738-.133,1.347-.169,1.773-.14,1.638-.147,2.2-.591,2.7-.262.3-.738.642-1.014.507-.38-.191-.184-1.218-.082-2.111.233-2.076-.165-2.416-.169-4.725a22.474,22.474,0,0,1,.758-5.738Z" transform="translate(1263.098 187.047)" fill="#fcb6a1"/>
    </g>
    <g id="Group_1048" data-name="Group 1048" transform="translate(97.262 58.986)">
      <path id="Path_2365" data-name="Path 2365" d="M-1276.6-46.434v-1.173a2.689,2.689,0,0,1,2.271-2.656l27.595-4.358a2.691,2.691,0,0,1,3.111,2.658v5.529Z" transform="translate(1297.431 130.514)" fill="#bcbec0"/>
      <path id="Path_2366" data-name="Path 2366" d="M-1240.418-28.651h12.149l-20.827-43.39-1.736,8.678Z" transform="translate(1328.934 109.261)" fill="#9d9fa1"/>
      <path id="Path_2367" data-name="Path 2367" d="M-1212.476-48.091h-39.917v-1.953a3.253,3.253,0,0,1,3.253-3.253h33.41a3.254,3.254,0,0,1,3.253,3.253Z" transform="translate(1327.025 132.171)" fill="#bcbec0"/>
      <path id="Path_2368" data-name="Path 2368" d="M-1252.628-19.074a2.359,2.359,0,0,1-1.865-2.789l13.594-65.058a2.351,2.351,0,0,1,2.78-1.818,2.36,2.36,0,0,1,1.867,2.789l-13.6,65.056A2.348,2.348,0,0,1-1252.628-19.074Z" transform="translate(1324.397 88.789)" fill="#bcbec0"/>
      <rect id="Rectangle_511" data-name="Rectangle 511" width="5.207" height="126.699" transform="translate(121.493 91.023)" fill="#efcbab"/>
      <rect id="Rectangle_512" data-name="Rectangle 512" width="5.207" height="126.699" transform="translate(17.356 91.023)" fill="#efcbab"/>
      <rect id="Rectangle_513" data-name="Rectangle 513" width="5.207" height="5.207" transform="translate(17.356 91.023)" fill="#8a6266"/>
      <rect id="Rectangle_514" data-name="Rectangle 514" width="5.207" height="5.207" transform="translate(121.493 91.023)" fill="#8a6266"/>
      <rect id="Rectangle_515" data-name="Rectangle 515" width="145.791" height="8.678" rx="1.933" transform="translate(0 84.08)" fill="#efcbab"/>
    </g>
    <g id="Group_1049" data-name="Group 1049">
      <path id="Path_2369" data-name="Path 2369" d="M-1289.666-55.005a6.83,6.83,0,0,1,3.042.038,12.784,12.784,0,0,1,3.573,1.7,16.088,16.088,0,0,0,2.511,1.54c1.084.411,1.862.418,2.049.953a1.294,1.294,0,0,1-.458,1.224c-.749.669-2.276.478-3.811-.5q1.263,1.693,2.529,3.391c.489-.609.829-.584.92-.569.451.071.66.773.973,1.825.233.789.351,1.182.229,1.509-.371.989-2.138,1.049-2.214,1.051-.658.116-1.607.269-2.756.422a13.729,13.729,0,0,1-3.489.287c-.529-.111-1.836-.473-4.109-3.093a25.092,25.092,0,0,1-3.851-6.022Q-1292.1-53.129-1289.666-55.005Z" transform="translate(1372.787 188.886)" fill="#fcb6a1"/>
      <path id="Path_2370" data-name="Path 2370" d="M-1300.641-92.178a14.048,14.048,0,0,0-5.774-1.811,14.632,14.632,0,0,0-5.14,4.467,15.249,15.249,0,0,0-2.631,8.5,80.017,80.017,0,0,0,3.54,26.292,79.893,79.893,0,0,0,9.414,20,143.433,143.433,0,0,0,10.1,13.241A143.775,143.775,0,0,0-1270.488-1.8a7.285,7.285,0,0,0,4.087-1.5,7.529,7.529,0,0,0,2.745-5.114q-4.91-7.464-9.823-15.261-7.864-12.491-14.956-24.632l-5.525-35.035A15.1,15.1,0,0,0-1300.641-92.178Z" transform="translate(1348.705 141.42)" fill="#a1b9cf"/>
      <path id="Path_2371" data-name="Path 2371" d="M-1318.019,3.241V6.359a11.581,11.581,0,0,0,1.4,3.227,11.925,11.925,0,0,0,4.625,4.2,8.54,8.54,0,0,1,3.011.213,4.044,4.044,0,0,1,1.936.862c1.251,1.189.824,3.331.753,3.656a29.733,29.733,0,0,1-4.625.538,29.881,29.881,0,0,1-7.849-.753,13.9,13.9,0,0,1-3.336-2.365,14.058,14.058,0,0,1-3.227-4.734,7.3,7.3,0,0,1-2.365-1.076,7.3,7.3,0,0,1-2.044-2.151q.7-1.37,1.4-2.8,1.01-2.07,1.936-4.087Z" transform="translate(1329.742 257.637)" fill="#56626e"/>
      <path id="Path_2372" data-name="Path 2372" d="M-1290.452,2.62a26.6,26.6,0,0,0,4.6,1.962A24.62,24.62,0,0,0-1274,5.356a2.665,2.665,0,0,1,2.2.3,3.845,3.845,0,0,1,1.607,3.267,42.9,42.9,0,0,1-4.451,1.509,43.712,43.712,0,0,1-13.374,1.551,18.776,18.776,0,0,1-3.547.922,19.183,19.183,0,0,1-3.573.229q-.8-2.51-1.609-5.02Z" transform="translate(1370.076 259.507)" fill="#56626e"/>
      <path id="Path_2373" data-name="Path 2373" d="M-1295.085-57.5a6.81,6.81,0,0,1,3.02-.369,12.833,12.833,0,0,1,3.769,1.213,16.1,16.1,0,0,0,2.693,1.189c1.129.264,1.9.167,2.158.671a1.286,1.286,0,0,1-.292,1.276c-.651.764-2.189.778-3.842.009q1.477,1.513,2.958,3.025c.4-.671.742-.689.835-.687.456.011.758.678,1.209,1.678.338.749.506,1.124.429,1.465-.236,1.031-1.978,1.327-2.051,1.338-.64.2-1.56.48-2.678.784a13.674,13.674,0,0,1-3.418.751c-.54-.038-1.885-.222-4.487-2.518a25.037,25.037,0,0,1-4.62-5.454Q-1297.244-55.311-1295.085-57.5Z" transform="translate(1366.828 185.528)" fill="#fcb6a1"/>
      <path id="Path_2374" data-name="Path 2374" d="M-1308.55-60.349a18.012,18.012,0,0,0-7.812,7.167c-3.865,7-1.093,15.223.636,20.123,8.934,25.337,18.383,48.813,21.337,56.1a132.289,132.289,0,0,0,8.151,33.621,132.216,132.216,0,0,0,15.283,28.526,11.557,11.557,0,0,0,5.094-.9,11.759,11.759,0,0,0,5.207-4.416c-6.671-26.323-12.79-54.3-18.012-83.839q-3.577-20.221-6.309-39.631Z" transform="translate(1343.709 182.539)" fill="#6b46b2"/>
      <path id="Path_2375" data-name="Path 2375" d="M-1287.994-61.888a18.009,18.009,0,0,0-10.256,2.678c-6.674,4.367-8.076,12.874-8.856,18.081-3.68,24.488-5.751,52.236-6.236,58.923-3.214,8.876-6.345,18.627-9.169,29.208-2.929,10.96-5.131,21.319-6.794,30.9A12.276,12.276,0,0,0-1323.191,83a11.821,11.821,0,0,0,5.094.68q12.227-29.885,24.452-59.772,9.324-29.985,18.65-59.967Q-1281.5-48.975-1287.994-61.888Z" transform="translate(1330.276 180.651)" fill="#6b46b2"/>
      <path id="Path_2376" data-name="Path 2376" d="M-1301.626-94.916a21.048,21.048,0,0,1,17.425,17.83,467.155,467.155,0,0,1,5.283,70.092q0,7.294-.225,14.365A61.486,61.486,0,0,1-1295.9,8.513a62.209,62.209,0,0,1-24.226-6.843,383.878,383.878,0,0,0,1.471-45.2,383.3,383.3,0,0,0-3.024-38.959,10.85,10.85,0,0,1,7.827-11.878l.122-.033a27.779,27.779,0,0,1,11.885-.547Z" transform="translate(1339.49 139.761)" fill="#e2e0e5"/>
      <path id="Path_2377" data-name="Path 2377" d="M-1303.456-85.957q.794-2.207,1.585-4.416a19.41,19.41,0,0,0-3.282-2.716,19.468,19.468,0,0,0-5.094-2.378q-.794,2.15-1.585,4.3Z" transform="translate(1351.633 139.615)" fill="#a1b9cf"/>
      <path id="Path_2378" data-name="Path 2378" d="M-1294.187-94.235a62.323,62.323,0,0,0-3.9,5.942,62.407,62.407,0,0,0-4.191,8.743,13.931,13.931,0,0,1-5.383-.74,14.888,14.888,0,0,1-7.86-6.771c1.044-1.853,2.1-3.911,3.114-6.171a75.672,75.672,0,0,0,2.887-7.471,9.4,9.4,0,0,1,4.585-1.358C-1300.661-102.155-1296.5-99.053-1294.187-94.235Z" transform="translate(1347.118 131.55)" fill="#fcb6a1"/>
      <path id="Path_2379" data-name="Path 2379" d="M-1286.394-109.662a23.308,23.308,0,0,0-11.1-3.4c-2.073-.087-11.787-.207-16.359,6.254-5.371,7.594.676,17.427,1.949,19.5a28.089,28.089,0,0,0,20.423,11.934c.993.093,4.218.393,5.185-1.1.871-1.349-.242-3.914.949-5.242a2.409,2.409,0,0,0,.584-.964,2.457,2.457,0,0,0-.073-1.518,1.4,1.4,0,0,0,.658-.9c.051-.393-.189-.647-.438-1.24a5.3,5.3,0,0,1-.367-1.38c2.278-.587,2.843-1.269,2.923-1.793.125-.813-.887-1.389-1.9-2.76a10.029,10.029,0,0,1-1.753-4.138,10.107,10.107,0,0,0,.487-1.38,11.336,11.336,0,0,0,.1-4.967Q-1285.624-106.091-1286.394-109.662Z" transform="translate(1346.488 118.078)" fill="#fcb6a1"/>
      <path id="Path_2380" data-name="Path 2380" d="M-1287.46-115.332a12.421,12.421,0,0,1,3.358,4.829,11.744,11.744,0,0,1,.731,5.1c-1.467.356-3.027.684-4.674.967a70.464,70.464,0,0,1-9.494.965q.087,3.083.144,6.209.03,1.567.049,3.127l-1.264.46a4.121,4.121,0,0,0-3.311-.553c-1.956.778-2.476,4.031-1.169,6.071a5.3,5.3,0,0,0,3.311,2.116,10.26,10.26,0,0,1-3.115,4.782c-1.669,1.418-4.647,2.989-5.745,2.116a1.649,1.649,0,0,1-.437-1.427,21.823,21.823,0,0,1-3.654-3.311c-4.58-5.222-7.289-13.538-4.38-20.97a14.16,14.16,0,0,1,2.629-4.551c5.047-5.651,15.665-6.52,26.875-3.173Z" transform="translate(1343.709 115.332)" fill="#293940"/>
      <path id="Path_2381" data-name="Path 2381" d="M-1303.733-84.728q.937-2.717,1.869-5.434l-10.867-6.622-3.907,3.4a28.45,28.45,0,0,0,6.962,5.945A28.412,28.412,0,0,0-1303.733-84.728Z" transform="translate(1345.759 138.004)" fill="#a3bbd1"/>
      <path id="Path_2382" data-name="Path 2382" d="M-1279.672-17.248a46.072,46.072,0,0,1-10.414-3.622c-23.376-11.456-29.648-39.6-31.017-46.64q4.3-11.661,8.6-23.321,5.25,10.64,10.414,21.737Q-1289.752-42.57-1279.672-17.248Z" transform="translate(1340.301 145.28)" fill="#9db5c9"/>
      <path id="Path_2383" data-name="Path 2383" d="M-1310.428-94.88a17.537,17.537,0,0,0-5.436,1.867,14.4,14.4,0,0,0-6.111,5.6,13.65,13.65,0,0,0-1.473,8.774,80.062,80.062,0,0,0,7.02,25.583,79.867,79.867,0,0,0,12,18.565,143.638,143.638,0,0,0,11.774,11.774,143.778,143.778,0,0,0,23.094,16.754A7.3,7.3,0,0,0-1265.713-8a7.532,7.532,0,0,0,2.036-5.434q-5.864-6.74-11.772-13.812-9.46-11.33-18.114-22.414c-3.387-7.938-6.729-16.316-9.961-25.132Q-1307.3-85.088-1310.428-94.88Z" transform="translate(1337.212 140.331)" fill="#e2e0e5"/>
    </g>
  </g>
</svg>
