<svg id="Group_975" data-name="Group 975" xmlns="http://www.w3.org/2000/svg" width="139.303" height="276.708" viewBox="0 0 139.303 276.708">
  <path id="Path_1936" data-name="Path 1936" d="M-851.81-155.945a4.607,4.607,0,0,0-.084.729,5.464,5.464,0,0,0,1.369,3.6c.044.229.087.456.129.684a6.7,6.7,0,0,0,2.4.216,6.824,6.824,0,0,0,3.469-1.371,7.633,7.633,0,0,0,4.793-2.869c1.218-1.7,1.731-4.189.984-4.709-.58-.4-1.531.656-3.725,1.413a12.383,12.383,0,0,1-4.622.642q-1.46.49-2.956,1.027Q-850.941-156.268-851.81-155.945Z" transform="translate(949.244 418.448)" fill="#18555e"/>
  <path id="Path_1937" data-name="Path 1937" d="M-874.446-210.646c.3,2.362.8,5.762,1.6,9.818a158.437,158.437,0,0,0,8.449,28.315,415.53,415.53,0,0,0,18.952,42.929,411.835,411.835,0,0,0,21.5,36.882,3.583,3.583,0,0,0,3.169.071,3.424,3.424,0,0,0,1.627-1.9q-3.107-12.657-6.429-25.466-11.544-44.512-24.432-86.313Q-862.231-208.475-874.446-210.646Z" transform="translate(921.682 356.248)" fill="#fcb6a1"/>
  <path id="Path_1938" data-name="Path 1938" d="M-866-216.451a23.825,23.825,0,0,0-1.713,10.276c.18,3.031.342,5.787,2.285,8.065,1.744,2.049,4.536,2.816,10.047,4.265,2.516.662,4.647,1.073,6.165,1.331a111.557,111.557,0,0,1-1.027,21.616,111.879,111.879,0,0,1-8.562,29.457,178.062,178.062,0,0,0-10.618,20.55,178.985,178.985,0,0,0-11.645,37.335,5.315,5.315,0,0,0,2.547,2.058,5.356,5.356,0,0,0,3.425.116c2.149-3.587,5.642-9.307,10.16-16.212,12.8-19.559,17.959-24.39,24.283-35.968a128.478,128.478,0,0,0,11.645-30.484,141.668,141.668,0,0,0,3.769-51.036Z" transform="translate(913.582 349.152)" fill="#fcb6a1"/>
  <path id="Path_1939" data-name="Path 1939" d="M-832.442-213.966a69.825,69.825,0,0,1,4.109,16.441,73.967,73.967,0,0,1-6.849,40.415q2.91,9.59,5.823,19.181a24.639,24.639,0,0,1-6.851,6.851,25.14,25.14,0,0,1-13.7,4.109,18.519,18.519,0,0,0-5.136-6.165,19.619,19.619,0,0,0-13.358-3.767,51.722,51.722,0,0,0,5.138-11.989,51.48,51.48,0,0,0,1.711-8.9c-3.625-7.365-6.18-13.652-7.878-18.152-3.951-10.48-5.931-15.865-6.165-22.95a45.621,45.621,0,0,1,3.082-17.81Z" transform="translate(920.244 348.841)" fill="#f9716e"/>
  <path id="Path_1940" data-name="Path 1940" d="M-835.669-218.832c.647.558,1.527,1.318,2.558,2.231,0,0,2.616,2.311,5.974,5.82a6.345,6.345,0,0,1,1.849,2.727c.2.738.007.8.285,2.353.218,1.225.4,1.545.142,1.982-.245.407-.553.378-1.707,1.113-1.076.687-.971.816-1.422.991-1.518.593-3.771-.451-3.7-.867.024-.138.327-.3,1.707-.371a9.6,9.6,0,0,0-2.276-3.22c-1.469-1.367-2.336-1.329-3.269-2.6-1-1.358-.516-2.087-1.422-3.591a7.485,7.485,0,0,0-2.845-2.6Q-837.734-216.851-835.669-218.832Z" transform="translate(964.038 346.242)" fill="#fcb6a1"/>
  <path id="Path_1941" data-name="Path 1941" d="M-890.885-215.129a22.4,22.4,0,0,1-.871,2.451c-.193.46-.4.9-.6,1.307-.542,1.071-1,1.933-1.307,2.5-1.516,2.8-2.184,3.714-2.016,4.847.053.362.2.769.327,1.742a2.985,2.985,0,0,0,.218,1.033,2.149,2.149,0,0,0,1.253.98,1.69,1.69,0,0,0,.327,1.144c.233.293.413.258,1.089.707.618.413.656.569.98.653a1.608,1.608,0,0,0,1.2-.218,1.293,1.293,0,0,0,.816.218c.316-.031.516-.2,1.362-1.142s.96-1.129.927-1.362a1.135,1.135,0,0,0-.709-.762,1.31,1.31,0,0,0-.818-.053,8.554,8.554,0,0,0,.709-1.089c.5-.92.547-1.4,1.033-2.125a5.245,5.245,0,0,1,.927-1.036,11.263,11.263,0,0,0-.053,1.418c.027,1.2.06,2.078.653,2.613.271.244.731.48.98.327.327-.2.142-1,.053-1.525-.42-2.5.593-3.265.273-5.174a6.215,6.215,0,0,0-1.96-3.431q.38-1.307.762-2.613a5.723,5.723,0,0,0-2.233-1.362A5.764,5.764,0,0,0-890.885-215.129Z" transform="translate(895.701 350.5)" fill="#fcb6a1"/>
  <path id="Path_1942" data-name="Path 1942" d="M-844.42-271.043a47.5,47.5,0,0,1,1.113,5.651,47.258,47.258,0,0,1,.084,11.816,26.679,26.679,0,0,1,.513,5.994c-.1,3.771-.231,8.371-3.16,10.492-2.042,1.476-4.538,1.093-8.678.456a25.511,25.511,0,0,1-8.769-3.011,24.26,24.26,0,0,1-7.7-7.082,60.818,60.818,0,0,1-1.173-7.936,61.151,61.151,0,0,1,.671-15.225,28.277,28.277,0,0,1,9.4-3.565A29.508,29.508,0,0,1-844.42-271.043Z" transform="translate(924.195 278.916)" fill="#fcb6a1"/>
  <path id="Path_1943" data-name="Path 1943" d="M-869.179-243.7q-.657-9.27-1.309-18.539l16.95.271q.4,9.134.8,18.267a14.573,14.573,0,0,1-11.074,2.511A13.257,13.257,0,0,1-869.179-243.7Z" transform="translate(926.52 293.187)" fill="#fcb6a1"/>
  <path id="Path_1944" data-name="Path 1944" d="M-846.013-252.642a24.213,24.213,0,0,0-5.845,2.8,24.761,24.761,0,0,0-7.991,8.678,181.471,181.471,0,0,0-15.3,22.377c-3.722,6.425-6.138,11.5-6.851,13.016A158.341,158.341,0,0,0-893.831-169.5a5.235,5.235,0,0,0,2.567,2.187,5.365,5.365,0,0,0,4.193-.218c1.627-4.814,3.534-9.8,5.771-14.9a188.805,188.805,0,0,1,31.5-49.147q.687-3.384,1.34-6.849Q-847.1-245.662-846.013-252.642Z" transform="translate(897.988 304.915)" fill="#00c6b3"/>
  <path id="Path_1945" data-name="Path 1945" d="M-863.067-254.822c.3,2.327.709,4.814,1.276,7.429a86.747,86.747,0,0,0,3.218,11.176,239.849,239.849,0,0,0,12.22,25.181c.842,1.507,3.88,7.034,6.985,11.694,8.736,13.116,19.841,23.423,28.523,30.392a5.479,5.479,0,0,0,3.34-1.151,5.63,5.63,0,0,0,2.038-3.9A117.852,117.852,0,0,1-818.9-189.417c-10.878-14.952-24.35-41.015-29-53.431a17.907,17.907,0,0,0-3.88-6.394A20.281,20.281,0,0,0-863.067-254.822Z" transform="translate(935.591 302.251)" fill="#00c6b3"/>
  <path id="Path_1946" data-name="Path 1946" d="M-875.869-248.319a34.308,34.308,0,0,1,19.2-6.5,34.407,34.407,0,0,1,20.756,6.5,111.355,111.355,0,0,0,1.6,11.645c1.389,7.236,2.642,9.632,2.511,14.385a31.659,31.659,0,0,1-2.284,10.5c-3.376,9.812-1.469,18.587,0,29.686a118.5,118.5,0,0,0,3.482,16.783,62.836,62.836,0,0,1-16.954,3.082,62.58,62.58,0,0,1-14.214-1.029,14.041,14.041,0,0,1-6.165.173,14.122,14.122,0,0,1-6.507-3.2q3.054-8.594,6.107-17.183c.189-6.036.142-12.443-.229-19.181A224.054,224.054,0,0,0-875.869-248.319Z" transform="translate(919.943 302.248)" fill="#00c6b3"/>
  <path id="Path_1947" data-name="Path 1947" d="M-835.219-269.046a17.926,17.926,0,0,1,1.062,9.48,19.154,19.154,0,0,1-1.6,5.365l-1.6.229c-.873-1.756-1.7-1.9-1.969-1.911-1.576-.091-3.589,2.953-2.974,5.56a5.035,5.035,0,0,0,2.282,2.969c.322,1.46.769,3.678,1.142,6.394,1.558,11.3,4.245,30.806-5.925,38.58-7.511,5.745-21.368,4.569-28.541-2.282-12.185-11.638-2.165-36.908.671-44.06a72.064,72.064,0,0,1,7.08-13.472c-1.98-4.491-1.4-7.045-.687-8.449C-862.231-278.571-839.53-277.893-835.219-269.046Z" transform="translate(915.828 276.164)" fill="#3a434a"/>
  <path id="Path_1948" data-name="Path 1948" d="M-880.2-156.846a11.837,11.837,0,0,1-.571,1.369,12.009,12.009,0,0,1-1.369,2.169,5.787,5.787,0,0,0,.969,2.74,5.78,5.78,0,0,0,2.113,1.885,9.937,9.937,0,0,0,3.254,2.511c2.949,1.4,6.369,1.14,6.565.4.173-.649-2.262-1.193-3.767-3.882a7.993,7.993,0,0,1-.8-2.053l.113-2.285q-.883-.143-1.769-.284a4.061,4.061,0,0,0-1.713-2.113A4.116,4.116,0,0,0-880.2-156.846Z" transform="translate(912.283 421.876)" fill="#18555e"/>
</svg>
