<svg id="Group_984" data-name="Group 984" xmlns="http://www.w3.org/2000/svg" width="283.339" height="301.976" viewBox="0 0 283.339 301.976">
  <path id="Path_1986" data-name="Path 1986" d="M-507.866-16.083s-1.127.1-3.058.442a50.164,50.164,0,0,0-7.783,2.051,41.63,41.63,0,0,0-4.909,2.065A45.718,45.718,0,0,0-528.678-8.5a35.31,35.31,0,0,0-4.84,3.974,27.556,27.556,0,0,0-2.22,2.329l-.54.6a6.827,6.827,0,0,0-.471.6l-1,1.353a21.4,21.4,0,0,0-1.82,2.691,20.6,20.6,0,0,0-1.536,2.787A25.748,25.748,0,0,0-542.4,8.731a22.89,22.89,0,0,0-1.036,2.922c-.338.964-.544,1.947-.78,2.9a26.9,26.9,0,0,0-.582,2.836,39.87,39.87,0,0,0-.547,5.3,53.048,53.048,0,0,0,.234,8.051c.213,1.949.429,3.06.429,3.06a23.282,23.282,0,0,1-.956-2.96,39.7,39.7,0,0,1-1.256-8.147,41.746,41.746,0,0,1,.1-5.554A31.862,31.862,0,0,1-545.769,11a25.155,25.155,0,0,1,.969-3.169,20.338,20.338,0,0,1,1.3-3.145,23.674,23.674,0,0,1,1.642-3.08,24.3,24.3,0,0,1,1.911-2.9l1.027-1.338a9.143,9.143,0,0,1,.573-.713l.589-.64a29.9,29.9,0,0,1,2.425-2.469,23.474,23.474,0,0,1,2.607-2.185A27.36,27.36,0,0,1-530-10.523a34.118,34.118,0,0,1,5.567-2.827,43.237,43.237,0,0,1,5.287-1.718,38.393,38.393,0,0,1,8.174-1.1A23.565,23.565,0,0,1-507.866-16.083Z" transform="translate(563.232 228.246)" fill="#dbe8ed"/>
  <path id="Path_1987" data-name="Path 1987" d="M-502.6-12.267l.858.68a24.07,24.07,0,0,1,2.365,2q.72.71,1.6,1.562.8.923,1.72,1.989a32.72,32.72,0,0,1,3.536,5.245,39,39,0,0,1,2.94,6.927,36.044,36.044,0,0,1,1.555,8.3,35.52,35.52,0,0,1-.52,9.054,35.219,35.219,0,0,1-2.891,8.929,19.763,19.763,0,0,1-1.1,2.122l-1.167,1.96a39.521,39.521,0,0,1-2.856,3.782,33.853,33.853,0,0,1-6.723,6.087,32.838,32.838,0,0,1-7.445,3.987,38.9,38.9,0,0,1-7.236,2.069c-1.151.18-2.256.329-3.307.438l-3,.091a39.2,39.2,0,0,1-4.836-.384,23.1,23.1,0,0,1-3.049-.591l-1.065-.244,1.091.1c.711.049,1.744.2,3.069.2a38.7,38.7,0,0,0,4.747-.107,52.141,52.141,0,0,0,6.029-1.02,37.033,37.033,0,0,0,6.765-2.4,36.875,36.875,0,0,0,6.814-4.1,34.741,34.741,0,0,0,6.114-5.838,37.787,37.787,0,0,0,2.556-3.445l1.142-1.96a18.469,18.469,0,0,0,.973-1.931,35.684,35.684,0,0,0,3.48-16.676,41.431,41.431,0,0,0-1.069-7.887A37.129,37.129,0,0,0-493.908-.1a45.671,45.671,0,0,0-2.978-5.336l-1.476-2.1c-.507-.609-.973-1.167-1.393-1.671-.82-1.038-1.622-1.738-2.091-2.271Z" transform="translate(579.994 233.033)" fill="#dbe8ed"/>
  <path id="Path_1988" data-name="Path 1988" d="M-428.264-16.083s-1.129.1-3.058.442A50.1,50.1,0,0,0-439.1-13.59a41.651,41.651,0,0,0-4.911,2.065,45.907,45.907,0,0,0-5.06,3.025,35.179,35.179,0,0,0-4.84,3.974,27.211,27.211,0,0,0-2.22,2.329l-.542.6a7.317,7.317,0,0,0-.469.6L-458.154.36a21.882,21.882,0,0,0-1.82,2.691,21.11,21.11,0,0,0-1.536,2.787A26.151,26.151,0,0,0-462.8,8.731a22.544,22.544,0,0,0-1.033,2.922c-.338.964-.544,1.947-.782,2.9a27.452,27.452,0,0,0-.58,2.836,39.131,39.131,0,0,0-.547,5.3,53.07,53.07,0,0,0,.233,8.051c.213,1.949.429,3.06.429,3.06a23.282,23.282,0,0,1-.956-2.96,39.543,39.543,0,0,1-1.256-8.147,41,41,0,0,1,.1-5.554A31.694,31.694,0,0,1-466.168,11a24.8,24.8,0,0,1,.969-3.169,20.327,20.327,0,0,1,1.3-3.145,23.138,23.138,0,0,1,1.642-3.08,24.273,24.273,0,0,1,1.911-2.9l1.024-1.338c.2-.242.28-.4.573-.713l.591-.64a29.908,29.908,0,0,1,2.422-2.469,23.507,23.507,0,0,1,2.609-2.185,27.354,27.354,0,0,1,2.727-1.88,34.051,34.051,0,0,1,5.569-2.827,43,43,0,0,1,5.287-1.718,38.375,38.375,0,0,1,8.174-1.1A23.594,23.594,0,0,1-428.264-16.083Z" transform="translate(660.529 228.246)" fill="#dbe8ed"/>
  <path id="Path_1989" data-name="Path 1989" d="M-451.14-50.308c.311-.56,1.051-2.056.431-3.182-.445-.807-1.367-1.031-2.582-1.376-1.831-.524-3.565-1.376-5.418-1.807-2.967-.693-7.067-1.727-12.216-3.011a3.021,3.021,0,0,0-1.633.773,3.9,3.9,0,0,0-.86,3.269C-472.955-52.295-457.409-50.806-451.14-50.308Z" transform="translate(653.04 175.074)" fill="#f09b81"/>
  <path id="Path_1990" data-name="Path 1990" d="M-454.3-49.416a4.005,4.005,0,0,0-.776-2.409c-.844-1.071-2-1.111-3.44-1.807a9.421,9.421,0,0,1-3.44-2.925,3.3,3.3,0,0,0-2.238,0,3.436,3.436,0,0,0-1.978,2.151,10.7,10.7,0,0,0,1.462,2.236,9.337,9.337,0,0,0,5.678,3.44A8.564,8.564,0,0,0-454.3-49.416Z" transform="translate(661.962 178.656)" fill="#3a5570"/>
  <path id="Path_1991" data-name="Path 1991" d="M-481.668-85.359a11.427,11.427,0,0,0-8.429-2.582,11.7,11.7,0,0,0-8.432,5.678q7.8,20.5,15.6,41a99.637,99.637,0,0,0,13.763,11.7,100.332,100.332,0,0,0,25.314,12.892,12.347,12.347,0,0,0,5.52-3.713,12.223,12.223,0,0,0,2.391-4.48c-2.182-1.184-5.385-3-9.138-5.387-11.865-7.554-17.8-11.329-22.023-17.432-4.022-5.814-5.931-12.765-9.747-26.668a40.3,40.3,0,0,0-2.409-6.594A40.208,40.208,0,0,0-481.668-85.359Z" transform="translate(622.408 140.448)" fill="#3f2189"/>
  <path id="Path_1992" data-name="Path 1992" d="M-483.871,5.487a16.017,16.017,0,0,0,7.109,3.669c1.464.309,3.267.433,4.016,1.722a3.377,3.377,0,0,1,.113,2.638,42.662,42.662,0,0,1-6.767-.344,42.449,42.449,0,0,1-8.6-2.065Q-485.937,8.3-483.871,5.487Z" transform="translate(635.278 254.734)" fill="#2b3c42"/>
  <g id="Group_978" data-name="Group 978" transform="translate(179.161 197.796)">
    <path id="Path_1993" data-name="Path 1993" d="M-421.564,81.577a52.147,52.147,0,0,1-52.089-52.089A52.149,52.149,0,0,1-421.564-22.6a52.149,52.149,0,0,1,52.089,52.091A52.147,52.147,0,0,1-421.564,81.577Zm0-95.922a43.882,43.882,0,0,0-43.831,43.833,43.881,43.881,0,0,0,43.831,43.831,43.881,43.881,0,0,0,43.831-43.831A43.882,43.882,0,0,0-421.564-14.345Z" transform="translate(473.653 22.603)" fill="#24333d"/>
  </g>
  <g id="Group_979" data-name="Group 979" transform="translate(0 197.796)">
    <path id="Path_1994" data-name="Path 1994" d="M-502.185,81.577a52.146,52.146,0,0,1-52.087-52.089A52.147,52.147,0,0,1-502.185-22.6a52.15,52.15,0,0,1,52.091,52.091A52.148,52.148,0,0,1-502.185,81.577Zm0-95.922a43.88,43.88,0,0,0-43.829,43.833,43.88,43.88,0,0,0,43.829,43.831,43.882,43.882,0,0,0,43.833-43.831A43.882,43.882,0,0,0-502.185-14.345Z" transform="translate(554.272 22.603)" fill="#24333d"/>
  </g>
  <path id="Path_1995" data-name="Path 1995" d="M-481.486-41.8A259.369,259.369,0,0,1-454.762-22.65c5.963,4.871,11.354,9.723,16.21,14.421a7.227,7.227,0,0,1,1.667,7.958Q-449.493,30.29-462.1,60.847l-5.607,1.22-7.7-7.185q7.8-25.231,15.6-50.464-22.251-14.681-44.5-29.364c4.5-11.02,3.562-8.718,8.067-19.739Z" transform="translate(615.343 193.409)" fill="#d85252"/>
  <g id="Group_980" data-name="Group 980" transform="translate(198.2 128.853)">
    <path id="Path_1996" data-name="Path 1996" d="M-432.038,71.537a4.126,4.126,0,0,1-4-3.138L-464.964-48.5a4.128,4.128,0,0,1,3.016-5,4.126,4.126,0,0,1,5,3.016l28.921,116.9a4.128,4.128,0,0,1-3.016,5A4.042,4.042,0,0,1-432.038,71.537Z" transform="translate(465.086 53.626)" fill="#6b46b2"/>
  </g>
  <g id="Group_981" data-name="Group 981" transform="translate(47.959 171.677)">
    <path id="Path_1997" data-name="Path 1997" d="M-442.278,53.463c-.089,0-.176,0-.267-.007l-86.282-5.482a4.13,4.13,0,0,1-3.536-2.5,4.133,4.133,0,0,1,.647-4.285L-469.1-32.894a4.2,4.2,0,0,1,3.238-1.462l98.711,1.985a4.127,4.127,0,0,1,4.045,4.211,4.107,4.107,0,0,1-4.211,4.047l-96.747-1.947-56.047,66.314,78.092,4.96a4.128,4.128,0,0,1,3.858,4.38A4.129,4.129,0,0,1-442.278,53.463Z" transform="translate(532.691 34.356)" fill="#6b46b2"/>
  </g>
  <g id="Group_982" data-name="Group 982" transform="translate(107.963 159.137)">
    <path id="Path_1998" data-name="Path 1998" d="M-478.782,62.436l-26.909-100.3,7.976-2.14,23.559,87.806,74.449-62.223,5.3,6.339Z" transform="translate(505.691 39.999)" fill="#6b46b2"/>
  </g>
  <path id="Path_1999" data-name="Path 1999" d="M-465.285,12.786a17.241,17.241,0,0,1-17.241,17.239,17.241,17.241,0,0,1-17.241-17.239A17.241,17.241,0,0,1-482.526-4.455,17.241,17.241,0,0,1-465.285,12.786Z" transform="translate(620.894 242.581)" fill="#81a8d4"/>
  <path id="Path_2000" data-name="Path 2000" d="M-432.5,17.5h-11.356c.789-3.98-.022-8.056-2.58-10.149-3.869-3.169-11.976-1.991-16.687,4.989l-61.42-4.129V2.708q39.658-4.04,79.312-8.085a18.183,18.183,0,0,1,8.6,5.16C-430.179,6.826-432.259,16.48-432.5,17.5Z" transform="translate(590.613 241.454)" fill="#dfebfa"/>
  <path id="Path_2001" data-name="Path 2001" d="M-477.126,5.542l-22.71,34.582q-1.2-.69-2.409-1.378,10.237-17.977,20.474-35.957a2.832,2.832,0,0,1,3.44-.342A2.827,2.827,0,0,1-477.126,5.542Z" transform="translate(617.866 250.492)" fill="#d3e9fa"/>
  <path id="Path_2002" data-name="Path 2002" d="M-491.014,20.449q-.343,1.677-.689,3.356a26.932,26.932,0,0,1-4.042.171,27.257,27.257,0,0,1-8.86-1.807q.3-1.633.6-3.267a20.364,20.364,0,0,1,4.731-.431A20.751,20.751,0,0,1-491.014,20.449Z" transform="translate(614.98 270.595)" fill="#9fb0bd"/>
  <path id="Path_2003" data-name="Path 2003" d="M-493.963,13.888q-.69,1.833-1.378,3.669a9.129,9.129,0,0,0,1.262,4.245,9.172,9.172,0,0,0,3.9,3.556,11.747,11.747,0,0,0,3.669.689c1.638.038,2.509-.3,3.1.229.416.371.749,1.222.115,3.44a41.9,41.9,0,0,1-4.818,0,42.2,42.2,0,0,1-6.651-.918q-1.693-1.7-3.556-3.44c-2.456-2.278-4.878-4.338-7.227-6.194a12.472,12.472,0,0,1,1.033-2.867,12.45,12.45,0,0,1,1.491-2.3l1.031-3.1Q-497.979,12.4-493.963,13.888Z" transform="translate(613.828 261.357)" fill="#2b3c42"/>
  <path id="Path_2004" data-name="Path 2004" d="M-508.116-46.743a27.189,27.189,0,0,0-3.671,10.094,27.726,27.726,0,0,0,2.3,15.6q9.164,11.607,18.35,23.4,7.163,9.2,14.223,18.352c-2.218,5.389-4.374,11.049-6.422,16.974a316.672,316.672,0,0,0-11.929,44.962,15.463,15.463,0,0,0,5.965,3.211,15.432,15.432,0,0,0,5.965.458q4.92-10.94,10.094-22.021,10.537-22.574,21.3-44a6.357,6.357,0,0,0-.327-6.309c-5.449-8.556-10.954-17.783-16.387-27.681-5.3-9.656-10.018-19.019-14.223-27.986Z" transform="translate(605.845 190.892)" fill="#f9716e"/>
  <path id="Path_2005" data-name="Path 2005" d="M-474.168-87.85a58.989,58.989,0,0,1,5.64,5.649,58.817,58.817,0,0,1,3.7,4.7c.816,5.431,1.464,11.114,1.891,17.032a227.927,227.927,0,0,1-6.709,72.945l.86,4.989-6.538,2.58q-1.377-1.03-2.751-2.065l-4.991,3.327a59.306,59.306,0,0,1-10.352-1.547A60,60,0,0,1-511.741,11.9q2.754-7.57,5.5-15.141c.3-11.918.949-24.481,2.065-37.619,1.247-14.7,2.947-28.6,4.931-41.635a34.713,34.713,0,0,1,11.7-8.256,33.5,33.5,0,0,1,5.16-1.722Z" transform="translate(606.258 134.999)" fill="#6b46b2"/>
  <path id="Path_2006" data-name="Path 2006" d="M-494.4-91.55a20.594,20.594,0,0,1,5.785,4.76,20.325,20.325,0,0,1,2.351,3.478q-.567,1.82-1.136,3.64-3.367-2.823-6.736-5.645Z" transform="translate(627.453 136.123)" fill="#3f2189"/>
  <path id="Path_2007" data-name="Path 2007" d="M-477.2-85.385a21.623,21.623,0,0,0-3.082,2.318,21.978,21.978,0,0,0-5.134,6.963,15.31,15.31,0,0,1-5.263-1.609,17.064,17.064,0,0,1-7.951-9.734q1.483-1.79,2.989-3.74c1.393-1.809,2.689-3.589,3.894-5.325,1.013.422,2.056.911,3.118,1.48A36.926,36.926,0,0,1-477.2-85.385Z" transform="translate(622.289 130.058)" fill="#fcb6a1"/>
  <path id="Path_2008" data-name="Path 2008" d="M-464.821-103.14a24.29,24.29,0,0,0-10.863-5.356c-2.122-.433-12.1-2.18-17.887,3.711-6.8,6.923-2.211,18.059-1.247,20.4a29.306,29.306,0,0,0,19.039,15.694c1.007.26,4.278,1.109,5.525-.271,1.122-1.244.4-4.071,1.851-5.24a2.54,2.54,0,0,0,.762-.9,2.567,2.567,0,0,0,.178-1.573,1.467,1.467,0,0,0,.827-.816c.12-.4-.087-.7-.245-1.351a5.5,5.5,0,0,1-.144-1.482c2.442-.222,3.136-.831,3.307-1.358.262-.816-.682-1.578-1.5-3.158a10.433,10.433,0,0,1-1.113-4.556,10.459,10.459,0,0,0,.731-1.338,11.823,11.823,0,0,0,.929-5.1C-464.641-98.167-464.685-100.607-464.821-103.14Z" transform="translate(624.001 114.703)" fill="#fcb6a1"/>
  <path id="Path_2009" data-name="Path 2009" d="M-461.963-103.82a14.62,14.62,0,0,1,.227,1.691,16.082,16.082,0,0,1-.1,3.46,23.708,23.708,0,0,1-2.8.38c-.922.071-1.689.056-2.4.062a73.632,73.632,0,0,1-9.938-.589q-.423,3.187-.885,6.416-.233,1.62-.471,3.229-.69.13-1.38.262a4.3,4.3,0,0,0-3.318-1.12c-2.142.473-3.222,3.736-2.216,6.056a5.527,5.527,0,0,0,3.056,2.729,10.687,10.687,0,0,1-4,4.4c-1.956,1.184-5.282,2.3-6.269,1.22a1.725,1.725,0,0,1-.213-1.54,22.781,22.781,0,0,1-3.207-4.018c-3.847-6.143-5.249-15.158-1.016-22.323a15.747,15.747,0,0,1,3.467-4.251C-482.629-116.918-462.717-107.318-461.963-103.82Z" transform="translate(621.239 111.607)" fill="#243233"/>
  <path id="Path_2010" data-name="Path 2010" d="M-488.017-77.724l4.087-4.436q-2.857-2.54-5.787-5.309-3.377-3.2-6.443-6.325l-3.591,3.06a30.018,30.018,0,0,0,2.562,4.422A30.959,30.959,0,0,0-488.017-77.724Z" transform="translate(620.914 133.38)" fill="#3f2189"/>
  <g id="Group_983" data-name="Group 983" transform="translate(178.588 121.814)">
    <path id="Path_2011" data-name="Path 2011" d="M-452.646-44.637a10.2,10.2,0,0,1-4.134-.833,11.114,11.114,0,0,1-4.071-3.258A7.183,7.183,0,0,0-463.1-50.69c-1.776-.88-4.171-.784-7.116.3a2.76,2.76,0,0,1-3.531-1.64,2.757,2.757,0,0,1,1.638-3.533c4.422-1.616,8.28-1.633,11.465-.051a12.3,12.3,0,0,1,3.942,3.278,6.04,6.04,0,0,0,2.129,1.829c1.727.753,4.191.364,7.323-1.158a2.749,2.749,0,0,1,3.68,1.267,2.751,2.751,0,0,1-1.269,3.68A18.08,18.08,0,0,1-452.646-44.637Z" transform="translate(473.911 56.793)" fill="#4a6c8f"/>
  </g>
  <path id="Path_2012" data-name="Path 2012" d="M-512.552,7.268A11.724,11.724,0,0,1-524.275,18.99,11.724,11.724,0,0,1-536,7.268,11.724,11.724,0,0,1-524.275-4.455,11.724,11.724,0,0,1-512.552,7.268Z" transform="translate(576.609 242.581)" fill="#81a8d4"/>
  <circle id="Ellipse_114" data-name="Ellipse 114" cx="6.538" cy="6.538" r="6.538" transform="translate(224.713 243.347)" fill="#2b3c42"/>
  <path id="Path_2013" data-name="Path 2013" d="M-445.181-7.933a8.951,8.951,0,0,1-3.44,2.065,9.126,9.126,0,0,1-5.5,0q-3.7-14.281-7.4-28.559a14.584,14.584,0,0,1,4.3-1.72,14.642,14.642,0,0,1,5.5-.173Q-448.449-22.127-445.181-7.933Z" transform="translate(667.64 203.409)" fill="#2b3c42"/>
  <path id="Path_2014" data-name="Path 2014" d="M-457.627-45.466a17.492,17.492,0,0,0,2.236-2.925c1.04-1.711,1.813-2.982,1.376-4.214a3.117,3.117,0,0,0-1.633-1.636c-2.267-.553-4.1-.949-5.334-1.2a58.58,58.58,0,0,1-7.225-1.72c-.933-.3-1.682-.589-2.151-.773q-1.507-.6-3.011-1.2a5.476,5.476,0,0,0-3.182,2.925,5.294,5.294,0,0,0-.258,3.269q1.033.73,2.065,1.462a5.047,5.047,0,0,0,2.065,1.549c1.311.511,2.489.271,4.129-.087a16.53,16.53,0,0,0,4.042-1.462l1.893.86q-.647,1.073-1.291,2.151a12.322,12.322,0,0,1-2.065.687c-.438.1-.773.156-.947.431-.256.407.024,1.011.173,1.289l2.667.431.516.86a9.68,9.68,0,0,0,3.353.087A9.588,9.588,0,0,0-457.627-45.466Z" transform="translate(648.775 175.736)" fill="#fcb6a1"/>
  <path id="Path_2015" data-name="Path 2015" d="M-467.917-56.9a10.687,10.687,0,0,1,3.958.86,3.563,3.563,0,0,1,1.376.86c.862,1,.68,2.422.518,3.7a9.169,9.169,0,0,1-1.033,3.185c-.518.953-1.367,2.52-2.322,2.407-.531-.062-.907-.62-1.118-1.031a5.5,5.5,0,0,0,1.2-2.322,4.712,4.712,0,0,0-.689-4.042,4.2,4.2,0,0,0-2.236-1.378C-468.146-55.406-468.03-56.153-467.917-56.9Z" transform="translate(659.407 178.48)" fill="#fcb6a1"/>
  <path id="Path_2016" data-name="Path 2016" d="M-495.861-89.992a20.266,20.266,0,0,0-9.634,7.569,19.849,19.849,0,0,0-3.1,7.914,73.58,73.58,0,0,0,8.258,20.645,73.867,73.867,0,0,0,18.581,20.99c3.665,2.82,8.318,7.218,15.483,11.354a87.423,87.423,0,0,0,26.61,9.978,12.32,12.32,0,0,0,4.818-4.587,12.211,12.211,0,0,0,1.6-4.818A132.986,132.986,0,0,1-450.786-31.5,129.179,129.179,0,0,1-479-58.682,121.169,121.169,0,0,1-495.861-89.992Z" transform="translate(610.106 138.028)" fill="#6b46b2"/>
  <path id="Path_2017" data-name="Path 2017" d="M-471.943-38.335a50.672,50.672,0,0,1-11.241-5.5c-16.074-10.532-21.605-27.435-23.4-34.179a102.21,102.21,0,0,0,16.056,23.628A102.033,102.033,0,0,0-471.943-38.335Z" transform="translate(612.567 152.663)" fill="#3f2189"/>
  <path id="Path_2018" data-name="Path 2018" d="M-479.34-54.036A109.981,109.981,0,0,1-489.2-65.964a110.132,110.132,0,0,1-9.636-16.287,92.181,92.181,0,0,1,8.489,9.634A92.651,92.651,0,0,1-479.34-54.036Z" transform="translate(622.029 147.49)" fill="#3f2189"/>
  <path id="Path_2019" data-name="Path 2019" d="M-423-12.267l.858.68a23.8,23.8,0,0,1,2.365,2q.723.71,1.6,1.562c.531.616,1.107,1.278,1.72,1.989a32.728,32.728,0,0,1,3.536,5.245,38.67,38.67,0,0,1,2.94,6.927,36.043,36.043,0,0,1,1.558,8.3,35.531,35.531,0,0,1-.522,9.054,35.124,35.124,0,0,1-2.889,8.929,19.752,19.752,0,0,1-1.1,2.122l-1.167,1.96a39.89,39.89,0,0,1-2.856,3.782,33.91,33.91,0,0,1-6.723,6.087,32.887,32.887,0,0,1-7.445,3.987,38.871,38.871,0,0,1-7.238,2.069c-1.149.18-2.256.329-3.307.438l-3,.091a39.16,39.16,0,0,1-4.836-.384,23.024,23.024,0,0,1-3.049-.591l-1.067-.244,1.091.1c.713.049,1.745.2,3.071.2a38.71,38.71,0,0,0,4.747-.107,52.026,52.026,0,0,0,6.027-1.02,37.05,37.05,0,0,0,6.767-2.4,36.855,36.855,0,0,0,6.811-4.1A34.657,34.657,0,0,0-419,38.569a37.834,37.834,0,0,0,2.558-3.445l1.14-1.96a18.487,18.487,0,0,0,.976-1.931,35.682,35.682,0,0,0,3.478-16.676,41.243,41.243,0,0,0-1.067-7.887A37.12,37.12,0,0,0-414.306-.1a45.357,45.357,0,0,0-2.98-5.336q-.79-1.127-1.473-2.1-.763-.913-1.4-1.671c-.818-1.038-1.62-1.738-2.091-2.271Z" transform="translate(677.291 233.033)" fill="#dbe8ed"/>
</svg>
