<svg id="Group_996" data-name="Group 996" xmlns="http://www.w3.org/2000/svg" width="100.993" height="302.047" viewBox="0 0 100.993 302.047">
  <path id="Path_2086" data-name="Path 2086" d="M-1003.109-52.039s-9.169,50.113-7.407,51.631,23.274,3.645,23.274,3.645L-989-60.542Z" transform="translate(1021.236 174.096)" fill="#4c4152"/>
  <path id="Path_2087" data-name="Path 2087" d="M-982.983,17.478l-.375,15.107h6.942l.018-1.438,4.485,1.438h18.2l-1.371-4.1c-3.923-.276-15.132-3.871-16.228-6.349-.678-1.536-4.354-3.687-4.354-3.687Z" transform="translate(1054.706 269.462)" fill="#2f3b4f"/>
  <path id="Path_2088" data-name="Path 2088" d="M-984.5,17.478l.218,15.107h-3.14l-.011-1.438-.813,1.438h-13.276l.8-4.1c2.282-.276,6.563-4.6,7.2-7.085.4-1.533,4.769-2.951,4.769-2.951Z" transform="translate(1032.504 269.462)" fill="#2f3b4f"/>
  <path id="Path_2089" data-name="Path 2089" d="M-1002.406-42.635s-1.451,60.649-1.4,66.114c.18,16.9,11.021,88.617,11.021,88.617l11.447,2.1,2.591-124.79,5.531,46.82,14.507,77.806,13.456-4.02L-956.827-53.729Z" transform="translate(1029.717 182.424)" fill="#6b46b2"/>
  <path id="Path_2090" data-name="Path 2090" d="M-917.962-46.6s-12.4-28.67-15.318-32.359a22.9,22.9,0,0,0-9.849-6.767c-15.423-5.362-34.406-4.149-45.207-.431-2.707.933-10.356,4.8-12.674,9.185-1.976,3.731-14.454,33.91-14.454,33.91l25.21,5.931s-1.993,40.5-.676,45.911c.649,2.66,15.663,2.682,21.145,2.093,9.872-1.064,19.494-9.325,23.9-10.058,4.6-.767,5.76,1.667,5.76,1.667l-1.789-39.337Z" transform="translate(1015.464 138.875)" fill="#ffb3c1"/>
  <path id="Path_2091" data-name="Path 2091" d="M-959.01-88.2l-46.362,67.3.6,6.7,49.678-72.783A26.906,26.906,0,0,0-959.01-88.2Z" transform="translate(1027.799 140.292)" fill="#4c4152"/>
  <g id="Group_994" data-name="Group 994" transform="translate(34.608 6.582)">
    <path id="Path_2092" data-name="Path 2092" d="M-995.09-96.279c.862.389.326,12.563-2.4,17.912,6.242,5.46,13.414,4.6,19.645.118a92.286,92.286,0,0,1-2.182-18.845Z" transform="translate(1002.826 122.835)" fill="#f79e86"/>
    <path id="Path_2093" data-name="Path 2093" d="M-980.807-88.93c-.253-2.631-.456-5.327-.54-8.165l-15.063.816c.455.2.511,3.72.066,7.771a19.182,19.182,0,0,0,5.14,4.325c.853.382,4.749.651,5.758.129A12.843,12.843,0,0,0-980.807-88.93Z" transform="translate(1004.146 122.835)" fill="#edb1a1" style="mix-blend-mode: multiply;isolation: isolate"/>
    <path id="Path_2094" data-name="Path 2094" d="M-997.9-93.576s1.9,12.6,2.6,13.938,5.2,6.963,6.285,7.525,6.294.824,7.094-.049c.351-.382,4.923-5.542,5.3-7.734.947-5.549,2.229-15.707,2.114-16.592-.2-1.569.211-11.152-5.471-11.943s-16.879.349-17.89,2.887S-997.9-93.576-997.9-93.576Z" transform="translate(1001.798 108.678)" fill="#f79e86"/>
    <path id="Path_2095" data-name="Path 2095" d="M-993.346-91.647s-6.052-.229-6.36-3.545-.4-6.874,1.087-7.4,4.718,2.413,4.718,2.413Z" transform="translate(999.891 116.042)" fill="#f79e86"/>
    <path id="Path_2096" data-name="Path 2096" d="M-988.85-91.447s6.052-.229,6.358-3.545.4-6.874-1.084-7.4-4.718,2.413-4.718,2.413Z" transform="translate(1013.387 116.287)" fill="#f79e86"/>
  </g>
  <rect id="Rectangle_504" data-name="Rectangle 504" width="11.776" height="22.659" transform="translate(45.875 82.632)" fill="#658fab"/>
  <path id="Path_2097" data-name="Path 2097" d="M-974.081-66.875l-21.97,9.38.547-6.569-15.483-3.658s-3.718,30.055-.7,32.573c4.129,3.44,44.013-25.692,44.013-25.692Z" transform="translate(1018.638 165.32)" fill="#f79e86"/>
  <path id="Path_2098" data-name="Path 2098" d="M-962.511-68.939l.555,15.474-18.167,44.9a31.848,31.848,0,0,1-4.118-12.961l7.334-30.126-1.447-10.9Z" transform="translate(1053.628 163.833)" fill="#f79e86"/>
  <path id="Path_2099" data-name="Path 2099" d="M-995.324-87.171s-5.814-12.963-4.529-15.761c.651-1.411,4.98-1.347,4.98-1.347s16.589-11.612,21.961-5.667.1,21.632.1,21.632-3.66-10.052-5.592-10.763c-1.827-.673-12.885-.229-13.916,1.016S-995.324-87.171-995.324-87.171Z" transform="translate(1034.319 111.639)" fill="#4b525e"/>
  <g id="Group_995" data-name="Group 995" transform="translate(72.278 157.223)" style="mix-blend-mode: multiply;isolation: isolate">
    <path id="Path_2100" data-name="Path 2100" d="M-972.615,93.91a.425.425,0,0,1-.422-.389l-6.358-74.512-3.545-59.452a.423.423,0,0,1,.4-.449.435.435,0,0,1,.451.4l3.545,59.44,6.356,74.5a.423.423,0,0,1-.387.458Z" transform="translate(982.94 40.892)" fill="#e1dce3"/>
  </g>
  <path id="Path_2101" data-name="Path 2101" d="M-996.464-56.693c-.082.227,4.638,4.309,4.638,4.309s13.563-4.7,13.807-5.078a11.769,11.769,0,0,0,.364-2.591l-1.782-.164,2.169-2.14-.029-2.26-1.553.633,1.5-2.969-.855-2.18-1.9.891.665-3.238-1.311-1.438s-1.8,4.591-2.291,5.042-9.381,3.9-9.381,3.9l-.089-7.889a6.024,6.024,0,0,0-1.722.987c-.642.613-.8,1.787-1.378,3.818s-.993,3.816-.993,3.816Z" transform="translate(1038.514 158.969)" fill="#f79e86"/>
</svg>
