<svg id="Group_969" data-name="Group 969" xmlns="http://www.w3.org/2000/svg" width="69.686" height="274.687" viewBox="0 0 69.686 274.687">
  <path id="Path_1806" data-name="Path 1806" d="M-530.505-253.19a26.153,26.153,0,0,1,3.176,4.567,26.108,26.108,0,0,1,2.394,6.1q5.3,14.941,10.609,29.886c1.2,3.349,2.338,6.876,3.391,10.58a170.825,170.825,0,0,1,5.8,31.064,3.285,3.285,0,0,1-1.956,1.407,3.4,3.4,0,0,1-2.871-.731c-2.351-5.745-4.671-11.967-6.86-18.65-2.118-6.478-3.88-12.681-5.349-18.539-3.711-9.358-6.8-16.521-8.967-21.416-1.813-4.085-3.356-7.42-3.28-12.089A23.385,23.385,0,0,1-530.505-253.19Z" transform="translate(572.228 302.225)" fill="#fcb6a1"/>
  <path id="Path_1807" data-name="Path 1807" d="M-518.625-217.087c.36.76.856,1.858,1.371,3.211a18.569,18.569,0,0,1,1.531,5.38,17.086,17.086,0,0,1-.267,4.191,5.239,5.239,0,0,1-.444,1.6,4.929,4.929,0,0,1-.873,1.285,1.6,1.6,0,0,1-.376,1.185,1.61,1.61,0,0,1-1.067.54c-.424.8-.913,1.309-1.211,1.213-.342-.107-.371-1-.373-1.073a2.8,2.8,0,0,1,.211-1.093,6.346,6.346,0,0,0,.242-2.6,7.833,7.833,0,0,0-.691-2.9l-1.013-2.64c-.051.733-.084,1.338-.1,1.76-.082,1.627-.067,2.18-.489,2.693-.249.3-.707.662-.984.538-.382-.176-.227-1.2-.158-2.085.158-2.065-.247-2.385-.336-4.671a22.274,22.274,0,0,1,.547-5.7Z" transform="translate(585.364 346.354)" fill="#fcb6a1"/>
  <path id="Path_1808" data-name="Path 1808" d="M-540.674-271.254c-2.678.933-3.836,4.056-4.571,6.038-3.122,8.4,2.4,16.287,2.927,17.01.947,1.307,5.787,7.991,10.607,6.951,5.04-1.087,7.847-10.14,6.22-17.012C-527.375-266.229-535.627-273.012-540.674-271.254Z" transform="translate(557.831 279.803)" fill="#3f424a"/>
  <path id="Path_1809" data-name="Path 1809" d="M-530.911-153.69c.507.433,1.282,1.085,2.26,1.847,2.549,1.984,4.047,2.836,3.869,3.336-.1.3-.738.318-1.307.329-1.6.038-3.382-.413-7.376-2.582-.573-.311-1.025-.567-1.251-.7.007-.4.027-.82.062-1.256.053-.682.138-1.316.24-1.9Q-532.66-154.152-530.911-153.69Z" transform="translate(571.863 422.719)" fill="#b01f60"/>
  <path id="Path_1810" data-name="Path 1810" d="M-518.958-182.639q-3.76,32.431-7.516,64.863,3.92,3.107,3.631,3.56-.367.58-7.552-3.133a145.487,145.487,0,0,1-7.5-46.289,142.921,142.921,0,0,1,1.445-19.9Z" transform="translate(567.977 387.363)" fill="#fcb6a1"/>
  <path id="Path_1811" data-name="Path 1811" d="M-544.216-153.693c.384.544.978,1.367,1.738,2.345,1.984,2.551,3.227,3.742,2.931,4.185-.173.26-.791.127-1.347,0-1.558-.356-3.178-1.229-6.518-4.311-.478-.442-.853-.8-1.042-.982.107-.387.227-.787.369-1.2.22-.647.458-1.242.7-1.782Q-545.8-154.567-544.216-153.693Z" transform="translate(555.07 421.702)" fill="#b01f60"/>
  <path id="Path_1812" data-name="Path 1812" d="M-520.8-178.979q-11.6,30.518-23.2,61.038,3.04,3.97,2.649,4.342-.5.473-6.553-4.891a145.578,145.578,0,0,1,4.084-46.713,143.077,143.077,0,0,1,6.283-18.936Z" transform="translate(555.253 386.627)" fill="#fcb6a1"/>
  <path id="Path_1813" data-name="Path 1813" d="M-514.135-251.029a43.82,43.82,0,0,0-18.05-3.678,43.7,43.7,0,0,0-14.921,2.829l.958,20.056L-542-208.9c.171,5.309.131,11.1-.245,17.316-.353,5.869-.96,11.334-1.707,16.341a147.541,147.541,0,0,0,22.583-1.1c3.907-.493,7.6-1.12,11.072-1.829-.113-5.418-.056-11.2.245-17.316.3-6.134.816-11.918,1.464-17.316a17.818,17.818,0,0,0,3.169-10c-.082-4.442-2.145-7.2-4.145-11.463A52.051,52.051,0,0,1-514.135-251.029Z" transform="translate(556.719 300.367)" fill="#6b46b2"/>
  <path id="Path_1814" data-name="Path 1814" d="M-509.164-228.5c1.967,12.181,3.571,25.126,4.634,38.777a477.1,477.1,0,0,1-2.682,99.262,43.127,43.127,0,0,1-17.072,3.9A43.919,43.919,0,0,1-548.4-93.408q2.234-18.187,4.467-36.37A232.755,232.755,0,0,1-549-173.771c-.229-13.056.791-20.641,3.418-28.257a67.657,67.657,0,0,1,8.4-16.532Q-523.173-223.53-509.164-228.5Z" transform="translate(554.369 332.407)" fill="#6b46b2"/>
  <path id="Path_1815" data-name="Path 1815" d="M-528.091-258.393q.01,7.234.022,14.472a21.481,21.481,0,0,0-2.287,12.132,21.993,21.993,0,0,0,7.56,14.023,31.68,31.68,0,0,0-3.413-12.314A33,33,0,0,0-541.7-244.655q-.183-8.98-.371-17.963Z" transform="translate(562.877 290.701)" fill="#fcab92"/>
  <path id="Path_1816" data-name="Path 1816" d="M-519.522-269.045a92.285,92.285,0,0,1,1.616,13.365c.124,2.682.127,5.22.04,7.6a15.142,15.142,0,0,1-2.742,5.482,15.354,15.354,0,0,1-6.7,4.838,21.4,21.4,0,0,1-7.785-2.938,21.5,21.5,0,0,1-7.051-7.2,57.5,57.5,0,0,1-1.029-7.2,57.582,57.582,0,0,1,.589-13.807,21.03,21.03,0,0,1,8.225-3.231A22.144,22.144,0,0,1-519.522-269.045Z" transform="translate(561.314 278.758)" fill="#fcb6a1"/>
  <path id="Path_1817" data-name="Path 1817" d="M-543.137-252.254a64.471,64.471,0,0,0,12.072-4.451,64.611,64.611,0,0,0,12.974-8.378q.933,3.367,1.842,6.791.463,1.743.916,3.476a7.432,7.432,0,0,0,4.127-4.009c1.189-3.347-.856-7.88-5.407-10.2a15.7,15.7,0,0,0-6.291-5.029c-5.742-2.469-12.132-.86-16.361,2.287-1.362,1.016-5.589,4.162-6.309,9.876A14.241,14.241,0,0,0-543.137-252.254Z" transform="translate(558.464 275.255)" fill="#3f424a"/>
  <path id="Path_1818" data-name="Path 1818" d="M-535.927-267.9c-1.642-.94-5.907-3.067-9.694-1.462-6.011,2.545-6.451,12.632-4.391,18.841.616,1.849,2.931,8.694,7.682,8.778,3.109.058,6.3-2.8,7.8-7.071a38.119,38.119,0,0,1-1.22-4.513A39.265,39.265,0,0,1-535.927-267.9Z" transform="translate(551.804 281.75)" fill="#3f424a"/>
  <path id="Path_1819" data-name="Path 1819" d="M-504.673-217.791a67.493,67.493,0,0,1-5.611,7.316c-12.572,14.254-28.541,20.105-38.777,22.681a26.857,26.857,0,0,1-1.218-6.829c-.507-11.047,6.1-19.219,8.536-21.95a3.217,3.217,0,0,1,0-3.413,3.375,3.375,0,0,1,2.682-1.462,69.035,69.035,0,0,0,13.17.973,69.362,69.362,0,0,0,20-3.414,4.3,4.3,0,0,1,1.951,2.682A4.329,4.329,0,0,1-504.673-217.791Z" transform="translate(552.805 338.04)" fill="#f9716e"/>
  <path id="Path_1820" data-name="Path 1820" d="M-541.881-253.444a25.961,25.961,0,0,0-2.22,5.1,26.445,26.445,0,0,0-1.14,6.245l-.013.209c-.229,4.24-4.047,15.661-5.618,26.468-.989,6.789-.453,8.947,0,10.243,1.34,3.851,4.056,6.209,7.071,8.536a116.209,116.209,0,0,0,20.243,12.438,5.389,5.389,0,0,0,2.682-2.2,5.187,5.187,0,0,0,.731-2.193c-3.978-3.462-8.176-7.429-12.438-11.952-3.544-3.762-6.7-7.449-9.511-10.974a107.372,107.372,0,0,0,5.582-18.245c1.556-7.411,1.325-10.3.849-12.5A23.378,23.378,0,0,0-541.881-253.444Z" transform="translate(551.431 301.915)" fill="#fcb6a1"/>
  <path id="Path_1821" data-name="Path 1821" d="M-539.957-220.814c.591.6,1.453,1.438,2.551,2.385a18.586,18.586,0,0,0,4.534,3.276,17.045,17.045,0,0,0,4.029,1.18,5.249,5.249,0,0,0,1.66.131,5.018,5.018,0,0,0,1.507-.382,1.613,1.613,0,0,0,1.242.051,1.613,1.613,0,0,0,.871-.818c.9-.124,1.542-.413,1.556-.724.013-.36-.813-.689-.882-.718a2.781,2.781,0,0,0-1.1-.173,6.374,6.374,0,0,1-2.527-.662,7.82,7.82,0,0,1-2.491-1.64l-2.134-1.853c.7.2,1.285.378,1.689.5,1.556.48,2.071.682,2.7.46.369-.129.865-.438.842-.74-.033-.422-1.049-.622-1.907-.862-1.993-.556-2.156-1.047-4.274-1.909a22.234,22.234,0,0,0-5.551-1.433Z" transform="translate(565.457 336.994)" fill="#fcb6a1"/>
</svg>
