<svg id="Group_1044" data-name="Group 1044" xmlns="http://www.w3.org/2000/svg" width="661.95" height="346.411" viewBox="0 0 661.95 346.411">
  <path id="Path_2248" data-name="Path 2248" d="M-1083.022,195.974l-596.757-.176s-77.226-96.144-41.666-187.624c38.335-98.629,128.243-92.7,202.88-92.309.849,0,1.7.009,2.547.011q1.547.007,3.08.007,2.2,0,4.367-.009l1.513-.007q.917-.01,1.829-.016c34.573-.327,64.759-3.42,83.324-21.2a144.342,144.342,0,0,1,39.662-26.508q1.663-.767,3.345-1.5c22.114-9.632,47.2-15.1,73.045-16.636q2.81-.17,5.632-.271c108.878-4.04,228.21,61.065,193.74,179.423C-1130.346,111.1-1033.86,114.075-1083.022,195.974Z" transform="translate(1730.805 150.437)" fill="#fcecdb"/>
  <g id="Group_1033" data-name="Group 1033" transform="translate(226.996 69.702)">
    <g id="Group_1031" data-name="Group 1031" transform="translate(121.945 0.134)">
      <path id="Path_2249" data-name="Path 2249" d="M-1524.2-96.16l2.049,11.752c-1.671,3.222-3.531,6.52-5.6,9.867A154.515,154.515,0,0,1-1554.406-42.3a8.9,8.9,0,0,1-7-2.176,8.672,8.672,0,0,1-2.649-5.447A143.761,143.761,0,0,0-1553.54-63.03a144.05,144.05,0,0,0,14.314-25.214,25.332,25.332,0,0,1,5.836-4.7A25.543,25.543,0,0,1-1524.2-96.16Z" transform="translate(1585.686 146.944)" fill="#626938"/>
      <path id="Path_2250" data-name="Path 2250" d="M-1560.853-77.653a4.468,4.468,0,0,0-2.584,1.809,4.026,4.026,0,0,0-.689,2.411,4.444,4.444,0,0,0,1.033,2.411c2.211,3,4.258,5.78,4.651,5.511.12-.082.107-.46-.518-1.809-.013-.9-.066-1.845-.171-2.84A32.2,32.2,0,0,0-1560.853-77.653Z" transform="translate(1585.592 169.565)" fill="#fcb6a1"/>
      <path id="Path_2251" data-name="Path 2251" d="M-1521.626-2.819l2.027,2.453a5.319,5.319,0,0,1,2.5,1.307,5.273,5.273,0,0,1,1.238,1.767,25.96,25.96,0,0,1-2.651,4.451,26.606,26.606,0,0,1-7.847,7.043,30.232,30.232,0,0,1-3.507.247,29.959,29.959,0,0,1-4.282-.253,4.879,4.879,0,0,1,1.493-2.516c1.7-1.44,3.7-.669,5.469-1.313,1.578-.576,3.322-2.4,4.276-7.718q-1.21-1.4-2.423-2.8Z" transform="translate(1622.245 261.036)" fill="#35454f"/>
      <path id="Path_2252" data-name="Path 2252" d="M-1553.047-51.366c.142,2.651.42,6.469,1.033,11.023,1.338,9.918,4.5,25.177,18.256,53.047a378.576,378.576,0,0,0,28.935,48.913,7.449,7.449,0,0,0,5.511-.689,7.444,7.444,0,0,0,3.444-4.478c-2.524-6.529-5.38-13.323-8.611-20.323-5.131-11.116-10.507-21.219-15.845-30.312-1.044-3.978-1.984-8.231-2.756-12.745a149.7,149.7,0,0,1-1.722-35.824Z" transform="translate(1599.143 201.696)" fill="#f9716e"/>
      <path id="Path_2253" data-name="Path 2253" d="M-1496.005-48.306a148.588,148.588,0,0,1-6.545,23.079,149.984,149.984,0,0,1-21.356,38.579,143.89,143.89,0,0,1-8.956,23.423,145.116,145.116,0,0,1-23.421,34.446,11.988,11.988,0,0,1-6.889-1.378,11.862,11.862,0,0,1-4.134-3.789,251.5,251.5,0,0,0,15.845-27.212c8.192-16.343,12.538-29.472,16.188-40.646a382.756,382.756,0,0,0,12.4-48.569,25.567,25.567,0,0,1,14.812-2.756A25.411,25.411,0,0,1-1496.005-48.306Z" transform="translate(1581.714 199.325)" fill="#f9716e"/>
      <path id="Path_2254" data-name="Path 2254" d="M-1533.821-31.3l-8.345-.344a81.85,81.85,0,0,1-5.389-7.4,81.681,81.681,0,0,1-5.738-10.507q.61-1.633,1.218-3.271c5.216-.489,10.854-.809,16.863-.862a199.907,199.907,0,0,1,22.079,1.033q-.087,2.67-.173,5.34Z" transform="translate(1598.842 198.85)" fill="#f9716e"/>
      <path id="Path_2255" data-name="Path 2255" d="M-1505.788-90.727a42.981,42.981,0,0,0-17.223-5.511,43.878,43.878,0,0,0-25.488,5.511q-1.12,14.5-2.069,29.279-2,31.2-3.1,61.314a65.655,65.655,0,0,0,12.4,2.756A68.107,68.107,0,0,0-1510.61-.823q-.193-10.957,0-22.39A633.392,633.392,0,0,1-1505.788-90.727Z" transform="translate(1598.386 146.613)" fill="#6b46b2"/>
      <path id="Path_2256" data-name="Path 2256" d="M-1544.856-60.029a25.65,25.65,0,0,1,.689-7.234c2.625-10.794,11.636-16.59,14.467-18.256Q-1537.277-72.772-1544.856-60.029Z" transform="translate(1609.122 159.95)" fill="#3f2189"/>
      <path id="Path_2257" data-name="Path 2257" d="M-1551.381-44.7a27.466,27.466,0,0,0,8.727,5.282,27.368,27.368,0,0,0,7.118,1.607q.917-2.987,1.838-5.971a12.333,12.333,0,0,0,5.511-.229c4.589-1.3,7.063-5.129,8.5-7.349,6.649-10.3,8.091-30.015,8.267-32.608a283.023,283.023,0,0,1-19.75,21.357C-1538.131-55.823-1544.943-49.879-1551.381-44.7Z" transform="translate(1601.179 161.845)" fill="#3f2189"/>
      <path id="Path_2258" data-name="Path 2258" d="M-1552.836,8.763l-1.378,1.722a9.821,9.821,0,0,1-.776,2.327,9.766,9.766,0,0,1-1.809,2.582,7.507,7.507,0,0,1-2.842-.776,7.553,7.553,0,0,1-2.325-1.807,20.214,20.214,0,0,1-7.318-4.478c-1.476-1.422-4.843-4.662-4.478-8.527.015-.167.233-2.311,1.118-2.5,1-.211,2.134,2.251,3.187,3.789,1.54,2.247,4.558,4.914,11.109,6.371q.516-.73,1.033-1.465l-1.033-2.067a16.843,16.843,0,0,1,4.3,1.465,16.845,16.845,0,0,1,4.736,3.531Z" transform="translate(1573.789 261.18)" fill="#35454f"/>
      <path id="Path_2259" data-name="Path 2259" d="M-1530.037-90.446q-.013-5.9-.029-11.8l-16.074,1.609q.044,5.654.087,11.309,1.937.86,3.873,1.722Q-1536.109-89.027-1530.037-90.446Z" transform="translate(1607.585 139.507)" fill="#fcab92"/>
      <path id="Path_2260" data-name="Path 2260" d="M-1527.086-97.97q1.29,2.41,2.583,4.82-5.554,3.017-11.11,6.029-2.883-2.67-5.769-5.338-1.807,2.41-3.616,4.822l-2.584-4.478q1.107-2.07,2.211-4.134l.918-.289q1.58,1.61,3.158,3.216l13.147-4.88Z" transform="translate(1605.822 144.449)" fill="#3f2189"/>
      <path id="Path_2261" data-name="Path 2261" d="M-1547.232-110.591a88.248,88.248,0,0,0-1.66,13.243c-.129,2.656-.129,5.171-.042,7.529a14.814,14.814,0,0,0,2.815,5.431,15.748,15.748,0,0,0,6.878,4.791,22.452,22.452,0,0,0,7.991-2.909,21.657,21.657,0,0,0,7.236-7.131,54.591,54.591,0,0,0,1.056-7.129,54.994,54.994,0,0,0-.6-13.678,22.06,22.06,0,0,0-8.445-3.2A23.379,23.379,0,0,0-1547.232-110.591Z" transform="translate(1604.095 125.255)" fill="#fcb6a1"/>
      <path id="Path_2262" data-name="Path 2262" d="M-1564.711-82.085a37.752,37.752,0,0,1,13.778-7.923c13.354-4.225,24.923.553,28.246,2.067a142.291,142.291,0,0,1,2.412,15.5,144.36,144.36,0,0,1-1.378,38.579,43.343,43.343,0,0,1-13.778,4.478,45.031,45.031,0,0,1-25.834-4.134q1.723-5.34,3.445-10.678Q-1561.265-63.138-1564.711-82.085Z" transform="translate(1584.886 152.382)" fill="#f2e3c7"/>
      <path id="Path_2263" data-name="Path 2263" d="M-1557.318-73.12c-1.033-1.438-2.525-3.613-4.134-6.371-3.627-6.218-9.076-15.241-6.545-18.083,1.151-1.3,3.569-.878,4.649-.691,10.778,1.867,16.336,18.439,17.223,21.185a19.648,19.648,0,0,1-3.789,2.238A19.957,19.957,0,0,1-1557.318-73.12Z" transform="translate(1580.077 144.107)" fill="#e8a274"/>
      <path id="Path_2264" data-name="Path 2264" d="M-1554.331-82.7a5.694,5.694,0,0,0,1.607-3.558c.06-2.218-1.609-3.86-.918-4.709.5-.613,1.582-.011,2.3-.8.656-.727.245-1.789.689-1.953.527-.193,1.069,1.318,2.182,1.378,1.047.058,1.507-1.231,2.3-1.033.744.189.5,1.382,1.493,1.953.936.54,1.813-.151,2.411.458.478.491.1,1.124.573,1.493.584.453,1.389-.32,2.067.116.627.4.264,1.276.918,1.722s1.413-.187,1.838.229-.251,1.153,0,2.411c.224,1.129.94,1.376.8,1.951-.169.711-1.418,1.011-2.871,1.264a28.9,28.9,0,0,1-5.627.573,68.62,68.62,0,0,0-10.218.344Z" transform="translate(1597.011 149.9)" fill="#97bd37"/>
      <path id="Path_2265" data-name="Path 2265" d="M-1560.561-80.577q-.09-1.393-.116-2.871a61.805,61.805,0,0,1,.46-8.611,32.162,32.162,0,0,1,3.9-.458,33.015,33.015,0,0,1,12.054,1.607,20.314,20.314,0,0,0-1.147,4.478,20.148,20.148,0,0,0-.115,4.478c-1.707.36-3.547.678-5.511.918A64.772,64.772,0,0,1-1560.561-80.577Z" transform="translate(1589.807 151.335)" fill="#7a2950"/>
      <path id="Path_2266" data-name="Path 2266" d="M-1519.287-94.741c1.651.353,6.167,1.545,8.1,5.338,1.489,2.933.727,6.02.047,8.438a106.97,106.97,0,0,1-11.243,26.352,140.793,140.793,0,0,1-11.367,15.156,10.077,10.077,0,0,1-7.4-.516,10.449,10.449,0,0,1-5.34-7.407,86.351,86.351,0,0,0,7.063-9.645,87.835,87.835,0,0,0,10.858-25.457Q-1523.931-88.611-1519.287-94.741Z" transform="translate(1607.146 148.678)" fill="#6b46b2"/>
      <path id="Path_2267" data-name="Path 2267" d="M-1548.285-102.678a8.475,8.475,0,0,1-.46-2.869c.078-4.5,3.909-7.591,5.74-9.072,4.378-3.533,9.794-4.865,10.1-4.247.109.213-.318.816-2.985,2.64a13.386,13.386,0,0,1,5.509-1.493c3.758-.167,7.551,1.333,7.465,2.067-.029.242-.493.516-2.3.689a11.239,11.239,0,0,1,3.676,1.722c2.782,2,4.571,5.311,4.018,5.856-.176.173-.673.149-2.067-.689a11.7,11.7,0,0,1,2.3,3.56c1.2,2.922,1.309,6.707.231,7.118-.289.109-.767.02-1.609-.8a4.449,4.449,0,0,1,.115,1.838,5.572,5.572,0,0,1-2.985,3.789l-2.3.229a15.647,15.647,0,0,0-.458-4.707,15.991,15.991,0,0,0-3.674-6.774c-1.276-.2-2.618-.36-4.02-.46A49.215,49.215,0,0,0-1548.285-102.678Z" transform="translate(1604.399 119.012)" fill="#3f424a"/>
      <path id="Path_2268" data-name="Path 2268" d="M-1537.281-107.116a3.644,3.644,0,0,1,3.674-.116,3.733,3.733,0,0,1,1.606,3.673c-.284,2.118-2.653,3.982-5.856,4.134Z" transform="translate(1617.71 132.87)" fill="#fcb6a1"/>
      <path id="Path_2269" data-name="Path 2269" d="M-1548.405-73.588q-.43-.517-.862-1.033a3.96,3.96,0,0,0,0-2.24c-.331-1.038-.92-1.129-2.067-2.5a11.3,11.3,0,0,1-2.411-4.049c-.2-.664-.32-1.36-.6-1.376s-.573.68-.689,1.118a3.654,3.654,0,0,0,0,1.638,10.586,10.586,0,0,0,.776,2.5c-.9.109-1.851.2-2.842.26-1.525.093-2.965.116-4.3.084q-.51-.43-1.033-.86-.694-.57-1.378-1.12a2.668,2.668,0,0,0-.344,1.12,2.806,2.806,0,0,0,.515,1.807,15,15,0,0,0,.344,2.413,14.9,14.9,0,0,0,1.207,3.358,17.9,17.9,0,0,0,1.636.86,25.723,25.723,0,0,0,4.993,1.551,19.473,19.473,0,0,1,4.823,2.067Q-1549.525-70.79-1548.405-73.588Z" transform="translate(1585.545 160.851)" fill="#fcb6a1"/>
      <path id="Path_2270" data-name="Path 2270" d="M-1516.379-73.111a107.291,107.291,0,0,1-12.4-.689,108.268,108.268,0,0,1-26.179-6.371,5.638,5.638,0,0,0-2.582,2.067,5.968,5.968,0,0,0-.689,4.822,74.509,74.509,0,0,0,9.3,6.716A76.725,76.725,0,0,0-1520-56.232a16.666,16.666,0,0,0,4.134-7.749A16.711,16.711,0,0,0-1516.379-73.111Z" transform="translate(1592.527 166.487)" fill="#6b46b2"/>
      <path id="Path_2271" data-name="Path 2271" d="M-1561.212-81.695l-2.7-4.362a13.821,13.821,0,0,1,2.469-2.3,16.142,16.142,0,0,1,10.907-2.7q1.207,3.677,2.411,7.349c-1.344.309-2.74.6-4.191.862A89.634,89.634,0,0,1-1561.212-81.695Z" transform="translate(1585.865 153.084)" fill="#de4e5a"/>
      <path id="Path_2272" data-name="Path 2272" d="M-1564.168-82.964c.26-2.353.653-3.051,1.033-3.1.524-.067.934,1.131,1.549,1.033.671-.1.671-1.6,1.378-1.722.609-.109.951.938,1.635.862.74-.082.8-1.347,1.551-1.465.74-.116,1.06,1.04,1.98,1.033.865-.007,1.051-1.031,1.9-1.033.94,0,1.225,1.267,2.067,1.2.789-.056.851-1.2,1.807-1.378.789-.149,1.018.571,1.982.518,1.022-.058,1.176-.889,2.067-.862.964.031,1.178,1.022,1.98.949.864-.08.969-1.262,1.893-1.378.727-.091.856.613,1.809.773,1.309.222,1.787-.989,3.013-.773,1.114.193,1.282,1.287,2.154,1.2.824-.078.884-1.076,1.9-1.291.851-.182,1.082.469,1.98.344,1.216-.169,1.462-1.462,2.324-1.378.824.08.987,1.3,1.722,1.291.8-.007,1.053-1.433,1.722-1.378.6.051,1.009,1.262,1.12,1.98a3.852,3.852,0,0,1-.087,1.551,84.331,84.331,0,0,1-28.159,4.22A83.139,83.139,0,0,1-1564.168-82.964Z" transform="translate(1585.55 155.071)" fill="#f2e3c7"/>
    </g>
    <g id="Group_1032" data-name="Group 1032">
      <path id="Path_2273" data-name="Path 2273" d="M-1580.878-.812A5.744,5.744,0,0,1-1579.216,1a5.728,5.728,0,0,1,.755,2.42,13.867,13.867,0,0,1-1.36,3.325c-.729,1.28-2.082,3.66-4.685,4.685-2.064.816-4.514.618-4.687,0-.144-.52,1.411-1.071,2.722-2.267,1.447-1.32,2.887-3.7,3.022-8.314Z" transform="translate(1676.896 263.624)" fill="#5eadc4"/>
      <path id="Path_2274" data-name="Path 2274" d="M-1611.656,2.378a5.283,5.283,0,0,1,.309,2.707,5.313,5.313,0,0,1-1.209,2.645,21.4,21.4,0,0,1-3.4,1.409c-5.814,1.838-12.123,1.062-12.267-.044-.069-.522,1.26-.918,3.96-2.2a62.022,62.022,0,0,0,9.225-5.382Z" transform="translate(1629.195 266.467)" fill="#5eadc4"/>
      <path id="Path_2275" data-name="Path 2275" d="M-1601.931-115.228l-6.123,6.122a104.62,104.62,0,0,0-1.5,14.674,104.582,104.582,0,0,0,.578,14.79l3.351,1.387.114,1.618c.573.084,1.151.16,1.733.231a72.28,72.28,0,0,0,24.728-1.387l.347-1.965a14.19,14.19,0,0,0,2.424-.231,14.343,14.343,0,0,0,2.2-.578c.1-.873.207-2.153.231-3.7a39.453,39.453,0,0,0-3.12-16.292C-1580.608-108.174-1590.382-113.783-1601.931-115.228Z" transform="translate(1651.951 123.771)" fill="#0a0b0c"/>
      <path id="Path_2276" data-name="Path 2276" d="M-1620.648-78.287a4.576,4.576,0,0,0-2.658,1.86,4.136,4.136,0,0,0-.709,2.478,4.535,4.535,0,0,0,1.064,2.48c2.274,3.087,4.378,5.945,4.78,5.667.125-.082.111-.471-.531-1.858-.013-.922-.069-1.9-.176-2.922A33.145,33.145,0,0,0-1620.648-78.287Z" transform="translate(1634.333 168.925)" fill="#fcb6a1"/>
      <path id="Path_2277" data-name="Path 2277" d="M-1610.379-51.459c.145,2.727.431,6.651,1.062,11.336.658,4.871,3.578,24.666,18.774,54.549A271.838,271.838,0,0,0-1557.505,64.6a15.447,15.447,0,0,1-.509,2.576c-.638,2.207-1.524,3.4-1.36,3.513.209.144,1.88-1.62,3.287-3.854a22.457,22.457,0,0,0,2.124-4.36,137.916,137.916,0,0,0-6.471-23.965,138.309,138.309,0,0,0-16.294-31.172c-1.073-4.089-2.042-8.463-2.833-13.105a154,154,0,0,1-1.771-36.839Q-1595.854-47.03-1610.379-51.459Z" transform="translate(1651.01 201.717)" fill="#fcb6a1"/>
      <path id="Path_2278" data-name="Path 2278" d="M-1555.373-51.1a153,153,0,0,1-5.342,24.083,154.22,154.22,0,0,1-19.625,40.88,100.357,100.357,0,0,1-7.8,24.581,102.012,102.012,0,0,1-26.508,34.564,17.119,17.119,0,0,1-6.323,3.245c-2.422.642-5.025.727-5.131.3-.084-.347,1.516-.818,3.951-2.349a27.9,27.9,0,0,0,3.34-2.465c3.038-7.365,7.149-17.645,11.7-30.061,5.271-14.387,10.089-27.115,14.2-42.693a394.175,394.175,0,0,0,9.831-50.6,26.294,26.294,0,0,1,15.043-3.711A26.124,26.124,0,0,1-1555.373-51.1Z" transform="translate(1631.792 196.922)" fill="#fcb6a1"/>
      <path id="Path_2279" data-name="Path 2279" d="M-1564-91.807a37.818,37.818,0,0,0-17.712-5.667,38.787,38.787,0,0,0-24.819,7.5,69.045,69.045,0,0,1-3.189,18.183c-1.911,5.951-3.34,7.451-3.542,11.807-.293,6.374,2.507,8.789,4.016,15.585,1.333,6,.342,9.492-.709,18.183a222.419,222.419,0,0,0-1.536,29.284,84.366,84.366,0,0,0,11.005,1.12A85.913,85.913,0,0,0-1570.987,0a238.913,238.913,0,0,1-1.654-28.81A240.92,240.92,0,0,1-1564-91.807Z" transform="translate(1647.464 145.397)" fill="#6b46b2"/>
      <path id="Path_2280" data-name="Path 2280" d="M-1604.2-60.164a26.381,26.381,0,0,1,.709-7.438c2.7-11.1,11.967-17.061,14.876-18.774Q-1596.4-73.272-1604.2-60.164Z" transform="translate(1658.53 159.037)" fill="#3f2189"/>
      <path id="Path_2281" data-name="Path 2281" d="M-1610.908-44.4a28.185,28.185,0,0,0,8.971,5.431,28.047,28.047,0,0,0,7.322,1.653q.944-3.07,1.889-6.138a9.515,9.515,0,0,0,5.667-.238c3.787-1.476,5.423-5.487,6.325-7.791,4.793-12.265,10.4-31.515,10.914-33.3a291.29,291.29,0,0,1-20.308,21.961C-1597.283-55.841-1604.29-49.727-1610.908-44.4Z" transform="translate(1650.363 160.986)" fill="#3f2189"/>
      <path id="Path_2282" data-name="Path 2282" d="M-1590.008-88.492q-.014-7.86-.029-15.721l-14.625,2.091.353,13.814.354,12.872Q-1596.981-81.966-1590.008-88.492Z" transform="translate(1657.998 137.235)" fill="#fcab92"/>
      <path id="Path_2283" data-name="Path 2283" d="M-1606.739-111.758a88.334,88.334,0,0,0-1.671,13.325c-.129,2.673-.129,5.2-.042,7.576a14.9,14.9,0,0,0,2.833,5.467,15.872,15.872,0,0,0,6.92,4.822,22.662,22.662,0,0,0,8.042-2.929,21.784,21.784,0,0,0,7.282-7.176,55.21,55.21,0,0,0,1.063-7.176,55.36,55.36,0,0,0-.607-13.763,22.147,22.147,0,0,0-8.5-3.222A23.528,23.528,0,0,0-1606.739-111.758Z" transform="translate(1653.29 123.937)" fill="#fcb6a1"/>
      <path id="Path_2284" data-name="Path 2284" d="M-1624.616-82.844a38.792,38.792,0,0,1,14.167-8.147c13.734-4.345,25.632.567,29.048,2.125a146.865,146.865,0,0,1,2.478,15.941,148.424,148.424,0,0,1-1.416,39.673,44.548,44.548,0,0,1-14.169,4.6,46.282,46.282,0,0,1-26.566-4.251q1.77-5.49,3.542-10.98Q-1621.074-63.361-1624.616-82.844Z" transform="translate(1633.607 151.254)" fill="#f2e3c7"/>
      <path id="Path_2285" data-name="Path 2285" d="M-1617.015-73.625c-1.062-1.48-2.6-3.718-4.251-6.554-3.729-6.394-9.332-15.672-6.729-18.6,1.185-1.331,3.669-.9,4.783-.709,11.083,1.918,16.8,18.961,17.71,21.785a20.34,20.34,0,0,1-3.9,2.3A20.6,20.6,0,0,1-1617.015-73.625Z" transform="translate(1628.662 142.744)" fill="#e8a274"/>
      <path id="Path_2286" data-name="Path 2286" d="M-1613.944-83.48a5.841,5.841,0,0,0,1.653-3.66c.062-2.28-1.653-3.967-.945-4.84.514-.631,1.627-.011,2.362-.827.674-.747.251-1.838.709-2.007.542-.2,1.1,1.353,2.242,1.416,1.078.06,1.551-1.267,2.362-1.062.767.193.518,1.422,1.533,2.009.964.556,1.867-.156,2.48.471.494.5.1,1.156.591,1.536.6.467,1.429-.329,2.125.118.644.413.273,1.313.944,1.771s1.454-.191,1.889.236-.258,1.187,0,2.48c.233,1.162.967,1.416.827,2.007-.173.731-1.458,1.04-2.951,1.3a29.779,29.779,0,0,1-5.785.589,70.106,70.106,0,0,0-10.509.356C-1614.257-82.22-1614.1-82.849-1613.944-83.48Z" transform="translate(1646.076 148.701)" fill="#97bd37"/>
      <path id="Path_2287" data-name="Path 2287" d="M-1620.349-81.293c-.06-.956-.1-1.94-.118-2.953A63.868,63.868,0,0,1-1620-93.1a33.064,33.064,0,0,1,4.016-.471,33.915,33.915,0,0,1,12.4,1.653,20.774,20.774,0,0,0-1.182,4.6,20.917,20.917,0,0,0-.118,4.6c-1.753.371-3.647.7-5.667.944A66.745,66.745,0,0,1-1620.349-81.293Z" transform="translate(1638.668 150.177)" fill="#7a2950"/>
      <path id="Path_2288" data-name="Path 2288" d="M-1577.9-95.86c1.614.344,5.852,1.482,7.918,5.136,1.7,3.007,1.109,6.26.456,9.029a93.428,93.428,0,0,1-11.561,27.1,145.046,145.046,0,0,1-11.689,15.585,10.353,10.353,0,0,1-7.616-.531,10.746,10.746,0,0,1-5.491-7.616,88.833,88.833,0,0,0,7.262-9.918,90.359,90.359,0,0,0,11.167-26.179Z" transform="translate(1656.499 147.445)" fill="#6b46b2"/>
      <path id="Path_2289" data-name="Path 2289" d="M-1596.729-108.262a3.663,3.663,0,0,1,3.7-.116,3.754,3.754,0,0,1,1.618,3.7c-.287,2.131-2.669,4.007-5.891,4.16Q-1597.017-104.392-1596.729-108.262Z" transform="translate(1666.991 131.599)" fill="#fcb6a1"/>
      <path id="Path_2290" data-name="Path 2290" d="M-1607.848-74.107l-.887-1.062a4.059,4.059,0,0,0,0-2.3c-.34-1.069-.944-1.162-2.125-2.569a11.585,11.585,0,0,1-2.48-4.162c-.207-.682-.329-1.4-.62-1.416s-.591.7-.707,1.151a3.723,3.723,0,0,0,0,1.682,10.826,10.826,0,0,0,.8,2.569q-1.393.167-2.922.264c-1.569.1-3.049.12-4.427.089l-1.062-.887q-.713-.587-1.418-1.149a2.763,2.763,0,0,0-.353,1.149,2.876,2.876,0,0,0,.531,1.86,15.1,15.1,0,0,0,.353,2.48,15.262,15.262,0,0,0,1.24,3.453,18.774,18.774,0,0,0,1.683.887,21.47,21.47,0,0,0,5.135,1.593,31.282,31.282,0,0,1,6.885,2.3Z" transform="translate(1634.285 159.962)" fill="#fcb6a1"/>
      <path id="Path_2291" data-name="Path 2291" d="M-1577.429-70.011q-5.044-1.017-10.278-2.267a289.455,289.455,0,0,1-28.6-8.44q-1.153,2.213-2.3,4.429a96.728,96.728,0,0,0,10.5,7.185,98.514,98.514,0,0,0,28.29,11.234,8.06,8.06,0,0,0,3.9-4.431C-1574.529-66.357-1577.252-69.793-1577.429-70.011Z" transform="translate(1640.95 165.953)" fill="#fcb6a1"/>
      <path id="Path_2292" data-name="Path 2292" d="M-1621.017-82.443q-1.387-2.243-2.776-4.487a14.4,14.4,0,0,1,2.54-2.362,16.58,16.58,0,0,1,11.216-2.773q1.24,3.777,2.48,7.556c-1.382.318-2.82.616-4.311.884A91.873,91.873,0,0,1-1621.017-82.443Z" transform="translate(1634.613 151.975)" fill="#de4e5a"/>
      <path id="Path_2293" data-name="Path 2293" d="M-1624.058-83.749c.267-2.42.673-3.138,1.062-3.189.54-.069.96,1.162,1.593,1.062.689-.107.691-1.64,1.418-1.769.625-.113.978.962,1.682.884.76-.084.818-1.385,1.594-1.5s1.091,1.069,2.038,1.062c.887-.009,1.08-1.06,1.947-1.062.969,0,1.26,1.3,2.127,1.238.811-.058.875-1.229,1.858-1.416.811-.156,1.047.587,2.038.531,1.051-.058,1.209-.913,2.125-.887.993.031,1.211,1.051,2.038.976.889-.082,1-1.3,1.947-1.418.747-.093.882.631,1.86.8,1.347.227,1.838-1.018,3.1-.8,1.145.2,1.318,1.327,2.213,1.24.849-.08.909-1.107,1.949-1.329.876-.184,1.114.484,2.036.356,1.251-.176,1.5-1.5,2.391-1.418.847.082,1.016,1.336,1.771,1.329.818-.007,1.084-1.476,1.771-1.418.62.053,1.038,1.3,1.151,2.038a3.937,3.937,0,0,1-.089,1.593,86.691,86.691,0,0,1-28.957,4.34A85.471,85.471,0,0,1-1624.058-83.749Z" transform="translate(1634.289 154.019)" fill="#f2e3c7"/>
      <path id="Path_2294" data-name="Path 2294" d="M-1569.72,15.307c-2.035,1.556-5.067,3.809-8.856,6.376-7.447,5.042-11.172,7.565-14.523,8.147-6.407,1.113-12.65-1.442-17-3.189a45.949,45.949,0,0,1-4.6-2.142c1.385-5.047,2.709-10.367,3.929-15.947,1.427-6.523,2.578-12.787,3.5-18.747a94.509,94.509,0,0,1-3.189-14.17,95.95,95.95,0,0,1,.709-31.526c2.9-.687,5.969-1.289,9.209-1.771a112.268,112.268,0,0,1,30.11-.356,35.777,35.777,0,0,1,3.9,9.918c2.9,12.761-2.2,23.477-4.249,27.277Z" transform="translate(1645.725 192.667)" fill="#6b46b2"/>
      <path id="Path_2295" data-name="Path 2295" d="M-1599.239-108.218a23.529,23.529,0,0,0,2.7,2.182,25.457,25.457,0,0,0,13.149,4.307,39.6,39.6,0,0,1,5.291,13.5,39.4,39.4,0,0,1,.578,10.4,17.553,17.553,0,0,0,2.887.578,17.987,17.987,0,0,0,4.969-.116,107,107,0,0,0,.347-11.207c-.255-12.023-.385-18.036-3.929-22.645-5.442-7.085-16.581-9.625-24.494-6.587a15.382,15.382,0,0,0-8.087,6.356,14.781,14.781,0,0,0-1.964,8.665c-.611,2.522-1.163,5.222-1.618,8.089a103.075,103.075,0,0,0-1.271,16.059,6.013,6.013,0,0,0,2.08.924,5.99,5.99,0,0,0,2.08.116c-.211-2.847-.338-5.856-.347-9.012a128.654,128.654,0,0,1,1.04-16.754,37.531,37.531,0,0,0,4.851-3.349Q-1600.048-107.469-1599.239-108.218Z" transform="translate(1650.645 119.072)" fill="#3f424a"/>
      <path id="Path_2296" data-name="Path 2296" d="M-1606-114.584a9.9,9.9,0,0,0,.567,3.4c1.849,5.16,7.782,7.5,8.049,7.143.16-.216-1.764-1.4-4.649-4.876A42.077,42.077,0,0,1-1606-114.584Z" transform="translate(1656.367 124.558)" fill="#3f424a"/>
    </g>
  </g>
  <g id="Group_1034" data-name="Group 1034" transform="translate(482.499 195.475)">
    <path id="Path_2297" data-name="Path 2297" d="M-1467.023-10.222s-10.48-12.227-.647-19.988c0,0,7.178-4.349,13.038-4,0,0-8.3,13.912-5.614,15.294s8.127-16.167,8.127-16.167,16.343-1.587,21.6.942c0,0-13.972,11.434-11.029,12.116s18.036-10.545,18.036-10.545,15.21,2.591,14.4,11.869-6.051,12.145-8.358,11.9-15.779-5.389-16.072-3.5,7.823,8.056,13.5,8.34c0,0-10.725,11.827-17.854,8.416s-7.729-8.823-12.176-10.856-8.234-2.02-6.4.047,9.878,4.08,12.418,8.574,4.82,7.525-2.556,6.418-19.358-6.5-19.883-12.685Z" transform="translate(1564.798 95.365)" fill="#6b46b2"/>
    <path id="Path_2298" data-name="Path 2298" d="M-1414.2-28.726s-41.311-1.591-50.438,10.225a29.893,29.893,0,0,1-8.223,11.545l-.971,2.636s7.158-7.545,9.72-8c0,0-4.007-14.636,49.911-16.4Z" transform="translate(1562.411 103.644)" fill="#ffa69e"/>
    <path id="Path_2299" data-name="Path 2299" d="M-1468.179-18.4a25.932,25.932,0,0,0-9.485,18.274l1.609.142s2.829-12.109,7.954-16.852-.078-1.565-.078-1.565Z" transform="translate(1557.727 115.086)" fill="#ffa69e"/>
    <path id="Path_2300" data-name="Path 2300" d="M-1452.553-7.34s16.67-9.336,8.894-22.005c0,0-6.225-7.776-12.894-9.778,0,0,3.558,18.89,0,19.336S-1459-41.121-1459-41.121s-17.554-8.447-24.446-7.78c0,0,10.892,18.447,7.333,18s-15.778-19.11-15.778-19.11-18-3.333-20.892,7.331,1.778,16.005,4.447,16.667,19.779.447,19.332,2.669-12,5.778-18.443,3.776c0,0,7.114,17.559,16.445,16.67s12.223-6.667,18-7.111,10,1.113,7.111,2.669-12.667.509-17.336,4.478-8.443,6.409.224,8.187,24.226.667,27.337-6Z" transform="translate(1513.691 77.111)" fill="#6b46b2"/>
    <path id="Path_2301" data-name="Path 2301" d="M-1509.581-45.482s46.671,15.114,52.007,32a35.437,35.437,0,0,0,4.442,16.223V6.08s-4.885-11.338-7.553-12.894c0,0,10.445-14.67-48.9-38.668Z" transform="translate(1518.714 83.25)" fill="#ffa69e"/>
    <path id="Path_2302" data-name="Path 2302" d="M-1482.954-22.64s7.2,10.929,3.1,24.234l-1.854-.5s1.8-14.656-1.967-22.03.724-1.709.724-1.709Z" transform="translate(1548.536 108.633)" fill="#ffa69e"/>
    <path id="Path_2303" data-name="Path 2303" d="M-1466.3-5.581s-21.972-12.3-11.718-29c0,0,8.2-10.252,16.99-12.892,0,0-4.685,24.9,0,25.49s3.222-28.123,3.222-28.123,23.143-11.134,32.226-10.252c0,0-14.352,24.312-9.667,23.725s20.8-25.192,20.8-25.192,23.728-4.4,27.537,9.663-2.342,21.1-5.856,21.974-26.079.589-25.492,3.516,15.821,7.618,24.317,4.98c0,0-9.378,23.145-21.677,21.97s-16.114-8.787-23.73-9.374-13.185,1.467-9.378,3.516,16.7.673,22.852,5.9,11.134,8.454-.293,10.8-31.928.878-36.033-7.909Z" transform="translate(1553.958 62.477)" fill="#6b46b2"/>
    <path id="Path_2304" data-name="Path 2304" d="M-1402.472-55.858s-61.518,19.923-68.552,42.186a46.7,46.7,0,0,1-5.86,21.388v4.394s6.449-14.941,9.965-16.992c0,0-13.772-19.334,64.447-50.976Z" transform="translate(1558.68 70.567)" fill="#ffa69e"/>
    <path id="Path_2305" data-name="Path 2305" d="M-1473.724-25.746s-9.485,14.405-4.08,31.944l2.445-.653s-2.371-19.323,2.6-29.035-.96-2.256-.96-2.256Z" transform="translate(1555.52 104.03)" fill="#ffa69e"/>
    <path id="Path_2306" data-name="Path 2306" d="M-1407.872-15.109a43.041,43.041,0,0,1-43.037,43.04,42.92,42.92,0,0,1-14.163-2.387,43.052,43.052,0,0,1-28.872-40.653Z" transform="translate(1537.826 120.375)" fill="#ffa69e"/>
    <path id="Path_2307" data-name="Path 2307" d="M-1436.2-15.13c0,16.123-3.86,32.544-16.99,39.917-2.178,1.227-9.485-.1-11.883.736a43.059,43.059,0,0,1-28.873-40.653Z" transform="translate(1537.825 120.35)" fill="#ffa69e"/>
    <path id="Path_2308" data-name="Path 2308" d="M-1406.949,8.143h-87.264a5.29,5.29,0,0,1,1.551-3.756,5.283,5.283,0,0,1,3.756-1.556h76.648a5.311,5.311,0,0,1,5.309,5.311Z" transform="translate(1537.498 142.305)" fill="#ffa69e"/>
    <path id="Path_2309" data-name="Path 2309" d="M-1447.836,8.143h-46.378a5.3,5.3,0,0,1,1.551-3.756,5.288,5.288,0,0,1,3.758-1.556h35.759a5.308,5.308,0,0,1,5.309,5.311Z" transform="translate(1537.497 142.305)" fill="#ffa69e"/>
    <rect id="Rectangle_509" data-name="Rectangle 509" width="88.47" height="1.32" transform="translate(42.461 105.216)" fill="#db6a1f"/>
  </g>
  <g id="Group_1043" data-name="Group 1043" transform="translate(93.875 25.666)">
    <g id="Group_1035" data-name="Group 1035" transform="translate(7.531 5.292)">
      <rect id="Rectangle_510" data-name="Rectangle 510" width="4.071" height="307.784" transform="translate(27.685)" fill="#ffa69e"/>
      <path id="Path_2310" data-name="Path 2310" d="M-1625.734,9.177h-59.441a7.736,7.736,0,0,1,7.736-7.736h43.969a7.735,7.735,0,0,1,7.736,7.736Z" transform="translate(1685.175 305.122)" fill="#ffa69e"/>
    </g>
    <g id="Group_1042" data-name="Group 1042" transform="translate(25.812 86.752)">
      <g id="Group_1038" data-name="Group 1038">
        <g id="Group_1036" data-name="Group 1036" transform="translate(0.042)">
          <path id="Path_2311" data-name="Path 2311" d="M-1676.93-98.454a.745.745,0,0,1,.745-.744.744.744,0,0,1,.744.744.744.744,0,0,1-.744.744A.745.745,0,0,1-1676.93-98.454Z" transform="translate(1676.93 100.649)" fill="#ffa69e"/>
          <path id="Path_2312" data-name="Path 2312" d="M-1676.93-99.1a.747.747,0,0,1,.745-.747.746.746,0,0,1,.744.747.744.744,0,0,1-.744.744A.745.745,0,0,1-1676.93-99.1Z" transform="translate(1676.93 99.851)" fill="#ffa69e"/>
          <path id="Path_2313" data-name="Path 2313" d="M-1676.93-97.8a.745.745,0,0,1,.745-.744.744.744,0,0,1,.744.744.744.744,0,0,1-.744.744A.745.745,0,0,1-1676.93-97.8Z" transform="translate(1676.93 101.446)" fill="#ffa69e"/>
          <path id="Path_2314" data-name="Path 2314" d="M-1676.93-97.136a.745.745,0,0,1,.745-.744.744.744,0,0,1,.744.744.744.744,0,0,1-.744.744A.745.745,0,0,1-1676.93-97.136Z" transform="translate(1676.93 102.26)" fill="#ffa69e"/>
        </g>
        <g id="Group_1037" data-name="Group 1037" transform="translate(0 5.838)">
          <path id="Path_2315" data-name="Path 2315" d="M-1676.949-95.827a.745.745,0,0,1,.744-.744.745.745,0,0,1,.747.744.745.745,0,0,1-.747.744A.745.745,0,0,1-1676.949-95.827Z" transform="translate(1676.949 98.022)" fill="#ffa69e"/>
          <path id="Path_2316" data-name="Path 2316" d="M-1676.949-96.477a.746.746,0,0,1,.744-.747.747.747,0,0,1,.747.747.745.745,0,0,1-.747.744A.745.745,0,0,1-1676.949-96.477Z" transform="translate(1676.949 97.224)" fill="#ffa69e"/>
          <path id="Path_2317" data-name="Path 2317" d="M-1676.949-95.175a.745.745,0,0,1,.744-.744.745.745,0,0,1,.747.744.745.745,0,0,1-.747.744A.745.745,0,0,1-1676.949-95.175Z" transform="translate(1676.949 98.819)" fill="#ffa69e"/>
          <path id="Path_2318" data-name="Path 2318" d="M-1676.949-94.509a.745.745,0,0,1,.744-.744.745.745,0,0,1,.747.744.745.745,0,0,1-.747.744A.745.745,0,0,1-1676.949-94.509Z" transform="translate(1676.949 99.633)" fill="#ffa69e"/>
        </g>
      </g>
      <g id="Group_1041" data-name="Group 1041" transform="translate(0 11.636)">
        <g id="Group_1039" data-name="Group 1039" transform="translate(0.042)">
          <path id="Path_2319" data-name="Path 2319" d="M-1676.93-93.219a.745.745,0,0,1,.745-.744.744.744,0,0,1,.744.744.745.745,0,0,1-.744.747A.745.745,0,0,1-1676.93-93.219Z" transform="translate(1676.93 95.412)" fill="#ffa69e"/>
          <path id="Path_2320" data-name="Path 2320" d="M-1676.93-93.871a.745.745,0,0,1,.745-.744.744.744,0,0,1,.744.744.744.744,0,0,1-.744.744A.745.745,0,0,1-1676.93-93.871Z" transform="translate(1676.93 94.615)" fill="#ffa69e"/>
          <path id="Path_2321" data-name="Path 2321" d="M-1676.93-92.567a.745.745,0,0,1,.745-.744.744.744,0,0,1,.744.744.745.745,0,0,1-.744.747A.745.745,0,0,1-1676.93-92.567Z" transform="translate(1676.93 96.209)" fill="#ffa69e"/>
          <path id="Path_2322" data-name="Path 2322" d="M-1676.93-91.9a.745.745,0,0,1,.745-.744.744.744,0,0,1,.744.744.745.745,0,0,1-.744.747A.745.745,0,0,1-1676.93-91.9Z" transform="translate(1676.93 97.023)" fill="#ffa69e"/>
        </g>
        <g id="Group_1040" data-name="Group 1040" transform="translate(0 5.838)">
          <path id="Path_2323" data-name="Path 2323" d="M-1676.949-90.592a.745.745,0,0,1,.744-.744.745.745,0,0,1,.747.744.747.747,0,0,1-.747.747A.746.746,0,0,1-1676.949-90.592Z" transform="translate(1676.949 92.785)" fill="#ffa69e"/>
          <path id="Path_2324" data-name="Path 2324" d="M-1676.949-91.244a.745.745,0,0,1,.744-.744.745.745,0,0,1,.747.744.747.747,0,0,1-.747.747A.746.746,0,0,1-1676.949-91.244Z" transform="translate(1676.949 91.988)" fill="#ffa69e"/>
          <path id="Path_2325" data-name="Path 2325" d="M-1676.949-89.94a.745.745,0,0,1,.744-.744.745.745,0,0,1,.747.744.746.746,0,0,1-.747.747A.745.745,0,0,1-1676.949-89.94Z" transform="translate(1676.949 93.582)" fill="#ffa69e"/>
          <path id="Path_2326" data-name="Path 2326" d="M-1676.949-89.274a.745.745,0,0,1,.744-.744.745.745,0,0,1,.747.744.746.746,0,0,1-.747.747A.745.745,0,0,1-1676.949-89.274Z" transform="translate(1676.949 94.396)" fill="#ffa69e"/>
        </g>
      </g>
    </g>
    <path id="Path_2327" data-name="Path 2327" d="M-1616.5-47.692h-72.061l9.771-91.2h52.519Z" transform="translate(1688.564 138.888)" fill="#ffa69e"/>
  </g>
</svg>
