<svg id="Group_991" data-name="Group 991" xmlns="http://www.w3.org/2000/svg" width="283.339" height="298.772" viewBox="0 0 283.339 298.772">
  <path id="Path_2020" data-name="Path 2020" d="M-321.423-84.7a10.456,10.456,0,0,1,7.96-3.269c5.645.333,8.323,5.462,8.431,5.678q-7.8,20.5-15.6,41a99.77,99.77,0,0,1-13.763,11.7A100.333,100.333,0,0,1-359.707-16.7a33.54,33.54,0,0,1-5.52-3.713A33.433,33.433,0,0,1-368.39-23.4a116.882,116.882,0,0,0,10.323-6.194,118.517,118.517,0,0,0,23.225-20.53Z" transform="translate(464.492 137.274)" fill="#f09b81"/>
  <path id="Path_2021" data-name="Path 2021" d="M-345.508-61.022A7.212,7.212,0,0,0-348.09-62.4a7.177,7.177,0,0,0-3.269-.171c1.578-3.447,3.145-7.176,4.647-11.183,1.553-4.149,2.858-8.123,3.956-11.872a13.447,13.447,0,0,1,5.162-2.409A13.419,13.419,0,0,1-332.6-88.2Q-339.058-74.612-345.508-61.022Z" transform="translate(485.309 136.82)" fill="#ffb3c1"/>
  <path id="Path_2022" data-name="Path 2022" d="M-309.051-16.083a23.563,23.563,0,0,1,3.109-.089,38.393,38.393,0,0,1,8.174,1.1,43.24,43.24,0,0,1,5.287,1.718,34.116,34.116,0,0,1,5.567,2.827,27.374,27.374,0,0,1,2.729,1.88,23.48,23.48,0,0,1,2.607,2.185,29.934,29.934,0,0,1,2.425,2.469l.589.64a9.14,9.14,0,0,1,.573.713l1.027,1.338a24.559,24.559,0,0,1,1.911,2.9,23.385,23.385,0,0,1,1.64,3.08,20.118,20.118,0,0,1,1.3,3.145A24.775,24.775,0,0,1-271.149,11a31.712,31.712,0,0,1,1.024,6.151,41.726,41.726,0,0,1,.1,5.554,39.7,39.7,0,0,1-1.256,8.147,23.035,23.035,0,0,1-.958,2.96s.218-1.111.431-3.06a53.06,53.06,0,0,0,.233-8.051,39.859,39.859,0,0,0-.547-5.3,26.9,26.9,0,0,0-.582-2.836c-.236-.958-.442-1.94-.782-2.9a22.873,22.873,0,0,0-1.031-2.922,26.145,26.145,0,0,0-1.293-2.893,20.859,20.859,0,0,0-1.536-2.787A21.412,21.412,0,0,0-279.163.36l-1-1.353a6.825,6.825,0,0,0-.471-.6l-.54-.6a27.536,27.536,0,0,0-2.22-2.329,35.31,35.31,0,0,0-4.84-3.974,45.717,45.717,0,0,0-5.062-3.025,41.622,41.622,0,0,0-4.909-2.065A50.12,50.12,0,0,0-306-15.641C-307.924-15.979-309.051-16.083-309.051-16.083Z" transform="translate(537.023 225.043)" fill="#dbe8ed"/>
  <path id="Path_2023" data-name="Path 2023" d="M-310.908-12.267l-.758.789c-.469.533-1.273,1.233-2.091,2.271-.42.5-.887,1.062-1.393,1.671l-1.476,2.1A45.672,45.672,0,0,0-319.6-.1,36.956,36.956,0,0,0-322,6.669a41.426,41.426,0,0,0-1.069,7.887,35.657,35.657,0,0,0,3.48,16.676,18.458,18.458,0,0,0,.973,1.931l1.142,1.96a37.8,37.8,0,0,0,2.556,3.445,34.736,34.736,0,0,0,6.114,5.838,36.874,36.874,0,0,0,6.814,4.1,37.038,37.038,0,0,0,6.765,2.4,52.138,52.138,0,0,0,6.029,1.02,38.7,38.7,0,0,0,4.747.107c1.327,0,2.358-.156,3.069-.2l1.091-.1-1.064.244a23.1,23.1,0,0,1-3.049.591,39.158,39.158,0,0,1-4.836.384l-3-.091c-1.051-.109-2.156-.258-3.307-.438a38.9,38.9,0,0,1-7.236-2.069,32.843,32.843,0,0,1-7.445-3.987,33.851,33.851,0,0,1-6.722-6.087A39.532,39.532,0,0,1-319.8,36.5l-1.169-1.96a20.164,20.164,0,0,1-1.1-2.122,35.217,35.217,0,0,1-2.891-8.929,35.529,35.529,0,0,1-.52-9.054,36.037,36.037,0,0,1,1.556-8.3,38.99,38.99,0,0,1,2.94-6.927,32.724,32.724,0,0,1,3.536-5.245q.923-1.067,1.72-1.989.873-.85,1.6-1.562a24.077,24.077,0,0,1,2.365-2Z" transform="translate(516.858 229.829)" fill="#dbe8ed"/>
  <path id="Path_2024" data-name="Path 2024" d="M-388.652-16.083a23.593,23.593,0,0,1,3.109-.089,38.375,38.375,0,0,1,8.174,1.1,43,43,0,0,1,5.287,1.718,34.044,34.044,0,0,1,5.569,2.827,27.331,27.331,0,0,1,2.727,1.88,23.5,23.5,0,0,1,2.609,2.185,29.908,29.908,0,0,1,2.422,2.469l.591.64c.293.316.376.471.573.713l1.024,1.338a24.288,24.288,0,0,1,1.911,2.9,23.146,23.146,0,0,1,1.642,3.08,20.558,20.558,0,0,1,1.3,3.145A25.152,25.152,0,0,1-350.748,11a31.7,31.7,0,0,1,1.022,6.151,41.006,41.006,0,0,1,.1,5.554,39.547,39.547,0,0,1-1.256,8.147,22.854,22.854,0,0,1-.956,2.96s.216-1.111.429-3.06a53.06,53.06,0,0,0,.233-8.051,39.131,39.131,0,0,0-.547-5.3,27.452,27.452,0,0,0-.58-2.836c-.238-.958-.444-1.94-.782-2.9a22.553,22.553,0,0,0-1.033-2.922,26.151,26.151,0,0,0-1.291-2.893,21.11,21.11,0,0,0-1.536-2.787A21.882,21.882,0,0,0-358.762.36l-1.007-1.353a7.317,7.317,0,0,0-.469-.6l-.542-.6A27.212,27.212,0,0,0-363-4.527,35.178,35.178,0,0,0-367.84-8.5a45.723,45.723,0,0,0-5.062-3.025,41.471,41.471,0,0,0-4.909-2.065,50.1,50.1,0,0,0-7.783-2.051C-387.523-15.979-388.652-16.083-388.652-16.083Z" transform="translate(439.725 225.043)" fill="#dbe8ed"/>
  <path id="Path_2025" data-name="Path 2025" d="M-374.619-50.308c-.311-.56-1.051-2.056-.431-3.182.445-.807,1.367-1.031,2.582-1.376,1.829-.524,3.565-1.376,5.418-1.807,2.967-.693,7.067-1.727,12.216-3.011a3.022,3.022,0,0,1,1.633.773,3.891,3.891,0,0,1,.86,3.269C-352.8-52.295-368.35-50.806-374.619-50.308Z" transform="translate(456.058 171.87)" fill="#f09b81"/>
  <path id="Path_2026" data-name="Path 2026" d="M-377.582-49.416a3.99,3.99,0,0,1,.776-2.409c.844-1.071,2-1.111,3.44-1.807a9.421,9.421,0,0,0,3.44-2.925,3.3,3.3,0,0,1,2.238,0,3.436,3.436,0,0,1,1.978,2.151,10.7,10.7,0,0,1-1.462,2.236,9.337,9.337,0,0,1-5.678,3.44A8.56,8.56,0,0,1-377.582-49.416Z" transform="translate(453.256 175.452)" fill="#3a5570"/>
  <path id="Path_2027" data-name="Path 2027" d="M-344.062,4.5a16.031,16.031,0,0,1-7.111,3.671c-1.462.307-3.265.433-4.013,1.72a3.388,3.388,0,0,0-.116,2.638,42.375,42.375,0,0,0,6.767-.344,42.288,42.288,0,0,0,8.6-2.065Q-342,7.312-344.062,4.5Z" transform="translate(480.23 250.326)" fill="#5a646b"/>
  <g id="Group_985" data-name="Group 985" transform="translate(0 194.592)">
    <path id="Path_2028" data-name="Path 2028" d="M-359.545,81.577a52.147,52.147,0,0,0,52.089-52.089A52.149,52.149,0,0,0-359.545-22.6a52.148,52.148,0,0,0-52.089,52.091A52.146,52.146,0,0,0-359.545,81.577Zm0-95.922a43.882,43.882,0,0,1,43.831,43.833,43.881,43.881,0,0,1-43.831,43.831,43.881,43.881,0,0,1-43.831-43.831A43.882,43.882,0,0,1-359.545-14.345Z" transform="translate(411.634 22.603)" fill="#24333d"/>
  </g>
  <g id="Group_986" data-name="Group 986" transform="translate(179.161 194.592)">
    <path id="Path_2029" data-name="Path 2029" d="M-278.924,81.577a52.146,52.146,0,0,0,52.087-52.089A52.147,52.147,0,0,0-278.924-22.6a52.15,52.15,0,0,0-52.091,52.091A52.148,52.148,0,0,0-278.924,81.577Zm0-95.922A43.88,43.88,0,0,1-235.1,29.488a43.879,43.879,0,0,1-43.829,43.831,43.882,43.882,0,0,1-43.833-43.831A43.882,43.882,0,0,1-278.924-14.345Z" transform="translate(331.015 22.603)" fill="#24333d"/>
  </g>
  <path id="Path_2030" data-name="Path 2030" d="M-319.539-44.281a259.582,259.582,0,0,0-26.726,19.152c-5.96,4.874-11.352,9.725-16.207,14.423a7.226,7.226,0,0,0-1.667,7.958q12.607,30.558,25.217,61.118l5.607,1.22,7.7-7.185q-7.8-25.231-15.6-50.464l44.5-29.364c-4.5-11.02-3.562-8.718-8.067-19.739Z" transform="translate(469.021 187.177)" fill="#00c6b3"/>
  <g id="Group_987" data-name="Group 987" transform="translate(47.958 125.65)">
    <path id="Path_2031" data-name="Path 2031" d="M-385.92,71.537a4.128,4.128,0,0,0,4-3.138l28.921-116.9a4.128,4.128,0,0,0-3.016-5,4.126,4.126,0,0,0-5,3.016l-28.921,116.9a4.128,4.128,0,0,0,3.016,5A4.043,4.043,0,0,0-385.92,71.537Z" transform="translate(390.054 53.626)" fill="#f9716e"/>
  </g>
  <g id="Group_988" data-name="Group 988" transform="translate(65.795 168.473)">
    <path id="Path_2032" data-name="Path 2032" d="M-302.856,53.463c.089,0,.176,0,.267-.007l86.279-5.482a4.133,4.133,0,0,0,3.538-2.5,4.133,4.133,0,0,0-.647-4.285l-62.614-74.081a4.2,4.2,0,0,0-3.238-1.462l-98.711,1.985a4.128,4.128,0,0,0-4.045,4.211,4.107,4.107,0,0,0,4.211,4.047l96.746-1.947,56.047,66.314-78.092,4.96a4.128,4.128,0,0,0-3.858,4.38A4.129,4.129,0,0,0-302.856,53.463Z" transform="translate(382.027 34.356)" fill="#f9716e"/>
  </g>
  <g id="Group_989" data-name="Group 989" transform="translate(64.089 155.912)">
    <path id="Path_2033" data-name="Path 2033" d="M-298.394,62.435l26.865-100.307-7.977-2.136-23.52,87.817L-377.5-14.382-382.8-8.041Z" transform="translate(382.795 40.008)" fill="#f9716e"/>
  </g>
  <path id="Path_2034" data-name="Path 2034" d="M-354.158,12.786a17.241,17.241,0,0,0,17.241,17.239,17.241,17.241,0,0,0,17.241-17.239A17.241,17.241,0,0,0-336.917-4.455,17.241,17.241,0,0,0-354.158,12.786Z" transform="translate(481.888 239.378)" fill="#81a8d4"/>
  <path id="Path_2035" data-name="Path 2035" d="M-355.007,17.5h11.356c-.789-3.98.022-8.056,2.58-10.149,3.869-3.169,11.976-1.991,16.687,4.989l61.42-4.129V2.708q-39.658-4.04-79.312-8.085a18.183,18.183,0,0,0-8.6,5.16C-357.325,6.826-355.245,16.48-355.007,17.5Z" transform="translate(480.23 238.251)" fill="#dfebfa"/>
  <path id="Path_2036" data-name="Path 2036" d="M-347.417,5.542l21.459,29.419q1.55-.687,3.1-1.376-9.957-15.4-19.912-30.8a2.832,2.832,0,0,0-3.44-.342A2.827,2.827,0,0,0-347.417,5.542Z" transform="translate(490.016 247.288)" fill="#d3e9fa"/>
  <path id="Path_2037" data-name="Path 2037" d="M-339.919,17.608q.343,1.677.689,3.356a26.918,26.918,0,0,0,4.042.171,27.258,27.258,0,0,0,8.86-1.807q-.3-1.633-.6-3.269a20.375,20.375,0,0,0-4.731-.429A20.714,20.714,0,0,0-339.919,17.608Z" transform="translate(499.293 263.919)" fill="#9fb0bd"/>
  <path id="Path_2038" data-name="Path 2038" d="M-327.857,9.177q1.633,2.84,3.269,5.678A22.9,22.9,0,0,1-327,19.329a22.954,22.954,0,0,1-5.16,5.331q-4.217.6-8.432,1.2a3.981,3.981,0,0,1,.344-2.065c.789-1.669,2.822-2.667,5.162-2.58a8.13,8.13,0,0,0,2.58-4.129,8.284,8.284,0,0,0-.86-6.02Z" transform="translate(498.454 256.04)" fill="#5a646b"/>
  <path id="Path_2039" data-name="Path 2039" d="M-297.443-49.22a20.9,20.9,0,0,1,3.671,10.094,20.383,20.383,0,0,1-.964,7.8C-298.321-19.883-310.668-5.716-316.071.787a244.763,244.763,0,0,0-14.91,19.956c1.133,2.307,2.809,5.869,4.587,10.323,5.114,12.809,6,20.274,11.469,38.308.851,2.8,2.082,6.749,3.671,11.469a7.243,7.243,0,0,1-3.671,2.753,7.135,7.135,0,0,1-3.44.229q-6.907-12.317-13.763-25.232-10.824-20.4-20.35-40.12a7.264,7.264,0,0,1,.245-6.8q7.677-13.424,15.334-27.863,7.54-14.254,14.223-27.986Z" transform="translate(483.054 184.66)" fill="#00c6b3"/>
  <path id="Path_2040" data-name="Path 2040" d="M-341.425-83.446a110.853,110.853,0,0,1-2.851,11.352c-3.6,11.7-6.9,15.59-5.94,21.841.442,2.873,1.885,6.9,6.538,11.449.109,6.4.516,13.381,1.373,20.845A217.606,217.606,0,0,0-338.7,3.66l-.807,4.66,6.554,2.485,2.727-1.9q2.507,1.583,5.016,3.165a62.212,62.212,0,0,0,10.318-1.34,60.62,60.62,0,0,0,18.21-7.169q-3.933-6.7-7.865-13.394c-1.78-8.16-3.318-17-4.414-26.459a267.078,267.078,0,0,1-1.178-48.651,20.168,20.168,0,0,0-8.229-4.916C-330.293-93.451-340.913-83.917-341.425-83.446Z" transform="translate(486.5 133.996)" fill="#f9716e"/>
  <g id="Group_990" data-name="Group 990" transform="translate(74.126 118.61)">
    <path id="Path_2041" data-name="Path 2041" d="M-368.919-44.637a10.2,10.2,0,0,0,4.133-.833,11.114,11.114,0,0,0,4.071-3.258,7.183,7.183,0,0,1,2.245-1.962c1.776-.88,4.171-.784,7.116.3a2.76,2.76,0,0,0,3.531-1.64,2.757,2.757,0,0,0-1.638-3.533c-4.422-1.616-8.28-1.633-11.465-.051a12.3,12.3,0,0,0-3.942,3.278A6.04,6.04,0,0,1-367-50.512c-1.727.753-4.191.364-7.323-1.158A2.749,2.749,0,0,0-378-50.4a2.751,2.751,0,0,0,1.269,3.68A18.08,18.08,0,0,0-368.919-44.637Z" transform="translate(378.279 56.793)" fill="#4a6c8f"/>
  </g>
  <path id="Path_2042" data-name="Path 2042" d="M-312.961,7.268A11.724,11.724,0,0,0-301.238,18.99,11.724,11.724,0,0,0-289.516,7.268,11.724,11.724,0,0,0-301.238-4.455,11.724,11.724,0,0,0-312.961,7.268Z" transform="translate(532.244 239.378)" fill="#81a8d4"/>
  <circle id="Ellipse_115" data-name="Ellipse 115" cx="6.538" cy="6.538" r="6.538" transform="translate(45.551 240.144)" fill="#2b3c42"/>
  <path id="Path_2043" data-name="Path 2043" d="M-384.239-7.933a8.969,8.969,0,0,0,3.44,2.065,9.126,9.126,0,0,0,5.5,0q3.7-14.281,7.4-28.559a14.583,14.583,0,0,0-4.3-1.72,14.642,14.642,0,0,0-5.5-.173Q-380.971-22.127-384.239-7.933Z" transform="translate(445.119 200.205)" fill="#b34d6f"/>
  <path id="Path_2044" data-name="Path 2044" d="M-368.095-45.466a17.493,17.493,0,0,1-2.236-2.925c-1.04-1.711-1.813-2.982-1.376-4.214a3.117,3.117,0,0,1,1.633-1.636c2.267-.553,4.1-.949,5.334-1.2a58.584,58.584,0,0,0,7.225-1.72c.933-.3,1.682-.589,2.151-.773q1.507-.6,3.011-1.2a5.476,5.476,0,0,1,3.182,2.925,5.293,5.293,0,0,1,.258,3.269l-2.065,1.462a5.064,5.064,0,0,1-2.065,1.549c-1.311.511-2.489.271-4.129-.087a16.53,16.53,0,0,1-4.042-1.462l-1.893.86q.647,1.073,1.291,2.151a12.318,12.318,0,0,0,2.065.687c.438.1.773.156.947.431.256.407-.024,1.011-.173,1.289l-2.667.431-.516.86a9.68,9.68,0,0,1-3.353.087A9.561,9.561,0,0,1-368.095-45.466Z" transform="translate(460.286 172.533)" fill="#fcb6a1"/>
  <path id="Path_2045" data-name="Path 2045" d="M-367.011-56.9a10.686,10.686,0,0,0-3.958.86,3.563,3.563,0,0,0-1.376.86c-.862,1-.68,2.422-.518,3.7a9.119,9.119,0,0,0,1.033,3.185c.518.953,1.367,2.52,2.322,2.407.531-.062.907-.62,1.118-1.031a5.5,5.5,0,0,1-1.2-2.322,4.712,4.712,0,0,1,.689-4.042,4.2,4.2,0,0,1,2.236-1.378C-366.782-55.406-366.9-56.153-367.011-56.9Z" transform="translate(458.859 175.277)" fill="#fcb6a1"/>
  <path id="Path_2046" data-name="Path 2046" d="M-300.72-86.993a7.3,7.3,0,0,1,6.651-.229,6.981,6.981,0,0,1,3.556,7.111,80.769,80.769,0,0,1-10.323,23.57A84.724,84.724,0,0,1-318.9-36.757,88.487,88.487,0,0,1-336.5-25.288a88.662,88.662,0,0,1-23.857,7.8l-3.9-5.047q9.267-5.55,18.741-11.469,9.18-5.74,17.961-11.469c3.482-4.158,7.034-8.738,10.552-13.763A201.325,201.325,0,0,0-300.72-86.993Z" transform="translate(469.539 137.329)" fill="#fcb6a1"/>
  <path id="Path_2047" data-name="Path 2047" d="M-390.507-12.267l-.758.789c-.471.533-1.273,1.233-2.091,2.271q-.633.757-1.4,1.671-.683.973-1.473,2.1A45.357,45.357,0,0,0-399.205-.1,37.125,37.125,0,0,0-401.6,6.669a41.243,41.243,0,0,0-1.067,7.887,35.682,35.682,0,0,0,3.478,16.676,18.08,18.08,0,0,0,.976,1.931l1.14,1.96a38.223,38.223,0,0,0,2.556,3.445,34.745,34.745,0,0,0,6.116,5.838,36.783,36.783,0,0,0,6.811,4.1,37.053,37.053,0,0,0,6.767,2.4,52.028,52.028,0,0,0,6.027,1.02,38.709,38.709,0,0,0,4.747.107c1.327,0,2.358-.156,3.071-.2l1.091-.1-1.067.244a23.1,23.1,0,0,1-3.049.591,39.161,39.161,0,0,1-4.836.384l-3-.091c-1.051-.109-2.158-.258-3.307-.438a38.871,38.871,0,0,1-7.238-2.069,32.888,32.888,0,0,1-7.445-3.987,33.914,33.914,0,0,1-6.723-6.087A39.9,39.9,0,0,1-399.4,36.5l-1.167-1.96a19.784,19.784,0,0,1-1.1-2.122,35.126,35.126,0,0,1-2.889-8.929,35.435,35.435,0,0,1-.522-9.054,36.04,36.04,0,0,1,1.558-8.3,38.821,38.821,0,0,1,2.94-6.927,32.728,32.728,0,0,1,3.536-5.245c.613-.711,1.189-1.373,1.72-1.989q.87-.85,1.6-1.562a23.808,23.808,0,0,1,2.365-2Z" transform="translate(419.56 229.829)" fill="#dbe8ed"/>
  <path id="Path_2048" data-name="Path 2048" d="M-347.468-89.76a32.023,32.023,0,0,1,3.442,5.5,32.269,32.269,0,0,1,2.985,9.734,14.1,14.1,0,0,0,5.451-.749,15.075,15.075,0,0,0,7.965-6.863c-1.058-1.878-2.127-3.96-3.154-6.249a76.172,76.172,0,0,1-2.924-7.571,8.489,8.489,0,0,0-4.647-1.376C-342.17-97.256-345.786-94.258-347.468-89.76Z" transform="translate(490.065 125.854)" fill="#fcb6a1"/>
  <path id="Path_2049" data-name="Path 2049" d="M-344.568-106.921a24.622,24.622,0,0,1,7.48-1.4c2.42-.069,12.436-.382,17.063,6.525,3.829,5.718,3.127,14.105-2.031,20.339l-10,.727c-1.447,2.633-4.7,7.656-10.094,9.518-1.111.387-3.649,1.264-4.931.116-1.171-1.049-.413-3.007-2.065-4.445A2.339,2.339,0,0,1-350.18-77a1.677,1.677,0,0,1,.3-1.031,1.341,1.341,0,0,1-.689-.647c-.171-.4-.016-.78.129-1.333a9.588,9.588,0,0,0,.3-1.873c-.873-.284-1.98-.773-2.1-1.567-.118-.771.762-1.387,1.482-2.218a8.934,8.934,0,0,0,1.978-5.334,23.226,23.226,0,0,1,.6-8.171A23.214,23.214,0,0,1-344.568-106.921Z" transform="translate(484.214 112.392)" fill="#fcb6a1"/>
  <path id="Path_2050" data-name="Path 2050" d="M-350.151-98.931c1.24.011,2.531-.013,3.871-.087a60.185,60.185,0,0,0,11.078-1.653,71.294,71.294,0,0,0-1.667,8.2q-.32,2.267-.484,4.36l1.376.173c.113-.109,2.1-1.985,3.833-1.367,1.94.7,2.585,4.2,1.218,6.331a5.524,5.524,0,0,1-3.453,2.207,10.706,10.706,0,0,0,3.251,4.989c1.74,1.48,4.847,3.118,5.991,2.207a1.722,1.722,0,0,0,.458-1.487,28.746,28.746,0,0,0,3.809-3.453c1.851-2.009,8.4-9.12,7.231-18.116a14.62,14.62,0,0,0-2.753-7.34c-7.3-9.427-28.357-7.365-32.813,1.253A8.844,8.844,0,0,0-350.151-98.931Z" transform="translate(486.786 110.165)" fill="#2f3b42"/>
  <path id="Path_2051" data-name="Path 2051" d="M-328.469-53.858q-1.49-1.373-3.1-2.751a120.48,120.48,0,0,0-9.807-7.571q1.957-3.687,3.958-7.4,4.37-8.11,8.774-16A6.684,6.684,0,0,1-324-89.126c3.282.347,6.278,3.907,6.538,8.774a48.489,48.489,0,0,1-3.1,13.076A48.6,48.6,0,0,1-328.469-53.858Z" transform="translate(497.517 135.849)" fill="#ffb3c1"/>
  <path id="Path_2052" data-name="Path 2052" d="M-342.146-85.854a17.715,17.715,0,0,0,1.2,6.365c2.071,5.294,7.214,10.667,13.074,11.183,3.2.282,4.442-1.069,6.883,0,2.74,1.2,4.1,4.187,4.818,6.538a7.052,7.052,0,0,0,3.956-3.44c1.625-3.478-.358-8.8-5.5-12.216a10.035,10.035,0,0,0,.689-4.129,11.323,11.323,0,0,0-4.3-7.914,13.529,13.529,0,0,0,.689-4.989,15.256,15.256,0,0,0-5.334-10.323q-3.94,4.64-7.914,9.292Q-338.021-90.651-342.146-85.854Z" transform="translate(496.571 116.749)" fill="#2f3b42"/>
  <path id="Path_2053" data-name="Path 2053" d="M-379.3-36.421l33.606.8A11.841,11.841,0,0,1-343.975-30c.251,6.527-5.367,10.7-5.963,11.127l-29.132,1.147a53.235,53.235,0,0,1-.918-8.374A53.5,53.5,0,0,1-379.3-36.421Z" transform="translate(450.285 200.305)" fill="#b34d6f"/>
</svg>
