<svg xmlns="http://www.w3.org/2000/svg" width="661.949" height="346.413" viewBox="0 0 661.949 346.413">
  <g id="Group_1030" data-name="Group 1030" transform="translate(0 0)">
    <path id="Path_2188" data-name="Path 2188" d="M-1100.372-18.952l-596.755-.176s-77.226-96.144-41.668-187.624c38.335-98.629,128.246-92.7,202.88-92.311q1.277.007,2.549.011,1.543.007,3.08.007,2.2,0,4.367-.009l1.511-.007c.614-.007,1.222-.011,1.831-.016,34.571-.324,64.758-3.418,83.324-21.2a144.331,144.331,0,0,1,39.662-26.506q1.66-.77,3.344-1.5c22.114-9.629,47.2-15.1,73.046-16.634q2.81-.17,5.629-.273c108.88-4.04,228.21,61.065,193.74,179.426C-1147.7-103.831-1051.209-100.853-1100.372-18.952Z" transform="translate(1748.154 365.365)" fill="#fcecdb"/>
    <g id="Group_1029" data-name="Group 1029" transform="translate(126.184 4.477)">
      <g id="Group_1012" data-name="Group 1012" transform="translate(281.919)">
        <g id="Group_1010" data-name="Group 1010" transform="translate(0 70.03)">
          <path id="Path_2189" data-name="Path 2189" d="M-1555.353-313.513a9.171,9.171,0,0,1-9.163-9.163,9.173,9.173,0,0,1,9.163-9.163,9.172,9.172,0,0,1,9.16,9.163A9.171,9.171,0,0,1-1555.353-313.513Zm0-15.8a6.642,6.642,0,0,0-6.636,6.634,6.642,6.642,0,0,0,6.636,6.636,6.641,6.641,0,0,0,6.634-6.636A6.641,6.641,0,0,0-1555.353-329.309Z" transform="translate(1564.516 331.838)" fill="#00c6b3"/>
        </g>
        <g id="Group_1011" data-name="Group 1011" transform="translate(7.898 4.078)">
          <path id="Path_2190" data-name="Path 2190" d="M-1559.7-293.034a1.264,1.264,0,0,1-1.265-1.264v-58.787a8.438,8.438,0,0,1,8.427-8.429h97.473a1.263,1.263,0,0,1,1.262,1.265,1.263,1.263,0,0,1-1.262,1.264h-97.473a5.907,5.907,0,0,0-5.9,5.9V-294.3A1.263,1.263,0,0,1-1559.7-293.034Z" transform="translate(1560.962 361.515)" fill="#00c6b3"/>
        </g>
        <path id="Path_2191" data-name="Path 2191" d="M-1499.443-358.008l-13.867-5.342v10.685Z" transform="translate(1627.107 363.35)" fill="#00c6b3"/>
      </g>
      <g id="Group_1015" data-name="Group 1015" transform="translate(57.179 38.836)">
        <g id="Group_1013" data-name="Group 1013" transform="translate(109.339 70.032)">
          <path id="Path_2192" data-name="Path 2192" d="M-1607.281-296.037a9.173,9.173,0,0,0,9.163-9.163,9.171,9.171,0,0,0-9.163-9.163,9.173,9.173,0,0,0-9.163,9.163A9.174,9.174,0,0,0-1607.281-296.037Zm0-15.8a6.643,6.643,0,0,1,6.636,6.636,6.643,6.643,0,0,1-6.636,6.634,6.641,6.641,0,0,1-6.634-6.634A6.641,6.641,0,0,1-1607.281-311.835Z" transform="translate(1616.444 314.362)" fill="#00c6b3"/>
        </g>
        <g id="Group_1014" data-name="Group 1014" transform="translate(12.604 4.078)">
          <path id="Path_2193" data-name="Path 2193" d="M-1554.075-275.559a1.265,1.265,0,0,0,1.265-1.264v-58.787a8.439,8.439,0,0,0-8.429-8.429h-97.471a1.263,1.263,0,0,0-1.262,1.264,1.263,1.263,0,0,0,1.262,1.265h97.471a5.909,5.909,0,0,1,5.9,5.9v58.787A1.264,1.264,0,0,0-1554.075-275.559Z" transform="translate(1659.973 344.04)" fill="#00c6b3"/>
        </g>
        <path id="Path_2194" data-name="Path 2194" d="M-1665.644-340.532l13.867-5.342v10.685Z" transform="translate(1665.644 345.875)" fill="#00c6b3"/>
      </g>
      <g id="Group_1017" data-name="Group 1017" transform="translate(77.259 83.013)">
        <path id="pic_big_1" d="M2.5,20A2.5,2.5,0,0,1,0,17.5V2.5A2.5,2.5,0,0,1,2.5,0h15A2.5,2.5,0,0,1,20,2.5v15A2.5,2.5,0,0,1,17.5,20Zm0-2.5h15V2.5H2.5Zm1.252-3.748L7.5,7.5l3.75,5,2.5-2.5,2.5,3.75Zm7.5-6.252A1.25,1.25,0,1,1,12.5,8.752,1.249,1.249,0,0,1,11.253,7.5Z" transform="translate(30.001 30.001)" fill="#00c6b3"/>
        <g id="Group_1016" data-name="Group 1016">
          <path id="Path_2198" data-name="Path 2198" d="M-1590.646-245.992h-51.92a14.058,14.058,0,0,1-14.043-14.041v-51.92A14.06,14.06,0,0,1-1642.566-326h51.92a14.058,14.058,0,0,1,14.041,14.043v51.92A14.056,14.056,0,0,1-1590.646-245.992Zm-51.92-75.792a9.844,9.844,0,0,0-9.831,9.832v51.92a9.844,9.844,0,0,0,9.831,9.832h51.92a9.844,9.844,0,0,0,9.832-9.832v-51.92a9.844,9.844,0,0,0-9.832-9.832Z" transform="translate(1656.609 325.996)" fill="#00c6b3"/>
        </g>
      </g>
      <g id="Group_1019" data-name="Group 1019" transform="translate(194.628 83.013)">
        <path id="pic_big_1-2" data-name="pic_big_1" d="M2.5,20A2.5,2.5,0,0,1,0,17.5V2.5A2.5,2.5,0,0,1,2.5,0h15A2.5,2.5,0,0,1,20,2.5v15A2.5,2.5,0,0,1,17.5,20Zm0-2.5h15V2.5H2.5Zm1.25-3.748L7.5,7.5l3.75,5,2.5-2.5,2.5,3.75ZM11.25,7.5A1.25,1.25,0,1,1,12.5,8.752,1.25,1.25,0,0,1,11.25,7.5Z" transform="translate(30.002 30.001)" fill="#00c6b3"/>
        <g id="Group_1018" data-name="Group 1018">
          <path id="Path_2202" data-name="Path 2202" d="M-1537.832-245.992h-51.92a14.058,14.058,0,0,1-14.043-14.041v-51.92A14.06,14.06,0,0,1-1589.752-326h51.92a14.058,14.058,0,0,1,14.041,14.043v51.92A14.056,14.056,0,0,1-1537.832-245.992Zm-51.92-75.792a9.844,9.844,0,0,0-9.832,9.832v51.92a9.844,9.844,0,0,0,9.832,9.832h51.92a9.844,9.844,0,0,0,9.832-9.832v-51.92a9.844,9.844,0,0,0-9.832-9.832Z" transform="translate(1603.795 325.996)" fill="#00c6b3"/>
        </g>
      </g>
      <g id="Group_1021" data-name="Group 1021" transform="translate(311.998 83.013)">
        <path id="pic_big_1-3" data-name="pic_big_1" d="M2.5,20A2.5,2.5,0,0,1,0,17.5V2.5A2.5,2.5,0,0,1,2.5,0h15A2.5,2.5,0,0,1,20,2.5v15A2.5,2.5,0,0,1,17.5,20Zm0-2.5h15V2.5H2.5Zm1.25-3.748L7.5,7.5l3.75,5,2.5-2.5,2.5,3.75Zm7.5-6.252A1.25,1.25,0,1,1,12.5,8.752,1.25,1.25,0,0,1,11.251,7.5Z" transform="translate(30.002 30.001)" fill="#00c6b3"/>
        <g id="Group_1020" data-name="Group 1020">
          <path id="Path_2206" data-name="Path 2206" d="M-1485.018-245.992h-51.92a14.058,14.058,0,0,1-14.043-14.041v-51.92A14.06,14.06,0,0,1-1536.938-326h51.92a14.058,14.058,0,0,1,14.041,14.043v51.92A14.056,14.056,0,0,1-1485.018-245.992Zm-51.92-75.792a9.844,9.844,0,0,0-9.832,9.832v51.92a9.844,9.844,0,0,0,9.832,9.832h51.92a9.844,9.844,0,0,0,9.831-9.832v-51.92a9.844,9.844,0,0,0-9.831-9.832Z" transform="translate(1550.981 325.996)" fill="#00c6b3"/>
        </g>
      </g>
      <g id="Group_1022" data-name="Group 1022" transform="translate(208.467 65.227)">
        <path id="Path_2207" data-name="Path 2207" d="M-1575.712-290.5q-1.1,2.19-2.194,4.385a49.477,49.477,0,0,0,3.911,3.425c.078-2.58.382-4.431,1.436-6.089C-1573.663-289.351-1574.728-289.927-1575.712-290.5Z" transform="translate(1621.601 387.174)" fill="#454b4d"/>
        <path id="Path_2208" data-name="Path 2208" d="M-1575.125-295.014c-3.625-1.867-5.165-1.591-5.9-1.013-.638.5-.482,1.073-1.18,3.2-1.062,3.251-1.958,3.56-2.193,5.567-.191,1.644.1,4.1,1.013,4.387C-1582.436-282.567-1580.325-284.465-1575.125-295.014Z" transform="translate(1613.591 379.885)" fill="#f09f86"/>
        <path id="Path_2209" data-name="Path 2209" d="M-1549.407-290.23q.646,3.347,1.287,6.711.72,3.787,1.427,7.556c-.146,3.874-.178,7.923-.064,12.129a188.91,188.91,0,0,0,3.4,30.944,6.694,6.694,0,0,0,2.833,1.436,7.066,7.066,0,0,0,5.056-.84c1.129-4.671,2.118-9.685,2.876-15.018a161.658,161.658,0,0,0,.174-43.831Z" transform="translate(1656.436 386.383)" fill="#fcb6a1"/>
        <path id="Path_2210" data-name="Path 2210" d="M-1534.065-265.772a31.7,31.7,0,0,1,.713,3.211c.236,1.389.267,2.127.438,4.091.322,3.7.455,3.867.56,6.078.129,2.736-.02,3.651-.393,4.553a7.2,7.2,0,0,1-1.635,2.38,3.311,3.311,0,0,1-.9,2.04c-.509.491-.8.369-1.373.918-.709.687-.569,1.191-1.231,1.893a3.536,3.536,0,0,1-1.442.9,4.906,4.906,0,0,1-1.154,1.549c-.413.367-.733.644-1.155.6a1.406,1.406,0,0,1-.976-.8,2.073,2.073,0,0,1,.66-2.242q-.3-4.06-.6-8.118-.647-1.457-1.291-2.909c-.4.449-.733.84-.989,1.151-.509.611-.76.949-1.309,1.585a6.119,6.119,0,0,1-1.042,1.067,2.256,2.256,0,0,1-1.431.54c-.48-.022-1.189-.262-1.351-.744-.229-.673.749-1.409,1.567-2.4,1.222-1.48,1.431-2.74,2.058-4.531a76.654,76.654,0,0,1,5.063-10.663,5.967,5.967,0,0,1,2.978-1.273A6.1,6.1,0,0,1-1534.065-265.772Z" transform="translate(1655.706 415.973)" fill="#fcb6a1"/>
        <path id="Path_2211" data-name="Path 2211" d="M-1563.963-279.5a14.118,14.118,0,0,1-6.607,8.183c-1.291.68-5.371,2.847-9.445.9-2.467-1.178-4.863-3.785-4.949-6.747-.062-2.116,1.084-3.733,3.373-6.971a33.9,33.9,0,0,1,3.149-3.825q2.247-3.867,4.494-7.738c4.374-3.073,9.416-4.122,12.116-2.193C-1558.287-295.366-1557.633-286.9-1563.963-279.5Z" transform="translate(1612.971 376.939)" fill="#fcb6a1"/>
        <path id="Path_2212" data-name="Path 2212" d="M-1545.471-312.176c-2.669-.669-7.554-1.442-12.145.9a16.455,16.455,0,0,0-6.52,6.523c-4.489,7.294-10.023,16.4-16.274,27.137a14.463,14.463,0,0,0,6.3,6.974,14.383,14.383,0,0,0,8.4,1.649q4.64-8.674,9.223-18.216C-1552.38-295.811-1548.725-304.156-1545.471-312.176Z" transform="translate(1618.539 359.843)" fill="#f9716e"/>
        <path id="Path_2213" data-name="Path 2213" d="M-1570.924-214.751q-.794,3.957-1.591,7.909a28.064,28.064,0,0,1-4.573.9,39.459,39.459,0,0,1-4.572.149c-4.082.056-4.707.469-9.943.745-1.2.064-2.976.138-5.169.151q-.4-.823-.8-1.642a48.962,48.962,0,0,0,7.158-1.491,31.115,31.115,0,0,0,10.736-4.925,19.632,19.632,0,0,0,3.38-3.282Z" transform="translate(1597.568 477.936)" fill="#361d22"/>
        <path id="Path_2214" data-name="Path 2214" d="M-1548.735-213.153q.4,3.657.8,7.311a17.253,17.253,0,0,1-3.578.747,18.527,18.527,0,0,1-7.756-.9,17.477,17.477,0,0,0,2.387-2.836,14.578,14.578,0,0,0,1.987-4.327Z" transform="translate(1644.377 481.712)" fill="#361d22"/>
        <path id="Path_2215" data-name="Path 2215" d="M-1574.964-193.321c3.967-13.769,7.029-24.412,10.536-38.873q4.593-18.961,7.96-36.9c.5.062,1.011.127,1.516.191.136-.278.271-.553.407-.829,6.991-.5,14.547-.822,22.6-.876,10.747-.071,20.658.356,29.59,1.049l-.069,1.636q.643-.31,1.287-.622.337,5.02.485,10.189a262.55,262.55,0,0,1-3.747,51.907,184.9,184.9,0,0,1,.7,19.521,143.237,143.237,0,0,1-1.1,17.205,110.4,110.4,0,0,1-7.621,27.848,8.735,8.735,0,0,1-3.038.42,8.833,8.833,0,0,1-3.264-.776q-1.814-22.758-4.541-46.771-3.357-29.361-7.682-56.638a299.352,299.352,0,0,1-19.381,39.546,157.991,157.991,0,0,1-14.125,35.164,158.045,158.045,0,0,1-17.654,25.726,8.747,8.747,0,0,1-3.567-.238,8.752,8.752,0,0,1-3.331-1.785C-1583.08-165.684-1578.4-181.378-1574.964-193.321Z" transform="translate(1608.032 411.476)" fill="#fcb6a1"/>
        <path id="Path_2216" data-name="Path 2216" d="M-1508.18-181.255A34.5,34.5,0,0,1-1515.4-179a35.377,35.377,0,0,1-15.345-.451q-1.92-11.13-3.611-22.792-2.58-17.877-4.287-34.753c-1.151,3-3,7.745-5.416,13.538-4.5,10.812-6.942,15.685-11.509,26.4-1.684,3.951-4.142,9.843-7,17.152a42.623,42.623,0,0,1-6.318-1.58,43.938,43.938,0,0,1-14.67-8.349q3.39-11.184,6.545-23.019c4.936-18.579,8.856-36.457,11.96-53.482a94.512,94.512,0,0,1,32.721-5.643,94.1,94.1,0,0,1,24.372,3.385,38.859,38.859,0,0,1,3.585,12.978,39.055,39.055,0,0,1-2.024,16.53Q-1507.289-210.168-1508.18-181.255Z" transform="translate(1614.696 409.811)" fill="#00c6b3"/>
        <path id="Path_2217" data-name="Path 2217" d="M-1514.377-306.577a49.4,49.4,0,0,0-17.6-6.318,50.552,50.552,0,0,0-28.435,4.062,243.385,243.385,0,0,0-10.156,34.3,244.739,244.739,0,0,0-5.416,60.478,72.12,72.12,0,0,0,17.827,5.642c19.468,3.456,35.531-2.062,43.329-5.416q-.383-5.483-.676-11.058A620.623,620.623,0,0,1-1514.377-306.577Z" transform="translate(1623.766 359.109)" fill="#f9716e"/>
        <path id="Path_2218" data-name="Path 2218" d="M-1546.87-304.669q.827-7.5,1.658-15.01-9,1.257-18.005,2.518a75.249,75.249,0,0,0,.2,13.612c.616,5.831.987,9,2.86,9.7C-1556.355-292.444-1548.817-302.107-1546.87-304.669Z" transform="translate(1639.292 351.503)" fill="#fcb6a1"/>
        <path id="Path_2219" data-name="Path 2219" d="M-1554.163-312.345a29.634,29.634,0,0,1,14.843,3.6,24.893,24.893,0,0,1,8.1,6.747c3.238,4.262,3.927,8.4,4.947,13.943.907,4.929,2.349,12.463,4.5,22.492a21.977,21.977,0,0,1-7.2,4.947,23.4,23.4,0,0,1-16.194.451c-1.638-5.749-3.165-11.9-4.5-18.443A248.971,248.971,0,0,1-1554.163-312.345Z" transform="translate(1650.623 360.461)" fill="#f9716e"/>
        <path id="Path_2220" data-name="Path 2220" d="M-1564.843-329.1a46.341,46.341,0,0,0-1.1,5.567,46.587,46.587,0,0,0-.084,11.638,32.794,32.794,0,0,0-.507,5.9,32.821,32.821,0,0,0,1.427,9.367,3.144,3.144,0,0,0,2.875,2.213,29.765,29.765,0,0,0,3.458-.027,27.07,27.07,0,0,0,12.538-3.738,26.063,26.063,0,0,0,7.585-6.978,59.838,59.838,0,0,0,1.156-7.816,60.338,60.338,0,0,0-.66-15,27.88,27.88,0,0,0-9.258-3.509A29.047,29.047,0,0,0-1564.843-329.1Z" transform="translate(1635.506 336.531)" fill="#fcb6a1"/>
        <path id="Path_2221" data-name="Path 2221" d="M-1563.956-330.112a12.37,12.37,0,0,0-2.7,7.647,23.689,23.689,0,0,0,1.011,5.174c.571,2.238,1.153,4.053,1.576,5.285q.787.113,1.573.224c.813-1.618,1.565-1.851,1.94-1.882,1.738-.151,4.016,3.256,3.711,6.409a6.727,6.727,0,0,1-1.856,3.88,14.4,14.4,0,0,0,1.18,2.613,15.244,15.244,0,0,0,5.6,5.511,1.51,1.51,0,0,0,.224,1.236c.829,1.024,3.678.378,7.2-1.46,1.915,1.724,3.951,2,4.724,1.236a2.3,2.3,0,0,0,.336-1.911,12.733,12.733,0,0,0,3.149-1.911c4.32-3.589,5.009-9.194,5.623-14.845a50.333,50.333,0,0,0-.449-13.943,26.714,26.714,0,0,0-9.447-5.736C-1551.76-336.461-1561.836-331.265-1563.956-330.112Z" transform="translate(1635.351 333.999)" fill="#3a434a"/>
        <path id="Path_2222" data-name="Path 2222" d="M-1566.563-286.044a78.453,78.453,0,0,1-8.147-3.678c-1.053,1.658-1.358,3.509-1.436,6.089,1.124.887,2.336,1.778,3.68,2.649a48.994,48.994,0,0,0,14.169,6.24q.083-4.3.167-8.6A78.891,78.891,0,0,1-1566.563-286.044Z" transform="translate(1623.752 388.12)" fill="#454b4d"/>
        <path id="Path_2223" data-name="Path 2223" d="M-1548.355-310.558a17.017,17.017,0,0,0-9.785-3.316,17.069,17.069,0,0,0-8.1,2.022,18.624,18.624,0,0,0-5.623,4.442,19.5,19.5,0,0,1,8.547-2.7,19.64,19.64,0,0,1,10.569,2.249Z" transform="translate(1628.992 358.598)" fill="#454b4d"/>
        <path id="Path_2224" data-name="Path 2224" d="M-1555.3-309.737c8.623-5.963,19.13-4.889,23.694-4.422,5.365.549,14.861,1.52,20.917,8.434,5.931,6.776,5.151,15.363,3.745,30.85-1.52,16.73-2.6,28.566-12.145,36.435-6.465,5.327-13.732,6.3-17.094,6.747-2.344.313-19.552,2.613-28.788-7.871-6.136-6.967-5.322-15.683-3.824-31.712C-1567.137-288.981-1565.881-302.417-1555.3-309.737Z" transform="translate(1631.435 357.778)" fill="#e2e0e5"/>
      </g>
      <g id="Group_1025" data-name="Group 1025" transform="translate(0 73.244)">
        <path id="Path_2225" data-name="Path 2225" d="M-1678.342-212.184a17.158,17.158,0,0,0-.771,6h20.583c-.4-3.6-6.9-2.625-11.5-6Z" transform="translate(1706.351 474.879)" fill="#4c4152"/>
        <path id="Path_2226" data-name="Path 2226" d="M-1656.234-212.184a17.158,17.158,0,0,0-.771,6h20.583c-.4-3.6-6.9-2.625-11.5-6Z" transform="translate(1733.373 474.879)" fill="#4c4152"/>
        <path id="Path_2227" data-name="Path 2227" d="M-1660.6-329.659c-6.607-2.26-21.174.913-23.166,6.718s-4.491,33.075-4.491,33.075l38.3-.551S-1650.054-326.057-1660.6-329.659Z" transform="translate(1695.187 330.392)" fill="#4b525e"/>
        <path id="Path_2228" data-name="Path 2228" d="M-1662.3-301.481l4.131,22.3,1.847,44.969s-7.318.376-7.847-4.322l-5.042-39.373-1.722-19.75Z" transform="translate(1716.352 365.73)" fill="#f79e86"/>
        <path id="Path_2229" data-name="Path 2229" d="M-1665.171-283.5l9.314-2.807s-5.731-19.71-10.1-21.81a54.994,54.994,0,0,0-6.594-2.242Z" transform="translate(1714.375 354.877)" fill="#f9716e"/>
        <path id="Path_2230" data-name="Path 2230" d="M-1645.1-288.421l4.238,30.93-1.726.289-22.7.142-6.646-29.436Z" transform="translate(1715.127 381.694)" fill="#658fab"/>
        <path id="Path_2231" data-name="Path 2231" d="M-1649.431-286.783l5.342,30.783-3.041.66-21.479-.9-6.646-29.436Z" transform="translate(1711.076 383.695)" fill="#b85042"/>
        <path id="Path_2232" data-name="Path 2232" d="M-1667.882-273c.249-.167,4.393-2.4,5.389-1.245s2.429,7.147,2.429,7.147l-6.16.645Z" transform="translate(1720.088 398.614)" fill="#f79e86"/>
        <path id="Path_2233" data-name="Path 2233" d="M-1626.428-187.246s-5.474-32.859-9.294-47.518c-3.336-12.8-13.5-43.315-13.5-43.315s-.707-9.632-.707-9.887c0-.944-18.454.018-18.454.018s-15.909,15.47-18.1,26.368c-2.731,13.61,4.227,48.749,5.069,65.19.36,6.991-1.227,20.088-.471,29.243,1.711,20.7,12.976,49.1,12.976,49.1l8.651-1s-3.553-53.367-3.431-70.1c.071-9.709,3.382-46.738,3.382-46.738s13.968,43.255,15.561,49.24,3.231,18.781,5.531,24.574S-1620-117.418-1620-117.418l9.863-.987Z" transform="translate(1696.58 381.742)" fill="#f9716e"/>
        <path id="Path_2234" data-name="Path 2234" d="M-1657.86-309.191c-9.7-2.936-14.316-3.12-26.719,1.291l.936,21.01s4.885,10.278,5.871,13.925c1.1,4.08,2.18,16.774,2.18,16.774a54.154,54.154,0,0,0,23.332.616s-.76-10.778,1.289-19.794c.371-1.636.456-2.627.84-4.671.989-.891,3.16-3.418,3.313-4.98C-1646.164-291.715-1657.86-309.191-1657.86-309.191Z" transform="translate(1699.679 353.708)" fill="#e2e0e5"/>
        <path id="Path_2235" data-name="Path 2235" d="M-1681.306-310.2s6.214,6.183,11.858,5.756,3.249-5.987,3.249-5.987A29.162,29.162,0,0,0-1681.306-310.2Z" transform="translate(1703.68 353.711)" fill="#f9716e"/>
        <path id="Path_2236" data-name="Path 2236" d="M-1670.4-267.191l-9.427-16.1,3.36-12.889-12.083-3.342s-4.524,19-2.124,21.425c3.278,3.307,16,17.25,16,17.25Z" transform="translate(1691.374 368.122)" fill="#f79e86"/>
        <path id="Path_2237" data-name="Path 2237" d="M-1664.665-286.169l5.326,29.8,1.656-.341-5.192-29.785Z" transform="translate(1724.021 384.047)" fill="#fff2e8"/>
        <path id="Path_2238" data-name="Path 2238" d="M-1661.077-287.86l4.94,29.811,1.588-.183-4.812-29.914Z" transform="translate(1728.406 382.028)" fill="#fff2e8"/>
        <g id="Group_1023" data-name="Group 1023" transform="translate(19.068 5.647)">
          <path id="Path_2239" data-name="Path 2239" d="M-1680.591-301.728c2.049-3.071,3.331-12.6,3.4-16.567l8.7,2.6.5,15.621C-1668.939-296.136-1673.582-295.852-1680.591-301.728Z" transform="translate(1685.486 339.53)" fill="#f79e86"/>
          <path id="Path_2240" data-name="Path 2240" d="M-1668.524-315.365l-8.856-1.369c-.031.142-1.371.407-1.371.407,1,3.069,5.709,6.76,7.511,5.758A5.733,5.733,0,0,0-1668.524-315.365Z" transform="translate(1687.735 341.438)" fill="#edb1a1" style="mix-blend-mode: multiply;isolation: isolate"/>
          <path id="Path_2241" data-name="Path 2241" d="M-1666.027-327.192c-3.7-1.2-14.689-1.267-16.1,4.207-2.7,10.492,3.487,13.461,5.351,14.3,2.538,10.769,12.8,11.872,14.745,10.176,1.776-1.551,3.989-8.914,3.1-14.358-.744-4.538.447-6.976-.156-9.187C-1659.813-324.725-1662.185-325.949-1666.027-327.192Z" transform="translate(1682.793 327.85)" fill="#f79e86"/>
        </g>
        <path id="Path_2242" data-name="Path 2242" d="M-1691.2-287.254l16.581,5.809s4.911-13.838,4.645-17.267-6.52-11.067-6.52-11.067a40.6,40.6,0,0,0-7.127,3.493C-1686.024-304.572-1691.2-287.254-1691.2-287.254Z" transform="translate(1691.591 355.587)" fill="#f9716e"/>
        <g id="Group_1024" data-name="Group 1024" transform="translate(16.698 94.344)">
          <path id="Path_2243" data-name="Path 2243" d="M-1669.012-278.508c.351-.764-4.247-3.225-5.443-3.849,1.078.549,4.954,2.44,5.212,1.327.322-1.387-4.807-3.531-5.5-3.64a12.551,12.551,0,0,0-2.924.522l1.8-1.367s3.009-1.5,2.427-2.22c-.373-.458-2.82-.067-3.562.413a43.863,43.863,0,0,0-4.4,4.487l-2.462,7.825s1.571-.749,2.942-1.287a5.373,5.373,0,0,1,1.825-.358c1.113.127,7.151,2.447,7.422,1.933.416-.791-2.682-2.493-4.169-3.256,1.573.762,5.067,2.338,5.573,1.536.471-.749-5.609-3.951-5.609-3.951S-1669.659-277.1-1669.012-278.508Z" transform="translate(1683.86 287.939)" fill="#f79e86"/>
        </g>
        <path id="Path_2244" data-name="Path 2244" d="M-1676.562-322.962c-3.084,12.007-11.692,33.081-11.692,33.081l20.946.564.4-28.586,16.736-.536s.6-12.129-13.739-11.94A15.226,15.226,0,0,0-1676.562-322.962Z" transform="translate(1695.187 330.406)" fill="#4b525e"/>
      </g>
      <g id="Group_1028" data-name="Group 1028" transform="translate(83.586 176.717)">
        <g id="Group_1026" data-name="Group 1026" transform="translate(78.555)">
          <path id="Path_2245" data-name="Path 2245" d="M-1600.089-274.671a9.171,9.171,0,0,1-9.163,9.163,9.173,9.173,0,0,1-9.163-9.163,9.172,9.172,0,0,1,9.163-9.16A9.171,9.171,0,0,1-1600.089-274.671Zm-15.8,0a6.641,6.641,0,0,0,6.634,6.636,6.643,6.643,0,0,0,6.636-6.636,6.643,6.643,0,0,0-6.636-6.634A6.641,6.641,0,0,0-1615.885-274.671Z" transform="translate(1618.414 283.831)" fill="#00c6b3"/>
        </g>
        <path id="Path_2246" data-name="Path 2246" d="M-1653.762-276.77l13.867,5.342v-10.685Z" transform="translate(1653.762 285.932)" fill="#00c6b3"/>
        <g id="Group_1027" data-name="Group 1027" transform="translate(12.603 7.898)">
          <path id="Path_2247" data-name="Path 2247" d="M-1579.61-279.015a1.264,1.264,0,0,1-1.264,1.265h-65.952a1.264,1.264,0,0,1-1.264-1.265,1.263,1.263,0,0,1,1.264-1.262h65.952A1.263,1.263,0,0,1-1579.61-279.015Z" transform="translate(1648.091 280.277)" fill="#00c6b3"/>
        </g>
      </g>
    </g>
  </g>
</svg>
