<svg id="Group_1003" data-name="Group 1003" xmlns="http://www.w3.org/2000/svg" width="97.418" height="302.047" viewBox="0 0 97.418 302.047">
  <g id="Group_1000" data-name="Group 1000" transform="translate(1.375 294.405)">
    <path id="Path_2122" data-name="Path 2122" d="M-788.718,26.6s1.445-2.631,2.985-3.376,10.074-2.391,10.074-2.391l12.716.007-.6,7.636Z" transform="translate(788.719 -20.837)" fill="#b85042"/>
    <rect id="Rectangle_505" data-name="Rectangle 505" width="25.348" height="1.863" transform="translate(0 5.773)" fill="#4c4152"/>
  </g>
  <g id="Group_1001" data-name="Group 1001" transform="translate(71.643 294.405)">
    <path id="Path_2123" data-name="Path 2123" d="M-731.324,26.6s-1.445-2.631-2.985-3.376-10.074-2.391-10.074-2.391l-12.716.007.6,7.636Z" transform="translate(757.099 -20.837)" fill="#b85042"/>
    <rect id="Rectangle_506" data-name="Rectangle 506" width="25.348" height="1.863" transform="translate(25.775 7.631) rotate(179.975)" fill="#4c4152"/>
  </g>
  <path id="Path_2124" data-name="Path 2124" d="M-754.614-34.36s.1,4.191.818,4.6a29.17,29.17,0,0,0,4.293,1.089l1.229-3.645Z" transform="translate(831.779 206.099)" fill="#f79e86"/>
  <path id="Path_2125" data-name="Path 2125" d="M-778.506-38.557s-3.747,9.66-3.394,10.723,4.074,7.338,5.576,7.778,4.5-6.54,4.5-6.54l-2.06-11.872Z" transform="translate(798.398 200.969)" fill="#f79e86"/>
  <path id="Path_2126" data-name="Path 2126" d="M-782.969-66.751s-3.345,14.483-3.3,18.539c.064,5.24,6.371,34.139,11.918,47.178l5.1-.024-.453-64.4Z" transform="translate(793.092 166.507)" fill="#f79e86"/>
  <path id="Path_2127" data-name="Path 2127" d="M-783.727,103.853l14.7,2.369c11.841-37.562,17.785-98.724,21.2-142.6,4.909,43.993,10.145,99.509,23.419,142.473l15.856-2.238C-714.046,59.7-719.093,5.76-724.086-47.08l-48.2,3.229C-775.218,3.558-778.424,57.251-783.727,103.853Z" transform="translate(796.194 190.551)" fill="#00c6b3"/>
  <path id="Path_2128" data-name="Path 2128" d="M-775.979-82.176c-.242.753-4.5,92.453-4.5,92.453,17.8,4.849,37.813,4.089,57.514.753L-728.2-83.434C-742.394-90.1-761.657-90.2-775.979-82.176Z" transform="translate(800.16 140.141)" fill="#f9716e"/>
  <path id="Path_2129" data-name="Path 2129" d="M-789.337-37.485c4.742-16.687,11.12-32.164,14.963-42.086.762-1.971,9.218-5.985,9.218-5.985l-2.218,52.918C-775.95-32.407-783.983-32.971-789.337-37.485Z" transform="translate(789.337 143.521)" fill="#ffb3c1"/>
  <g id="Group_1002" data-name="Group 1002" transform="translate(26.702 0)">
    <path id="Path_2130" data-name="Path 2130" d="M-769-94.812c.847.38.322,12.341-2.358,17.6,6.131,5.362,13.178,4.514,19.3.113a90.753,90.753,0,0,1-2.145-18.51Z" transform="translate(784.61 131.23)" fill="#f79e86"/>
    <path id="Path_2131" data-name="Path 2131" d="M-754.971-87.593c-.249-2.582-.447-5.234-.531-8.02l-14.8.8c.449.2.5,3.653.064,7.634a23.458,23.458,0,0,0,4.334,3.833c1.333.791,6.045.5,7.085-.084A11.533,11.533,0,0,0-754.971-87.593Z" transform="translate(785.907 131.228)" fill="#edb1a1" style="mix-blend-mode: multiply;isolation: isolate"/>
    <path id="Path_2132" data-name="Path 2132" d="M-736.514-91.953c.3,1.053,1.367,3.54,1.258,5.625-.042.938-.736,7.654-1.118,7.9s-2.76-.822-3.3-.276.416,1.8.429,2.358-1.74,3.527-2.469,4.4c-2.062,2.4-20.065-.207-20.065-.207s-6.214.964-6.6-.549a17.645,17.645,0,0,1-.073-4.514s-4.911.371-5.449-3.2c-.538-3.547,1.224-5.678.687-6.594s-4.353-2.353-4.093-5.054,3.773-10.7,5.211-11.7c1.784-1.282,4.7,1.511,6.382.413,1.158-.756.707-6.274,4.94-7.716,4.231-1.42,5.285,2.907,6.467,3,1.182.116,5.671-5.06,7.22-3.136,1.524,1.922,2.813,6.365,4.338,7.349,1.527.962,8.031,1.791,8.287,3.622C-734.182-98.429-736.814-93.029-736.514-91.953Z" transform="translate(777.322 111.639)" fill="#293345"/>
    <path id="Path_2133" data-name="Path 2133" d="M-770.188-89.539s.578,10.32,1.267,11.638,5.107,6.84,6.174,7.391,6.182.811,6.969-.049c.344-.373,4.836-5.442,5.2-7.6.929-5.449,2.189-15.432,2.076-16.3-.2-1.542-2.1-12.114-7.68-12.889s-15.3,2.787-16.292,5.278S-770.188-89.539-770.188-89.539Z" transform="translate(783.019 116.759)" fill="#f79e86"/>
    <path id="Path_2134" data-name="Path 2134" d="M-767.182-90.261s-5.943-.224-6.247-3.482-.393-6.751,1.067-7.267,4.636,2.369,4.636,2.369Z" transform="translate(781.857 124.556)" fill="#f79e86"/>
    <path id="Path_2135" data-name="Path 2135" d="M-763.3-90.125s5.943-.224,6.245-3.482.393-6.751-1.065-7.267-4.636,2.369-4.636,2.369Z" transform="translate(794.456 124.722)" fill="#f79e86"/>
    <path id="Path_2136" data-name="Path 2136" d="M-770.074-90.789c.111.2,1.3,2.689,2.429,2.387s4.385-1.7,4.7-2.985c.162-.667-2.871-1.271-2.6-2.093s1.611-2.26,2.347-1.947c.967.409,1.733,2.3,3.965,2.02s3.242-1.569,4.46-1.631a3.98,3.98,0,0,1,3.082,1.218c.336.764.8,3.685,1.6,4.62,1.218,1.429,3.693-.891,3.927-1.418,1.158-2.6-4.914-18.863-8.1-18.747s-19.848,5.791-19.7,9.031S-770.074-90.789-770.074-90.789Z" transform="translate(781.407 114.417)" fill="#293345"/>
  </g>
  <path id="Path_2137" data-name="Path 2137" d="M-772.73-86.631l-5.036,34.9-1.355,1.747,1.48-34.255C-776.342-85-774.615-85.78-772.73-86.631Z" transform="translate(801.823 142.207)" fill="#2f3b4f"/>
  <path id="Path_2138" data-name="Path 2138" d="M-759.185-87.029l5.049,34.944,1.629,1.811-1.98-34.868A28.627,28.627,0,0,0-759.185-87.029Z" transform="translate(826.192 141.721)" fill="#2f3b4f"/>
  <path id="Path_2139" data-name="Path 2139" d="M-756.544-49.726v.605h-2.607v-.605h-1.256v35.408l28.722.419V-49.307Z" transform="translate(824.697 187.317)" fill="#a9c4d3"/>
  <path id="Path_2140" data-name="Path 2140" d="M-748.067-39.194s4.256,9.378,4.014,10.469-4.389,5.754-6.434,6.06c-1.549.231-3.007-3.951-3.007-3.951l.293-11.676Z" transform="translate(833.149 200.19)" fill="#f79e86"/>
  <path id="Path_2141" data-name="Path 2141" d="M-742.866-66.856s4.807,14.065,5.171,18.105c.471,5.22-2.854,34.61-7.04,48.149l-5.076.493-6.125-64.109Z" transform="translate(830.164 166.379)" fill="#f79e86"/>
  <path id="Path_2142" data-name="Path 2142" d="M-733.266-39.039c-4.743-16.687-10.856-31.3-14.7-41.226-.762-1.971-9.218-5.985-9.218-5.985l3.193,52.685C-745.414-33.334-738.62-34.525-733.266-39.039Z" transform="translate(828.642 142.673)" fill="#ffb3c1"/>
  <path id="Path_2143" data-name="Path 2143" d="M-759.659-49.454l-.333,33.978,2.048-.082.893-33.9Z" transform="translate(825.205 187.65)" fill="#fff2e8"/>
</svg>
