<svg id="Group_976" data-name="Group 976" xmlns="http://www.w3.org/2000/svg" width="241.996" height="302.047" viewBox="0 0 241.996 302.047">
  <path id="Path_1949" data-name="Path 1949" d="M-592.852-103.186a20.049,20.049,0,0,0-8.672-5.256,20.384,20.384,0,0,0-16.292,2.367c-8.274,5.538-10.865,21.5-2.891,37.575.76.462,10.087,5.967,18.132,1.576a14.486,14.486,0,0,0,4.729-4.2,51.925,51.925,0,0,1-5.256-11.3c-1.344-4.136-5.267-16.192-.787-19.445.54-.393,3.316-2.189,10.509,1.578Z" transform="translate(708.661 114.62)" fill="#2f3b42"/>
  <path id="Path_1950" data-name="Path 1950" d="M-605.6-105.806a3.748,3.748,0,0,0-2.562-1.773,3.038,3.038,0,0,0-1.051.064,1.794,1.794,0,0,0-.722-.789c-1.1-.6-2.54.418-2.693.527-2.038,1.433-2.476,5.094-1.313,5.911.289.2.865.364,2.1-.2a2.841,2.841,0,0,0,.658,1.378,2.983,2.983,0,0,0,2.431.92C-607.189-99.948-605.7-102.374-605.6-105.806Z" transform="translate(722.044 115.489)" fill="#fbabff"/>
  <path id="Path_1951" data-name="Path 1951" d="M-578.839-19.254q-2.857,2.66-5.716,5.32a89.042,89.042,0,0,0-11.458-2.489c-25.034-3.734-46.384,4.051-59.2,10.349a6.953,6.953,0,0,0-1.516,4.489,6.815,6.815,0,0,0,1.184,3.6A102.585,102.585,0,0,1-643.369.54c23.241-1.387,53.345,4.84,64.136,3.262a20.162,20.162,0,0,0,6.109-1.971,18.506,18.506,0,0,0,5.911-5.122Q-573.026-11.275-578.839-19.254Z" transform="translate(670.517 224.563)" fill="#fcb6a1"/>
  <path id="Path_1952" data-name="Path 1952" d="M-647.3-14.41a4.316,4.316,0,0,1,1.689,3.056,4.377,4.377,0,0,1-1.518,3.511q.237,1.36.469,2.718a5.651,5.651,0,0,1,1.94-.582,3.311,3.311,0,0,1,2.329.342c.469.313,1.1.984.942,1.48-.2.613-1.48.536-2.82.758A11.053,11.053,0,0,0-650.4.111c-1.9,2.129-1.749,4.5-3.436,4.854a2.256,2.256,0,0,1-1.262-.124,9.415,9.415,0,0,0-1.391,2.249c-1.2,2.762-.342,4.547-1.433,5.929-.527.669-1.644,1.413-4.351,1.289a32.106,32.106,0,0,1-.644-5.329A33.279,33.279,0,0,1-660.091-5.51a16.343,16.343,0,0,1-.113-3.8,16.235,16.235,0,0,1,.74-3.627l2.527.249a6.262,6.262,0,0,1,3.011-1.473c1.471-.249,2.353.231,4.516.076A12.851,12.851,0,0,0-647.3-14.41Z" transform="translate(662.934 230.484)" fill="#54433e"/>
  <path id="Path_1953" data-name="Path 1953" d="M-588.731-3.8l5.907,7.654a90.738,90.738,0,0,0,3.7,12.878c8.887,24.066,26.128,39.08,37.388,47.051a6.941,6.941,0,0,0,4.665-.816,6.828,6.828,0,0,0,2.6-2.76q-3.6-4.737-7.114-9.989A199.952,199.952,0,0,1-567-4.681q-3.9-6.117-7.8-12.236Z" transform="translate(753.635 227.42)" fill="#fcb6a1"/>
  <path id="Path_1954" data-name="Path 1954" d="M-594.979-59.118a51.319,51.319,0,0,0,6.436,8.707,51.151,51.151,0,0,0,5.616,5.267,98.249,98.249,0,0,0,12.554-3.811,101.053,101.053,0,0,0,31.279-19.023,7.048,7.048,0,0,0-.478-2.365,7.5,7.5,0,0,0-3.234-3.669,62.252,62.252,0,0,1-5.871,3.211c-4.7,2.253-8.483,3.333-19.387,6.16-4.567,1.184-8.463,2.176-11.441,2.929q-2.17-3.117-4.336-6.234Z" transform="translate(745.997 157.632)" fill="#fcb6a1"/>
  <path id="Path_1955" data-name="Path 1955" d="M-605.849-83.914a24.358,24.358,0,0,0,.6,10.963,25.776,25.776,0,0,0,6.325,10.329A176.394,176.394,0,0,1-582.439-41a14.06,14.06,0,0,0,8.867-2.656,14.039,14.039,0,0,0,5.167-7.443l-12.474-20.654a35.449,35.449,0,0,0-2.958-6.5c-1.671-2.867-3.527-6.051-6.3-7.687C-596.276-89.554-604.936-84.465-605.849-83.914Z" transform="translate(732.271 141.477)" fill="#6b46b2"/>
  <path id="Path_1956" data-name="Path 1956" d="M-572.567-65.666a13.4,13.4,0,0,0,1.518-2.133c.789-1.371.711-1.8,1.467-3.253a8.145,8.145,0,0,1,2.42-3.222c.838-.589.829-.224,2.838-1.085,2.175-.931,3.265-1.4,4.256-2.489.493-.544.833-1.1,1.153-1.009.369.1.451.982.409,1.513a3.423,3.423,0,0,1-.813,1.878,7.723,7.723,0,0,1-1.34,1.153c.044.078,1.207-.5,2.773-1.1,1.509-.587,1.9-.627,2.22-.458.416.218.593.7.784,1.842a12.669,12.669,0,0,1,.073,5.754,6.436,6.436,0,0,1-1.18,2.8A6.424,6.424,0,0,1-559.46-63.5c-2.762.787-5.689,1.589-8.849,2.385Q-570.439-63.388-572.567-65.666Z" transform="translate(773.392 151.697)" fill="#fcb6a1"/>
  <path id="Path_1957" data-name="Path 1957" d="M-565.311-17.168A161.327,161.327,0,0,1-584.23,3.853a161.517,161.517,0,0,1-24.7,18.921,17.27,17.27,0,0,1-9.458-3.68A17.716,17.716,0,0,1-624.7,7.533q5.767-7.127,11.56-14.716,11.634-15.244,21.548-29.955a27.269,27.269,0,0,1,14.714,4.2A27.826,27.826,0,0,1-565.311-17.168Z" transform="translate(709.674 202.703)" fill="#d85252"/>
  <path id="Path_1958" data-name="Path 1958" d="M-605.759-47.259a25.4,25.4,0,0,0-6.062,10.7c-2.587,9.812,1.993,19.2,8.427,29.128,12.878,19.868,29.479,36.157,43.133,47.749a25.153,25.153,0,0,0,9.594-3.182,25.541,25.541,0,0,0,9.689-10.1q-5.873-10.827-11.631-22.737c-7.007-14.554-12.945-28.6-18-41.929Q-588.183-42.438-605.759-47.259Z" transform="translate(724.512 190.332)" fill="#f9716e"/>
  <path id="Path_1959" data-name="Path 1959" d="M-585.36-85.734a42.694,42.694,0,0,1,7,4.936c2.66,5.54,4.876,9.947,6.4,12.941.282.553,2.538,4.969,5.256,10.774,2.607,5.574,2.791,6.365,2.889,7.089.289,2.127.249,6.787-5.518,13.143a318.731,318.731,0,0,1,4.665,42.831q.266,6.584.262,12.876a68.186,68.186,0,0,1-20.232,0,68.4,68.4,0,0,1-24.437-8.671l5.32-6.943c-.087-2.138-.24-5.3-.525-9.118-.982-13.129-2.678-22.788-3.416-27.112-1.716-10.054-3.9-24.472-6.834-46.582a50.015,50.015,0,0,1,9.46-6.407,51.918,51.918,0,0,1,9.589-3.847A42.559,42.559,0,0,1-585.36-85.734Z" transform="translate(722.102 138.303)" fill="#6b46b2"/>
  <path id="Path_1960" data-name="Path 1960" d="M-583.994-88.265a36.68,36.68,0,0,0-3.943,6.307,36.941,36.941,0,0,0-3.418,11.147,16.105,16.105,0,0,1-6.245-.856,17.263,17.263,0,0,1-9.125-7.86c1.211-2.151,2.438-4.538,3.613-7.16a87.766,87.766,0,0,0,3.349-8.671,9.718,9.718,0,0,1,5.323-1.578C-590.063-96.852-585.921-93.416-583.994-88.265Z" transform="translate(731.641 129.609)" fill="#fcb6a1"/>
  <path id="Path_1961" data-name="Path 1961" d="M-577.977-107.922a28.1,28.1,0,0,0-8.569-1.6c-2.773-.078-14.247-.438-19.545,7.471-4.389,6.551-3.582,16.158,2.327,23.3l11.454.833c1.658,3.016,5.387,8.769,11.563,10.9,1.273.44,4.18,1.445,5.649.131,1.342-1.2.473-3.445,2.365-5.091a2.685,2.685,0,0,0,1.182-1.676,1.908,1.908,0,0,0-.344-1.182,1.525,1.525,0,0,0,.789-.74c.2-.46.018-.893-.149-1.527a11.069,11.069,0,0,1-.338-2.147c1-.324,2.269-.884,2.407-1.793.135-.884-.871-1.589-1.7-2.542a10.249,10.249,0,0,1-2.267-6.109,26.543,26.543,0,0,0-.689-9.36A26.6,26.6,0,0,0-577.977-107.922Z" transform="translate(729.007 114.19)" fill="#fcb6a1"/>
  <path id="Path_1962" data-name="Path 1962" d="M-570.33-98.772c-1.422.016-2.9-.013-4.436-.1a69.123,69.123,0,0,1-12.689-1.893,81.63,81.63,0,0,1,1.907,9.392c.247,1.731.429,3.4.556,4.994q-.787.1-1.576.2c-.129-.124-2.409-2.273-4.389-1.565-2.222.8-2.96,4.814-1.4,7.254a6.331,6.331,0,0,0,3.956,2.527,12.262,12.262,0,0,1-3.725,5.716c-1.991,1.693-5.551,3.571-6.865,2.527a1.983,1.983,0,0,1-.522-1.7,32.815,32.815,0,0,1-4.362-3.958c-2.122-2.3-9.625-10.445-8.283-20.75A16.728,16.728,0,0,1-609-104.541c8.369-10.8,32.484-8.436,37.588,1.433A10.2,10.2,0,0,1-570.33-98.772Z" transform="translate(724.809 111.639)" fill="#2f3b42"/>
  <path id="Path_1963" data-name="Path 1963" d="M-617.824-72.373a51.477,51.477,0,0,0-6.307,8.8,51.3,51.3,0,0,0-3.285,6.965,98.658,98.658,0,0,0,7.489,10.774,101.057,101.057,0,0,0,27.721,23.91,6.982,6.982,0,0,0,2.1-1.182,7.47,7.47,0,0,0,2.5-4.2,62.6,62.6,0,0,1-4.86-4.6c-3.589-3.782-5.78-7.047-11.825-16.554-2.529-3.98-4.674-7.383-6.3-9.985q2.3-3.02,4.6-6.042Z" transform="translate(706.349 159.635)" fill="#fcb6a1"/>
  <path id="Path_1964" data-name="Path 1964" d="M-590.47-88.571a24.336,24.336,0,0,0-10.249,3.94,25.809,25.809,0,0,0-7.883,9.2A176.569,176.569,0,0,1-624.1-53.1a14.061,14.061,0,0,0,5.256,7.62,14.037,14.037,0,0,0,8.672,2.627l19.708-21.808a46.218,46.218,0,0,0,1.576-11.825A46.175,46.175,0,0,0-590.47-88.571Z" transform="translate(710.396 139.836)" fill="#6b46b2"/>
  <path id="Path_1965" data-name="Path 1965" d="M-609.2-52.775a13.517,13.517,0,0,0,2.5.789c1.549.329,1.936.122,3.547.393a8.14,8.14,0,0,1,3.811,1.316c.818.613.469.718,1.9,2.365,1.556,1.785,2.336,2.678,3.678,3.285.669.3,1.3.453,1.313.787.014.382-.8.731-1.313.856a3.4,3.4,0,0,1-2.036-.2,7.822,7.822,0,0,1-1.511-.92c-.06.067.842,1,1.9,2.3,1.022,1.253,1.178,1.609,1.118,1.971-.078.46-.487.782-1.511,1.313a12.672,12.672,0,0,1-5.454,1.838,6.442,6.442,0,0,1-3.02-.262,6.4,6.4,0,0,1-2.956-2.693c-1.6-2.387-3.262-4.922-4.994-7.685Q-610.712-50.048-609.2-52.775Z" transform="translate(724.921 183.59)" fill="#fcb6a1"/>
  <path id="Path_1966" data-name="Path 1966" d="M-568.61,25.382a4.305,4.305,0,0,1,1.876-2.94,4.379,4.379,0,0,1,3.809-.349q1.083-.853,2.165-1.709a5.7,5.7,0,0,1-1.44-1.427,3.324,3.324,0,0,1-.813-2.209c.051-.56.338-1.44.851-1.536.633-.118,1.176,1.044,2.013,2.116a11.046,11.046,0,0,0,5.773,3.834c2.776.649,4.785-.613,5.9.7a2.284,2.284,0,0,1,.493,1.169,9.414,9.414,0,0,0,2.64.149c3-.262,4.158-1.873,5.891-1.578.84.144,2.029.771,3.214,3.207a32.161,32.161,0,0,1-4.373,3.113,33.276,33.276,0,0,1-14.074,4.447,16.2,16.2,0,0,1-3.285,1.916,16.273,16.273,0,0,1-3.538,1.084q-.493-1.17-.989-2.338a6.264,6.264,0,0,1-2.733-1.942c-.922-1.173-.922-2.178-2.091-4A13.414,13.414,0,0,0-568.61,25.382Z" transform="translate(778.229 266.682)" fill="#54433e"/>
  <path id="Path_1967" data-name="Path 1967" d="M-622.015-71.623a29.851,29.851,0,0,1-2.234-7.883c-1.924-13.912,6.767-24.95,9.327-27.983a30.638,30.638,0,0,0-8.8,10.116c-5.945,11.109-2.791,22.321-1.971,24.963Z" transform="translate(706.533 116.712)" fill="#2f3b42"/>
</svg>
