<svg id="Group_993" data-name="Group 993" xmlns="http://www.w3.org/2000/svg" width="102.657" height="276.708" viewBox="0 0 102.657 276.708">
  <path id="Path_2069" data-name="Path 2069" d="M-934.585-215.166c-.633.689-1.518,1.693-2.511,2.965a20.65,20.65,0,0,0-3.4,5.214,19.007,19.007,0,0,0-1.093,4.542,5.855,5.855,0,0,0-.056,1.851,5.616,5.616,0,0,0,.507,1.653,1.8,1.8,0,0,0,.011,1.38,1.8,1.8,0,0,0,.956.927c.189.991.542,1.689.889,1.687.4,0,.722-.94.749-1.018a3.116,3.116,0,0,0,.135-1.233,7.049,7.049,0,0,1,.6-2.842,8.665,8.665,0,0,1,1.687-2.858l1.944-2.471c-.187.793-.351,1.447-.467,1.9-.449,1.753-.647,2.338-.367,3.022.164.4.533.936.869.893.467-.058.635-1.2.853-2.162.511-2.247,1.047-2.453,1.891-4.854a24.765,24.765,0,0,0,1.293-6.245Z" transform="translate(942.676 350.722)" fill="#fcb6a1"/>
  <path id="Path_2070" data-name="Path 2070" d="M-891.558-250.935a29.013,29.013,0,0,1-.982,6.109,29.07,29.07,0,0,1-2.793,6.736q-7.287,16.064-14.576,32.128-2.44,5.41-5.451,11.094A190.26,190.26,0,0,1-934.7-165.509a3.656,3.656,0,0,1-2.653-.382,3.78,3.78,0,0,1-1.733-2.8c2.551-6.418,5.5-13.194,8.9-20.234,3.3-6.825,6.68-13.152,10.025-18.979,4.253-10.36,7.312-18.479,9.351-24.074,1.7-4.671,3.042-8.534,6.709-12.214A26.006,26.006,0,0,1-891.558-250.935Z" transform="translate(945.866 307.001)" fill="#fcb6a1"/>
  <path id="Path_2071" data-name="Path 2071" d="M-889.912-158.933a13.391,13.391,0,0,1,1.356,2.956,13.474,13.474,0,0,1,.616,3.449,20.323,20.323,0,0,1-2.833,2.956,15.329,15.329,0,0,1-6.034,3.449c-2.462.66-5.451.633-5.667-.124-.167-.591,1.469-1.251,3.449-2.956a18.988,18.988,0,0,0,4.311-5.418Q-892.314-156.778-889.912-158.933Z" transform="translate(990.597 419.457)" fill="#6f84b8"/>
  <path id="Path_2072" data-name="Path 2072" d="M-924.8-154.857a13.377,13.377,0,0,1-.682,3.18,13.447,13.447,0,0,1-1.571,3.131,24.742,24.742,0,0,1-4.04.671c-2.518.2-7.176.582-9.865-2.125-.173-.171-1.471-1.5-1.109-2.216s2.131-.28,4.143-.3a14.991,14.991,0,0,0,6.7-1.76Z" transform="translate(942.135 424.439)" fill="#6f84b8"/>
  <path id="Path_2073" data-name="Path 2073" d="M-923.957-248.368a5.058,5.058,0,0,1-.122-3.325,5.317,5.317,0,0,1,4.187-3.449,6.04,6.04,0,0,1-.616,3.94A6.1,6.1,0,0,1-923.957-248.368Z" transform="translate(963.925 301.859)" fill="#fcd200"/>
  <path id="Path_2074" data-name="Path 2074" d="M-901.4-188.486q1.627,4.05,3.251,8.1a81.94,81.94,0,0,1,8.325,8.774c14.654,17.939,18.441,38.228,19.483,50.638a61.3,61.3,0,0,1-5.551,5.551c-.84.736-1.647,1.4-1.847,1.231-.247-.2.542-1.578,1.291-2.769q-2.037-4.974-4.514-10.109a180.505,180.505,0,0,0-31.073-44.913l-5.947-11.674Q-909.694-186.071-901.4-188.486Z" transform="translate(971.654 383.334)" fill="#fcb6a1"/>
  <path id="Path_2075" data-name="Path 2075" d="M-906.62-181.4l-2.993,8.2a81.8,81.8,0,0,1,.338,12.092c-1.069,22.981-11.674,40.5-19.119,50.4a52.6,52.6,0,0,1-6.3.816c-.551.04-5.345.371-5.42-.122-.029-.2.7-.591,4.289-1.487q1.807-5.057,3.394-10.538a180.54,180.54,0,0,0,6.869-54.18l3.371-12.661Z" transform="translate(944.607 382.854)" fill="#fcb6a1"/>
  <path id="Path_2076" data-name="Path 2076" d="M-896.456-220.615a33.99,33.99,0,0,1,9.965,16.725,33.486,33.486,0,0,1,.355,14.234l6.76,44.48a59.855,59.855,0,0,1-14.945,4.982,59.7,59.7,0,0,1-11.032,1.067q-1.243,1.96-2.491,3.916a26.965,26.965,0,0,1-15.3-1.069,26.627,26.627,0,0,1-9.878-6.607q2.1-10.92,3.8-22.743c2.053-14.436,3.327-28.146,4.036-41Q-910.824-213.619-896.456-220.615Z" transform="translate(953.273 344.062)" fill="#f9716e"/>
  <path id="Path_2077" data-name="Path 2077" d="M-910.894-252.776a38.274,38.274,0,0,0-6.316,4.456,198.508,198.508,0,0,1-8.887,17.8c-2.664,4.718-4.433,7.376-4.507,11.387-.1,5.258,2.776,9.52,4.982,12.1a285.3,285.3,0,0,0-3.954,37.062q-.244,5.947-.238,11.623a65.421,65.421,0,0,0,18.265,0,65.579,65.579,0,0,0,21.277-6.863q-1.727-4.187-3.449-8.374-.864-11.457-1.725-22.91,3.71-23.238,7.423-46.478a32.4,32.4,0,0,0-7.829-9.609,31.874,31.874,0,0,0-5.909-3.885A38.33,38.33,0,0,0-910.894-252.776Z" transform="translate(956.226 300.237)" fill="#00c6b3"/>
  <path id="Path_2078" data-name="Path 2078" d="M-926.166-255.06a33.093,33.093,0,0,1,3.558,5.694,33.341,33.341,0,0,1,3.087,10.065,14.564,14.564,0,0,0,5.638-.773,15.6,15.6,0,0,0,8.238-7.1c-1.1-1.94-2.2-4.1-3.262-6.465a79.082,79.082,0,0,1-3.025-7.827,8.771,8.771,0,0,0-4.8-1.425C-920.688-262.814-924.428-259.711-926.166-255.06Z" transform="translate(961.653 292.388)" fill="#fcb6a1"/>
  <path id="Path_2079" data-name="Path 2079" d="M-923.168-272.808a25.457,25.457,0,0,1,7.734-1.449c2.5-.069,12.865-.393,17.647,6.747,3.962,5.914,3.234,14.587-2.1,21.034l-10.343.751c-1.5,2.725-4.862,7.918-10.438,9.845-1.149.4-3.773,1.307-5.1.12-1.211-1.087-.427-3.109-2.136-4.6a2.414,2.414,0,0,1-1.067-1.511,1.734,1.734,0,0,1,.311-1.067,1.384,1.384,0,0,1-.711-.669c-.178-.413-.018-.807.133-1.378a9.912,9.912,0,0,0,.307-1.938c-.9-.293-2.049-.8-2.176-1.62-.122-.8.789-1.433,1.531-2.294a9.248,9.248,0,0,0,2.047-5.516,24.04,24.04,0,0,1,.622-8.452A24.005,24.005,0,0,1-923.168-272.808Z" transform="translate(955.601 278.466)" fill="#fcb6a1"/>
  <path id="Path_2080" data-name="Path 2080" d="M-922.764-245.664a13.854,13.854,0,0,1,1.353-2.956,13.918,13.918,0,0,1,2.834-3.327l8.989-4.8a6.183,6.183,0,0,1,1.849,1.724,6.279,6.279,0,0,1,1.109,3.078,28.367,28.367,0,0,1-5.913,3.7A28.558,28.558,0,0,1-922.764-245.664Z" transform="translate(965.812 299.895)" fill="#00c6b3"/>
  <path id="Path_2081" data-name="Path 2081" d="M-928.941-264.546c1.282.013,2.618-.013,4-.089a62.146,62.146,0,0,0,11.456-1.709,25.958,25.958,0,0,0-1.722,8.478,26.229,26.229,0,0,0,2.573,12.1,24.241,24.241,0,0,0,.373,7.323c.46,2.236,1.147,5.376,2.956,7.145,4.122,4.027,15.623,2.345,20.2-3.942,3.745-5.147,1.8-12.407-2.078-26.928-1.585-5.925-2.438-7.062-2.847-7.591-7.556-9.749-29.326-7.616-33.935,1.3A9.137,9.137,0,0,0-928.941-264.546Z" transform="translate(958.261 276.164)" fill="#2c373b"/>
  <path id="Path_2082" data-name="Path 2082" d="M-919.993-164.492q6.157-18.474,12.316-36.948l-5.174,36.208Z" transform="translate(969.199 367.5)" fill="#c93535"/>
  <path id="Path_2083" data-name="Path 2083" d="M-899.684-213.03c.369.858.876,2.1,1.393,3.625a20.631,20.631,0,0,1,1.487,6.043,18.91,18.91,0,0,1-.464,4.647,5.8,5.8,0,0,1-.558,1.767,5.576,5.576,0,0,1-1.022,1.4,1.794,1.794,0,0,1-.464,1.3,1.781,1.781,0,0,1-1.209.558c-.5.876-1.067,1.418-1.393,1.3-.378-.136-.373-1.127-.371-1.209a3.111,3.111,0,0,1,.278-1.209,7.033,7.033,0,0,0,.371-2.88,8.67,8.67,0,0,0-.649-3.253q-.513-1.49-1.024-2.976c-.084.811-.144,1.482-.184,1.953-.156,1.8-.162,2.42-.651,2.973-.289.327-.813.709-1.116.558-.42-.209-.2-1.34-.093-2.325.258-2.289-.178-2.66-.187-5.2a24.9,24.9,0,0,1,.838-6.323Z" transform="translate(986.862 353.333)" fill="#fcb6a1"/>
  <path id="Path_2084" data-name="Path 2084" d="M-911.3-253.618a28.988,28.988,0,0,1,3.347,5.2,29.119,29.119,0,0,1,2.416,6.88q5.3,16.824,10.6,33.65c1.194,3.771,2.323,7.738,3.345,11.9a190.069,190.069,0,0,1,5.207,34.766,3.657,3.657,0,0,1-2.231,1.487,3.774,3.774,0,0,1-3.16-.929c-2.385-6.48-4.716-13.492-6.88-21.01-2.1-7.287-3.8-14.252-5.2-20.821-3.749-10.554-6.891-18.641-9.109-24.17-1.851-4.614-3.431-8.383-3.16-13.572A26,26,0,0,1-911.3-253.618Z" transform="translate(973.882 303.722)" fill="#fcb6a1"/>
  <path id="Path_2085" data-name="Path 2085" d="M-909.925-254.228a15.055,15.055,0,0,1,4.065,2.4c3.865,3.218,4.963,7.571,6.28,13.116,1.971,8.285,3.36,14.458,4.249,18.474a17.937,17.937,0,0,1-4.062,2.4,18.6,18.6,0,0,1-9.423,1.293c-1.4-2.973-2.769-6.176-4.065-9.607a133.767,133.767,0,0,1-5.727-19.583,13.1,13.1,0,0,1,3.14-5.171A13.137,13.137,0,0,1-909.925-254.228Z" transform="translate(970.892 302.976)" fill="#00c6b3"/>
</svg>
