<svg xmlns="http://www.w3.org/2000/svg" width="661.948" height="346.413" viewBox="0 0 661.948 346.413">
  <g id="Group_1109" data-name="Group 1109" transform="translate(0)">
    <path id="Path_2537" data-name="Path 2537" d="M-257.621-289.882l-596.755-.176S-931.6-386.2-896.042-477.681c38.335-98.629,128.244-92.7,202.878-92.311.851,0,1.7.009,2.549.011,1.031,0,2.056.007,3.08.007q2.2,0,4.367-.009l1.511-.007c.613-.007,1.222-.011,1.831-.016,34.57-.324,64.758-3.418,83.324-21.2A144.289,144.289,0,0,1-556.84-617.71q1.664-.767,3.345-1.5c22.114-9.629,47.2-15.1,73.045-16.634q2.81-.17,5.629-.273c108.88-4.04,228.21,61.065,193.74,179.426C-304.945-374.761-208.458-371.781-257.621-289.882Z" transform="translate(905.401 636.295)" fill="#fcecdb"/>
    <g id="Group_1099" data-name="Group 1099" transform="translate(482.498 195.478)">
      <path id="Path_2538" data-name="Path 2538" d="M-641.619-496.079s-10.48-12.227-.649-19.988c0,0,7.18-4.351,13.041-4,0,0-8.3,13.912-5.614,15.294s8.127-16.169,8.127-16.169,16.341-1.585,21.6.944c0,0-13.972,11.434-11.029,12.114s18.034-10.543,18.034-10.543,15.212,2.589,14.4,11.867-6.051,12.147-8.358,11.9-15.778-5.389-16.072-3.5,7.823,8.058,13.5,8.343c0,0-10.725,11.827-17.854,8.416s-7.731-8.823-12.176-10.856-8.236-2.02-6.4.047,9.878,4.08,12.418,8.574,4.82,7.525-2.556,6.416-19.361-6.5-19.883-12.685Z" transform="translate(739.395 581.222)" fill="#6b46b2"/>
      <path id="Path_2539" data-name="Path 2539" d="M-588.8-514.583s-41.311-1.591-50.438,10.225a29.893,29.893,0,0,1-8.223,11.545l-.971,2.636s7.156-7.545,9.72-8c0,0-4.007-14.636,49.911-16.4Z" transform="translate(737.008 589.501)" fill="#ffa69e"/>
      <path id="Path_2540" data-name="Path 2540" d="M-642.775-504.254a25.932,25.932,0,0,0-9.485,18.274l1.609.142s2.829-12.112,7.954-16.854-.078-1.562-.078-1.562Z" transform="translate(732.324 600.942)" fill="#ffa69e"/>
      <path id="Path_2541" data-name="Path 2541" d="M-627.148-493.2s16.67-9.336,8.894-22.005c0,0-6.227-7.776-12.894-9.778,0,0,3.558,18.89,0,19.336s-2.445-21.334-2.445-21.334-17.554-8.447-24.445-7.78c0,0,10.892,18.448,7.334,18s-15.779-19.11-15.779-19.11-18-3.333-20.892,7.329,1.778,16.007,4.445,16.67,19.781.447,19.334,2.669-12,5.778-18.445,3.776c0,0,7.116,17.559,16.447,16.67s12.223-6.669,18-7.111,10,1.113,7.109,2.669-12.665.507-17.334,4.476-8.443,6.411.222,8.189,24.228.667,27.337-6Z" transform="translate(688.287 562.968)" fill="#6b46b2"/>
      <path id="Path_2542" data-name="Path 2542" d="M-684.177-531.34s46.671,15.114,52.007,32a35.439,35.439,0,0,0,4.442,16.223v3.338s-4.887-11.338-7.554-12.894c0,0,10.443-14.672-48.9-38.671Z" transform="translate(693.311 569.106)" fill="#ffa69e"/>
      <path id="Path_2543" data-name="Path 2543" d="M-657.55-508.5s7.2,10.929,3.094,24.234l-1.851-.5s1.8-14.654-1.967-22.028.724-1.709.724-1.709Z" transform="translate(723.134 594.49)" fill="#ffa69e"/>
      <path id="Path_2544" data-name="Path 2544" d="M-640.9-491.438s-21.974-12.3-11.718-29c0,0,8.2-10.252,16.99-12.892,0,0-4.685,24.9,0,25.488s3.222-28.121,3.222-28.121,23.143-11.134,32.226-10.252c0,0-14.352,24.31-9.667,23.725s20.8-25.192,20.8-25.192,23.73-4.4,27.537,9.663-2.34,21.1-5.856,21.974-26.077.589-25.492,3.513,15.823,7.62,24.319,4.982c0,0-9.378,23.143-21.677,21.97s-16.116-8.789-23.73-9.374-13.185,1.467-9.378,3.516,16.7.673,22.852,5.9,11.134,8.454-.293,10.8-31.928.878-36.033-7.911Z" transform="translate(728.555 548.334)" fill="#6b46b2"/>
      <path id="Path_2545" data-name="Path 2545" d="M-577.07-541.715s-61.516,19.923-68.55,42.186a46.694,46.694,0,0,1-5.86,21.388v4.393s6.449-14.941,9.963-16.994c0,0-13.769-19.332,64.447-50.973Z" transform="translate(733.277 556.424)" fill="#ffa69e"/>
      <path id="Path_2546" data-name="Path 2546" d="M-648.32-511.6S-657.8-497.2-652.4-479.66l2.444-.653s-2.371-19.323,2.593-29.035-.958-2.256-.958-2.256Z" transform="translate(730.117 589.886)" fill="#ffa69e"/>
      <path id="Path_2547" data-name="Path 2547" d="M-582.467-500.966a43.041,43.041,0,0,1-43.04,43.04,42.93,42.93,0,0,1-14.163-2.387,43.055,43.055,0,0,1-28.872-40.653Z" transform="translate(712.422 606.232)" fill="#ffa69e"/>
      <path id="Path_2548" data-name="Path 2548" d="M-610.8-500.988c0,16.123-3.863,32.546-16.99,39.917-2.178,1.229-9.485-.1-11.883.736a43.054,43.054,0,0,1-28.872-40.653Z" transform="translate(712.422 606.206)" fill="#ffa69e"/>
      <path id="Path_2549" data-name="Path 2549" d="M-581.544-477.712H-668.81a5.307,5.307,0,0,1,1.551-3.758,5.3,5.3,0,0,1,3.758-1.556h76.648a5.311,5.311,0,0,1,5.309,5.313Z" transform="translate(712.094 628.161)" fill="#ffa69e"/>
      <path id="Path_2550" data-name="Path 2550" d="M-622.432-477.712H-668.81a5.307,5.307,0,0,1,1.551-3.758,5.3,5.3,0,0,1,3.758-1.556h35.759a5.308,5.308,0,0,1,5.309,5.313Z" transform="translate(712.094 628.161)" fill="#ffa69e"/>
      <rect id="Rectangle_549" data-name="Rectangle 549" width="88.47" height="1.32" transform="translate(42.462 105.216)" fill="#db6a1f"/>
    </g>
    <g id="Group_1108" data-name="Group 1108" transform="translate(93.874 25.668)">
      <g id="Group_1100" data-name="Group 1100" transform="translate(7.532 5.292)">
        <rect id="Rectangle_550" data-name="Rectangle 550" width="4.071" height="307.784" transform="translate(27.684)" fill="#ffa69e"/>
        <path id="Path_2551" data-name="Path 2551" d="M-800.33-476.68h-59.44a7.734,7.734,0,0,1,7.736-7.736h43.969a7.736,7.736,0,0,1,7.736,7.736Z" transform="translate(859.771 790.979)" fill="#ffa69e"/>
      </g>
      <g id="Group_1107" data-name="Group 1107" transform="translate(25.813 86.753)">
        <g id="Group_1103" data-name="Group 1103">
          <g id="Group_1101" data-name="Group 1101" transform="translate(0.04)">
            <path id="Path_2552" data-name="Path 2552" d="M-851.527-584.309a.748.748,0,0,1,.747-.747.746.746,0,0,1,.744.747.744.744,0,0,1-.744.744A.746.746,0,0,1-851.527-584.309Z" transform="translate(851.527 586.505)" fill="#ffa69e"/>
            <path id="Path_2553" data-name="Path 2553" d="M-851.527-584.961a.747.747,0,0,1,.747-.747.745.745,0,0,1,.744.747.745.745,0,0,1-.744.745A.747.747,0,0,1-851.527-584.961Z" transform="translate(851.527 585.708)" fill="#ffa69e"/>
            <path id="Path_2554" data-name="Path 2554" d="M-851.527-583.657a.748.748,0,0,1,.747-.747.746.746,0,0,1,.744.747.744.744,0,0,1-.744.745A.746.746,0,0,1-851.527-583.657Z" transform="translate(851.527 587.302)" fill="#ffa69e"/>
            <path id="Path_2555" data-name="Path 2555" d="M-851.527-582.991a.748.748,0,0,1,.747-.747.746.746,0,0,1,.744.747.744.744,0,0,1-.744.744A.746.746,0,0,1-851.527-582.991Z" transform="translate(851.527 588.116)" fill="#ffa69e"/>
          </g>
          <g id="Group_1102" data-name="Group 1102" transform="translate(0 5.838)">
            <path id="Path_2556" data-name="Path 2556" d="M-851.545-581.682a.746.746,0,0,1,.744-.747.748.748,0,0,1,.747.747.746.746,0,0,1-.747.745A.744.744,0,0,1-851.545-581.682Z" transform="translate(851.545 583.878)" fill="#ffa69e"/>
            <path id="Path_2557" data-name="Path 2557" d="M-851.545-582.334a.745.745,0,0,1,.744-.747.747.747,0,0,1,.747.747.746.746,0,0,1-.747.745A.744.744,0,0,1-851.545-582.334Z" transform="translate(851.545 583.081)" fill="#ffa69e"/>
            <path id="Path_2558" data-name="Path 2558" d="M-851.545-581.03a.746.746,0,0,1,.744-.747.748.748,0,0,1,.747.747.746.746,0,0,1-.747.744A.744.744,0,0,1-851.545-581.03Z" transform="translate(851.545 584.675)" fill="#ffa69e"/>
            <path id="Path_2559" data-name="Path 2559" d="M-851.545-580.364a.746.746,0,0,1,.744-.747.748.748,0,0,1,.747.747.746.746,0,0,1-.747.745A.744.744,0,0,1-851.545-580.364Z" transform="translate(851.545 585.489)" fill="#ffa69e"/>
          </g>
        </g>
        <g id="Group_1106" data-name="Group 1106" transform="translate(0 11.636)">
          <g id="Group_1104" data-name="Group 1104" transform="translate(0.04)">
            <path id="Path_2560" data-name="Path 2560" d="M-851.527-579.075a.746.746,0,0,1,.747-.745.744.744,0,0,1,.744.745.744.744,0,0,1-.744.744A.746.746,0,0,1-851.527-579.075Z" transform="translate(851.527 581.269)" fill="#ffa69e"/>
            <path id="Path_2561" data-name="Path 2561" d="M-851.527-579.727a.746.746,0,0,1,.747-.744.744.744,0,0,1,.744.744.744.744,0,0,1-.744.745A.746.746,0,0,1-851.527-579.727Z" transform="translate(851.527 580.472)" fill="#ffa69e"/>
            <path id="Path_2562" data-name="Path 2562" d="M-851.527-578.423a.747.747,0,0,1,.747-.745.745.745,0,0,1,.744.745.746.746,0,0,1-.744.747A.748.748,0,0,1-851.527-578.423Z" transform="translate(851.527 582.066)" fill="#ffa69e"/>
            <path id="Path_2563" data-name="Path 2563" d="M-851.527-577.758a.747.747,0,0,1,.747-.745.745.745,0,0,1,.744.745.746.746,0,0,1-.744.747A.748.748,0,0,1-851.527-577.758Z" transform="translate(851.527 582.88)" fill="#ffa69e"/>
          </g>
          <g id="Group_1105" data-name="Group 1105" transform="translate(0 5.838)">
            <path id="Path_2564" data-name="Path 2564" d="M-851.545-576.448a.744.744,0,0,1,.744-.745.746.746,0,0,1,.747.745.746.746,0,0,1-.747.744A.744.744,0,0,1-851.545-576.448Z" transform="translate(851.545 578.642)" fill="#ffa69e"/>
            <path id="Path_2565" data-name="Path 2565" d="M-851.545-577.1a.744.744,0,0,1,.744-.744.746.746,0,0,1,.747.744.746.746,0,0,1-.747.745A.744.744,0,0,1-851.545-577.1Z" transform="translate(851.545 577.845)" fill="#ffa69e"/>
            <path id="Path_2566" data-name="Path 2566" d="M-851.545-575.8a.744.744,0,0,1,.744-.745.746.746,0,0,1,.747.745.748.748,0,0,1-.747.747A.746.746,0,0,1-851.545-575.8Z" transform="translate(851.545 579.439)" fill="#ffa69e"/>
            <path id="Path_2567" data-name="Path 2567" d="M-851.545-575.13a.744.744,0,0,1,.744-.745.746.746,0,0,1,.747.745.748.748,0,0,1-.747.747A.746.746,0,0,1-851.545-575.13Z" transform="translate(851.545 580.253)" fill="#ffa69e"/>
          </g>
        </g>
      </g>
      <path id="Path_2568" data-name="Path 2568" d="M-791.1-533.55H-863.16l9.771-91.2h52.519Z" transform="translate(863.16 624.745)" fill="#ffa69e"/>
    </g>
  </g>
</svg>
