<svg id="Group_968" data-name="Group 968" xmlns="http://www.w3.org/2000/svg" width="182.365" height="276.707" viewBox="0 0 182.365 276.707">
  <path id="Path_1770" data-name="Path 1770" d="M-756.924-213.337a6.427,6.427,0,0,0-3.509,1.476c-2.5,2.176-3.02,6.545-1.109,10.8a8.655,8.655,0,0,0,5.449-5.262A8.574,8.574,0,0,0-756.924-213.337Z" transform="translate(900.466 352.958)" fill="#3c444a"/>
  <path id="Path_1771" data-name="Path 1771" d="M-778.421-212.891a1.824,1.824,0,0,0-2.278.493c-.2.369.06.6.247,1.785.2,1.3-.018,1.582.307,2.216.244.476.82,1.2,1.293,1.109C-777.768-207.488-776.95-211.955-778.421-212.891Z" transform="translate(878.375 353.25)" fill="#fcb6a1"/>
  <path id="Path_1772" data-name="Path 1772" d="M-727.973-157.221a62.581,62.581,0,0,0-1.893-8.447c-4.673-15.663-14.558-26.217-21.523-32.23a6.934,6.934,0,0,0-4.027,1.933c-2.727,2.751-1.74,6.776-1.68,7a113.4,113.4,0,0,1,11.543,11.547A113.872,113.872,0,0,1-730.9-155.918Q-729.435-156.572-727.973-157.221Z" transform="translate(907.04 371.83)" fill="#fcb6a1"/>
  <path id="Path_1773" data-name="Path 1773" d="M-745.486-180.187a3.427,3.427,0,0,0-.678,1.356,6.367,6.367,0,0,0-.06,1.969,8.042,8.042,0,0,1,.107,1.462c-.065.573-.24.92-.047,1.124a.644.644,0,0,0,.647.078c.469-.178.731-.9.647-1.8q.463.947.925,1.893c-.382.078-.447.233-.462.278-.071.216.191.469.584.847.3.284.442.424.616.447.522.06.953-.707.971-.74.2-.264.484-.651.816-1.122a6.911,6.911,0,0,0,.922-1.478,3.873,3.873,0,0,0-.431-2.525,12.377,12.377,0,0,0-1.785-3.078Q-744.1-180.831-745.486-180.187Z" transform="translate(920.55 391.9)" fill="#fcb6a1"/>
  <path id="Path_1774" data-name="Path 1774" d="M-764.105-157.013l-1.107,1.847a8.763,8.763,0,0,1-2.278-.369c-2.511-.758-3.787-2.4-4.311-2.031-.353.249-.124,1.238.125,1.847,1.191,2.929,5.5,3.58,6.34,3.694a5,5,0,0,0,1.231.74,2.2,2.2,0,0,0,1.356.307c.322-.084.684-.367,1.353-2.216a23.388,23.388,0,0,0,.8-2.709Q-762.35-156.458-764.105-157.013Z" transform="translate(889.116 421.062)" fill="#18393b"/>
  <path id="Path_1775" data-name="Path 1775" d="M-743.549-156.263l1.313,1.707a8.836,8.836,0,0,1-1.173,1.985c-1.622,2.062-3.618,2.649-3.465,3.271.1.42,1.107.569,1.765.56,3.16-.042,5.34-3.814,5.754-4.556a4.977,4.977,0,0,0,1.136-.878c.449-.46.736-.756.782-1.147.038-.333-.091-.773-1.569-2.071a24.131,24.131,0,0,0-2.231-1.733Q-742.394-157.695-743.549-156.263Z" transform="translate(919.797 419.223)" fill="#18393b"/>
  <path id="Path_1776" data-name="Path 1776" d="M-758.581-164.909q5.614,6,11.252,12.149,8.6,9.38,16.874,18.676a3.994,3.994,0,0,0,3.6.224,3.889,3.889,0,0,0,2.025-2.476q-1.657-4.1-3.6-8.325a190.018,190.018,0,0,0-18.9-32.177,23.1,23.1,0,0,0-5.851,4.051A23.246,23.246,0,0,0-758.581-164.909Z" transform="translate(905.497 397.574)" fill="#00c6b3"/>
  <path id="Path_1777" data-name="Path 1777" d="M-754.958-179.616l2.927,6.976q-1.7,4.367-3.376,8.776-7.094,18.618-13.5,36.9a15.911,15.911,0,0,0,2.249,1.349,15.853,15.853,0,0,0,2.3.916,166.183,166.183,0,0,0,14.572-18.016,166.163,166.163,0,0,0,14.625-25.426,10.553,10.553,0,0,0,2.925-4.276,11.361,11.361,0,0,0-.673-8.774Z" transform="translate(892.874 392.253)" fill="#00c6b3"/>
  <path id="Path_1778" data-name="Path 1778" d="M-779.259-154.493a8.118,8.118,0,0,1-.451,3.265c-.791,2.18-2.362,3.358-1.911,4.162.167.3.516.373,1.125.507a4.233,4.233,0,0,0,3.262-.676,4.938,4.938,0,0,0,1.576-2.476,9.169,9.169,0,0,0,.618-3.093,2.777,2.777,0,0,0,.055-1.745,2.822,2.822,0,0,0-1.235-1.576Z" transform="translate(877.237 422.891)" fill="#307da1"/>
  <path id="Path_1779" data-name="Path 1779" d="M-814.719-153.618c-.609.284-1.542.707-2.7,1.182-3.018,1.238-4.7,1.658-4.669,2.193.022.316.633.507,1.182.676,1.542.469,3.4.518,7.876-.507.64-.147,1.149-.273,1.4-.338.1-.389.2-.8.282-1.238.131-.676.222-1.318.282-1.911Z" transform="translate(827.87 425.954)" fill="#307da1"/>
  <path id="Path_1780" data-name="Path 1780" d="M-768.605-269.373c1.242,2.678,2.829,6.329,4.425,10.745,1.738,4.8,21.839,62.072-1.264,80.064-8.156,6.354-22.152,8.167-31.393,2.529-17.565-10.714-19.516-49.3-.211-95.866a40.48,40.48,0,0,1,10.325-1.476A41.305,41.305,0,0,1-768.605-269.373Z" transform="translate(841.691 279.566)" fill="#2c373b"/>
  <path id="Path_1781" data-name="Path 1781" d="M-776.521-254.486a88.2,88.2,0,0,1-3.262,13.276c-1.671,5.051-3.662,9.512-14.034,28.581-3.216,5.914-4.82,8.872-5.391,9.84a172.671,172.671,0,0,1-18.721,25.839,3.293,3.293,0,0,1-2.391-.453,3.438,3.438,0,0,1-1.458-2.611c2.573-5.714,5.518-11.741,8.894-17.987,3.271-6.056,6.589-11.656,9.858-16.8a221.162,221.162,0,0,0,9.454-21.454c2.958-7.831,4.72-13.918,10.414-16.765A14.624,14.624,0,0,1-776.521-254.486Z" transform="translate(828.249 302.661)" fill="#fcb6a1"/>
  <path id="Path_1782" data-name="Path 1782" d="M-779.626-161.24q-.04-5.1-.227-10.352a377.892,377.892,0,0,0-3.374-38.7,28.584,28.584,0,0,0-4.725,5.849c-10.4,17.105,1.031,39.8,2.925,43.426Z" transform="translate(864.324 356.681)" fill="#f9716e"/>
  <path id="Path_1783" data-name="Path 1783" d="M-801.719-207.825q6.327,31.895,12.656,63.789l17.494-2.591q-.393-33.215-.787-66.43Q-787.036-210.439-801.719-207.825Z" transform="translate(852.768 353.302)" fill="#fcb6a1"/>
  <path id="Path_1784" data-name="Path 1784" d="M-795.521-176.7l32.748,57.78a5.252,5.252,0,0,1,.216,2.718c-.242,1.193-.869,1.891-.587,2.251s1.349.093,1.942-.2c2.425-1.209,2.589-5.42,2.607-6.489a153.6,153.6,0,0,0-11.818-45.893,151.284,151.284,0,0,0-9.211-17.916Q-787.572-180.576-795.521-176.7Z" transform="translate(860.344 388.264)" fill="#fcb6a1"/>
  <path id="Path_1785" data-name="Path 1785" d="M-813.846-180.746a8.938,8.938,0,0,0,5.12,11.558,8.938,8.938,0,0,0,11.558-5.12,8.938,8.938,0,0,0-5.12-11.558A8.938,8.938,0,0,0-813.846-180.746Z" transform="translate(837.21 385.799)" fill="#fcb6a1"/>
  <path id="Path_1786" data-name="Path 1786" d="M-803.269-211.572l-11.167,64.065q8.627,1.943,17.254,3.882,11.594-31.125,23.19-62.254Z" transform="translate(837.224 355.116)" fill="#fcb6a1"/>
  <path id="Path_1787" data-name="Path 1787" d="M-806.279-182.744q-5.16,32.561-10.325,65.123-4.654,1.953-4.5,2.473.2.667,8.2-.993a147.034,147.034,0,0,0,19.876-42.975,144.506,144.506,0,0,0,4-19.745Q-797.652-180.8-806.279-182.744Z" transform="translate(829.068 390.353)" fill="#fcb6a1"/>
  <path id="Path_1788" data-name="Path 1788" d="M-798.824-251.937a44.225,44.225,0,0,1,18.225-3.711,44.1,44.1,0,0,1,15.067,2.856l1.011,23.625a72.667,72.667,0,0,0-8.209,31.57,71.33,71.33,0,0,0,2.025,18.674,57.546,57.546,0,0,1-20.814,2.407,57.111,57.111,0,0,1-13.612-2.631q-.276-8.337-.449-16.876-.173-8.647-.224-17.1a18.878,18.878,0,0,1-3.151-10.352c.08-4.278,1.865-7.163,3.72-10.912A88.4,88.4,0,0,0-798.824-251.937Z" transform="translate(843.92 301.236)" fill="#f9716e"/>
  <path id="Path_1789" data-name="Path 1789" d="M-798.641-224.871c-2.085,5.556-4.056,11.445-5.842,17.663a239.274,239.274,0,0,0-9.232,64.465,92.9,92.9,0,0,0,20.925,3.711,93.075,93.075,0,0,0,25.206-1.911l12.151-38.253a69.136,69.136,0,0,0-3.451-28.53,68.335,68.335,0,0,0-8.48-16.694Z" transform="translate(838.106 338.86)" fill="#f9716e"/>
  <path id="Path_1790" data-name="Path 1790" d="M-800.854-259.37q.157,7.19.316,14.378a31.722,31.722,0,0,0,.158,4.585,32.193,32.193,0,0,0,.789,4.425q2.843-2.29,5.736-4.585,3.334-2.64,6.638-5.214l.473-17.856Z" transform="translate(853.826 291.476)" fill="#fcab92"/>
  <path id="Path_1791" data-name="Path 1791" d="M-803.084-270.128a92.687,92.687,0,0,0-1.631,13.5c-.127,2.709-.129,5.274-.042,7.674a15.292,15.292,0,0,0,2.769,5.538,15.513,15.513,0,0,0,6.765,4.885,21.647,21.647,0,0,0,7.86-2.967,21.739,21.739,0,0,0,7.12-7.267,58.14,58.14,0,0,0,1.038-7.269,58.2,58.2,0,0,0-.594-13.941,21.244,21.244,0,0,0-8.3-3.262A22.367,22.367,0,0,0-803.084-270.128Z" transform="translate(848.982 279.416)" fill="#fcb6a1"/>
  <path id="Path_1792" data-name="Path 1792" d="M-769.7-255.35a72.63,72.63,0,0,1-16.592-4.267,72.489,72.489,0,0,1-13.274-6.8,33.377,33.377,0,0,1-3,6,33.315,33.315,0,0,1-3.636,4.74,27.95,27.95,0,0,1-.316-4.425,27.653,27.653,0,0,1,.449-4.718,11.633,11.633,0,0,1,4.551-7.358,20.807,20.807,0,0,1,6.814-3.3c6.625-1.8,12.578.207,16.521,2.309a15.185,15.185,0,0,1,7.356,8.729l.022.069A25,25,0,0,1-769.7-255.35Z" transform="translate(846.897 276.164)" fill="#2c373b"/>
  <path id="Path_1793" data-name="Path 1793" d="M-795.808-175.623a8.939,8.939,0,0,0,11.221,5.825,8.939,8.939,0,0,0,5.825-11.22,8.94,8.94,0,0,0-11.22-5.825A8.941,8.941,0,0,0-795.808-175.623Z" transform="translate(859.482 384.83)" fill="#fcb6a1"/>
  <path id="Path_1794" data-name="Path 1794" d="M-776.544-217.493c.336.78.793,1.907,1.265,3.291a18.846,18.846,0,0,1,1.351,5.485,17.393,17.393,0,0,1-.422,4.22,5.314,5.314,0,0,1-.507,1.6,5,5,0,0,1-.929,1.264,1.628,1.628,0,0,1-.42,1.182,1.635,1.635,0,0,1-1.1.507c-.458.793-.969,1.287-1.267,1.18-.342-.12-.338-1.022-.338-1.1a2.815,2.815,0,0,1,.253-1.1,6.373,6.373,0,0,0,.338-2.616,7.85,7.85,0,0,0-.591-2.953l-.927-2.7c-.078.738-.133,1.347-.169,1.773-.14,1.638-.147,2.2-.591,2.7-.262.3-.738.642-1.011.5-.382-.189-.187-1.216-.085-2.109.233-2.078-.164-2.416-.169-4.725a22.463,22.463,0,0,1,.758-5.738Q-778.822-217.154-776.544-217.493Z" transform="translate(877.042 347.878)" fill="#fcb6a1"/>
  <path id="Path_1795" data-name="Path 1795" d="M-816.94-221.824c-.636.562-1.531,1.384-2.547,2.438A18.7,18.7,0,0,0-823.045-215a17.351,17.351,0,0,0-1.418,4,5.333,5.333,0,0,0-.224,1.667,5.027,5.027,0,0,0,.3,1.54,1.637,1.637,0,0,0-.12,1.249,1.618,1.618,0,0,0,.776.924c.076.913.329,1.578.642,1.609.36.036.74-.78.771-.849a2.8,2.8,0,0,0,.24-1.1,6.368,6.368,0,0,1,.809-2.511,7.894,7.894,0,0,1,1.793-2.42l1.989-2.047c-.245.7-.453,1.273-.6,1.676-.571,1.542-.8,2.049-.616,2.693.109.38.393.9.7.889.427-.009.684-1.02.976-1.871.673-1.98,1.176-2.116,2.165-4.2a22.454,22.454,0,0,0,1.758-5.514Z" transform="translate(824.69 342.584)" fill="#fcb6a1"/>
  <path id="Path_1796" data-name="Path 1796" d="M-787.086-254.334a26.309,26.309,0,0,1,3.038,4.725,26.248,26.248,0,0,1,2.193,6.245q4.81,15.271,9.618,30.544c1.087,3.425,2.109,7.025,3.038,10.8a172.784,172.784,0,0,1,4.727,31.557,3.318,3.318,0,0,1-2.027,1.351,3.436,3.436,0,0,1-2.869-.845c-2.165-5.882-4.28-12.245-6.242-19.07-1.9-6.614-3.456-12.936-4.725-18.9-3.4-9.578-6.258-16.919-8.269-21.937-1.68-4.189-3.116-7.611-2.869-12.321A23.594,23.594,0,0,1-787.086-254.334Z" transform="translate(865.259 302.847)" fill="#fcb6a1"/>
  <path id="Path_1797" data-name="Path 1797" d="M-780.045-210.347A62.484,62.484,0,0,0-776-202.7c8.634,13.878,20.95,21.459,29.25,25.426a6.932,6.932,0,0,0,3.376-2.925c1.9-3.373-.107-7-.224-7.2a113.675,113.675,0,0,1-14.176-8.1,113.9,113.9,0,0,1-19.8-16.876Z" transform="translate(879.261 354.135)" fill="#fcb6a1"/>
  <path id="Path_1798" data-name="Path 1798" d="M-764.295-201.25A83.065,83.065,0,0,0-765.87-185.5a84.68,84.68,0,0,0,6.3,32.175,37.158,37.158,0,0,0,8.325,2.025,38.261,38.261,0,0,0,17.552-2.025c-.76-2.911-1.447-5.987-2.024-9.225a122.508,122.508,0,0,1-1.576-30.377,32.658,32.658,0,0,0-9.9-6.3A33.194,33.194,0,0,0-764.295-201.25Z" transform="translate(896.586 367.313)" fill="#f9716e"/>
  <path id="Path_1799" data-name="Path 1799" d="M-778.7-205.49a7.429,7.429,0,0,1,.844-3.036,7.416,7.416,0,0,1,2.193-2.531c1.956,1.856,4.033,3.718,6.245,5.567A136.85,136.85,0,0,0-743.6-188.445a14.276,14.276,0,0,1-1.687,6.414,14.264,14.264,0,0,1-3.882,4.556,52.11,52.11,0,0,1-7.932-3.882C-769.1-188.547-775.517-198.994-778.7-205.49Z" transform="translate(880.9 355.745)" fill="#f9716e"/>
  <path id="Path_1800" data-name="Path 1800" d="M-727.559-160.2a5.767,5.767,0,0,1-2.769,2.218,5.666,5.666,0,0,1-2.553.318q-2.1-3.457-4.558-7.016a136.858,136.858,0,0,0-20.421-23.241,27.208,27.208,0,0,1,1.489-6.631,27.164,27.164,0,0,1,2.4-4.987,8.694,8.694,0,0,1,3.14.738,9.038,9.038,0,0,1,3.14,2.4c9.334,10.694,13.483,19.208,13.483,19.208A114.488,114.488,0,0,1-727.559-160.2Z" transform="translate(906.378 369.821)" fill="#f9716e"/>
  <path id="Path_1801" data-name="Path 1801" d="M-777.538-208.649c.336-.042.575-.653.615-1.107.04-.473-.153-.618-.247-1.109-.233-1.2.6-1.92.247-2.34a1.025,1.025,0,0,0-1.109-.06c-.844.4-.909,1.773-.8,2.522C-778.683-209.7-778.023-208.587-777.538-208.649Z" transform="translate(880.695 352.886)" fill="#fcb6a1"/>
  <path id="Path_1802" data-name="Path 1802" d="M-759.209-204.583a22.783,22.783,0,0,0-1.6,3.571,22.958,22.958,0,0,0-.925,3.571,11,11,0,0,0,.925,2.338,10.841,10.841,0,0,0,1.356,1.971q3.2-1.233,6.4-2.462.613-2.957,1.231-5.911Q-755.514-203.045-759.209-204.583Z" transform="translate(901.643 363.658)" fill="#fcab92"/>
  <path id="Path_1803" data-name="Path 1803" d="M-755.9-212.589a24.74,24.74,0,0,0-5.536,6.783c-1.565,2.833-3.1,5.622-2.491,9.136a9.494,9.494,0,0,0,3.46,5.954c3.727,2.747,9.249,1.662,12.6-.831,4.678-3.487,6.758-10.954,3.182-16.2A12.1,12.1,0,0,0-755.9-212.589Z" transform="translate(898.794 353.801)" fill="#fcb6a1"/>
  <path id="Path_1804" data-name="Path 1804" d="M-760.058-213.4q-.34.8-.678,1.6a26.471,26.471,0,0,0,6.711,7.14,26.088,26.088,0,0,0,5.231,2.956,21.135,21.135,0,0,0-.491,3.325,20.966,20.966,0,0,0,.122,4.065l1.016.307a15.621,15.621,0,0,0,3.418-5.356,15.674,15.674,0,0,0,.922-7.2,19.779,19.779,0,0,0-5.634-4.527A20.194,20.194,0,0,0-760.058-213.4Z" transform="translate(902.863 352.838)" fill="#3c444a"/>
  <path id="Path_1805" data-name="Path 1805" d="M-756.47-201.816a2.767,2.767,0,0,0,1.54,1.109,3.014,3.014,0,0,0,3.509-2.278,2.426,2.426,0,0,0-.862-2.218,2.445,2.445,0,0,0-2.278-.184Q-755.514-203.6-756.47-201.816Z" transform="translate(908.077 362.427)" fill="#fcb6a1"/>
</svg>
