<svg id="Group_970" data-name="Group 970" xmlns="http://www.w3.org/2000/svg" width="106.387" height="276.574" viewBox="0 0 106.387 276.574">
  <path id="Path_1822" data-name="Path 1822" d="M-474.768-253.312l-2.051,11.752c1.673,3.222,3.531,6.52,5.6,9.867a154.514,154.514,0,0,0,26.655,32.244,8.885,8.885,0,0,0,7-2.176,8.659,8.659,0,0,0,2.649-5.447,143.392,143.392,0,0,1-10.514-13.109A143.831,143.831,0,0,1-459.745-245.4a25.459,25.459,0,0,0-5.838-4.7A25.538,25.538,0,0,0-474.768-253.312Z" transform="translate(519.672 304.096)" fill="#626938"/>
  <path id="Path_1823" data-name="Path 1823" d="M-458-234.8A4.443,4.443,0,0,1-455.42-233a4.009,4.009,0,0,1,.689,2.411,4.419,4.419,0,0,1-1.033,2.411c-2.211,3-4.258,5.78-4.651,5.511-.118-.08-.107-.46.518-1.809.013-.9.067-1.845.171-2.84A32.137,32.137,0,0,1-458-234.8Z" transform="translate(539.651 326.718)" fill="#fcb6a1"/>
  <path id="Path_1824" data-name="Path 1824" d="M-490.335-159.971l-2.027,2.453a5.361,5.361,0,0,0-2.5,1.307,5.277,5.277,0,0,0-1.238,1.767,26.128,26.128,0,0,0,2.653,4.451,26.6,26.6,0,0,0,7.847,7.043,30.184,30.184,0,0,0,3.5.247,29.954,29.954,0,0,0,4.282-.253,4.889,4.889,0,0,0-1.491-2.516c-1.7-1.44-3.7-.669-5.469-1.313-1.58-.573-3.325-2.4-4.278-7.718q1.213-1.4,2.422-2.793Z" transform="translate(496.102 418.188)" fill="#35454f"/>
  <path id="Path_1825" data-name="Path 1825" d="M-437.523-208.518c-.14,2.651-.42,6.469-1.033,11.023-1.336,9.918-4.5,25.177-18.256,53.047a378.144,378.144,0,0,1-28.935,48.913,7.437,7.437,0,0,1-5.511-.689A7.455,7.455,0,0,1-494.7-100.7c2.527-6.529,5.38-13.323,8.611-20.323,5.131-11.116,10.507-21.219,15.845-30.312,1.044-3.978,1.987-8.232,2.756-12.745a149.691,149.691,0,0,0,1.722-35.824Q-451.644-204.21-437.523-208.518Z" transform="translate(497.812 358.848)" fill="#f9716e"/>
  <path id="Path_1826" data-name="Path 1826" d="M-486.8-205.457a148.662,148.662,0,0,0,6.545,23.077A150.05,150.05,0,0,0-458.9-143.8a144.305,144.305,0,0,0,8.956,23.423,145.007,145.007,0,0,0,23.423,34.446,11.974,11.974,0,0,0,6.889-1.378,11.838,11.838,0,0,0,4.133-3.789,251.172,251.172,0,0,1-15.845-27.212c-8.192-16.343-12.541-29.472-16.19-40.646a383.131,383.131,0,0,1-12.4-48.569,25.554,25.554,0,0,0-14.812-2.753A25.377,25.377,0,0,0-486.8-205.457Z" transform="translate(507.474 356.478)" fill="#f9716e"/>
  <path id="Path_1827" data-name="Path 1827" d="M-466.11-188.449l8.345-.344a81.845,81.845,0,0,0,5.389-7.4,81.789,81.789,0,0,0,5.738-10.5q-.61-1.637-1.218-3.273c-5.216-.489-10.854-.809-16.863-.862A199.344,199.344,0,0,0-486.8-209.8q.087,2.667.173,5.338Z" transform="translate(507.474 356.002)" fill="#f9716e"/>
  <path id="Path_1828" data-name="Path 1828" d="M-489.9-247.879a42.977,42.977,0,0,1,17.223-5.511,43.887,43.887,0,0,1,25.49,5.511q1.117,14.5,2.067,29.279,2,31.2,3.1,61.314a65.714,65.714,0,0,1-12.4,2.756,68.115,68.115,0,0,1-30.657-3.445q.193-10.954,0-22.39A632.244,632.244,0,0,0-489.9-247.879Z" transform="translate(503.685 303.765)" fill="#6b46b2"/>
  <path id="Path_1829" data-name="Path 1829" d="M-468.813-217.181a25.637,25.637,0,0,0-.689-7.234c-2.625-10.794-11.636-16.59-14.467-18.256Q-476.389-229.924-468.813-217.181Z" transform="translate(510.932 317.102)" fill="#3f2189"/>
  <path id="Path_1830" data-name="Path 1830" d="M-448.663-201.853a27.477,27.477,0,0,1-8.725,5.282,27.291,27.291,0,0,1-7.12,1.607q-.917-2.983-1.836-5.971a12.333,12.333,0,0,1-5.511-.229c-4.591-1.3-7.065-5.129-8.5-7.347-6.649-10.3-8.092-30.017-8.265-32.61a282.5,282.5,0,0,0,19.748,21.357C-461.912-212.975-455.1-207.031-448.663-201.853Z" transform="translate(505.25 318.997)" fill="#3f2189"/>
  <path id="Path_1831" data-name="Path 1831" d="M-455.716-148.39l1.378,1.722a9.694,9.694,0,0,0,.773,2.327,9.766,9.766,0,0,0,1.809,2.582,7.5,7.5,0,0,0,2.842-.776,7.489,7.489,0,0,0,2.325-1.807,20.253,20.253,0,0,0,7.32-4.478c1.473-1.42,4.84-4.662,4.478-8.525-.016-.169-.236-2.313-1.12-2.5-1-.209-2.133,2.251-3.187,3.789-1.54,2.247-4.558,4.914-11.107,6.371q-.517-.73-1.033-1.465c.344-.689.689-1.376,1.033-2.067a16.852,16.852,0,0,0-4.307,1.465,16.876,16.876,0,0,0-4.736,3.531Z" transform="translate(541.151 418.332)" fill="#35454f"/>
  <path id="Path_1832" data-name="Path 1832" d="M-483.126-247.6q.017-5.9.029-11.8,8.037.807,16.076,1.609-.043,5.654-.087,11.309l-3.876,1.722Q-477.053-246.175-483.126-247.6Z" transform="translate(511.963 296.659)" fill="#fcab92"/>
  <path id="Path_1833" data-name="Path 1833" d="M-482.237-255.122q-1.293,2.41-2.585,4.822l11.109,6.027q2.884-2.67,5.769-5.338,1.81,2.41,3.618,4.822l2.582-4.478q-1.1-2.067-2.209-4.134l-.92-.287q-1.577,1.607-3.158,3.213l-13.145-4.88Z" transform="translate(509.89 301.601)" fill="#3f2189"/>
  <path id="Path_1834" data-name="Path 1834" d="M-460.366-267.743a87.962,87.962,0,0,1,1.658,13.243c.129,2.656.131,5.171.042,7.529a14.8,14.8,0,0,1-2.813,5.431,15.776,15.776,0,0,1-6.878,4.794,22.509,22.509,0,0,1-7.991-2.911,21.646,21.646,0,0,1-7.238-7.131,54.592,54.592,0,0,1-1.056-7.129,55.13,55.13,0,0,1,.6-13.678,22.077,22.077,0,0,1,8.445-3.2A23.382,23.382,0,0,1-460.366-267.743Z" transform="translate(509.89 282.407)" fill="#fcb6a1"/>
  <path id="Path_1835" data-name="Path 1835" d="M-432.483-239.237a37.732,37.732,0,0,0-13.778-7.92c-13.354-4.227-24.923.551-28.246,2.067a143.388,143.388,0,0,0-2.411,15.5,144.443,144.443,0,0,0,1.378,38.579,43.344,43.344,0,0,0,13.778,4.478,45.008,45.008,0,0,0,25.834-4.134q-1.723-5.34-3.445-10.678Q-435.929-220.291-432.483-239.237Z" transform="translate(518.694 309.535)" fill="#f2e3c7"/>
  <path id="Path_1836" data-name="Path 1836" d="M-452.313-230.272c1.033-1.438,2.525-3.613,4.134-6.371,3.627-6.218,9.074-15.241,6.545-18.083-1.153-1.3-3.569-.878-4.651-.689-10.778,1.865-16.336,18.436-17.223,21.183a19.781,19.781,0,0,0,3.789,2.238A19.955,19.955,0,0,0-452.313-230.272Z" transform="translate(535.941 301.259)" fill="#e8a274"/>
  <path id="Path_1837" data-name="Path 1837" d="M-457.384-239.855a5.685,5.685,0,0,1-1.609-3.558c-.06-2.218,1.609-3.858.92-4.707-.5-.616-1.582-.013-2.3-.8-.653-.727-.245-1.789-.689-1.951-.527-.2-1.069,1.316-2.18,1.378-1.049.056-1.509-1.233-2.3-1.033-.745.187-.5,1.38-1.491,1.951-.938.54-1.816-.151-2.411.46-.48.489-.1,1.122-.576,1.491-.584.453-1.389-.32-2.067.116-.627.4-.264,1.278-.918,1.722s-1.413-.187-1.838.229.251,1.153,0,2.411c-.224,1.131-.94,1.376-.8,1.951.169.711,1.416,1.013,2.869,1.265a28.911,28.911,0,0,0,5.627.573,68.617,68.617,0,0,1,10.218.344Z" transform="translate(521.091 307.053)" fill="#97bd37"/>
  <path id="Path_1838" data-name="Path 1838" d="M-452.422-237.729c.058-.929.1-1.887.113-2.869a61.75,61.75,0,0,0-.46-8.612,31.736,31.736,0,0,0-3.9-.46,33.021,33.021,0,0,0-12.056,1.607,20.31,20.31,0,0,1,1.149,4.478,20.264,20.264,0,0,1,.113,4.478c1.707.36,3.547.678,5.511.918A64.5,64.5,0,0,0-452.422-237.729Z" transform="translate(529.563 308.487)" fill="#7a2950"/>
  <path id="Path_1839" data-name="Path 1839" d="M-482.842-251.893c-1.651.353-6.165,1.544-8.094,5.34-1.491,2.931-.727,6.018-.049,8.436a106.975,106.975,0,0,0,11.243,26.352,141.113,141.113,0,0,0,11.367,15.156,10.066,10.066,0,0,0,7.4-.516,10.449,10.449,0,0,0,5.34-7.407,86.662,86.662,0,0,1-7.062-9.645,87.9,87.9,0,0,1-10.858-25.457Q-478.2-245.763-482.842-251.893Z" transform="translate(501.367 305.83)" fill="#6b46b2"/>
  <path id="Path_1840" data-name="Path 1840" d="M-455.894-259.828a8.523,8.523,0,0,0,.458-2.871c-.078-4.5-3.909-7.591-5.74-9.072-4.378-3.534-9.792-4.865-10.1-4.247-.107.213.318.816,2.987,2.64a13.444,13.444,0,0,0-5.511-1.493c-3.758-.167-7.551,1.333-7.465,2.067.029.242.493.516,2.3.689a11.241,11.241,0,0,0-3.676,1.722c-2.782,2-4.569,5.311-4.018,5.856.178.176.676.149,2.067-.689a11.739,11.739,0,0,0-2.3,3.56c-1.2,2.922-1.309,6.707-.229,7.118.287.111.764.02,1.607-.8a4.484,4.484,0,0,0-.115,1.838,5.572,5.572,0,0,0,2.984,3.789l2.3.229a15.714,15.714,0,0,1,.458-4.707,15.963,15.963,0,0,1,3.676-6.774c1.273-.2,2.616-.36,4.018-.46A49.156,49.156,0,0,1-455.894-259.828Z" transform="translate(506.167 276.164)" fill="#3f424a"/>
  <path id="Path_1841" data-name="Path 1841" d="M-481.5-264.268a3.648,3.648,0,0,0-3.676-.116,3.735,3.735,0,0,0-1.607,3.676c.287,2.116,2.653,3.98,5.856,4.133Z" transform="translate(507.456 290.022)" fill="#fcb6a1"/>
  <path id="Path_1842" data-name="Path 1842" d="M-464.942-230.74l.86-1.033a3.974,3.974,0,0,1,0-2.238c.331-1.04.92-1.131,2.067-2.5a11.311,11.311,0,0,0,2.411-4.047c.2-.667.32-1.362.6-1.378s.576.68.689,1.118a3.621,3.621,0,0,1,0,1.638,10.466,10.466,0,0,1-.776,2.5c.9.109,1.853.2,2.842.26,1.524.1,2.965.116,4.307.084q.51-.43,1.033-.86.69-.57,1.378-1.12a2.736,2.736,0,0,1,.344,1.12,2.815,2.815,0,0,1-.518,1.809,14.9,14.9,0,0,1-.344,2.411,14.9,14.9,0,0,1-1.2,3.358,17.723,17.723,0,0,1-1.638.86,25.72,25.72,0,0,1-4.994,1.551,19.476,19.476,0,0,0-4.822,2.067Q-463.824-227.942-464.942-230.74Z" transform="translate(534.189 318.003)" fill="#fcb6a1"/>
  <path id="Path_1843" data-name="Path 1843" d="M-481.989-230.263a107.291,107.291,0,0,0,12.4-.689,108.244,108.244,0,0,0,26.179-6.371,5.642,5.642,0,0,1,2.585,2.067,5.979,5.979,0,0,1,.689,4.822,74.338,74.338,0,0,1-9.3,6.716,76.687,76.687,0,0,1-28.935,10.334,16.7,16.7,0,0,1-4.134-7.749A16.757,16.757,0,0,1-481.989-230.263Z" transform="translate(512.226 323.639)" fill="#6b46b2"/>
  <path id="Path_1844" data-name="Path 1844" d="M-452.125-238.847l2.7-4.362a13.826,13.826,0,0,0-2.469-2.3,16.14,16.14,0,0,0-10.907-2.7q-1.2,3.677-2.411,7.349,2.017.467,4.191.862A89.059,89.059,0,0,0-452.125-238.847Z" transform="translate(533.857 310.236)" fill="#de4e5a"/>
  <path id="Path_1845" data-name="Path 1845" d="M-435.518-240.116c-.262-2.353-.656-3.051-1.033-3.1-.527-.067-.936,1.131-1.551,1.033-.669-.1-.671-1.6-1.378-1.722-.609-.107-.951.938-1.636.862-.74-.082-.8-1.347-1.551-1.465-.74-.116-1.06,1.04-1.98,1.033-.865-.007-1.051-1.031-1.893-1.033-.942,0-1.224,1.267-2.067,1.2-.791-.056-.853-1.193-1.809-1.376-.787-.151-1.018.569-1.98.516-1.022-.056-1.176-.889-2.067-.862-.967.031-1.178,1.022-1.98.949-.867-.08-.971-1.262-1.9-1.378-.724-.091-.856.613-1.809.776-1.309.22-1.787-.991-3.013-.776-1.113.193-1.28,1.289-2.153,1.2-.824-.078-.882-1.076-1.893-1.291-.851-.182-1.084.469-1.98.344-1.218-.169-1.464-1.462-2.327-1.378-.822.08-.984,1.3-1.722,1.291-.8-.007-1.053-1.433-1.722-1.378-.6.051-1.007,1.262-1.118,1.982a3.813,3.813,0,0,0,.084,1.549,84.335,84.335,0,0,0,28.159,4.22A82.908,82.908,0,0,0-435.518-240.116Z" transform="translate(520.524 312.223)" fill="#f2e3c7"/>
</svg>
