<svg xmlns="http://www.w3.org/2000/svg" width="661.949" height="346.978" viewBox="0 0 661.949 346.978">
  <g id="Group_1083" data-name="Group 1083" transform="translate(0 0)">
    <g id="Group_1071" data-name="Group 1071">
      <g id="Group_1066" data-name="Group 1066">
        <path id="Path_2401" data-name="Path 2401" d="M-766.042-19.081l-596.757-.176s-77.226-96.144-41.666-187.622c38.335-98.631,128.243-92.7,202.878-92.311q1.277.007,2.549.011c1.031,0,2.056.007,3.08.007q2.2,0,4.367-.009l1.511-.007c.613-.007,1.222-.011,1.831-.016,34.571-.327,64.759-3.42,83.324-21.2a144.339,144.339,0,0,1,39.662-26.508q1.663-.767,3.344-1.5c22.114-9.632,47.2-15.1,73.046-16.636q2.81-.167,5.629-.271c108.88-4.04,228.21,61.065,193.74,179.426C-813.369-103.958-716.882-100.98-766.042-19.081Z" transform="translate(1413.825 365.492)" fill="#fcecdb"/>
        <g id="Group_1065" data-name="Group 1065" transform="translate(108.272 153.38)">
          <g id="Group_1057" data-name="Group 1057" transform="translate(4.523 3.177)">
            <rect id="Rectangle_521" data-name="Rectangle 521" width="2.444" height="184.788" transform="translate(16.62)" fill="#ffa69e"/>
            <path id="Path_2402" data-name="Path 2402" d="M-1327.384-207.578h-35.686a4.643,4.643,0,0,1,4.642-4.645h26.4a4.646,4.646,0,0,1,4.645,4.645Z" transform="translate(1363.07 396.278)" fill="#ffa69e"/>
          </g>
          <g id="Group_1064" data-name="Group 1064" transform="translate(15.497 52.084)">
            <g id="Group_1060" data-name="Group 1060">
              <g id="Group_1058" data-name="Group 1058" transform="translate(0.024)">
                <path id="Path_2403" data-name="Path 2403" d="M-1358.121-272.2a.449.449,0,0,1,.449-.447.447.447,0,0,1,.447.447.447.447,0,0,1-.447.449A.449.449,0,0,1-1358.121-272.2Z" transform="translate(1358.121 273.516)" fill="#ffa69e"/>
                <path id="Path_2404" data-name="Path 2404" d="M-1358.121-272.588a.45.45,0,0,1,.449-.449.448.448,0,0,1,.447.449.447.447,0,0,1-.447.447A.449.449,0,0,1-1358.121-272.588Z" transform="translate(1358.121 273.037)" fill="#ffa69e"/>
                <path id="Path_2405" data-name="Path 2405" d="M-1358.121-271.805a.45.45,0,0,1,.449-.449.449.449,0,0,1,.447.449.447.447,0,0,1-.447.447A.449.449,0,0,1-1358.121-271.805Z" transform="translate(1358.121 273.994)" fill="#ffa69e"/>
                <path id="Path_2406" data-name="Path 2406" d="M-1358.121-271.405a.45.45,0,0,1,.449-.449.449.449,0,0,1,.447.449.447.447,0,0,1-.447.447A.449.449,0,0,1-1358.121-271.405Z" transform="translate(1358.121 274.483)" fill="#ffa69e"/>
              </g>
              <g id="Group_1059" data-name="Group 1059" transform="translate(0 3.507)">
                <path id="Path_2407" data-name="Path 2407" d="M-1358.132-270.621a.447.447,0,0,1,.449-.447.447.447,0,0,1,.447.447.447.447,0,0,1-.447.449A.448.448,0,0,1-1358.132-270.621Z" transform="translate(1358.132 271.937)" fill="#ffa69e"/>
                <path id="Path_2408" data-name="Path 2408" d="M-1358.132-271.012a.447.447,0,0,1,.449-.447.447.447,0,0,1,.447.447.447.447,0,0,1-.447.447A.447.447,0,0,1-1358.132-271.012Z" transform="translate(1358.132 271.459)" fill="#ffa69e"/>
                <path id="Path_2409" data-name="Path 2409" d="M-1358.132-270.229a.447.447,0,0,1,.449-.447.447.447,0,0,1,.447.447.447.447,0,0,1-.447.447A.447.447,0,0,1-1358.132-270.229Z" transform="translate(1358.132 272.416)" fill="#ffa69e"/>
                <path id="Path_2410" data-name="Path 2410" d="M-1358.132-269.829a.447.447,0,0,1,.449-.447.447.447,0,0,1,.447.447.447.447,0,0,1-.447.447A.447.447,0,0,1-1358.132-269.829Z" transform="translate(1358.132 272.905)" fill="#ffa69e"/>
              </g>
            </g>
            <g id="Group_1063" data-name="Group 1063" transform="translate(0 6.987)">
              <g id="Group_1061" data-name="Group 1061" transform="translate(0.024)">
                <path id="Path_2411" data-name="Path 2411" d="M-1358.121-269.055a.449.449,0,0,1,.449-.447.447.447,0,0,1,.447.447.447.447,0,0,1-.447.449A.449.449,0,0,1-1358.121-269.055Z" transform="translate(1358.121 270.371)" fill="#ffa69e"/>
                <path id="Path_2412" data-name="Path 2412" d="M-1358.121-269.446a.449.449,0,0,1,.449-.447.447.447,0,0,1,.447.447.447.447,0,0,1-.447.447A.449.449,0,0,1-1358.121-269.446Z" transform="translate(1358.121 269.893)" fill="#ffa69e"/>
                <path id="Path_2413" data-name="Path 2413" d="M-1358.121-268.663a.449.449,0,0,1,.449-.447.447.447,0,0,1,.447.447.447.447,0,0,1-.447.447A.449.449,0,0,1-1358.121-268.663Z" transform="translate(1358.121 270.85)" fill="#ffa69e"/>
                <path id="Path_2414" data-name="Path 2414" d="M-1358.121-268.263a.449.449,0,0,1,.449-.447.447.447,0,0,1,.447.447.447.447,0,0,1-.447.447A.449.449,0,0,1-1358.121-268.263Z" transform="translate(1358.121 271.339)" fill="#ffa69e"/>
              </g>
              <g id="Group_1062" data-name="Group 1062" transform="translate(0 3.505)">
                <path id="Path_2415" data-name="Path 2415" d="M-1358.132-267.476a.448.448,0,0,1,.449-.449.447.447,0,0,1,.447.449.447.447,0,0,1-.447.447A.447.447,0,0,1-1358.132-267.476Z" transform="translate(1358.132 268.794)" fill="#ffa69e"/>
                <path id="Path_2416" data-name="Path 2416" d="M-1358.132-267.869a.447.447,0,0,1,.449-.447.447.447,0,0,1,.447.447.449.449,0,0,1-.447.449A.449.449,0,0,1-1358.132-267.869Z" transform="translate(1358.132 268.316)" fill="#ffa69e"/>
                <path id="Path_2417" data-name="Path 2417" d="M-1358.132-267.086a.447.447,0,0,1,.449-.447.447.447,0,0,1,.447.447.449.449,0,0,1-.447.449A.449.449,0,0,1-1358.132-267.086Z" transform="translate(1358.132 269.273)" fill="#ffa69e"/>
                <path id="Path_2418" data-name="Path 2418" d="M-1358.132-266.686a.447.447,0,0,1,.449-.447.447.447,0,0,1,.447.447.447.447,0,0,1-.447.447A.447.447,0,0,1-1358.132-266.686Z" transform="translate(1358.132 269.762)" fill="#ffa69e"/>
              </g>
            </g>
          </g>
          <path id="Path_2419" data-name="Path 2419" d="M-1321.841-241.722h-43.264l5.866-54.752h31.531Z" transform="translate(1365.105 296.474)" fill="#ffa69e"/>
        </g>
      </g>
      <g id="Group_1067" data-name="Group 1067" transform="translate(395.922 261.776)">
        <rect id="Rectangle_522" data-name="Rectangle 522" width="74.529" height="83.684" transform="translate(74.529 83.684) rotate(180)" fill="#aed9e0"/>
        <rect id="Rectangle_523" data-name="Rectangle 523" width="74.529" height="83.684" transform="translate(111.794 83.684) rotate(180)" fill="#aed9e0"/>
        <path id="Path_2420" data-name="Path 2420" d="M-1235.648-215.324h11.81l-1.04-4.525,1.04-3.234h-11.81Z" transform="translate(1235.692 277.786)" fill="#aed9e0"/>
        <path id="Path_2421" data-name="Path 2421" d="M-1218.9-231.777h11.81l-1.04-4.525,1.04-3.234h-11.81Z" transform="translate(1256.165 257.675)" fill="#aed9e0"/>
        <path id="Path_2422" data-name="Path 2422" d="M-1212.4-239.536h-11.81l1.041,4.525-1.041,3.234h11.81Z" transform="translate(1249.669 257.675)" fill="#aed9e0"/>
        <path id="Path_2423" data-name="Path 2423" d="M-1178.867-219.187h-11.81l1.04,4.525-1.04,3.234h11.81Z" transform="translate(1290.662 282.547)" fill="#aed9e0"/>
        <rect id="Rectangle_524" data-name="Rectangle 524" width="21.447" height="11.362" transform="translate(85.467 5.674)" fill="#aed9e0"/>
      </g>
      <g id="Group_1068" data-name="Group 1068" transform="translate(514.499 261.776)">
        <rect id="Rectangle_525" data-name="Rectangle 525" width="74.529" height="83.684" transform="translate(74.529 83.684) rotate(180)" fill="#aed9e0"/>
        <rect id="Rectangle_526" data-name="Rectangle 526" width="74.529" height="83.684" transform="translate(111.793 83.684) rotate(180)" fill="#aed9e0"/>
        <path id="Path_2424" data-name="Path 2424" d="M-1182.292-215.324h11.81l-1.04-4.525,1.04-3.234h-11.81Z" transform="translate(1182.335 277.786)" fill="#aed9e0"/>
        <path id="Path_2425" data-name="Path 2425" d="M-1165.543-231.777h11.81l-1.04-4.525,1.04-3.234h-11.81Z" transform="translate(1202.807 257.675)" fill="#aed9e0"/>
        <path id="Path_2426" data-name="Path 2426" d="M-1159.047-239.536h-11.81l1.041,4.525-1.041,3.234h11.81Z" transform="translate(1196.312 257.675)" fill="#aed9e0"/>
        <path id="Path_2427" data-name="Path 2427" d="M-1125.51-219.187h-11.81l1.04,4.525-1.04,3.234h11.81Z" transform="translate(1237.305 282.547)" fill="#aed9e0"/>
        <rect id="Rectangle_527" data-name="Rectangle 527" width="21.447" height="11.362" transform="translate(85.467 5.674)" fill="#aed9e0"/>
      </g>
      <g id="Group_1069" data-name="Group 1069" transform="translate(413.622 204.895)">
        <rect id="Rectangle_528" data-name="Rectangle 528" width="68.981" height="56.879" transform="translate(68.981 56.879) rotate(180)" fill="#b8f2e6"/>
        <rect id="Rectangle_529" data-name="Rectangle 529" width="68.981" height="56.879" transform="translate(103.472 56.879) rotate(180)" fill="#b8f2e6"/>
        <path id="Path_2428" data-name="Path 2428" d="M-1227.686-251.289h10.931l-.963-3.076.963-2.2h-10.931Z" transform="translate(1227.726 293.743)" fill="#b8f2e6"/>
        <path id="Path_2429" data-name="Path 2429" d="M-1212.184-262.471h10.931l-.963-3.076.963-2.2h-10.931Z" transform="translate(1246.674 280.074)" fill="#b8f2e6"/>
        <path id="Path_2430" data-name="Path 2430" d="M-1206.172-267.745H-1217.1l.963,3.076-.963,2.2h10.931Z" transform="translate(1240.662 280.074)" fill="#b8f2e6"/>
        <path id="Path_2431" data-name="Path 2431" d="M-1175.131-253.915h-10.931l.963,3.076-.963,2.2h10.931Z" transform="translate(1278.604 296.98)" fill="#b8f2e6"/>
        <rect id="Rectangle_530" data-name="Rectangle 530" width="19.851" height="7.722" transform="translate(79.105 3.856)" fill="#b8f2e6"/>
      </g>
      <g id="Group_1070" data-name="Group 1070" transform="translate(337.535 303.052)">
        <rect id="Rectangle_531" data-name="Rectangle 531" width="51.704" height="42.633" transform="translate(51.704 42.633) rotate(180)" fill="#5e6472"/>
        <rect id="Rectangle_532" data-name="Rectangle 532" width="51.704" height="42.633" transform="translate(77.556 42.633) rotate(180)" fill="#5e6472"/>
        <path id="Path_2432" data-name="Path 2432" d="M-1261.928-212.631h8.193l-.722-2.306.722-1.647h-8.193Z" transform="translate(1261.958 244.453)" fill="#5e6472"/>
        <path id="Path_2433" data-name="Path 2433" d="M-1250.309-221.013h8.193l-.722-2.306.722-1.647h-8.193Z" transform="translate(1276.16 234.207)" fill="#5e6472"/>
        <path id="Path_2434" data-name="Path 2434" d="M-1245.8-224.966H-1254l.721,2.305-.721,1.647h8.193Z" transform="translate(1271.654 234.207)" fill="#5e6472"/>
        <path id="Path_2435" data-name="Path 2435" d="M-1222.536-214.6h-8.193l.721,2.305-.721,1.647h8.193Z" transform="translate(1300.093 246.879)" fill="#5e6472"/>
      </g>
    </g>
    <g id="Group_1082" data-name="Group 1082" transform="translate(170.478 78.248)">
      <g id="Group_1075" data-name="Group 1075" transform="translate(255.696 0.001)">
        <g id="Group_1072" data-name="Group 1072" transform="translate(1.223 261.931)">
          <path id="Path_2436" data-name="Path 2436" d="M-1221.5-207.287s1.285-2.342,2.653-3,8.963-2.127,8.963-2.127l11.314,0-.535,6.794Z" transform="translate(1221.506 212.418)" fill="#b85042"/>
          <rect id="Rectangle_533" data-name="Rectangle 533" width="22.552" height="1.657" transform="translate(0 5.136)" fill="#4c4152"/>
        </g>
        <g id="Group_1073" data-name="Group 1073" transform="translate(63.741 261.931)">
          <path id="Path_2437" data-name="Path 2437" d="M-1170.442-207.287s-1.287-2.342-2.656-3-8.963-2.127-8.963-2.127l-11.314,0,.535,6.794Z" transform="translate(1193.374 212.418)" fill="#b85042"/>
          <rect id="Rectangle_534" data-name="Rectangle 534" width="22.552" height="1.657" transform="translate(22.932 6.789) rotate(179.975)" fill="#4c4152"/>
        </g>
        <path id="Path_2438" data-name="Path 2438" d="M-1191.163-261.527s.091,3.729.729,4.094a25.831,25.831,0,0,0,3.818.969l1.093-3.242Z" transform="translate(1259.817 414.322)" fill="#f79e86"/>
        <path id="Path_2439" data-name="Path 2439" d="M-1212.419-265.26s-3.333,8.594-3.02,9.538,3.625,6.529,4.963,6.92,4-5.82,4-5.82l-1.833-10.56Z" transform="translate(1230.118 409.759)" fill="#f79e86"/>
        <path id="Path_2440" data-name="Path 2440" d="M-1216.391-290.345s-2.976,12.887-2.931,16.494c.058,4.662,5.669,30.375,10.6,41.975l4.538-.024-.4-57.3Z" transform="translate(1225.396 379.097)" fill="#f79e86"/>
        <path id="Path_2441" data-name="Path 2441" d="M-1217.065-138.558l13.081,2.109c10.536-33.419,15.825-87.837,18.859-126.875,4.369,39.14,9.027,88.533,20.836,126.757l14.107-1.991c-4.887-39.28-9.378-87.273-13.821-134.286l-42.884,2.873C-1209.493-227.791-1212.347-180.02-1217.065-138.558Z" transform="translate(1228.157 400.489)" fill="#00c6b3"/>
        <path id="Path_2442" data-name="Path 2442" d="M-1210.171-304.068c-.216.671-4.007,82.255-4.007,82.255,15.838,4.314,33.641,3.638,51.171.671l-4.653-84.046C-1180.29-311.119-1197.428-311.2-1210.171-304.068Z" transform="translate(1231.686 355.64)" fill="#f9716e"/>
        <path id="Path_2443" data-name="Path 2443" d="M-1222.056-264.309c4.22-14.845,9.9-28.615,13.312-37.444.68-1.753,8.2-5.323,8.2-5.323l-1.973,47.08C-1210.144-259.788-1217.291-260.293-1222.056-264.309Z" transform="translate(1222.056 358.648)" fill="#ffb3c1"/>
        <g id="Group_1074" data-name="Group 1074" transform="translate(23.756)">
          <path id="Path_2444" data-name="Path 2444" d="M-1203.963-315.311c.753.34.286,10.978-2.1,15.656,5.456,4.771,11.725,4.013,17.17.1a80.776,80.776,0,0,1-1.907-16.467Z" transform="translate(1217.85 347.712)" fill="#f79e86"/>
          <path id="Path_2445" data-name="Path 2445" d="M-1191.481-308.887c-.22-2.3-.4-4.656-.471-7.136l-13.165.713c.4.18.447,3.251.058,6.791a20.855,20.855,0,0,0,3.856,3.411c1.187.7,5.378.449,6.3-.073A10.269,10.269,0,0,0-1191.481-308.887Z" transform="translate(1219.004 347.71)" fill="#edb1a1" style="mix-blend-mode: multiply;isolation: isolate"/>
          <path id="Path_2446" data-name="Path 2446" d="M-1175.06-312.766c.269.936,1.216,3.149,1.12,5-.038.836-.656,6.809-1,7.034s-2.456-.733-2.938-.244.371,1.6.382,2.1a14.973,14.973,0,0,1-2.2,3.911c-1.833,2.138-17.85-.184-17.85-.184s-5.529.858-5.871-.489a15.7,15.7,0,0,1-.067-4.016s-4.369.329-4.847-2.849c-.478-3.156,1.089-5.051.611-5.865s-3.873-2.1-3.642-4.5,3.356-9.516,4.638-10.414c1.587-1.14,4.185,1.344,5.678.367,1.031-.671.629-5.58,4.4-6.865,3.765-1.262,4.7,2.587,5.751,2.669,1.053.1,5.047-4.5,6.425-2.791,1.358,1.711,2.5,5.662,3.86,6.54,1.358.853,7.145,1.593,7.374,3.222C-1172.984-318.529-1175.326-313.724-1175.06-312.766Z" transform="translate(1211.366 330.282)" fill="#293345"/>
          <path id="Path_2447" data-name="Path 2447" d="M-1205.019-310.618s.513,9.18,1.127,10.354,4.542,6.087,5.494,6.578,5.5.72,6.2-.044c.3-.333,4.3-4.842,4.627-6.76.829-4.847,1.949-13.727,1.849-14.5-.18-1.371-1.867-10.776-6.833-11.467s-13.614,2.48-14.5,4.7S-1205.019-310.618-1205.019-310.618Z" transform="translate(1216.435 334.836)" fill="#f79e86"/>
          <path id="Path_2448" data-name="Path 2448" d="M-1202.345-311.26s-5.287-.2-5.556-3.1-.351-6.007.947-6.465,4.125,2.109,4.125,2.109Z" transform="translate(1215.401 341.774)" fill="#f79e86"/>
          <path id="Path_2449" data-name="Path 2449" d="M-1198.9-311.139s5.289-.2,5.558-3.1.349-6.007-.949-6.465-4.125,2.109-4.125,2.109Z" transform="translate(1226.61 341.922)" fill="#f79e86"/>
          <path id="Path_2450" data-name="Path 2450" d="M-1204.918-311.731c.1.18,1.156,2.393,2.162,2.125s3.9-1.513,4.178-2.656c.144-.593-2.554-1.131-2.318-1.862s1.436-2.011,2.089-1.733c.86.364,1.542,2.044,3.527,1.8s2.885-1.4,3.969-1.451a3.546,3.546,0,0,1,2.742,1.082c.3.68.711,3.28,1.422,4.111,1.084,1.271,3.285-.793,3.493-1.26,1.031-2.311-4.371-16.783-7.211-16.681s-17.659,5.151-17.527,8.036S-1204.918-311.731-1204.918-311.731Z" transform="translate(1215.001 332.754)" fill="#293345"/>
        </g>
        <path id="Path_2451" data-name="Path 2451" d="M-1207.281-308.032l-4.48,31.048-1.207,1.553,1.318-30.475C-1210.494-306.581-1208.956-307.274-1207.281-308.032Z" transform="translate(1233.164 357.478)" fill="#2f3b4f"/>
        <path id="Path_2452" data-name="Path 2452" d="M-1195.229-308.386l4.489,31.088,1.451,1.613-1.762-31.021A25.5,25.5,0,0,0-1195.229-308.386Z" transform="translate(1254.847 357.045)" fill="#2f3b4f"/>
        <path id="Path_2453" data-name="Path 2453" d="M-1192.88-275.2v.538h-2.32v-.538h-1.118v31.5l25.554.373v-31.5Z" transform="translate(1253.516 397.612)" fill="#a9c4d3"/>
        <path id="Path_2454" data-name="Path 2454" d="M-1185.339-265.827s3.787,8.343,3.572,9.314-3.905,5.118-5.725,5.391c-1.378.207-2.674-3.516-2.674-3.516l.26-10.387Z" transform="translate(1261.036 409.066)" fill="#f79e86"/>
        <path id="Path_2455" data-name="Path 2455" d="M-1180.712-290.438s4.276,12.514,4.6,16.107c.42,4.645-2.538,30.795-6.262,42.837l-4.518.44-5.447-57.038Z" transform="translate(1258.38 378.983)" fill="#f79e86"/>
        <path id="Path_2456" data-name="Path 2456" d="M-1172.17-265.689c-4.22-14.847-9.658-27.852-13.074-36.679-.68-1.753-8.2-5.325-8.2-5.325l2.843,46.873C-1182.978-260.613-1176.933-261.673-1172.17-265.689Z" transform="translate(1257.025 357.892)" fill="#ffb3c1"/>
        <path id="Path_2457" data-name="Path 2457" d="M-1195.652-274.955l-.3,30.23,1.822-.073.795-30.157Z" transform="translate(1253.968 397.908)" fill="#fff2e8"/>
      </g>
      <g id="Group_1080" data-name="Group 1080" transform="translate(128.114)">
        <path id="Path_2458" data-name="Path 2458" d="M-1202.136-273.844c-3.516-5.4-11.843-13.981-11.607-17.65s2.638-11.769-.96-16.661c-3.465-4.707-8.649-6-10.056-9.672-1.362-3.553-2.649-11.736-15.485-12.456-12.836.72-14.123,8.967-15.485,12.518-1.4,3.669-7.045,4.631-11.03,8.949s-.22,13.714.016,17.383-9.687,12.089-12.325,17.923c-2.909,6.434,11.151,17.692,11.151,17.692s15.429,1.958,27.672,3.571c12.245-1.613,27.672-3.636,27.672-3.636S-1198.621-268.448-1202.136-273.844Z" transform="translate(1279.465 330.282)" fill="#4b525e"/>
        <path id="Path_2459" data-name="Path 2459" d="M-1275.778-281.479c5.831,7.2,10.5,8.209,17.283,7.769l-3.631-33.433c-3.1.8-4.64,3.018-6.567,6.349C-1271.469-296-1273.78-288.128-1275.778-281.479Z" transform="translate(1283.972 358.567)" fill="#00c6b3"/>
        <path id="Path_2460" data-name="Path 2460" d="M-1237.27-282.282c-5.885,7.158-12.343,8.589-19.123,8.1l3.109-33.45c3.091.82,4.758,3.029,6.911,6.191A77.083,77.083,0,0,1-1237.27-282.282Z" transform="translate(1307.667 357.965)" fill="#00c6b3"/>
        <path id="Path_2461" data-name="Path 2461" d="M-1236.379-306.477a52.745,52.745,0,0,0-32.35.92s-1.878,25.306-1.422,27.7c.318,1.66,2.98,3.98,4.584,5.249l1.951,20.316,26.741.2s.262-18.332.7-19.488,4.451-5.129,4.471-8.029S-1236.379-306.477-1236.379-306.477Z" transform="translate(1290.762 356.808)" fill="#00c6b3"/>
        <path id="Path_2462" data-name="Path 2462" d="M-1263.343-119.35c0-1.053-12-126.683-9.678-135.07,2.391-8.643,13.372-28.77,13.372-28.77h26.743s7.712,18.672,9.1,23.157c2.893,9.32,34.239,141.722,33,140.684-.667-.56-29.872,0-29.872,0l-24.083-115.616,10.427,115.616Z" transform="translate(1286.978 387.842)" fill="#f9716e"/>
        <path id="Path_2463" data-name="Path 2463" d="M-1236.889-278.153c-1.262-2.94-2.185-5.038-2.185-5.038h-26.743s-1,2.036-2.456,5.038Z" transform="translate(1293.146 387.842)" fill="#b85042"/>
        <rect id="Rectangle_535" data-name="Rectangle 535" width="8.921" height="5.037" transform="translate(36.399 104.652)" fill="#455a75"/>
        <path id="Path_2464" data-name="Path 2464" d="M-1249.429-300.44c-1.336-3.013-2.725-13.8-2.725-13.8l-10.343.418s-1.3,9.612-2.3,13.385C-1260.033-294.853-1254.847-295.844-1249.429-300.44Z" transform="translate(1297.396 349.887)" fill="#f79e86"/>
        <g id="Group_1077" data-name="Group 1077" transform="translate(29.588 10.078)">
          <g id="Group_1076" data-name="Group 1076">
            <path id="Path_2465" data-name="Path 2465" d="M-1252.314-309.273l-.742-4.767-10.387.316-.611,4.156C-1260.95-307.457-1255.819-307.8-1252.314-309.273Z" transform="translate(1268.713 340.057)" fill="#edb1a1" style="mix-blend-mode: multiply;isolation: isolate"/>
            <path id="Path_2466" data-name="Path 2466" d="M-1255.83-325.747c-15.438,0-9.207,18.181-8.4,21.459.769,3.136,4.329,9.538,8.4,9.538s7.614-6.171,8.4-9.538C-1246.652-307.573-1240.39-325.747-1255.83-325.747Z" transform="translate(1266.151 325.747)" fill="#f79e86"/>
          </g>
        </g>
        <path id="Path_2467" data-name="Path 2467" d="M-1267.477-314.1c1.154-1.165,27.155-.842,26.848-.067,0,0-2.638-13.763-13.823-13.323S-1267.477-314.1-1267.477-314.1Z" transform="translate(1294.119 333.685)" fill="#4b525e"/>
        <path id="Path_2468" data-name="Path 2468" d="M-1264.424-311.575l2.285-11.235-5.332.857Z" transform="translate(1294.126 339.415)" fill="#4b525e"/>
        <path id="Path_2469" data-name="Path 2469" d="M-1255.535-311.632l-2.285-11.235,5.332.857Z" transform="translate(1305.922 339.346)" fill="#4b525e"/>
        <path id="Path_2470" data-name="Path 2470" d="M-1265.557-291.023c.356-2.1,18.734-1.927,18.9-.138Z" transform="translate(1296.466 376.404)" fill="#c2b9b1" style="mix-blend-mode: multiply;isolation: isolate"/>
        <g id="Group_1078" data-name="Group 1078" transform="translate(26.509 78.738)">
          <path id="Path_2471" data-name="Path 2471" d="M-1241.02-254.615l-26.517-2.811,3.968-37.425,26.519,2.61Z" transform="translate(1267.537 294.852)" fill="#b0cbdb"/>
        </g>
        <g id="Group_1079" data-name="Group 1079" transform="translate(27.925 87.588)">
          <rect id="Rectangle_536" data-name="Rectangle 536" width="24.16" height="34.099" transform="translate(0.254 0) rotate(0.426)" fill="#626d85"/>
        </g>
        <path id="Path_2472" data-name="Path 2472" d="M-1262.764-268.163l21.505-11.072-1.629-10.527a20.254,20.254,0,0,0,10.876-5.283s3.907,18.581,1.525,20.985c-3.256,3.287-26.937,12.8-26.937,12.8Z" transform="translate(1299.879 373.354)" fill="#f79e86"/>
        <path id="Path_2473" data-name="Path 2473" d="M-1248.661-206.961c-.311-2.433-4.165-4.36-8.883-4.36s-8.572,1.927-8.883,4.36Z" transform="translate(1295.403 475.69)" fill="#5b6a82"/>
        <path id="Path_2474" data-name="Path 2474" d="M-1229.526-206.961c-.311-2.433-4.162-4.36-8.882-4.36s-8.57,1.927-8.883,4.36Z" transform="translate(1318.792 475.69)" fill="#5b6a82"/>
        <path id="Path_2475" data-name="Path 2475" d="M-1253.388-274.243l3.987-3.678-6.476-4.7s-3.365-.684-4.369-.244-5.333,3.1-5.333,3.1,1,1.158,1.816.969,4.911-1.811,4.911-1.811-8.26,4.634-8.427,5.216.362,1.391.8,1.32,6.387-3.171,6.387-3.171-6.9,4.691-7.043,5.138.049,1.431.642,1.369,7.767-5.009,7.767-5.009-6.44,4.685-6.767,5.249a.836.836,0,0,0,.74,1.2c.52-.033,7.049-4.714,7.049-4.714s-5.049,3.969-5.256,4.5a.694.694,0,0,0,.813.907C-1261.613-268.679-1253.388-274.243-1253.388-274.243Z" transform="translate(1294.322 388.059)" fill="#f79e86"/>
        <path id="Path_2476" data-name="Path 2476" d="M-1250.353-277.921l-6.476-4.7s-3.365-.684-4.369-.244-5.333,3.1-5.333,3.1,1,1.158,1.816.969,4.911-1.811,4.911-1.811-3.149,1.653-5.614,3.3l2.038,1.28a25.211,25.211,0,0,1,2.331-1.211s-.907.609-2.078,1.407l1.9,1.147c.9-.613,1.542-1.056,1.542-1.056s-.62.453-1.485,1.091l1.851,1.116c.4-.287.656-.467.656-.467l-.618.489,2.027,1.222c1.6-1.067,2.911-1.951,2.911-1.951Z" transform="translate(1295.274 388.059)" fill="#edb1a1" style="mix-blend-mode: multiply;isolation: isolate"/>
        <path id="Path_2477" data-name="Path 2477" d="M-1264-279.219l4.084,6.583s4.229-1.822,10.021-4.282l-8.125-4.487,2.665-2.876Z" transform="translate(1298.364 386.509)" fill="#edb1a1" style="mix-blend-mode: multiply;isolation: isolate"/>
        <path id="Path_2478" data-name="Path 2478" d="M-1247.97-269.069l-15.432-11.109,1.027-9.187A17.021,17.021,0,0,1-1274-294.272s-2.469,17.239-.086,19.643c3.256,3.285,23.214,12.325,23.214,12.325Z" transform="translate(1284.772 374.298)" fill="#f79e86"/>
        <path id="Path_2479" data-name="Path 2479" d="M-1261.255-272.78l-4.562-2.936,3.542-6s4.634-2.045,5.476-2.418a9.391,9.391,0,0,1,3.6-.685c.54.056.78.509.391.889a2.646,2.646,0,0,1-.843.6,17.862,17.862,0,0,0-3.7,2.327s8.927,4.5,9.194,5.04-.633,1.347-1.242,1.189c-.425-.111-5.765-2.116-5.765-2.116s4.122,1.882,4.34,2.3-.411,1.253-1,1.3-4.425-1.882-4.425-1.882a26.488,26.488,0,0,1,3.116,2.131.839.839,0,0,1-.52,1.316c-.518.056-3.3-1.558-3.3-1.558a13.061,13.061,0,0,1,2.063,1.742.694.694,0,0,1-.642,1.033A58.953,58.953,0,0,1-1261.255-272.78Z" transform="translate(1296.148 385.836)" fill="#f79e86"/>
      </g>
      <g id="Group_1081" data-name="Group 1081" transform="translate(0 7.744)">
        <path id="Path_2480" data-name="Path 2480" d="M-1315.639-215.154l-.32,12.878h5.918l.016-1.225,3.822,1.225h15.516l-1.169-3.491c-3.345-.236-12.9-3.3-13.834-5.414-.578-1.309-3.711-3.142-3.711-3.142Z" transform="translate(1362.972 463.261)" fill="#4c4152"/>
        <path id="Path_2481" data-name="Path 2481" d="M-1320.025-215.154l.187,12.878h-2.678l-.009-1.225-.693,1.225h-11.316l.678-3.491c1.947-.236,5.6-3.927,6.14-6.04.336-1.309,4.065-2.516,4.065-2.516Z" transform="translate(1340.266 463.261)" fill="#4c4152"/>
        <path id="Path_2482" data-name="Path 2482" d="M-1332.177-134.038c3.885-41.44,11.345-92,18.156-142.782h36.1l-6.931,141.989-11.625,3.382s-4.3-44.526-2.3-63.189c1.614-15.01.925-49.982.925-49.982-5.282,34.5-13.623,76.526-24.155,112.309Z" transform="translate(1343.148 387.886)" fill="#00c6b3"/>
        <path id="Path_2483" data-name="Path 2483" d="M-1305.81-304.034s6.283,2.127,8.77,4.611,9.5,28.219,9.5,28.219l-19.1,3.08Z" transform="translate(1374.353 354.622)" fill="#f9716e"/>
        <path id="Path_2484" data-name="Path 2484" d="M-1317.49-234.372l-11.849-61.18,25.072-12.841L-1278.3-298l-3.082,63.63A112.789,112.789,0,0,1-1317.49-234.372Z" transform="translate(1346.617 349.294)" fill="#ffb3c1"/>
        <path id="Path_2485" data-name="Path 2485" d="M-1318.672-314.23c0,.7-2.576,18.81-2.576,18.81s8.905,8.749,10.325,8.612c1.291-.127,7.507-8.147,7.507-8.147l-3.765-19.508Z" transform="translate(1356.507 341.874)" fill="#f79e86"/>
        <path id="Path_2486" data-name="Path 2486" d="M-1305.373-301.907l-2.316-12.556-11.492.233c0,.478-.891,6.836-1.651,12.236C-1314.8-294.927-1310.769-295.911-1305.373-301.907Z" transform="translate(1357.016 341.874)" fill="#edb1a1" style="mix-blend-mode: multiply;isolation: isolate"/>
        <path id="Path_2487" data-name="Path 2487" d="M-1318.416-306.581s-4.485-1.765-4.8-2.858.155-6.862.155-6.862a5.175,5.175,0,0,1,3.583,2.371C-1318.345-311.876-1318.416-306.581-1318.416-306.581Z" transform="translate(1353.975 339.627)" fill="#f79e86"/>
        <path id="Path_2488" data-name="Path 2488" d="M-1313.743-306.953s4.485-1.767,4.8-2.858-.158-6.863-.158-6.863a5.167,5.167,0,0,0-3.58,2.371C-1313.814-312.248-1313.743-306.953-1313.743-306.953Z" transform="translate(1365.679 339.173)" fill="#f79e86"/>
        <path id="Path_2489" data-name="Path 2489" d="M-1328.437-300.927c1.149-.747.927,76.834.718,85.722,4.894,1.9,10.512,2.191,16.532,1.6.674-37.259,3.178-72.908-3-92.76Z" transform="translate(1347.72 351.768)" fill="#f9716e"/>
        <path id="Path_2490" data-name="Path 2490" d="M-1298.4-301.351c0,.838-.584,85.99-.584,85.99-4.78,1.024-9.594,1.6-13.469.98,1.331-26.01,3.749-46.447,3.671-66.752-.031-7.843-3.365-19.425-3.931-25.1Z" transform="translate(1366.941 351.939)" fill="#f9716e"/>
        <path id="Path_2491" data-name="Path 2491" d="M-1322.226-292.4a9.624,9.624,0,0,1,4.011-1.76l16.087,4.34,12.978-2.907a6.729,6.729,0,0,1,3.356,1.925l-17.561,5.362Z" transform="translate(1355.312 366.69)" fill="#fff"/>
        <path id="Path_2492" data-name="Path 2492" d="M-1298.11-288.906l-1.747-.062-19.844-4.658-.292.146-4.553,26.557,19.407,6.551,2.267.039,14.645-4.618,5.953-27.123-.384-.143Z" transform="translate(1352.476 367.343)" fill="#9974c7"/>
        <path id="Path_2493" data-name="Path 2493" d="M-1313.359-278.019l-8.409,1.669,2.422-10.963-15.912-.5s-.76,25.119,1.707,27.388c3.374,3.1,25.4-12.192,25.4-12.192Z" transform="translate(1339.247 374.451)" fill="#f79e86"/>
        <path id="Path_2494" data-name="Path 2494" d="M-1310.531-291.531l1.747.062-4.762,28.573-2.267-.039Z" transform="translate(1363.15 369.905)" fill="#ab81de"/>
        <path id="Path_2495" data-name="Path 2495" d="M-1303.6-276.109l2.978.662-2.416-11.269,14.49-2.322s.522,26.092-1.945,28.361c-3.373,3.1-17.85-9.8-17.85-9.8Z" transform="translate(1372.287 372.95)" fill="#f79e86"/>
        <path id="Path_2496" data-name="Path 2496" d="M-1317.386-304s-12.354,5.282-13.338,6.987c-1.767,3.058-6.389,28.85-6.389,28.85l25.192.849.64-14.212Z" transform="translate(1337.114 354.662)" fill="#f9716e"/>
        <path id="Path_2497" data-name="Path 2497" d="M-1320.906-292.582c.622,2.018,6.658,6.794,9.582,6.651,3.46-.171,8.3-4.931,8.963-6.918,1.115-3.349,1.5-14.39,1.251-19.092-.229-4.336-1.311-8.552-4.836-11.236s-13.054-2.207-15.05,2.871S-1321.528-294.6-1320.906-292.582Z" transform="translate(1355.577 329.252)" fill="#f79e86"/>
        <path id="Path_2498" data-name="Path 2498" d="M-1318.523-298.5s-7.083-10.625-5.78-16.623c.584-2.691,6.4-4.22,6.4-4.22s4.843-9.1,11.427-7.189c6.656,1.931,4.8,5.454,4.8,5.454s8.016,1.007,8.209,3.84a9.864,9.864,0,0,1-1.167,5.147s2.238,2.2,1.751,3.151-5.733,8.36-5.733,8.36-.082-10.329-6.449-9.429c-7.585,1.071-9.8-1.558-11.06,1.173S-1318.523-298.5-1318.523-298.5Z" transform="translate(1352.578 326.797)" fill="#4b525e"/>
        <path id="Path_2499" data-name="Path 2499" d="M-1317.959-273.8l-4.578,1.2-3.058-6.429c1.3-2.136,1.236-3.814,3.989-5.869l.047,2.1s9.043-4.022,9.552-3.829a1.105,1.105,0,0,1,.522,1.387c-.256.318-5.991,3.725-5.991,3.725s7.3-3.007,7.7-2.869a1.18,1.18,0,0,1,.482,1.48c-.322.456-7.372,3.736-7.372,3.736s6.554-2.558,7.125-2.5.813.882.547,1.293-6.774,3.145-6.774,3.145,5.291-1.916,5.778-1.784a.748.748,0,0,1,.293,1.184C-1310.01-277.429-1317.959-273.8-1317.959-273.8Z" transform="translate(1351.194 375.898)" fill="#f79e86"/>
        <path id="Path_2500" data-name="Path 2500" d="M-1305.172-273.43l4.329,1.916,4.038-5.865c-.942-2.313-.727-4.027-3.12-6.494l-.418,2.013s-8.14-5.283-8.674-5.174-.936.933-.733,1.287,5.324,4.627,5.324,4.627-6.731-4.125-7.147-4.051a1.175,1.175,0,0,0-.709,1.385c.245.5,6.685,4.856,6.685,4.856s-6.067-3.562-6.638-3.6-.945.742-.745,1.191,6.189,4.178,6.189,4.178-4.92-2.731-5.422-2.678a.749.749,0,0,0-.476,1.125C-1312.446-278.275-1305.172-273.43-1305.172-273.43Z" transform="translate(1366.548 375.4)" fill="#f79e86"/>
        <path id="Path_2501" data-name="Path 2501" d="M-1311.678-289.514l-.544,2.876,12.175-2.052.617-3.046Z" transform="translate(1367.539 369.654)" fill="#ab81de"/>
      </g>
    </g>
  </g>
</svg>
