<svg id="Group_972" data-name="Group 972" xmlns="http://www.w3.org/2000/svg" width="91.804" height="276.707" viewBox="0 0 91.804 276.707">
  <path id="Path_1870" data-name="Path 1870" d="M-604.014-262.04c-.516-1.162-2.673-6.029-7.078-8.227-8.883-4.434-23.4,3.74-25.255,11.669-.167.711-.376,1.516-.6,2.391a14.821,14.821,0,0,0-4.187,5.071c-2.422,4.925-.253,8.114-2.489,10.714-3.565,4.147-12.536.049-13.583,2.487-.5,1.176,1.042,3.422,3.409,5.067a2.868,2.868,0,0,0-1.5,1.056c-2.533,3.527,1.829,13.485,9.374,16.643a16.058,16.058,0,0,0,9.758.576c17.176-3.794,31.75-33.833,33.673-37.882A19.149,19.149,0,0,0-604.014-262.04Z" transform="translate(657.296 281.842)" fill="#3f424a"/>
  <path id="Path_1871" data-name="Path 1871" d="M-632.372-227.238A65.611,65.611,0,0,0-616.98-232.4a65.392,65.392,0,0,0,9.678-5.734q-.183-3.7-.544-7.6a175.025,175.025,0,0,0-3.767-23.194l3.771-1.413a111.635,111.635,0,0,1,6.309,14.1,111.864,111.864,0,0,1,5.514,21.432,5.169,5.169,0,0,1-2.087,5.009,82.526,82.526,0,0,1-16.454,9.167,82.27,82.27,0,0,1-11.689,3.854,11.55,11.55,0,0,1-3.222-2.558A12.362,12.362,0,0,1-632.372-227.238Z" transform="translate(687.761 283.277)" fill="#fcb6a1"/>
  <path id="Path_1872" data-name="Path 1872" d="M-613.646-259.435a26.32,26.32,0,0,1-1.127-3.845,26.43,26.43,0,0,1-.564-5.818c.438-3.509.333-4.276.145-4.285-.258-.013-.785,1.371-.993,2.011a9,9,0,0,0-.438,2.333,6.369,6.369,0,0,1-.6-2.336c-.082-1.38.307-2.465-.4-3.347a2.091,2.091,0,0,0-.542-.476c.091-.516.036-.913-.167-.962-.287-.073-.787.582-.9.736a4.977,4.977,0,0,0-.918,2.838c-.124,1.651-.193,3.045-.233,4.149a6.686,6.686,0,0,1-.633-1.147c-.922-2.14-.449-4.107-.847-4.125-.231-.011-.642.653-.856,1.338-.487,1.562.247,2.6.756,4.427a13.717,13.717,0,0,1,.484,3.485,2.856,2.856,0,0,1-1.218-.276c-.667-.333-.656-.731-1.3-1.2s-1.671-.8-2.038-.473a.819.819,0,0,0-.067.871c.207.471.736.6,1.051.727,1.04.411,1.265,1.333,1.756,2.071.513.769,1.569,1.711,3.991,2.316q.84,2.073,1.684,4.145a9.339,9.339,0,0,1,1.845-1.916A9.4,9.4,0,0,1-613.646-259.435Z" transform="translate(695.31 276.164)" fill="#fcb6a1"/>
  <path id="Path_1873" data-name="Path 1873" d="M-635.077-249.34c2.273-.062,4.7-.231,7.26-.549a75.821,75.821,0,0,0,16.832-4.1,10.263,10.263,0,0,1,2.576,3.525,11.645,11.645,0,0,1-.342,9.3,62.843,62.843,0,0,1-5.945,3.273,62.8,62.8,0,0,1-12.916,4.558,24.945,24.945,0,0,1-3.433-4.187A25.931,25.931,0,0,1-635.077-249.34Z" transform="translate(684.455 303.27)" fill="#f9716e"/>
  <path id="Path_1874" data-name="Path 1874" d="M-643.6-167.127a9.629,9.629,0,0,0-1.585,3.276c-.458,1.76-.1,3.182-.993,3.725a1.584,1.584,0,0,1-1.189.124c-1.133-.293-1.56-1.747-1.758-2.425a6.02,6.02,0,0,1-.007-3.2,6.939,6.939,0,0,1,1.351-2.7,2,2,0,0,1,.6-1.411,2.046,2.046,0,0,1,1.671-.5Q-644.556-168.687-643.6-167.127Z" transform="translate(667.006 405.601)" fill="#307da1"/>
  <path id="Path_1875" data-name="Path 1875" d="M-608.739-213.653q2.777,31.015,5.551,62.027-8.387,1.163-16.774,2.329-8.277-30.641-16.552-61.285Q-622.627-212.115-608.739-213.653Z" transform="translate(682.698 352.571)" fill="#fcab92"/>
  <path id="Path_1876" data-name="Path 1876" d="M-591.534-175.611l-54.182,33.3a4.367,4.367,0,0,0-.949,1.073c-.836,1.351-.625,2.765-.942,2.8-.2.022-.433-.507-.553-.942a4.468,4.468,0,0,1,.113-2.473,8.778,8.778,0,0,0,.067-3.987A143.185,143.185,0,0,1-617.287-178.7a141.1,141.1,0,0,1,16.01-10.76Z" transform="translate(668.3 382.142)" fill="#fcab92"/>
  <path id="Path_1877" data-name="Path 1877" d="M-612.068-181.205a8.559,8.559,0,0,1-8.74,8.374,8.561,8.561,0,0,1-8.376-8.743,8.56,8.56,0,0,1,8.743-8.374A8.56,8.56,0,0,1-612.068-181.205Z" transform="translate(691.655 381.544)" fill="#fcab92"/>
  <path id="Path_1878" data-name="Path 1878" d="M-633.468-154.607a7.807,7.807,0,0,0,1.258,2.891c1.293,1.807,3.047,2.487,2.84,3.345-.078.318-.38.478-.907.758a4.049,4.049,0,0,1-3.182.22,4.737,4.737,0,0,1-2.093-1.876,8.8,8.8,0,0,1-1.369-2.693,2.671,2.671,0,0,1-.5-1.593,2.692,2.692,0,0,1,.733-1.771Z" transform="translate(681.586 423.865)" fill="#307da1"/>
  <path id="Path_1879" data-name="Path 1879" d="M-615.163-211.459q2.4,31.041,4.8,62.087l-16.8,2.127-15.814-61.478Z" transform="translate(674.803 355.253)" fill="#fcb6a1"/>
  <path id="Path_1880" data-name="Path 1880" d="M-616.48-180.766l-15.272,61.736a5.071,5.071,0,0,0,.5,2.562c.531,1.038,1.291,1.52,1.122,1.922-.176.42-1.22.436-1.842.316-2.547-.489-3.787-4.327-4.08-5.309A147.09,147.09,0,0,1-637-164.907a144.823,144.823,0,0,1,3.867-18.9Z" transform="translate(680.487 389.052)" fill="#fcb6a1"/>
  <path id="Path_1881" data-name="Path 1881" d="M-615.833-250.647A44.751,44.751,0,0,0-633.6-251.94a30.938,30.938,0,0,0-10.311,3.162,29.477,29.477,0,0,0-3.4,2.078l1.68,21.879a69.558,69.558,0,0,1,11.663,28.977,68.248,68.248,0,0,1,.362,17.983,55.108,55.108,0,0,0,20.063-.262,54.756,54.756,0,0,0,12.6-4.165q-.753-7.954-1.638-16.083-.893-8.234-1.878-16.267a18.088,18.088,0,0,0,1.724-10.216c-.6-4.054-2.647-6.574-4.869-9.909A84.5,84.5,0,0,1-615.833-250.647Z" transform="translate(669.507 305.291)" fill="#ffb3c1"/>
  <path id="Path_1882" data-name="Path 1882" d="M-618.878-178.684a8.56,8.56,0,0,1-8.84,8.269,8.562,8.562,0,0,1-8.269-8.843,8.56,8.56,0,0,1,8.843-8.269A8.56,8.56,0,0,1-618.878-178.684Z" transform="translate(683.336 384.501)" fill="#fcb6a1"/>
  <path id="Path_1883" data-name="Path 1883" d="M-579.764-160.869a43.9,43.9,0,0,1-11.605,5.74c-13.976,4.438-19.859-1.758-34.448,2.125a33.5,33.5,0,0,1-11.385,1.467,31.432,31.432,0,0,1-9.118-1.911q.263-5.71.809-11.678a259.788,259.788,0,0,1,9.727-50.249q16.647-2.533,33.3-5.062a189.256,189.256,0,0,1,9.227,17.714A191.285,191.285,0,0,1-579.764-160.869Z" transform="translate(670.712 344.278)" fill="#6b46b2"/>
  <path id="Path_1884" data-name="Path 1884" d="M-641.967-209.709a44.016,44.016,0,0,0,6.776,2.1c12.965,2.885,24.281-.793,30.486-3.473a41.224,41.224,0,0,1-2.158-6.114,41.354,41.354,0,0,1-1.22-6.8c-1.765.571-3.64,1.087-5.625,1.525a63.474,63.474,0,0,1-26.243.071,35.319,35.319,0,0,1-.1,3.665A35.634,35.634,0,0,1-641.967-209.709Z" transform="translate(676.033 339.918)" fill="#f9716e"/>
  <path id="Path_1885" data-name="Path 1885" d="M-629-252.892a17.928,17.928,0,0,1,5.7,2.351c-.013.98-.069,2.02-.178,3.109a37.074,37.074,0,0,1-1.338,6.829l-2.7-1.485q-.927,1.42-1.854,2.842a42.338,42.338,0,0,1-6.169-2.967,42.53,42.53,0,0,1-8.9-6.954,18.6,18.6,0,0,1,4.936-2.856A18.639,18.639,0,0,1-629-252.892Z" transform="translate(673.017 304.138)" fill="#f9716e"/>
  <path id="Path_1886" data-name="Path 1886" d="M-629.913-257.249q.733,6.887,1.467,13.772a30.5,30.5,0,0,1,.413,4.4,30.936,30.936,0,0,1-.209,4.325q-3-1.837-6.042-3.671-3.507-2.113-6.98-4.162-1.323-8.5-2.649-17Q-636.914-258.417-629.913-257.249Z" transform="translate(673.653 296.425)" fill="#fcab92"/>
  <path id="Path_1887" data-name="Path 1887" d="M-621.5-268.81a98.866,98.866,0,0,1,3.565,14.05c.5,2.845.855,5.556,1.091,8.109a16.322,16.322,0,0,1-2.174,6.231,16.509,16.509,0,0,1-6.489,6.087,23.091,23.091,0,0,1-8.716-2.065,23.173,23.173,0,0,1-8.518-6.716,61.662,61.662,0,0,1-2.089-7.543,62.053,62.053,0,0,1-1.273-14.825,22.7,22.7,0,0,1,8.34-4.582A23.829,23.829,0,0,1-621.5-268.81Z" transform="translate(670.938 282.514)" fill="#fcb6a1"/>
  <path id="Path_1888" data-name="Path 1888" d="M-645.533-240.305a49.807,49.807,0,0,0,13.345-10.332,49.8,49.8,0,0,0,9.183-14.349q1.147-.36,2.3-.718a39.749,39.749,0,0,1,4.782,8.036,39.336,39.336,0,0,1,1.531,4.018,4.45,4.45,0,0,0,2.151-2.727c.387-1.791-1-2.885-2.869-6.887-1.393-2.98-.978-3.127-1.865-4.449-1.951-2.9-5.136-3.96-6.6-4.447a19.247,19.247,0,0,0-16.072,2.3c-7.069,4.536-8.56,12.069-8.9,13.918A22.627,22.627,0,0,0-645.533-240.305Z" transform="translate(667.567 280.021)" fill="#3f424a"/>
  <path id="Path_1889" data-name="Path 1889" d="M-633.893-242.527a150.2,150.2,0,0,0-4.351,14.934c-.962,4.069-1.7,7.947-2.262,11.592q3.05,2.107,6.36,4.191a174.84,174.84,0,0,0,20.75,11.158c-.747,2.289-.5,1.533-1.247,3.825-6.058-1.2-11.141-2.5-15.01-3.578-11.32-3.158-15.267-5.325-18.438-7.787a34.945,34.945,0,0,1-3.233-2.851,3.637,3.637,0,0,1-1.029-3.04,166.486,166.486,0,0,1,3.178-17.5c1.2-5.049,2.558-9.729,3.98-14.014a10.318,10.318,0,0,1,4.173-.54A11.124,11.124,0,0,1-633.893-242.527Z" transform="translate(663.301 312.823)" fill="#fcb6a1"/>
  <path id="Path_1890" data-name="Path 1890" d="M-637.178-220.977a26.575,26.575,0,0,1,3.736,1.449,26.3,26.3,0,0,1,4.96,3.093c2.518,2.482,3.189,2.867,3.311,2.722.167-.2-.611-1.456-.991-2.013a9.019,9.019,0,0,0-1.584-1.769,6.357,6.357,0,0,1,2.22.947c1.144.773,1.769,1.742,2.9,1.722a2.066,2.066,0,0,0,.707-.14c.356.384.7.584.865.453.233-.184.018-.98-.033-1.164a4.984,4.984,0,0,0-1.693-2.456c-1.233-1.1-2.3-2.007-3.149-2.711a6.639,6.639,0,0,1,1.3.2c2.258.569,3.531,2.142,3.787,1.838.151-.178-.127-.907-.54-1.493-.942-1.338-2.216-1.389-3.974-2.1a13.655,13.655,0,0,1-3.058-1.736,2.839,2.839,0,0,1,.96-.8c.671-.324.978-.073,1.742-.3s1.651-.842,1.616-1.329c-.022-.3-.382-.516-.651-.582a1.615,1.615,0,0,0-1.216.391c-.96.576-1.827.189-2.711.131-.922-.062-2.313.2-4.267,1.756l-4.314-1.187a9.366,9.366,0,0,1,.4,2.631A9.377,9.377,0,0,1-637.178-220.977Z" transform="translate(681.78 336.046)" fill="#fcb6a1"/>
  <path id="Path_1891" data-name="Path 1891" d="M-638.738-215.55a26.222,26.222,0,0,1-4.438-.189,26.564,26.564,0,0,1-8.9-2.818c.827-3.431,1.56-6.4,2.149-8.765a139.606,139.606,0,0,1,4.558-14.918c.978-2.638,2-5.1,4.489-6.936a10.987,10.987,0,0,1,3.529-1.707,38.378,38.378,0,0,1,2.476,6.225,38.656,38.656,0,0,1,1.616,11.358Q-636-224.426-638.738-215.55Z" transform="translate(663.67 307.064)" fill="#f9716e"/>
</svg>
