<svg xmlns="http://www.w3.org/2000/svg" width="97.573" height="293.345" viewBox="0 0 97.573 293.345">
  <g id="Group_1009" data-name="Group 1009" transform="translate(0)">
    <path id="Path_2166" data-name="Path 2166" d="M-1057.518,17.762l-.36,14.476h6.651l.018-1.378,4.3,1.378h17.439l-1.314-3.925c-3.76-.264-14.5-3.711-15.549-6.087-.649-1.469-4.172-3.529-4.172-3.529Z" transform="translate(1110.72 261.106)" fill="#4c4152"/>
    <path id="Path_2167" data-name="Path 2167" d="M-1062.447,17.762l.209,14.476h-3.009l-.009-1.378-.782,1.378h-12.718l.762-3.925c2.187-.264,6.289-4.416,6.9-6.789.378-1.471,4.569-2.827,4.569-2.827Z" transform="translate(1085.199 261.106)" fill="#4c4152"/>
    <path id="Path_2168" data-name="Path 2168" d="M-1076.107,108.937c4.369-46.578,12.752-103.407,20.41-160.487h40.58l-7.791,159.594-13.065,3.8s-4.836-50.047-2.582-71.023c1.811-16.87,1.038-56.178,1.038-56.178-5.938,38.775-15.314,86.013-27.15,126.232Z" transform="translate(1088.438 176.385)" fill="#00c6b3"/>
    <path id="Path_2169" data-name="Path 2169" d="M-1046.47-82.137s7.06,2.389,9.854,5.182,10.676,31.717,10.676,31.717l-21.472,3.462Z" transform="translate(1123.513 138.998)" fill="#f9716e"/>
    <path id="Path_2170" data-name="Path 2170" d="M-1059.6-3.84l-13.318-68.765,28.179-14.432,29.181,11.681-3.462,71.516C-1033.063-1.747-1046.63-1.573-1059.6-3.84Z" transform="translate(1092.339 133.009)" fill="#ffb3c1"/>
    <path id="Path_2171" data-name="Path 2171" d="M-1060.928-93.6c0,.784-2.894,21.143-2.894,21.143s10.007,9.834,11.6,9.678c1.453-.142,8.438-9.156,8.438-9.156l-4.231-21.925Z" transform="translate(1103.455 124.67)" fill="#f79e86"/>
    <path id="Path_2172" data-name="Path 2172" d="M-1045.981-79.747l-2.6-14.112-12.916.26c0,.538-1,7.685-1.856,13.754C-1056.57-71.9-1052.045-73.009-1045.981-79.747Z" transform="translate(1104.026 124.67)" fill="#edb1a1" style="mix-blend-mode: multiply;isolation: isolate"/>
    <path id="Path_2173" data-name="Path 2173" d="M-1060.64-85s-5.04-1.985-5.392-3.211.176-7.714.176-7.714a5.809,5.809,0,0,1,4.027,2.665C-1060.558-90.951-1060.64-85-1060.64-85Z" transform="translate(1100.608 122.145)" fill="#f79e86"/>
    <path id="Path_2174" data-name="Path 2174" d="M-1055.387-85.417s5.04-1.985,5.391-3.213-.175-7.714-.175-7.714a5.815,5.815,0,0,0-4.025,2.667C-1055.467-91.37-1055.387-85.417-1055.387-85.417Z" transform="translate(1113.763 121.632)" fill="#f79e86"/>
    <path id="Path_2175" data-name="Path 2175" d="M-1071.9-78.644c1.291-.84,1.042,86.359.809,96.346,5.5,2.133,11.814,2.465,18.581,1.8.755-41.88,3.571-81.948-3.369-104.26Z" transform="translate(1093.577 135.789)" fill="#f9716e"/>
    <path id="Path_2176" data-name="Path 2176" d="M-1038.138-79.12c0,.942-.658,96.651-.658,96.651-5.374,1.151-10.785,1.8-15.141,1.1,1.5-29.235,4.213-52.207,4.127-75.028-.036-8.816-3.78-21.837-4.418-28.21Z" transform="translate(1115.182 135.981)" fill="#f9716e"/>
    <path id="Path_2177" data-name="Path 2177" d="M-1064.922-69.062a10.821,10.821,0,0,1,4.509-1.978l18.083,4.876,14.585-3.267a7.611,7.611,0,0,1,3.774,2.162l-19.739,6.029Z" transform="translate(1102.11 152.562)" fill="#fff"/>
    <path id="Path_2178" data-name="Path 2178" d="M-1037.816-65.134l-1.964-.07-22.3-5.235-.328.164-5.117,29.85,21.813,7.363,2.548.044,16.461-5.19,6.691-30.485-.432-.161Z" transform="translate(1098.923 153.296)" fill="#9974c7"/>
    <path id="Path_2179" data-name="Path 2179" d="M-1054.955-52.895l-9.451,1.876,2.72-12.323-17.883-.562s-.854,28.235,1.92,30.786c3.789,3.485,28.548-13.7,28.548-13.7Z" transform="translate(1084.054 161.284)" fill="#f79e86"/>
    <path id="Path_2180" data-name="Path 2180" d="M-1051.777-68.084l1.964.07-5.353,32.116-2.548-.044Z" transform="translate(1110.921 156.175)" fill="#ab81de"/>
    <path id="Path_2181" data-name="Path 2181" d="M-1043.98-50.751l3.347.744-2.714-12.667,16.285-2.609s.587,29.326-2.187,31.875c-3.791,3.487-20.063-11.018-20.063-11.018Z" transform="translate(1121.191 159.599)" fill="#f79e86"/>
    <path id="Path_2182" data-name="Path 2182" d="M-1059.482-82.1s-13.885,5.938-14.992,7.856c-1.987,3.436-7.183,32.426-7.183,32.426l28.317.953.72-15.972Z" transform="translate(1081.656 139.042)" fill="#f9716e"/>
    <path id="Path_2183" data-name="Path 2183" d="M-1063.44-69.264c.7,2.265,7.485,7.634,10.771,7.474,3.889-.191,9.329-5.545,10.074-7.776,1.255-3.765,1.687-16.174,1.406-21.459-.258-4.871-1.473-9.612-5.436-12.629s-14.672-2.48-16.914,3.227S-1064.138-71.53-1063.44-69.264Z" transform="translate(1102.409 110.482)" fill="#f79e86"/>
    <path id="Path_2184" data-name="Path 2184" d="M-1060.76-75.921s-7.96-11.941-6.5-18.681c.658-3.027,7.191-4.745,7.191-4.745s5.44-10.227,12.843-8.08c7.482,2.171,5.391,6.129,5.391,6.129s9.009,1.131,9.227,4.318a11.071,11.071,0,0,1-1.311,5.782s2.514,2.48,1.967,3.542-6.445,9.4-6.445,9.4-.091-11.609-7.249-10.6c-8.525,1.2-11.01-1.751-12.432,1.318S-1060.76-75.921-1060.76-75.921Z" transform="translate(1099.037 107.723)" fill="#4b525e"/>
    <path id="Path_2185" data-name="Path 2185" d="M-1060.125-48.153l-5.147,1.356-3.436-7.227c1.458-2.4,1.387-4.287,4.482-6.6l.053,2.362s10.163-4.52,10.736-4.3a1.24,1.24,0,0,1,.584,1.56c-.287.356-6.734,4.187-6.734,4.187s8.2-3.38,8.652-3.227a1.323,1.323,0,0,1,.542,1.665c-.36.511-8.283,4.2-8.283,4.2s7.367-2.873,8.007-2.816a1.006,1.006,0,0,1,.616,1.456c-.3.46-7.614,3.533-7.614,3.533s5.945-2.153,6.494-2.007a.842.842,0,0,1,.329,1.333C-1051.192-52.236-1060.125-48.153-1060.125-48.153Z" transform="translate(1097.483 162.912)" fill="#f79e86"/>
    <path id="Path_2186" data-name="Path 2186" d="M-1045.752-47.739l4.865,2.153,4.538-6.591c-1.058-2.6-.816-4.527-3.5-7.3l-.471,2.265s-9.149-5.938-9.749-5.816-1.051,1.051-.824,1.447,5.985,5.2,5.985,5.2-7.565-4.636-8.031-4.554a1.322,1.322,0,0,0-.8,1.556c.276.562,7.514,5.458,7.514,5.458s-6.82-4-7.46-4.049-1.062.836-.838,1.34,6.956,4.7,6.956,4.7-5.529-3.069-6.094-3.011a.843.843,0,0,0-.536,1.265C-1053.928-53.184-1045.752-47.739-1045.752-47.739Z" transform="translate(1114.74 162.352)" fill="#f79e86"/>
    <path id="Path_2187" data-name="Path 2187" d="M-1053.066-65.818l-.611,3.232,13.684-2.306.694-3.423Z" transform="translate(1115.854 155.893)" fill="#ab81de"/>
  </g>
</svg>
