<svg xmlns="http://www.w3.org/2000/svg" width="122.434" height="276.458" viewBox="0 0 122.434 276.458">
  <g id="Group_1115" data-name="Group 1115" transform="translate(432.209 270.46)">
    <path id="Path_2569" data-name="Path 2569" d="M-368.509-262.885a2.365,2.365,0,0,0-2.59-2.084,2.83,2.83,0,0,0-2.231.952,1.938,1.938,0,0,0-.4,1.253c.127,16.524-3.181,32.286-9.567,45.6a79.665,79.665,0,0,1-4.054,7.9l-.274.466,10.741,7.362.183-.477C-370.07-219.175-367.314-239.69-368.509-262.885Z" transform="translate(56.282 6.931)" fill="#ff9985"/>
    <g id="Group_1110" data-name="Group 1110" transform="translate(-344.67 -10.468)">
      <path id="Path_2570" data-name="Path 2570" d="M-391.119-155.537l-2.4,13.88,5.674.492,2.564-2.95-.306-.591,2.032-10.177Z" transform="translate(393.515 155.537)" fill="#ffa27f"/>
    </g>
    <g id="Group_1111" data-name="Group 1111" transform="translate(-346.071 -2.621)">
      <path id="Path_2571" data-name="Path 2571" d="M-377.555-147.6l-12.907-4.389c-.638-.215-1.416.018-1.547.466l-2.106,7.115c-.122.416.378.8,1.043.81l13.875.147C-375.553-143.409-374.329-146.5-377.555-147.6Z" transform="translate(394.134 152.069)" fill="#5e9ccc"/>
    </g>
    <path id="Path_2572" data-name="Path 2572" d="M-359.807-154.17c-.946-11.775-4.862-24.519-11.972-38.964l-.665-1.351a39.821,39.821,0,0,0-1.939-4.018l-.735-1.312-24.553,1.4.792,2.873c1.061,3.86,3.529,8.959,6.387,14.861,13.7,28.306,15.264,35,8.174,50.782-3.1,6.909-3.251,16.234-5.773,31.084a3.046,3.046,0,0,0,2.991,3.561h10.131a3.05,3.05,0,0,0,2.937-2.274c2.78-10.493,5.389-18.707,8.321-27.743,1.937-5.973,3.468-10.689,4.527-15.049.452-1.862.79-3.568,1.036-5.217A37.537,37.537,0,0,0-359.807-154.17Z" transform="translate(41.074 89.176)" fill="#6b46b2"/>
    <g id="Group_1112" data-name="Group 1112" transform="translate(-429.975 -24.329)">
      <path id="Path_2573" data-name="Path 2573" d="M-421.332-161.664l-9.89,10.029,4.378,3.643,3.79-.959.086-.66,7.478-7.2Z" transform="translate(431.222 161.664)" fill="#ffa27f"/>
    </g>
    <g id="Group_1113" data-name="Group 1113" transform="translate(-432.209 -18.515)">
      <path id="Path_2574" data-name="Path 2574" d="M-416.621-147.5l-8.092-10.97c-.4-.541-1.172-.794-1.536-.5l-5.791,4.64c-.337.271-.147.873.4,1.26l11.3,8.043C-417.368-142.916-414.6-144.757-416.621-147.5Z" transform="translate(432.209 159.094)" fill="#5e9ccc"/>
    </g>
    <path id="Path_2575" data-name="Path 2575" d="M-355.8-195.829l-24.227-5.8c-1.744,4.948-3.393,5.536-5.468,18.66-4.907,31.062-6.208,37.448-21.04,46.36-6.491,3.9-11.936,11.472-22.485,22.225a3.048,3.048,0,0,0,.423,4.633c8.2,5.7,9.708,7.563,12.027,5.592C-383.125-132.575-364.893-134.43-355.8-195.829Z" transform="translate(2.923 86.885)" fill="#6b46b2"/>
    <path id="Path_2576" data-name="Path 2576" d="M-397.662-264.214a3.8,3.8,0,0,0-3.07-2.061,1.5,1.5,0,0,0-1.484.966c-9,20.307-13.511,40.321-13.416,59.49l0,.529,12.212-.855-.088-.566c-.482-3.165-.808-6.325-.968-9.413a105.837,105.837,0,0,1,6.932-46.26A2.16,2.16,0,0,0-397.662-264.214Z" transform="translate(20.925 5.282)" fill="#ff9985"/>
    <path id="Path_2577" data-name="Path 2577" d="M-339.9-234.7l-10-5.454a4.173,4.173,0,0,0-5.2,1.007c-1.71,2.059-2.7,2.855-7.334,7.176a4.938,4.938,0,0,1-3.7,1.339c-8.429-.6-19.083,1.837-25.377,4.206A2.965,2.965,0,0,1-395.3-228.1c-1.982-4.975-2.507-6.2-3.093-8.506a4.11,4.11,0,0,0-4.208-3.1l-12.146.676a2.216,2.216,0,0,0-2.095,2.337c.423,7.454,2,17.255,5.572,24.356a48.631,48.631,0,0,1,5.163,20.748c.011.45.036.9.036,1.346-.007,1.543.014,3.095.041,4.649.045,2.787.149,5.586.285,8.382.321,6.631.882,13.235,1.606,19.585.477,4.183,1.025,8.258,1.629,12.144.233,1.5.552,3.122,1.722,4.081s2.821.961,4.33.916q3.254-.1,6.506-.195l30.7-.921a9.608,9.608,0,0,0,3.545-.785,7.7,7.7,0,0,0,3.563-10.447A62.233,62.233,0,0,1-357.6-169.1a52.286,52.286,0,0,1-.416-15.567,76.1,76.1,0,0,1,1.38-7.929c.1-.43.19-.86.292-1.289.514-2.161.948-4.054,1.339-5.762,2.437-10.646,2.93-13.3,6.715-17.375a60.586,60.586,0,0,0,5.242-6.513,69.238,69.238,0,0,0,4.35-7.149A2.975,2.975,0,0,0-339.9-234.7Z" transform="translate(19.4 37.621)" fill="#f9716e"/>
    <path id="Path_2578" data-name="Path 2578" d="M-396.083-219.012a6.969,6.969,0,0,1-6.95-6.95v-3.909a6.971,6.971,0,0,1,6.95-6.95,6.971,6.971,0,0,1,6.95,6.95v3.909A6.969,6.969,0,0,1-396.083-219.012Z" transform="translate(36.83 42.463)" fill="#ff9985"/>
    <path id="Path_2579" data-name="Path 2579" d="M-402.018-264.721c-.321.5-.993,1.864-1.59,1.8-.289-.032-.321-.439-.271-.731q.346-2.033.8-4.047a1.436,1.436,0,0,0-.563-1.783c-1.072-.973-1.83-1.407-3.457-.418a9.743,9.743,0,0,0-3.654,4c-.93,2.579,1.05,7.7,3.113,9.28,1.07.821,3.192,1.224,3.808-.443,1.106-3.007,1.242-2.305,2.029-4.188a8.729,8.729,0,0,0,.69-3.2A.493.493,0,0,0-402.018-264.721Z" transform="translate(26.79 0)" fill="#ff9985"/>
    <path id="Path_2580" data-name="Path 2580" d="M-381.414-263.906c.31.477.957,1.792,1.529,1.731.278-.029.31-.421.262-.7q-.336-1.955-.774-3.889a1.384,1.384,0,0,1,.543-1.715c1.029-.932,1.758-1.351,3.321-.4a9.326,9.326,0,0,1,3.509,3.844c.9,2.48-1.009,7.4-2.991,8.918-1.027.79-3.068,1.176-3.656-.425-1.063-2.889-1.194-2.215-1.95-4.022a8.411,8.411,0,0,1-.665-3.079A.474.474,0,0,1-381.414-263.906Z" transform="translate(63.02 1.314)" fill="#ff9985"/>
    <g id="Group_1114" data-name="Group 1114" transform="translate(-374.575 -242.907)">
      <path id="Path_2581" data-name="Path 2581" d="M-360.156-243.061c-.7-1.269-2.461-1.624-3.357-2.776-.692-.894-.74-2.086-1.106-3.142a5.7,5.7,0,0,0-4.776-3.665c-1.136-.1-2.391.127-3.337-.516-1.339-.916-1.516-3.251-3.12-3.507-1.093-.174-2,.835-3.088.964-1.387.161-2.493-1.068-3.694-1.792a5.625,5.625,0,0,0-5.561-.1c-1.486.848-3.02,2.47-4.595,1.717-.559-.267-.952-.8-1.513-1.07-1.181-.563-2.575.278-3.278,1.337s-1.018,2.346-1.8,3.346c-.921,1.167-2.357,1.805-3.581,2.667s-2.33,2.213-2.056,3.683c.2,1.086,1.109,1.993,1.237,3.079a14.625,14.625,0,0,1,4.742-5.477c1.76.027,5,.609,9.251,3.807,6.5,4.893,0,12.024,7.23,17.277l2.765.695c1.717.986,2.271,3.432,1.213,5.6-1.1,2.246-3.5,3.33-5.362,2.418a12.116,12.116,0,0,1-1.706,2.459l-.477,3.64c4.638-.7,9.339-3.457,13.063-7.71a1.07,1.07,0,0,1,.09-.147c.192-.224.4-.437.581-.67,1.188-.864,3.373-.88,3.927-2.3.294-.756-.027-1.676.351-2.4s1.256-.957,1.932-1.4c2.884-1.887,1.357-6.486,2.988-9.481C-361.9-238.9-358.7-240.421-360.156-243.061Z" transform="translate(408.84 258.281)" fill="#fbe9dc"/>
      <path id="Path_2582" data-name="Path 2582" d="M-383.546-221.616a11.1,11.1,0,0,0,1.683-2.473c1.887.925,4.287-.158,5.384-2.4,1.059-2.17.5-4.615-1.213-5.6l-2.765-.695c-7.228-5.253-.731-12.384-7.23-17.277-4.249-3.2-7.491-3.78-9.251-3.807a14.625,14.625,0,0,0-4.742,5.477c-.059.109-3.891,11.049-3.891,11.049-3.545,7.258,1.45,17.411,9.009,16.965.192-.011.36-.014.547-.023l-1.93,13.255c3.957-1.072,8.072,2.124,12.054,3.4l1.866-14.23Z" transform="translate(406.733 263.843)" fill="#ff9985"/>
    </g>
  </g>
</svg>
