<svg xmlns="http://www.w3.org/2000/svg" width="108.971" height="302.004" viewBox="0 0 108.971 302.004">
  <g id="Group_999" data-name="Group 999" transform="translate(0)">
    <path id="Path_2102" data-name="Path 2102" d="M-846.7,21.243a19.294,19.294,0,0,0-.867,6.74h23.134c-.453-4.051-7.756-2.949-12.923-6.74Z" transform="translate(878.178 274.021)" fill="#4c4152"/>
    <path id="Path_2103" data-name="Path 2103" d="M-821.848,21.243a19.288,19.288,0,0,0-.867,6.74h23.134c-.453-4.051-7.756-2.949-12.923-6.74Z" transform="translate(908.551 274.021)" fill="#4c4152"/>
    <path id="Path_2104" data-name="Path 2104" d="M-826.751-110.8c-7.425-2.538-23.8,1.029-26.037,7.551s-5.049,37.177-5.049,37.177l43.051-.618S-814.9-106.747-826.751-110.8Z" transform="translate(865.63 111.62)" fill="#4b525e"/>
    <path id="Path_2105" data-name="Path 2105" d="M-828.67-79.124l4.642,25.063,2.078,50.542s-8.229.422-8.82-4.86l-5.667-44.251-1.938-22.2Z" transform="translate(889.419 151.34)" fill="#f79e86"/>
    <path id="Path_2106" data-name="Path 2106" d="M-831.89-58.918l10.467-3.153s-6.442-22.154-11.358-24.512a61.693,61.693,0,0,0-7.411-2.52Z" transform="translate(887.196 139.142)" fill="#f9716e"/>
    <path id="Path_2107" data-name="Path 2107" d="M-809.336-64.445l4.764,34.764-1.94.324-25.518.16-7.47-33.085Z" transform="translate(888.042 169.283)" fill="#658fab"/>
    <path id="Path_2108" data-name="Path 2108" d="M-814.2-62.6l6,34.6-3.418.742-24.142-1.014-7.47-33.086Z" transform="translate(883.489 171.533)" fill="#b85042"/>
    <path id="Path_2109" data-name="Path 2109" d="M-834.939-47.115c.28-.187,4.938-2.7,6.058-1.4s2.731,8.034,2.731,8.034l-6.925.724Z" transform="translate(893.618 188.301)" fill="#f79e86"/>
    <path id="Path_2110" data-name="Path 2110" d="M-788.346,49.274S-794.5,12.341-798.793-4.137c-3.749-14.385-15.174-48.684-15.174-48.684s-.8-10.825-.8-11.112c0-1.062-20.741.02-20.741.02s-17.885,17.387-20.343,29.637c-3.069,15.3,4.751,54.791,5.7,73.272.4,7.856-1.38,22.579-.529,32.868,1.922,23.27,14.583,55.194,14.583,55.194l9.725-1.131s-4-59.98-3.856-78.786c.08-10.914,3.8-52.533,3.8-52.533s15.7,48.62,17.492,55.347,3.629,21.11,6.216,27.621,21.6,50.182,21.6,50.182l11.085-1.109Z" transform="translate(867.195 169.338)" fill="#f9716e"/>
    <path id="Path_2111" data-name="Path 2111" d="M-823.676-87.79c-10.9-3.3-16.09-3.509-30.03,1.451l1.051,23.614s5.489,11.552,6.6,15.65c1.242,4.589,2.451,18.854,2.451,18.854,7.431,2.1,17.81,2.38,26.223.693,0,0-.853-12.114,1.451-22.25.418-1.836.511-2.951.944-5.249,1.111-1,3.551-3.84,3.725-5.6C-810.528-68.147-823.676-87.79-823.676-87.79Z" transform="translate(870.679 137.827)" fill="#e2e0e5"/>
    <path id="Path_2112" data-name="Path 2112" d="M-850.028-88.922s6.987,6.947,13.329,6.467,3.654-6.729,3.654-6.729A32.8,32.8,0,0,0-850.028-88.922Z" transform="translate(875.175 137.831)" fill="#f9716e"/>
    <path id="Path_2113" data-name="Path 2113" d="M-837.766-40.583l-10.6-18.1,3.776-14.49-13.581-3.756s-5.085,21.359-2.389,24.081c3.687,3.718,17.981,19.39,17.981,19.39Z" transform="translate(861.344 154.028)" fill="#f79e86"/>
    <path id="Path_2114" data-name="Path 2114" d="M-831.323-61.914l5.986,33.494,1.862-.383-5.835-33.478Z" transform="translate(898.038 171.928)" fill="#fff2e8"/>
    <path id="Path_2115" data-name="Path 2115" d="M-827.29-63.815l5.553,33.507,1.785-.206-5.409-33.623Z" transform="translate(902.968 169.659)" fill="#fff2e8"/>
    <g id="Group_997" data-name="Group 997" transform="translate(21.432 6.348)">
      <path id="Path_2116" data-name="Path 2116" d="M-849.224-79.4c2.3-3.453,3.745-14.158,3.825-18.621l9.78,2.925.556,17.559C-836.128-73.117-841.346-72.8-849.224-79.4Z" transform="translate(854.726 121.891)" fill="#f79e86"/>
      <path id="Path_2117" data-name="Path 2117" d="M-835.66-94.729l-9.954-1.54c-.036.16-1.542.458-1.542.458,1.127,3.449,6.418,7.6,8.445,6.471A6.443,6.443,0,0,0-835.66-94.729Z" transform="translate(857.254 124.035)" fill="#edb1a1" style="mix-blend-mode: multiply;isolation: isolate"/>
      <path id="Path_2118" data-name="Path 2118" d="M-832.853-108.023c-4.162-1.347-16.512-1.425-18.094,4.729-3.029,11.792,3.92,15.13,6.016,16.067,2.853,12.1,14.389,13.343,16.572,11.436,2-1.742,4.485-10.016,3.482-16.139-.838-5.1.5-7.84-.175-10.325C-825.87-105.251-828.535-106.627-832.853-108.023Z" transform="translate(851.7 108.763)" fill="#f79e86"/>
    </g>
    <path id="Path_2119" data-name="Path 2119" d="M-861.144-63.134l18.636,6.531s5.52-15.556,5.22-19.41-7.327-12.438-7.327-12.438a45.473,45.473,0,0,0-8.011,3.925C-855.33-82.6-861.144-63.134-861.144-63.134Z" transform="translate(861.588 139.94)" fill="#f9716e"/>
    <g id="Group_998" data-name="Group 998" transform="translate(18.769 106.041)">
      <path id="Path_2120" data-name="Path 2120" d="M-836.208-53.3c.393-.862-4.776-3.627-6.118-4.327,1.209.618,5.567,2.742,5.858,1.491.36-1.558-5.4-3.969-6.182-4.091a14.011,14.011,0,0,0-3.289.587l2.029-1.536s3.382-1.689,2.727-2.5c-.418-.513-3.169-.076-4,.467-1.267.82-4.945,5.045-4.945,5.045L-852.9-49.37s1.767-.842,3.307-1.447a5.953,5.953,0,0,1,2.051-.4c1.251.14,8.038,2.751,8.343,2.173.467-.889-3.013-2.8-4.687-3.66,1.769.858,5.7,2.627,6.265,1.727.531-.842-6.3-4.442-6.3-4.442S-836.935-51.717-836.208-53.3Z" transform="translate(852.898 63.904)" fill="#f79e86"/>
    </g>
    <path id="Path_2121" data-name="Path 2121" d="M-844.694-103.269c-3.469,13.5-13.143,37.184-13.143,37.184l23.543.633.451-32.128,18.81-.6s.671-13.634-15.443-13.423C-840.265-111.476-844.694-103.269-844.694-103.269Z" transform="translate(865.63 111.636)" fill="#4b525e"/>
  </g>
</svg>
