<svg id="Group_1098" data-name="Group 1098" xmlns="http://www.w3.org/2000/svg" width="661.949" height="346.411" viewBox="0 0 661.949 346.411">
  <g id="Group_1093" data-name="Group 1093">
    <path id="Path_2502" data-name="Path 2502" d="M-81.4-140.939l-596.755-.176s-77.226-96.144-41.668-187.622c38.335-98.631,128.245-92.7,202.88-92.311.851,0,1.7.009,2.547.011q1.547.007,3.082.007,2.2,0,4.367-.009l1.511-.007q.917-.01,1.831-.016c34.571-.327,64.758-3.42,83.324-21.2a144.339,144.339,0,0,1,39.662-26.508q1.66-.767,3.345-1.5c22.114-9.632,47.2-15.1,73.046-16.636q2.81-.167,5.629-.271c108.88-4.04,228.21,61.065,193.74,179.426C-128.723-225.816-32.237-222.838-81.4-140.939Z" transform="translate(729.181 487.35)" fill="#fcecdb"/>
    <g id="Group_1092" data-name="Group 1092" transform="translate(108.273 153.38)">
      <g id="Group_1084" data-name="Group 1084" transform="translate(4.521 3.177)">
        <rect id="Rectangle_537" data-name="Rectangle 537" width="2.444" height="184.788" transform="translate(16.622)" fill="#ffa69e"/>
        <path id="Path_2503" data-name="Path 2503" d="M-642.738-329.436h-35.688a4.646,4.646,0,0,1,4.645-4.645h26.4a4.645,4.645,0,0,1,4.645,4.645Z" transform="translate(678.426 518.136)" fill="#ffa69e"/>
      </g>
      <g id="Group_1091" data-name="Group 1091" transform="translate(15.497 52.084)">
        <g id="Group_1087" data-name="Group 1087">
          <g id="Group_1085" data-name="Group 1085" transform="translate(0.024)">
            <path id="Path_2504" data-name="Path 2504" d="M-673.476-394.056a.447.447,0,0,1,.449-.447.447.447,0,0,1,.447.447.447.447,0,0,1-.447.449A.448.448,0,0,1-673.476-394.056Z" transform="translate(673.476 395.374)" fill="#ffa69e"/>
            <path id="Path_2505" data-name="Path 2505" d="M-673.476-394.446a.449.449,0,0,1,.449-.449.449.449,0,0,1,.447.449.447.447,0,0,1-.447.447A.447.447,0,0,1-673.476-394.446Z" transform="translate(673.476 394.895)" fill="#ffa69e"/>
            <path id="Path_2506" data-name="Path 2506" d="M-673.476-393.663a.449.449,0,0,1,.449-.449.449.449,0,0,1,.447.449.447.447,0,0,1-.447.447A.447.447,0,0,1-673.476-393.663Z" transform="translate(673.476 395.852)" fill="#ffa69e"/>
            <path id="Path_2507" data-name="Path 2507" d="M-673.476-393.263a.449.449,0,0,1,.449-.449.449.449,0,0,1,.447.449.447.447,0,0,1-.447.447A.447.447,0,0,1-673.476-393.263Z" transform="translate(673.476 396.341)" fill="#ffa69e"/>
          </g>
          <g id="Group_1086" data-name="Group 1086" transform="translate(0 3.507)">
            <path id="Path_2508" data-name="Path 2508" d="M-673.487-392.479a.447.447,0,0,1,.447-.447.447.447,0,0,1,.449.447.448.448,0,0,1-.449.449A.447.447,0,0,1-673.487-392.479Z" transform="translate(673.487 393.795)" fill="#ffa69e"/>
            <path id="Path_2509" data-name="Path 2509" d="M-673.487-392.87a.447.447,0,0,1,.447-.447.447.447,0,0,1,.449.447.447.447,0,0,1-.449.447A.447.447,0,0,1-673.487-392.87Z" transform="translate(673.487 393.317)" fill="#ffa69e"/>
            <path id="Path_2510" data-name="Path 2510" d="M-673.487-392.087a.447.447,0,0,1,.447-.447.447.447,0,0,1,.449.447.447.447,0,0,1-.449.447A.447.447,0,0,1-673.487-392.087Z" transform="translate(673.487 394.274)" fill="#ffa69e"/>
            <path id="Path_2511" data-name="Path 2511" d="M-673.487-391.687a.447.447,0,0,1,.447-.447.447.447,0,0,1,.449.447.447.447,0,0,1-.449.447A.447.447,0,0,1-673.487-391.687Z" transform="translate(673.487 394.763)" fill="#ffa69e"/>
          </g>
        </g>
        <g id="Group_1090" data-name="Group 1090" transform="translate(0 6.987)">
          <g id="Group_1088" data-name="Group 1088" transform="translate(0.024)">
            <path id="Path_2512" data-name="Path 2512" d="M-673.476-390.913a.447.447,0,0,1,.449-.447.447.447,0,0,1,.447.447.447.447,0,0,1-.447.449A.448.448,0,0,1-673.476-390.913Z" transform="translate(673.476 392.229)" fill="#ffa69e"/>
            <path id="Path_2513" data-name="Path 2513" d="M-673.476-391.3a.447.447,0,0,1,.449-.447.447.447,0,0,1,.447.447.447.447,0,0,1-.447.447A.447.447,0,0,1-673.476-391.3Z" transform="translate(673.476 391.751)" fill="#ffa69e"/>
            <path id="Path_2514" data-name="Path 2514" d="M-673.476-390.521a.447.447,0,0,1,.449-.447.447.447,0,0,1,.447.447.447.447,0,0,1-.447.447A.447.447,0,0,1-673.476-390.521Z" transform="translate(673.476 392.708)" fill="#ffa69e"/>
            <path id="Path_2515" data-name="Path 2515" d="M-673.476-390.121a.447.447,0,0,1,.449-.447.447.447,0,0,1,.447.447.447.447,0,0,1-.447.447A.447.447,0,0,1-673.476-390.121Z" transform="translate(673.476 393.197)" fill="#ffa69e"/>
          </g>
          <g id="Group_1089" data-name="Group 1089" transform="translate(0 3.505)">
            <path id="Path_2516" data-name="Path 2516" d="M-673.487-389.334a.447.447,0,0,1,.447-.449.448.448,0,0,1,.449.449.447.447,0,0,1-.449.447A.447.447,0,0,1-673.487-389.334Z" transform="translate(673.487 390.652)" fill="#ffa69e"/>
            <path id="Path_2517" data-name="Path 2517" d="M-673.487-389.727a.447.447,0,0,1,.447-.447.447.447,0,0,1,.449.447.449.449,0,0,1-.449.449A.449.449,0,0,1-673.487-389.727Z" transform="translate(673.487 390.174)" fill="#ffa69e"/>
            <path id="Path_2518" data-name="Path 2518" d="M-673.487-388.944a.447.447,0,0,1,.447-.447.447.447,0,0,1,.449.447.449.449,0,0,1-.449.449A.449.449,0,0,1-673.487-388.944Z" transform="translate(673.487 391.131)" fill="#ffa69e"/>
            <path id="Path_2519" data-name="Path 2519" d="M-673.487-388.544a.447.447,0,0,1,.447-.447.447.447,0,0,1,.449.447.447.447,0,0,1-.449.447A.447.447,0,0,1-673.487-388.544Z" transform="translate(673.487 391.62)" fill="#ffa69e"/>
          </g>
        </g>
      </g>
      <path id="Path_2520" data-name="Path 2520" d="M-637.2-363.58H-680.46l5.866-54.752h31.531Z" transform="translate(680.46 418.332)" fill="#ffa69e"/>
    </g>
  </g>
  <g id="Group_1094" data-name="Group 1094" transform="translate(395.923 261.776)">
    <rect id="Rectangle_538" data-name="Rectangle 538" width="74.529" height="83.684" transform="translate(74.529 83.684) rotate(180)" fill="#aed9e0"/>
    <rect id="Rectangle_539" data-name="Rectangle 539" width="74.529" height="83.684" transform="translate(111.794 83.684) rotate(180)" fill="#aed9e0"/>
    <path id="Path_2521" data-name="Path 2521" d="M-551-337.182h11.81l-1.04-4.525,1.04-3.234H-551Z" transform="translate(551.047 399.644)" fill="#aed9e0"/>
    <path id="Path_2522" data-name="Path 2522" d="M-534.255-353.635h11.81l-1.04-4.525,1.04-3.234h-11.81Z" transform="translate(571.52 379.533)" fill="#aed9e0"/>
    <path id="Path_2523" data-name="Path 2523" d="M-527.76-361.394h-11.81l1.04,4.525-1.04,3.234h11.81Z" transform="translate(565.024 379.533)" fill="#aed9e0"/>
    <path id="Path_2524" data-name="Path 2524" d="M-494.222-341.045h-11.81l1.04,4.525-1.04,3.234h11.81Z" transform="translate(606.018 404.405)" fill="#aed9e0"/>
    <rect id="Rectangle_540" data-name="Rectangle 540" width="21.447" height="11.362" transform="translate(85.467 5.674)" fill="#aed9e0"/>
  </g>
  <g id="Group_1095" data-name="Group 1095" transform="translate(514.5 261.776)">
    <rect id="Rectangle_541" data-name="Rectangle 541" width="74.529" height="83.684" transform="translate(74.529 83.684) rotate(180)" fill="#aed9e0"/>
    <rect id="Rectangle_542" data-name="Rectangle 542" width="74.529" height="83.684" transform="translate(111.794 83.684) rotate(180)" fill="#aed9e0"/>
    <path id="Path_2525" data-name="Path 2525" d="M-497.647-337.182h11.81l-1.04-4.525,1.04-3.234h-11.81Z" transform="translate(497.69 399.644)" fill="#aed9e0"/>
    <path id="Path_2526" data-name="Path 2526" d="M-480.9-353.635h11.81l-1.04-4.525,1.04-3.234H-480.9Z" transform="translate(518.162 379.533)" fill="#aed9e0"/>
    <path id="Path_2527" data-name="Path 2527" d="M-474.4-361.394h-11.81l1.04,4.525-1.04,3.234h11.81Z" transform="translate(511.667 379.533)" fill="#aed9e0"/>
    <path id="Path_2528" data-name="Path 2528" d="M-440.865-341.045h-11.81l1.04,4.525-1.04,3.234h11.81Z" transform="translate(552.66 404.405)" fill="#aed9e0"/>
    <rect id="Rectangle_543" data-name="Rectangle 543" width="21.447" height="11.362" transform="translate(85.467 5.674)" fill="#aed9e0"/>
  </g>
  <g id="Group_1096" data-name="Group 1096" transform="translate(413.623 204.895)">
    <rect id="Rectangle_544" data-name="Rectangle 544" width="68.981" height="56.879" transform="translate(68.981 56.879) rotate(180)" fill="#b8f2e6"/>
    <rect id="Rectangle_545" data-name="Rectangle 545" width="68.981" height="56.879" transform="translate(103.472 56.879) rotate(180)" fill="#b8f2e6"/>
    <path id="Path_2529" data-name="Path 2529" d="M-543.041-373.147h10.931l-.963-3.076.963-2.2h-10.931Z" transform="translate(543.081 415.601)" fill="#b8f2e6"/>
    <path id="Path_2530" data-name="Path 2530" d="M-527.539-384.329h10.931l-.963-3.076.963-2.2h-10.931Z" transform="translate(562.029 401.932)" fill="#b8f2e6"/>
    <path id="Path_2531" data-name="Path 2531" d="M-521.527-389.6h-10.931l.963,3.076-.963,2.2h10.931Z" transform="translate(556.017 401.932)" fill="#b8f2e6"/>
    <path id="Path_2532" data-name="Path 2532" d="M-490.486-375.773h-10.931l.963,3.076-.963,2.2h10.931Z" transform="translate(593.959 418.838)" fill="#b8f2e6"/>
    <rect id="Rectangle_546" data-name="Rectangle 546" width="19.851" height="7.722" transform="translate(79.105 3.857)" fill="#b8f2e6"/>
  </g>
  <g id="Group_1097" data-name="Group 1097" transform="translate(337.535 303.052)">
    <rect id="Rectangle_547" data-name="Rectangle 547" width="51.704" height="42.633" transform="translate(51.704 42.634) rotate(180)" fill="#5e6472"/>
    <rect id="Rectangle_548" data-name="Rectangle 548" width="51.704" height="42.633" transform="translate(77.556 42.634) rotate(180)" fill="#5e6472"/>
    <path id="Path_2533" data-name="Path 2533" d="M-577.283-334.489h8.193l-.722-2.306.722-1.647h-8.193Z" transform="translate(577.313 366.311)" fill="#5e6472"/>
    <path id="Path_2534" data-name="Path 2534" d="M-565.664-342.871h8.193l-.722-2.306.722-1.647h-8.193Z" transform="translate(591.516 356.065)" fill="#5e6472"/>
    <path id="Path_2535" data-name="Path 2535" d="M-561.157-346.824h-8.193l.722,2.305-.722,1.647h8.193Z" transform="translate(587.01 356.065)" fill="#5e6472"/>
    <path id="Path_2536" data-name="Path 2536" d="M-537.891-336.457h-8.193l.722,2.305-.722,1.648h8.193Z" transform="translate(615.449 368.737)" fill="#5e6472"/>
  </g>
</svg>
